<svg xmlns="http://www.w3.org/2000/svg" id="그룹_184" width="27.523" height="27.523" viewBox="0 0 27.523 27.523">
    <defs>
        <style>
            .cls-1{fill:#e5e5e5}
        </style>
    </defs>
    <g id="그룹_183">
        <circle id="타원_71" cx="12.696" cy="12.696" r="12.696" class="cls-1" transform="translate(1.066 1.066)"/>
        <path id="패스_152" d="M13.762 27.523a13.762 13.762 0 1 1 13.761-13.761 13.777 13.777 0 0 1-13.761 13.761zm0-25.391a11.63 11.63 0 1 0 11.63 11.63 11.643 11.643 0 0 0-11.63-11.63z" class="cls-1"/>
    </g>
    <path id="패스_153" fill="#fff" d="M137.066 171.951a1.065 1.065 0 0 1-.76-.319l-3.933-4a1.066 1.066 0 1 1 1.52-1.495l3.143 3.194 6.5-7.16a1.066 1.066 0 1 1 1.578 1.434l-7.259 7.995a1.066 1.066 0 0 1-.767.35z" transform="translate(-124.967 -153.126)"/>
</svg>
