<svg xmlns="http://www.w3.org/2000/svg" width="20.254" height="16.456" viewBox="0 0 20.254 16.456">
    <defs>
        <style>
            .cls-1{fill:#606060}
        </style>
    </defs>
    <g id="그룹_2983" transform="translate(965 -155.747)">
        <path id="패스_3053" d="M-947.278 158.279h-2.6l-.529-1.1a2.532 2.532 0 0 0-2.281-1.434h-4.372a2.532 2.532 0 0 0-2.281 1.434l-.529 1.1h-2.6a2.539 2.539 0 0 0-2.53 2.532v8.861a2.539 2.539 0 0 0 2.532 2.532h15.19a2.539 2.539 0 0 0 2.532-2.532v-8.861a2.539 2.539 0 0 0-2.532-2.532zm-7.6 12.026a5.064 5.064 0 0 1-5.064-5.063 5.064 5.064 0 0 1 5.064-5.064 5.063 5.063 0 0 1 5.063 5.064 5.063 5.063 0 0 1-5.058 5.058z" class="cls-1"/>
        <circle id="타원_113" cx="3.291" cy="3.291" r="3.291" class="cls-1" transform="translate(-958.164 161.95)"/>
    </g>
</svg>
