<svg xmlns="http://www.w3.org/2000/svg" width="13.081" height="13.088" viewBox="0 0 13.081 13.088">
    <path fill="#fff" d="M12.876 12.1q-1.273-1.27-2.544-2.544c-.1-.1-.1-.105-.016-.219a5.879 5.879 0 0 0 .672-1.1 5.726 5.726 0 0 0-.109-5.137A5.749 5.749 0 0 0 5.12.03 5.454 5.454 0 0 0 2.8.8 5.84 5.84 0 0 0 .224 4.071 5.229 5.229 0 0 0 0 5.255v.127c.018.016.012.038.013.058v.047c0 .025.009.052-.013.074v.408c.022.022.01.051.013.076v.1c0 .02 0 .041-.013.058v.1a2.527 2.527 0 0 1 .036.351A5.746 5.746 0 0 0 .3 7.714a5.641 5.641 0 0 0 1.176 1.955A5.817 5.817 0 0 0 6.6 11.5a5.726 5.726 0 0 0 2.682-1.139c.149-.113.149-.113.286.023l2.507 2.508a.552.552 0 0 0 .357.194h.2a.49.49 0 0 0 .448-.558.585.585 0 0 0-.205-.434M5.74 10.467a4.689 4.689 0 1 1 4.7-4.683 4.691 4.691 0 0 1-4.7 4.683" transform="translate(0 -.001)"/>
</svg>
