<svg xmlns="http://www.w3.org/2000/svg" width="13.901" height="13.909" viewBox="0 0 13.901 13.909">
    <path fill="#110101" d="M13.683 12.856q-1.353-1.35-2.7-2.7c-.111-.111-.11-.112-.017-.233a6.248 6.248 0 0 0 .714-1.165 6.085 6.085 0 0 0-.115-5.46A6.11 6.11 0 0 0 5.441.032a5.8 5.8 0 0 0-2.461.82A6.206 6.206 0 0 0 .238 4.326 5.557 5.557 0 0 0 0 5.585v.135c.019.017.013.04.014.061v.05c0 .026.009.055-.014.079v.434c.023.024.011.054.014.081v.1c0 .021.005.044-.014.062V6.7a2.685 2.685 0 0 1 .038.373A6.107 6.107 0 0 0 .323 8.2a6 6 0 0 0 1.246 2.078 6.182 6.182 0 0 0 5.441 1.946 6.085 6.085 0 0 0 2.851-1.211c.158-.12.158-.12.3.025q1.339 1.333 2.667 2.662a.587.587 0 0 0 .38.207h.217a.521.521 0 0 0 .476-.593.622.622 0 0 0-.218-.461M6.1 11.123a4.984 4.984 0 1 1 5-4.977 4.985 4.985 0 0 1-5 4.977" transform="translate(0 -.001)"/>
</svg>
