<svg xmlns="http://www.w3.org/2000/svg" width="116.201" height="37.018" viewBox="0 0 116.201 37.018">
    <defs>
        <style>
            .cls-1{fill:#e73828}.cls-2{fill:#fff}.cls-4{letter-spacing:-.029em}
        </style>
    </defs>
    <g id="그룹_1" transform="translate(-87.995 -11.248)">
        <path id="패스_1" d="M53.067 12.519h-5.733l1.6-9.052h2.263l-1.244 7.091h3.47z" class="cls-1" transform="translate(62.421 9.132)"/>
        <path id="패스_2" d="M58.177 10.746a1.033 1.033 0 0 0 .515-.126l-.063 1.421a2.05 2.05 0 0 1-1.345.49q-1.145 0-1.484-.528a1.366 1.366 0 0 1-.226-.748 4.268 4.268 0 0 1 .051-.7l.754-4.249h2.137l-.7 3.96a.834.834 0 0 0-.013.139c0 .227.125.34.377.34m-1.549-6.486a1.641 1.641 0 0 1 .358-1.176 1.484 1.484 0 0 1 1.111-.371q1.057 0 1.057.93A1.6 1.6 0 0 1 58.8 4.8a1.519 1.519 0 0 1-1.125.366q-1.044 0-1.043-.906" class="cls-1" transform="translate(60.631 9.296)"/>
        <path id="패스_3" d="M66.466 7.306a4.559 4.559 0 0 1 .176 1.4 6.526 6.526 0 0 1-.214 1.68 5.9 5.9 0 0 1-.647 1.527 3.3 3.3 0 0 1-1.208 1.169 3.5 3.5 0 0 1-1.779.447 2.928 2.928 0 0 1-2.175-.643 1.845 1.845 0 0 1-.4-1.306 5.094 5.094 0 0 1 .1-.944l.59-3.332h2.137l-.591 3.345a1.75 1.75 0 0 0-.038.34q0 .716.742.716 1.308 0 1.307-2.74a11.15 11.15 0 0 0-.1-1.422l-.038-.239z" class="cls-1" transform="translate(59.622 8.297)"/>
        <path id="패스_4" d="M71.362 13.477q-2.615 0-2.615-1.81a3.159 3.159 0 0 1 .05-.541l.265-1.559a2.777 2.777 0 0 1 1.112-1.854 3.99 3.99 0 0 1 2.383-.648q2.526 0 2.527 1.911a3.971 3.971 0 0 1-.051.6l-.151.893h-3.834l-.048.293a1.733 1.733 0 0 0-.024.277q0 .691.817.691a.751.751 0 0 0 .515-.189.721.721 0 0 0 .252-.44l2.087.025q-.414 2.352-3.282 2.351m1.509-3.772a1.73 1.73 0 0 0 .05-.4.571.571 0 0 0-.164-.371.653.653 0 0 0-.521-.189 1.016 1.016 0 0 0-.654.239 1.257 1.257 0 0 0-.409.717z" class="cls-1" transform="translate(57.768 8.35)"/>
        <path id="패스_5" d="M34.923 22.948h-8.3l-1.435 8.242h-5.657L23.5 8.712h15.669l-.874 4.87H28.243l-.781 4.495h8.3z" class="cls-2" transform="translate(68.464 7.992)"/>
        <path id="패스_6" d="M56.14 28.341a.724.724 0 0 0 .827.812 2.825 2.825 0 0 0 1.389-.312l-.156 3.527a5.207 5.207 0 0 1-3.372 1.217q-3.435 0-3.808-2.5a5.076 5.076 0 0 1-4.59 2.5q-5.121 0-5.12-4.4a9.722 9.722 0 0 1 .157-1.654l.655-3.653a7.765 7.765 0 0 1 2.295-4.478 6.6 6.6 0 0 1 4.683-1.674q2.887 0 3.918 1.341l.157-.936h4.745l-1.748 9.834a2.244 2.244 0 0 0-.031.375m-9.241-1.5a3.739 3.739 0 0 0-.063.78 1.426 1.426 0 0 0 .469.984 2.132 2.132 0 0 0 1.576.484 2.536 2.536 0 0 0 1.92-.874l.937-5.245q-.344-.78-1.623-.78a2.548 2.548 0 0 0-2.81 2.31z" class="cls-2" transform="translate(63.73 6.033)"/>
        <path id="패스_7" d="M70.621 33.569q-6.493 0-6.494-4.5a7.813 7.813 0 0 1 .125-1.342l.655-3.871a6.731 6.731 0 0 1 2.732-4.59 9.687 9.687 0 0 1 5.667-1.623q6.65 0 6.65 4.621a6.374 6.374 0 0 1-.234 1.8 3.022 3.022 0 0 1-.484 1.076l-.25.313H73.68a2.1 2.1 0 0 0 .78-1.623 1.49 1.49 0 0 0-1.686-1.687 2.608 2.608 0 0 0-1.716.593 2.916 2.916 0 0 0-.937 1.811l-.406 2.279a3.034 3.034 0 0 0-.062.593q0 1.655 2.06 1.655a1.922 1.922 0 0 0 1.233-.438 1.615 1.615 0 0 0 .64-.967l5.182.063q-1.03 5.838-8.148 5.838" class="cls-2" transform="translate(58.772 6.05)"/>
        <path id="패스_8" d="M91.868 32.251q-3.622 0-5.214-1.623a4.3 4.3 0 0 1-1.187-3.185 8.518 8.518 0 0 1 .125-1.4l2.123-12.082 5.714-2.373-.906 5.212h8.617l-.78 4.4h-8.618l-.625 3.528a5.224 5.224 0 0 0-.124 1.061q0 1.966 1.873 1.967a2.058 2.058 0 0 0 1.67-.843 4.941 4.941 0 0 0 .921-2.248h5.182q-1.31 7.586-8.772 7.586" class="cls-2" transform="translate(54.134 7.368)"/>
        <path id="패스_9" d="M115.1 17.686a7.652 7.652 0 0 1 5.089 1.468 4.016 4.016 0 0 1 1.342 3.215 7.971 7.971 0 0 1-.156 1.5l-.656 3.653a6.571 6.571 0 0 1-2.763 4.684 10.729 10.729 0 0 1-5.792 1.373q-3.622 0-5.307-1.373a3.776 3.776 0 0 1-1.249-3.092 9.117 9.117 0 0 1 .156-1.592l.656-3.653q1.093-6.181 8.679-6.182m.843 6.806a4.191 4.191 0 0 0 .063-.8 1.965 1.965 0 0 0-.405-1.077 1.6 1.6 0 0 0-1.421-.592 2.342 2.342 0 0 0-1.7.671 3.151 3.151 0 0 0-.873 1.8l-.406 2.341a4.138 4.138 0 0 0-.063.8 1.828 1.828 0 0 0 .405 1.046 1.639 1.639 0 0 0 1.421.561 2.284 2.284 0 0 0 1.7-.7 3.228 3.228 0 0 0 .873-1.7z" class="cls-2" transform="translate(49.756 6.042)"/>
        <path id="패스_10" d="M142.132 21.307a6.8 6.8 0 0 1-1.061 3.528l-.344.437h-4.714a2.323 2.323 0 0 0 .78-1.78 1.248 1.248 0 0 0-.359-.921 1.332 1.332 0 0 0-.983-.358 2.256 2.256 0 0 0-1.842 1.062l-1.749 9.865h-5.307l2.653-15.016h4.933l-.375 2.091a5.177 5.177 0 0 1 4.308-2.529 4.262 4.262 0 0 1 3.045.967 3.5 3.5 0 0 1 1.014 2.654" class="cls-2" transform="translate(45.205 6.042)"/>
        <path id="패스_11" d="M152.234 26.549a6.8 6.8 0 0 0-.094 1.123q0 1.5 1.686 1.5a2.99 2.99 0 0 0 2.274-.972l1.748-9.96h5.308l-2.743 15.52a10.888 10.888 0 0 1-3.137 6.275 7.941 7.941 0 0 1-5.6 2.31 7.11 7.11 0 0 1-4.543-1.154 3.749 3.749 0 0 1-1.39-3.029q0-2.653 3.279-4.714a2.872 2.872 0 0 1-2.248-1.779 4.786 4.786 0 0 1-.281-1.687 11.856 11.856 0 0 1 .157-1.9l1.748-9.834h5.302zm.156 11.332q2.03 0 2.654-3.684l.312-1.811q-4.34 2.03-4.34 4.09a1.437 1.437 0 0 0 .359 1.015 1.308 1.308 0 0 0 1.014.39" class="cls-2" transform="translate(41.035 5.92)"/>
        <path id="패스_12" d="M94.384 4.339A5.1 5.1 0 0 0 90.441 6.2l.906.9a3.826 3.826 0 0 1 6.076 0l.9-.9a5.1 5.1 0 0 0-3.943-1.866" class="cls-2" transform="translate(53.053 8.942)"/>
        <path id="패스_13" d="M93.982 1.741a7.12 7.12 0 0 0-5.39 2.459l.87.863a5.907 5.907 0 0 1 9.042 0l.87-.863a7.121 7.121 0 0 0-5.391-2.462" class="cls-2" transform="translate(53.455 9.507)"/>
        <path id="패스_14" d="M94.8 6.994a3.023 3.023 0 0 0-2.456 1.265l.916.909a1.76 1.76 0 0 1 3.081 0l.916-.909A3.025 3.025 0 0 0 94.8 6.994" class="cls-2" transform="translate(52.64 8.365)"/>
        <text id="Live_Commerce" fill="#e54141" font-family="CenturyGothic, Century Gothic" font-size="4px" transform="translate(145.454 45.948)">
            <tspan x="0" y="0" class="cls-4">L</tspan><tspan y="0" letter-spacing="-0.03em">iv</tspan><tspan y="0" class="cls-4">e Commerc</tspan><tspan y="0">e</tspan>
        </text>
    </g>
</svg>
