<svg xmlns="http://www.w3.org/2000/svg" width="29" height="29" viewBox="0 0 29 29">
    <defs>
        <style>
            .cls-2{fill:#fff}
        </style>
    </defs>
    <g id="그룹_3117" transform="translate(-1546 -860)">
        <circle id="타원_114" cx="14.5" cy="14.5" r="14.5" fill="#e5e5e5" transform="translate(1546 860)"/>
        <g id="like" transform="translate(1552.785 866)">
            <g id="그룹_277">
                <g id="그룹_276">
                    <path id="패스_160" d="M46.834 99.161a1.624 1.624 0 0 0-1.21-2.708H42.47a10.5 10.5 0 0 0 .446-2.745v-.541A2.169 2.169 0 0 0 40.75 91h-.542a.542.542 0 0 0-.525.41l-.3 1.18c-.413 1.653-1.726 3.477-3.084 3.808a1.627 1.627 0 0 0-1.512-1.03h-3.25a.542.542 0 0 0-.542.542v9.75a.542.542 0 0 0 .542.542h3.25a1.627 1.627 0 0 0 1.467-.926l1.861.62A5.945 5.945 0 0 0 40 106.2h4.538a1.625 1.625 0 0 0 1.511-2.224 1.624 1.624 0 0 0 .782-2.651 1.622 1.622 0 0 0 0-2.167zm-11.5 5.416a.542.542 0 0 1-.542.542h-2.709v-8.666h2.708a.542.542 0 0 1 .542.542zm9.207-4.877h1.083a.542.542 0 1 1 0 1.083h-1.083a.542.542 0 1 0 0 1.083h1.083a.542.542 0 1 1 0 1.083h-1.083a.542.542 0 0 0 0 1.083.542.542 0 1 1 0 1.083H40a4.864 4.864 0 0 1-1.542-.25l-2.045-.682v-6.7a4.365 4.365 0 0 0 2.432-1.58 7.9 7.9 0 0 0 1.59-3.051l.192-.77h.119a1.085 1.085 0 0 1 1.083 1.083v.541a8.571 8.571 0 0 1-.519 2.745h-1.102a.542.542 0 0 0 0 1.083h5.416a.542.542 0 1 1 0 1.083h-1.083a.542.542 0 1 0 0 1.083z" class="cls-2" transform="translate(-31 -91)"/>
                </g>
            </g>
            <g id="그룹_279" transform="translate(2.214 12.355)">
                <g id="그룹_278">
                    <circle id="타원_75" cx=".5" cy=".5" r=".5" class="cls-2"/>
                </g>
            </g>
        </g>
    </g>
</svg>
