<svg xmlns="http://www.w3.org/2000/svg" id="그룹_1310" width="26" height="26" viewBox="0 0 26 26">
    <defs>
        <style>
            .cls-2{fill:#110101}
        </style>
    </defs>
    <rect id="사각형_45" width="26" height="26" fill="#e5e5e5" rx="5"/>
    <g id="Solid" transform="translate(7 6.999)">
        <path id="패스_154" d="M142.588 27.521l1.327-1.327v7.02a.643.643 0 1 0 1.286 0v-7.02l1.327 1.327a.643.643 0 1 0 .909-.909l-2.424-2.424a.643.643 0 0 0-.909 0l-2.424 2.424a.643.643 0 0 0 .909.909z" class="cls-2" transform="translate(-138.343 -23.999)"/>
        <path id="패스_155" d="M35.786 232a.643.643 0 0 0-.643.643v4.929h-9.857v-4.929a.643.643 0 1 0-1.286 0v5.143a1.071 1.071 0 0 0 1.071 1.072h10.287a1.071 1.071 0 0 0 1.071-1.072v-5.143a.643.643 0 0 0-.643-.643z" class="cls-2" transform="translate(-24 -226.428)"/>
    </g>
</svg>
