<svg xmlns="http://www.w3.org/2000/svg" width="1399" height="186" viewBox="0 0 1399 186">
    <defs>
        <clipPath id="clip-path">
            <path id="사각형_735" fill="#fff1f1" d="M0 0H1130V186H0z" transform="translate(-4174 2686.41)"/>
        </clipPath>
        <clipPath id="clip-path-2">
            <path id="사각형_728" d="M0 0H321.949V290.729H0z" class="cls-2"/>
        </clipPath>
        <clipPath id="clip-path-3">
            <path id="패스_406" d="M296.137 116.491a61.536 61.536 0 0 1-12.285-1.069c-3.727 1.859-20.807 11.375-20.807 11.375s19.339 54.217 19.339 60.708c0 8.337-4.149 22.036-6.9 32.08 5.867 1.088 26.753 1.408 34.979 1.187a205.356 205.356 0 0 0 22.751-1.779c-1.775-19.979-3.826-36.59-6.262-43.983 0 0 6.453-11.342 6.293-20s-4.137-15.869-3.886-21.813c.383-9.082.127-9.4.127-9.4-1.81-.938-13.864-7.136-18.925-9.737-4.026 2.771-9.772 2.292-14.42 2.431" class="cls-2" transform="translate(-263.044 -114.06)"/>
        </clipPath>
        <clipPath id="clip-path-5">
            <path id="사각형_729" d="M0 0H45.779V18.637H0z" class="cls-2"/>
        </clipPath>
        <style>
            .cls-2{fill:none}.cls-5{clip-path:url(#clip-path-2)}.cls-6{fill:#fff}.cls-7{fill:#231f20}.cls-8{fill:#606060}.cls-10{fill:#f27070}.cls-11{fill:#d1d3d4}.cls-13{fill:#6592bf}.cls-16{fill:#e73828}.cls-18{fill:#e68052}.cls-19{fill:#fab57a}.cls-20{fill:#f1f2f2}.cls-25{fill:#e78052}.cls-28{fill:#ffa4a4}
        </style>
    </defs>
    <g id="그룹_3455" transform="translate(-260 -523)">
        <path id="사각형_736" fill="#ffd9d9" d="M0 0H1399V115H0z" transform="translate(260 594)"/>
        <g id="마스크_그룹_1" clip-path="url(#clip-path)" transform="translate(4569 -2163.41)">
            <g id="그룹_513" transform="translate(-3375.949 2709.39)">
                <g id="그룹_504" class="cls-5" transform="translate(0 0)">
                    <path id="패스_342" d="M215.488 303.226a6.4 6.4 0 0 1-6.172-6.6V38.435a6.4 6.4 0 0 1 6.172-6.6H330.9a6.4 6.4 0 0 1 6.172 6.6v258.192a6.4 6.4 0 0 1-6.172 6.6z" class="cls-6" transform="translate(-95.692 -14.554)"/>
                    <path id="패스_343" d="M329.164 32.161a4.344 4.344 0 0 1 4.115 4.542v258.191a4.343 4.343 0 0 1-4.115 4.541H213.755a4.343 4.343 0 0 1-4.115-4.541V36.7a4.344 4.344 0 0 1 4.115-4.542zm0-4.115H213.755a8.461 8.461 0 0 0-8.229 8.657v258.191a8.46 8.46 0 0 0 8.229 8.656h115.409a8.46 8.46 0 0 0 8.229-8.656V36.7a8.461 8.461 0 0 0-8.229-8.657" class="cls-7" transform="translate(-93.96 -12.822)"/>
                    <path id="패스_344" d="M215.488 303.226a6.4 6.4 0 0 1-6.172-6.6V38.435a6.4 6.4 0 0 1 6.172-6.6H330.9a6.4 6.4 0 0 1 6.172 6.6v258.192a6.4 6.4 0 0 1-6.172 6.6z" class="cls-6" transform="translate(-95.692 -14.554)"/>
                    <path id="패스_345" d="M329.164 32.161a4.344 4.344 0 0 1 4.115 4.542v258.191a4.343 4.343 0 0 1-4.115 4.541H213.755a4.343 4.343 0 0 1-4.115-4.541V36.7a4.344 4.344 0 0 1 4.115-4.542zm0-4.115H213.755a8.461 8.461 0 0 0-8.229 8.657v258.191a8.46 8.46 0 0 0 8.229 8.656h115.409a8.46 8.46 0 0 0 8.229-8.656V36.7a8.461 8.461 0 0 0-8.229-8.657" class="cls-8" transform="translate(-93.96 -12.822)"/>
                    <path id="패스_346" fill="#ccc" d="M351.841 104.812h-69.419v-7.257h69.419zm-68.24-1.18h67.06v-4.9H283.6z" transform="translate(-129.114 -44.599)"/>
                    <path id="패스_347" d="M232.978 108.774h-6.745a3.468 3.468 0 0 1-3.468-3.468V98.56a3.468 3.468 0 0 1 3.468-3.468h6.745a3.468 3.468 0 0 1 3.468 3.468v6.745a3.468 3.468 0 0 1-3.468 3.468" class="cls-10" transform="translate(-101.841 -43.473)"/>
                    <path id="패스_348" d="M400.286 287.5h-21.593a4.524 4.524 0 0 1 0-9.048h21.593a4.524 4.524 0 0 1 0 9.048" class="cls-10" transform="translate(-171.058 -127.301)"/>
                    <path id="패스_349" d="M260.75 280.735H224.5a1.139 1.139 0 0 1 0-2.278h36.25a1.139 1.139 0 1 1 0 2.278" class="cls-11" transform="translate(-102.114 -127.301)"/>
                    <path id="패스_350" d="M260.75 290.222H224.5a1.139 1.139 0 0 1 0-2.278h36.25a1.139 1.139 0 1 1 0 2.278" class="cls-11" transform="translate(-102.114 -131.638)"/>
                    <path id="사각형_722" fill="#2bb673" d="M0 0H24.051V18.551H0z" transform="translate(180.672 172.564)"/>
                    <path id="패스_351" d="M406.347 322.629h-23.23c-.4 0-.73-.439-.73-.979s.327-.978.73-.978h23.23c.4 0 .73.438.73.978s-.327.979-.73.979" class="cls-11" transform="translate(-174.815 -146.601)"/>
                    <path id="패스_352" d="M406.347 330.777h-23.23c-.4 0-.73-.438-.73-.979s.327-.978.73-.978h23.23c.4 0 .73.439.73.978s-.327.979-.73.979" class="cls-11" transform="translate(-174.815 -150.325)"/>
                    <path id="패스_353" d="M406.347 338.926h-23.23c-.4 0-.73-.438-.73-.979s.327-.978.73-.978h23.23c.4 0 .73.438.73.978s-.327.979-.73.979" class="cls-11" transform="translate(-174.815 -154.051)"/>
                    <path id="패스_354" d="M406.347 347.074h-23.23c-.4 0-.73-.438-.73-.979s.327-.978.73-.978h23.23c.4 0 .73.438.73.978s-.327.979-.73.979" class="cls-11" transform="translate(-174.815 -157.776)"/>
                    <path id="사각형_723" d="M0 0H24.051V18.551H0z" class="cls-13" transform="translate(180.672 195.663)"/>
                    <path id="패스_355" d="M406.347 365.183h-23.23c-.4 0-.73-.439-.73-.979s.327-.978.73-.978h23.23c.4 0 .73.437.73.978s-.327.979-.73.979" class="cls-11" transform="translate(-174.815 -166.055)"/>
                    <path id="패스_356" d="M406.347 373.331h-23.23c-.4 0-.73-.439-.73-.979s.327-.978.73-.978h23.23c.4 0 .73.437.73.978s-.327.979-.73.979" class="cls-11" transform="translate(-174.815 -169.78)"/>
                    <path id="패스_357" d="M406.347 381.48h-23.23c-.4 0-.73-.439-.73-.979s.327-.978.73-.978h23.23c.4 0 .73.438.73.978s-.327.979-.73.979" class="cls-11" transform="translate(-174.815 -173.505)"/>
                    <path id="패스_358" d="M406.347 389.628h-23.23c-.4 0-.73-.439-.73-.979s.327-.978.73-.978h23.23c.4 0 .73.437.73.978s-.327.979-.73.979" class="cls-11" transform="translate(-174.815 -177.23)"/>
                    <path id="사각형_724" fill="#fbb040" d="M0 0H24.051V18.551H0z" transform="translate(180.672 218.762)"/>
                    <path id="패스_359" d="M406.347 407.735h-23.23c-.4 0-.73-.438-.73-.979s.327-.978.73-.978h23.23c.4 0 .73.438.73.978s-.327.979-.73.979" class="cls-11" transform="translate(-174.815 -185.509)"/>
                    <path id="패스_360" d="M406.347 415.884h-23.23c-.4 0-.73-.438-.73-.978s.327-.978.73-.978h23.23c.4 0 .73.438.73.978s-.327.978-.73.978" class="cls-11" transform="translate(-174.815 -189.234)"/>
                    <path id="패스_361" d="M406.347 424.033h-23.23c-.4 0-.73-.439-.73-.979s.327-.978.73-.978h23.23c.4 0 .73.438.73.978s-.327.979-.73.979" class="cls-11" transform="translate(-174.815 -192.959)"/>
                    <path id="패스_362" d="M406.347 432.182h-23.23c-.4 0-.73-.439-.73-.979s.327-.978.73-.978h23.23c.4 0 .73.437.73.978s-.327.979-.73.979" class="cls-11" transform="translate(-174.815 -196.685)"/>
                    <path id="사각형_725" fill="#fd7665" d="M0 0H24.051V18.551H0z" transform="translate(180.672 241.862)"/>
                    <path id="패스_363" d="M406.347 450.289h-23.23c-.4 0-.73-.438-.73-.979s.327-.978.73-.978h23.23c.4 0 .73.438.73.978s-.327.979-.73.979" class="cls-11" transform="translate(-174.815 -204.962)"/>
                    <path id="패스_364" d="M406.347 458.438h-23.23c-.4 0-.73-.438-.73-.979s.327-.978.73-.978h23.23c.4 0 .73.438.73.978s-.327.979-.73.979" class="cls-11" transform="translate(-174.815 -208.688)"/>
                    <path id="패스_365" d="M406.347 466.586h-23.23c-.4 0-.73-.438-.73-.979s.327-.978.73-.978h23.23c.4 0 .73.438.73.978s-.327.979-.73.979" class="cls-11" transform="translate(-174.815 -212.413)"/>
                    <path id="패스_366" d="M406.347 474.734h-23.23c-.4 0-.73-.438-.73-.979s.327-.978.73-.978h23.23c.4 0 .73.438.73.978s-.327.979-.73.979" class="cls-11" transform="translate(-174.815 -216.138)"/>
                    <path id="패스_367" d="M285.375 321.946H253.1a1.014 1.014 0 1 1 0-2.029h32.274a1.014 1.014 0 1 1 0 2.029" class="cls-11" transform="translate(-115.246 -146.255)"/>
                    <path id="패스_368" d="M285.375 330.393H253.1a1.014 1.014 0 1 1 0-2.029h32.274a1.014 1.014 0 1 1 0 2.029" class="cls-11" transform="translate(-115.246 -150.117)"/>
                    <path id="패스_369" d="M285.375 338.84H253.1a1.014 1.014 0 1 1 0-2.029h32.274a1.014 1.014 0 1 1 0 2.029" class="cls-11" transform="translate(-115.246 -153.979)"/>
                    <path id="패스_370" d="M285.375 347.287H253.1a1.014 1.014 0 1 1 0-2.029h32.274a1.014 1.014 0 1 1 0 2.029" class="cls-11" transform="translate(-115.246 -157.84)"/>
                    <path id="패스_371" d="M233.728 329.028h-5.1a2.522 2.522 0 0 1-2.523-2.522v-5.1a2.523 2.523 0 0 1 2.523-2.522h5.1a2.522 2.522 0 0 1 2.522 2.522v5.1a2.522 2.522 0 0 1-2.522 2.522" class="cls-11" transform="translate(-103.368 -145.783)"/>
                    <path id="패스_372" d="M273.63 371.6h-21.575a1.014 1.014 0 1 1 0-2.029h21.575a1.014 1.014 0 1 1 0 2.029" class="cls-11" transform="translate(-114.767 -168.958)"/>
                    <path id="패스_373" d="M284.329 363.267h-32.274a1.014 1.014 0 0 1 0-2.029h32.274a1.014 1.014 0 1 1 0 2.029" class="cls-11" transform="translate(-114.768 -165.146)"/>
                    <path id="패스_374" d="M235.975 364.109a3.694 3.694 0 1 1-3.693-3.694 3.693 3.693 0 0 1 3.693 3.694" class="cls-11" transform="translate(-104.503 -164.77)"/>
                    <path id="패스_375" d="M279.8 397h-27.745a1.014 1.014 0 0 1 0-2.029H279.8a1.014 1.014 0 1 1 0 2.029" class="cls-11" transform="translate(-114.768 -180.567)"/>
                    <path id="패스_376" d="M284.329 388.66h-32.274a1.014 1.014 0 0 1 0-2.029h32.274a1.014 1.014 0 1 1 0 2.029" class="cls-11" transform="translate(-114.768 -176.755)"/>
                    <path id="패스_377" d="M235.975 389.5a3.694 3.694 0 1 1-3.693-3.694 3.693 3.693 0 0 1 3.693 3.694" class="cls-11" transform="translate(-104.503 -176.379)"/>
                    <path id="패스_378" d="M273.63 422.39h-21.575a1.014 1.014 0 1 1 0-2.029h21.575a1.014 1.014 0 1 1 0 2.029" class="cls-11" transform="translate(-114.767 -192.175)"/>
                    <path id="패스_379" d="M284.329 414.052h-32.274a1.014 1.014 0 0 1 0-2.029h32.274a1.014 1.014 0 1 1 0 2.029" class="cls-11" transform="translate(-114.768 -188.363)"/>
                    <path id="패스_380" d="M235.975 414.895a3.694 3.694 0 1 1-3.693-3.694 3.694 3.694 0 0 1 3.693 3.694" class="cls-11" transform="translate(-104.503 -187.987)"/>
                    <path id="패스_381" d="M284.329 447.782h-32.274a1.015 1.015 0 0 1 0-2.029h32.274a1.015 1.015 0 0 1 0 2.029" class="cls-11" transform="translate(-114.768 -203.783)"/>
                    <path id="패스_382" d="M284.329 439.445h-32.274a1.014 1.014 0 0 1 0-2.029h32.274a1.014 1.014 0 1 1 0 2.029" class="cls-11" transform="translate(-114.768 -199.972)"/>
                    <path id="패스_383" d="M235.975 440.287a3.694 3.694 0 1 1-3.693-3.694 3.694 3.694 0 0 1 3.693 3.694" class="cls-11" transform="translate(-104.503 -199.596)"/>
                    <path id="패스_384" d="M277.745 473.174h-25.69a1.014 1.014 0 0 1 0-2.029h25.69a1.014 1.014 0 1 1 0 2.029" class="cls-11" transform="translate(-114.768 -215.392)"/>
                    <path id="패스_385" d="M284.329 464.837h-32.274a1.014 1.014 0 0 1 0-2.029h32.274a1.014 1.014 0 1 1 0 2.029" class="cls-11" transform="translate(-114.768 -211.58)"/>
                    <path id="패스_386" d="M235.975 465.68a3.694 3.694 0 1 1-3.693-3.694 3.694 3.694 0 0 1 3.693 3.694" class="cls-11" transform="translate(-104.503 -211.205)"/>
                    <path id="패스_387" d="M326.863 43.811H269.9c-1.857 0-5.485-10.08-5.485-10.08h67.935s-3.629 10.08-5.485 10.08" class="cls-8" transform="translate(-120.881 -15.421)"/>
                    <path id="패스_388" d="M328.868 497.234a6.143 6.143 0 1 1-6.143-6.142 6.142 6.142 0 0 1 6.143 6.142" class="cls-11" transform="translate(-144.731 -224.511)"/>
                    <path id="사각형_726" d="M0 0H12.709V12.708H0z" class="cls-11" transform="translate(136.834 266.581)"/>
                    <path id="패스_389" d="M382.134 497.287l10.731-6.2v12.391z" class="cls-11" transform="translate(-174.699 -224.511)"/>
                    <path id="사각형_727" d="M0 0H113.152V77.989H0z" class="cls-13" transform="translate(120.924 69.288)"/>
                    <path id="패스_390" d="M551.032 90.6a18.714 18.714 0 0 1-1.754-.726c-4.167 1.031-8.464 1.365-12.319-.251-3.519-1.475-5.565-4.813-8.41-7.173a17.859 17.859 0 0 0-11.306-4.234c.213 10.541 4.011 23.567 4.011 23.567l2.85-.447s-2.846-8.741 1.133-11.394 12.935 9.187 12.935 9.187l19.466-3.053s4.12-1.749-6.606-5.476" class="cls-16" transform="translate(-236.466 -35.758)"/>
                    <path id="패스_391" fill="#b2151b" d="M548.73 104.952c-3.865-.352-6.678-2.564-9.561-4.967-2.741-2.285-6.193-5.362-10.078-4.587-3.138.626-4.248 4.61-4.517 7.331a12.5 12.5 0 0 0 .93 6.706l1.912-.3s-2.845-8.741 1.133-11.394 12.935 9.187 12.935 9.187l19.466-3.053s1.115-.476.669-1.459c-4.241 1.226-8.42 2.944-12.887 2.536" transform="translate(-239.777 -43.557)"/>
                    <path id="패스_392" d="M288.131 21.6c.01 3.8-2.773-7.178-5.578-4.611s-5.643 18.888-8.746 21.084a4.449 4.449 0 0 0-1.543 1.558 4.047 4.047 0 0 0-.009 2.817c.669 2.429 1.943 4.652 2.673 7.064s.83 5.233-.686 7.244c-1.4 1.858-3.805 2.578-5.832 3.723s-3.929 3.4-3.145 5.59c.581 1.625 2.384 2.449 3.394 3.849a6.293 6.293 0 0 1 .37 5.91 23 23 0 0 1-3.334 5.176c-.86 1.142-1.668 2.82-.7 3.87.79.854 2.176.6 3.292.271q15.233-4.469 30.114-10.039c3-1.123 6.081-2.336 8.364-4.585 2.876-2.834 4.116-7 4.2-11.041s-.871-8.014-1.818-11.94c-1.337-5.536-2.7-11.132-5.3-16.194s-6.63-9.617-11.921-11.721z" class="cls-7" transform="translate(-120.946 -7.589)"/>
                    <path id="패스_393" d="M334.6 39.7c-.009 3.356 4.117-4.985 6.593-2.72s3.307 15.32 6.051 17.262a3.922 3.922 0 0 1 1.363 1.376 3.573 3.573 0 0 1 .008 2.487c-.59 2.144-1.715 4.107-2.36 6.236s-.733 4.621.606 6.4c1.238 1.641 3.36 2.276 5.149 3.287s3.468 3 2.776 4.935c-.513 1.435-2.1 2.163-3 3.4a5.554 5.554 0 0 0-.326 5.218 20.277 20.277 0 0 0 2.943 4.571c.759 1.008 1.472 2.49.616 3.417-.7.754-1.921.528-2.906.238q-13.451-3.945-26.589-8.862c-2.65-.992-5.37-2.063-7.385-4.049a14.013 14.013 0 0 1-3.707-9.748 41.6 41.6 0 0 1 1.609-10.548c1.18-4.887 2.38-9.829 4.683-14.3s5.854-8.491 10.526-10.349z" class="cls-7" transform="translate(-143.747 -16.724)"/>
                    <path id="패스_394" d="M554.089 113.993l-15.657 6.573-11.344.043 4.472-2.986 8.817-.524s10.743-6.754 13.711-3.106" class="cls-18" transform="translate(-240.967 -51.62)"/>
                    <path id="패스_395" d="M444.069 123.978s3.745-8.114 7.122-10.292 6.193-1.663 7.824-2.524 4.77-4.478 7.551-3.673-1.322 3.66-1.322 3.66l-3.692 2.845 5.572.084s7.3-5.524 9.305-4.577-9.136 8.534-9.136 8.534-12.388 1.386-13.728 4.222-35.29 34.225-38.57 37.06-43.517-24.59-43.517-24.59l5.656-14.851 35.785 21.781z" class="cls-19" transform="translate(-169.828 -49.087)"/>
                    <path id="패스_396" d="M377.135 130.4l35.785 21.781 30.441-18.254s.721.536.741.474c1.67.685 5.5 5.082 5.929 5.2-5.293 12.085-32.421 27.981-35.035 30.243-3.28 2.837-43.517-24.59-43.517-24.59z" class="cls-10" transform="translate(-169.828 -59.616)"/>
                    <path id="패스_397" d="M77.147 116.384l15.653 6.574 11.344.043-4.472-2.986-8.817-.524s-10.743-6.754-13.711-3.106" class="cls-18" transform="translate(-35.269 -52.713)"/>
                    <path id="패스_398" d="M121.318 126.368s-3.745-8.114-7.122-10.292-6.193-1.663-7.824-2.524-4.77-4.478-7.551-3.673 1.322 3.66 1.322 3.66l3.692 2.845-5.572.084s-7.3-5.524-9.305-4.577 9.136 8.533 9.136 8.533 12.387 1.387 13.728 4.222 35.29 34.225 38.57 37.06 43.517-24.59 43.517-24.59l-5.656-14.851-35.785 21.781z" class="cls-19" transform="translate(-40.558 -50.18)"/>
                    <path id="패스_399" d="M210.685 132.795L174.9 154.576l-30.44-18.255s-.721.536-.741.474c-1.67.684-5.5 5.082-5.929 5.2 5.293 12.085 32.421 27.981 35.035 30.243 3.28 2.837 43.517-24.59 43.517-24.59z" class="cls-10" transform="translate(-62.993 -60.709)"/>
                    <path id="패스_400" d="M326.948 175.01a105.008 105.008 0 0 1 3.252 16.364q-6.631-.024-13.261-.064c-11.594-.07-23.195-.13-34.79.022a35.615 35.615 0 0 0 .234-3.828c0-6.491-19.339-60.707-19.339-60.707s19.288-10.622 23.016-12.481c4.058.694 5.931 2.3 10.077 2.175 4.648-.14 10.395.339 14.42-2.432 5.06 2.6 17.115 8.8 18.925 9.738 0 0 .255.315-.127 9.4-.251 5.944 3.728 13.153 3.886 21.813s-6.293 20-6.293 20" class="cls-20" transform="translate(-120.255 -52.144)"/>
                </g>
                <g id="그룹_506" clip-path="url(#clip-path-3)" transform="translate(142.789 61.916)">
                    <path id="패스_401" d="M268.353 133.81a440.686 440.686 0 0 0 64.62-4.764l-.518-3.545a437.175 437.175 0 0 1-128.182 0l-.532 3.545a440.586 440.586 0 0 0 64.613 4.764" class="cls-16" transform="translate(-235.932 -119.29)"/>
                    <path id="패스_402" d="M266.637 159.011A454.937 454.937 0 0 0 333.3 154.1l-.518-3.545a451.585 451.585 0 0 1-132.3 0l-.518 3.545a455.017 455.017 0 0 0 66.666 4.915" class="cls-16" transform="translate(-234.209 -130.742)"/>
                    <path id="패스_403" d="M264.872 184.216a468.751 468.751 0 0 0 68.761-5.076l-.533-3.54a464.589 464.589 0 0 1-136.442 0l-.533 3.545a468.481 468.481 0 0 0 68.747 5.076" class="cls-16" transform="translate(-232.451 -142.192)"/>
                    <path id="패스_404" fill="#be1e2d" d="M263.1 209.4a482.888 482.888 0 0 0 70.87-5.233l-.533-3.544a479.038 479.038 0 0 1-140.66 0l-.533 3.544A482.477 482.477 0 0 0 263.1 209.4" transform="translate(-230.675 -153.635)"/>
                    <path id="패스_405" d="M261.284 234.6a496.968 496.968 0 0 0 73.013-5.4l-.533-3.545a492.964 492.964 0 0 1-144.953 0l-.533 3.545a496.968 496.968 0 0 0 73.006 5.4" class="cls-16" transform="translate(-228.863 -165.078)"/>
                </g>
                <g id="그룹_511" class="cls-5" transform="translate(0 0)">
                    <g id="그룹_510" opacity="0.3" transform="translate(165.592 109.997)">
                        <g id="그룹_509">
                            <g id="그룹_508" clip-path="url(#clip-path-5)">
                                <path id="패스_407" d="M340.731 215.586c-4.773-2.757-9.745-3.306-15.159-3a46.691 46.691 0 0 1-10.259-.332c-2.3-.369-4.734-.537-6.871-1.551-1.178-.559-3.433-2.153-3.391-3.642.057-2.005 3.555-1.676 4.775-1.575 2.236.186 4.361.923 6.575 1.227a11.434 11.434 0 0 0 6.412-1.017c2.285-1.036 4.438-2.8 7.007-3.026 4.731-.415 9.253 2.814 13.848 3.554a9.713 9.713 0 0 0 7.16-1.52 63.832 63.832 0 0 1-4.678 10.8 55.327 55.327 0 0 1 1.474 5.767 28.792 28.792 0 0 0-6.895-5.685" class="cls-7" transform="translate(-305.051 -202.634)"/>
                            </g>
                        </g>
                    </g>
                    <path id="패스_408" d="M319.317 116.293c-2.032-1.85-4.335-3.317-6.082-5.48a82.584 82.584 0 0 1-8.856-12.691c4.914-4.322-.223-19.712-.223-19.712l17.864.634 5.1 17.57 2.582 1.327c-.88 7.552-2.532 16.54-6.079 23.013-.078-.083-3.139-3.6-4.3-4.661" class="cls-19" transform="translate(-139.05 -35.846)"/>
                    <path id="패스_409" d="M304.379 98.122a47.882 47.882 0 0 0 2.658 4.421c8.291 4.718 15.5 5.4 21.813 1.422.347-2.058.625-4.088.851-6.024l-2.581-1.327-5.1-17.57-17.864-.634s5.136 15.39.223 19.712" class="cls-18" transform="translate(-139.05 -35.846)"/>
                    <path id="패스_410" d="M354.98 55.1c-.951 3.2-.088 6.281 1.929 6.88s4.422-1.51 5.373-4.71.088-6.282-1.929-6.88-4.422 1.51-5.373 4.71" class="cls-25" transform="translate(-162.108 -22.99)"/>
                    <path id="패스_411" d="M289.256 56.253c.726 3.258 2.979 5.53 5.033 5.073s3.13-3.471 2.4-6.73-2.979-5.531-5.031-5.073-3.13 3.47-2.405 6.73" class="cls-25" transform="translate(-132.135 -22.614)"/>
                    <path id="패스_412" fill="#fbbe7d" d="M314.744 14.085c16.477.177 17.3 15.647 17.344 17.511 0 .113 0 .222-.009.335-.118 1.721-2.431 17.625-4.05 20.648-1.342 2.507-9.975 10.6-13.914 10.6s-12.192-8.386-13.48-10.921c-1.553-3.057-3.524-18.982-3.606-20.7-.006-.113-.007-.221 0-.335.08-1.864 1.24-17.312 17.716-17.135" transform="translate(-135.789 -6.438)"/>
                    <path id="패스_413" d="M331.921 34.052a15.758 15.758 0 0 0-6.364-.833c-5.611.067-9.756 1.417-13.945-4.162-1.275-1.7-1.791-3.585-3.265-5.117a1.647 1.647 0 0 0-1.66-.257c-2.068.723-2.875 2.929-4.165 4.574a37.687 37.687 0 0 1-5.369 5.645c-.067-1.171-.109-2.02-.124-2.348-.005-.113-.007-.221 0-.334.08-1.864 1.24-17.312 17.716-17.135s17.3 15.647 17.345 17.511c0 .113 0 .222-.01.335-.02.306-.075 1.073-.157 2.121" class="cls-18" transform="translate(-135.789 -6.438)"/>
                    <path id="패스_414" d="M314.009 55.384c1.155-.116 2.154 1.128 2.231 2.779s-.795 3.084-1.949 3.2-2.154-1.127-2.231-2.778.8-3.085 1.949-3.2" class="cls-7" transform="translate(-142.661 -25.316)"/>
                    <path id="패스_415" d="M341.8 55.683c1.154-.116 2.154 1.127 2.231 2.78s-.8 3.084-1.95 3.2-2.154-1.127-2.232-2.779.8-3.085 1.951-3.2" class="cls-7" transform="translate(-155.367 -25.453)"/>
                    <path id="패스_416" d="M329.3 71.155c.278.463.262.381.073.73a3.98 3.98 0 0 1-.63.663c-.409.432 1.367.337 1.682.006.262-.276.894-.728 1.024-1.1.156-.441-.16-.611-.473-.88a5.479 5.479 0 0 1-1.768-2.868c-.115-.449-.855 1.873.093 3.448" class="cls-25" transform="translate(-150.262 -30.928)"/>
                    <path id="패스_417" d="M329.546 81.94a34.765 34.765 0 0 0-10.773 0s2.752 4.639 5.347 4.639 5.426-4.639 5.426-4.639" class="cls-18" transform="translate(-145.733 -37.269)"/>
                    <path id="패스_418" d="M319.114 82.471c-.214-.321-.34-.531-.34-.531a34.8 34.8 0 0 1 10.773 0s-.178.293-.486.73c-2.984 1.752-6.687.776-9.946-.2" class="cls-6" transform="translate(-145.733 -37.268)"/>
                    <path id="패스_419" d="M312.36 0c-24.819.145-19.717 27.527-17.3 28.178 0 0 5.412-13.877 11.32-13.708 5.419 16 19.973 6.7 23.848 13.225C333.186 26.151 336.474-.14 312.36 0" class="cls-7" transform="translate(-133.916 0)"/>
                    <path id="패스_420" fill="#4f4c4d" d="M338.106 15.429a15.158 15.158 0 0 0-7.7-10.308 27.379 27.379 0 0 0-15.312-3.2 45.373 45.373 0 0 0-7.674 1.029A21.5 21.5 0 0 1 318.986 0c16.265-.095 20.057 11.83 19.9 20.081-.2-1.575-.452-3.133-.781-4.654" transform="translate(-140.542 0)"/>
                    <path id="패스_421" d="M314.343 44.214a14.618 14.618 0 0 0-10.088 1.043 1.7 1.7 0 0 1-.984.438c-.249-.019-.237-.264.058-.546.008.158 2.86-4.178 10.534-2.764.525.122.586 1.855.48 1.829" class="cls-7" transform="translate(-138.565 -19.247)"/>
                    <path id="패스_422" d="M335.464 46.773a13.75 13.75 0 0 1 9.627.877 1.691 1.691 0 0 0 1.005.379c.248-.033.214-.277-.1-.543.031.105-3.279-3.879-10.208-2.273-.468.128-.418 1.587-.323 1.56" class="cls-7" transform="translate(-153.334 -20.495)"/>
                    <path id="패스_423" d="M366.962 175.01a105.022 105.022 0 0 1 3.252 16.364q-5.028-.018-10.055-.047c-.174-2.219-.275-3.534-.275-3.534 2.223-5.632 2.394-62.91-9.314-73.734 5.06 2.6 17.115 8.8 18.925 9.738 0 0 .255.315-.127 9.4-.251 5.944 3.728 13.153 3.886 21.813s-6.293 20-6.293 20" class="cls-10" transform="translate(-160.269 -52.144)"/>
                    <path id="패스_424" d="M277.65 192.551c-.011-1.168-.021-2.277-.021-3.313 0-6.491-14.585-61.292-14.585-61.292s17.08-9.516 20.807-11.375c3.968.679 16.01 72.371 16.01 72.371l-.221 3.444c-7.331-.007-14.662.032-21.991.166" class="cls-10" transform="translate(-120.255 -53.292)"/>
                    <path id="패스_425" d="M296.682 114.723c5.184 22.229 9.873 47.052 14.278 73.374l-22.528-55.135 4-3.335-5.113-1.112V119.4z" class="cls-28" transform="translate(-131.353 -52.447)"/>
                    <path id="패스_426" d="M350.571 114.06l6.794 3.333 6.818 10.375-4.446 1.482 4.891 2.372s4.595 30.828-4.743 56.173c0 0 5.928-45.057-9.314-73.734" class="cls-28" transform="translate(-160.269 -52.144)"/>
                    <path id="패스_427" d="M85.751 196.955L99.575 161.5A171.945 171.945 0 0 0 74.4 147.723c-2.606-1.152-14.46-3.388-17.288-3.261a171.934 171.934 0 0 0-28.516 3.71l.484 35.894c18.95 4.018 37.819 8.411 56.667 12.889" class="cls-11" transform="translate(-13.075 -66.041)"/>
                    <path id="패스_428" fill="#414042" d="M88.022 128.883l.807-4.292a3.715 3.715 0 1 0-3.447-4.4l.952.179a2.747 2.747 0 1 1 2.192 3.207l-.476-.09-.979 5.213-10.53 3.7-2.2 11.72 19.952 3.748 2.2-11.72zm5.5 17.859l-18.052-3.391 1.919-10.219 10-3.515 8.046 6.9z" transform="translate(-33.985 -53.564)"/>
                    <path id="패스_429" d="M66.595 150.492a14.516 14.516 0 0 1-28.409-5.337 174.978 174.978 0 0 0-22.661 3.336s1.167 42.653-.746 52.839S0 246.707 0 246.707c9.356 6.974 54.077 15.374 65.326 12.271 0 0 1.64-41.858 2.933-48.744s18.241-48.41 18.241-48.41a174.885 174.885 0 0 0-19.905-11.332" class="cls-20" transform="translate(0 -66.36)"/>
                    <path id="패스_430" d="M96.048 148.87a11.618 11.618 0 0 1-22.809-4.285c.026-.186-2.905-.193-2.946.255a14.516 14.516 0 0 0 28.407 5.337c.124-.433-2.61-1.489-2.654-1.307" class="cls-16" transform="translate(-32.107 -66.045)"/>
                    <path id="패스_431" d="M71.413 238.91l-24.6-4.621a6.525 6.525 0 0 1-5.208-7.618l4.621-24.6a6.525 6.525 0 0 1 7.618-5.208l24.6 4.621a6.525 6.525 0 0 1 5.208 7.618l-4.62 24.6a6.525 6.525 0 0 1-7.618 5.209" class="cls-16" transform="translate(-18.969 -89.948)"/>
                    <path id="패스_432" d="M96.218 116.719c-2.316-1.563-5.941-3.753-7.261-3.129-1.206.571 2.358 3.551 5.382 5.831a18.867 18.867 0 0 0 1.879-2.7" class="cls-19" transform="translate(-40.558 -51.88)"/>
                    <path id="패스_433" d="M74.108 214.167l1.947 7.434 7.228 2.61-6.469 4.149-.249 7.681-5.945-4.87-7.381 2.136 2.795-7.159-4.313-6.36 7.672.446z" class="cls-20" transform="translate(-28.216 -97.91)"/>
                    <path id="사각형_730" fill="#333" d="M0 0H113.152V9.161H0z" transform="translate(120.924 138.024)"/>
                    <path id="사각형_731" fill="#a7a9ac" d="M0 0H113.152V2.665H0z" transform="translate(120.924 138.024)"/>
                    <path id="사각형_732" fill="#ed1c24" d="M0 0H35.738V2.665H0z" transform="translate(120.924 138.024)"/>
                </g>
                <path id="사각형_734" d="M0 0H321.949V290.729H0z" class="cls-2" transform="translate(0 0)"/>
            </g>
        </g>
        <text id="LIVE_로_쉽고_재미있게_쇼핑할땐_Pumkin_Live" fill="#e73828" font-family="NotoSansCJKkr-Regular, Noto Sans CJK KR" font-size="20px" letter-spacing="-0.03em" transform="translate(350 660)">
            <tspan x="0" y="0">LIVE 로 쉽고 재미있게 쇼핑할땐,</tspan><tspan y="0" font-family="NotoSansCJKkr-Bold, Noto Sans CJK KR" font-weight="700"> Pumkin Live</tspan>
        </text>
    </g>
</svg>
