<?xml version="1.0" encoding="utf-8"?>
<!-- Generator: Adobe Illustrator 25.3.0, SVG Export Plug-In . SVG Version: 6.00 Build 0)  -->
<svg version="1.1" id="Layer_1" xmlns="http://www.w3.org/2000/svg" xmlns:xlink="http://www.w3.org/1999/xlink" x="0px" y="0px"
	 viewBox="0 0 776.1 126.9" style="enable-background:new 0 0 776.1 126.9;" xml:space="preserve">
<style type="text/css">
	.st0{fill:#231815;}
	.st1{fill:#44BBC7;}
</style>
<g>
	<path class="st0" d="M48.4,111.6L63,85.8h19.5c2.3,0,4.7,0,7.3,0c2.5,0,4.7,0.1,6.6,0.3c-1.1-1.8-2.3-4.1-3.8-6.8
		c-1.4-2.8-2.8-5.3-4.1-7.7L74.5,45L38,111.6H9.5l49.9-90.8c1.6-2.9,3.7-5.5,6.2-7.8c2.5-2.3,5.6-3.5,9.4-3.5c3.6,0,6.7,1.1,9.1,3.2
		c2.4,2.2,4.5,4.8,6.2,8l48.6,90.8H48.4z"/>
	<path class="st0" d="M216.9,40.6c-2.3-6-5.6-11.2-9.7-15.6c-4.1-4.3-9.1-7.7-14.8-10.1c-5.7-2.4-12-3.6-18.8-3.6h-36.7l-15.3,26.1
		h52.1c3.3,0,6.3,0.6,9.1,1.9c2.8,1.2,5.2,2.9,7.3,5.1c2.1,2.2,3.7,4.7,4.9,7.7c1.2,3,1.7,6.2,1.7,9.8c0,3.6-0.6,6.9-1.7,9.8
		c-1.2,2.9-2.8,5.5-4.8,7.6c-2,2.1-4.4,3.7-7.3,4.9c-2.8,1.2-5.9,1.7-9.2,1.7h-27.9V49.1h-24.2v6.9l29.8,55.7h22.3
		c6.8,0,13-1.3,18.7-3.9c5.7-2.6,10.7-6.2,14.8-10.7c4.1-4.5,7.4-10,9.8-16.2c2.4-6.2,3.5-13,3.5-20.3
		C220.4,53.3,219.2,46.6,216.9,40.6z"/>
	<path class="st1" d="M317.7,33.6c-1.7-4.6-4.2-8.5-7.4-11.8c-3.2-3.3-7.2-5.9-12-7.7c-4.7-1.8-10.1-2.8-16.2-2.8h-48.8l-11.9,19.5
		l-4.1,6.6h67c3.7,0,6.6,1,8.7,3.1c2,2.1,3.1,4.8,3.1,8.3s-1,6.3-3.1,8.4c-2.1,2.1-4.9,3.1-8.7,3.1h-55.9v0.2
		c0,8.5-1.4,16.5-4.2,23.9c-1.8,4.8-4.1,9.2-6.8,13.2v14.1h24V86H282c6.1,0,11.4-0.9,16.2-2.7c4.7-1.8,8.7-4.3,12-7.5
		c3.3-3.2,5.8-7.1,7.5-11.6c1.7-4.5,2.6-9.6,2.6-15.2C320.2,43.3,319.4,38.2,317.7,33.6z"/>
	<path class="st1" d="M395.3,11.3v56.6c0,3.5-0.4,6.5-1.2,9c-0.8,2.5-2.2,4.5-4,6.1c-1.9,1.6-4.3,2.8-7.4,3.5c-3.1,0.7-7,1-11.6,1
		c-6.2,0-11.2-0.3-15.1-1c-3.9-0.7-6.9-1.8-9-3.3c-2.1-1.5-3.6-3.6-4.4-6.1c-0.8-2.5-1.2-5.6-1.2-9.3V11.3h-24V17
		c3.3,3.8,5.8,8.2,7.7,13.2c2.1,5.7,3.2,12,3.2,18.8c0,6.8-1.1,13.1-3.2,18.7c-1.6,4.4-3.9,8.3-6.7,11.8c0.5,3,1.2,5.7,2.1,8.2
		c2.1,5.6,5.3,10.4,9.6,14.2c4.4,3.8,9.9,6.6,16.7,8.5c6.8,1.9,14.8,2.8,24.2,2.8c32.3,0,48.5-15.1,48.5-45.4V11.3H395.3z"/>
	<path class="st1" d="M529.7,23.4c-1.1-4.7-2.8-8.2-5.3-10.4c-2.4-2.2-5.2-3.4-8.2-3.4c-3.2,0-5.8,1-8,2.9c-2.1,2-3.9,4.5-5.3,7.7
		l-12.4,28.5c-1.7,3.9-3.2,7.3-4.5,10.2c-1.3,2.9-2.4,5.5-3.4,7.9s-1.8,4.5-2.5,6.3c-0.7,1.8-1.4,3.7-2,5.5
		c-0.7-1.8-1.4-3.7-2.2-5.5c-0.7-1.9-1.6-4-2.6-6.3c-1-2.3-2.1-4.9-3.4-7.9c-1.3-3-2.8-6.4-4.5-10.3L453,20.3
		c-1.4-3.3-3.2-5.9-5.3-7.8c-2.1-1.9-4.8-2.8-7.9-2.8c-3,0-5.8,1.1-8.2,3.4c-2.5,2.2-4.3,5.7-5.3,10.4l-0.8,3.6v40.8
		c0,19.6-6.3,34.4-18.2,43.8h22.5l7.3-35c1.2-5.7,2.2-10.7,3-15.1c0.9-4.3,1.6-8.5,2.2-12.5c0.6,1.7,1.3,3.4,1.9,5.2
		c0.7,1.8,1.4,3.8,2.3,5.9c0.9,2.2,1.9,4.6,3,7.3c1.1,2.7,2.3,5.8,3.7,9.2l10.5,25.3c1,2.5,2,4.5,3.1,5.9c1.1,1.5,2.1,2.6,3.2,3.4
		c1.1,0.8,2.2,1.3,3.5,1.6c1.2,0.2,2.6,0.4,4.1,0.4c1.5,0,2.8-0.1,4.1-0.4c1.2-0.2,2.4-0.8,3.5-1.6c1.1-0.8,2.2-1.9,3.2-3.4
		c1-1.5,2.1-3.4,3.1-5.9l10.5-25.2c2.6-6.5,4.8-11.9,6.4-16.1c1.6-4.2,3.1-8.1,4.4-11.6c0.6,4.1,1.4,8.3,2.2,12.6
		c0.8,4.3,1.9,9.3,3.1,15l7.3,35h23.9L529.7,23.4z"/>
	<path class="st1" d="M612,78.5c-5-5.3-9.2-9.5-12.3-12.5c-3.2-3-5.9-5.5-8.1-7.5c1.2-1,2.5-2,3.8-3.1c1.3-1.1,2.7-2.4,4.2-3.8
		c1.5-1.4,3.3-3,5.3-5c2-1.9,4.2-4.1,6.8-6.6l29.8-28.8h-34.9l-22.4,24.5c-3.6,3.8-6.5,7-8.7,9.7c-2.2,2.6-4.1,4.9-5.6,6.7
		c0.2-2.6,0.3-5.4,0.3-8.4c0.1-3,0.1-6,0.1-9.2V11.3h-24.2v49.1l11.4,51.3h12.8V82.8c0-2.4,0-4.8-0.1-7.3c-0.1-2.5-0.2-4.8-0.2-7.1
		c1.3,1.7,3.1,3.8,5.2,6.3c2.1,2.5,5.2,6,9.2,10.5l23.5,26.4h36.4L612,78.5z"/>
	<path class="st1" d="M661.8,20.3l-21.3,20.7v55.3l23.7,24.4h0.4V20.3H661.8z"/>
	<polygon class="st1" points="661.8,9.3 640.5,29.9 640.5,9.3 	"/>
	<path class="st1" d="M751.4,113.3c-1.6,0-3.1-0.3-4.6-1c-1.5-0.7-3.2-2.1-5.1-4.4l-47.7-55.2v58.9h-21.9V28.4
		c0-3.3,0.4-6.1,1.1-8.5c0.7-2.4,1.7-4.4,2.9-5.9c1.2-1.5,2.6-2.6,4.2-3.3c1.6-0.7,3.2-1.1,4.9-1.1c1.5,0,3,0.3,4.5,1
		c1.5,0.7,3.2,2.1,5.2,4.4l47.7,55.2v-59h22v83.1c0,3.3-0.4,6.2-1.1,8.6c-0.7,2.4-1.7,4.4-2.9,5.9c-1.2,1.6-2.6,2.7-4.2,3.4
		C754.7,112.9,753.1,113.3,751.4,113.3z"/>
</g>
</svg>
