<svg xmlns="http://www.w3.org/2000/svg" width="14.728" height="15.053" viewBox="0 0 14.728 15.053">
    <path fill="#110101" fill-rule="evenodd" d="M2.343 1.4L.663.557A.294.294 0 1 1 .926.032l1.791.9a.294.294 0 0 1 .181.223l.39 2.195h7.284a.295.295 0 1 1 0 .59h-7.18l1.223 6.883h.949a.295.295 0 1 1 0 .59H4.72l.151.851a1.4 1.4 0 0 1 1.315 1.1h4.965a1.4 1.4 0 1 1 0 .59H6.186a1.4 1.4 0 1 1-1.9-1.589L2.343 1.4zm5.581 10.01h5.009a1.226 1.226 0 0 0 .887-.37 1.745 1.745 0 0 0 .458-.929l.934-5.258a1.051 1.051 0 0 0 .016-.184 1.278 1.278 0 0 0-.354-.85 1.454 1.454 0 0 0-.8-.452 1.193 1.193 0 0 0-.208-.019h-.936a.295.295 0 1 0 0 .59h.936a.607.607 0 0 1 .107.01.853.853 0 0 1 .467.268.691.691 0 0 1 .2.453.47.47 0 0 1-.007.083l-.933 5.256a1.152 1.152 0 0 1-.295.613.651.651 0 0 1-.47.2H7.924a.295.295 0 0 0 0 .59zm-1.18-.59a.295.295 0 1 0 .295.295.295.295 0 0 0-.295-.296zm5.007-7.472a.295.295 0 1 0 .295.295.295.295 0 0 0-.295-.296zM6.48 5.24a1.689 1.689 0 0 0 0 2.383l2.3 2.3a.3.3 0 0 0 .417 0l2.3-2.3A1.685 1.685 0 0 0 9.111 5.24l-.123.123-.124-.123a1.689 1.689 0 0 0-2.383 0zm1.192.1A1.1 1.1 0 0 0 6.9 7.206L8.987 9.3l2.09-2.09a1.1 1.1 0 0 0-1.549-1.553l-.328.332a.3.3 0 0 1-.417 0l-.332-.332a1.092 1.092 0 0 0-.775-.319zm5.417 7.748a.808.808 0 1 0 .237.571.8.8 0 0 0-.237-.574zm-7.7 0a.808.808 0 1 0 .237.571.8.8 0 0 0-.235-.574zm0 0" transform="translate(-.501 -.001)"/>
</svg>
