<svg xmlns="http://www.w3.org/2000/svg" width="14.961" height="13.336" viewBox="0 0 14.961 13.336">
    <defs>
        <style>
            .cls-1{fill:#110101}
        </style>
    </defs>
    <g id="home" transform="translate(.001 -27.798)">
        <g id="그룹_288" transform="translate(-.001 27.798)">
            <g id="그룹_287">
                <path id="패스_187" d="M14.8 33.065l-7.09-5.192a.389.389 0 0 0-.459 0L.159 33.065a.389.389 0 1 0 .459.627l6.862-5.024 6.862 5.024a.389.389 0 0 0 .459-.627z" class="cls-1" transform="translate(.001 -27.798)"/>
            </g>
        </g>
        <g id="그룹_290" transform="translate(1.649 33.78)">
            <g id="그룹_289">
                <path id="패스_188" d="M67.725 232.543a.389.389 0 0 0-.389.389v6.187h-3.11v-3.377a1.944 1.944 0 1 0-3.887 0v3.378h-3.11v-6.187a.389.389 0 0 0-.777 0v6.576a.389.389 0 0 0 .389.389h3.887a.389.389 0 0 0 .387-.358.293.293 0 0 0 0-.03v-3.766a1.166 1.166 0 1 1 2.333 0v3.766a.285.285 0 0 0 0 .03.388.388 0 0 0 .387.359h3.887a.389.389 0 0 0 .389-.389v-6.576a.389.389 0 0 0-.386-.391z" class="cls-1" transform="translate(-56.452 -232.543)"/>
            </g>
        </g>
    </g>
</svg>
