<svg xmlns="http://www.w3.org/2000/svg" width="15.271" height="16.969" viewBox="0 0 15.271 16.969">
    <defs>
        <style>
            .cls-1{fill:#110101}
        </style>
    </defs>
    <g id="Page-1" transform="translate(.001 .005)">
        <g id="_053---Follow-Podcast" transform="translate(-.001 -.005)">
            <path id="Shape" d="M7.148 16.12l1.257 1.728a.283.283 0 0 0 .458 0l1.257-1.728a7.635 7.635 0 1 0-2.972 0zM8.634 1.562a7.07 7.07 0 0 1 1.273 14.022.283.283 0 0 0-.178.113L8.634 17.2l-1.095-1.5a.283.283 0 0 0-.178-.113A7.07 7.07 0 0 1 8.634 1.562z" class="cls-1" transform="translate(-.999 -.995)"/>
            <path id="Shape-2" d="M16.6 17.5a.283.283 0 0 0 .016.27 5.09 5.09 0 0 0 8.641 0 .283.283 0 0 0 .016-.27 4.033 4.033 0 0 0-2.88-2.264 2.828 2.828 0 1 0-2.911 0A4.034 4.034 0 0 0 16.6 17.5zm2.076-4.685a2.262 2.262 0 1 1 2.262 2.262 2.262 2.262 0 0 1-2.265-2.26zm2.26 2.828a3.849 3.849 0 0 1 3.753 1.957 4.525 4.525 0 0 1-7.512 0 3.849 3.849 0 0 1 3.756-1.955z" class="cls-1" transform="translate(-12.166 -7.443)"/>
            <path id="Shape-3" d="M6.283 23.979h1.131v1.131a.283.283 0 0 0 .566 0v-1.131h1.131a.283.283 0 1 0 0-.566H7.979v-1.13a.283.283 0 1 0-.566 0v1.131h-1.13a.283.283 0 1 0 0 .566z" class="cls-1" transform="translate(-4.586 -16.06)"/>
        </g>
    </g>
</svg>
