<svg xmlns="http://www.w3.org/2000/svg" width="18.031" height="18.03" viewBox="0 0 18.031 18.03">
    <defs>
        <style>
            .cls-1{fill:#110101}
        </style>
    </defs>
    <g id="settings" transform="translate(0 -.002)">
        <g id="그룹_322" transform="translate(0 .002)">
            <g id="그룹_321">
                <path id="패스_203" d="M17.763 7.589L16.3 7.224a7.429 7.429 0 0 0-.866-2.09l.777-1.292a.352.352 0 0 0-.053-.43l-1.537-1.538a.352.352 0 0 0-.43-.053L12.9 2.6a7.429 7.429 0 0 0-2.09-.866L10.443.269A.352.352 0 0 0 10.1 0H7.929a.352.352 0 0 0-.342.267l-.365 1.465a7.43 7.43 0 0 0-2.09.866L3.84 1.822a.352.352 0 0 0-.43.053L1.873 3.411a.352.352 0 0 0-.053.43l.78 1.293a7.429 7.429 0 0 0-.866 2.09l-1.467.365A.352.352 0 0 0 0 7.931V10.1a.352.352 0 0 0 .267.342l1.463.365A7.428 7.428 0 0 0 2.6 12.9l-.78 1.293a.352.352 0 0 0 .053.43l1.536 1.537a.352.352 0 0 0 .43.053l1.292-.777a7.431 7.431 0 0 0 2.09.866l.365 1.463a.352.352 0 0 0 .342.267H10.1a.352.352 0 0 0 .342-.267l.365-1.463a7.429 7.429 0 0 0 2.09-.866l1.292.777a.352.352 0 0 0 .43-.053l1.537-1.537a.352.352 0 0 0 .053-.43l-.775-1.293a7.429 7.429 0 0 0 .866-2.09l1.463-.365a.352.352 0 0 0 .267-.342V7.931a.352.352 0 0 0-.267-.342zm-.437 2.24l-1.406.35a.352.352 0 0 0-.259.268 6.736 6.736 0 0 1-.936 2.258.352.352 0 0 0-.006.373l.746 1.242-1.148 1.148-1.242-.746a.352.352 0 0 0-.373.006 6.736 6.736 0 0 1-2.258.936.352.352 0 0 0-.268.259l-.35 1.406H8.2l-.35-1.406a.352.352 0 0 0-.268-.259 6.736 6.736 0 0 1-2.258-.936.352.352 0 0 0-.373-.006l-1.242.746-1.144-1.148.746-1.242a.352.352 0 0 0-.006-.373 6.736 6.736 0 0 1-.936-2.258.352.352 0 0 0-.259-.268L.7 9.829V8.206l1.406-.35a.352.352 0 0 0 .259-.268 6.736 6.736 0 0 1 .936-2.258.352.352 0 0 0 .006-.373l-.742-1.242 1.148-1.148 1.242.746a.352.352 0 0 0 .373-.006 6.735 6.735 0 0 1 2.258-.936.352.352 0 0 0 .268-.259L8.2.706h1.627l.35 1.406a.352.352 0 0 0 .268.259 6.736 6.736 0 0 1 2.258.936.352.352 0 0 0 .373.006l1.242-.746 1.148 1.148-.746 1.242a.352.352 0 0 0 .006.373 6.736 6.736 0 0 1 .936 2.258.352.352 0 0 0 .259.268l1.406.35z" class="cls-1" transform="translate(0 -.002)"/>
            </g>
        </g>
        <g id="그룹_324" transform="translate(3.733 3.735)">
            <g id="그룹_323">
                <path id="패스_204" d="M111.282 106a5.231 5.231 0 0 0-2.34.545.352.352 0 0 0 .312.631 4.532 4.532 0 0 1 2.027-.472 4.576 4.576 0 1 1-3.943 2.25.352.352 0 0 0-.606-.359 5.283 5.283 0 1 0 4.549-2.6z" class="cls-1" transform="translate(-106 -106.002)"/>
            </g>
        </g>
        <g id="그룹_326" transform="translate(6.48 6.482)">
            <g id="그룹_325">
                <path id="패스_205" d="M186.536 184a2.536 2.536 0 1 0 2.536 2.536 2.538 2.538 0 0 0-2.536-2.536zm0 4.367a1.831 1.831 0 1 1 1.831-1.831 1.833 1.833 0 0 1-1.831 1.833z" class="cls-1" transform="translate(-184 -184.002)"/>
            </g>
        </g>
        <g id="그룹_328" transform="translate(5.303 5.058)">
            <g id="그룹_327">
                <path id="패스_206" d="M151.191 143.665a.352.352 0 1 0 .1.249.355.355 0 0 0-.1-.249z" class="cls-1" transform="translate(-150.59 -143.562)"/>
            </g>
        </g>
    </g>
</svg>
