<svg xmlns="http://www.w3.org/2000/svg" width="116.287" height="37.046" viewBox="0 0 116.287 37.046">
    <defs>
        <clipPath id="clip-path">
            <path id="사각형_78" fill="none" d="M0 0H116.287V37.046H0z"/>
        </clipPath>
        <style>
            .cls-2{fill:#e54141}.cls-4{fill:#f27070}.cls-5{fill:#9e9e9f}
        </style>
    </defs>
    <g id="그룹_286">
        <path id="패스_161" d="M33.54 10.785H27.8l1.6-9.059h2.264l-1.245 7.1h3.473z" class="cls-2" transform="translate(-6.026 -.374)"/>
        <g id="그룹_285">
            <g id="그룹_284" clip-path="url(#clip-path)">
                <path id="패스_162" d="M38.647 9.011a1.039 1.039 0 0 0 .516-.126l-.063 1.422a2.052 2.052 0 0 1-1.346.49q-1.144 0-1.484-.528a1.361 1.361 0 0 1-.226-.75 4.274 4.274 0 0 1 .05-.7l.755-4.253h2.139l-.7 3.963a.927.927 0 0 0-.013.139c0 .227.126.34.378.34M37.1 2.519a1.646 1.646 0 0 1 .359-1.176 1.486 1.486 0 0 1 1.113-.372q1.056 0 1.057.931a1.6 1.6 0 0 1-.359 1.158 1.519 1.519 0 0 1-1.126.366q-1.044 0-1.044-.906" class="cls-2" transform="translate(-7.812 -.21)"/>
                <path id="패스_163" d="M46.939 5.565a4.555 4.555 0 0 1 .176 1.4 6.554 6.554 0 0 1-.214 1.68 5.9 5.9 0 0 1-.649 1.529 3.3 3.3 0 0 1-1.208 1.17 3.5 3.5 0 0 1-1.78.446 2.934 2.934 0 0 1-2.177-.641 1.851 1.851 0 0 1-.4-1.309 5.083 5.083 0 0 1 .1-.944l.591-3.334h2.139l-.591 3.347a1.764 1.764 0 0 0-.038.34.646.646 0 0 0 .743.717q1.309 0 1.308-2.743a11.3 11.3 0 0 0-.1-1.422l-.039-.236z" class="cls-2" transform="translate(-8.818 -1.206)"/>
                <path id="패스_164" d="M51.832 11.741q-2.616 0-2.617-1.812a3.162 3.162 0 0 1 .05-.541l.264-1.56a2.781 2.781 0 0 1 1.114-1.856 3.991 3.991 0 0 1 2.385-.649q2.528 0 2.528 1.913a3.967 3.967 0 0 1-.05.6l-.151.894h-3.837l-.051.289a1.741 1.741 0 0 0-.025.277q0 .692.819.692a.752.752 0 0 0 .515-.189.722.722 0 0 0 .252-.44l2.088.025q-.415 2.353-3.284 2.353m1.51-3.775a1.776 1.776 0 0 0 .05-.4.572.572 0 0 0-.164-.371.654.654 0 0 0-.522-.189 1.017 1.017 0 0 0-.654.239 1.258 1.258 0 0 0-.409.717z" class="cls-2" transform="translate(-10.667 -1.154)"/>
                <path id="패스_165" d="M15.4 21.218H7.092l-1.437 8.247H0L3.967 6.971h15.685l-.875 4.873H8.717l-.782 4.5h8.311z" class="cls-4" transform="translate(0 -1.511)"/>
                <path id="패스_166" d="M36.619 26.609a.725.725 0 0 0 .828.812 2.827 2.827 0 0 0 1.39-.313l-.156 3.531a5.211 5.211 0 0 1-3.374 1.218q-3.438 0-3.811-2.5a5.08 5.08 0 0 1-4.593 2.5q-5.125 0-5.124-4.406a9.73 9.73 0 0 1 .157-1.655l.656-3.655a7.771 7.771 0 0 1 2.3-4.484 6.606 6.606 0 0 1 4.686-1.671q2.889 0 3.921 1.342l.157-.937H38.4l-1.75 9.842a2.246 2.246 0 0 0-.031.375m-9.248-1.5a3.742 3.742 0 0 0-.063.781 1.427 1.427 0 0 0 .469.985 2.133 2.133 0 0 0 1.577.484 2.538 2.538 0 0 0 1.921-.875l.938-5.249q-.344-.78-1.624-.781a2.55 2.55 0 0 0-2.812 2.312z" class="cls-4" transform="translate(-4.72 -3.465)"/>
                <path id="패스_167" d="M51.094 31.84q-6.5 0-6.5-4.5A7.818 7.818 0 0 1 44.72 26l.656-3.874a6.736 6.736 0 0 1 2.734-4.594 9.694 9.694 0 0 1 5.671-1.624q6.655 0 6.655 4.624a6.378 6.378 0 0 1-.234 1.8 3.025 3.025 0 0 1-.484 1.077l-.251.313h-5.312a2.1 2.1 0 0 0 .781-1.624 1.491 1.491 0 0 0-1.687-1.698 2.61 2.61 0 0 0-1.717.6 2.918 2.918 0 0 0-.938 1.812l-.407 2.281a3.036 3.036 0 0 0-.062.594q0 1.657 2.062 1.656a1.923 1.923 0 0 0 1.234-.438 1.616 1.616 0 0 0 .641-.968l5.186.063q-1.03 5.843-8.154 5.842" class="cls-4" transform="translate(-9.666 -3.447)"/>
                <path id="패스_168" d="M72.34 30.525q-3.625 0-5.218-1.624a4.307 4.307 0 0 1-1.187-3.188 8.525 8.525 0 0 1 .125-1.405l2.124-12.091L73.9 9.842 73 15.06h8.62l-.781 4.405h-8.624L71.59 23a5.229 5.229 0 0 0-.125 1.062q0 1.968 1.874 1.968a2.06 2.06 0 0 0 1.671-.844 4.944 4.944 0 0 0 .922-2.25h5.186q-1.311 7.592-8.779 7.592" class="cls-4" transform="translate(-14.291 -2.133)"/>
                <path id="패스_169" d="M95.578 15.945a7.658 7.658 0 0 1 5.093 1.469 4.019 4.019 0 0 1 1.343 3.218 7.977 7.977 0 0 1-.156 1.5l-.656 3.655a6.576 6.576 0 0 1-2.765 4.687 10.737 10.737 0 0 1-5.8 1.374q-3.625 0-5.31-1.374a3.779 3.779 0 0 1-1.25-3.094 9.124 9.124 0 0 1 .156-1.593l.656-3.655q1.094-6.186 8.686-6.186m.844 6.811a4.193 4.193 0 0 0 .063-.8 1.967 1.967 0 0 0-.406-1.078 1.6 1.6 0 0 0-1.422-.593 2.343 2.343 0 0 0-1.7.671 3.153 3.153 0 0 0-.874 1.8l-.408 2.343a4.141 4.141 0 0 0-.063.8 1.829 1.829 0 0 0 .406 1.046 1.64 1.64 0 0 0 1.422.562 2.286 2.286 0 0 0 1.7-.7 3.231 3.231 0 0 0 .874-1.7z" class="cls-4" transform="translate(-18.657 -3.456)"/>
                <path id="패스_170" d="M122.612 19.569a6.8 6.8 0 0 1-1.062 3.531l-.344.437h-4.718a2.324 2.324 0 0 0 .781-1.781 1.249 1.249 0 0 0-.36-.922 1.333 1.333 0 0 0-.984-.359 2.258 2.258 0 0 0-1.844 1.063l-1.75 9.872h-5.31l2.655-15.028h4.937l-.375 2.093a5.181 5.181 0 0 1 4.311-2.531 4.265 4.265 0 0 1 3.047.968 3.5 3.5 0 0 1 1.015 2.656" class="cls-4" transform="translate(-23.196 -3.456)"/>
                <path id="패스_171" d="M132.706 24.815a6.8 6.8 0 0 0-.094 1.124q0 1.5 1.687 1.5a2.993 2.993 0 0 0 2.281-.968l1.749-9.967h5.312l-2.75 15.528a10.9 10.9 0 0 1-3.139 6.28 7.947 7.947 0 0 1-5.608 2.311 7.116 7.116 0 0 1-4.546-1.155 3.752 3.752 0 0 1-1.391-3.031q0-2.655 3.281-4.718a2.874 2.874 0 0 1-2.25-1.78 4.789 4.789 0 0 1-.281-1.688 11.865 11.865 0 0 1 .157-1.906l1.749-9.842h5.311zm.156 11.341q2.031 0 2.656-3.687l.313-1.812q-4.344 2.031-4.343 4.093a1.438 1.438 0 0 0 .36 1.016 1.309 1.309 0 0 0 1.015.39" class="cls-4" transform="translate(-27.355 -3.577)"/>
                <path id="패스_172" d="M74.856 2.6a5.1 5.1 0 0 0-3.946 1.866l.906.9a3.83 3.83 0 0 1 6.08 0l.905-.9A5.1 5.1 0 0 0 74.856 2.6" class="cls-4" transform="translate(-15.369 -.563)"/>
                <path id="패스_173" d="M74.455 0a7.127 7.127 0 0 0-5.394 2.463l.869.865a5.912 5.912 0 0 1 9.05 0l.87-.865A7.129 7.129 0 0 0 74.455 0" class="cls-4" transform="translate(-14.969)"/>
                <path id="패스_174" d="M75.268 5.253a3.023 3.023 0 0 0-2.458 1.266l.916.91a1.761 1.761 0 0 1 3.084 0l.916-.91a3.026 3.026 0 0 0-2.459-1.266" class="cls-4" transform="translate(-15.781 -1.138)"/>
                <path id="패스_175" d="M73.992 40.472h.373v3.363H75.8v.36H74z" class="cls-5" transform="translate(-16.037 -8.772)"/>
                <path id="패스_176" d="M76.853 40.262a.292.292 0 1 1 0 .584.276.276 0 0 1-.2-.085.293.293 0 0 1 0-.414.276.276 0 0 1 .2-.085m-.176 1.138h.354v2.754h-.354z" class="cls-5" transform="translate(-16.595 -8.726)"/>
                <path id="패스_177" d="M77.569 41.709h.377l.925 2.007.913-2.007h.38L78.9 44.463h-.066z" class="cls-5" transform="translate(-16.813 -9.04)"/>
                <path id="패스_178" d="M83.651 43.529l.3.157a1.625 1.625 0 0 1-.339.465 1.338 1.338 0 0 1-.433.27 1.524 1.524 0 0 1-.545.092 1.316 1.316 0 0 1-1.053-.442 1.488 1.488 0 0 1-.38-1 1.473 1.473 0 0 1 .321-.934 1.318 1.318 0 0 1 1.093-.522 1.356 1.356 0 0 1 1.124.534 1.493 1.493 0 0 1 .3.941h-2.476a1.126 1.126 0 0 0 .307.787.98.98 0 0 0 .732.306 1.162 1.162 0 0 0 .41-.074 1.042 1.042 0 0 0 .338-.194 1.636 1.636 0 0 0 .3-.39m0-.742a1.174 1.174 0 0 0-.207-.453.969.969 0 0 0-.359-.274 1.1 1.1 0 0 0-.468-.1 1.01 1.01 0 0 0-.7.261 1.182 1.182 0 0 0-.321.569z" class="cls-5" transform="translate(-17.599 -9.02)"/>
                <path id="패스_179" d="M90.6 41.136l-.294.226a1.6 1.6 0 0 0-.583-.479 1.7 1.7 0 0 0-.748-.164 1.655 1.655 0 0 0-.826.214 1.543 1.543 0 0 0-.588.575 1.584 1.584 0 0 0-.209.811 1.525 1.525 0 0 0 .468 1.137 1.619 1.619 0 0 0 1.18.454 1.656 1.656 0 0 0 1.308-.613l.294.222a1.856 1.856 0 0 1-.695.547 2.175 2.175 0 0 1-.93.193 1.934 1.934 0 0 1-1.541-.65 1.961 1.961 0 0 1-.473-1.326 1.843 1.843 0 0 1 .573-1.375 1.975 1.975 0 0 1 1.436-.558 2.1 2.1 0 0 1 .941.207 1.836 1.836 0 0 1 .688.578" class="cls-5" transform="translate(-18.849 -8.746)"/>
                <path id="패스_180" d="M93.553 41.618a1.366 1.366 0 0 1 1.056.461 1.481 1.481 0 0 1-.022 2 1.456 1.456 0 0 1-2.069 0 1.477 1.477 0 0 1-.022-2 1.365 1.365 0 0 1 1.057-.463m0 .347a1.022 1.022 0 0 0-.761.327 1.089 1.089 0 0 0-.316.79 1.122 1.122 0 0 0 .144.557 1.034 1.034 0 0 0 .391.4 1.113 1.113 0 0 0 1.082 0 1.034 1.034 0 0 0 .391-.4 1.123 1.123 0 0 0 .145-.557 1.09 1.09 0 0 0-.318-.79 1.025 1.025 0 0 0-.757-.327" class="cls-5" transform="translate(-19.966 -9.02)"/>
                <path id="패스_181" d="M96.419 41.689h.354v.475a1.385 1.385 0 0 1 .38-.385 1.085 1.085 0 0 1 .566-.162.944.944 0 0 1 .381.079.821.821 0 0 1 .294.208 1.141 1.141 0 0 1 .2.374 1.321 1.321 0 0 1 .443-.493 1.048 1.048 0 0 1 .57-.168.89.89 0 0 1 .5.145.862.862 0 0 1 .325.4 2.158 2.158 0 0 1 .106.775v1.5h-.362v-1.5a1.965 1.965 0 0 0-.063-.609.545.545 0 0 0-.216-.266.644.644 0 0 0-.364-.1.8.8 0 0 0-.471.152.867.867 0 0 0-.311.4 2.556 2.556 0 0 0-.1.845v1.079H98.3v-1.41a2.4 2.4 0 0 0-.062-.677.56.56 0 0 0-.216-.287.629.629 0 0 0-.367-.107.791.791 0 0 0-.459.148.877.877 0 0 0-.316.4 2.153 2.153 0 0 0-.1.767v1.167h-.354z" class="cls-5" transform="translate(-20.898 -9.02)"/>
                <path id="패스_182" d="M102.428 41.689h.354v.475a1.385 1.385 0 0 1 .38-.385 1.085 1.085 0 0 1 .566-.162.944.944 0 0 1 .381.079.821.821 0 0 1 .294.208 1.141 1.141 0 0 1 .2.374 1.321 1.321 0 0 1 .443-.493 1.048 1.048 0 0 1 .57-.168.89.89 0 0 1 .5.145.862.862 0 0 1 .325.4 2.158 2.158 0 0 1 .106.775v1.5h-.362v-1.5a1.965 1.965 0 0 0-.063-.609.545.545 0 0 0-.216-.266.644.644 0 0 0-.364-.1.8.8 0 0 0-.471.152.867.867 0 0 0-.311.4 2.556 2.556 0 0 0-.1.845v1.079h-.355v-1.41a2.4 2.4 0 0 0-.062-.677.56.56 0 0 0-.216-.287.629.629 0 0 0-.367-.107.791.791 0 0 0-.459.148.877.877 0 0 0-.316.4 2.153 2.153 0 0 0-.1.767v1.167h-.354z" class="cls-5" transform="translate(-22.201 -9.02)"/>
                <path id="패스_183" d="M110.721 43.529l.3.157a1.624 1.624 0 0 1-.339.465 1.338 1.338 0 0 1-.433.27 1.524 1.524 0 0 1-.545.092 1.316 1.316 0 0 1-1.053-.442 1.488 1.488 0 0 1-.38-1 1.473 1.473 0 0 1 .321-.934 1.318 1.318 0 0 1 1.093-.522 1.356 1.356 0 0 1 1.124.534 1.492 1.492 0 0 1 .3.941h-2.478a1.126 1.126 0 0 0 .307.787.98.98 0 0 0 .732.306 1.162 1.162 0 0 0 .41-.074 1.041 1.041 0 0 0 .338-.194 1.635 1.635 0 0 0 .3-.39m0-.742a1.174 1.174 0 0 0-.207-.453.969.969 0 0 0-.359-.274 1.1 1.1 0 0 0-.468-.1 1.01 1.01 0 0 0-.7.261 1.182 1.182 0 0 0-.321.569z" class="cls-5" transform="translate(-23.467 -9.02)"/>
                <path id="패스_184" d="M112.37 41.689h.362v.4a1.275 1.275 0 0 1 .341-.356.675.675 0 0 1 .374-.118.645.645 0 0 1 .314.094l-.185.3a.493.493 0 0 0-.187-.048.511.511 0 0 0-.341.146.919.919 0 0 0-.251.451 4.339 4.339 0 0 0-.066.952v.932h-.362z" class="cls-5" transform="translate(-24.356 -9.02)"/>
                <path id="패스_185" d="M116.97 42.261l-.28.175a1.179 1.179 0 0 0-.994-.484 1.147 1.147 0 0 0-.835.324 1.053 1.053 0 0 0-.333.786 1.116 1.116 0 0 0 .153.566 1.067 1.067 0 0 0 .42.412 1.268 1.268 0 0 0 1.589-.336l.28.184a1.32 1.32 0 0 1-.53.461 1.686 1.686 0 0 1-.758.164 1.5 1.5 0 0 1-1.082-.413 1.351 1.351 0 0 1-.431-1.01 1.445 1.445 0 0 1 .2-.743 1.424 1.424 0 0 1 .553-.535 1.614 1.614 0 0 1 .787-.193 1.673 1.673 0 0 1 .527.084 1.438 1.438 0 0 1 .432.217 1.172 1.172 0 0 1 .3.342" class="cls-5" transform="translate(-24.745 -9.02)"/>
                <path id="패스_186" d="M120.7 43.529l.3.157a1.625 1.625 0 0 1-.339.465 1.338 1.338 0 0 1-.433.27 1.524 1.524 0 0 1-.545.092 1.316 1.316 0 0 1-1.053-.442 1.488 1.488 0 0 1-.38-1 1.473 1.473 0 0 1 .321-.934 1.318 1.318 0 0 1 1.093-.522 1.356 1.356 0 0 1 1.124.534 1.492 1.492 0 0 1 .3.941h-2.478a1.126 1.126 0 0 0 .307.787.98.98 0 0 0 .732.306 1.162 1.162 0 0 0 .41-.074 1.041 1.041 0 0 0 .338-.194 1.635 1.635 0 0 0 .3-.39m0-.742a1.174 1.174 0 0 0-.207-.453.969.969 0 0 0-.359-.274 1.1 1.1 0 0 0-.468-.1 1.01 1.01 0 0 0-.7.261 1.182 1.182 0 0 0-.321.569z" class="cls-5" transform="translate(-25.629 -9.02)"/>
            </g>
        </g>
    </g>
</svg>
