<svg xmlns="http://www.w3.org/2000/svg" width="1399" height="234" viewBox="0 0 1399 234">
    <defs>
        <clipPath id="clip-path">
            <path id="사각형_810" d="M0 0H997V234H0z" class="cls-1" transform="translate(-1991 5704)"/>
        </clipPath>
        <style>
            .cls-1{fill:#fff1f1}.cls-6{fill:#5c3243}.cls-7{fill:#fff}.cls-8{fill:#f27070}.cls-9{fill:#231f20}.cls-10{fill:#f4bf6e}.cls-11{fill:#f5dfd5}.cls-12{fill:#eb8773}.cls-13{fill:#5e65b5}.cls-14{fill:#1f2144}.cls-15{fill:#cc6c59}.cls-16{fill:#c6cfa5}.cls-17{fill:#de5252}.cls-18{fill:#bd6864}.cls-19{fill:#b45252}.cls-21{fill:#fbbe7d}.cls-22{fill:#e68052}.cls-23{fill:#bd7764}.cls-24{fill:#4f4c4d}
        </style>
    </defs>
    <g id="그룹_3454" transform="translate(-260 -475)">
        <path id="사각형_811" fill="#ffd9d9" d="M0 0H1399V115H0z" transform="translate(260 594)"/>
        <text id="가장_파급효과있는_LIVE_판매자가_있는_곳_Pumkin_Live" fill="#e73828" font-family="NotoSansCJKkr-Regular, Noto Sans CJK KR" font-size="20px" letter-spacing="-0.03em" transform="translate(350 660)">
            <tspan x="0" y="0">가장 파급효과있는 LIVE 판매자가 있는 곳, </tspan><tspan y="0" font-family="NotoSansCJKkr-Bold, Noto Sans CJK KR" font-weight="700">Pumkin Live</tspan>
        </text>
        <g id="마스크_그룹_2" clip-path="url(#clip-path)" transform="translate(2600 -5229)">
            <g id="그룹_547" transform="translate(-72.021 -64.465)">
                <path id="패스_704" d="M143.79 1280.055q-8.37 23.365-16.6 46.781-.966 2.751-1.927 5.5.958-.018 1.916-.045 7.344-20.959 14.8-41.877 1.746-4.893 3.5-9.784l-1.7-.578" class="cls-6" transform="translate(-1413.007 4753.228)"/>
                <path id="패스_706" d="M244.323 1333.053l-1.944-5.551q-8.223-23.417-16.6-46.782l-1.7.579q1.752 4.891 3.5 9.784 7.5 21.037 14.889 42.118c.617-.033 1.233-.084 1.848-.148" class="cls-6" transform="translate(-1493.472 4752.686)"/>
                <path id="패스_707" d="M223.9 1287.1q-.15 24.818-.453 49.636-.038 3.059-.08 6.118c-.6-.016-1.2-.008-1.793.03q.3-22.715.465-45.432.038-5.2.069-10.39l1.792.038" class="cls-6" transform="translate(-1491.421 4747.524)"/>
                <path id="패스_708" d="M95.353 869.549a2.068 2.068 0 0 0-.091-.37c-.054-.151-.124-.241-.21-.255-.778-.114-94.238 2.437-95.052 2.429v58.475c3.1-1.56 94.151-54.721 94.935-55.241.347-.232.656-3.613.418-5.038" class="cls-7" transform="translate(-1311.009 5087.991)"/>
                <path id="패스_709" d="M216.725 648.455h-.386c.024-.184.05-.368.072-.552.015-.117-.167-.167-.182-.048-.024.2-.052.4-.078.6H214.9q.042-.306.082-.613c.015-.117-.167-.167-.182-.05l-.087.663h-.776c-.121 0-.11.186.011.186h.739c-.054.407-.167 1.137-.321 2.086-.312 1.923-.793 4.75-1.293 7.631-.483 2.781-.981 5.61-1.362 7.718-.258 1.427-.463 2.524-.57 3.054-.188.028-.373.063-.559.108-.115.028-.054.206.06.178.154-.037.306-.065.46-.091-.028.136-.052.271-.082.405-.024.115.158.165.182.05.035-.162.065-.323.1-.485a6 6 0 0 1 1.252-.028c-.035.175-.067.351-.1.526-.024.115.158.163.182.048.039-.184.072-.37.111-.555a6.257 6.257 0 0 1 .628.1.092.092 0 0 0 .039-.18c-.212-.045-.421-.078-.631-.1.1-.511.3-1.547.541-2.9.379-2.1.884-4.973 1.373-7.8.5-2.89.984-5.734 1.3-7.67.156-.957.269-1.69.323-2.1h.422c.119 0 .108-.186-.011-.186" class="cls-8" transform="translate(-1482.425 5268.099)"/>
                <path id="패스_710" d="M137.916 847.112l1.15.914c1.419-1.553 9.936-11.682 11.271-13.316q-.672-.449-1.34-.9c-1.309 1.6-9.8 11.7-11.187 13.221l.107.084" class="cls-9" transform="translate(-1423.219 5116.584)"/>
                <path id="패스_711" d="M226.251 848.652l1.138-.929c-1.216-1.717-9.3-12.2-10.61-13.848q-.582.561-1.168 1.117c1.285 1.62 9.343 12.064 10.536 13.746l.105-.086" class="cls-9" transform="translate(-1486.568 5116.527)"/>
                <path id="패스_712" d="M181.735 571.6c-.119.416-.271 1.159-.392 1.577-.238-.009-.672-.035-1.167-.054-.286-.011-.589-.019-.888-.02h-.2a3.88 3.88 0 0 0-1.571.191 2.246 2.246 0 0 0-.706 1.217c-.247.756-.485 1.516-.726 2.275l-1.423 4.462-.334 1.05a2.259 2.259 0 0 0-.21.86.759.759 0 0 0 .626.6 6.909 6.909 0 0 0 1.148.137l.189.011c.39.022.814.037 1.2.046s.769.013 1.031.009q-.17.747-.322 1.5c-.046.234.31.334.359.1q.164-.814.349-1.624l.058-.251c.24-.021.478-.041.717-.065.117-.011.119-.2 0-.186-.223.022-.448.039-.671.058.929-3.968 2.175-7.878 3.28-11.792a.185.185 0 0 0-.357-.1m-3.369 12.199c-.123-.041-.186-.078.02-.093-.007.031-.015.061-.02.093" class="cls-8" transform="translate(-1452.784 5330.192)"/>
                <path id="패스_713" d="M257.88 574.579a7.576 7.576 0 0 0-2.773-.158c-.416.017-.773.035-.981.045.111-.409.373-1.135.489-1.542.063-.225-.351-.128-.414.1-.459 1.622-.89 3.242-1.334 4.865-.6 2.209-1.226 4.423-1.967 6.657l-.247-.02c-.1-.007-.206-.017-.307-.028-.03 0-.057 0-.085-.007-.113-.011-.215.171-.1.182.052.006.1.011.158.015.108.011.216.02.325.03l.2.019c-.028.082-.056.163-.082.245l-.16.466c-.13.373-.262.745-.4 1.12-.065.18.178.158.325.028a.3.3 0 0 0 .089-.124q.267-.733.513-1.464c.288 0 .711 0 1.172-.011h.123a16.682 16.682 0 0 0 2.393-.184 1.6 1.6 0 0 0 .962-.589 2.3 2.3 0 0 0 .269-.84l.253-1.025q.532-2.182 1.068-4.361c.182-.741.368-1.482.544-2.222.1-.437.214-.912-.028-1.189m-6.7 10.272l.032-.091c.2.015.115.052-.032.091" class="cls-8" transform="translate(-1514.659 5329.11)"/>
                <path id="패스_714" d="M203.252 746.577c-.39-.041-1-.1-1.664-.162-.535-.048-1.1-.095-1.607-.13-.474-.031-.893-.052-1.182-.052-.113 0-.089.08-.124.243-.576 2.987-2.19 13.987-2.506 16.389-.028.214-.046.36-.052.425-.037.416.184.3.622.329.208.013.507.032.851.05.682.039 1.545.084 2.264.109.4.013.75.022 1 .021.082 0 .095-.166.1-.182l.141-.86c1.313-7.958 2.279-14.877 2.327-15.575.037-.546.124-.574-.171-.606" class="cls-9" transform="translate(-1470.693 5187.89)"/>
                <path id="패스_715" d="M220.553 608.592c-.026-.005-.059-.011-.1-.015-1-.1-5.147-.343-6.124-.343-.113 0-.089.08-.124.243-.628 3.253-1.109 6.462-1.666 9.728l-.061.357q-.379 2.229-.76 4.456c-.135.793-.392 1.977-.463 2.779-.037.416.184.3.62.329.3.018.987.046 1.793.076.513.018 1.076.037 1.618.052 1.029.031 1.98.054 2.382.052.082 0 .095-.165.1-.182.351-2.117.708-4.207 1.042-6.158q.086-.51.173-1.007l.058-.338c.327-1.9.628-3.633.877-5.082.011-.063.022-.126.031-.189.2-1.182.372-2.164.489-2.883.114-.689.18-1.135.192-1.284.032-.474.1-.557-.073-.591" class="cls-9" transform="translate(-1483.02 5300.255)"/>
                <path id="패스_716" d="M263.553 582.838c-1.765-.01-3.765.164-4.834 1.774a8.385 8.385 0 0 0-1 2.936c-.267 1.244-.493 2.5-.794 3.734-.555 2.28-1.365 4.95-3.491 6.242a7.366 7.366 0 0 1-3.586.981 12.859 12.859 0 0 1-1.882-.074c-1.043-.116-.643-1.135-.435-1.863a.465.465 0 0 0-.9-.247c-.221.772-.681 2.139.123 2.731a2.425 2.425 0 0 0 1.207.308 12.915 12.915 0 0 0 2.224.057 7.2 7.2 0 0 0 5.807-3.176c1.418-2.227 1.9-4.927 2.416-7.47.269-1.315.412-3.042 1.4-4.043.953-.963 2.479-.968 3.74-.961a.465.465 0 0 0 0-.929" class="cls-9" transform="translate(-1511.558 5320.934)"/>
                <path id="패스_717" d="M329.571 567.4a.633.633 0 0 0-.592-.507 3.8 3.8 0 0 0-.433-.017c-1.861-.007-8.682.329-10.5.4a1.446 1.446 0 0 0-1.347 1.1c-.16.644-.362 1.484-.538 2.222-.086.36-.164.7-.229.973-.057.243-.117.487-.169.734a7.947 7.947 0 0 0-.182 1.144c-.024.342-.1.942.236 1.172a3.015 3.015 0 0 0 1.507.2c.373 0 7.852-.255 8.468-.3.366-.028.732-.056 1.1-.089l.074-.005a1.765 1.765 0 0 0 .773-.177 1.612 1.612 0 0 0 .572-.89 9.935 9.935 0 0 0 .407-1.4q.273-1.288.524-2.578l.206-1.065a2.743 2.743 0 0 0 .126-.912" class="cls-9" transform="translate(-1567.949 5333.934)"/>
                <path id="패스_718" d="M220.286 619.884l-3.126-.021c-.12 0-.11.185.009.186l3.126.021c.119 0 .11-.185-.009-.185" class="cls-7" transform="translate(-1487.76 5290.786)"/>
                <path id="패스_719" d="M214.822 536.077l-9.678-.077a.943.943 0 0 0-.918.7l-4.393 16.629-.673 2.543a.943.943 0 0 0 .9 1.187l9.678.074a.943.943 0 0 0 .92-.7l.8-3.039 4.263-16.133a.945.945 0 0 0-.9-1.187" class="cls-10" transform="translate(-1473.148 5359.069)"/>
                <path id="패스_720" d="M379.415 568.309l-.206 1.064c-.169.86-.342 1.72-.524 2.578a9.939 9.939 0 0 1-.407 1.4 1.614 1.614 0 0 1-.572.89 1.766 1.766 0 0 1-.773.177 15.648 15.648 0 0 1 1.018-6.4c0-.035.009-.069.015-.1a.307.307 0 0 1 .123-.212c.13-.284.271-.561.427-.83a3.811 3.811 0 0 1 .433.017.632.632 0 0 1 .593.507 2.747 2.747 0 0 1-.126.912" class="cls-8" transform="translate(-1617.918 5333.933)"/>
                <path id="패스_721" d="M210.183 531.331l-11.05-.085h-.191a1.088 1.088 0 0 0-1 .806l-5.693 21.33a1.09 1.09 0 0 0 .413 1.165.963.963 0 0 0 .165.1 1.075 1.075 0 0 0 .466.11l11.182.087a1.09 1.09 0 0 0 1.061-.808l5.693-21.33a1.09 1.09 0 0 0-1.044-1.371" class="cls-9" transform="translate(-1467.514 5362.944)"/>
                <path id="패스_722" d="M219.518 536.042l-8.749-.074a.943.943 0 0 0-.917.7l-2.446 9.26-1.947 7.369-.673 2.543a.943.943 0 0 0 .9 1.187l.83.006.632.005.983.008h.262l2.838.03h.149l.561.006h.074l1.375.011 1.046.007a.944.944 0 0 0 .92-.7l.8-3.039 1.965-7.436 2.3-8.7a.945.945 0 0 0-.9-1.187" class="cls-10" transform="translate(-1477.728 5359.098)"/>
                <path id="패스_723" d="M232.072 537.228L229.778 546H219.06l2.441-9.338a.942.942 0 0 1 .917-.7l3.217.024 1.417.011 4.115.039a.945.945 0 0 1 .9 1.187" class="cls-11" transform="translate(-1489.378 5359.099)"/>
                <path id="패스_724" d="M245.916 536.343c-.052.026-.1.054-.158.085a.083.083 0 0 0-.037.039.09.09 0 0 0-.007.039.854.854 0 0 0-.407.167c-.264.176-.535.316-.8.481a2.683 2.683 0 0 0-.713.669c-.136.175-.26.364-.379.551a7.368 7.368 0 0 0-.936 1.746.522.522 0 0 0 .236.607 1.211 1.211 0 0 0 .374.166 1.382 1.382 0 0 0 .734-.026l.037-.009a4.118 4.118 0 0 1 1.007-.24 1.952 1.952 0 0 1 .444.043 1.73 1.73 0 0 1 .236.061 2.291 2.291 0 0 1 .459.2c.167.1.284.191.483.106.368-.16.388-.633.366-.97a1.832 1.832 0 0 1 .243-1.183 2.469 2.469 0 0 0 .306-.786c.173-.964-.421-2.242-1.482-1.752" class="cls-6" transform="translate(-1508.422 5358.88)"/>
                <path id="패스_725" d="M250.247 537.327a.95.95 0 0 0-.13-.022c-1-.117-1.492.5-1.8 1.378a7.9 7.9 0 0 0-.234.828 4.031 4.031 0 0 0 0 1.531c.009.048.02.1.033.147a1.637 1.637 0 0 0 .227.538.353.353 0 0 0 .03.043.584.584 0 0 0 .335.219 1.47 1.47 0 0 0 1.064-.186 1.615 1.615 0 0 0 .3-.221 1.93 1.93 0 0 0 .307-.36c.08-.125.163-.26.243-.4.063-.111.124-.227.182-.34l.052-.106.028-.054.037-.08q.047-.1.084-.2a.324.324 0 0 0 .015-.035c.026-.065.046-.128.065-.186.273-.9.4-2.255-.834-2.484" class="cls-12" transform="translate(-1512.948 5358.02)"/>
                <path id="패스_726" d="M250.882 554.162a4.358 4.358 0 0 1-.769.186c-.071.013-.143.022-.215.03-.111.011-.223.017-.336.021 0-.043.009-.087.013-.13a.1.1 0 0 0-.007-.05.083.083 0 0 0-.154.044c-.009.115-.02.229-.032.342-.026.284-.058.567-.093.849 0 .017-.006.036-.007.052-.015.121-.032.241-.05.36-.032.227-.067.453-.106.678-.011.06.015.117.072.121l1.22.063c.046 0 .078-.041.085-.089.026-.206.056-.411.087-.613.028-.163.058-.325.089-.487.018-.095.039-.188.059-.282.069-.327.15-.652.241-.975.019-.065-.033-.139-.093-.119" class="cls-12" transform="translate(-1513.851 5344.286)"/>
                <path id="패스_727" d="M240.947 565.62a9.81 9.81 0 0 1-.9 2.63h-4.926v-.1-.559c0-.112 0-.221.007-.331 0-.082.006-.163.009-.244.006-.158.015-.312.026-.464s.02-.277.035-.411c.022-.223.05-.44.085-.643v-.018a1.581 1.581 0 0 1 .407-.827 3.862 3.862 0 0 1 1.934-.9c.007-.149-.1-.293.078-.407a.372.372 0 0 1 .121-.046 2.328 2.328 0 0 1 .63.056 2.051 2.051 0 0 1 .73.1.269.269 0 0 1 .128.293 2.263 2.263 0 0 1 1.391.992.061.061 0 0 1 .015.026 1.459 1.459 0 0 1 .085.18 2.05 2.05 0 0 1 .137.669" class="cls-13" transform="translate(-1502.456 5336.852)"/>
                <path id="패스_728" d="M261.527 551.928a.093.093 0 0 0-.025.073.582.582 0 0 0-.285.6.1.1 0 0 0 .112.069.786.786 0 0 0 .6-.513.235.235 0 0 0-.4-.231" class="cls-12" transform="translate(-1523.695 5346.18)"/>
                <path id="패스_729" d="M259.066 550.78c-.019.122-.081.214-.136.205s-.085-.115-.066-.238.081-.214.137-.205.085.115.066.238" class="cls-14" transform="translate(-1521.782 5347.231)"/>
                <path id="패스_730" d="M251.63 550.083c-.02.122-.081.214-.136.205s-.085-.115-.066-.238.081-.214.136-.205.085.115.066.237" class="cls-14" transform="translate(-1515.728 5347.798)"/>
                <path id="패스_731" d="M258.533 547.9a.737.737 0 0 0-.6-.06.208.208 0 0 0-.143.145.106.106 0 0 0 .089.121 2.825 2.825 0 0 0 .308 0 1.393 1.393 0 0 0 .314.059c.162-.02.1-.227.028-.269" class="cls-6" transform="translate(-1520.916 5349.463)"/>
                <path id="패스_732" d="M249.979 547.138c-.024-.013-.048-.024-.072-.035a.719.719 0 0 0-.524-.024.2.2 0 0 0-.141.143.1.1 0 0 0 .087.122 2.855 2.855 0 0 0 .31 0 .653.653 0 0 1 .115.028.515.515 0 0 0 .2.031c.162-.018.1-.225.028-.267" class="cls-6" transform="translate(-1513.951 5350.083)"/>
                <path id="패스_733" d="M253.352 552.18c-.075 0-.16.016-.16-.12a.291.291 0 0 1 .058-.122c.046-.077.171-.3.219-.377a.043.043 0 0 0-.072-.046 1.69 1.69 0 0 0-.3.6c0 .141.14.149.249.151a.043.043 0 0 0 0-.085" class="cls-15" transform="translate(-1517.094 5346.453)"/>
                <path id="패스_734" d="M262.894 553.118c-.038-.034-.1.02-.059.055s0 .059-.016.078a.1.1 0 0 1-.075.031.04.04 0 0 0 0 .081.183.183 0 0 0 .156-.079.126.126 0 0 0 0-.164" class="cls-15" transform="translate(-1524.914 5345.142)"/>
                <path id="패스_735" d="M244.167 537.209a1.236 1.236 0 0 0-1.012-.884.522.522 0 0 0-.041-.093.512.512 0 0 0-.1-.122l-1.414-.01a2.181 2.181 0 0 0-.793.879 1.957 1.957 0 0 1-.633.775 2.744 2.744 0 0 0-.492.424 1.44 1.44 0 0 0-.379 1.048 1.056 1.056 0 0 1 .011.431 1.654 1.654 0 0 1-.227.414.461.461 0 0 0-.057.381c.143.4.507.359.878.169a2.818 2.818 0 0 0 .333-.2 1.67 1.67 0 0 0 .3-.078 1.363 1.363 0 0 0 .247-.117 1.221 1.221 0 0 0 .356-.32 1.06 1.06 0 0 0 .186-.386c0-.02.009-.043.013-.065a1.544 1.544 0 0 0 .009-.37 2.536 2.536 0 0 1-.006-.314.787.787 0 0 1 .052-.238c.007-.019.015-.037.024-.056a1.331 1.331 0 0 1 .152-.271 2.115 2.115 0 0 1 .7-.581 1.934 1.934 0 0 0 .732-.609 1.432 1.432 0 0 0 .139.5 1.839 1.839 0 0 0 .273.3c.247.3.163.472.149.806a.859.859 0 0 0 .08.409.2.2 0 0 0 .026.039.111.111 0 0 0 .135.037.326.326 0 0 0 .095-.067c.165-.162.18-.57.212-.788a3.076 3.076 0 0 0 .05-1.035" class="cls-6" transform="translate(-1505.62 5358.991)"/>
                <path id="패스_736" d="M252.537 556.82h-.076c-.108 0-.249-.017-.383-.034a2.82 2.82 0 0 1-.288-.059l-.046-.011c-.007-.011-.026-.009-.024 0a.433.433 0 0 0 .358.373.446.446 0 0 0 .466-.255c0-.007 0-.019-.007-.019" class="cls-15" transform="translate(-1515.97 5342.21)"/>
                <path id="패스_737" d="M252.387 556.867a2.769 2.769 0 0 1-.288-.059.279.279 0 0 0 .145.169.488.488 0 0 0 .169.047.519.519 0 0 0 .2-.009.23.23 0 0 0 .156-.113c-.108 0-.249-.017-.383-.034" class="cls-7" transform="translate(-1516.279 5342.128)"/>
                <path id="패스_738" d="M230.207 570.608c-.065.294-.163.594-.238.868-.039.145-.085.288-.136.429-.024.071-.05.139-.078.21-.035.091-.071.184-.108.275s-.085.21-.13.314l-.032.078c-.065.158-.13.318-.191.477-.039.1-.074.2-.11.3-.02.059-.041.119-.059.18l-.034.1H227.6a4.889 4.889 0 0 0 .416-.849c.106-.34.221-.674.359-1q.047-.109.095-.212a.282.282 0 0 1 .02-.041c.028-.063.059-.124.091-.186l.011-.024c.02-.039.043-.078.065-.119s.06-.108.091-.16l.084-.137.044-.069c.037-.056.076-.111.115-.165a3.875 3.875 0 0 1 .581-.641c.032-.03.065-.057.1-.085a1.015 1.015 0 0 0 .085.113 1.358 1.358 0 0 0 .451.338" class="cls-13" transform="translate(-1496.33 5331.259)"/>
                <path id="패스_739" d="M231.42 580.967c-.037-.015-.074-.028-.112-.041l-.16-.061-.035-.013a.087.087 0 0 0-.078.005.085.085 0 0 0-.074.037c-.065.1-.134.191-.2.284l-.128.164-.061.074c-.31.384-.659.754-.99 1.127l.973.007h.271c.16-.342.314-.683.466-1.034.061-.141.125-.284.186-.427a.083.083 0 0 0 .006-.032.1.1 0 0 0-.059-.089" class="cls-12" transform="translate(-1497.941 5322.556)"/>
                <path id="패스_740" d="M259.8 571.888l-.006-.162c-.015-.329-.03-.665-.056-1a11.334 11.334 0 0 0-.151-1.239 2.715 2.715 0 0 0-.2-.656 1.618 1.618 0 0 0-.082-.158.03.03 0 0 0 0-.022.059.059 0 0 0-.015-.026.307.307 0 0 0-.106-.076.133.133 0 0 0-.039-.013.259.259 0 0 1-.019-.028 1.186 1.186 0 0 0-.418-.44c-.1-.059-.2.1-.1.156a1.435 1.435 0 0 1 .459.422.028.028 0 0 1 .007.009l-.011.011a1.123 1.123 0 0 0-.138.158 4.316 4.316 0 0 0-.49 1.339l-.061.226c-.054.2-.108.405-.158.608-.009.031-.017.065-.024.1-.082.322-.16.643-.234.966l-.017.071h1.869c0-.082 0-.164-.007-.243" class="cls-13" transform="translate(-1521.035 5332.97)"/>
                <path id="패스_741" d="M257.626 570.92a.689.689 0 0 0-.007-.084.081.081 0 0 0-.032-.056h-.009a.154.154 0 0 0-.017.017.227.227 0 0 0-.059.137v.072a1.947 1.947 0 0 1-.271.851l-.032.052.022-.054a2.277 2.277 0 0 0 .065-.219 2.508 2.508 0 0 0 .085-.524v-.076a.711.711 0 0 0-.011-.126c-.006-.031-.008-.095-.039-.113-.058-.033-.095.089-.1.124-.017.1-.013.2-.026.307a2.168 2.168 0 0 1-.067.307 2.319 2.319 0 0 1-.214.488l-.018.006h-.006c.024-.072.045-.149.061-.223a4.415 4.415 0 0 0 .074-.751c0-.035.019-.154-.054-.143s-.067.141-.074.19c-.017.113-.026.227-.048.34a1.9 1.9 0 0 1-.1.33v.007a3.451 3.451 0 0 1-.219.44.346.346 0 0 0-.03.043c-.091.147-.169.3-.252.453-.067.121-.175.262-.139.407v.009c.019.394.043.789.076 1.183v.032h.215l.494.005h.074c0-.013-.007-.026-.011-.037l-.02-.061c-.089-.3-.189-.587-.3-.873 0-.011-.009-.022-.013-.033a.06.06 0 0 0 .009-.011l.028-.052c.037-.067.073-.137.106-.206l.065-.134.373-.739c.072-.1.145-.2.21-.312a1.669 1.669 0 0 0 .165-.36 1.543 1.543 0 0 0 .061-.4 2.014 2.014 0 0 0-.006-.212" class="cls-12" transform="translate(-1519.529 5330.754)"/>
                <path id="패스_742" d="M230.5 572.138c-.068-.066-.135-.133-.2-.205l-.005-.006a1.889 1.889 0 0 1-.2-.282c-.057-.1-.1-.205-.153-.308-.021-.042-.064-.164-.131-.154s-.017.119 0 .152a4.33 4.33 0 0 0 .308.687c.03.051.064.1.1.146l-.035.008c-.043-.039-.086-.078-.125-.12a2.12 2.12 0 0 1-.352-.506c-.046-.092-.074-.192-.123-.282-.017-.031-.09-.136-.134-.086-.024.028-.007.088 0 .12a.917.917 0 0 0 .03.124 2.387 2.387 0 0 0 .274.54 1.871 1.871 0 0 0 .131.187l.038.045-.046-.038a1.93 1.93 0 0 1-.527-.721c-.032-.076-.067-.159-.15-.187a.009.009 0 0 0-.009 0c-.029.042 0 .1.007.145a2.1 2.1 0 0 0 .062.2 1.5 1.5 0 0 0 .186.361c.078.108 1.014 1.333 1.285 1.775a.088.088 0 0 0 .155-.015c.006 0 .014 0 .018-.006.453-.581.292-.813-.394-1.578" class="cls-12" transform="translate(-1497.604 5330.437)"/>
                <path id="패스_743" d="M236.568 608.729a.1.1 0 0 0-.09-.068c-.129-.005-.212.158-.273.251a2.291 2.291 0 0 0-.269.575.082.082 0 0 0 .032.094.5.5 0 0 1-.142.193 5.5 5.5 0 0 1-1.152-.43 4.689 4.689 0 0 0-.748-.342c-.009-.216-.023-.432-.045-.647-.01-.1-.16-.135-.182-.025-.017.081-.03.161-.041.241h-.017c0-.036-.006-.073-.011-.111-.018-.118-.2-.068-.179.049.036.237-.041.482.016.71a1.645 1.645 0 0 0 .3.5.094.094 0 0 0 .173-.047q0-.223-.01-.446a1.286 1.286 0 0 1 .364.145c.206.093.4.21.6.307a4.268 4.268 0 0 0 .751.246s.007.006.009.011a.07.07 0 0 0 .018.021.1.1 0 0 0 .03.013c.317.073.364-.306.516-.49.094-.113.219-.185.283-.322a.688.688 0 0 0 .056-.427" class="cls-14" transform="translate(-1501.09 5300.232)"/>
                <path id="패스_744" d="M236.877 594.777c-1.031-.126-1.479.639-1.767 1.674-.032.115-.061.232-.089.353-.015.061-.03.122-.043.184l-.037.286a4.446 4.446 0 0 0-.045.492 2.9 2.9 0 0 0 .058.645 2.5 2.5 0 0 0 .1.355 1.752 1.752 0 0 0 .187.384.659.659 0 0 0 .375.307 1.221 1.221 0 0 0 1.025-.232 1.608 1.608 0 0 0 .258-.247 2 2 0 0 0 .208-.282c.119-.2.241-.423.351-.648.063-.128.119-.255.169-.374.058-.143.106-.277.139-.392a4.875 4.875 0 0 0 .128-.576c.134-.851.015-1.8-1.018-1.926" class="cls-12" transform="translate(-1502.271 5311.224)"/>
                <path id="패스_745" d="M237.6 611.654a4.322 4.322 0 0 1-.944.21.724.724 0 0 1-.089.009c-.1.009-.193.015-.291.017l.011-.128a.081.081 0 1 0-.16-.007c0 .034-.005.065-.009.1-.006.067-.011.136-.019.2-.026.282-.056.565-.093.845-.037.3-.082.606-.132.906a.025.025 0 0 1 0 .013c-.011.073-.022.145-.035.217s.017.117.072.121l1.222.061c.046 0 .078-.039.084-.089.017-.137.037-.273.058-.409a.017.017 0 0 1 0-.009c.037-.247.082-.494.132-.737.02-.109.043-.219.067-.327l.045-.186c.054-.23.111-.459.176-.687.018-.065-.035-.138-.095-.119" class="cls-12" transform="translate(-1503.034 5297.473)"/>
                <path id="패스_746" d="M245.718 609.024c-.02.122-.081.214-.136.205s-.085-.115-.066-.238.081-.214.136-.205.085.115.066.237" class="cls-14" transform="translate(-1510.915 5299.806)"/>
                <path id="패스_747" d="M238.282 608.327c-.02.122-.081.214-.137.205s-.085-.115-.066-.237.081-.214.136-.205.085.115.066.237" class="cls-14" transform="translate(-1504.859 5300.374)"/>
                <path id="패스_748" d="M245.19 606.148a.736.736 0 0 0-.6-.059.2.2 0 0 0-.141.143.1.1 0 0 0 .089.121 2.444 2.444 0 0 0 .308 0 1.287 1.287 0 0 0 .312.059c.162-.019.106-.225.028-.268" class="cls-14" transform="translate(-1510.052 5302.033)"/>
                <path id="패스_749" d="M237.443 605.568a.741.741 0 0 0-.6-.059.209.209 0 0 0-.141.145.1.1 0 0 0 .089.121 2.819 2.819 0 0 0 .308 0 1.405 1.405 0 0 0 .312.058c.162-.019.106-.225.03-.268" class="cls-14" transform="translate(-1503.742 5302.506)"/>
                <path id="패스_750" d="M240 610.424c-.075 0-.16.016-.16-.12a.293.293 0 0 1 .058-.122c.046-.077.171-.3.219-.376a.043.043 0 0 0-.072-.046 1.683 1.683 0 0 0-.3.6c0 .141.14.15.249.152a.043.043 0 0 0 0-.085" class="cls-15" transform="translate(-1506.224 5299.028)"/>
                <path id="패스_751" d="M220.668 623a1.573 1.573 0 0 0-.542-.19 4.455 4.455 0 0 0-.782-.057h-.149a12.23 12.23 0 0 0-1.254.106c-.264.037-.5.078-.685.117-.032.006-.063.013-.093.021a3.506 3.506 0 0 0-.449.124 3.569 3.569 0 0 0-.84.567 5.657 5.657 0 0 0-1.387 2.112c-.13.316-.563 1.612-.672 1.936h6.661a19.878 19.878 0 0 0 .809-2.383 2 2 0 0 0-.617-2.353" class="cls-11" transform="translate(-1485.106 5288.437)"/>
                <path id="패스_752" d="M239.456 615.293a.435.435 0 0 1-.508-.037c-.038-.04-.1.02-.06.06a.523.523 0 0 0 .611.05c.05-.021.007-.094-.043-.073" class="cls-15" transform="translate(-1505.513 5294.548)"/>
                <path id="패스_753" d="M237.548 595.3c-.055-.1-.141-.179-.151-.294-.006-.078.052-.175.046-.265-.042-.581-.627-.552-1.044-.5-.344.039-.677-.169-1.011-.058a.815.815 0 0 0-.3.181 2.518 2.518 0 0 0-.466.047.606.606 0 0 0-.323.384c-.062.218 0 .32-.117.556a2.916 2.916 0 0 0-.172.3.9.9 0 0 0 .011.635.092.092 0 0 0 .093.065.124.124 0 0 0 .027.007c.088 0 .157-.093.2-.155a2.49 2.49 0 0 0 .193-.406 1.009 1.009 0 0 1 .17-.251 1.636 1.636 0 0 0 .3-.176.488.488 0 0 0 .1-.116c.12.142.126.416.266.579.168.2.6.325.783.157a.533.533 0 0 0 .685.329.545.545 0 0 0 .231-.154c.215.151.518.2.624-.1a1.072 1.072 0 0 0-.139-.759" class="cls-14" transform="translate(-1501.507 5311.726)"/>
                <path id="패스_754" d="M232.28 602.981a.228.228 0 0 0-.011-.054.164.164 0 0 0-.182-.115.059.059 0 0 0-.033-.019.372.372 0 0 0-.141-.005c-.277.041-.377.435-.437.762s-.158.917.238.975a.425.425 0 0 0 .082 0 .3.3 0 0 0 .271-.232 2.388 2.388 0 0 0 .093-.489l.017-.115c.019-.113.067-.288.093-.453a.878.878 0 0 0 .011-.258" class="cls-13" transform="translate(-1499.441 5304.693)"/>
                <path id="패스_755" d="M249.484 605.259a.357.357 0 0 0-.2-.065.1.1 0 0 0-.041.009.271.271 0 0 0-.115-.009.191.191 0 0 0-.108.065 1.827 1.827 0 0 0-.2.706c-.02.087-.048.182-.074.273a1.227 1.227 0 0 0-.05.3.252.252 0 0 0 .138.256.359.359 0 0 0 .124.035c.414.05.539-.492.609-.81.063-.281.111-.62-.078-.76" class="cls-13" transform="translate(-1513.504 5302.733)"/>
                <path id="패스_756" d="M234.021 622.759c-.048 0-.1-.005-.147-.007a7.579 7.579 0 0 0-1.252.093c-.254.039-.491.085-.687.13-.032.005-.063.013-.093.021a1.107 1.107 0 0 0 1.3.628 2.183 2.183 0 0 0 1.289-.815 2.838 2.838 0 0 0-.412-.049" class="cls-12" transform="translate(-1499.785 5288.436)"/>
                <path id="패스_757" d="M216.685 604.165a.558.558 0 0 0 0 1.115.558.558 0 0 0 0-1.115" class="cls-7" transform="translate(-1487.005 5303.568)"/>
                <path id="패스_758" d="M220.018 591.332a.558.558 0 0 0 0 1.115.558.558 0 0 0 0-1.115" class="cls-16" transform="translate(-1489.719 5314.018)"/>
                <path id="패스_759" d="M265.012 607.014c-.125-.266-.392-.217-.56-.053-.122-.2-.368-.314-.555-.088-.3.357.146.858.351 1.134a.09.09 0 0 0 .016.015.093.093 0 0 0 .05.023h.034l.014-.005a.1.1 0 0 0 .026-.014c.267-.216.82-.592.623-1.01" class="cls-17" transform="translate(-1525.805 5301.464)"/>
                <path id="패스_760" d="M267.426 588.08c0-.294-.261-.364-.483-.289-.024-.233-.2-.442-.464-.318-.419.2-.236.838-.17 1.175a.117.117 0 0 0 .008.021.094.094 0 0 0 .036.042l.015.006a.1.1 0 0 0 .017.007h.015a.115.115 0 0 0 .029 0c.334-.081.994-.183 1-.646" class="cls-17" transform="translate(-1527.771 5317.189)"/>
                <path id="패스_761" d="M256.34 620.662c-.26-.136-.443.065-.478.3-.218-.086-.484-.028-.5.266-.02.463.635.595.965.691h.021a.093.093 0 0 0 .054-.013.106.106 0 0 0 .012-.01.118.118 0 0 0 .013-.012.132.132 0 0 0 .008-.012.112.112 0 0 0 .012-.027c.082-.334.3-.967-.115-1.181" class="cls-17" transform="translate(-1518.939 5290.172)"/>
                <path id="패스_762" d="M234.138 538.749a.372.372 0 0 0 0 .743.372.372 0 0 0 0-.743" class="cls-17" transform="translate(-1501.363 5356.833)"/>
                <path id="패스_763" d="M278.26 540.4h-1.966l.186-.751h1.966z" class="cls-7" transform="translate(-1535.98 5356.104)"/>
                <path id="패스_764" d="M267.666 540.4H265.7l.186-.751h1.966z" class="cls-17" transform="translate(-1527.354 5356.104)"/>
                <path id="패스_765" d="M216.828 639.016h-6.943a.592.592 0 1 1 0-1.184h6.943a.592.592 0 1 1 0 1.184" class="cls-18" transform="translate(-1481.425 5276.155)"/>
                <path id="패스_766" d="M213.685 617a.558.558 0 0 0 0 1.115.558.558 0 0 0 0-1.115" class="cls-18" transform="translate(-1484.563 5293.119)"/>
                <path id="패스_767" d="M201.1 531.246c-.321 1.324-.669 2.645-1.029 3.96-1.326 4.837-2.84 9.622-4.092 14.479-.424 1.646-.816 3.3-1.187 4.958a.979.979 0 0 1-.165-.1c1-4.4 2.2-8.743 3.461-13.079.988-3.392 1.982-6.789 2.822-10.222h.059z" class="cls-8" transform="translate(-1469.486 5362.944)"/>
                <path id="패스_768" d="M232.388 593.72l-3.126-.074c-.12 0-.113.183.007.186l3.125.074c.12 0 .113-.183-.006-.186" class="cls-7" transform="translate(-1497.614 5312.133)"/>
                <path id="패스_769" d="M229.447 607.893l-3.126-.021c-.12 0-.11.185.009.186l3.126.021c.119 0 .11-.185-.009-.186" class="cls-7" transform="translate(-1495.22 5300.55)"/>
                <path id="패스_770" d="M226.489 620.193l-3.126-.029c-.12 0-.11.184.009.186l3.126.029c.12 0 .11-.184-.009-.186" class="cls-7" transform="translate(-1492.811 5290.542)"/>
                <path id="패스_771" d="M95.353 870.682q-10.073 5.113-20.082 10.343-27.958 14.6-55.433 30.107Q9.886 916.749 0 922.479v-.429q25.146-14.578 50.722-28.4 22.118-11.956 44.54-23.336a2.065 2.065 0 0 1 .091.37" class="cls-1" transform="translate(-1311.009 5086.859)"/>
                <path id="패스_772" d="M84.3 940.693c-5.734-6.581-18.341-8.716-19.739-9q-4.947-.989-9.912-1.893-2.976-.54-5.959-1.039-6.735 3.829-13.679 7.269c-2.083 1.031-4.173 2.071-6.3 3.029l.121.035a.149.149 0 0 0 .081.245c.906.184 1.814.368 2.717.568 2.015.593 4.114 1.228 6.1 1.833.792.323 1.574.67 2.354 1.035a32.58 32.58 0 0 0 4.971 2.014 30.706 30.706 0 0 0 5.329.867 46.741 46.741 0 0 1 11.364 2.254c.974.347 1.93.738 2.873 1.161a2 2 0 0 0 1.668.2 26.258 26.258 0 0 0 2.445-1.128l2.9-1.345 12.626-5.852a.165.165 0 0 0 .033-.253" class="cls-1" transform="translate(-1334.39 5039.264)"/>
                <path id="패스_773" d="M78.859 932.746C74 935.946 69.1 939.072 64 941.868c-.21.115-.022.436.187.321 5.106-2.8 10-5.922 14.861-9.122.2-.131.013-.453-.188-.321" class="cls-14" transform="translate(-1363.044 5036.048)"/>
                <path id="패스_774" d="M92.2 972l-4.457 3.209c-.192.138-.007.461.187.321l4.457-3.209c.192-.139.007-.461-.187-.321" class="cls-14" transform="translate(-1382.388 5004.085)"/>
                <path id="패스_775" d="M142.84 983.394q-2.46 1.439-4.768 3.111c-.194.141.036.432.23.292q2.269-1.645 4.687-3.062c.2-.119.058-.461-.148-.341" class="cls-14" transform="translate(-1423.374 4994.803)"/>
                <path id="패스_776" d="M189.133 974.129a105.851 105.851 0 0 0-10.1 5.956c-.2.132-.012.454.188.321a105.725 105.725 0 0 1 10.1-5.956c.212-.11.025-.431-.188-.321" class="cls-14" transform="translate(-1456.716 5002.345)"/>
                <path id="패스_777" d="M129.755 962.178a105.826 105.826 0 0 0-10.1 5.956c-.2.132-.012.454.188.321a105.7 105.7 0 0 1 10.1-5.956c.212-.11.025-.431-.188-.321" class="cls-14" transform="translate(-1408.368 5012.076)"/>
                <path id="패스_778" d="M218.321 977.074c-2.048 1.1-4.1 2.19-6.12 3.332q-1.478.835-2.934 1.706a10.4 10.4 0 0 0-2.517 1.744c-.159.178.1.442.263.263a11.412 11.412 0 0 1 2.748-1.869q1.457-.87 2.939-1.7c1.922-1.079 3.865-2.118 5.809-3.157.211-.113.023-.434-.188-.321" class="cls-14" transform="translate(-1479.314 4999.948)"/>
                <path id="패스_779" d="M230.322 1000.558a54.681 54.681 0 0 0-6.59 3.872c-.2.134-.01.456.187.321a54.731 54.731 0 0 1 6.59-3.872c.214-.107.026-.427-.188-.321" class="cls-14" transform="translate(-1493.114 4980.825)"/>
                <path id="패스_780" d="M1115.223 1434.394c-.145-.552-9.9-29.044-17.79-51.552a.15.15 0 0 1-.011-.03c-1.98-5.649-3.844-10.919-5.405-15.272l-.034-.1-.052-.145-.634-1.761c-1.806-5.006-3.111-8.487-3.574-9.429.3-.017-1.116-.094-.812-.111.119-.006.117-.1 0-.093-.319.015-.637.031-.957.05-.106-.217-.21-.433-.318-.65-.028-.057-.206-.031-.178.028.1.21.208.422.31.632-.984.056-4.57.13-5.55.2-.135-.273-.266-.548-.4-.821-.03-.059-.208-.031-.178.026l.4.808q-2.173.156-4.332.362c-.117.011-.063.1.052.091q2.157-.207 4.325-.362c.162.331.325.66.484.99.513 1.053 2.032 4.735 4.143 9.96.067.167.135.338.2.509.046.111.091.225.137.34l.011.028c1.685 4.182 3.709 9.254 5.881 14.717a.124.124 0 0 1 .013.03c8.415 21.161 19.023 48.136 20.548 51.593.021.046.1.057.16.042.1-.024 3.289-.011 3.451-.013.052.009.114 0 .119-.03a.032.032 0 0 0-.005-.041" class="cls-14" transform="translate(-2186.84 4691.981)"/>
                <path id="패스_781" d="M1148.973 1337.049c-.225-.526-14.073-27.27-25.188-48.37a.14.14 0 0 1-.015-.028l-1.315-2.494-.19-.359c-2.656-5.028-5.1-9.628-7.1-13.33-1.555-2.887-2.836-5.229-3.73-6.8l-.163-.286c-.476-.829-.825-1.412-1.031-1.709.3-.061-1.117.071-.819.009.117-.024.1-.117-.017-.093-.314.063-.626.126-.938.191-.137-.2-.271-.4-.411-.6-.035-.052-.208 0-.173.054l.4.58c-.966.2-4.5.8-5.461 1.014-.174-.25-.343-.5-.518-.754-.037-.054-.21 0-.173.052l.511.741q-2.126.474-4.232 1c-.113.03-.047.111.065.084q2.1-.521 4.224-1c.208.3.418.6.626.908.292.427.855 1.332 1.639 2.63.063.106.128.214.2.325.966 1.607 2.236 3.75 3.728 6.286 2.17 3.691 4.807 8.212 7.662 13.125l.152.264q.323.554.648 1.117a.129.129 0 0 1 .017.028c11.441 19.69 25.905 44.809 27.922 48 .028.043.106.043.165.019.1-.039 3.253-.5 3.41-.522.054 0 .114-.017.114-.046a.031.031 0 0 0-.011-.039" class="cls-14" transform="translate(-2205.341 4766.985)"/>
                <path id="패스_782" d="M700.465 847.112v32.182c-.007.019-.017.037-.024.056a110.488 110.488 0 0 1-5.561 10.9 122.757 122.757 0 0 1-14.021 20.286 49.325 49.325 0 0 1-14.842 11.454q-1.772.891-3.631 1.638-1.034.416-2.078.79-1.288.465-2.591.867-3.252 1.006-6.594 1.679-1.538.312-3.089.563-1.4.229-2.816.407c-2.3.293-4.614.494-6.938.622q-1.817.1-3.637.141a.41.41 0 0 1-.046 0c-3.119.075-6.241.03-9.349-.091-3.379-.132-6.737-.353-10.047-.615q-9.117-.719-18.159-2.151-1.7-.267-3.4-.563-2.783-.482-5.554-1.031c-2.476-.492-4.958-1.023-7.417-1.638q-2.212-.549-4.395-1.2-1.165-.346-2.317-.727l-.115-.039q-1.246-.412-2.474-.869c-.234-.085-.468-.173-.7-.264q-.538-.206-1.072-.423l-.106-.043a56.406 56.406 0 0 1-5.773-2.725l-.431-.238q-2.221-1.24-4.3-2.693c-.106-.075-.21-.147-.314-.223a53.166 53.166 0 0 1-11.413-11c-.093-.119-.182-.238-.273-.359a53.5 53.5 0 0 1-7.231-12.973c-.048.043-.136.043-.151-.037-.042-.23-.081-.459-.12-.689-.552-1.5-1.04-3.015-1.451-4.558a.093.093 0 0 1 .18-.048c.323 1.215.693 2.419 1.1 3.607a59.637 59.637 0 0 1-.732-8.606q-.03-2.884.206-5.749l.671.089.277-.037q1.889-.251 3.778-.507a17.067 17.067 0 0 0 9.117-7.011 42.267 42.267 0 0 0 4.432-8.284 51.61 51.61 0 0 1 4.187-7.64c.771-1.174 1.568-2.333 2.354-3.5.862-1.271 1.714-2.545 2.521-3.851a50.421 50.421 0 0 0 4.033-8.06c.063-.052.128-.1.191-.152q1.928-1.424 3.934-2.744a73.27 73.27 0 0 1 9.237-5.2c.262-.124.526-.245.789-.364l.674-.3.1-.043q2.023-.814 4.083-1.531a133.03 133.03 0 0 1 25.021-5.847c4.469-.567 8.987-1.046 13.512-1.278a97.92 97.92 0 0 1 11.463.037q1.4.092 2.8.236 3.218.524 6.381 1.3 1.084.265 2.162.557l.377.1q3.19.88 6.312 1.986 1.97.693 3.91 1.471 3.07 1.365 6.057 2.894a.077.077 0 0 0 .024.011c.068.037.139.072.208.108q2.084 1.07 4.133 2.212 3.11 1.727 6.139 3.6 1.733 1.065 3.438 2.172c.05.03.1.061.147.093l.178.117q3.246 2.106 6.41 4.335 2.037 1.424 4.042 2.888 2.817 2.051 5.591 4.165c.124.093.247.188.372.284.284.214.568.431.853.648l1.772 1.384" class="cls-16" transform="translate(-1749.093 5130.79)"/>
                <path id="패스_783" d="M684.92 733.514a67.261 67.261 0 0 0-11.79-5.32c-.319-.109-.639-.217-.958-.321-.392-.128-.786-.255-1.181-.375q-.568-.178-1.143-.344a88.752 88.752 0 0 0-15.438-3.007c-.122-.015-.245-.028-.366-.039a118.531 118.531 0 0 0-16.12-.537c-.24.005-.479.013-.717.022-.429.015-.858.034-1.287.054l-.143.006c-.4.019-.8.041-1.2.063q-.485.025-.97.056l-.761.05q-1.1.075-2.19.167-1.508.129-3.013.292a125.9 125.9 0 0 0-14.736 2.458l-.351.082a113.932 113.932 0 0 0-12.212 3.553c-.364.128-.728.26-1.09.392q-3.767 1.377-7.425 3.035a94.761 94.761 0 0 0-11.643 6.292c-.2.124-.394.251-.589.381q-3.48 2.243-6.734 4.813l-.641.511a78.88 78.88 0 0 0-15.144 16.055 73.874 73.874 0 0 0-12.248 28.517q-.46 2.433-.738 4.895c-.072.646-.135 1.295-.186 1.943q-.231 2.828-.2 5.678a59.626 59.626 0 0 0 .732 8.606q-.613-1.783-1.1-3.607a.093.093 0 0 0-.18.048c.411 1.544.9 3.063 1.451 4.558.039.23.078.459.121.689.015.08.1.08.151.037a53.445 53.445 0 0 0 6.618 12.148c.091.124.182.249.275.373a53.358 53.358 0 0 0 11.314 11.3c.1.076.206.153.312.227.347.253.7.5 1.055.743q1.92 1.318 3.96 2.456l.431.238c1.642.9 3.321 1.7 5.036 2.42.28.117.561.234.843.347q.535.217 1.072.423c.232.091.466.178.7.264.58.215 1.163.425 1.75.624q.958.332 1.928.635c1.575.5 3.165.944 4.766 1.354 2.742.708 5.51 1.306 8.273 1.856q2.77.549 5.554 1.031 1.192.206 2.389.4 9.529 1.552 19.168 2.314c3.31.262 6.668.483 10.048.615 2.79.108 5.593.154 8.4.11a.386.386 0 0 0 .047 0q1.825-.028 3.648-.113c2.329-.106 4.653-.286 6.96-.556 2.19-.256 4.365-.591 6.518-1.022l.31-.061c2.225-.453 4.427-1.008 6.594-1.679q.9-.279 1.791-.585 1.452-.5 2.879-1.072 1.46-.588 2.868-1.261a49.321 49.321 0 0 0 15.605-11.831 122.743 122.743 0 0 0 14.021-20.286c1.651-2.855 3.216-5.814 4.633-8.851v-53.731a57.266 57.266 0 0 0-19.721-18.533" class="cls-19" transform="translate(-1753.269 5206.397)"/>
                <path id="패스_784" d="M631.621 1352.777q-2.157-.206-4.332-.362l.4-.808c.03-.057-.149-.085-.178-.026l-.4.821c-.983-.069-4.566-.143-5.552-.2.1-.21.206-.422.31-.631.03-.059-.148-.086-.178-.028-.106.217-.21.435-.316.65-.319-.017-.639-.035-.959-.05-.119-.008-.121.087 0 .094.306.015-1.117.093-.812.11-.188.381-.513 1.179-.955 2.329l-.191.5-.361.955c-.037.1-.074.2-.113.3l-.02.054c-1.187 3.182-2.875 7.88-4.83 13.393-.451 1.278-.92 2.6-1.4 3.957-.767 2.174-1.56 4.436-2.37 6.754-.123.351-.247.7-.37 1.057 0 .009-.007.018-.011.03-7.709 22.04-16.742 48.42-16.879 48.952a.032.032 0 0 0-.008.041c.008.03.067.039.119.03.162 0 3.347-.011 3.451.015.063.015.139 0 .16-.044 1.328-3.011 9.553-23.877 17.214-43.193l2.3-5.8.011-.03c.069-.171.136-.344.2-.515.894-2.251 1.769-4.449 2.61-6.559l.548-1.374c1.4-3.494 2.686-6.717 3.812-9.511l.005-.015q.543-1.348 1.035-2.556c.407-1 .784-1.926 1.126-2.762l.072-.175c.009-.02.017-.04.024-.061.972-2.359 1.661-3.984 1.975-4.627l.485-.99q2.17.159 4.324.362c.117.011.169-.08.052-.091" class="cls-14" transform="translate(-1793.115 4695.044)"/>
                <path id="패스_785" d="M792.6 1021.5c-5.985-.377-11.9 1.85-16.77 5.205a38.847 38.847 0 0 0-6.386 5.585q-.942 1.006-1.822 2.064-.46.549-.9 1.105-.8 1-1.555 2.03c-.47.635-.927 1.278-1.376 1.924-.184.266-.368.531-.548.8q-.947 1.4-1.854 2.821c-1.159 1.811-2.279 3.647-3.4 5.484a62.35 62.35 0 0 1-5.5 8.2 19.391 19.391 0 0 1-4.287 3.745 27.036 27.036 0 0 1-11.827 3.853c-4.542.5-36.634-.739-57.558-1.482-6.4-.23-11.753-.411-14.953-.483-.122 0-.239-.005-.355-.007-1.05-.022-1.835-.032-2.317-.024-5.873.089-2.849.7 1.967 1.527.111.021.226.041.342.059 7.237 1.241 18.027 2.938 9.423 4.107q-5.52.749-11.019 1.667l-.037.005c-.141.024-.286.047-.433.067a15.712 15.712 0 0 0-4.222.908 3.249 3.249 0 0 0-1.8 2.525 16.924 16.924 0 0 0-.212 4.75c.019.208.041.414.067.623.084.691.2 1.38.357 2.063q1.92 1.318 3.96 2.456l.431.238c1.642.9 3.321 1.7 5.036 2.42.281.117.561.234.843.348q.535.217 1.072.423c.232.091.466.179.7.264a4.5 4.5 0 0 1 1.522.888c.033.03.065.061.095.093 2.37 2.379-.97 6.512 4.566 7.2q.248.031.518.052c.869.069 1.945.136 3.2.2 3.816.189 9.265.346 15.483.438 8.481.128 18.393.141 27.544-.022l.953-.018c4.237-.084 8.29-.206 11.942-.374 2.565-.119 4.932-.26 7.023-.427 1.025-.082 1.986-.169 2.868-.262 1.464-.156 2.721-.329 3.732-.52l.31-.061q3.338-.68 6.594-1.679.9-.279 1.79-.585 1.452-.5 2.879-1.072 1.46-.588 2.868-1.261a49.321 49.321 0 0 0 15.6-11.831 122.728 122.728 0 0 0 14.021-20.286c1.652-2.855 3.215-5.814 4.633-8.851v-26.347a16.792 16.792 0 0 0-3.217-.537" class="cls-19" transform="translate(-1844.445 4963.787)"/>
                <path id="패스_786" d="M898.968 964.764v.388q-1.324.351-2.625.765c-7.7 2.446-14.8 6.587-19.907 13.033q-.215.27-.424.546c-.743.969-1.436 1.967-2.09 2.99a55.134 55.134 0 0 0-3.15 5.7q-.691 1.432-1.323 2.9c-1.858 4.28-3.388 8.725-5 13.062-1.662 4.479-3.319 9.109-5.883 13.166a20.289 20.289 0 0 1-4.878 5.38 19.085 19.085 0 0 1-5.381 2.862c-.3.1-.593.2-.892.288a44.045 44.045 0 0 1-12.874 1.432c-5.675-.021-11.35-.215-17.023-.334l-34.129-.712-1.389-.03c-.238-.005-.26-.375-.02-.37l1.282.026q19.34.4 38.68.806c5.381.113 10.794.4 16.173.184a37.316 37.316 0 0 0 9.108-1.328 20.864 20.864 0 0 0 4.564-1.941 16.08 16.08 0 0 0 1.742-1.17c3.444-2.651 5.656-6.5 7.417-10.465 1.92-4.33 3.477-8.81 5.119-13.25.786-2.127 1.6-4.265 2.481-6.379q.633-1.521 1.321-3.021a58.856 58.856 0 0 1 3.737-6.969 41.59 41.59 0 0 1 3.08-4.267 34.961 34.961 0 0 1 3.052-3.252 42.4 42.4 0 0 1 16.235-9.174q1.485-.476 3-.869" class="cls-14" transform="translate(-1947.595 5009.952)"/>
                <path id="패스_787" d="M1093.67 824.488c-.093-.093-.191-.182-.3-.269-.02-.017-.043-.036-.065-.052l-.052-.039a3.417 3.417 0 0 0-.357-.243 11.3 11.3 0 0 0-3.84-1.012l-.126-.024a16.3 16.3 0 0 1-5.108-2.233l-.782-.468q-.791-.471-1.584-.927a81.327 81.327 0 0 0-7.716-3.977c-.346-.154-.695-.306-1.048-.459l-.178-.078-.033-.015a42.916 42.916 0 0 0-8.294-2.825c-.381-.08-.764-.149-1.146-.208a14.473 14.473 0 0 0-2.155-.177 11.95 11.95 0 0 0-4.066.658c-.336.119-.671.255-1 .407-.123.058-.243.115-.364.178a10.949 10.949 0 0 0-1.728 1.1c-.119.093-.238.188-.353.284a14.538 14.538 0 0 0-1.289 1.217 17.305 17.305 0 0 0-1.9 2.457c-.035.054-.071.11-.1.164a26.892 26.892 0 0 0-1.962 3.78c-1.139 2.652-2.158 5.374-3.085 8.132q-.632 1.875-1.206 3.769-.618 2.031-1.183 4.075c-.106.379-.21.76-.312 1.139q-.454 1.672-.879 3.344c-.15.583-.3 1.167-.44 1.748q-.2.811-.394 1.622c-.03.121-.058.243-.085.364q-.482 2.039-.916 4.09c-.164.762-.321 1.529-.474 2.292-.076.383-.15.763-.223 1.146q-.5 2.586-.914 5.185c-.117.732-.232 1.462-.338 2.194-.039.251-.076.5-.111.754-.011.065-.021.132-.03.2q-.279 1.917-.511 3.841-.078.646-.152 1.293-.273 2.377-.479 4.759l-.662-.481c-.193-.141-.379.182-.187.321l.812.59c-.02.249-.043.5-.063.743s.351.238.371 0l.041-.489c.18.132.361.262.539.394a29.433 29.433 0 0 0 2.4 4.514 12.994 12.994 0 0 0 1.148 1.457 10 10 0 0 0 1.462 1.321 9.094 9.094 0 0 0 1.512.882c1.12.529 2.313.908 3.425 1.473a18.6 18.6 0 0 1 3.722 2.677l.49.431c.563.5 1.124 1 1.7 1.479a19.988 19.988 0 0 0 1.7 1.278c.1.067.2.132.3.195.007.006.017.01.024.015a5.262 5.262 0 0 0 2.764 1.011 2.51 2.51 0 0 0 .89-.18 3.847 3.847 0 0 0 1.993-2.082 6.972 6.972 0 0 0 .392-1.078c.282-1.009.461-2.01.732-2.989a10.049 10.049 0 0 1 .788-2.06 13.767 13.767 0 0 1 1.038-1.666 20.864 20.864 0 0 1 2.03-2.378c1.092-1.118 2.277-2.157 3.42-3.191q.334-.3.663-.613c.42-.392.83-.788 1.233-1.191q.5-.5.99-1.013 1.1-1.162 2.12-2.4.3-.359.583-.726c.108-.137.215-.275.319-.414.153-.2.3-.4.448-.6s.3-.42.455-.632q.552-.777 1.074-1.571 1.092-1.661 2.071-3.39.477-.836.931-1.683t.892-1.7c.548-1.074 1.077-2.159 1.6-3.247q.34-.716.672-1.436c.13-.277.258-.555.386-.832.048-.108.1-.214.147-.32q.621-1.354 1.231-2.71l.438-.973q.552-1.223 1.107-2.443l.6-1.313c.494-1.063.994-2.121 1.51-3.175q.27-.554.548-1.107c.054-.108.108-.215.164-.323.7-1.386 1.428-2.757 2.2-4.1.071-.125.143-.247.217-.37.134-.227.271-.453.409-.68.229-.377.461-.752.689-1.131s.459-.771.674-1.165c.232-.425.452-.856.647-1.3.938-2.125 1.239-5.047-.53-6.817" class="cls-1" transform="translate(-2154.136 5134.762)"/>
                <path id="패스_788" d="M1183 840.633a.132.132 0 0 0 .022.013q-.646.552-1.294 1.1c-3.2 2.742-6.351 5.678-10.059 7.738a.1.1 0 0 1-.139-.082q.426-7.091.873-14.179c1.869.847 3.743 1.687 5.558 2.643 1.6.847 3.208 1.7 4.776 2.614q.276-5.818.568-11.634.619.267 1.226.537a81.294 81.294 0 0 1 7.716 3.977 59.358 59.358 0 0 1-9.247 7.271" class="cls-10" transform="translate(-2264.923 5120.621)"/>
                <path id="패스_789" fill="#ffd252" d="M1062.646 869.588c-.121-.056-.242-.11-.362-.164l-.117-.054.091-.076-.039-.022c.41-.353.8-.676 1.176-.973.455-.36.886-.687 1.3-.994.713-.522 1.388-.988 2.066-1.471.516-.366 1.037-.741 1.577-1.161.518-.4 1.057-.838 1.635-1.343.078-.067 1.7-.957 1.835-1.068a.553.553 0 0 0-.045-.046 1.286 1.286 0 0 0-.1-.1c-1.038-.981-2.92-1.023-4.2-1.256l-.126-.024a16.3 16.3 0 0 1-5.108-2.233l-.782-.468q-.173 3.452-.34 6.906l-.178 3.691c-1.605-.513-3.591-.749-4.895-1.438-1.817-.958-3.689-1.8-5.558-2.643q-.435 6.921-.853 13.842a7.649 7.649 0 0 1-1.415-.522c-.931-.476-1.876-.921-2.829-1.352-.866-.394-1.737-.773-2.608-1.156l.011-.009c-1.67-.955-3.385-1.837-5.1-2.714-.258-.132-.516-.262-.777-.388-.743-.366-1.5-.713-2.249-1.053-.853-.383-1.709-.756-2.563-1.131q-.1 1.909-.191 3.819-.154 3.051-.3 6.1l-.2 4.115c-.684-.4-1.375-.784-2.069-1.165-.9-.491-1.8-.971-2.706-1.449-1.321-.7-2.671-1.33-4.029-1.95l-.354-.161c-.392-.177-.782-.355-1.174-.531l-.316 5.075c-.009.124-.017.249-.022.375q-.176 2.8-.344 5.6-.047.733-.089 1.466c-.033.528-.065 1.053-.1 1.581-.13-.076-.26-.153-.392-.227l-.318-.182q-1.073-.61-2.158-1.191-.978-.526-1.96-1.044c-1.817-.958-3.689-1.8-5.558-2.643q-.446 7.088-.873 14.177a.094.094 0 0 0 .139.082 45.121 45.121 0 0 0 7.337-5.387c.713-.613 1.423-1.232 2.13-1.843l.591-.507.089-.076.7-.592q-.839 6.818-1.655 13.64a.093.093 0 0 0 .134.089 39.566 39.566 0 0 0 6.3-3.936c1.417-1.046 2.8-2.136 4.2-3.191.307-.232 1.166-.789 1.83-1.23q-.41 6.537-.8 13.075c-1.688-.8-4.269-.971-5.848-1.806q-.557-.3-1.124-.574c-1.46-.728-2.948-1.4-4.434-2.069q-.24 3.825-.475 7.651a12.994 12.994 0 0 0 1.148 1.457 10.016 10.016 0 0 0 1.462 1.321 9.094 9.094 0 0 0 1.512.882c1.954-1.521 3.806-3.189 5.679-4.789.353-.3 1.488-1.128 2.121-1.616q-.335 5.277-.652 10.554l.49.431c.563.5 1.124 1 1.7 1.479.758-.514 1.5-1.061 2.22-1.625.138-.108.273-.216.41-.325 1.771-1.412 3.466-2.931 5.177-4.393.431-.368 2.019-1.512 2.45-1.878-.05-.03 1.566-1.131 2.389-1.713 1.092-1.118 2.277-2.157 3.42-3.191q.334-.3.663-.613.629-.588 1.233-1.191c.336-.333.665-.671.99-1.013q1.1-1.162 2.119-2.4c-.228-.074-.466-.143-.708-.206a22.257 22.257 0 0 1-4.2-1.241c-1.219-.644-2.463-1.231-3.717-1.805l-.342-.156q-.644-.3-1.291-.587c.9-.539 1.776-1.128 2.625-1.752q.36-.262.71-.531c2.075-1.586 4.025-3.349 6-5.036.329-.282 1.336-1.016 1.984-1.51.2-.039.23 0 .275-.024-.219 3.485-.45 7.183-.663 10.718q-.044.708-.085 1.4c.108-.138.215-.275.319-.414.152-.2.3-.4.448-.6s.3-.42.455-.632q.552-.777 1.073-1.571 1.092-1.661 2.071-3.39.476-.836.931-1.683t.892-1.7l-.494-.256-.318-.16c-1.295-.652-2.615-1.255-3.938-1.854a71.687 71.687 0 0 0 9.217-7.246q.552-1.223 1.107-2.443c-.953-.3-2.04-.511-3.037-.772a40.626 40.626 0 0 0 5.151-3.715q.27-.554.548-1.107c.054-.108.108-.215.164-.323.7-1.386 1.428-2.757 2.2-4.1.071-.124.143-.247.217-.37.134-.227.271-.453.409-.68a13.255 13.255 0 0 1-3.041-.951c-1.606-.847-3.258-1.6-4.911-2.35m-21.136 6.981c.136-.119.269-.236.405-.353.236-.206.472-.41.706-.617l-.044.91q-.145 2.837-.284 5.669l-.3 6.221c-1.623-.543-3.678-.773-5.017-1.479-1.733-.916-3.518-1.72-5.3-2.528l.032-.028-.022-.013a30.814 30.814 0 0 0 2.6-1.7c2.548-1.844 4.872-4.02 7.229-6.085m-.769 14.231c.264-.225.955-.738 1.553-1.185q-.4 6.364-.784 12.732c-1.644-.576-3.778-.8-5.155-1.525-1.6-.843-3.241-1.594-4.885-2.339l.006-.006c-.106-.071-.219-.139-.336-.2 3.511-2.043 6.529-4.848 9.6-7.475m-10.17 7.2c-1.3-.568-2.976-.9-4.293-1.445a6.44 6.44 0 0 1-.892-.438c-1.659-1-3.375-1.906-5.09-2.809.05-.045.1-.087.152-.13l-.024-.013a49.107 49.107 0 0 0 7.976-5.959c.671-.581 1.338-1.163 2.006-1.735l.988-.84q-.421 6.684-.825 13.369m11.284 8.924q-.3 4.787-.587 9.576a33.6 33.6 0 0 0-4.165-1.163c-.13-.037-.256-.074-.381-.115a6.841 6.841 0 0 1-1.157-.464c-1.7-.9-3.455-1.69-5.208-2.485 3.581-2.049 6.646-4.9 9.765-7.567.327-.279 1.317-1 1.965-1.5q-.092 1.446-.18 2.892c-.019.275-.036.55-.052.825m19.305-23.951a6.88 6.88 0 0 1-1.092-.444c-1.8-.949-3.65-1.779-5.5-2.617l-.056-.026c0 .043-.005.084-.007.126q-.418 6.6-.815 13.213a35.6 35.6 0 0 0-4.427-1.252q-.178-.053-.351-.111a6.426 6.426 0 0 1-1.011-.416c-1.6-.843-3.243-1.6-4.891-2.342a72.5 72.5 0 0 0 9.026-7.3c.3-.267 1.2-.942 1.841-1.438.253-.2.466-.364.585-.47-.067-.039-.136-.076-.208-.111a20.1 20.1 0 0 0-4.038-1.139c3.509-2.042 6.526-4.846 9.6-7.471.364-.312 1.559-1.18 2.179-1.661l-.015.243c-.013.2-.026.392-.037.589q-.4 6.314-.778 12.626" transform="translate(-2132.543 5096.775)"/>
                <path id="패스_790" d="M777.168 864.565l-.374.154c-.8.339-1.6.68-2.4 1.017l2.775-1.171" class="cls-6" transform="translate(-1941.555 5091.539)"/>
                <path id="패스_791" d="M342.517 1382.648c-1.625-.336-3.241-.671-4.859-.992q-4.683 8.974-9.162 18.052-5.881 11.943-11.4 24.063-3.125 6.866-6.13 13.787a.132.132 0 0 0 .047.178l5.822 2.518a.135.135 0 0 0 .158-.02c6.606-8.056-.3-.176 6.733-12.711 5.4-9.622 21.761-32.127 28.278-41.02q.682-.931 1.366-1.86c-3.656-.549-7.286-1.255-10.857-1.994" class="cls-12" transform="translate(-1564.203 4670.499)"/>
                <path id="패스_792" d="M676.628 1355.826c-.949 1.36-1.894 2.714-2.827 4.074 4.267 5.228 8.911 8.175 13.3 13.3 5.772 6.742 19.5 23.384 23.745 29.032.039.051 3.934 4.312 3.99 4.26l4.609-4.359a.135.135 0 0 0 .044-.154c-4.8-9.247-16.266-28.521-22.481-36.828-6.609-8.835-7.492-7.034-13.1-16.529l-1.171-1.989c-1.946 3.144-4.026 6.2-6.113 9.192" class="cls-12" transform="translate(-1859.649 4699.016)"/>
                <path id="패스_793" d="M484.071 928.621c-4.837-.053-9.672-.117-14.506-.218a57.989 57.989 0 0 1-6.6.161 1.293 1.293 0 0 1-.441-.1 63.981 63.981 0 0 1-6.548-.149c-1.664-.092-3.329-.161-4.993-.223q-.759 1.643-1.607 3.243-.794 1.482-1.668 2.924a10.71 10.71 0 0 1-3.234 3.834c-1.547.945-3.433.884-5.179.875-7.631-.039-16.393-.452-24-1.085-3.669-.3-7.321-.737-10.982-1.113-2.948-.3-6.219-.4-8.736 1.423a13.531 13.531 0 0 0-2.981 3.282c-.981 1.384-1.937 2.783-2.9 4.181q-3.032 4.431-5.966 8.927-1 1.533-1.989 3.074-10.5 16.35-19.686 33.493-5.023 9.37-9.637 18.951-2.329 4.837-4.553 9.726c-1.421 3.123-2.907 6.245-4.172 9.436-.009.022-.017.043-.024.065a.2.2 0 0 0-.013.03 2.063 2.063 0 0 0-.089 1.7 2.186 2.186 0 0 0 1.33.9c1.739.6 3.516 1.1 5.283 1.616q1.4.407 2.8.8 3.984 1.1 8.011 2.034 1.555.362 3.113.7 9.159 1.981 18.475 3.119 2.664.326 5.335.58a.094.094 0 0 0 .095-.093 24.952 24.952 0 0 1 .836-9.992c.135-.459.284-.914.448-1.362a.133.133 0 0 1 .009-.03 24.783 24.783 0 0 1 1.518-3.379c.761-1.4 1.633-2.745 2.424-4.133a19.394 19.394 0 0 0 1.872-4.165 17.3 17.3 0 0 0 .563-3.191q1.822 3.533 3.661 7.057c.162.314.325.626.489.94q1.661 3.182 3.334 6.357c.091.173.18.344.273.514a.151.151 0 0 0 .015.03q2.561 4.859 5.147 9.706 2.508 4.7 5.041 9.382a.1.1 0 0 0 .108.043 57.46 57.46 0 0 0 12.462-6.394c2.374-1.569 4.666-3.267 6.9-5.026q1.126-.889 2.236-1.794t2.231-1.839q1.1-.919 2.2-1.846a16.3 16.3 0 0 0 2-1.794 3.62 3.62 0 0 0 .321-.436.141.141 0 0 0 .019-.03 2.591 2.591 0 0 0 .42-1.454 4.245 4.245 0 0 0-.737-2.058c-.455-.745-1-1.434-1.393-2.216a11.642 11.642 0 0 1-.91-2.785 35.13 35.13 0 0 0-1.271-5.051 24.743 24.743 0 0 0-1.8-3.715c-.072-.126-.147-.251-.221-.375-1.644-2.73-3.641-5.222-5.494-7.805a30.425 30.425 0 0 1-4.538-8.274 22.313 22.313 0 0 1-.888-5.4 27.413 27.413 0 0 0-.71-5.68c-.89-3.169-3.269-5.417-5.608-7.586-.433-.4-.9-.823-1.36-1.263v-.008a12.243 12.243 0 0 1 1.042-2.3l4.787.684 27.989 4a85.493 85.493 0 0 0 11.925 1.243 19.492 19.492 0 0 0 10.463-2.538c6.124-3.839 7.885-11.485 9.377-18.055l5.576-24.564.221-.97.45-1.982.578-2.546c-1.984.022-3.968.008-5.952-.013" class="cls-7" transform="translate(-1590.644 5039.814)"/>
                <path id="패스_794" d="M851.269 559.088c-.225-4.6-.8-11.984-2.73-16.251-1.813-4-3.344-6.935-6.811-9.907-1.888-1.618-6.44-7.182-23.022-11.86a8.4 8.4 0 0 0-2.814-.006.179.179 0 0 0-.271-.156l-.323.2h-.054a.191.191 0 0 0-.165.134c-.437.275-.875.55-1.312.827-3.838 2.417-13.524 5.776-21.2 15.064-2.953 3.572-12.183 23-13.659 27.451a28.4 28.4 0 0 1-3.05 6.527c-1.265 1.963-2.751 3.769-4.094 5.678a27.561 27.561 0 0 0-3.182 5.994 23.006 23.006 0 0 1-1.31 2.989 13.334 13.334 0 0 1-2.485 2.926 7.175 7.175 0 0 0-1.514 2.119c1.2.585 2.372 1.269 3.563 1.85 2.435.841 5.079.958 7.529 1.776a6.736 6.736 0 0 1 1.794.91 170.392 170.392 0 0 0 15.357-13.506c.408 2.763-.187 5.546-.641 8.291a28.284 28.284 0 0 0-.133 9.006c.065.422.652.509.933.26 8.213.4 37.315 2.237 37.95 2.028 1.547 1.207-.31-10.991 2.415-8.638 2.873 2.482 13.573 16.662 15.789 4.737.951-5.121 1.689-2.15 2.222-7.332a206.187 206.187 0 0 0 1.22-31.121" class="cls-8" transform="translate(-1932.5 5371.384)"/>
                <path id="패스_795" d="M915.265 267.529a11.335 11.335 0 0 0-1.6-4.841 19.43 19.43 0 0 0-1.531-2.015 4.476 4.476 0 0 1-.814-1.349 3.824 3.824 0 0 1-.069-1.746 54.057 54.057 0 0 1 1.588-6.31 23.677 23.677 0 0 0 .75-6.278 41.2 41.2 0 0 0-.583-6.245 18.148 18.148 0 0 0-1.642-5.385c-1.523-2.946-4.824-5.428-8.229-4.716a11.166 11.166 0 0 0-6.787-5.114 14.339 14.339 0 0 0-5.45-.362 26.759 26.759 0 0 0-5.405 1.443 26.519 26.519 0 0 1-5.888.977 17.839 17.839 0 0 0-5.147 1.22 11.81 11.81 0 0 0-7.748 12.078c.033 1.224-.147 3.655-.169 3.736a20.088 20.088 0 0 1-1.494 4.057 14.427 14.427 0 0 1-2.42 3.332c-1.817 1.915-3.9 3.548-5.415 5.736a17.368 17.368 0 0 0-2.859 7.135c-.377 2.393-.151 4.913 1.848 6.533a7.477 7.477 0 0 0 5.125 1.509 5.041 5.041 0 0 0 3.2 2.926 5.129 5.129 0 0 0 2.786-.282c1.111-.338 2.3-.684 3.243.221.383.368.671.823 1.074 1.172a3.886 3.886 0 0 0 1.04.646 5.067 5.067 0 0 0 2.469.342l.18-.02a7.062 7.062 0 0 0 3.238-1.382 13.755 13.755 0 0 0 1.3-1.089 5.376 5.376 0 0 0 1.33.44 6.761 6.761 0 0 0 3.435-.316c.063-.02.124-.041.186-.063.427-.145.847-.318 1.261-.5a54.742 54.742 0 0 0 9.564-5.2l.087-.063q.8-.574 1.545-1.211c.048.466.108.93.182 1.391.026.169.054.338.085.505l.085.435a13.037 13.037 0 0 0 1.928 4.752l.018.028a9.564 9.564 0 0 0 1.011 1.241c.076.08.154.158.234.232a6.91 6.91 0 0 0 6.687 1.954 5.354 5.354 0 0 0 3.509-2.827 2.017 2.017 0 0 0 .385.145c1.3.355 2.528-.708 3.085-1.869a9.678 9.678 0 0 0 .788-5" class="cls-9" transform="translate(-2006.536 5613.883)"/>
                <path id="패스_796" d="M1031.449 418.651c0-.134-.008-.262-.008-.386v-.2q.011-.8-.022-1.592c-.006-.136-.011-.271-.019-.407-.072-1.445-.23-2.883-.4-4.321-.065-.546-.132-1.09-.2-1.635l-.039-.323c-.009-.065-.017-.128-.024-.193-.03-.254-.059-.507-.087-.762-.03-.271-.058-.541-.083-.812-.282-2.857-.385-5.723-.476-8.591-.039-1.226-.078-2.45-.132-3.674-.007-.219-.018-.438-.028-.658l-.017-.34c-.037-.724-.08-1.449-.134-2.173q-.041-.607-.1-1.211-.078-.911-.184-1.82c0-.018 0-.037-.005-.056q-.02-.187-.045-.373c0-.026-.005-.052-.009-.078s-.007-.076-.013-.115a.094.094 0 0 0-.158-.065c-.07.069-.139.136-.21.2l-.273.266q-.362.354-.724.7l-.056.054-.091.089-2.123 2.058-4.239 4.111q-1.928 1.872-3.858 3.743a25.566 25.566 0 0 1-3.266 2.9l-.052-.513c-.011-.119-.2-.121-.186 0l.063.624c-.121.078-.242.158-.366.23a.093.093 0 0 0 .095.16c.1-.058.2-.122.292-.184q.167 1.7.34 3.4.092.9.186 1.794l.039.372.078.756.176 1.653c.063.6.128 1.2.193 1.8q.148 1.357.3 2.71l.016.154q.262 2.354.537 4.707a.094.094 0 0 0 .093.093q4.67.047 9.342-.123 2.335-.086 4.666-.228c.411-.024.883-.011 1.061-.455a3.394 3.394 0 0 0 .149-1.285" class="cls-21" transform="translate(-2136.527 5478.899)"/>
                <path id="패스_797" d="M973.482 288.2a14.362 14.362 0 0 0-3.26-4.547 17.658 17.658 0 0 0-4.36-3.253 16.818 16.818 0 0 0-7.274-1.7h-.206c-.537-.011-1.076-.006-1.608.017-.385.015-.771.037-1.154.067s-.736.061-1.1.1a11.314 11.314 0 0 0-2.818.533 7.713 7.713 0 0 0-2.285 1.7 7.384 7.384 0 0 1-4.04 1.54l-.567 2.753q-.323 1.591-.652 3.186-.293 1.429-.582 2.863c-.061.3-.117.594-.176.892l-.011.056q-.231 1.184-.45 2.372l-.134.741q-.2 1.12-.377 2.238a25.107 25.107 0 0 0-.3 6.176 37.542 37.542 0 0 0 1.187 6.176 29.952 29.952 0 0 0 1.824 5.5 9.185 9.185 0 0 0 2.121 2.953 5.128 5.128 0 0 0 1.815 1.044 6.971 6.971 0 0 0 1.012.242 13.379 13.379 0 0 0 4.895-.3c.47-.1.936-.223 1.4-.356l.32-.093a32.876 32.876 0 0 0 3.918-1.493 22.652 22.652 0 0 0 4.638-2.668 13.067 13.067 0 0 0 1.912-1.82 15.051 15.051 0 0 0 1.609-2.283l.085-.15c0-.007.009-.015.013-.022.076-.136.152-.271.225-.409a39.977 39.977 0 0 0 2.107-4.534c.005-.011.009-.024.015-.035.082-.2.159-.4.238-.609.071-.186.139-.374.208-.561.464-1.276.879-2.567 1.248-3.862.074-.254.145-.509.214-.765.028-.1.056-.2.082-.3a30.892 30.892 0 0 0 1.051-5.526c.013-.15.022-.3.03-.451a12.279 12.279 0 0 0-.814-5.4" class="cls-21" transform="translate(-2078.071 5568.59)"/>
                <path id="패스_798" d="M1017.819 385.589c-.115 1.178-.63 2.091-1.152 2.04s-.852-1.047-.737-2.224.63-2.091 1.152-2.04.852 1.047.737 2.224" class="cls-9" transform="translate(-2138.208 5483.355)"/>
                <path id="패스_799" d="M958.032 370.043c-.135 1.175-.667 2.08-1.187 2.02s-.833-1.061-.7-2.237.667-2.08 1.187-2.02.833 1.061.7 2.237" class="cls-9" transform="translate(-2089.521 5496.024)"/>
                <path id="패스_800" d="M970.72 442.987c-.24 0-.509-.013-.8-.03a40.087 40.087 0 0 1-4.111-.529 29.083 29.083 0 0 1-3.074-.749c-.3-.093-.489-.154-.492-.16-.082-.11-.277-.106-.255.043.245 1.766 1.5 3.931 3.7 4.179a4.821 4.821 0 0 0 5.114-2.549c.05-.082.043-.206-.076-.206" class="cls-22" transform="translate(-2094.299 5436.063)"/>
                <path id="패스_801" d="M950.236 334.1c-.309-.9-2.085-1.518-2.119-1.487a12.953 12.953 0 0 0-2.723-.759 39.9 39.9 0 0 1-1.632 3.68l.137.006a15.95 15.95 0 0 1 3.476.73 2.584 2.584 0 0 0 2.4-.274 1.8 1.8 0 0 0 .462-1.9" class="cls-9" transform="translate(-2079.463 5525.293)"/>
                <path id="패스_802" d="M961.22 290.4a12.041 12.041 0 0 0-3.836-7.521 15.745 15.745 0 0 0 .1-2.181 10.186 10.186 0 0 0-.962-4.2 7.935 7.935 0 0 0-.39-.706 7.084 7.084 0 0 0-1.625-1.85l-.052-.041v-.167a34.394 34.394 0 0 0-1.148-8.049 27.7 27.7 0 0 0-3.215-7.759 14.741 14.741 0 0 0-6.215-5.192 18.827 18.827 0 0 0-3.6-1.306c-.229-.058-.459-.11-.689-.156l-.022-.005a11.861 11.861 0 0 0-2.185-.264c.011-.037.024-.071.036-.108a.093.093 0 0 0-.18-.048c-.015.052-.034.1-.049.154-.141 0-.282 0-.422.011.009-.176.018-.351.03-.526.007-.121-.178-.119-.186 0-.011.176-.02.357-.03.537a4.979 4.979 0 0 1-2 .024 27.282 27.282 0 0 0-3.888.344 15.532 15.532 0 0 0-6.509 2.771 18.926 18.926 0 0 0-4.883 4.938 15.341 15.341 0 0 0-1.538 3.407c-.442 1.293-.888 2.588-1.294 3.893a32.153 32.153 0 0 0-1.479 9.152.093.093 0 0 0 .139.08 20.7 20.7 0 0 0 3.318-2.021c.524-.381 1.051-.767 1.568-1.167.3-.234.6-.472.89-.717.156-.13.308-.26.459-.394a7.362 7.362 0 0 0 1.419-1.72 14.509 14.509 0 0 0 1.41-3.518l.1-.351a18.411 18.411 0 0 1 1.111-3.174 8.968 8.968 0 0 1 2.1-2.693 52.487 52.487 0 0 1 5.591-3.793c.165-.113.329-.229.49-.349.312-.227.618-.464.914-.715a10.432 10.432 0 0 0 1.987-2.171c-.022.713-.063 1.436-.1 2.158l-.035.645c-.176 3.449-.156 6.841 2.547 9.186.86.747 1.882 1.276 2.749 2.014a5.139 5.139 0 0 1 1.681 3.165 6.43 6.43 0 0 0 1.163 3.141 4.33 4.33 0 0 0 1.473 1.081 5.575 5.575 0 0 1 .526.6c.048.063.095.13.139.2a6.3 6.3 0 0 1 .881 2.277.438.438 0 0 1 .009.052v.021c.03.156.054.312.074.468.006.024.007.046.011.071s0 .028.006.041c.071.542.1 1.094.13 1.649-.017.711-.072 1.426-.145 2.136-.08.8-.18 1.588-.271 2.359-.015.123-.03.243-.043.364q-.153 1.365-.214 2.734c-.013.323-.022.644-.028.968v.661c0 .641.021 1.284.06 1.923.007.122.017.247.026.369a7.468 7.468 0 0 0 1.525 4.3c.128.156.264.3.4.448a7.255 7.255 0 0 0 1.2.985 9.915 9.915 0 0 0 7.651 1.159 4.324 4.324 0 0 0 2.993-3.228 11.333 11.333 0 0 0 .327-4.4m-24.746-39.114c-.054-.019-.109-.033-.165-.05.084-.009.167-.02.249-.028l-.006.106-.078-.028" class="cls-9" transform="translate(-2056.037 5591.628)"/>
                <path id="패스_803" d="M1078.281 382.657a4.542 4.542 0 0 0-.147-.931 4.2 4.2 0 0 0-.4-.986 2.446 2.446 0 0 0-2.11-1.341 10.7 10.7 0 0 0-2.106.327 2.349 2.349 0 0 1-2.218-.468c-.173-.165-.409.123-.236.288a2.236 2.236 0 0 0 1.781.6.189.189 0 0 0-.031.074 20.269 20.269 0 0 0-.481 4.176V384.867c.008.357.03.711.063 1.063a11.593 11.593 0 0 0 .249 1.52 8.758 8.758 0 0 0 .366 1.206.739.739 0 0 0 .46.486 1.03 1.03 0 0 0 .646-.05c.074-.028.15-.059.229-.1a7.66 7.66 0 0 0 1.865-1.471l.254-.269c.225-.245.4-.457.505-.593a6.286 6.286 0 0 0 1.295-4.005" class="cls-21" transform="translate(-2183.072 5486.739)"/>
                <path id="패스_804" d="M969.729 379.544c.142-.193-.172-.392-.313-.2-.814 1.109-1.655 2.2-2.438 3.334a6.465 6.465 0 0 0-1.289 2.86c-.243 2.144 1.546 2.723 3.334 2.689.238 0 .255-.376.015-.371a3.314 3.314 0 0 1-2.54-.627c-.785-.83-.442-2.143 0-3.044a32.891 32.891 0 0 1 3.228-4.64" class="cls-22" transform="translate(-2097.299 5486.692)"/>
                <path id="패스_805" d="M1078.533 431.017a2.164 2.164 0 0 1-1.665-.279c-.2-.127-.438.158-.237.286a2.581 2.581 0 0 0 2.034.34c.231-.055.1-.4-.132-.347" class="cls-22" transform="translate(-2187.59 5444.806)"/>
                <path id="패스_806" d="M969.086 443.464a29.124 29.124 0 0 1-3.074-.749 3.085 3.085 0 0 0 1.5 1.883 5.577 5.577 0 0 0 1.789.565 5.983 5.983 0 0 0 2.168-.009 2.463 2.463 0 0 0 1.733-1.161 40.144 40.144 0 0 1-4.111-.529" class="cls-7" transform="translate(-2097.58 5435.028)"/>
                <path id="패스_807" d="M1011.289 350.16a9.028 9.028 0 0 0-7.089-1.833 2.51 2.51 0 0 0-1.976 1.473 1.272 1.272 0 0 0 .847 1.625c1.148.473 2.523.284 3.715.62 1.222.346 2.352 1.248 3.657 1.295 1.986.072 1.69-2.519.845-3.18" class="cls-9" transform="translate(-2127.006 5512.006)"/>
                <path id="패스_808" d="M1020.761 791.622q1.82-1.858 3.681-3.672c2.254-2.2 4.613-4.311 6.9-6.491a269.551 269.551 0 0 1-22.94-20.254q-3.335-3.3-6.554-6.722a.123.123 0 0 0-.193.01l-3.844 4.88a.108.108 0 0 0 .015.158.123.123 0 0 0 .012.11q9.028 14.162 19.314 27.42 1.784 2.3 3.61 4.56" class="cls-21" transform="translate(-2123.449 5181.206)"/>
                <path id="패스_809" d="M689.646 784.568a43.353 43.353 0 0 0 3.483-3.436 315.213 315.213 0 0 1-23.692-22.375q-3.229-3.491-6.341-7.088a.123.123 0 0 0-.192 0l-3.95 4.548a.107.107 0 0 0 .01.156.122.122 0 0 0 .009.109c3.448 5.851 11.183 18.168 16.324 25.737 3.6 5.3 9.087 6 14.349 2.353" class="cls-21" transform="translate(-1847.535 5183.503)"/>
                <path id="패스_810" d="M594.776 746.534c-.037-.151-.08-.3-.128-.438v-.006a5.417 5.417 0 0 0-.437-.973 6.547 6.547 0 0 0-5.284-3.117.168.168 0 0 0-.03 0h-.039a15.367 15.367 0 0 0-4.776.825q-.635.167-1.278.282a19.157 19.157 0 0 1-4.025.3c-.212-.005-.422-.013-.632-.024-1.741-.084-3.468-.329-5.19-.583l-.3-.045a.1.1 0 0 0-.125.095l-.033.3a5.168 5.168 0 0 0 .461 3.392.235.235 0 0 0 .033.008l.148.031h.015c1.495.306 11.172 2.163 15.847 2.847 1.33.193 2.411.344 3.069.422.309.037.766.184 1.057.013.2-.121.284-.392.379-.595q.605-1.31 1.213-2.619a.091.091 0 0 0 .056-.11" class="cls-21" transform="translate(-1777.096 5191.352)"/>
                <path id="패스_811" d="M541.839 707.471c-.08-.182-.344-.277-.5-.368l-.292-.171-.312-.182-.167-.1-1.776-1.042a15.127 15.127 0 0 1-1.482-.9 3.083 3.083 0 0 1-1.014-1.553c-.216-.6-.4-1.219-.552-1.839a9.479 9.479 0 0 0-.5-1.69 7.079 7.079 0 0 0-.813-1.278 1.325 1.325 0 0 0-.882-.626c-1.014-.087-.68 1.139-.513 1.692a21.778 21.778 0 0 1 .754 3.661c.069.587.089 1.176.136 1.763a1.734 1.734 0 0 0 .468 1.189 7.915 7.915 0 0 0 1.419.921c.548.333 1.1.658 1.642 1a17.056 17.056 0 0 1 2.937 2.238c.076.074.152.15.227.23l.059.061a.086.086 0 0 0 .1.022.076.076 0 0 0 .033-.019.1.1 0 0 0 .015-.015c.017.013.035.024.05.037a.083.083 0 0 1 .02.017.1.1 0 0 0 .074.013.091.091 0 0 0 .069-.056c.182-.626.368-1.252.552-1.876.089-.3.39-.821.253-1.133" class="cls-21" transform="translate(-1744.874 5227.391)"/>
                <path id="패스_812" d="M610.663 741.111a5.158 5.158 0 0 0-.437-.8 4.188 4.188 0 0 0-.338-.452l-.03-.033a4.951 4.951 0 0 0-1.553-1.226 5.8 5.8 0 0 0-2.054-.55.17.17 0 0 0-.03 0 12.033 12.033 0 0 0-1.44-.035c-1.321.037-2.629.151-3.951.058a36.053 36.053 0 0 1-4.3-.626c-.7-.136-2.664-.817-2.833.416-.119.873.972 1.3 1.77 1.566.189.065.362.121.5.171a18 18 0 0 1 3.361 2.265q.429.281.886.522a10.73 10.73 0 0 0 2.431.929 10.879 10.879 0 0 0 1.928.3 5.323 5.323 0 0 0 1.856-.076 1.093 1.093 0 0 0 .3-.149 1.678 1.678 0 0 0 .23-.2c.054-.058.11-.117.163-.18a8.793 8.793 0 0 1 .972-.96 20.48 20.48 0 0 1 2.032-1.46.064.064 0 0 0 .032-.046.044.044 0 0 0 .022 0 4.921 4.921 0 0 1 .335.635c.041.095.186.028.147-.067" class="cls-21" transform="translate(-1794.421 5195.296)"/>
                <path id="패스_813" d="M999.844 624.184c-.16-.743-.362-1.479-.594-2.2-.147-.459-.26-1.15-.76-1.365a.1.1 0 0 0-.113.015 3.116 3.116 0 0 0-.3 2.576 20.814 20.814 0 0 1-.691 9.615c-.063.206-.132.412-.2.619l-.03.024c.035-.212.065-.423.089-.637a20.044 20.044 0 0 0 .126-2.455 25.7 25.7 0 0 0-.587-6.511 10.167 10.167 0 0 0-.442-1.306c-.134-.321-.318-.969-.7-1.088-.685-.21-.756 1.181-.734 1.554.069 1.1.383 2.185.491 3.284a23.341 23.341 0 0 1 .08 3.4 22.859 22.859 0 0 1-.4 3.241 23.323 23.323 0 0 1-.607 2.409c-.076.048-.153.1-.229.143a22.013 22.013 0 0 0 .074-2.5 46.529 46.529 0 0 0-1.119-8.045c-.076-.37-.2-1.679-.912-1.365-.671.292-.362 1.655-.316 2.162.115 1.232.308 2.456.36 3.693a20.457 20.457 0 0 1-.2 3.722c0 .03-.009.06-.013.089a38.043 38.043 0 0 1-1.191 5.177 4.508 4.508 0 0 0-.2.5c-.169.517-.325 1.038-.472 1.562-.362 1.276-.678 2.571-1.029 3.845-.394 1.43-1.172 3.184-.446 4.625a8.9 8.9 0 0 0 1.69 2.03l.017.017c.31.319.626.632.945.94q.379.362.763.719a.092.092 0 0 0 .13.121c.139.128.277.26.416.388.089.08.221-.052.132-.132-.137-.124-.277-.249-.414-.375.9-.812 2.039-1.614 2.387-2.811.284-.981.507-1.986.728-2.989 0-.018.009-.039.013-.057.115-.522.228-1.046.351-1.564l1.25-5.322q.4-1.686.793-3.374c.509-1.25 1.011-2.517 1.412-3.811a17.922 17.922 0 0 0 .823-4.194 16.137 16.137 0 0 0-.366-4.367" class="cls-21" transform="translate(-2115.87 5290.182)"/>
                <path id="패스_814" d="M228.386 1604.72c-1.316-.319-2.609-.758-3.909-1.164-3.071 5.681-7.111 12.073-11.849 16.466-2.821 2.615-14.127 10.476-14.824 11.04a2.916 2.916 0 0 0-1.192 1.7 1.449 1.449 0 0 0 .845 1.449 17.3 17.3 0 0 0 2.447.952 12.311 12.311 0 0 0 4.584.921 12.528 12.528 0 0 0 8.266-3.116 25.685 25.685 0 0 1 4.484-3.117c1.632-.917 3.314-1.747 4.908-2.73 2.6-1.6 4.66-2.89 5.621-5.889.6-1.866.3-4.843.621-6.757.31-1.871 3.173-7 3.472-7.906.1-.314.22-.632.311-.954q-1.9-.436-3.785-.892" class="cls-23" transform="translate(-1471.089 4489.818)"/>
                <path id="패스_815" d="M837.425 1595.341a8.634 8.634 0 0 0-3.089-2.34 24.427 24.427 0 0 1-3.945-2.751c-.115-.1-1.685-3.015-2.471-4.306q-.54-.888-1.126-1.748c-.2-.3-.409-.593-.62-.886a2.553 2.553 0 0 0-.479-.635l-.056-.033a.281.281 0 0 0-.212-.015 3.841 3.841 0 0 0-.893.53l-2.058 1.241-4.592 2.767a.5.5 0 0 0-.108.1c-.041.05-.069.111-.041.154 1.724 2.576 6.866 8.517 7.358 9.187a5.037 5.037 0 0 1 1.055 2.392 7.719 7.719 0 0 1-.268 2.638 28.188 28.188 0 0 1-1.722 4.91 9.749 9.749 0 0 1-2.628 3.672c-2.023 1.668-4.584 2.471-6.819 3.793a12.979 12.979 0 0 0-1.49 1.018c-.41.327-1.024.75-1.174 1.282a1.092 1.092 0 0 0 .574 1.183 2.213 2.213 0 0 0 1.811.024 21.226 21.226 0 0 1 4.577-.789 15.282 15.282 0 0 0 4.291-.76c2.723-1.046 4.246-3.678 5.864-5.933a44.386 44.386 0 0 1 3.219-4.064c1.061-1.165 2.268-2.181 3.349-3.323 1.757-1.861 3.377-4.872 1.692-7.307" class="cls-23" transform="translate(-1972.189 4506.871)"/>
                <path id="패스_816" d="M1004.4 519.163a10.864 10.864 0 0 1-.782-1.22 2.5 2.5 0 0 1-.124-.32 1.446 1.446 0 0 1 0-.973c.108-.267.366-.5.44-.775.085-.334-.1-.567-.4-.777a3.494 3.494 0 0 1-1.328-1.373 2.249 2.249 0 0 1-.193-.808 2.605 2.605 0 0 0-.022-.578.616.616 0 0 0-.483-.42 1.363 1.363 0 0 0-.273-.035 7.623 7.623 0 0 0-1.023.048c-.355.037-.71.085-1.053.113-.819.069-1.635.138-2.454.2l-9.375.782-2.679.223c-.05 0-.1.008-.15.013q-.6.048-1.187.1a4.962 4.962 0 0 0-.735.05.519.519 0 0 0-.091.03c-.4.184-.556.912-.71 1.241a2.9 2.9 0 0 0-.472 1.681c.08.442.3.823.325 1.237a1.223 1.223 0 0 1-.1.568 4.058 4.058 0 0 1-1.481 1.529c-.017.013-.035.026-.056.039-1.226.864-3.853 2.537-3.962 2.619 1.083-.576 2.138-1.189 3.154-1.845a14.036 14.036 0 0 0 1.677-1.18.131.131 0 0 0 .124.013.882.882 0 0 0 .255-.182 1.071 1.071 0 0 0 .44.593 3.883 3.883 0 0 1 .513.435 1.651 1.651 0 0 1 .286.979 7.261 7.261 0 0 0 1.454 2.682c.565.918.711 1.984 1.525 2.8a5.5 5.5 0 0 0 2.783 1.362 12.1 12.1 0 0 0 4 0c1.358-.182 2.716-.427 4.04-.737a16.99 16.99 0 0 0 6.7-2.877c1.728-1.376 2.619-3.39 1.416-5.235" class="cls-8" transform="translate(-2105.739 5378.711)"/>
                <path id="패스_817" d="M803.621 846.876a49.525 49.525 0 0 0-10.81.246c-.88.087-1.759.176-2.639.256a6.817 6.817 0 0 1-2.784.008c-.685-.245-1.343-.511-2.044-.72a6.2 6.2 0 0 1-1.644-.693l-.1.029c-.361.111.327-.765-.046-.711a4.682 4.682 0 0 1-2.641 1.5.094.094 0 0 0-.09.118c1.116 5.531.393 11.181.271 16.766a.094.094 0 0 0 .139.08c1.872-1.081 4.158.148 6.062-.826a4.317 4.317 0 0 0 1.029-.856 2.646 2.646 0 0 1 1.539-.724 6.336 6.336 0 0 0 2.635-.558 5.079 5.079 0 0 0 1.411-2.121 6.333 6.333 0 0 1 2.24-2.074 5.4 5.4 0 0 0 1.787-1.97c.223-.421.418-.857.671-1.261a4.278 4.278 0 0 1 1.369-1.318 8.316 8.316 0 0 0 3.734-5.051.1.1 0 0 0-.09-.118" class="cls-8" transform="translate(-1946.789 5107.233)"/>
                <path id="패스_818" d="M1126.108 745.82l-.033-.216-1.176-7.683-.238-1.549c-.011-.084-.132-.086-.169-.022-.249.407-.494.817-.736 1.228a102.585 102.585 0 0 0-5.106 9.8q-.739 1.628-1.417 3.279-.469 1.131-.912 2.274c-.34.873-.68 1.75-1.046 2.615a29.043 29.043 0 0 1-1.349 2.823c-.52.94-1.156 1.777-1.761 2.66a4.058 4.058 0 0 0-.725 1.547q-.342.326-.687.648-4.876 4.595-9.95 8.972l-.166.143a.1.1 0 0 0-.007.122.021.021 0 0 0 .007.009c1.308 1.125 1.614 2.864 2.313 4.376a6.609 6.609 0 0 0 .518.938 10.14 10.14 0 0 0 1.516 1.613 8.335 8.335 0 0 1 .8.847c.165.206.316.425.461.647a12.728 12.728 0 0 0 1.2 1.722 2.613 2.613 0 0 0 1.471.845 3.417 3.417 0 0 0 .988.034 6.985 6.985 0 0 1 1.887-.058c.615.1 1.2.319 1.813.444a3.66 3.66 0 0 0 2.868-.613c.152-.095.3-.191.455-.282a5.84 5.84 0 0 1 1.116-.552c.6-.21 1.226-.329 1.811-.579a5.641 5.641 0 0 0 3-3.08 6.41 6.41 0 0 0 .425-1.546c.184-1.248.145-2.519.41-3.758.269-1.263.754-2.472 1.009-3.741a18.435 18.435 0 0 0 .193-4.1c-.006-.19-.009-.381-.011-.57-.005-.268-.009-.537-.005-.8a12.559 12.559 0 0 1 .236-2.539c0-.015.005-.028.009-.043l.061-.284c.1-.453.212-.9.3-1.36a8.773 8.773 0 0 0 .214-2.025c-.017-.535-.08-1.068-.141-1.6-.033-.277-.065-.554-.089-.83a8.82 8.82 0 0 1-.032-1.417 4.821 4.821 0 0 1 .1-.674 8.222 8.222 0 0 1 .271-.931 10.057 10.057 0 0 0 .695-2.469 18.278 18.278 0 0 0-.384-4.261" class="cls-8" transform="translate(-2207.177 5195.973)"/>
                <path id="패스_819" d="M924.522 635.137a70.091 70.091 0 0 1-4.187 8.344c-1.351 2.289-3.021 4.525-3.613 7.165-.641 2.861.051 5.774.289 8.639a65.677 65.677 0 0 1-.18 9.941c-.016.238.355.237.372 0a69.749 69.749 0 0 0 .221-9.39c-.2-3-1.025-6.1-.343-9.091.619-2.717 2.371-5.009 3.751-7.375a70.18 70.18 0 0 0 4.012-8.045c.092-.218-.228-.407-.321-.188" class="cls-14" transform="translate(-2057.23 5278.429)"/>
                <path id="패스_820" d="M1141.262 680.449c-1.628 5.447-1.268 11.171-1.033 16.777l.762 18.148c.01.238.382.24.372 0l-.746-17.778c-.239-5.691-.65-11.516 1-17.049a.186.186 0 0 0-.358-.1" class="cls-14" transform="translate(-2239.268 5241.56)"/>
                <path id="패스_821" d="M1083.761 544.384a18.066 18.066 0 0 1-7.078 1.571.186.186 0 0 0 0 .371 18.534 18.534 0 0 0 7.265-1.621c.219-.1.029-.418-.187-.321" class="cls-14" transform="translate(-2187.547 5352.259)"/>
                <path id="패스_822" d="M921.846 368.032a4.905 4.905 0 0 1-3.317 1.766c-.236.023-.238.4 0 .372a5.28 5.28 0 0 0 3.58-1.874c.153-.182-.109-.446-.263-.263" class="cls-24" transform="translate(-2058.773 5495.889)"/>
                <path id="패스_823" d="M1110.5 356.287a.186.186 0 0 0-.187.321 5.77 5.77 0 0 1 2.112 8.092.186.186 0 0 0 .321.187 6.147 6.147 0 0 0-2.246-8.6" class="cls-24" transform="translate(-2214.999 5505.423)"/>
                <path id="패스_824" d="M1133.1 385.883c-.034-.236-.391-.135-.358.1a3.51 3.51 0 0 1-.8 2.776c-.153.182.109.446.263.263a3.92 3.92 0 0 0 .893-3.137" class="cls-24" transform="translate(-2232.654 5481.414)"/>
                <path id="패스_825" d="M1042.816 252.98c-2.621-1.768-5.745-.7-8.241.742a.186.186 0 0 0 .188.321c2.383-1.376 5.354-2.437 7.866-.742.2.134.385-.188.188-.321" class="cls-24" transform="translate(-2153.334 5590.27)"/>
                <path id="패스_826" d="M657.351 1185.55a19.8 19.8 0 0 0-5.481 6.861c-1.469 3.057-1.621 6.413-2.738 9.57a16.03 16.03 0 0 1-2.621 4.7c-1.035 1.284-2.305 2.356-3.327 3.651-1.974 2.5-2.926 5.6-3.83 8.613a.186.186 0 0 0 .358.1c.964-3.209 1.991-6.5 4.246-9.061.993-1.129 2.118-2.13 3.04-3.323a16.512 16.512 0 0 0 2.271-3.99c1.248-3.136 1.335-6.574 2.736-9.671a19.531 19.531 0 0 1 5.609-7.185c.187-.15-.078-.411-.263-.263" class="cls-11" transform="translate(-1831.593 4830.213)"/>
                <path id="패스_827" d="M591.489 951.27c-.251 2.759-.5 5.561-.936 8.325-4.6-.714-9.33-3.577-9.675-8.672-.016-.237-.388-.239-.372 0 .357 5.271 5.195 8.305 9.987 9.037a36.888 36.888 0 0 1-2.905 9.951c-2.369 5-6.355 9.344-11.795 10.909-6.18 1.778-12.746.115-18.824-1.287l-9.9-2.285c-3.277-.756-6.553-1.6-9.887-2.071a24.323 24.323 0 0 0-15.439 2.615 35.059 35.059 0 0 0-11.091 10.089c-7.242 9.822-10 22.071-15.555 32.79-5.181 9.989-12.326 19.29-14.9 30.431a38.161 38.161 0 0 0-.692 3.966c-.029.237.343.235.372 0 1.429-11.675 8.531-21.449 14.078-31.476a143.2 143.2 0 0 0 7.476-16.5c2.278-5.718 4.592-11.5 7.941-16.7a37.222 37.222 0 0 1 11.128-11.44 23.991 23.991 0 0 1 16.425-3.437c3.386.461 6.712 1.324 10.038 2.091l10.084 2.327c5.7 1.315 11.744 2.8 17.593 1.556a18.733 18.733 0 0 0 11.918-8.9c3.056-4.971 4.177-10.795 4.825-16.516.181-1.6.327-3.2.472-4.8.022-.238-.35-.236-.371 0" class="cls-1" transform="translate(-1701.438 5021.368)"/>
                <path id="패스_828" d="M715.032 1120.31l-4.066-4.847c-.154-.183-.415.081-.263.263l4.066 4.847c.154.183.415-.081.263-.262" class="cls-11" transform="translate(-1889.659 4887.296)"/>
                <path id="패스_829" d="M708.19 1142.023a20.278 20.278 0 0 0-3.874-4.022c-.186-.146-.451.115-.263.263a19.934 19.934 0 0 1 3.816 3.947c.139.191.462.006.321-.188" class="cls-11" transform="translate(-1884.229 4868.929)"/>
                <path id="패스_830" d="M1169.838 885.444a7.326 7.326 0 0 0-2.615-3.49.186.186 0 0 0-.188.321 7.071 7.071 0 0 1 2.482 3.357 14.681 14.681 0 0 1 1.173 4.27c.029.234.4.237.371 0a15.233 15.233 0 0 0-1.224-4.458" class="cls-14" transform="translate(-2261.189 5077.402)"/>
                <path id="패스_831" d="M1183.27 891.459a13.168 13.168 0 0 0-2.477-3.913c-.162-.177-.424.086-.263.263a12.642 12.642 0 0 1 2.382 3.749c.09.218.449.123.358-.1" class="cls-14" transform="translate(-2272.209 5072.875)"/>
                <path id="패스_832" d="M1178.443 880.328c-5.019 2.452-9.087 6.368-12.565 10.688-3.492 4.337-6.884 9.033-8.771 14.308-.951 2.658-1.679 5.393-2.751 8.008a59.788 59.788 0 0 1-3.552 7.084c-4.243 7.384-9.938 15.258-10.924 23.884q-.151-.094-.3-.195a34.79 34.79 0 0 1 3.134-10.265c2.417-5.194 5.727-9.9 8.5-14.9a51.015 51.015 0 0 0 3.671-8.064c.927-2.692 1.668-5.452 2.82-8.062a44.156 44.156 0 0 1 4.422-7.388c1.466-2.091 3-4.14 4.659-6.083a36.485 36.485 0 0 1 11.365-9.286c.1.087.2.176.3.269" class="cls-6" transform="translate(-2238.908 5078.922)"/>
                <path id="패스_833" d="M854.287 1608.22c-.257-.367-.51-.738-.771-1.1-.085-.12-.174-.3-.341-.3-.34 0-.3.29-.162.609a37.049 37.049 0 0 0 2.251 3.435 11.7 11.7 0 0 0 2.3 2.539.178.178 0 0 0 .2-.263c-1.026-1.743-2.324-3.261-3.482-4.919" class="cls-14" transform="translate(-2005.489 4487.161)"/>
                <path id="패스_834" d="M865.313 1601.22c-.257-.368-.51-.738-.771-1.1-.085-.12-.174-.3-.341-.3-.339 0-.3.29-.162.609a37.049 37.049 0 0 0 2.251 3.435 11.7 11.7 0 0 0 2.3 2.538.178.178 0 0 0 .2-.263c-1.026-1.743-2.324-3.261-3.482-4.919" class="cls-14" transform="translate(-2014.467 4492.86)"/>
                <path id="패스_835" d="M880.945 1596.1c-1.026-1.743-2.324-3.261-3.482-4.919-.257-.368-.51-.738-.771-1.1-.085-.119-.174-.3-.341-.3-.34 0-.3.29-.162.609a37.166 37.166 0 0 0 2.251 3.435 11.7 11.7 0 0 0 2.3 2.539.178.178 0 0 0 .2-.263" class="cls-14" transform="translate(-2024.36 4501.037)"/>
                <path id="패스_836" d="M336.523 1609.811c.054-.136.156-.307.066-.448-.183-.286-.407-.1-.6.193a37.185 37.185 0 0 0-1.673 3.75 11.706 11.706 0 0 0-.891 3.309.178.178 0 0 0 .331.028c.912-1.805 1.488-3.718 2.257-5.588.17-.415.345-.828.512-1.245" class="cls-14" transform="translate(-1582.491 4485.205)"/>
                <path id="패스_837" d="M348.438 1614.857c-.182-.286-.407-.1-.6.193a37.181 37.181 0 0 0-1.673 3.75 11.7 11.7 0 0 0-.892 3.309.178.178 0 0 0 .331.028c.912-1.8 1.488-3.717 2.257-5.588.171-.415.345-.828.512-1.245.054-.136.155-.307.066-.447" class="cls-14" transform="translate(-1592.138 4480.731)"/>
                <path id="패스_838" d="M363.454 1619.653c-.182-.286-.407-.1-.6.193a37.107 37.107 0 0 0-1.673 3.75 11.7 11.7 0 0 0-.892 3.309.178.178 0 0 0 .331.028c.912-1.805 1.488-3.718 2.257-5.588.171-.415.345-.828.512-1.245.054-.136.155-.307.066-.447" class="cls-14" transform="translate(-1604.365 4476.826)"/>
                <path id="패스_839" d="M910.4 985.211a26.483 26.483 0 0 0-7.323-3.253.186.186 0 0 0-.1.358 26.136 26.136 0 0 1 7.234 3.215c.2.129.388-.192.188-.321" class="cls-1" transform="translate(-2046.153 4995.958)"/>
                <path id="패스_840" d="M1077.635 398.253a2.689 2.689 0 0 0-.134-.621c-.165-.494-.475-1.014-.919-1.1a.633.633 0 0 0-.5.143 1.486 1.486 0 0 0-.184.162c-.382.386-.707 1.024-.977 1.265a1.988 1.988 0 0 0-.457.713 2.662 2.662 0 0 1-.673 1.126c-.033.026-.072.054-.117.087-.325.24-.9.648-1 .953-.163.468-.19.628.286.758a1.335 1.335 0 0 0 .964-.191 5.115 5.115 0 0 0 .942-.691 2.267 2.267 0 0 0 1.035-.122 2.771 2.771 0 0 0 .715-.381 2.508 2.508 0 0 0 .983-1.514 2.166 2.166 0 0 0 .037-.591" class="cls-7" transform="translate(-2184.342 5472.638)"/>
                <path id="패스_841" d="M1081.724 390.514c-.451-.451-1.122.116-1.458.454-.812.819-1.018 2.647-2.435 2.622-.239 0-.225.367.013.371a1.87 1.87 0 0 0 1.584-.925c.22-.32 1.4-2.888 2.043-2.249.169.169.422-.1.253-.272" class="cls-22" transform="translate(-2188.488 5477.669)"/>
                <path id="패스_842" d="M187.683 580.864a5.926 5.926 0 0 0-2.388-.206c-.122.32-.255.636-.388.951-.494 1.167-1.038 2.311-1.473 3.5a60.954 60.954 0 0 0-1.843 6.284 16.365 16.365 0 0 0 2.372-.156 1.694 1.694 0 0 0 1-.587 2.477 2.477 0 0 0 .323-.851l.318-1.041q.671-2.215 1.346-4.428c.229-.753.462-1.5.686-2.255.132-.443.272-.926.048-1.211" class="cls-8" transform="translate(-1458.869 5322.714)"/>
                <path id="패스_843" d="M187.083 580.256q-1.77 5.352-3.2 10.8l-.19-.011q1.429-5.444 3.2-10.794h.2" class="cls-14" transform="translate(-1460.578 5323.038)"/>
            </g>
        </g>
    </g>
</svg>
