<svg xmlns="http://www.w3.org/2000/svg" width="225.996" height="33.325" viewBox="0 0 225.996 33.325">
    <defs>
        <style>
            .cls-1{fill:#ffc2c2}
        </style>
    </defs>
    <g id="그룹_3452" transform="translate(-9.483 -9.251)">
        <path id="패스_3150" d="M21.138 40.128l4.349-7.721h8.019a18.769 18.769 0 0 1 1.966.089q-.488-.808-1.131-2.042t-1.235-2.312L28.931 20.2 18.006 40.128H9.483l14.925-27.16a9.532 9.532 0 0 1 1.844-2.334 4.353 4.353 0 0 1 5.549-.067 8.465 8.465 0 0 1 1.862 2.4L48.2 40.128z" class="cls-1" transform="translate(0 -0.246)"/>
        <path id="패스_3151" d="M150.036 20.029a13.964 13.964 0 0 0-2.906-4.669 12.991 12.991 0 0 0-4.435-3.032 14.472 14.472 0 0 0-5.638-1.077h-10.993l-4.591 7.811h15.583a6.56 6.56 0 0 1 2.714.563 7.08 7.08 0 0 1 2.194 1.526 6.776 6.776 0 0 1 1.46 2.31 8.5 8.5 0 0 1 0 5.86A6.827 6.827 0 0 1 142 31.587a6.223 6.223 0 0 1-2.173 1.46 7.28 7.28 0 0 1-2.768.515h-8.349v-11h-7.237v2.059l8.921 16.661h6.662a13.4 13.4 0 0 0 10.038-4.375 14.991 14.991 0 0 0 2.924-4.848 17.09 17.09 0 0 0 1.059-6.084 16.472 16.472 0 0 0-1.041-5.946z" class="cls-1" transform="translate(-78.474 -1.402)"/>
        <path id="패스_3152" d="M247.392 17.94a9.807 9.807 0 0 0-2.227-3.546 10.153 10.153 0 0 0-3.582-2.311 13.205 13.205 0 0 0-4.837-.832h-14.61l-3.555 5.824-1.212 1.987h20.04a3.512 3.512 0 0 1 2.592.922 3.366 3.366 0 0 1 .922 2.49 3.223 3.223 0 0 1-3.514 3.456h-16.743v.045a20.107 20.107 0 0 1-1.251 7.141 18.758 18.758 0 0 1-2.047 3.953v4.214h7.168v-7.676h12.174a13.525 13.525 0 0 0 4.836-.808 10.382 10.382 0 0 0 3.6-2.245 9.3 9.3 0 0 0 2.245-3.478 12.867 12.867 0 0 0 .766-4.558 13.049 13.049 0 0 0-.765-4.578z" class="cls-1" transform="translate(-145.669 -1.402)"/>
        <path id="패스_3153" d="M340.714 11.251v16.924a8.808 8.808 0 0 1-.365 2.694 4 4 0 0 1-1.2 1.841 5.067 5.067 0 0 1-2.227 1.033 16.16 16.16 0 0 1-3.481.314 28.365 28.365 0 0 1-4.522-.29 6.362 6.362 0 0 1-2.7-.988 3.476 3.476 0 0 1-1.3-1.82 9.58 9.58 0 0 1-.347-2.783V11.251H317.4v1.706a12.96 12.96 0 0 1 2.3 3.943 16.131 16.131 0 0 1 .952 5.617 15.912 15.912 0 0 1-.955 5.605 12.465 12.465 0 0 1-2.011 3.537 14.519 14.519 0 0 0 .643 2.463 10.074 10.074 0 0 0 2.888 4.241 12.79 12.79 0 0 0 4.992 2.559 26.938 26.938 0 0 0 7.236.853q14.509 0 14.509-13.6V11.251z" class="cls-1" transform="translate(-215.766 -1.402)"/>
        <path id="패스_3154" d="M443.906 13.731a5.965 5.965 0 0 0-1.583-3.118 3.537 3.537 0 0 0-2.454-1.013 3.4 3.4 0 0 0-2.383.877 6.7 6.7 0 0 0-1.583 2.31l-3.723 8.529q-.767 1.751-1.34 3.053t-1.009 2.358q-.435 1.055-.763 1.885t-.611 1.637l-.643-1.661c-.221-.569-.476-1.2-.766-1.885s-.626-1.472-1.009-2.355-.829-1.909-1.338-3.077l-3.723-8.485a6.435 6.435 0 0 0-1.583-2.334 3.406 3.406 0 0 0-2.35-.853 3.593 3.593 0 0 0-2.469 1.012 5.89 5.89 0 0 0-1.6 3.118l-.248 1.09v12.2c0 5.881-1.876 10.31-5.444 13.108h6.736l2.191-10.46q.521-2.559.9-4.51t.662-3.75q.278.763.575 1.571c.2.539.428 1.131.7 1.775s.559 1.368.886 2.176.694 1.721 1.114 2.738l3.13 7.587a8.69 8.69 0 0 0 .922 1.775 4.533 4.533 0 0 0 .958 1.009 2.613 2.613 0 0 0 1.044.473 6.737 6.737 0 0 0 2.433 0 2.614 2.614 0 0 0 1.044-.473 4.533 4.533 0 0 0 .958-1.009 8.679 8.679 0 0 0 .921-1.775l3.131-7.542q1.185-2.918 1.915-4.825t1.32-3.48q.278 1.841.661 3.771t.94 4.489l2.191 10.46h7.167z" class="cls-1" transform="translate(-278.747 -0.246)"/>
        <path id="패스_3155" d="M565.852 31.363q-2.262-2.379-3.69-3.726t-2.433-2.245q.557-.449 1.128-.943t1.272-1.122q.7-.628 1.583-1.481t2.035-1.975l8.906-8.619h-10.438l-6.715 7.316q-1.6 1.706-2.592 2.9t-1.688 2q.067-1.167.1-2.514t.033-2.738v-6.965h-7.237v14.691l3.415 15.341h3.822v-8.619q0-1.077-.033-2.176t-.072-2.134q.593.763 1.55 1.885t2.765 3.142l7.027 7.9h10.891z" class="cls-1" transform="translate(-376.035 -1.402)"/>
        <path id="패스_3156" d="M646.881 20.251l-6.387 6.18v16.553l7.09 7.3h.11V20.251z" class="cls-1" transform="translate(-442.163 -7.708)"/>
        <path id="패스_3157" d="M646.881 9.251l-6.387 6.18v-6.18z" class="cls-1" transform="translate(-442.163)"/>
        <path id="패스_3158" d="M695.894 40.622a3.457 3.457 0 0 1-1.374-.291 4.4 4.4 0 0 1-1.514-1.325l-14.264-16.52v17.642H672.2V15.213a8.755 8.755 0 0 1 .331-2.559 5.211 5.211 0 0 1 .87-1.751 3.314 3.314 0 0 1 1.252-.988 3.635 3.635 0 0 1 1.479-.315 3.377 3.377 0 0 1 1.34.292 4.692 4.692 0 0 1 1.548 1.324l14.264 16.52V10.1h6.575v24.87a8.8 8.8 0 0 1-.33 2.559 5.531 5.531 0 0 1-.87 1.773 3.2 3.2 0 0 1-1.27 1.01 3.763 3.763 0 0 1-1.495.31z" class="cls-1" transform="translate(-464.381 -0.246)"/>
    </g>
</svg>
