<svg xmlns="http://www.w3.org/2000/svg" id="info" width="18.031" height="18.031" viewBox="0 0 18.031 18.031">
    <defs>
        <style>
            .cls-1{fill:#110101}
        </style>
    </defs>
    <g id="그룹_310">
        <g id="그룹_309">
            <path id="패스_198" d="M15.39 2.641A9.015 9.015 0 1 0 2.641 15.39 9.015 9.015 0 1 0 15.39 2.641zM9.015 17.312a8.3 8.3 0 1 1 8.3-8.3 8.306 8.306 0 0 1-8.3 8.3z" class="cls-1"/>
        </g>
    </g>
    <g id="그룹_312" transform="translate(14.785 10.488)">
        <g id="그룹_311">
            <path id="패스_199" d="M421.321 297.824a.359.359 0 0 0-.437.259 6.985 6.985 0 0 1-.991 2.2.359.359 0 1 0 .595.4 7.7 7.7 0 0 0 1.093-2.428.359.359 0 0 0-.26-.431z" class="cls-1" transform="translate(-419.831 -297.812)"/>
        </g>
    </g>
    <g id="그룹_314" transform="translate(16.048 8.656)">
        <g id="그룹_313">
            <path id="패스_200" d="M456.073 245.8a.359.359 0 0 0-.359.359c0 .1 0 .206-.007.308a.359.359 0 0 0 .343.374h.016a.359.359 0 0 0 .359-.344c0-.112.007-.226.007-.339a.359.359 0 0 0-.359-.358z" class="cls-1" transform="translate(-455.707 -245.801)"/>
        </g>
    </g>
    <g id="그룹_316" transform="translate(7.758 6.088)">
        <g id="그룹_315">
            <path id="패스_201" d="M221.56 172.877a1.259 1.259 0 0 0-1.257 1.257v6.25a1.257 1.257 0 0 0 2.514 0v-6.25a1.259 1.259 0 0 0-1.257-1.257zm.539 7.507a.539.539 0 1 1-1.078 0v-6.25a.539.539 0 1 1 1.078 0z" class="cls-1" transform="translate(-220.303 -172.877)"/>
        </g>
    </g>
    <g id="그룹_318" transform="translate(7.758 3.179)">
        <g id="그룹_317">
            <path id="패스_202" d="M222.449 90.631a1.257 1.257 0 1 0 .368.889 1.267 1.267 0 0 0-.368-.889zm-.507 1.27a.539.539 0 1 1 .157-.381.544.544 0 0 1-.158.38z" class="cls-1" transform="translate(-220.303 -90.263)"/>
        </g>
    </g>
</svg>
