<svg xmlns="http://www.w3.org/2000/svg" id="popular" width="17.996" height="17.996" viewBox="0 0 17.996 17.996">
    <defs>
        <style>
            .cls-1{fill:#110101}
        </style>
    </defs>
    <path id="패스_207" d="M9 0a9 9 0 1 0 9 9 9 9 0 0 0-9-9zm0 17.416A8.418 8.418 0 1 1 17.416 9 8.418 8.418 0 0 1 9 17.416zm0 0" class="cls-1"/>
    <path id="패스_208" d="M47.547 40a7.547 7.547 0 1 0 7.547 7.547A7.547 7.547 0 0 0 47.547 40zm0 14.513a6.966 6.966 0 1 1 6.966-6.966 6.966 6.966 0 0 1-6.966 6.966zm0 0" class="cls-1" transform="translate(-38.549 -38.549)"/>
    <path id="패스_211" d="M126.109 113.83h-3.2l-.989-3.045a.29.29 0 0 0-.552 0l-.99 3.045h-3.2a.29.29 0 0 0-.171.525l2.59 1.882-.989 3.045a.29.29 0 0 0 .447.325l2.59-1.882 2.59 1.882a.29.29 0 0 0 .447-.324l-.989-3.045 2.59-1.882a.29.29 0 0 0-.171-.525zm-2.932 2.061a.29.29 0 0 0-.105.324l.778 2.4-2.038-1.48a.29.29 0 0 0-.341 0l-2.038 1.48.778-2.4a.29.29 0 0 0-.105-.324l-2.038-1.48h2.519a.29.29 0 0 0 .276-.2l.779-2.4.779 2.4a.29.29 0 0 0 .276.2h2.519zm0 0" class="cls-1" transform="translate(-112.644 -106.574)"/>
</svg>
