<svg xmlns="http://www.w3.org/2000/svg" id="log-out" width="18.232" height="18.232" viewBox="0 0 18.232 18.232">
    <defs>
        <style>
            .cls-1{fill:#110101}
        </style>
    </defs>
    <g id="그룹_563" transform="translate(6.837 9.876)">
        <path id="패스_846" d="M12.419 19.077H9.38a.38.38 0 1 1 0-.76h3.039a1.141 1.141 0 0 0 1.14-1.14v-3.8a.38.38 0 0 1 .76 0v3.8a1.9 1.9 0 0 1-1.9 1.9z" class="cls-1" transform="translate(-9 -13)"/>
    </g>
    <g id="그룹_564" transform="translate(9.876 7.597)">
        <path id="패스_847" d="M20.977 10.76h-7.6a.38.38 0 0 1 0-.76h7.6a.38.38 0 1 1 0 .76z" class="cls-1" transform="translate(-13 -10)"/>
    </g>
    <g id="그룹_565">
        <path id="패스_848" d="M6.077 18.232a1.447 1.447 0 0 1-.485-.083l-4.55-1.516A1.518 1.518 0 0 1 0 15.194V1.519A1.521 1.521 0 0 1 1.519 0 1.421 1.421 0 0 1 2 .084L6.555 1.6A1.516 1.516 0 0 1 7.6 3.039v13.674a1.521 1.521 0 0 1-1.523 1.519zM1.519.76a.76.76 0 0 0-.76.76v13.674a.76.76 0 0 0 .523.719l4.558 1.519a.758.758 0 0 0 1-.719V3.039a.756.756 0 0 0-.523-.718L1.756.8a.7.7 0 0 0-.237-.04z" class="cls-1"/>
    </g>
    <g id="그룹_566" transform="translate(1.14)">
        <path id="패스_849" d="M12.136 6.077a.38.38 0 0 1-.38-.38V1.9a1.141 1.141 0 0 0-1.14-1.14H1.88a.38.38 0 0 1 0-.76h8.736a1.9 1.9 0 0 1 1.9 1.9v3.8a.38.38 0 0 1-.38.377z" class="cls-1" transform="translate(-1.5)"/>
    </g>
    <g id="그룹_567" transform="translate(14.434 4.559)">
        <path id="패스_850" d="M19.38 12.838a.379.379 0 0 1-.269-.648l2.77-2.77-2.77-2.77a.38.38 0 0 1 .537-.537l3.039 3.039a.38.38 0 0 1 0 .537l-3.039 3.039a.381.381 0 0 1-.268.11z" class="cls-1" transform="translate(-19 -6.002)"/>
    </g>
</svg>
