<svg xmlns="http://www.w3.org/2000/svg" width="21.534" height="21.546" viewBox="0 0 21.534 21.546">
    <path fill="#fff" d="M21.2 19.915q-2.1-2.091-4.189-4.187c-.172-.172-.171-.174-.026-.361a9.678 9.678 0 0 0 1.105-1.805 9.426 9.426 0 0 0-.181-8.462A9.464 9.464 0 0 0 8.429.049a8.978 8.978 0 0 0-3.813 1.27A9.613 9.613 0 0 0 .368 6.7 8.608 8.608 0 0 0 0 8.651v.21c.029.027.02.062.021.1v.077c0 .041.014.086-.021.122v.672c.036.036.016.083.021.126v.157c0 .033.008.068-.021.1v.168a4.16 4.16 0 0 1 .059.578A9.46 9.46 0 0 0 .5 12.7a9.287 9.287 0 0 0 1.93 3.219 9.576 9.576 0 0 0 8.429 3.017 9.426 9.426 0 0 0 4.416-1.876c.245-.186.245-.186.47.039q2.064 2.064 4.126 4.129a.91.91 0 0 0 .588.32h.341a.806.806 0 0 0 .737-.918.963.963 0 0 0-.338-.714M9.45 17.231a7.72 7.72 0 1 1 7.743-7.709 7.722 7.722 0 0 1-7.743 7.709" transform="translate(0 -.001)"/>
</svg>
