<svg xmlns="http://www.w3.org/2000/svg" width="28.918" height="24.265" viewBox="0 0 28.918 24.265">
    <defs>
        <style>
            .cls-1{fill:#f27070}
        </style>
    </defs>
    <g id="Solid" transform="translate(-24 -28.653)">
        <path id="패스_3058" d="M144.044 32.193l3.087-3.087v10.021a1.5 1.5 0 0 0 2.992 0V29.106l3.087 3.087a1.5 1.5 0 1 0 2.115-2.115l-5.641-5.641a1.5 1.5 0 0 0-2.115 0l-5.641 5.641a1.5 1.5 0 0 0 2.115 2.115z" class="cls-1" transform="rotate(180 93.543 34.638)"/>
        <path id="패스_3059" d="M51.422 232a1.5 1.5 0 0 0-1.5 1.5v11.467h-22.93V233.5a1.5 1.5 0 0 0-2.992 0v11.966a2.493 2.493 0 0 0 2.493 2.493h23.932a2.493 2.493 0 0 0 2.493-2.493V233.5a1.5 1.5 0 0 0-1.496-1.5z" class="cls-1" transform="translate(0 -195.038)"/>
    </g>
</svg>
