<svg xmlns="http://www.w3.org/2000/svg" width="1182" height="641" viewBox="0 0 1182 641">
    <defs>
        <clipPath id="clip-path">
            <path id="SVGID" d="M2811.82 402.874a30.758 30.758 0 0 0-30.758-30.758H2651a30.758 30.758 0 0 0-30.758 30.758v323.541A30.758 30.758 0 0 0 2651 757.174h130.066a30.758 30.758 0 0 0 30.758-30.758V402.874z" class="cls-1" transform="translate(-2620.238 -372.116)"/>
        </clipPath>
        <clipPath id="clip-path-2">
            <path id="교차_6" d="M30.758 111.55A30.758 30.758 0 0 1 0 80.791V.844L191.582 0v80.791a30.759 30.759 0 0 1-30.758 30.759z" class="cls-2"/>
        </clipPath>
        <clipPath id="clip-path-4">
            <path id="교차_7" d="M.292 59.444C-.971 54.146 2.04 43.965 6 33.74c2.163-5.587 6.7-9.733 7.99-20.961A37.445 37.445 0 0 0 13.409 0L72.1 7.5c.26.1-4.558 1.95-2.959 7.051.517 1.651 3.6 8.932 4.826 11.469 6.834 14.124 9.179 30.3 6.658 36.538-6.138 15.185-23.642 18.215-40.3 19.152q-2.693.152-5.236.153C16.507 81.859 4.144 75.616.292 59.444z" class="cls-2"/>
        </clipPath>
        <clipPath id="clip-path-6">
            <path id="교차_8" d="M10.555 45.262c-6.728-.458-8.648-4.316-9.7-7.979-1.19-4.157-.905-8.3-.538-12.456C.82 19.161.68 6.055 3.859 3.289a13.127 13.127 0 0 1 20.712 4.6c1.594 3.995.447 16.057-.064 20.248-.471 3.854-.464 6.608-1.807 10.3-1.216 3.341-5.024 6.86-11.055 6.859q-.533.004-1.09-.034z" class="cls-2"/>
        </clipPath>
        <clipPath id="clip-path-8">
            <path id="교차_9" d="M17.311 55.879c-4.421-.857-8.711-3.945-11.659-7.113C-1.342 41.257-.192 26.873.6 19.227c.644-6.254 5.038-13.051 9.783-16.34C17.808-2.264 28.5-.175 34.352 6.4c7.2 8.083 6.511 21.458 5.351 31.413-1.034 8.877-6.673 15.8-15.915 17.714a21.765 21.765 0 0 1-4.377.541 11.027 11.027 0 0 1-2.1-.189z" class="cls-2"/>
        </clipPath>
        <clipPath id="clip-path-10">
            <path id="교차_10" d="M1.687 11A8.054 8.054 0 0 1 .4 3.528C1.251.8 3.636-.843 6.451.45a7.039 7.039 0 0 1 2.406 1.757 12.334 12.334 0 0 1 2.123 3.946L9.132 11.8A4.416 4.416 0 0 1 6 13.007 5.677 5.677 0 0 1 1.687 11z" class="cls-2"/>
        </clipPath>
        <clipPath id="clip-path-12">
            <path id="SVGID-7" d="M3089.174 687.13a86.57 86.57 0 0 0-28.062 6.243c-1.5.586-.64 3.561-.383 4.825.551 2.708 1.159 9.416 1.587 12.146a175.75 175.75 0 0 0 4.045 19.244c4.845 19.382 11.606 16.681 33.977 16.9 4.765.046 14.625-.9 18.127-5.242 3.727-4.618 5.583-16.987 5.888-22.767.158-2.989 1.837-25.23-.078-27.152-1.365-1.369-13.172-5.706-35.1-4.2z" class="cls-1" transform="translate(-3060.249 -686.816)"/>
        </clipPath>
        <clipPath id="clip-path-13">
            <path id="SVGID-8" d="M3117.5 671.658l-.05.052c-.511.654-1.545 2.472-2.567 2.078-1.328-.51-1.846-2.517-2.963-3.375-.951-.73-1.974-.323-2.881-.9-3.4-2.161-2.078-8.1-1.89-11.228.738-12.245 5.769-22.315 8.431-33.952 1.762-7.7 1.254-15.462 2.192-23.255.63-5.231 3.086-13.784 8.834-15.723 8.579-2.895 3.353 20.186 3.137 22.5-.23 2.48-.5 4.96-.935 7.412a62.871 62.871 0 0 1-2.156 8.284c-1.075 3.318-2.247 6.6-3.339 9.916-3.82 11.591-5.814 38.187-5.814 38.187z" class="cls-1" transform="translate(-3106.736 -585.105)"/>
        </clipPath>
        <clipPath id="clip-path-14">
            <path id="SVGID-9" d="M3102.66 669.055c-2.955 2.611-5.588 1.914-5.859.067-.6-4.116-1.249-13.931-1.489-17.258-.674-9.335-4.184-17.266-6.2-26.221-2.361-10.467-1.932-22.156.4-32.553.887-3.957 4.192-21.03 9.616-21.03 7.68 0 8.545 17.633 9.1 22.818.811 7.571 1.954 15.8.742 23.391-1.457 9.126-5.324 17.651-6.572 26.863-1.03 7.611.263 23.923.263 23.923z" class="cls-1" transform="translate(-3087.537 -572.06)"/>
        </clipPath>
        <clipPath id="clip-path-15">
            <path id="SVGID-10" d="M3075.155 668.831c.013-.017-.059.064-.063.068-.543.663-6.031 4.019-7.206 1.893-3.425-6.2-.971-15.147-3.914-21.507-2.137-4.62-6.074-8.048-8.912-12.23a115.775 115.775 0 0 1-16.29-34.64c-1.485-5.518-4.8-21.085 1.887-24.516 6.8-3.489 11.109 14.553 12.163 18.273 2.632 9.285 5.481 18.592 8.75 27.671 3.18 8.829 7.3 17.638 9.675 26.719 1.222 4.676 3.909 18.268 3.909 18.268z" class="cls-1" transform="translate(-3036.625 -577.453)"/>
        </clipPath>
        <clipPath id="clip-path-16">
            <path id="SVGID-11" d="M3088.841 665.581s-4 2.867-5.106 1.309c-1.089-1.539-.472-5.907-.9-7.744a132.179 132.179 0 0 0-4.813-15.545c-1.566-4.264-4.361-9.385-5.52-13.795-2.14-8.15-1.09-15.759-1.865-24.079-.582-6.232-6.161-10.059-6.87-19.832-.672-9.282 5.235-22.564 8.8-21.6 3.941 1.067 4.792 16.323 4.982 19.447.312 5.16 2.313 11.782 2.77 16.932.827 9.326-1.181 18.231.46 27.431 1.081 6.061 3.119 13.058 4.3 19.1 1.342 6.884 2.84 12.474 3.761 18.371z" class="cls-1" transform="translate(-3063.717 -564.247)"/>
        </clipPath>
        <clipPath id="clip-path-17">
            <path id="SVGID-12" d="M2939.837 708.845c-1.02 11.482-11.99 35.477-17.93 34.144-6.423-1.441-12.156-33.275-9.794-41.74l27.725 7.6z" class="cls-1" transform="translate(-2911.57 -701.249)"/>
        </clipPath>
        <filter id="사각형_1418" width="722" height="386" x="0" y="255" filterUnits="userSpaceOnUse">
            <feOffset dy="3"/>
            <feGaussianBlur result="blur" stdDeviation="3"/>
            <feFlood flood-opacity=".102"/>
            <feComposite in2="blur" operator="in"/>
            <feComposite in="SourceGraphic"/>
        </filter>
        <style>
            .cls-1,.cls-11,.cls-2,.cls-23,.cls-31,.cls-32,.cls-52,.cls-59{fill:none}.cls-1{clip-rule:evenodd}.cls-10,.cls-12,.cls-13,.cls-14,.cls-19,.cls-22,.cls-25,.cls-27,.cls-40,.cls-50,.cls-57,.cls-60,.cls-61,.cls-69{fill-rule:evenodd}.cls-6{clip-path:url(#clip-path)}.cls-11,.cls-23,.cls-31,.cls-32,.cls-40,.cls-52,.cls-59,.cls-60{stroke-linecap:round;stroke-linejoin:round}.cls-10,.cls-78{fill:#f27070}.cls-11{stroke:#d25e5e;stroke-width:.85px}.cls-12,.cls-60{fill:#ffbdbc}.cls-13{fill:#f4f8f7}.cls-14{fill:#ffbebc}.cls-23{stroke-width:.833px}.cls-19{fill:#403642}.cls-23{stroke:#f9eded}.cls-22{fill:#ff9e9c}.cls-25{fill:#110101}.cls-27,.cls-45{fill:#fff}.cls-31{stroke:#8b5353;stroke-width:6.305px}.cls-32,.cls-40{stroke:#403641;stroke-width:1.09px}.cls-40{fill:#f3d889;stroke:#ea9a43}.cls-50{fill:#668f8d}.cls-52{stroke:#41685f;stroke-width:1.936px}.cls-57{fill:#ff7541}.cls-59,.cls-60{stroke:#ffbdbc;stroke-width:8.043px}.cls-61{fill:#ffe1ca}.cls-69{fill:#899ec1}
        </style>
    </defs>
    <g id="그룹_2928" transform="translate(-16673 15778)">
        <g id="그룹_2921" transform="translate(-3316 3672)">
            <rect id="사각형_1419" width="569" height="569" fill="#cfe1ff" rx="10" transform="translate(20602 -19450)"/>
            <g id="그룹_2914" transform="translate(18040.551 -19782.037)">
                <g id="그룹_2901" transform="translate(2619.641 372.116)">
                    <path id="패스_2933" fill="#f3e5e4" fill-rule="evenodd" d="M2811.82 402.874a30.758 30.758 0 0 0-30.758-30.758H2651a30.758 30.758 0 0 0-30.758 30.758v323.541A30.758 30.758 0 0 0 2651 757.174h130.066a30.758 30.758 0 0 0 30.758-30.758V402.874z" transform="translate(-2620.238 -372.116)"/>
                    <g id="그룹_2880">
                        <g id="그룹_2879" class="cls-6">
                            <path id="패스_2934" fill="#d9cebc" fill-rule="evenodd" d="M2614.334 838.989V720.958l202.918-.894.293 118.925z" transform="translate(-2618.975 -446.585)"/>
                        </g>
                    </g>
                    <g id="그룹_2882" transform="translate(0 273.508)">
                        <g id="그룹_2881" clip-path="url(#clip-path-2)">
                            <path id="패스_2935" fill="none" stroke="#ad976e" stroke-linecap="round" stroke-linejoin="round" stroke-width="0.787px" d="M2673.261 716.7l-110.178 138.933M2816.376 716.7l-171.414 216.24m127.989-222.625L2601.538 926.56m120.062-208.4L2550.186 934.4" transform="translate(-2605.246 -718.007)"/>
                        </g>
                    </g>
                    <g id="그룹_2884">
                        <g id="그룹_2883" class="cls-6">
                            <path id="패스_2936" d="M2787.222 506.807a182.118 182.118 0 0 1-6.884-22.69c-2.524-11.086-12.541-20.629-13.154-21.738-3.566-6.449.558-14.446.061-17.479-.976-5.965-7.554-11.913-11.405-16.741-6.084-7.629-18.689-10.453-27.887-7.174a32.488 32.488 0 0 0-12.8 8.841 37.772 37.772 0 0 0-6.2 9.392c-1.833 3.854-7.665 9.6-8.8 16.289-.964 5.675 2.79 12.266 1.2 16.418-.511 1.334-12.614 6.084-13.851 15.382-.932 7.017-9.261 19.677-9.261 19.677s41.246 4.515 59.411 4.486c16.605-.027 49.58-4.663 49.58-4.663z" class="cls-10" transform="translate(-2632.65 -382.287)"/>
                            <path id="패스_2937" d="M2760.005 462.923c.672 8.943 6.506 16.068 8.1 24.636 1.745 9.371-2.188 11.767-.879 21.157m-11.978-35.888c6.431 15.266.119 21.2 1.754 36.829m-17.574-87.476c-6.394 1.315-11.737 3.486-16.326 7.645-6.454 5.849-9.955 15.81-10.538 24.533-.349 5.228 1.169 10.519-.308 15.661-2.486 8.653-11.6 13.158-14.681 21.434-3.4 9.12-1.448 7.2-3.429 16.421m26.61-49.118c-.392 5.568 1.38 11.8-.582 17.152-1.606 4.387-4.847 7.959-7.5 11.764a45.766 45.766 0 0 0-7.868 19.23m54.6-73.732a25.344 25.344 0 0 1 6.662 23.626c-.786 3.766-1.794 7.532-.706 11.344 2.07 7.251 8.289 12.289 10.7 19.247 1.62 4.665 1.525 15.659 1.162 20.351" class="cls-11" transform="translate(-2636.056 -382.831)"/>
                            <path id="패스_2938" d="M2764.469 522.486c8.862-5.107 13.208 2.66 16.113 11.1a173.2 173.2 0 0 1 7.863 29.5c1.079 6.475 9.425 28.107-2.819 31.633-10.611 3.055-13.185-22.223-15.5-28.451-2.683-7.213-4.618-16.446-7.672-28.207-1.956-7.532-.963-13.865 2.017-15.583z" class="cls-12" transform="translate(-2650.459 -403.95)"/>
                            <path id="패스_2939" d="M2766.5 554.567c.01.018-.018-.037-.025-.056-.135-.357-4.882-17.7-4.995-18.893-.4-4.262-.712-15.365 6.959-15.743 2.269-.112 4.934 1.577 6.641 2.833 5.165 3.8 12.377 24.728 12.139 25.3-.247.592-8.817 3.607-12.271 4.7-2.744.869-8.448 1.86-8.448 1.86z" class="cls-13" transform="translate(-2650.432 -403.739)"/>
                            <path id="패스_2940" d="M2737.767 503.176c14.425 5.279 22.654 12.242 24.971 18.639 2.286 6.311-.129 10.257-1.682 19.039-.947 5.354-1.716 16.346-4.655 21.2-4.094 6.763-9.895 10.854-13.833 17.632-4.233 7.287-5.484 13.415-6.648 14.757-4.331 5-49.332-7.186-49.5-10.995-.283-6.518 5.955-18.109 6.31-26.1.422-9.478-2.271-24.677.958-37.967 1.665-6.854 8.212-17.926 13.648-20.027 7.01-2.711 19.575-.149 30.426 3.823z" class="cls-13" transform="translate(-2634.402 -399.108)"/>
                            <path id="패스_2941" d="M2732.028 684.172l8.1 94.771c.571 8.8 2.043 25.331 3.7 42.821 2.883 30.465 6.292 63.806 6.292 63.806l13.62-1.031s-1.645-33.413-2.919-63.933c-.722-17.327-1.317-33.695-1.422-42.4l-3.114-95.652-24.254 1.622z" class="cls-14" transform="translate(-2644.164 -438.556)"/>
                            <path id="패스_2942" d="M2675.217 681.884l-5.072 104.444-2.8 97.583 13.641.682 7.91-96.971 10.555-103.87-24.237-1.868z" class="cls-14" transform="translate(-2630.321 -438.414)"/>
                            <path id="패스_2943" fill="#c29997" fill-rule="evenodd" d="M2667.272 662.152c-1.6 5.547-6.719 39.747-6.719 39.747l.2.123 47.574 5.209s1.594-8.038 3.307-8.367c1.687-.324 1.769 8.176 1.769 8.176l41.8-2.258s-6.819-41.52-8.4-43.4c-2.188-2.608-79.529.771-79.529.771z" transform="translate(-2628.867 -433.814)"/>
                            <path id="패스_2944" fill="#c29996" fill-rule="evenodd" d="M2739.968 608.183c.26.1-4.558 1.95-2.959 7.051.517 1.651 3.6 8.932 4.827 11.468 6.834 14.124 9.179 30.3 6.658 36.538-6.139 15.185-23.642 18.215-40.3 19.152-21.489 1.209-35.826-4.616-40.031-22.262-1.263-5.3 1.749-15.479 5.709-25.7 2.163-5.587 6.7-9.733 7.99-20.96a37.459 37.459 0 0 0-.582-12.779l58.689 7.5z" transform="translate(-2630.432 -421.035)"/>
                        </g>
                    </g>
                    <g id="그룹_2886" transform="translate(37.437 179.651)">
                        <g id="그룹_2885" clip-path="url(#clip-path-4)">
                            <path id="패스_2945" fill="none" stroke="#d7bdbb" stroke-linecap="round" stroke-linejoin="round" stroke-width="0.833px" d="M2726.291 622.925a17.388 17.388 0 0 1 .06 2.531q.039 4.636-.04 9.269c-.226 13.618.219 27.268-.393 40.878m7.155-52.242c.006-.006 0-.009 0 0 .063.619.415 37.721-.5 39.836s-4.591 4.783-6.418 6.521" transform="translate(-2680.293 -605.446)"/>
                            <path id="패스_2946" d="M2724.673 620.057c-3.183-.106-6.364-.248-9.544-.408q-4.533-.226-9.064-.494-7.482-.44-14.957-.977c-1.59-.116-3.18-.235-4.769-.372-.444-.038-.889-.078-1.333-.124-.142-.015-.285-.03-.427-.049l-.129-.019a.273.273 0 0 1-.07-.017c-.015-.006-.021-.027-.024-.04a.609.609 0 0 1-.018-.123v-.058c-.008-.24.007-.48.022-.72.03-.481.074-.961.12-1.441.057-.585.119-1.169.182-1.753.071-.649.146-1.3.216-1.948.02-.181.04-.362.057-.544.007-.066.013-.131.018-.2v-.066a.121.121 0 0 0 0-.019v-.011q4.7.386 9.41.716 6.073.434 12.15.8 4.827.284 9.657.5 1.719.077 3.438.14c1.045.039 2.091.074 3.136.1 3.98.092 7.964.058 11.942-.069 1.29-.042 2.58-.094 3.869-.151.451-.02.9-.041 1.353-.057.137-.005.273-.01.41-.013h.134a.651.651 0 0 1 .1.005c.019 0 .025.016.036.03a.489.489 0 0 1 .035.05 1.449 1.449 0 0 1 .12.277 5.362 5.362 0 0 1 .156.573c.056.25.1.5.145.755.123.739.207 1.484.269 2.23.058.7.1 1.405.094 2.109 0 .2-.006.4-.019.606a4.351 4.351 0 0 1-.056.5 1.293 1.293 0 0 1-.074.272.415.415 0 0 1-.039.073.1.1 0 0 1-.021.026.144.144 0 0 1-.05.018 1.072 1.072 0 0 1-.123.02c-.126.015-.254.023-.381.031-.485.028-.973.039-1.459.048-.8.015-1.608.02-2.413.02-1.191 0-2.384-.009-3.574-.024h-.01c3.926 7.144 9.181 18.863 8.8 19.1-.5.316-5.735 2.031-6.167 2.16-.239.071-9.416-18.281-10.915-21.453l-.238-.008z" class="cls-19" transform="translate(-2671.393 -602.825)"/>
                            <path id="패스_2947" fill="none" stroke="#f9eded" stroke-linecap="round" stroke-linejoin="round" stroke-width="1.654px" d="M2723.908 613.29l8.878.131-.112 7.033-8.878-.131.112-7.033z" transform="translate(-2679.839 -603.384)"/>
                        </g>
                    </g>
                    <g id="그룹_2888">
                        <g id="그룹_2887" class="cls-6">
                            <path id="패스_2948" d="M2733.966 469.508c-3.179 2.766-3.04 15.872-3.54 21.538-.367 4.155-.651 8.3.539 12.455 1.048 3.663 2.969 7.521 9.7 7.979 6.663.454 10.858-3.283 12.146-6.821 1.343-3.695 1.337-6.448 1.807-10.3.511-4.19 1.658-16.253.063-20.248a13.127 13.127 0 0 0-20.712-4.6z" class="cls-12" transform="translate(-2643.753 -392.256)"/>
                        </g>
                    </g>
                    <g id="그룹_2890" transform="translate(86.355 73.962)">
                        <g id="그룹_2889" clip-path="url(#clip-path-6)">
                            <path id="패스_2949" d="M2759 496.181c-.356 1.944-4.685 4.276-11.187 3.2-7.544-1.245-11.4-5.864-14.325-12.694-1.053-2.46-1.989-12.43-.568-14.175s6.249-.292 9.1 3.707c1.708 2.4 3.969 7.183 5.724 9.541 1.372 1.844 12.417 4.106 11.261 10.418z" class="cls-22" transform="translate(-2730.553 -467.41)"/>
                            <path id="패스_2950" d="M2731.533 516.9c-4.414-5.684-2.435-15.914-2.285-15.818 1.3.839 4.452 8.394 12.017 9.179 5.925.615 11.045-1.676 13.243-8.143.439-1.292-.1 13.841-2.558 16.075-2.223 2.018-5.1 2.437-7.981 2.565-3.316.147-10.261-1.058-12.436-3.858z" class="cls-13" transform="translate(-2729.801 -473.681)"/>
                        </g>
                    </g>
                    <g id="그룹_2892">
                        <g id="그룹_2891" class="cls-6">
                            <path id="패스_2951" d="M2780.051 465.994c.026-.134.16.226.228.347.126.225.255.448.376.676a10.466 10.466 0 0 1 .81 2c.614 2.124.242 5.671-2.519 6.267-1.3.281-2.323-.732-2.888-1.731-1.076-1.9-1.117-4.9.621-6.513" class="cls-23" transform="translate(-2653.425 -392.202)"/>
                            <path id="패스_2952" d="M2730.709 446.478c.644-6.254 5.038-13.051 9.783-16.34 7.43-5.15 18.117-3.061 23.974 3.515 7.2 8.082 6.511 21.458 5.351 31.413-1.033 8.877-6.672 15.8-15.915 17.714a16.627 16.627 0 0 1-6.477.35c-4.421-.857-8.71-3.944-11.659-7.112-6.994-7.509-5.845-21.893-5.056-29.539z" class="cls-12" transform="translate(-2643.754 -383.916)"/>
                        </g>
                    </g>
                    <g id="그룹_2894" transform="translate(86.359 43.335)">
                        <g id="그룹_2893" clip-path="url(#clip-path-8)">
                            <path id="패스_2953" d="M2770.206 457.35a1.884 1.884 0 1 0 1.988 1.853 1.919 1.919 0 0 0-1.988-1.853z" class="cls-25" transform="translate(-2738.282 -433.693)"/>
                            <path id="패스_2954" d="M2749.83 457.215a1.884 1.884 0 1 0 1.988 1.853 1.919 1.919 0 0 0-1.988-1.853z" class="cls-25" transform="translate(-2733.921 -433.664)"/>
                            <path id="패스_2955" fill="none" stroke="#110101" stroke-linecap="round" stroke-linejoin="round" stroke-width="1.356px" d="M2772.075 452.137a19.871 19.871 0 0 0-3.756-.619 7.761 7.761 0 0 0-2.9.41c-3.509 1.363-2.9 6.564-2.761 9.414.04.821.141 1.638.233 2.455a7.658 7.658 0 0 1-.072 3.612 2.7 2.7 0 0 1-3.761 1.686m-3.365-17.4a14.95 14.95 0 0 0-7.755.119" transform="translate(-2733.929 -432.385)"/>
                            <path id="패스_2956" d="M2750.149 475.458c1.753.619 3.411 2.42 7.145 3.016 1.829.292 4.852-.013 5.725 2.041s-1.292 4.163-3.066 5.005a10.033 10.033 0 0 1-10.9-1.643c-2.235-1.958-3.47-4.037-3.233-6.551.221-2.364 2.274-2.591 4.327-1.867z" class="cls-27" transform="translate(-2733.469 -437.491)"/>
                        </g>
                    </g>
                    <g id="그룹_2896">
                        <g id="그룹_2895" class="cls-6">
                            <path id="패스_2957" d="M2732.03 458.713a12.315 12.315 0 0 0-2.123-3.946 7.036 7.036 0 0 0-2.406-1.757c-2.815-1.293-5.2.347-6.055 3.079a8.052 8.052 0 0 0 1.292 7.473c1.72 2.124 5.355 2.826 7.444.795l1.848-5.643z" class="cls-12" transform="translate(-2641.814 -389.333)"/>
                        </g>
                    </g>
                    <g id="그룹_2898" transform="translate(79.237 63.227)">
                        <g id="그룹_2897" clip-path="url(#clip-path-10)">
                            <path id="패스_2958" fill="none" stroke="#ff9e9c" stroke-linecap="round" stroke-linejoin="round" stroke-width="0.844px" d="M2725.108 457.732a2.309 2.309 0 0 1 2.019-.2 5.636 5.636 0 0 1 3.246 3.142m-2.01-2.527c-.357-.085-.99.658-1.151.864a3.474 3.474 0 0 0 .107 4.07" transform="translate(-2721.919 -453.594)"/>
                        </g>
                    </g>
                    <g id="그룹_2900">
                        <g id="그룹_2899" class="cls-6">
                            <path id="패스_2959" d="M2754.9 427.673c-8.053 2.618-9.847 8.172-15.1 13.881-3.12 3.394-7.611 6.343-12.546 5.226.261-5.067 1.052-10.262 4.13-14.532 4.049-5.616 16.845-6.386 23.511-4.575" class="cls-10" transform="translate(-2643.142 -383.82)"/>
                            <path id="패스_2960" d="M2751.428 426.517c-8.722.637-9.078 8.822-14.39 13.187-3.212 2.639-7.741 2.9-10.806 5.692m16.722-17.936c-3.623 2.077-5.929 5.157-9.128 7.725-2.476 1.988-5.677 2.789-7.942 5.092-1.776 1.808-2.507 4.05-3.3 6.348" class="cls-11" transform="translate(-2642.143 -383.759)"/>
                            <path id="패스_2961" d="M2728.453 446.887a22.827 22.827 0 0 1 2.514-10.063c2.671-4.914 12.1-10.459 20.623-10.439 8.224.02 12.173 5.314 13.415 6.41.489.431 1.149.449.94-.05a25.837 25.837 0 0 0-3.453-4.064c-.817-.731-6.392-4.844-11.136-5.183-8.187-.585-17.87 2.351-23.257 10.494a24.482 24.482 0 0 0-3.687 12.835 3.768 3.768 0 0 1 1.812-.5 5.912 5.912 0 0 1 2.231.559z" class="cls-25" transform="translate(-2642.533 -383.098)"/>
                            <path id="패스_2962" d="M2726.368 466.8c.027-.134.16.226.229.347.126.225.255.449.376.677a10.5 10.5 0 0 1 .81 2c.615 2.125.243 5.672-2.519 6.268-1.3.281-2.323-.733-2.887-1.731-1.077-1.9-1.118-4.9.621-6.513" class="cls-23" transform="translate(-2641.936 -392.375)"/>
                            <path id="패스_2963" fill="#ebbd36" fill-rule="evenodd" d="M2593.356 524.81s-.758 6.1-.672 6.541c.314 1.643.682 3.274 1.006 4.915.854 4.32 1.551 8.666 2.353 12.995 2.433 13.123 5.262 26.788 12.409 38.4 2.936 4.772 7.878 9.814 14.145 7.282 14.167-5.724 15.8-39.945 14.878-52.594-.313-4.274 0-12.476-3.6-15.789-6.2-5.709-32.463-3.024-40.518-1.75z" transform="translate(-2614.34 -404.421)"/>
                            <path id="패스_2964" d="M2703.442 499.7c9.789 3.178 6.453 11.394 1.648 18.994a178.885 178.885 0 0 1-18.274 24.878c-4.428 4.987-17.085 29.387-28.437 21.46-8.18-5.712 10.611-27.079 14.043-32.812 3.974-6.64 10.034-14.04 17.37-23.9 4.7-6.314 10.359-9.691 13.65-8.622z" class="cls-12" transform="translate(-2627.964 -399.38)"/>
                            <path id="패스_2965" d="M2686.239 519.189c-.009.018.021-.035.032-.052.218-.317 11.9-14.292 12.836-15.09 3.325-2.843 12.429-9.68 17.3-3.974 1.442 1.688 1.077 4.838 1.04 6.9-.111 6.253-12.792 24.181-13.411 24.337-.642.16-8.256-4.675-11.224-6.7-2.358-1.606-6.576-5.429-6.576-5.429z" class="cls-13" transform="translate(-2634.363 -399.03)"/>
                            <path id="패스_2966" d="M2659 566.991c5.91-.337 9.12-8.464 6.242-16.917-3.709-10.894-5.463-18.215-9.862-29.566-2.381-6.145-4.025-17.59-11.552-16.285-7.894 1.368-3.7 11.976-2.219 20.8 1.266 7.563 4.081 16.276 7.11 28.044 1.94 7.535 3.705 14.3 10.281 13.924z" class="cls-12" transform="translate(-2624.288 -400.368)"/>
                            <path id="패스_2967" d="M2646.566 507.767c.409-2.736-.721-4.95-4.859-9.461-2.249-2.451-5.641-4.536-8.931-6.592-2.135-1.335-2.728-3.153-5.8-3.129-2.328.017 4.212 8.134 3.871 8.437-2.466 2.191-3.687-4.751-7.512-3.818-1.885.46-.739 8.03-.2 10.039s1.611 8.273 2.734 10.09c1.934 3.126 10.4 2.558 12.227 2.275 3.743-.579 7.724-2.891 8.463-7.842z" class="cls-14" transform="translate(-2620.679 -397.043)"/>
                            <path id="패스_2968" d="M2647.257 536.714a1.486 1.486 0 0 0-.177-.219 36.3 36.3 0 0 0-6.731-4.779 54.506 54.506 0 0 0-14.376-5.947c-15.165-3.777-34.764-1.665-47.335 7.736" class="cls-31" transform="translate(-2611.335 -404.622)"/>
                            <path id="패스_2969" d="M2628.119 502.44c3.051-4.821-4.864-12.354-10.9-6.347-4.2 4.182 4.113 13.283 4.113 19.8" class="cls-32" transform="translate(-2619.338 -398.174)"/>
                            <path id="패스_2970" fill="#ffbebc" fill-rule="evenodd" stroke="#ff9e9d" stroke-linecap="round" stroke-linejoin="round" stroke-width="1.09px" d="M2629.618 510.714a53.022 53.022 0 0 0 6.933-.835 2.556 2.556 0 0 0 2.268-1.75 2.51 2.51 0 0 0-.779-2.474 4.672 4.672 0 0 0-3.156-.457 44.043 44.043 0 0 1-6.5-.008c-.131.012 8.765.777 9.9-1.279a1.776 1.776 0 0 0-.526-2.586 5.931 5.931 0 0 0-3.3-.866c-2.2-.02-8.106-.048-8.161-.2-.076-.208 8.568 1.093 9.4-.968a1.8 1.8 0 0 0-1.247-2.343 23.953 23.953 0 0 0-3.25-.948c-2.689-.6-3.421-.8-6.219-1.451" transform="translate(-2621.253 -398.319)"/>
                            <path id="패스_2971" d="M2784.246 599.572c4.917-2.983 4-11.974-2.288-18.517-8.1-8.434-12.917-14.433-21.818-22.978-4.819-4.625-11.4-14.5-17.267-9.892-6.153 4.835 2.241 12.782 7.5 20.3 4.5 6.446 10.854 13.259 18.769 22.808 5.069 6.116 9.638 11.595 15.109 8.276z" class="cls-12" transform="translate(-2646.022 -409.543)"/>
                            <path id="패스_2972" d="M2742.049 544.48c1.087-2.559 3.226-3.919 9.169-5.8 3.23-1.02 7.253-1.169 11.173-1.343 2.544-.112 4.012-1.391 6.646.121 2 1.148-7.915 4.967-7.78 5.4.975 3.09 5.681-2.3 8.489.361 1.385 1.313-3.587 7.285-5.111 8.756s-5.742 6.352-7.667 7.373c-3.313 1.755-10.319-2.854-11.745-3.986-2.924-2.32-5.14-6.25-3.174-10.88z" class="cls-14" transform="translate(-2646.149 -407.347)"/>
                            <path id="패스_2973" d="M2795.364 585.243a1.384 1.384 0 0 0-.176-.219 36.241 36.241 0 0 0-6.732-4.779 54.473 54.473 0 0 0-14.376-5.946c-15.165-3.777-34.764-1.665-47.334 7.736" class="cls-31" transform="translate(-2643.033 -415.008)"/>
                            <path id="패스_2974" d="M2776.227 550.969c3.05-4.821-4.864-12.354-10.9-6.347-4.2 4.182 4.113 13.284 4.113 19.805" class="cls-32" transform="translate(-2651.037 -408.56)"/>
                            <path id="패스_2975" fill="#ffbebc" fill-rule="evenodd" stroke="#ff9e9d" stroke-linecap="round" stroke-linejoin="round" stroke-width="1.075px" d="M2758.551 555.39a50.9 50.9 0 0 1-5.541-4.092 2.436 2.436 0 0 1-1.036-2.613 2.636 2.636 0 0 1 1.974-1.756 4.63 4.63 0 0 1 2.963 1.141 42.733 42.733 0 0 0 5.613 3.156c.106.074-7.969-3.593-7.87-5.92a1.844 1.844 0 0 1 1.815-1.975 5.935 5.935 0 0 1 3.3.86c1.91 1.055 7.017 3.9 7.144 3.8.175-.142-7.965-3.224-7.6-5.408a1.88 1.88 0 0 1 2.308-1.415 24.111 24.111 0 0 1 3.3.758c2.635.793 3.373.975 6.128 1.774" transform="translate(-2648.416 -408.291)"/>
                            <path id="패스_2976" fill="none" stroke="#c8bfc4" stroke-linecap="round" stroke-linejoin="round" stroke-width="1.126px" d="M2720.348 508.595c.116.1-.469 5.283-.533 5.664-1.047 6.262-4 11.43-8.154 16.277m56.915-3.105a7.573 7.573 0 0 0 .078 1.659 28.892 28.892 0 0 1-.42 3.695c-.722 4.413-1.764 8.771-2.44 13.2m-15.987-37.932c-1.042 4.993-7.494 6.877-10.248 6.835-8.031-.122-16.171-7.108-16.343-15.361" transform="translate(-2639.805 -399.385)"/>
                            <path id="패스_2977" fill="#d25e5e" fill-rule="evenodd" d="M2782.018 568.351s6.8 1.391 6.6 3.576c-.385 4.265.478 17.886.54 20.964.486 24.1 3.472 48.223 5.521 72.239 1.271 14.885 14.475 106.74 11.881 111.467-3.645 6.643-31.833 6.106-40.9 7.032-13.213 1.348-39.89-5.761-41.587-7.07-2.011-1.551 4.4-82.448 6.6-103.9 2.028-19.81 6.469-39.335 8.15-59.171.489-5.767-1.736-45.66-1.031-46.513.1-.122 6.644-.419 8.628.97 2.023 1.416 18.94 33.41 19.666 33.137 2.123-.8 11.431-26.077 15.937-32.726z" transform="translate(-2642.378 -413.795)"/>
                            <path id="패스_2978" fill="none" stroke="#ff7976" stroke-linecap="round" stroke-linejoin="round" stroke-width="1.09px" d="M2768.84 611.527c-7.3 17.4-20 27.3-26.945 31.944m-1.751 49.5a23.248 23.248 0 0 0 2.583-10.938c-.034-5.379-3.221-12.488-2.842-18.191.736-11.1 1.642-20.789 1.933-20.321.3.49 1.9 2.968 2.121 3.5.423 1.035.843 2.072 1.232 3.119a36.248 36.248 0 0 1 2.576 10.746c.248 5.088-1.8 9.927-1.761 15.005.044 6.2 1.862 12.216 1.654 18.452m-5.661-50.6a11.319 11.319 0 0 1 3.945 1.926c2.368 1.82 4.869 3.733 6.23 6.395.433.848 1.1 2.388.177 3.182-1.136.979-3.022-.789-3.712-1.527a28.421 28.421 0 0 1-4.266-6.458 15.3 15.3 0 0 0-2.437-3.179c-.322-.31.908.488.96.923q.148 1.225.215 2.458c.151 2.656.288 5.683-.918 8.154-.3.626-1.151 2-2.053 1.825-1.276-.253-1.189-2.58-1.173-3.453a20.726 20.726 0 0 1 3.031-10.246z" transform="translate(-2645.643 -423.356)"/>
                            <path id="패스_2979" fill="#f3d889" fill-rule="evenodd" d="M2592.267 522.688c1.815-.512 15.3 62.906 17.49 63.126 2.961.3 8.1-62.71 10.447-63.831 1.734-.828 17.079 3.87 18.873 5.176 6.957 5.062 9.44 10.436 11.614 18.875 3.442 13.36 3.412 27.643 4.794 41.3 1.21 11.97 3.808 23.807 5.152 35.781.629 5.6 5.075 37.231 4.02 40.951-.373 1.315-8.472 2.293-8.472 2.293s4.827 30.694 2.308 32.47c-9.022 6.361-26.719 3.25-36.794 3.856-6.24.375-12.471 1.484-18.705 2.036-5.313.471-24.92 5.683-28.275 4.66-1.03-.314-.812-1.749-.736-2.52 1.032-10.293 3.793-33.228 3.611-33.167-1.684.568-6.27 1.287-8.062.924-.93-.188-4.461-51.553-4.721-55.837q-1.41-23.178-1.4-46.378c0-12.862-.806-35.923 12.325-44.269 4.189-2.662 11.807-4.119 16.533-5.451zm-11.125 135.959c-.237 0-1.125-68.248-1.073-68.112a188.833 188.833 0 0 1 6.553 33.051c.411 4.071-5.123 35.061-5.48 35.061zm61.333-70c-.817.569-4.234 29.164-2.544 37.038 1.165 5.426 9.323 21.726 9.323 21.726s.469-5.246-1.621-20.532c-1.633-11.944-3.524-26.539-3.942-31.023-.909-9.748-1.217-7.208-1.217-7.208z" transform="translate(-2608.073 -404.17)"/>
                            <path id="패스_2980" fill="none" stroke="#ea9a43" stroke-linecap="round" stroke-linejoin="round" stroke-width="1.09px" d="M2668.889 657.37a1.266 1.266 0 1 0 1.056 1.249 1.166 1.166 0 0 0-1.056-1.249zm-13.963-98.342c-.148-.142-.135.379-.2.569-.116.351-.223.7-.327 1.059q-.436 1.488-.793 2.993c-.737 3.131-2.006 8.712-2.523 11.884m.157-19.582c-.024.01.043.916.043.961.01 1.1.013 2.2-.006 3.3-.073 4.244-.521 19.855-.947 26.513m-20.107-63.339c-.061-.3.089.6.13.9.094.692.2 1.383.3 2.073q.431 2.915.837 5.834c.806 5.765 1.158 11.583 1.71 17.375.351 3.691-1.545 3.564-4.995 4.421-.522.13-3.01.461-3.167 1.09-.171.685.76 2.01 1 2.628.741 1.882 2.085 4.469 1.89 6.531-.244 2.588-1.934 5.418-2.913 7.806-2 4.886-4.9 9.607-7.481 14.247m-18.7-62.142c-.227-.2-.046.592-.038.888.015.589.045 1.18.074 1.769.095 1.928.271 3.846.44 5.768.5 5.678.473 11.288.656 16.969.046 1.4-.306 4.448 1.258 5.262a17.505 17.505 0 0 0 4.611 1.483 6.948 6.948 0 0 1 1.562.245c.2 1.147-3.927 3.746-3.279 6.62.538 2.384 2.14 4.69 3.279 6.829 2.163 4.066 7.2 11.345 9.443 16.481.932 2.136 1.541 10.567 1.852 13.168 1.039 8.682 1.717 17.436 2.483 26.145 2.249 25.559 3.476 51.107 3.476 76.757m46.4-46.988c-.1.093-4.549-.11-5.074.2a20.555 20.555 0 0 0 .34 5.771c.135.244 3.918.541 5.159.74m-8.825 3.788c-.757 0-5.032.341-5.047.324-.979-1.1-1-15.479-1-18.122" transform="translate(-2615.635 -404.479)"/>
                            <path id="패스_2981" d="M2645.743 647.4c-.056.008 1.345 6.271.723 7.132-.423.586-18.092 3.2-25.558 3.867-4.6.411-28.5 1.721-28.95.023-.119-.45-.509-5.476.568-6.323.36-.283 20.366-.027 26.919-.416 7.3-.434 26.3-4.283 26.3-4.283z" class="cls-40" transform="translate(-2614.15 -431.033)"/>
                            <path id="패스_2982" d="M2609.427 714.516c.176.75 5.482.078 5.478-.336-.035-2.965.18-9.926.057-12.889-.417-9.978-.9-20.244-2.62-30.1-.861-4.923-2.708-13.448-9.851-12.152-4.374.793-5.362 7-5.734 10.319-1.217 10.868-1.6 21.86-2.71 32.756-.174 1.709-1.8 12.33-.381 13.19.781.476 4.233.123 4.688-1.042.391-1 2-31.343 2-42.163 0-2.914-1-11.071 3.559-11.011 4.837.064 5.682 10.624 6.023 13.825 1.031 9.66-.777 38.477-.51 39.605z" class="cls-40" transform="translate(-2614.428 -433.495)"/>
                        </g>
                    </g>
                    <path id="패스_2983" fill="none" stroke="#c8bfc4" stroke-linecap="round" stroke-linejoin="round" stroke-width="0.835px" d="M2775.555 834.3a8.722 8.722 0 0 0-8.721-8.72h-101a8.719 8.719 0 0 0-8.72 8.72v1.206a8.719 8.719 0 0 0 8.72 8.721h101a8.722 8.722 0 0 0 8.721-8.721V834.3z" transform="translate(-2628.131 -469.169)"/>
                    <path id="패스_2984" fill="#7b95ba" fill-rule="evenodd" d="M2834.063 830.272l-20.452 12.347 4.522-9.716-4.522-6.408 20.452 3.777z" transform="translate(-2661.625 -469.364)"/>
                    <path id="패스_2985" fill="#ebe9ea" fill-rule="evenodd" d="M2819.958 834.06c3.465-.507 10.394-1.522 14-2.149a.328.328 0 0 0-.112-.647c-3.6.626-10.521 1.64-13.982 2.147a.328.328 0 1 0 .1.649z" transform="translate(-2662.903 -470.384)"/>
                    <path id="패스_2986" fill="#b25150" fill-rule="evenodd" d="M2758.854 400.776a4.658 4.658 0 0 0-4.658-4.658h-25.848a4.658 4.658 0 0 0-4.658 4.658v3.824a4.658 4.658 0 0 0 4.658 4.658h25.852a4.658 4.658 0 0 0 4.658-4.658v-3.821z" transform="translate(-2642.379 -377.253)"/>
                    <path id="패스_2987" d="M2732.764 400.248v5.771h3.285a.868.868 0 0 1 .6.189.612.612 0 0 1 .21.476.6.6 0 0 1-.207.474.9.9 0 0 1-.6.181h-3.913a1.046 1.046 0 0 1-.761-.233 1.032 1.032 0 0 1-.232-.751v-6.107a1.056 1.056 0 0 1 .221-.73.746.746 0 0 1 .581-.244.778.778 0 0 1 .593.241 1.04 1.04 0 0 1 .226.733z" class="cls-45" transform="translate(-2643.975 -377.928)"/>
                    <path id="패스_2988" d="M2739.855 406.5v-6.248a1.046 1.046 0 0 1 .224-.73.748.748 0 0 1 .578-.244.778.778 0 0 1 .593.241 1.036 1.036 0 0 1 .227.733v6.248a1.048 1.048 0 0 1-.227.736.774.774 0 0 1-.593.243.747.747 0 0 1-.575-.246 1.049 1.049 0 0 1-.227-.733z" class="cls-45" transform="translate(-2645.839 -377.928)"/>
                    <path id="패스_2989" d="M2745.258 400.329l1.811 5.317 1.817-5.355c.1-.281.166-.477.213-.587a.784.784 0 0 1 .234-.3.693.693 0 0 1 .447-.132.747.747 0 0 1 .385.1.762.762 0 0 1 .278.273.663.663 0 0 1 .1.343 1.148 1.148 0 0 1-.032.257 2.429 2.429 0 0 1-.082.27l-.1.274-1.938 5.182q-.1.3-.207.565a2.365 2.365 0 0 1-.241.471 1.069 1.069 0 0 1-.362.332 1.1 1.1 0 0 1-.554.13 1.114 1.114 0 0 1-.554-.127 1.039 1.039 0 0 1-.366-.335 2.5 2.5 0 0 1-.243-.473q-.1-.265-.207-.563l-1.9-5.139-.1-.276a2.131 2.131 0 0 1-.087-.292 1.231 1.231 0 0 1-.035-.265.7.7 0 0 1 .224-.5.755.755 0 0 1 .562-.227.659.659 0 0 1 .586.252 3.333 3.333 0 0 1 .352.8z" class="cls-45" transform="translate(-2646.626 -377.928)"/>
                    <path id="패스_2990" d="M2759.273 400.685h-3.65v1.947h3.361a.809.809 0 0 1 .554.165.559.559 0 0 1 .183.435.579.579 0 0 1-.181.441.783.783 0 0 1-.556.171h-3.361v2.256h3.776a.831.831 0 0 1 .575.175.6.6 0 0 1 .194.468.589.589 0 0 1-.194.457.831.831 0 0 1-.575.175H2755a1.047 1.047 0 0 1-.761-.233 1.035 1.035 0 0 1-.232-.751v-5.961a1.326 1.326 0 0 1 .1-.566.642.642 0 0 1 .325-.319 1.375 1.375 0 0 1 .565-.1h4.277a.835.835 0 0 1 .576.171.572.572 0 0 1 .188.446.58.58 0 0 1-.188.452.834.834 0 0 1-.576.171z" class="cls-45" transform="translate(-2648.867 -377.965)"/>
                </g>
                <path id="패스_2991" fill="none" stroke="#9a8993" stroke-linecap="round" stroke-linejoin="round" stroke-width="1.65px" d="M3121.728 815.29l-22.072-65.69-18.828 68.591" transform="translate(-99.174 -80.791)"/>
                <path id="패스_2992" fill="#c8bec4" fill-rule="evenodd" d="M3089.174 687.13a86.57 86.57 0 0 0-28.062 6.243c-1.5.586-.64 3.561-.383 4.825.551 2.708 1.159 9.416 1.587 12.146a175.75 175.75 0 0 0 4.045 19.244c4.845 19.382 11.606 16.681 33.977 16.9 4.765.046 14.625-.9 18.127-5.242 3.727-4.618 5.583-16.987 5.888-22.767.158-2.989 1.837-25.23-.078-27.152-1.365-1.369-13.172-5.706-35.1-4.2z" transform="translate(-94.77 -67.353)"/>
                <g id="그룹_2903" transform="translate(2965.479 619.462)">
                    <g id="그룹_2902" clip-path="url(#clip-path-12)">
                        <path id="패스_2993" fill="#9a5f5a" fill-rule="evenodd" d="M3062.778 695.863c-2.937-1.05 11.24-4.144 14.618-4.753 12.514-2.253 23.4-2.021 34.94-1.084 1.131.093 11.3 1.263 11.049 3.107-.239 1.768-18.814 3.849-28.368 4.279-10.1.456-29.3-.5-32.239-1.549z" transform="translate(-3060.705 -687.358)"/>
                    </g>
                </g>
                <path id="패스_2994" d="M3117.5 671.658l-.05.052c-.511.654-1.545 2.472-2.567 2.078-1.328-.51-1.846-2.517-2.963-3.375-.951-.73-1.974-.323-2.881-.9-3.4-2.161-2.078-8.1-1.89-11.228.738-12.245 5.769-22.315 8.431-33.952 1.762-7.7 1.254-15.462 2.192-23.255.63-5.231 3.086-13.784 8.834-15.723 8.579-2.895 3.353 20.186 3.137 22.5-.23 2.48-.5 4.96-.935 7.412a62.871 62.871 0 0 1-2.156 8.284c-1.075 3.318-2.247 6.6-3.339 9.916-3.82 11.591-5.814 38.187-5.814 38.187z" class="cls-50" transform="translate(-104.719 -45.585)"/>
                <g id="그룹_2905" transform="translate(3002.017 539.52)">
                    <g id="그룹_2904" clip-path="url(#clip-path-13)">
                        <path id="패스_2995" d="M3117.515 594.729c3.282-4.349 4.911-.327 8.075.208.99.167 1.871-.56 2.819-.71 1.294-.2 2.5.511 3.831.363m-17.631 11.348c4.079-5.709 6.172-.74 9.433-.226 1.413.222 2.823-1.073 4.246-1.2 1.553-.141 2.959.487 4.541.182m-17.587 10.681c2.593-3.889 4.989-.937 7.668-1.072 1.132-.057 2.139-.9 3.268-1.09 1.693-.281 3.063.8 4.731.035m-16.12 9.164c-.436-.142.82-.42 1.264-.533a6.181 6.181 0 0 1 3.545.164c.885.318 1.617 1.008 2.524 1.246 1.629.426 5.158-.626 6.763-1.1m-16.579 8.843c3.745-1.639 3.744.159 7.8.66 1.313.163 2.37-.948 3.579-1.254 1.149-.291 2.315.164 3.486-.026m-16.5 7.877c2.878-1.6 5.667.944 8.392.944 1.27 0 2.352-.926 3.563-1.2a13.725 13.725 0 0 1 2.767.086m-16.979 10.349c.158-1.105 2.48-.949 3.315-.766 1.474.322 2.626 1.219 4.021 1.712 2.079.734 5.98-.307 8-1.055m-16.591 8.274c.609.5 1.548-.532 2.322-.4 5.865 1.029 5.767 2.654 11.537 1.383m-15.581 8.281a7.8 7.8 0 0 1 .827-.524c1.35-.651 2.664.075 3.814.822a4.8 4.8 0 0 0 1.971.994c1.159.11 2.033-1.039 3.165-1.159 1.295-.137 2.383.769 3.719.5" class="cls-52" transform="translate(-3106.458 -586.737)"/>
                    </g>
                </g>
                <path id="패스_2996" d="M3102.66 669.055c-2.955 2.611-5.588 1.914-5.859.067-.6-4.116-1.249-13.931-1.489-17.258-.674-9.335-4.184-17.266-6.2-26.221-2.361-10.467-1.932-22.156.4-32.553.887-3.957 4.192-21.03 9.616-21.03 7.68 0 8.545 17.633 9.1 22.818.811 7.571 1.954 15.8.742 23.391-1.457 9.126-5.324 17.651-6.572 26.863-1.03 7.611.263 23.923.263 23.923z" class="cls-50" transform="translate(-100.61 -42.793)"/>
                <g id="그룹_2907" transform="translate(2986.927 529.267)">
                    <g id="그룹_2906" clip-path="url(#clip-path-14)">
                        <path id="패스_2997" d="M3095.362 662.833c.313-2.579 1.618-1.332 3.393-1.515 1.026-.105 2.088-.948 3.239-1.129m-8.565-3.755c.384-.538.691-1.918 1.458-2.638 1.57-1.474 2.241 1.307 3.623 1.076 1.132-.188 1.492-1.847 3.56-2.173m-10.053-6.8c.262.261.211-.719.406-1.034a4.768 4.768 0 0 1 2.336-2.077c1.967-.656 2.744 1.528 4.432 1.662 1.154.093 2.031-1.725 3.421-1.907m-13.852-9.135c-.92-.4 2.626-2.7 3.131-2.779 1.31-.211 2.393.637 3.666.693 1.377.06 2.431-1.2 3.751-1.449 3.456-.65 4.019 1.375 7.672-.873m-20.954-8.538c.064.209.161-.413.29-.589a8.135 8.135 0 0 1 .9-1.03 7.663 7.663 0 0 1 4.828-2.235c1.924-.09 3.743 1.166 5.658.671 1.506-.389 2.752-2.142 4.263-2.238 2.719-.172 3.7 2.125 6.606.245m-22.949-9.368c.959-.685 1.409-1.986 2.723-2.577a5.883 5.883 0 0 1 .555-.2c2.446-.815 4.657.546 7.065.075 1.986-.389 3.536-2.236 5.637-2.152 1.135.045 1.949 1.129 3.058 1.279.064.009.127.016.192.021a.738.738 0 0 0 .416-.043c.934-.276 1.641-1.1 2.535-1.364.828-.241 1.593.43 2.419-.042m-22.615-8.415c-.083-.053-.028-.109.03-.206 1.006-1.69 3.516-2.371 5.332-2.323a5.732 5.732 0 0 1 1.663.33c4 1.346 3.938-.611 7.779-.726 1.11-.032 2.462 1.391 3.464 1.141 1.056-.264 1.689-1.549 2.866-1.843m-19.572-7.827c.137.109.237-.26.371-.373 1.274-1.076 3.144-2.707 4.922-2.552 1.318.115 2.234 1.132 3.484 1.385 1.686.343 2.855-.765 4.434-.916 2.567-.248 3.628 1.061 5.808-.682" class="cls-52" transform="translate(-3087.126 -573.31)"/>
                    </g>
                </g>
                <path id="패스_2998" d="M3075.155 668.831c.013-.017-.059.064-.063.068-.543.663-6.031 4.019-7.206 1.893-3.425-6.2-.971-15.147-3.914-21.507-2.137-4.62-6.074-8.048-8.912-12.23a115.775 115.775 0 0 1-16.29-34.64c-1.485-5.518-4.8-21.085 1.887-24.516 6.8-3.489 11.109 14.553 12.163 18.273 2.632 9.285 5.481 18.592 8.75 27.671 3.18 8.829 7.3 17.638 9.675 26.719 1.222 4.676 3.909 18.268 3.909 18.268z" class="cls-50" transform="translate(-89.714 -43.947)"/>
                <g id="그룹_2909" transform="translate(2946.912 533.506)">
                    <g id="그룹_2908" clip-path="url(#clip-path-15)">
                        <path id="패스_2999" d="M3033.921 592.4c-.008.049.315-1.137.462-1.448a3.568 3.568 0 0 1 2.465-2.268c1.012-.165 2.227.205 3.187-.2 1.191-.5 1.672-1.96 2.815-2.559 1.623-.85 3.373-.057 4.681-1.611m-10.951 15.76c-.552-.444 2.061-2.87 2.806-3.152 1.26-.477 2.616.188 3.858-.255 1.01-.361 1.563-1.512 2.406-2.129 1.848-1.353 3.857-.891 5.536-2.785m-12.723 18.993c.861-4.093 4.444-3.189 6.524-4.467 1.166-.717 1.689-2.145 2.939-2.757 2.09-1.023 3.97-.745 5.856-2.421m-12.091 18.225c1.944-4.469 3.756-2.621 6.723-4.378 1.165-.689 1.887-1.915 3.128-2.529 2.545-1.262 3.884-1.266 6.184-3.253m-10.556 19.024a7.69 7.69 0 0 1 .44-1.519 4.411 4.411 0 0 1 3.048-1.6c2.409-.266 2.739-2.262 4.674-3.355 1.823-1.03 3.621-1.746 5.389-2.925m-9.08 16.91c.369-.409.553-1.746 1.1-2.369 1.08-1.224 2.522-1.448 3.749-2.385.674-.514 1.093-1.284 1.742-1.823 1.167-.968 3.093-.5 3.952-1.794m-6.039 16.126c-.311-.62 1.753-2.547 2.13-2.862 1.343-1.117 2.83-.916 4.26-1.684 1.235-.664 2.233-2.236 3.419-3.106m-5.245 13.076c-.29-.124 1.634-1.75 1.753-1.816 2.112-1.2 4.485-1.432 6.417-2.99m-6.105 14.769c.262.066.13-.538.281-.762a4.443 4.443 0 0 1 1.879-1.407c1.389-.648 2.844-.053 4.179-.575.775-.3 1.66-1.685 3.127-2.393m-8.072 13.684c.066.1.223-.314.244-.351a3.535 3.535 0 0 1 1.71-1.534c1.068-.417 2.112.479 3.091.138.6-.208.677-.979 1.159-1.334.593-.437 2.895.133 3.57-.092" class="cls-52" transform="translate(-3036.046 -578.923)"/>
                    </g>
                </g>
                <path id="패스_3000" d="M3088.841 665.581s-4 2.867-5.106 1.309c-1.089-1.539-.472-5.907-.9-7.744a132.179 132.179 0 0 0-4.813-15.545c-1.566-4.264-4.361-9.385-5.52-13.795-2.14-8.15-1.09-15.759-1.865-24.079-.582-6.232-6.161-10.059-6.87-19.832-.672-9.282 5.235-22.564 8.8-21.6 3.941 1.067 4.792 16.323 4.982 19.447.312 5.16 2.313 11.782 2.77 16.932.827 9.326-1.181 18.231.46 27.431 1.081 6.061 3.119 13.058 4.3 19.1 1.342 6.884 2.84 12.474 3.761 18.371z" class="cls-50" transform="translate(-95.512 -41.121)"/>
                <g id="그룹_2911" transform="translate(2968.205 523.127)">
                    <g id="그룹_2910" clip-path="url(#clip-path-16)">
                        <path id="패스_3001" d="M3080.235 665.453c-.46-2.337 4.272-2.029 5.073-2.235a25.393 25.393 0 0 0 2.792-1.529m-7.743-3.689a6.069 6.069 0 0 1 .964-1.623 4.913 4.913 0 0 1 1.05-.685c2.18-1.059 2.881.279 5.1-1.621m-10.3-5.509c.278-.286.656-1.365 1.253-1.809 1.384-1.03 2.4-.227 3.842-.525a10.7 10.7 0 0 0 2.64-1.385m-10.242-5.038c-.041.291.248-.554.467-.751a4.48 4.48 0 0 1 1.589-.784c2.02-.673 3.766-1.082 5.386-2.541m-12.07-6.744c-.251-.021.322-.388.474-.588a3.965 3.965 0 0 1 3.113-1.636c1.048.083 2.235.631 3.279.335 1.283-.365 1.547-1.827 2.625-2.366.81-.4 2.1.637 2.693-.16m-12.149-7.008c.326.133.4-.6.693-.8a7.277 7.277 0 0 1 3.294-1.278c1.289-.119 2.724.725 3.9.517.746-.131.97-1.533 1.681-1.9s1.837.481 2.32-.046m-13.017-6.791c-.234-.067 2.257-2.039 2.672-2.232a6.743 6.743 0 0 1 .989-.38c.948-.252 1.962.033 2.891-.328 1.577-.612 3.046-2.051 4.572-2.867m-14.381-1.086c.05.07.18-.27.218-.33a5.536 5.536 0 0 1 3.224-2.228c3.5-1.071 6.758-2.306 10.2-3.621m-17.266-3.733c.131-.006.071-.253.12-.374.417-1.036 1.28-2.572 2.494-2.77 1.2-.195 2 1.095 3.15 1.058 1.324-.043 2.39-1.928 3.513-2.526 2.368-1.261 3.281.707 6.36-1.643m-14.85-5.132c-.47-.869 2.286-2.088 2.838-2.263 1.764-.557 3.264.3 4.952.053 1.018-.149 1.568-1.107 2.457-1.514a12.765 12.765 0 0 1 2.708-.373" class="cls-52" transform="translate(-3063.363 -566.545)"/>
                    </g>
                </g>
                <path id="패스_3002" fill="none" stroke="#6f5e68" stroke-linecap="round" stroke-linejoin="round" stroke-width="1.65px" d="M3079.332 818.824l-5.912-64.014 27.521 69.123 22.554-71.281-3.143 63.22" transform="translate(-97.589 -81.444)"/>
                <path id="패스_3003" d="M2957.28 818.632c-.593-1.639-12.148-16.913-11.562-27.531.4-7.273 4.115-15.3 3.99-24.642-.116-8.636-13.365-21.747-13.775-30.763-.626-13.781 5.755-22.416 4.891-33.136-1.005-12.5-11.256-24.755-11.787-26.072-3.1-7.671 3.292-15.546 3.249-18.926-.084-6.649-6.875-14.355-10.6-20.324-5.893-9.432-20.46-14.908-32.06-13.116a40.064 40.064 0 0 0-16.924 7.125 41.859 41.859 0 0 0-9.128 8.987c-2.894 3.825-10.915 8.934-13.489 15.962-2.183 5.964 1.109 13.825-1.55 18.018-.854 1.346-16.2 4.175-19.364 14.012-2.392 7.424-3.017 22.411-7.708 27.208-6.219 6.361-15.593 9.271-19.115 20.527-4.33 13.84 3.1 21.467-1.681 32.176s-22.772 22.572-22.772 22.572 62.259 18.7 92.158 23.354c28.8 4.482 87.231 4.57 87.231 4.57z" class="cls-57" transform="translate(-34.339 -53.863)"/>
                <path id="패스_3004" fill="none" stroke="#f6a783" stroke-linecap="round" stroke-linejoin="round" stroke-width="1.271px" d="M2920.985 675.163c-.821 9.818 4.864 18.656 5.216 28.244.385 10.487-8.342 18.53-8.48 28.955-.182 13.677 7.909 26.912 8.765 40.522.88 13.971-2.961 29.6 1.438 43.8m-14.427-131.7c4.919 17.773-6.015 32.8-6.9 50.044-.69 13.463 4.814 25.665 6.2 38.858.672 6.373-.952 12.56-1.087 18.889-.156 7.347.991 16.318 1.362 23.692m-9.308-189.39c-7.889.2-14.676 1.528-20.922 5.155-8.784 5.1-14.781 15.222-17.063 24.561-1.367 5.6-.512 11.621-3.214 16.908-4.545 8.9-16.267 12.034-21.457 20.409-5.719 9.231-4.145 20.25-8.189 29.861-3.815 9.065-14.788 13.223-17.842 22.852-5.423 17.1 3.629 34.806-15.64 47.941m75.345-131.636c-1.481 5.957-.492 13.045-3.812 18.473-2.719 4.444-7.245 7.694-11.108 11.309a48.2 48.2 0 0 0-12.907 19.329c-3.473 10.281-1.948 21.416-5.466 31.676-3.431 10.009-11.242 18.113-14.477 28.208-2.489 7.769-1.524 21.474-7.026 28.338m60.169-119.734c-1.932 9.418-4.013 19.088-7.8 28.031-4.874 11.523-11.328 22.3-14.785 34.338-4.193 14.595-1.62 29.277-5.4 43.19-2.014 7.415-7.547 12.6-11.174 19.227m84.667-162.7c6.4 8.442 7.456 17.735 3.677 26.876-1.625 3.93-3.516 7.817-2.906 12.156 1.159 8.253 7.684 14.9 9.31 22.9 1.09 5.364-1.874 9.779-3.16 14.791a38.519 38.519 0 0 0-.693 12.162 53.5 53.5 0 0 0 3.62 16.6c1.76 4.36 4.772 8.279 5.248 12.948.886 8.712-3.692 16.663-3.738 25.325-.061 11.25 5.494 20.523 10.942 30.46" transform="translate(-38.951 -54.567)"/>
                <path id="패스_3005" d="M2966.185 785.151c2.217-6.823 13.108-8.006 22.537-1.946 12.155 7.811 20.547 12.193 33.046 20.957 6.767 4.745 20.223 10.308 16.333 18.72-4.078 8.822-15.734.531-26.045-4.006-8.838-3.887-18.6-9.955-32.029-17.246-8.6-4.669-16.307-8.887-13.841-16.479z" class="cls-12" transform="translate(-74.538 -87.142)"/>
                <path id="패스_3006" d="M3076.217 847.738a35.087 35.087 0 0 0-20.853-19.161m17.246 25.476c-3.636-8.546-10.981-18.3-17.867-22.719m11.187 23.717c-2.237-8.3-7.731-15.4-12.6-21.831m5.01 20.171c-.778-5.782-2.968-12.046-8.462-16.086m22.264-7.9a71.967 71.967 0 0 0-15.853-4.277" class="cls-59" transform="translate(-92.549 -96.956)"/>
                <path id="패스_3007" d="M3054.4 824.736a6.811 6.811 0 1 0 4.639 8.441 6.813 6.813 0 0 0-4.639-8.441z" class="cls-60" transform="translate(-91.652 -96.813)"/>
                <path id="패스_3008" d="M2942.41 702.534c10.355-7.038 16.169 2.437 20.289 12.86 5.22 13.208 8.8 23.7 11.627 36.582 1.77 8.073 7.017 22.316-4.809 26.293-10.222 3.437-13.877-13.349-17.127-21.026-3.764-8.891-6.765-20.374-11.3-34.963-2.906-9.342-2.158-17.38 1.324-19.746z" class="cls-12" transform="translate(-68.882 -70.197)"/>
                <path id="패스_3009" d="M2646.135 894.509c6.724 3.645 9.538 12.332 6.268 20.067-3.461 8.189-12.439 12.231-20.034 9.021-6.52-2.756-9.916-9.965-8.558-17.131l-.207-.42c-3.071-6.165-4.516-13.379-5.586-20.286a26.748 26.748 0 0 1-.242-9.386 16.278 16.278 0 0 1 7.244-10.521c1.5-1 3.408-2.069 5.182-1.6 4.463 1.186 4.375 6.933 5.12 10.836 1.5 7.878 7.427 15.554 10.813 19.418z" class="cls-12" transform="translate(0 -105.305)"/>
                <path id="패스_3010" d="M2904.837 883.515a12.314 12.314 0 1 0-10.128-17.211c-.111.06-.221.12-.331.177-4.864 2.58-9.07 6.525-12.881 10.438a19.773 19.773 0 0 0-4.339 5.841 11.723 11.723 0 0 0 .335 9.791c.593 1.279 1.438 2.782 2.874 3.249 3.615 1.175 6.109-2.5 8.358-4.654 4.542-4.341 12.051-6.646 16.112-7.632z" class="cls-12" transform="translate(-55.388 -104.192)"/>
                <path id="패스_3011" d="M2925.84 851.819l4.98-34.746s48.25 9.855 74.263 20.114c8 3.156 14.386 6.28 18.008 9.305 4.311 3.6 7.039 7.17 8.1 10.576 1.864 6 2.076 12.043-3.086 17.289a15.983 15.983 0 0 1-10.819 5.824 84.1 84.1 0 0 1-11.123.194c-24.594-.943-87.493-6.25-87.493-6.25l.5-22.029 6.673-.278z" class="cls-12" transform="translate(-64.467 -95.231)"/>
                <path id="패스_3012" d="M2815.746 799.495s-19.7 12.628-41.673 25.594c-9.45 5.575-19.234 11.229-28.072 15.929-17.82 9.478-35.747 18.109-51.73 25.335-30.431 13.758-53.327 22.488-53.327 22.488l6.592 21.026s24.4-6.146 57.08-16.52c17.325-5.5 36.819-12.214 56.308-19.808 9.8-3.821 20.715-8.513 31.266-13.171 24.055-10.622 45.74-21.173 45.74-21.173l-22.184-39.7z" class="cls-12" transform="translate(-5.028 -91.469)"/>
                <path id="패스_3013" d="M2879.467 805.4c.216.1.189 13.306 31.336 7.772 28.706-5.1 64.543 9.189 64.917 13.318.618 6.811-51.83 33.33-102.587 32.661-22.606-.3-65.991 24.979-95.467 22.389-32.046-2.815-60.848-8.5-72.389-16.53-8.586-5.975 90.339-44.055 95.484-53.1 6.8-11.957 8.814-13.336 8.814-13.336l69.892 6.823z" class="cls-61" transform="translate(-18.684 -91.274)"/>
                <path id="패스_3014" d="M2906.3 687.277c21.177 4.194 26.585 9.7 29.289 17.8 2.667 7.989-3.584 15.569-3.745 25.786-.108 6.843 2.44 21.908-1.2 27.981-5.073 8.459-17.446 10.788-22.33 19.267-5.249 9.115-3.282 18.133-13.835 18.584-8.189.349-62.981-20.149-62.145-24.881.968-5.47 15.406-12.58 15.968-22.646.667-11.937-4.44-26.042 4.1-40.974 11.493-20.093 40.1-23.652 53.9-20.919z" class="cls-61" transform="translate(-45.987 -67.28)"/>
                <path id="패스_3015" d="M2939.837 708.845c-1.02 11.482-11.99 35.477-17.93 34.144-6.423-1.441-12.156-33.275-9.794-41.74l27.725 7.6z" class="cls-12" transform="translate(-62.949 -70.442)"/>
                <g id="그룹_2913" transform="translate(2848.621 630.807)">
                    <g id="그룹_2912" clip-path="url(#clip-path-17)">
                        <path id="패스_3016" d="M2902.181 726.32s7.5-.824 9.161-.487a37.151 37.151 0 0 0 23.52-3.461c4.63-2.378 13.96-11.056 3.611-13.3s-23.323 3.587-32.68 7.461c-6.318 2.616-15.762 7.76-3.612 9.785z" class="cls-22" transform="translate(-2908.302 -702.817)"/>
                    </g>
                </g>
                <path id="패스_3017" fill="none" stroke="#ea9a43" stroke-linecap="round" stroke-linejoin="round" stroke-width="1.235px" d="M2905.109 805.927c-22.416 4.616-55.881 2.163-68.912-5.612m70.008 8.145c-30.475 5.63-59.733-.915-72.067-9.466m1.015.717c-.259.035.257.457.385.685.226.4.415.8.608 1.217.646 1.388 1.234 2.8 1.78 4.231a31.87 31.87 0 0 1 2.53 11.405c-.012 1.3-.244 4.073-2.041 4.225-1.64.139-2.778-2.277-3.245-3.47-1.573-4.011-1.662-8.64-1.264-12.875a32.416 32.416 0 0 1 .672-4.328c.1-.427.2-.856.335-1.273a1.545 1.545 0 0 0-.161.564c.067 1.281-.528 2.093-.886 3.291a42.888 42.888 0 0 1-3.741 9.621c-.638 1.082-2.788 4.423-4.511 3.256-1.578-1.068-.072-4.438.451-5.652 1.755-4.07 9.089-10.9 9.089-10.9z" transform="translate(-44.402 -91.362)"/>
                <path id="패스_3018" d="M2899.93 657.819c1.08-7.845 6.726-16.2 12.629-20.123 9.243-6.141 22.083-3.014 28.86 5.54 8.328 10.512 6.857 27.326 4.976 39.81-1.677 11.131-8.837 19.591-20.119 21.57a19.407 19.407 0 0 1-7.86.139c-5.312-1.284-10.356-5.371-13.777-9.5-8.109-9.782-6.028-27.842-4.708-37.437z" class="cls-12" transform="translate(-60.189 -56.154)"/>
                <path id="패스_3019" d="M2951.385 675.049a2.373 2.373 0 1 0 2.319 2.426 2.374 2.374 0 0 0-2.319-2.426z" class="cls-19" transform="translate(-70.951 -64.835)"/>
                <path id="패스_3020" d="M2926.128 674.476a2.373 2.373 0 1 0 2.318 2.426 2.375 2.375 0 0 0-2.318-2.426z" class="cls-19" transform="translate(-65.545 -64.712)"/>
                <path id="패스_3021" fill="none" stroke="#403642" stroke-linecap="round" stroke-linejoin="round" stroke-width="2.161px" d="M2950.136 666.671a23.186 23.186 0 0 0-4.519-.953 9.062 9.062 0 0 0-3.528.382c-4.314 1.553-3.823 8.132-3.794 11.727.008 1.036.092 2.07.164 3.1a10.031 10.031 0 0 1-.26 4.545c-.852 2.013-2.683 2.935-4.634 1.948m-3.242-22.066a17.446 17.446 0 0 0-9.4-.211" transform="translate(-64.952 -62.6)"/>
                <path id="패스_3022" d="M2922.439 695c2.093.861 4.014 3.206 8.508 4.13 2.2.452 5.875.209 6.834 2.836s-1.764 5.185-3.953 6.162a11.8 11.8 0 0 1-13.116-2.576c-2.614-2.569-4.008-5.245-3.6-8.4.382-2.967 2.878-3.158 5.329-2.15z" class="cls-27" transform="translate(-64.12 -68.987)"/>
                <path id="패스_3023" d="M2901.258 673.1a15.694 15.694 0 0 0-2.381-5.066 8.527 8.527 0 0 0-2.829-2.325c-3.347-1.76-6.312.2-7.48 3.6a10.482 10.482 0 0 0 1.207 9.472c1.981 2.756 6.349 3.807 8.977 1.346l2.506-7.022z" class="cls-12" transform="translate(-57.896 -62.694)"/>
                <path id="패스_3024" d="M2930.252 635.259c-9.876 2.923-12.315 9.833-18.942 16.78-3.942 4.13-9.519 7.635-15.442 6 .559-6.37 1.766-12.876 5.7-18.11 5.172-6.884 20.7-7.26 28.687-4.67" class="cls-57" transform="translate(-59.588 -56.002)"/>
                <path id="패스_3025" fill="none" stroke="#f6a783" stroke-linecap="round" stroke-linejoin="round" stroke-width="1.354px" d="M2926.107 633.76c-10.592.4-11.414 10.688-18.055 15.939-4.016 3.175-9.51 3.291-13.357 6.667m21.106-21.812c-4.486 2.447-7.425 6.219-11.421 9.3-3.093 2.388-7.008 3.248-9.861 6.045-2.236 2.194-3.23 4.984-4.3 7.841" transform="translate(-58.379 -55.998)"/>
                <path id="패스_3026" d="M2871.16 718.575c11.511-4.925 15.4 5.486 17.453 16.506 2.6 13.963 4.1 24.945 4.411 38.13.193 8.262 4.739 34.033-7.63 35.674-10.691 1.417-13.188-26.546-14.907-34.7-1.993-9.448-2.741-21.293-4.4-36.479-1.065-9.726 1.207-17.472 5.077-19.128z" class="cls-12" transform="translate(-53.157 -73.882)"/>
                <path id="패스_3027" fill="none" stroke="#212d43" stroke-linecap="round" stroke-linejoin="round" stroke-width="4.204px" d="M3075.66 934.773a7.855 7.855 0 0 1-4.686-4.883l-29.724-89.916a17.224 17.224 0 0 0-16.353-11.817h-189.685a17.223 17.223 0 0 0-15.943 10.706c-8.448 20.666-26.87 65.736-34.852 85.26a9.815 9.815 0 0 0 5.612 12.893l54.923 20.78a11.812 11.812 0 0 0 15.1-6.553l34.578-84.012a17.219 17.219 0 0 1 15.926-10.667h189.715a17.223 17.223 0 0 1 16.352 11.816l26.516 80.214a6.671 6.671 0 0 1-8.687 8.338l-58.8-22.158z" transform="translate(-35.579 -97.604)"/>
                <path id="패스_3028" fill="#b1a3ab" fill-rule="evenodd" d="M2832.245 829.556a2.462 2.462 0 0 1 .766-4.8l210.642-.285a2.47 2.47 0 0 1 .776.123l76.108 25.132a2.462 2.462 0 0 1-.772 4.8l-211.68-.108a2.434 2.434 0 0 1-.769-.124l-75.07-24.738z" transform="translate(-45.609 -96.815)"/>
                <path id="패스_3029" d="M2886.069 807.708c-7.1-1.034-10.088-13.337-5.681-25.568 5.681-15.765 8.605-26.426 15.17-42.8 3.554-8.866 6.8-25.632 15.751-23.021 9.387 2.738 3.15 18.036.393 30.944-2.363 11.064-6.722 23.685-11.678 40.8-3.173 10.961-6.05 20.8-13.955 19.645z" class="cls-12" transform="translate(-55.833 -73.609)"/>
                <path id="패스_3030" d="M2887.464 697.163c2.758 10.585 7.689 22.886 16.281 25.005m-11.686-30.641c2.182 9.028 4.905 19.073 10.971 24.567m-4.217-24.451c.842 8.551 5.092 16.461 8.842 23.605m-1.625-20.72c-.183 5.83.947 12.37 5.7 17.258" class="cls-59" transform="translate(-57.79 -68.362)"/>
                <path id="패스_3031" d="M2907.887 728.237a6.811 6.811 0 1 0-3.187-9.09 6.815 6.815 0 0 0 3.187 9.09z" class="cls-60" transform="translate(-61.334 -73.447)"/>
                <path id="패스_3032" fill="none" stroke="#ff9e9c" stroke-linecap="round" stroke-linejoin="round" stroke-width="1.265px" d="M2900.982 694.68a43.034 43.034 0 0 0 3.478 11.362m-9.987-14.08s2.01 9.727 5.041 15.415m-11.34-12.851c0 .4 4.526 15.434 7.749 18.57m-8.387-23.3c-.154.106.139-.351.235-.513a4.256 4.256 0 0 1 .587-.781 2.654 2.654 0 0 1 3.1-.612 6.986 6.986 0 0 1 2.345 3.012c.187.36.345.733.507 1.1a3.429 3.429 0 0 0 .293.592c.161-.161.1-.881.128-1.093a6.733 6.733 0 0 1 .539-2.117c1.038-2.146 3.879-1.519 4.785.241a9.317 9.317 0 0 1 .875 4.058 8.332 8.332 0 0 0 .316 1.635c.021 0 .433-1.761.456-1.875.221-1.1 1.414-3.52 3.441-2.949 3.89 1.1 1.63 7.5 4.308 13.861 1.156 2.748 3.835 5.118 5.4 7.511 2.012 3.064 2.277 7.51 1.446 11.111m-23.148 18.005s-.223.417-1.083 2.013c-1.223 2.267-2.293 4.616-3.414 6.935-5.02 10.4-8.5 21.29-8.064 32.983" transform="translate(-56.31 -67.526)"/>
                <path id="패스_3033" d="M2987.559 828.067c.562.168 59.548 21.619 58.838 21.553-1.132-.106-87.744.243-93.424-.91-.412-.083-43.968-18.543-43.757-18.71.6-.475 78.343-1.934 78.343-1.934z" class="cls-69" transform="translate(-62.444 -97.584)"/>
                <path id="패스_3034" d="M3058.478 836.721c.575-.135 34.967-61.771 34.57-62.4-.226-.359-85.911-7.01-91.68-6.24-.419.056-36.726 67.752-36.531 67.951.551.56 93.641.693 93.641.693z" class="cls-69" transform="translate(-74.349 -84.732)"/>
                <path id="패스_3035" fill="none" stroke="#bbc5d2" stroke-linecap="round" stroke-linejoin="round" stroke-width="1.493px" d="M2983.327 810.521c-.747 1.261-13.542 24.527-17.9 33.614" transform="translate(-74.476 -93.829)"/>
                <path id="패스_3036" fill="#f9eded" fill-rule="evenodd" d="M3049.135 807.057c-1.265 1.54-2.811 5.444-1.321 7.806 1.512 2.4 5.988 3.162 6.95 3.281 4.4.545 8.75-2.545 7.915-7.209-1.292-7.207-11.275-6.641-13.544-3.878z" transform="translate(-91.977 -92.68)"/>
            </g>
            <g filter="url(#사각형_1418)" transform="translate(19989 -19450)">
                <rect id="사각형_1418-2" width="704" height="368" class="cls-45" rx="10" transform="translate(9 261)"/>
            </g>
            <text id="집에서도_오프라인_매장같은_느낌_" fill="#f27070" font-family="TmonMonsoriBlack, TmonMonsori" font-size="35px" letter-spacing="0.01em" transform="translate(20048 -19037)">
                <tspan x="0" y="0">집에서도 오프라인 매장같은 느낌!</tspan>
            </text>
            <text id="라이브_팩토리는_집에서도_오프라인_매장_같은_느낌을_느끼실_수_있습니다._집에서도_쇼핑몰의_원하는_물건을_바로바로_확인하실_수_있습니다." fill="#110101" font-family="NotoSansCJKkr-Regular, Noto Sans CJK KR" font-size="16px" letter-spacing="0.01em" transform="translate(20048 -18974)">
                <tspan x="0" y="0">라이브 팩토리는 집에서도 오프라인 매장 같은 느낌을 느끼실 수 있습니다.</tspan><tspan x="0" y="24">집에서도 쇼핑몰의 원하는 물건을 바로바로 확인하실 수 있습니다.</tspan>
            </text>
            <path id="사각형_1423" fill="#e73828" d="M0 0H273V42H0z" transform="translate(20048 -19149)"/>
            <text id="OFFLINE_EXPERIENCE_" fill="#fff" font-family="NotoSansCJKkr-Bold, Noto Sans CJK KR" font-size="20px" font-weight="700" letter-spacing="-0.02em" transform="translate(20068 -19119)">
                <tspan x="0" y="0">OFFLINE EXPERIENCE </tspan><tspan y="0" font-family="SegoeUIEmoji, Segoe UI Emoji" font-weight="400">👗</tspan>
            </text>
        </g>
        <text id="_오프라인감성_비대면쇼핑_편한쇼핑" fill="#110101" font-family="NanumSquare_acR, NanumSquare_ac" font-size="16px" transform="rotate(90 16414.5 927.5)">
            <tspan x="0" y="0">#</tspan><tspan y="0" class="cls-78">오프라인감성</tspan><tspan y="0"> #</tspan><tspan y="0" class="cls-78">비대면쇼핑</tspan><tspan y="0"> #</tspan><tspan y="0" class="cls-78">편한쇼핑</tspan>
        </text>
    </g>
</svg>
