<svg xmlns="http://www.w3.org/2000/svg" width="79.474" height="31.476" viewBox="0 0 79.474 31.476">
    <defs>
        <clipPath id="clip-path">
            <path id="사각형_104" d="M0 0H79.474V31.476H0z" class="cls-1"/>
        </clipPath>
        <style>
            .cls-1{fill:none}.cls-3{fill:#e73828}.cls-5{fill:#fff}.cls-6{fill:#e54141}
        </style>
    </defs>
    <g id="그룹_1016" transform="translate(-812.609 -140.924)">
        <path id="패스_212" fill="#f27070" d="M80.147 33.4l-69.221-5.01L8.593 8.626h72.786z" transform="translate(807.321 135.615)"/>
        <path id="패스_213" d="M65.667 22H62.85l.785-4.448h1.112l-.612 3.484h1.705z" class="cls-3" transform="translate(773.931 130.125)"/>
        <g id="그룹_434" transform="translate(812.609 140.924)">
            <g id="그룹_433" clip-path="url(#clip-path)">
                <path id="패스_214" d="M72.37 20.741a.51.51 0 0 0 .253-.062l-.031.7a1.007 1.007 0 0 1-.661.241q-.562 0-.729-.259a.669.669 0 0 1-.111-.368 2.1 2.1 0 0 1 .025-.343l.371-2.088h1.05l-.346 1.946a.411.411 0 0 0-.006.068c0 .112.062.167.185.167m-.76-3.188a.808.808 0 0 1 .176-.578.729.729 0 0 1 .547-.182q.519 0 .519.457a.786.786 0 0 1-.176.568.747.747 0 0 1-.553.18q-.513 0-.513-.445" class="cls-3" transform="translate(-43.749 -10.334)"/>
                <path id="패스_215" d="M78.8 21.387a2.237 2.237 0 0 1 .087.689 3.2 3.2 0 0 1-.1.825 2.908 2.908 0 0 1-.318.751 1.627 1.627 0 0 1-.593.575 1.719 1.719 0 0 1-.875.219 1.441 1.441 0 0 1-1.069-.315.911.911 0 0 1-.2-.643 2.5 2.5 0 0 1 .05-.463l.29-1.637h1.05l-.29 1.643a.865.865 0 0 0-.018.167.317.317 0 0 0 .365.352q.643 0 .643-1.347a5.485 5.485 0 0 0-.05-.7l-.018-.117z" class="cls-3" transform="translate(-46.606 -13.162)"/>
                <path id="패스_216" d="M85.548 24.3q-1.285 0-1.285-.89a1.553 1.553 0 0 1 .025-.266l.13-.766a1.366 1.366 0 0 1 .547-.911 1.959 1.959 0 0 1 1.171-.318q1.242 0 1.242.939a1.948 1.948 0 0 1-.025.3l-.074.439h-1.886l-.025.142a.813.813 0 0 0-.012.136q0 .34.4.34a.369.369 0 0 0 .253-.093.352.352 0 0 0 .123-.216l1.026.012q-.2 1.156-1.613 1.155m.742-1.853a.872.872 0 0 0 .025-.195.283.283 0 0 0-.08-.182.321.321 0 0 0-.257-.093.5.5 0 0 0-.321.117.62.62 0 0 0-.2.352z" class="cls-3" transform="translate(-51.856 -13.013)"/>
                <path id="패스_217" d="M42.611 29.788H38.53l-.705 4.05h-2.778L37 22.793h7.7l-.43 2.393h-4.94l-.384 2.209h4.081z" class="cls-5" transform="translate(-21.568 -14.027)"/>
                <path id="패스_218" d="M64.114 37.023a.356.356 0 0 0 .407.4 1.388 1.388 0 0 0 .683-.153L65.127 39a2.559 2.559 0 0 1-1.657.6q-1.688 0-1.871-1.227a2.5 2.5 0 0 1-2.256 1.227q-2.516 0-2.516-2.163a4.778 4.778 0 0 1 .077-.813l.322-1.795a3.816 3.816 0 0 1 1.128-2.2 3.244 3.244 0 0 1 2.3-.82 2.316 2.316 0 0 1 1.925.659l.077-.46h2.332l-.859 4.832a1.1 1.1 0 0 0-.015.184m-4.541-.737a1.838 1.838 0 0 0-.031.383.7.7 0 0 0 .23.483 1.048 1.048 0 0 0 .775.238 1.246 1.246 0 0 0 .943-.43l.46-2.577q-.169-.383-.8-.383a1.252 1.252 0 0 0-1.381 1.135z" class="cls-5" transform="translate(-34.971 -19.574)"/>
                <path id="패스_219" d="M82.834 39.551q-3.191 0-3.191-2.209a3.839 3.839 0 0 1 .062-.66l.322-1.9a3.307 3.307 0 0 1 1.343-2.256 4.76 4.76 0 0 1 2.784-.8q3.268 0 3.268 2.271a3.132 3.132 0 0 1-.115.882 1.485 1.485 0 0 1-.238.529l-.123.154h-2.609a1.031 1.031 0 0 0 .383-.8.732.732 0 0 0-.828-.829 1.282 1.282 0 0 0-.843.292 1.433 1.433 0 0 0-.46.89l-.2 1.12a1.491 1.491 0 0 0-.03.292q0 .813 1.012.813a.944.944 0 0 0 .606-.215.794.794 0 0 0 .315-.475l2.546.031q-.506 2.869-4 2.869" class="cls-5" transform="translate(-49.012 -19.525)"/>
                <path id="패스_220" d="M104.128 35.82a3.479 3.479 0 0 1-2.562-.8 2.115 2.115 0 0 1-.583-1.565 4.187 4.187 0 0 1 .062-.69l1.043-5.937 2.808-1.166-.445 2.562h4.234l-.383 2.163h-4.234l-.307 1.734a2.567 2.567 0 0 0-.061.522q0 .966.92.966a1.011 1.011 0 0 0 .821-.414 2.428 2.428 0 0 0 .453-1.1h2.546q-.644 3.728-4.311 3.728" class="cls-5" transform="translate(-62.145 -15.794)"/>
                <path id="패스_221" d="M125.791 31.767a3.76 3.76 0 0 1 2.5.721 1.974 1.974 0 0 1 .66 1.58 3.918 3.918 0 0 1-.077.737l-.322 1.795a3.232 3.232 0 0 1-1.358 2.3 5.273 5.273 0 0 1-2.846.675 4.105 4.105 0 0 1-2.607-.675 1.856 1.856 0 0 1-.614-1.519 4.514 4.514 0 0 1 .076-.782l.323-1.795q.537-3.037 4.264-3.038m.415 3.344a2.1 2.1 0 0 0 .03-.392.965.965 0 0 0-.2-.529.788.788 0 0 0-.7-.291 1.151 1.151 0 0 0-.837.33 1.551 1.551 0 0 0-.429.882l-.2 1.15a2.034 2.034 0 0 0-.031.392.9.9 0 0 0 .2.514.8.8 0 0 0 .7.276 1.122 1.122 0 0 0 .836-.345 1.586 1.586 0 0 0 .429-.836z" class="cls-5" transform="translate(-74.542 -19.549)"/>
                <path id="패스_222" d="M149.725 33.547a3.34 3.34 0 0 1-.522 1.734l-.169.215h-2.316a1.141 1.141 0 0 0 .383-.875.613.613 0 0 0-.177-.453.655.655 0 0 0-.483-.176 1.109 1.109 0 0 0-.905.522l-.859 4.847h-2.607l1.3-7.379h2.43l-.184 1.028a2.544 2.544 0 0 1 2.117-1.243 2.1 2.1 0 0 1 1.5.475 1.718 1.718 0 0 1 .5 1.3" class="cls-5" transform="translate(-87.43 -19.549)"/>
                <path id="패스_223" d="M164.446 36.406a3.343 3.343 0 0 0-.046.552q0 .737.828.737a1.469 1.469 0 0 0 1.12-.475l.859-4.894h2.608l-1.35 7.625a5.35 5.35 0 0 1-1.542 3.084 3.9 3.9 0 0 1-2.754 1.135 3.494 3.494 0 0 1-2.232-.567 1.842 1.842 0 0 1-.683-1.488 2.826 2.826 0 0 1 1.611-2.316 1.412 1.412 0 0 1-1.1-.874 2.355 2.355 0 0 1-.138-.829 5.825 5.825 0 0 1 .077-.936l.859-4.832h2.608zm.077 5.569q1 0 1.3-1.81l.153-.89q-2.133 1-2.133 2.01a.706.706 0 0 0 .177.5.643.643 0 0 0 .5.192" class="cls-5" transform="translate(-99.236 -19.893)"/>
                <path id="패스_224" d="M107.9 18.419a2.505 2.505 0 0 0-1.938.917l.445.442a1.881 1.881 0 0 1 2.986 0l.445-.442a2.5 2.5 0 0 0-1.938-.917" class="cls-5" transform="translate(-65.207 -11.335)"/>
                <path id="패스_225" d="M106.758 15.822a3.5 3.5 0 0 0-2.649 1.21l.427.425a2.9 2.9 0 0 1 4.444 0l.427-.425a3.5 3.5 0 0 0-2.649-1.21" class="cls-5" transform="translate(-64.069 -9.737)"/>
                <path id="패스_226" d="M109.065 21.075a1.484 1.484 0 0 0-1.207.622l.45.447a.865.865 0 0 1 1.515 0l.45-.447a1.484 1.484 0 0 0-1.207-.622" class="cls-5" transform="translate(-66.376 -12.97)"/>
                <path id="패스_227" d="M109.04 56.293h.183v1.651h.7v.177h-.886z" class="cls-6" transform="translate(-67.103 -34.643)"/>
                <path id="패스_228" d="M111.753 56.083a.144.144 0 0 1 0 .287.136.136 0 0 1-.1-.042.143.143 0 0 1 0-.2.136.136 0 0 1 .1-.042m-.087.557h.174v1.352h-.174z" class="cls-6" transform="translate(-68.686 -34.514)"/>
                <path id="패스_229" d="M112.617 57.531h.185l.454.986.448-.986h.187l-.619 1.352h-.032z" class="cls-6" transform="translate(-69.304 -35.404)"/>
                <path id="패스_230" d="M117.451 58.378l.147.077a.8.8 0 0 1-.167.228.657.657 0 0 1-.213.133.748.748 0 0 1-.268.045.646.646 0 0 1-.517-.217.731.731 0 0 1-.187-.49.723.723 0 0 1 .158-.458.647.647 0 0 1 .537-.256.666.666 0 0 1 .552.262.733.733 0 0 1 .15.462h-1.217a.553.553 0 0 0 .151.387.481.481 0 0 0 .359.15.571.571 0 0 0 .2-.036.511.511 0 0 0 .166-.1.8.8 0 0 0 .148-.192m0-.364a.576.576 0 0 0-.1-.222.476.476 0 0 0-.176-.135.538.538 0 0 0-.23-.051.5.5 0 0 0-.342.128.58.58 0 0 0-.158.28z" class="cls-6" transform="translate(-71.539 -35.349)"/>
                <path id="패스_231" d="M123.8 56.558l-.144.111a.784.784 0 0 0-.286-.235.834.834 0 0 0-.367-.08.813.813 0 0 0-.405.1.758.758 0 0 0-.289.282.778.778 0 0 0-.1.4.749.749 0 0 0 .23.558.8.8 0 0 0 .578.224.813.813 0 0 0 .642-.3l.144.109a.911.911 0 0 1-.341.269 1.068 1.068 0 0 1-.457.1.95.95 0 0 1-.757-.319.963.963 0 0 1-.232-.651.905.905 0 0 1 .282-.675.97.97 0 0 1 .7-.274 1.032 1.032 0 0 1 .462.1.9.9 0 0 1 .338.284" class="cls-6" transform="translate(-75.085 -34.569)"/>
                <path id="패스_232" d="M127.87 57.44a.668.668 0 0 1 .518.227.726.726 0 0 1-.011.983.715.715 0 0 1-1.016 0 .725.725 0 0 1-.011-.983.671.671 0 0 1 .519-.227m0 .17a.5.5 0 0 0-.373.16.533.533 0 0 0-.156.388.551.551 0 0 0 .071.273.507.507 0 0 0 .192.2.547.547 0 0 0 .531 0 .511.511 0 0 0 .192-.2.551.551 0 0 0 .071-.273.535.535 0 0 0-.156-.388.5.5 0 0 0-.372-.16" class="cls-6" transform="translate(-78.257 -35.349)"/>
                <path id="패스_233" d="M131.467 57.475h.174v.233a.68.68 0 0 1 .187-.189.533.533 0 0 1 .278-.08.464.464 0 0 1 .187.039.4.4 0 0 1 .144.1.561.561 0 0 1 .1.183.649.649 0 0 1 .217-.242.515.515 0 0 1 .28-.083.437.437 0 0 1 .247.071.423.423 0 0 1 .16.2 1.06 1.06 0 0 1 .052.381v.738h-.178v-.738a.964.964 0 0 0-.031-.3.267.267 0 0 0-.106-.131.316.316 0 0 0-.179-.05.391.391 0 0 0-.231.075.425.425 0 0 0-.153.2 1.255 1.255 0 0 0-.048.415v.53h-.174v-.692a1.181 1.181 0 0 0-.03-.332.275.275 0 0 0-.106-.141.309.309 0 0 0-.18-.053.388.388 0 0 0-.225.073.431.431 0 0 0-.155.2 1.057 1.057 0 0 0-.05.377v.573h-.174z" class="cls-6" transform="translate(-80.905 -35.349)"/>
                <path id="패스_234" d="M137.476 57.475h.174v.233a.68.68 0 0 1 .187-.189.533.533 0 0 1 .278-.08.464.464 0 0 1 .187.039.4.4 0 0 1 .144.1.56.56 0 0 1 .1.183.649.649 0 0 1 .217-.242.515.515 0 0 1 .28-.083.437.437 0 0 1 .247.071.423.423 0 0 1 .16.2 1.059 1.059 0 0 1 .052.381v.738h-.178v-.738a.965.965 0 0 0-.031-.3.268.268 0 0 0-.106-.131.316.316 0 0 0-.179-.05.391.391 0 0 0-.231.075.426.426 0 0 0-.153.2 1.256 1.256 0 0 0-.048.415v.53h-.176v-.692a1.181 1.181 0 0 0-.03-.332.275.275 0 0 0-.106-.141.309.309 0 0 0-.18-.053.388.388 0 0 0-.225.073.431.431 0 0 0-.155.2 1.057 1.057 0 0 0-.05.377v.573h-.174z" class="cls-6" transform="translate(-84.603 -35.349)"/>
                <path id="패스_235" d="M144.52 58.378l.146.077a.8.8 0 0 1-.167.228.657.657 0 0 1-.213.133.748.748 0 0 1-.268.045.646.646 0 0 1-.517-.217.731.731 0 0 1-.187-.49.723.723 0 0 1 .158-.458.647.647 0 0 1 .537-.256.666.666 0 0 1 .552.262.733.733 0 0 1 .15.462h-1.217a.553.553 0 0 0 .151.387.481.481 0 0 0 .359.15.571.571 0 0 0 .2-.036.511.511 0 0 0 .166-.1.8.8 0 0 0 .148-.192m0-.364a.577.577 0 0 0-.1-.222.476.476 0 0 0-.176-.135.538.538 0 0 0-.23-.051.5.5 0 0 0-.342.128.58.58 0 0 0-.158.28z" class="cls-6" transform="translate(-88.197 -35.349)"/>
                <path id="패스_236" d="M147.418 57.475h.178v.2a.626.626 0 0 1 .168-.175.332.332 0 0 1 .184-.058.317.317 0 0 1 .154.046l-.091.147a.242.242 0 0 0-.092-.023.251.251 0 0 0-.168.072.452.452 0 0 0-.123.222 2.131 2.131 0 0 0-.032.467v.458h-.178z" class="cls-6" transform="translate(-90.721 -35.349)"/>
                <path id="패스_237" d="M150.592 57.756l-.138.086a.579.579 0 0 0-.488-.238.563.563 0 0 0-.41.159.517.517 0 0 0-.163.386.548.548 0 0 0 .075.278.524.524 0 0 0 .206.2.623.623 0 0 0 .78-.165l.138.09a.648.648 0 0 1-.26.227.828.828 0 0 1-.372.081.735.735 0 0 1-.532-.2.663.663 0 0 1-.212-.5.709.709 0 0 1 .1-.365.7.7 0 0 1 .271-.263.792.792 0 0 1 .387-.095.821.821 0 0 1 .259.041.706.706 0 0 1 .212.107.575.575 0 0 1 .148.168" class="cls-6" transform="translate(-91.828 -35.349)"/>
                <path id="패스_238" d="M154.5 58.378l.147.077a.8.8 0 0 1-.167.228.657.657 0 0 1-.213.133.748.748 0 0 1-.268.045.646.646 0 0 1-.517-.217.731.731 0 0 1-.187-.49.723.723 0 0 1 .158-.458.647.647 0 0 1 .537-.256.666.666 0 0 1 .552.262.733.733 0 0 1 .15.462h-1.217a.553.553 0 0 0 .151.387.481.481 0 0 0 .359.15.57.57 0 0 0 .2-.036.511.511 0 0 0 .166-.1.8.8 0 0 0 .148-.192m0-.364a.576.576 0 0 0-.1-.222.476.476 0 0 0-.176-.135.538.538 0 0 0-.23-.051.5.5 0 0 0-.342.128.58.58 0 0 0-.158.28z" class="cls-6" transform="translate(-94.337 -35.349)"/>
                <path id="패스_239" d="M19.783 16.52H16.8a1.156 1.156 0 1 1 0-2.311h2.983a1.156 1.156 0 0 1 0 2.311" class="cls-3" transform="translate(-9.627 -8.744)"/>
                <path id="패스_240" fill="none" stroke="#fff" stroke-miterlimit="10" stroke-width="0.256px" d="M19.783 16.52H16.8a1.156 1.156 0 1 1 0-2.311h2.983a1.156 1.156 0 0 1 0 2.311z" transform="translate(-9.627 -8.744)"/>
                <path id="패스_241" d="M18.54 16.83v-1.156h.16v1.033h.52v.123z" class="cls-5" transform="translate(-11.41 -9.646)"/>
                <path id="사각형_103" d="M0 0H0.164V1.156H0z" class="cls-5" transform="translate(7.983 6.028)"/>
                <path id="패스_242" d="M22.078 16.83l-.437-1.156h.164l.358.946.346-.946h.143l-.42 1.156z" class="cls-5" transform="translate(-13.318 -9.646)"/>
                <path id="패스_243" d="M24.676 16.83v-1.156h.646v.126h-.482v.371h.4v.122h-.4v.418h.516v.123z" class="cls-5" transform="translate(-15.185 -9.646)"/>
                <path id="패스_244" fill="#e05555" d="M14.642 60.027l15.345 7.754v-6.649z" transform="translate(-9.011 -36.941)"/>
            </g>
        </g>
        <path id="사각형_105" d="M0 0H79.474V31.476H0z" class="cls-1" transform="translate(812.609 140.924)"/>
    </g>
</svg>
