<svg xmlns="http://www.w3.org/2000/svg" width="1920" height="350" viewBox="0 0 1920 350">
    <defs>
        <clipPath id="clip-path">
            <path id="SVGID" d="M1109.316 383.394c15.69-1.143 26.412 2 31.42 7.147 4.941 5.077 4.479 9.909 6.979 19.016 1.525 5.551 5.742 16.443 5.2 22.375-.75 8.262-4.276 14.692-4.875 22.9a154.9 154.9 0 0 1-2.515 19.155c-1.762 6.666-51.819 5.262-52.914 1.371-1.267-4.5 2.637-12.681-.617-20.513-3.859-9.288-13.158-22.729-16.133-36.89-1.533-7.3-.447-20.761 3.631-25.123 5.261-5.625 18.015-8.578 29.819-9.439z" class="cls-1" transform="translate(-1075.202 -383.16)"/>
        </clipPath>
        <clipPath id="clip-path-2">
            <path id="SVGID-2" d="M1109.064 347.447c-3.138 2.955-2.42 16.753-2.684 22.725-.194 4.38-.3 8.747 1.1 13.106 1.237 3.844 3.377 7.88 10.3 8.271 6.855.388 10.994-3.6 12.158-7.345 1.216-3.908 1.088-6.807 1.4-10.871.34-4.419.987-17.136-.825-21.319-3.375-7.8-14.273-11.319-21.448-4.566z" class="cls-1" transform="translate(-1106.266 -343.867)"/>
        </clipPath>
        <clipPath id="clip-path-3">
            <path id="SVGID-3" d="M1109.271 325.254a26.606 26.606 0 0 1 11.678-16.219c8.087-4.66 18.7-1.349 23.931 6.194 6.43 9.271 4.295 23.307 2.048 33.686-2 9.254-8.465 15.974-18.044 17.032a16.339 16.339 0 0 1-6.605-.3c-4.392-1.363-8.407-5.064-11.057-8.711-6.284-8.646-3.572-23.7-1.951-31.679z" class="cls-1" transform="translate(-1107.275 -306.888)"/>
        </clipPath>
        <clipPath id="clip-path-4">
            <path id="SVGID-4" d="M1110.137 337.622a13.234 13.234 0 0 0-1.728-4.381 7.179 7.179 0 0 0-2.25-2.1c-2.715-1.656-5.309-.173-6.472 2.618a8.815 8.815 0 0 0 .507 8.016c1.516 2.42 5.126 3.537 7.463 1.611l2.48-5.761z" class="cls-1" transform="translate(-1098.962 -330.444)"/>
        </clipPath>
        <clipPath id="clip-path-5">
            <path id="SVGID-5" d="M1134.947 377.557c0 .1 0 .192-.006.289-.338 7.935-8.878 12.41-14.747 6.016-.669-.729-2.13-2.859-2.732-3.642a6.961 6.961 0 0 1-.564-.8c-.323-.57-.6-1.162-.883-1.754-.683-1.436-1.574-3.382-2.23-4.944-.418-1-.694-1.671-1.013-2.669a1.531 1.531 0 0 1-.087-.589.865.865 0 0 1 .652-.439 2.3 2.3 0 0 1 1.734.289 6.231 6.231 0 0 1 1.469 1.225c-.243-4-.223-6.475.281-8.595a24.232 24.232 0 0 1 1.843-5.875.706.706 0 0 1 .632-.232c.292.043.541.128.632.486a10.846 10.846 0 0 1 .144 1.788c.051 1.019-.013 3.378.023 3.13.089-.62.173-1.241.292-1.855a20.456 20.456 0 0 1 1.323-4.329 8.925 8.925 0 0 1 1.012-1.707 1.738 1.738 0 0 1 .468-.5 1.08 1.08 0 0 1 .814.084.652.652 0 0 1 .445.571 6.762 6.762 0 0 1-.235 1.335 23.222 23.222 0 0 0-.3 2.684c0 .045-.218 3.394-.21 3.641s.208-1.968.255-2.163a22.373 22.373 0 0 1 .6-2.306 10.641 10.641 0 0 1 1-2.165 6.131 6.131 0 0 1 .79-1.142 1.239 1.239 0 0 1 1.276-.316.892.892 0 0 1 .264.188 1.823 1.823 0 0 1 .32 1.22 23.255 23.255 0 0 1-.447 3.94 13.935 13.935 0 0 0-.179 3.035c.177-.2.958-3.6 1.236-4.239.154-.354.333-.7.514-1.038a4.721 4.721 0 0 1 1.559-2 1.911 1.911 0 0 1 1.532-.075 1.041 1.041 0 0 1 .791 1.182c-.133.725-1.042 3.622-1.4 6.2-.164 1.2 1.379 4.666 2.239 8.167a26.355 26.355 0 0 1 .89 7.906z" class="cls-1" transform="translate(-1112.673 -352.799)"/>
        </clipPath>
        <clipPath id="clip-path-6">
            <path id="SVGID-6" fill="none" d="M1068.039 591.206c-.05.063.743 4.761.791 5.063.763 4.752 3.194 16.287 2.489 19.441-.484 2.168-2.914 4.616-2.456 6.871.45 2.222 3.49 3.279 5.405 3.533 4.554.6 11.941-.76 15.535-3.8a8.941 8.941 0 0 0 1.475-1.57c3.112-4.288-2.38-6.336-3.7-9.984-1.29-3.587-2.353-14.29-4.191-16.341-1.208-1.349-13.822-3.32-15.357-3.208z" transform="translate(-1068.035 -591.202)"/>
        </clipPath>
        <style>
            .cls-1{fill:none;clip-rule:evenodd}.cls-4{fill:#f27070}.cls-10,.cls-11,.cls-12,.cls-16,.cls-18,.cls-19,.cls-21,.cls-23,.cls-26,.cls-28,.cls-33,.cls-35,.cls-37,.cls-4,.cls-5,.cls-9{fill-rule:evenodd}.cls-5{fill:#eb5d5d}.cls-9{fill:#f6a783}.cls-10{fill:#ffbdbc}.cls-11{fill:#9faf68}.cls-12{fill:#ffbebc}.cls-16{fill:#ff9e9c}.cls-18{fill:#403642}.cls-19{fill:#403641}.cls-21{fill:#ff7976}.cls-23{fill:#ff9e9d}.cls-26{fill:#9fc8cc}.cls-28{fill:#fff}.cls-33{fill:#ea9a43}.cls-35{fill:#d25e5e}.cls-37{fill:#110101}
        </style>
    </defs>
    <g id="그룹_3246" transform="translate(0 -3800)">
        <path id="사각형_2364" fill="#fff1f1" d="M0 0H1920V350H0z" transform="translate(0 3800)"/>
        <g id="그룹_3217" transform="translate(-13610.791 11518.797)">
            <path id="패스_2772" d="M16.7 24.918c3.517 6.229 10.549 6.229 14.066 3.114s3.517-9.343 0-15.573C28.308 7.787 21.978 3.115 16.7 0 11.429 3.115 5.1 7.787 2.638 12.458c-3.517 6.23-3.517 12.46 0 15.573s10.549 3.115 14.062-3.113z" class="cls-4" transform="rotate(169 7397.991 -3041.438)"/>
            <path id="패스_2773" d="M994.688 552.273a5.343 5.343 0 0 0-7.389-3.844c-2.43 1.213-3.362 4.691-2.33 8.7.675 2.977 3.511 6.533 5.99 9.062 3.412-.95 7.645-2.612 9.719-4.852 2.9-2.952 3.828-6.431 2.33-8.7a5.342 5.342 0 0 0-8.321-.366z" class="cls-4" transform="translate(13161.623 -8196.229)"/>
            <path id="패스_2774" d="M1176.522 734.449a6.686 6.686 0 0 0-10.418.319c-1.912 2.81-.8 7.177 2.771 10.92 2.558 2.838 7.827 4.988 12.08 6.233 3.144-3.122 6.751-7.525 7.647-11.238 1.357-4.994.249-9.362-2.771-10.92a6.686 6.686 0 0 0-9.309 4.686z" class="cls-4" transform="translate(13157.254 -8311.174)"/>
            <g id="그룹_2875" transform="translate(13970.791 -7672.986)">
                <path id="패스_2838" d="M1106.223 326.643a79.494 79.494 0 1 1-79.493 79.495 79.532 79.532 0 0 1 79.493-79.495z" class="cls-5" transform="translate(-1014.054 -303.742)"/>
                <path id="패스_2839" fill="none" stroke="#f27070" stroke-linecap="round" stroke-linejoin="round" stroke-width="1.088px" d="M1091.752 482.721c-103.111-11.048-118.2-160.063 16.126-160.063 94.46 0 120.674 149.514 8.244 158l-24.37 2.063z" transform="translate(-1010.777 -302.924)"/>
                <g id="그룹_2870" transform="translate(23.368)">
                    <path id="패스_2840" fill="#6f5e68" fill-rule="evenodd" d="M1040.848 338.773a.534.534 0 0 0-.437.276 1.9 1.9 0 0 0 0 1.789.484.484 0 0 0 .874 0 1.9 1.9 0 0 0 0-1.789.534.534 0 0 0-.437-.276zm0 .382c.048 0 .082.048.118.1a1.537 1.537 0 0 1 0 1.371c-.036.056-.069.1-.118.1s-.081-.047-.118-.1a1.537 1.537 0 0 1 0-1.371c.037-.055.069-.1.118-.1z" transform="translate(-1040.187 -306.233)"/>
                    <path id="패스_2841" fill="#d6702e" fill-rule="evenodd" d="M1164.573 390.557a198.845 198.845 0 0 1-6.872-24.1c-2.5-11.768-12.653-21.95-13.271-23.129-3.595-6.859.659-15.311.173-18.529-.957-6.329-7.625-12.677-11.52-17.82-6.153-8.127-18.984-11.2-28.379-7.784a33.1 33.1 0 0 0-13.107 9.29 40.209 40.209 0 0 0-6.382 9.916c-1.893 4.075-7.873 10.13-9.073 17.212-1.018 6.009 2.766 13.021 1.117 17.413-.53 1.41-12.9 6.369-14.214 16.217-1 7.433-9.564 20.8-9.564 20.8s42.011 5.052 60.527 5.137c16.925.078 50.564-4.625 50.564-4.625z" transform="translate(-1042.918 -297.82)"/>
                    <path id="패스_2842" d="M1154.7 354.865c.311 4.692 1.932 8.914 3.664 13.089 1.763 4.251 3.641 8.453 4.432 13.033a27.355 27.355 0 0 1-.351 11.37 29.957 29.957 0 0 0-.675 11.072.448.448 0 1 1-.888.114 30.758 30.758 0 0 1 .687-11.364 26.56 26.56 0 0 0 .346-11.04c-.78-4.513-2.639-8.652-4.376-12.842-1.769-4.264-3.413-8.581-3.73-13.373a.448.448 0 0 1 .894-.059z" class="cls-9" transform="translate(-1063.529 -309.453)"/>
                    <path id="패스_2843" d="M1148.489 367.905a37.266 37.266 0 0 1 2.64 19.608c-.612 5.637-1.836 11.319-1.057 19.569a.448.448 0 1 1-.891.084c-.787-8.327.44-14.061 1.057-19.75a36.454 36.454 0 0 0-2.581-19.181.448.448 0 1 1 .832-.331z" class="cls-9" transform="translate(-1062.259 -312.16)"/>
                    <path id="패스_2844" d="M1116.2 300.806c-6.441 1.336-11.833 3.568-16.475 7.89-6.538 6.088-10.112 16.509-10.754 25.644-.391 5.569 1.118 11.219-.428 16.69-1.313 4.647-4.322 8.174-7.42 11.642-3.014 3.376-6.113 6.7-7.69 11.017-3.506 9.613-1.512 7.6-3.582 17.327a.448.448 0 1 1-.876-.187c2.084-9.8.085-7.766 3.616-17.447 1.616-4.43 4.773-7.846 7.863-11.307 3.007-3.367 5.951-6.778 7.226-11.288 1.53-5.412.01-11 .4-16.509.656-9.351 4.345-20 11.037-26.237 4.765-4.437 10.293-6.74 16.9-8.111a.448.448 0 1 1 .182.876z" class="cls-9" transform="translate(-1046.099 -298.251)"/>
                    <path id="패스_2845" d="M1100.1 349.051a80.851 80.851 0 0 0 .25 9.126 23.966 23.966 0 0 1-.976 9.172c-1.678 4.676-5.021 8.476-7.768 12.524a49.144 49.144 0 0 0-8.069 20.15.448.448 0 1 1-.886-.13 50.051 50.051 0 0 1 8.214-20.523c2.706-3.986 6.013-7.719 7.666-12.323a23.08 23.08 0 0 0 .924-8.832 81.766 81.766 0 0 1-.248-9.23.448.448 0 1 1 .893.066z" class="cls-9" transform="translate(-1048.91 -308.246)"/>
                    <path id="패스_2846" d="M1154.052 314.893c6.545 7.219 8.7 16.061 6.747 25.482-.81 3.919-1.864 7.836-.8 11.814 1.02 3.8 3.093 7.03 5.2 10.221 2.159 3.265 4.357 6.494 5.579 10.228 1.635 5 1.479 16.745 1.077 21.756a.448.448 0 1 1-.892-.072c.4-4.93.573-16.49-1.035-21.406-1.2-3.657-3.361-6.815-5.475-10.013-2.164-3.271-4.276-6.585-5.321-10.483-1.1-4.117-.053-8.173.786-12.228 1.889-9.13-.191-17.7-6.534-24.7a.448.448 0 0 1 .664-.6z" class="cls-9" transform="translate(-1063.419 -301.297)"/>
                    <path id="패스_2847" d="M1143.249 395.3c7.2-7.686 13.72-.983 19.023 6.813a189.509 189.509 0 0 1 16.29 27.878c2.942 6.3 17.415 26.017 6.439 33.036-9.511 6.083-19.387-18.966-23.47-24.667-4.729-6.6-9.31-15.474-15.725-26.61-4.109-7.131-4.977-13.866-2.556-16.45z" class="cls-10" transform="translate(-1061.085 -317.149)"/>
                    <path id="패스_2848" d="M1169.428 413.429c-.141-1.731-6.648-12.445-8.643-10.216-.649.725-.9 1.77-3.041 2.13-2.37.4-3.113-.871-5.472-.086-1.732.576-2.347 2.568-3.988 3.263-.764.323-2.293-.133-4.526.441-2.04.524-1.744 2.8-4.465 2.87-1.767.043-.21 3.158.427 4.132 2.225 3.4 1.905 10.284 6.023 12.181 2.984 1.375 4.636-2.188 7.135-2.831 1.636-.42 3.354.16 4.952-.519 1.932-.821 2.488-2.938 4.015-4.22s3.81-.88 5.239-2.269c.859-.834.625-2.008 1.14-3 .286-.549 1.256-1.226 1.2-1.88z" class="cls-11" transform="translate(-1060.38 -319.409)"/>
                    <path id="패스_2849" d="M1109.316 383.394c15.69-1.143 26.412 2 31.42 7.147 4.941 5.077 4.479 9.909 6.979 19.016 1.525 5.551 5.742 16.443 5.2 22.375-.75 8.262-4.276 14.692-4.875 22.9a154.9 154.9 0 0 1-2.515 19.155c-1.762 6.666-51.819 5.262-52.914 1.371-1.267-4.5 2.637-12.681-.617-20.513-3.859-9.288-13.158-22.729-16.133-36.89-1.533-7.3-.447-20.761 3.631-25.123 5.261-5.625 18.015-8.578 29.819-9.439z" class="cls-12" transform="translate(-1047.38 -315.352)"/>
                    <g id="그룹_2861" transform="translate(27.822 67.808)">
                        <g id="그룹_2860" clip-path="url(#clip-path)">
                            <path id="패스_2850" d="M1147.266 402.645c.072.06-3.62 1.938-3.828 2.02a47.689 47.689 0 0 1-14.095 2.814c-13.515.951-27.383.02-40.847-1.274-3.258-.313-13.8-2.784-16.644-1.567-2.747 1.177-1.084 12.642-.8 14.777 1.622 12.273 5.314 33.043 11.557 43.58 3.807 6.425 11.178 8.347 18.019 9.847 16.15 3.54 38.592 5.5 50.85-8.316 10.252-11.556-4.21-61.881-4.21-61.881z" class="cls-11" transform="translate(-1074.194 -387.163)"/>
                        </g>
                    </g>
                    <path id="패스_2851" fill="#75894e" fill-rule="evenodd" d="M1164.164 405.268c.36 1.462 1.081 4.384 1.351 5.517 1.1 4.61 1.758 6.314 2.582 9.7a.44.44 0 0 1-.856.208c-.824-3.387-1.487-5.092-2.584-9.7-.269-1.131-.989-4.051-1.348-5.51a.44.44 0 1 1 .855-.211z" transform="translate(-1065.479 -319.824)"/>
                    <path id="패스_2852" d="M1109.064 347.447c-3.138 2.955-2.42 16.753-2.684 22.725-.194 4.38-.3 8.747 1.1 13.106 1.237 3.844 3.377 7.88 10.3 8.271 6.855.388 10.994-3.6 12.158-7.345 1.216-3.908 1.088-6.807 1.4-10.871.34-4.419.987-17.136-.825-21.319-3.375-7.8-14.273-11.319-21.448-4.566z" class="cls-10" transform="translate(-1053.762 -307.28)"/>
                    <g id="그룹_2863" transform="translate(52.504 36.588)">
                        <g id="그룹_2862" clip-path="url(#clip-path-2)">
                            <path id="패스_2853" d="M1135.6 375.165c-.28 2.052-4.616 4.566-11.335 3.523-7.792-1.21-11.95-6.021-15.252-13.173-1.189-2.576-2.588-13.061-1.207-14.917s6.4-.392 9.493 3.781c1.859 2.5 4.388 7.509 6.292 9.969 1.488 1.924 12.918 4.156 12.01 10.817z" class="cls-16" transform="translate(-1106.464 -345.087)"/>
                        </g>
                    </g>
                    <path id="패스_2854" d="M1109.271 325.254a26.606 26.606 0 0 1 11.678-16.219c8.087-4.66 18.7-1.349 23.931 6.194 6.43 9.271 4.295 23.307 2.048 33.686-2 9.254-8.465 15.974-18.044 17.032a16.339 16.339 0 0 1-6.605-.3c-4.392-1.363-8.407-5.064-11.057-8.711-6.284-8.646-3.572-23.7-1.951-31.679z" class="cls-10" transform="translate(-1053.97 -299.683)"/>
                    <g id="그룹_2865" transform="translate(53.305 7.205)">
                        <g id="그룹_2864" clip-path="url(#clip-path-3)">
                            <path id="패스_2855" d="M1148.952 341.539a2 2 0 1 0 1.816 2.16 2 2 0 0 0-1.816-2.16z" class="cls-18" transform="translate(-1115.392 -314.005)"/>
                            <path id="패스_2856" d="M1128.007 339.727a2 2 0 1 0 1.816 2.16 2 2 0 0 0-1.816-2.16z" class="cls-18" transform="translate(-1111.089 -313.633)"/>
                            <path id="패스_2857" d="M1153.34 335.8a18.751 18.751 0 0 0-3.6-1.01 6.9 6.9 0 0 0-2.692.109 3.794 3.794 0 0 0-2.425 2.554 22.457 22.457 0 0 0-.873 6.442c-.048.856-.033 1.714-.027 2.57a9.166 9.166 0 0 1-.537 4.126 3.944 3.944 0 0 1-2.1 2.01 3.309 3.309 0 0 1-2.893-.326.715.715 0 1 1 .724-1.232 1.925 1.925 0 0 0 1.674.219 2.537 2.537 0 0 0 1.319-1.309 7.71 7.71 0 0 0 .387-3.478c-.006-.886-.021-1.773.029-2.659a24.007 24.007 0 0 1 .963-6.866 5.163 5.163 0 0 1 3.364-3.422 8.374 8.374 0 0 1 3.272-.154 20.234 20.234 0 0 1 3.881 1.074.715.715 0 1 1-.46 1.353z" class="cls-18" transform="translate(-1113.553 -312.311)"/>
                            <path id="패스_2858" d="M1134.305 333.123a13.986 13.986 0 0 0-7.511-.634.714.714 0 1 1-.2-1.415 15.354 15.354 0 0 1 8.243.724.714.714 0 1 1-.534 1.325z" class="cls-18" transform="translate(-1111.118 -311.807)"/>
                            <path id="패스_2859" d="M1144.992 363.3a11.183 11.183 0 0 1-8.05 4.156 11.676 11.676 0 0 1-7.423-1.592.7.7 0 0 1 .822-1.139 10.206 10.206 0 0 0 6.475 1.333 9.777 9.777 0 0 0 7.058-3.607.7.7 0 0 1 1.118.849z" class="cls-19" transform="translate(-1111.785 -318.246)"/>
                        </g>
                    </g>
                    <path id="패스_2860" d="M1110.137 337.622a13.234 13.234 0 0 0-1.728-4.381 7.179 7.179 0 0 0-2.25-2.1c-2.715-1.656-5.309-.173-6.472 2.618a8.815 8.815 0 0 0 .507 8.016c1.516 2.42 5.126 3.537 7.463 1.611l2.48-5.761z" class="cls-10" transform="translate(-1052.262 -304.522)"/>
                    <g id="그룹_2867" transform="translate(46.7 25.922)">
                        <g id="그룹_2866" clip-path="url(#clip-path-4)">
                            <path id="패스_2861" d="M1106.348 336.844a6.038 6.038 0 0 1 1.175 1.757c.087.189.167.382.239.577l.059.161a.837.837 0 0 0 .054.136.446.446 0 0 0 .294.218.445.445 0 0 0 .539-.42.469.469 0 0 0-.013-.121c-.006-.025-.016-.05-.025-.076l-.04-.112c-.045-.126-.094-.25-.145-.373a7.985 7.985 0 0 0-.916-1.664 5.689 5.689 0 0 0-1-1.069 4.39 4.39 0 0 0-1.118-.671 3.783 3.783 0 0 0-.571-.182 2.99 2.99 0 0 0-.987-.078 2.033 2.033 0 0 0-.71.2c-.048.024-.1.05-.141.079a.719.719 0 0 0-.1.07.448.448 0 0 0-.143.409.454.454 0 0 0 .04.12.436.436 0 0 0 .089.122.451.451 0 0 0 .355.123.468.468 0 0 0 .181-.06l.059-.037a1.168 1.168 0 0 1 .128-.066 1.2 1.2 0 0 1 .389-.095 2.1 2.1 0 0 1 .853.133 3.7 3.7 0 0 1 .693.321l.014.008a5.45 5.45 0 0 0-.693.62 4.259 4.259 0 0 0-.393 4.818.444.444 0 0 0 .78-.426 3.346 3.346 0 0 1 .266-3.789 3.935 3.935 0 0 1 .635-.556 1.314 1.314 0 0 1 .148-.079z" class="cls-16" transform="translate(-1099.75 -331.362)"/>
                        </g>
                    </g>
                    <path id="패스_2862" d="M1077.631 399.482c3.737-9.838 12.4-5.161 17.8-1.154a102.077 102.077 0 0 1 17.382 15.6c3.388 3.874 21.093 14.035 13.408 25.826-5.539 8.5-20.079-7.924-24.182-10.758-4.752-3.282-9.844-8.531-16.72-14.806-4.4-4.017-8.947-11.4-7.69-14.707z" class="cls-10" transform="translate(-1047.836 -317.503)"/>
                    <path id="패스_2863" d="M1106.777 404.347c-.5-1.662-9.117-10.769-10.6-8.17-.481.845-.51 1.921-2.524 2.722-2.234.888-3.227-.2-5.367 1.067-1.572.927-1.755 3-3.213 4.028-.678.477-2.27.352-4.332 1.383-1.884.942-1.116 3.108-3.761 3.745-1.719.413.459 3.131 1.287 3.95 2.89 2.857 4.025 9.653 8.449 10.642 3.207.717 4.072-3.114 6.38-4.268 1.511-.756 3.313-.548 4.732-1.548 1.716-1.209 1.814-3.4 3.038-4.97s3.539-1.663 4.644-3.32c.664-1 .189-2.094.485-3.169.165-.6.971-1.463.782-2.091z" class="cls-11" transform="translate(-1047.614 -317.931)"/>
                    <path id="패스_2864" d="M1131.253 439.983c-5.912 1.212-11.3-6.266-10.781-15.68.667-12.135-.175-12.588 1.047-25.371.661-6.921-1.643-15.558 6.125-16.2 8.147-.679 7.709 7.774 8.672 17.2.826 8.079 1 10.238 1.245 23.087.154 8.229.27 15.62-6.308 16.968z" class="cls-10" transform="translate(-1056.674 -315.255)"/>
                    <path id="패스_2865" d="M1121.513 348.25c-4.161 1.155-6.5 5.4-7.062 7.6a21.042 21.042 0 0 0-.688 5.837 12.841 12.841 0 0 0 1.2 5.576c1.963 3.586 6.047 2.686 8.21 1.224 3.665-2.478 5.3-7.117 4.321-12.973-.573-3.434-2.178-8.318-5.985-7.261z" class="cls-21" transform="translate(-1055.301 -308.15)"/>
                    <path id="패스_2866" d="M1134.947 377.557c0 .1 0 .192-.006.289-.338 7.935-8.878 12.41-14.747 6.016-.669-.729-2.13-2.859-2.732-3.642a6.961 6.961 0 0 1-.564-.8c-.323-.57-.6-1.162-.883-1.754-.683-1.436-1.574-3.382-2.23-4.944-.418-1-.694-1.671-1.013-2.669a1.531 1.531 0 0 1-.087-.589.865.865 0 0 1 .652-.439 2.3 2.3 0 0 1 1.734.289 6.231 6.231 0 0 1 1.469 1.225c-.243-4-.223-6.475.281-8.595a24.232 24.232 0 0 1 1.843-5.875.706.706 0 0 1 .632-.232c.292.043.541.128.632.486a10.846 10.846 0 0 1 .144 1.788c.051 1.019-.013 3.378.023 3.13.089-.62.173-1.241.292-1.855a20.456 20.456 0 0 1 1.323-4.329 8.925 8.925 0 0 1 1.012-1.707 1.738 1.738 0 0 1 .468-.5 1.08 1.08 0 0 1 .814.084.652.652 0 0 1 .445.571 6.762 6.762 0 0 1-.235 1.335 23.222 23.222 0 0 0-.3 2.684c0 .045-.218 3.394-.21 3.641s.208-1.968.255-2.163a22.373 22.373 0 0 1 .6-2.306 10.641 10.641 0 0 1 1-2.165 6.131 6.131 0 0 1 .79-1.142 1.239 1.239 0 0 1 1.276-.316.892.892 0 0 1 .264.188 1.823 1.823 0 0 1 .32 1.22 23.255 23.255 0 0 1-.447 3.94 13.935 13.935 0 0 0-.179 3.035c.177-.2.958-3.6 1.236-4.239.154-.354.333-.7.514-1.038a4.721 4.721 0 0 1 1.559-2 1.911 1.911 0 0 1 1.532-.075 1.041 1.041 0 0 1 .791 1.182c-.133.725-1.042 3.622-1.4 6.2-.164 1.2 1.379 4.666 2.239 8.167a26.355 26.355 0 0 1 .89 7.906z" class="cls-10" transform="translate(-1055.079 -309.114)"/>
                    <g id="그룹_2869" transform="translate(57.594 43.684)">
                        <g id="그룹_2868" clip-path="url(#clip-path-5)">
                            <path id="패스_2867" d="M1118.125 381.114a22.611 22.611 0 0 1-1.015-5.707.439.439 0 0 1 .877-.044 21.7 21.7 0 0 0 .97 5.472.439.439 0 1 1-.832.28z" class="cls-16" transform="translate(-1113.584 -357.348)"/>
                            <path id="패스_2868" d="M1121.447 372.828a32.267 32.267 0 0 1-.053-9.312.439.439 0 0 1 .869.128 31.2 31.2 0 0 0 .045 9.013.439.439 0 1 1-.86.172z" class="cls-16" transform="translate(-1114.4 -354.923)"/>
                            <path id="패스_2869" d="M1125.983 372.355a34.944 34.944 0 0 1-.056-8.793.439.439 0 1 1 .875.076 33.87 33.87 0 0 0 .042 8.542.44.44 0 0 1-.861.175z" class="cls-16" transform="translate(-1115.343 -354.927)"/>
                            <path id="패스_2870" d="M1131.545 372.193a20.75 20.75 0 0 1-.758-8.221.439.439 0 0 1 .876.054 19.848 19.848 0 0 0 .709 7.873.439.439 0 1 1-.827.295z" class="cls-16" transform="translate(-1116.376 -355.009)"/>
                        </g>
                    </g>
                    <path id="패스_2871" d="M1113.005 373.647a.318.318 0 0 1 .1-.054 1.369 1.369 0 0 1 .231-.078 1.867 1.867 0 0 1 1.407.246 5.792 5.792 0 0 1 1.363 1.14.44.44 0 0 0 .648-.6 6.625 6.625 0 0 0-1.575-1.309 2.727 2.727 0 0 0-2.063-.334 1.315 1.315 0 0 0-.955.714.866.866 0 0 0-.031.373 3.32 3.32 0 0 0 .111.5c.323 1.011.6 1.7 1.027 2.706.659 1.568 1.553 3.521 2.239 4.962.285.6.57 1.2.9 1.781a7.515 7.515 0 0 0 .6.852c.607.791 2.082 2.938 2.756 3.672a.441.441 0 0 0 .649-.6c-.663-.722-2.11-2.836-2.707-3.613a6.654 6.654 0 0 1-.53-.749c-.318-.56-.592-1.144-.868-1.726-.68-1.431-1.568-3.369-2.222-4.926-.412-.982-.686-1.648-1-2.632-.01-.032-.056-.256-.072-.336z" class="cls-23" transform="translate(-1054.965 -313.179)"/>
                    <path id="패스_2872" d="M1131.863 356.919a16.648 16.648 0 0 0 .208-2.5 3.538 3.538 0 0 0-.1-.89 1.412 1.412 0 0 0-.354-.643 1.363 1.363 0 0 0-.394-.277 1.719 1.719 0 0 0-1.77.414.44.44 0 0 0 .634.611.764.764 0 0 1 .782-.219.477.477 0 0 1 .133.1.659.659 0 0 1 .144.347 3.033 3.033 0 0 1 .044.559 22.808 22.808 0 0 1-.441 3.866c-.052.308-.182 1.539-.226 2.357a3.743 3.743 0 0 0 .018.843.45.45 0 0 0 .362.35.43.43 0 0 0 .434-.152 2.253 2.253 0 0 0 .26-.621c.3-.98.829-3.231 1.048-3.733.149-.343.324-.676.5-1.008a4.274 4.274 0 0 1 1.384-1.826 1.488 1.488 0 0 1 1.174-.041c.356.122.557.377.5.686-.134.727-1.044 3.633-1.4 6.225a5.131 5.131 0 0 0 .261 1.805c.451 1.648 1.386 4.079 1.987 6.527a.44.44 0 1 0 .855-.211c-.518-2.11-1.282-4.208-1.777-5.809a6.582 6.582 0 0 1-.454-2.193c.354-2.575 1.261-5.463 1.394-6.186a1.457 1.457 0 0 0-1.081-1.677 2.337 2.337 0 0 0-1.89.106 5.187 5.187 0 0 0-1.733 2.181c-.176.333-.351.667-.5 1.011z" class="cls-23" transform="translate(-1058.501 -309.053)"/>
                    <path id="패스_2873" fill="#ebe9ea" fill-rule="evenodd" d="M1149.124 326.153a24.116 24.116 0 0 0-.531-5.161c-1.085-5.2-3.585-9.227-8.211-11.949a22.58 22.58 0 0 0-7.787-2.88c-11.471-1.939-18.923 6.02-22.392 13-.78 1.569-2.6 6.738-2.6 6.738a5.253 5.253 0 0 1 1.386 1.031 23.078 23.078 0 0 1 1.642 2.082s6.85-18.75 22.514-17.867c13.16.741 15.983 15.013 15.983 15.013z" transform="translate(-1054.036 -299.473)"/>
                    <path id="패스_2874" d="M1183.144 466.907c3.278 5.067-1.73 12.8-10.688 15.743-11.547 3.789-18.86 6.942-31.213 10.45-6.687 1.9-17.459 7.731-20.885.729-3.593-7.343 8-10.553 16.434-14.876 7.227-3.706 16.37-6.86 28.253-11.756 7.609-3.135 14.452-5.929 18.1-.29z" class="cls-10" transform="translate(-1056.519 -331.89)"/>
                    <path id="패스_2875" d="M1120.17 503.515c.1-.01.191-.022.287-.037 7.853-1.187 11.384-10.159 4.4-15.308-.8-.586-3.071-1.811-3.915-2.325a6.978 6.978 0 0 0-.857-.475c-.6-.259-1.22-.474-1.838-.69-1.5-.524-3.531-1.2-5.154-1.686-1.035-.309-1.736-.512-2.763-.721a1.536 1.536 0 0 0-.594-.024.867.867 0 0 0-.366.7 2.292 2.292 0 0 0 .474 1.694 6.185 6.185 0 0 0 1.375 1.329c-4 .188-6.461.475-8.515 1.2a24.241 24.241 0 0 0-5.644 2.464.7.7 0 0 0-.162.653c.074.287.185.525.551.576a10.787 10.787 0 0 0 1.793-.049c1.019-.058 3.357-.375 3.114-.313-.607.155-1.215.306-1.813.489a20.5 20.5 0 0 0-4.162 1.78 8.943 8.943 0 0 0-1.588 1.19 1.73 1.73 0 0 0-.45.519 1.078 1.078 0 0 0 .171.8.655.655 0 0 0 .616.381 6.86 6.86 0 0 0 1.3-.377 23.1 23.1 0 0 1 2.636-.587c.045-.007 3.352-.582 3.6-.6s-1.935.419-2.122.487a22 22 0 0 0-2.229.842 10.69 10.69 0 0 0-2.045 1.227 6.207 6.207 0 0 0-1.05.908 1.243 1.243 0 0 0-.178 1.3.906.906 0 0 0 .215.242 1.822 1.822 0 0 0 1.247.188 23.193 23.193 0 0 0 3.87-.867 13.858 13.858 0 0 1 3-.5c-.18.2-3.479 1.339-4.082 1.683-.335.191-.657.406-.977.623a4.72 4.72 0 0 0-1.824 1.765 1.912 1.912 0 0 0 .091 1.531 1.04 1.04 0 0 0 1.26.659c.706-.21 3.488-1.425 6.019-2.055 1.17-.291 4.786.87 8.36 1.35a26.358 26.358 0 0 0 7.955.036z" class="cls-10" transform="translate(-1051.307 -335.703)"/>
                </g>
            </g>
            <g id="그룹_2876" transform="translate(14384.427 -7660.663)">
                <path id="패스_2836" d="M901.554 420.917a57.092 57.092 0 1 1-57.093 57.092 57.12 57.12 0 0 1 57.093-57.092z" class="cls-5" transform="translate(-844.426 -410.809)"/>
                <path id="패스_2837" fill="none" stroke="#f27070" stroke-linecap="round" stroke-linejoin="round" stroke-width="0.781px" d="M887.7 534.134c-21.194-4.728-43.6-31.368-43.276-52.206a43.746 43.746 0 0 1 12.992-29.97c8.14-8.222 50.025-27.375 62.175-28.779a36.778 36.778 0 0 1 20.255 3.576c29.146 14.224 29.3 64.21 6.861 89.069-18.867 20.9-41.481 22.22-59.008 18.31z" transform="translate(-844.419 -411.227)"/>
                <g id="그룹_2871" transform="translate(17.599)">
                    <path id="패스_2876" d="M957.82 458.166c-3.744-3.541-6.63-.123-7.355 1.305a12.291 12.291 0 0 0-.195 9.681c2.69 7.61 9.276 14.8 15.477 19.818 3.046 2.462 8.6 4.365 12.425 2.374 3.958-2.06.551-6.8-1.043-9.419-4.12-6.774-15.233-19.905-19.309-23.76z" class="cls-12" transform="translate(-883.578 -418.142)"/>
                    <path id="패스_2877" d="M966.667 493.034c-.018.044 4.548-3.072 8.484-6.123 2.656-2.059 4.978-3.678 4.915-4.289-.069-.67-3.324-5.053-4.35-6.318-3.321-4.094-10.819-13.059-14.086-16.542a4.6 4.6 0 0 0-1.637-1.312c-.691.312-4.021 24.5-1.385 27.6 2.121 2.494 5.976 3.152 8.06 6.984z" class="cls-26" transform="translate(-885.269 -418.519)"/>
                    <path id="패스_2878" d="M883.5 470.256c-.4-8.182 6.228-12.928 7.6-13.7a54.543 54.543 0 0 1 12.966-5.3c12.871-3.325 29.737-2.387 41.42 5.827.874.614.3 7.582-.768 17.605-1.984 18.617-7.194 22.474-5.994 36.609a15.265 15.265 0 0 1-4.869 12.653c-3.15 2.864-22.765 3.477-26.787 3.719-4.3.259-20.994 1.8-24.025-1.3-1.182-1.206 2.619-12.067 3.01-14.633 2.126-13.934-2.121-32.72-2.555-41.491z" class="cls-26" transform="translate(-869.906 -416.674)"/>
                    <path id="패스_2879" fill="#89bfc1" fill-rule="evenodd" d="M922.353 469.836c.342.017-8.933-5.184-9.41-5.551-1.562-1.2-5.375-4.312-7.071-5.316-4.532-2.681-16.413-9.933-8.849-16.855 1.023-.936 10.452-6.656 11.9-6.949 3.637-.733 7.657.1 11.341.057 3.787-.039 7.916-.549 11.587.611 5.3 1.674 11.437 9.861 8.933 14.81a26.738 26.738 0 0 1-6.723 7.539c-2.592 1.872-8.844 10.242-11.712 11.654z" transform="translate(-872.318 -413.673)"/>
                    <path id="패스_2880" d="M927.413 476.323c.017 2.968-.756 7.428-.939 10.382a.381.381 0 1 0 .76.047c.184-2.968.958-7.451.941-10.433a.381.381 0 0 0-.761 0z" class="cls-28" transform="translate(-878.873 -422.112)"/>
                    <path id="패스_2881" d="M916.988 447.631c-1.142.2-3.369-1.874-4.148-2.476-2.691-2.083-5.978-5.107-5.886-8.811.148-5.961 5.819-7.58 8.967-2.475.835 1.353.481 12.288 1.067 13.762z" class="cls-21" transform="translate(-874.863 -412.842)"/>
                    <path id="패스_2882" d="M914.206 452.353c-.061.57 10.978 20.481 13.147 18.5.839-.767 8.615-11.794 9.395-14.467.23-.79.78-2.184-.039-2.82-1.01-.783-2.857-.66-4.048-.739-3.363-.219-15.093-.233-18.455-.474z" class="cls-23" transform="translate(-876.353 -417.267)"/>
                    <path id="패스_2883" d="M915.3 449.944c-1.279-1.945-3.64-15.9-1.915-21.436a14.461 14.461 0 0 1 6.791-7.889c5.617-3.16 14.93-2.415 18.322 3.722 2.51 4.541 1.368 10.138 2.157 15.063.352 2.2.5 5.963-.395 8.163-1.409 3.458-3.234 5.388-5.676 8.171-.208.238-.427.479-.656.714a5.064 5.064 0 0 1-3.2 1.776c-2.655.163-7.222-2.615-9.459-3.878-2.011-1.136-4.65-2.405-5.966-4.406z" class="cls-12" transform="translate(-876.06 -410.372)"/>
                    <path id="패스_2884" d="M914.242 445.531a.071.071 0 0 1-.07-.031c-.543-.579-.977-1.237-1.551-1.8-1.634-1.593-5.6-3.054-6.509.118-.906 3.155 2.505 5.361 4.944 6.41.489.211 2.541 1.305 3.031.737.585-.679.156-4.613.156-5.436z" class="cls-12" transform="translate(-874.66 -415.128)"/>
                    <path id="패스_2885" d="M909.857 445.052a2.736 2.736 0 0 0-.449-.045 1.867 1.867 0 0 0-.912.2.129.129 0 0 1-.126-.225 2.138 2.138 0 0 1 1.043-.23 5.577 5.577 0 0 1 3.176 1.5.129.129 0 1 1-.163.2 6.579 6.579 0 0 0-2.314-1.342l-.059.211a2.872 2.872 0 0 0 .028.868 3.872 3.872 0 0 0 1.22 2.158.129.129 0 0 1-.18.185 4.122 4.122 0 0 1-1.294-2.3 3.105 3.105 0 0 1-.029-.947c0-.008.028-.133.059-.231zm.136.079l-.015-.006-.014-.008a.1.1 0 0 0 .029.014z" class="cls-23" transform="translate(-875.141 -415.704)"/>
                    <path id="패스_2886" d="M934.847 458.614c-2.706 1.611-7.185 1.534-9.726-1.081-1-1.03-2.308-3.431-.927-4.624.749-.648 1.957-.415 2.821-.188a20.023 20.023 0 0 0 3.8.906c1.294.085 2.6-.176 3.889-.04a2.32 2.32 0 0 1 2.031 1.4c.573 1.539-.649 2.891-1.886 3.627z" class="cls-28" transform="translate(-878.282 -417.294)"/>
                    <path id="패스_2887" fill="none" stroke="#403641" stroke-linecap="round" stroke-linejoin="round" d="M939.6 434.9c-1.729.266-4.307 1.267-4.812 3.233-.767 2.983.737 4.1 1.22 6.941.244 1.435-.009 2.9-1.654 3.154m-10.83-11.461a8.805 8.805 0 0 1 7.029.537" transform="translate(-879.206 -413.68)"/>
                    <path id="패스_2888" d="M927.285 440.285a1.256 1.256 0 1 1-1.285 1.228 1.257 1.257 0 0 1 1.283-1.228z" class="cls-19" transform="translate(-878.776 -414.787)"/>
                    <path id="패스_2889" d="M940.033 439.741a1.256 1.256 0 1 1-1.283 1.228 1.257 1.257 0 0 1 1.283-1.228z" class="cls-19" transform="translate(-881.395 -414.676)"/>
                    <path id="패스_2890" d="M910.7 414.415c3.68-5.1 8.624-6.821 14.857-6.04 9.349 1.172 12.529 4.7 14.178 5.954 1.283.973 6.385 3.052 6.7 4.333.794 3.241-4.561 4.034-5.93 5.325-.653.616-.657 1.455-1.579 1.874-4.086 1.857-10.032-1.673-14.231-1.568-.652.017-.544 1.059-.884 1.46a2.761 2.761 0 0 1-2.265.761c-1.882-.085-5.247-1.017-6.389-2.731-.509 2.271-.724 8.666-2.221 10.534-1.97 2.458-4.09.859-5.353-1.227a4.635 4.635 0 0 0-.452-.231c-1.618-.715-3.615.069-4.912-1.49-1.159-1.391-.395-3.282.294-4.7 1.754-3.609 3.713-7.737 6.456-10.689a13.187 13.187 0 0 1 1.732-1.566z" class="cls-21" transform="translate(-873.768 -408.195)"/>
                    <path id="패스_2891" d="M914.014 416.827a7.074 7.074 0 0 0 .474 1.374 16.3 16.3 0 0 0 3.655 4.978 16.969 16.969 0 0 0 1.889 1.558 8.531 8.531 0 0 0 1.46.864 4.542 4.542 0 0 0 3.131.394 6.561 6.561 0 0 0 1.488-1.005 3.522 3.522 0 0 1 2.24-.536 12.885 12.885 0 0 1 3.99 1.283 17.251 17.251 0 0 0 4.068 1.458.164.164 0 1 0 .051-.323 16.908 16.908 0 0 1-3.985-1.434 13.227 13.227 0 0 0-4.1-1.31 3.843 3.843 0 0 0-2.447.59 6.261 6.261 0 0 1-1.412.967 4.192 4.192 0 0 1-2.89-.381 8.271 8.271 0 0 1-1.4-.832 16.637 16.637 0 0 1-1.852-1.529 15.968 15.968 0 0 1-3.584-4.875 6.727 6.727 0 0 1-.454-1.31.164.164 0 1 0-.32.07z" class="cls-12" transform="translate(-876.313 -409.928)"/>
                    <path id="패스_2892" d="M916.1 414.151a24.345 24.345 0 0 0 2.794 4.458 5.32 5.32 0 0 0 2.93 1.822 4.329 4.329 0 0 0 1.947-.134c.611-.16 1.214-.383 1.824-.516a7.121 7.121 0 0 1 3.835.281A52.585 52.585 0 0 1 935.5 423a19.664 19.664 0 0 0 6.744 2.358.164.164 0 1 0 .029-.327 19.322 19.322 0 0 1-6.624-2.323 52.822 52.822 0 0 0-6.124-2.957 7.43 7.43 0 0 0-4.009-.292c-.614.134-1.221.359-1.836.52a4.012 4.012 0 0 1-1.8.13 5.584 5.584 0 0 1-3.3-2.4 32.673 32.673 0 0 1-2.2-3.719.164.164 0 0 0-.286.159z" class="cls-12" transform="translate(-876.737 -409.369)"/>
                    <path id="패스_2893" d="M918.666 411.737a21.659 21.659 0 0 0 2.513 2.988 5.17 5.17 0 0 0 2.081 1.33 12.157 12.157 0 0 0 4.369.006 9.616 9.616 0 0 1 4.245.181c1.971.661 3.642 2 5.434 3.016a30.182 30.182 0 0 0 9.924 2.764.164.164 0 0 0 .025-.327 29.789 29.789 0 0 1-9.788-2.723c-1.81-1.023-3.5-2.373-5.491-3.041a9.943 9.943 0 0 0-4.385-.2 11.84 11.84 0 0 1-4.253 0 4.839 4.839 0 0 1-1.936-1.251 21.305 21.305 0 0 1-2.472-2.941.164.164 0 0 0-.266.191z" class="cls-12" transform="translate(-877.263 -408.87)"/>
                    <path id="패스_2894" d="M922.244 409.852a6.394 6.394 0 0 0 4.792 3.123 17.749 17.749 0 0 0 4.279-.324 9.185 9.185 0 0 1 4.14.12c2.068.655 3.785 2.133 5.634 3.215a28.2 28.2 0 0 0 8.482 3.111.164.164 0 0 0 .058-.323 27.835 27.835 0 0 1-8.375-3.071c-1.868-1.094-3.608-2.582-5.7-3.244a9.5 9.5 0 0 0-4.284-.132 17.427 17.427 0 0 1-4.2.323 6.034 6.034 0 0 1-4.531-2.941.164.164 0 1 0-.295.144z" class="cls-12" transform="translate(-878.001 -408.487)"/>
                    <path id="패스_2895" d="M926.452 408.9a.669.669 0 0 0 .064.064 2.82 2.82 0 0 0 .262.167 5.732 5.732 0 0 0 1.261.6 13.666 13.666 0 0 0 6.26.266.164.164 0 1 1 .044.324 13.967 13.967 0 0 1-6.41-.28 6.04 6.04 0 0 1-1.332-.632 2.281 2.281 0 0 1-.343-.233.4.4 0 0 1-.128-.21.164.164 0 0 1 .322-.064z" class="cls-12" transform="translate(-878.802 -408.314)"/>
                    <path id="패스_2896" d="M911.657 419.062a11.153 11.153 0 0 1 2.57 7.7 6.678 6.678 0 0 1-.988 3.578 2.79 2.79 0 0 1-1.007.814 11.931 11.931 0 0 0-1.223.671 7.964 7.964 0 0 0-1.952 3.218.164.164 0 0 0 .307.116 12.831 12.831 0 0 1 .957-2.025 3.476 3.476 0 0 1 .876-1.039 11.527 11.527 0 0 1 1.19-.651 3.11 3.11 0 0 0 1.119-.911 7.022 7.022 0 0 0 1.05-3.754 11.48 11.48 0 0 0-2.647-7.927.164.164 0 1 0-.251.211z" class="cls-12" transform="translate(-875.293 -410.372)"/>
                    <path id="패스_2897" d="M915.869 430.277a9.215 9.215 0 0 1-1.742 5.2 15.343 15.343 0 0 1-1.484 1.461 5.756 5.756 0 0 0-1.338 1.68.164.164 0 0 0 .295.142 5.448 5.448 0 0 1 1.267-1.583 15.8 15.8 0 0 0 1.515-1.494 9.565 9.565 0 0 0 1.816-5.4.164.164 0 1 0-.327-.009z" class="cls-12" transform="translate(-875.754 -412.699)"/>
                    <path id="패스_2898" d="M909.742 420.363c.114.741.362 1.451.442 2.209a9.068 9.068 0 0 1-1.234 5.942 34.009 34.009 0 0 0-3.164 4.9.164.164 0 1 0 .3.128 33.547 33.547 0 0 1 3.135-4.84 9.4 9.4 0 0 0 1.288-6.159c-.081-.763-.328-1.477-.443-2.224a.164.164 0 0 0-.324.05z" class="cls-12" transform="translate(-874.621 -410.656)"/>
                    <path id="패스_2899" d="M907.36 423.605a15.244 15.244 0 0 1-1.928 4.91 14.255 14.255 0 0 0-2.283 4.941.164.164 0 0 0 .324.046 13.914 13.914 0 0 1 2.237-4.814 15.589 15.589 0 0 0 1.971-5.016.164.164 0 1 0-.32-.067z" class="cls-12" transform="translate(-874.081 -411.334)"/>
                    <path id="패스_2900" d="M879.611 469.053c3.176-5.446 7.5-5.484 10.166-3.367 2.1 1.665 2.724 4.824 2.869 7.34.439 7.63-2.609 15.331-5.224 22.35-1.795 4.817-3.289 9.862-5.462 14.528-3.02 6.484-11.456 9.369-11.957-.071-.392-7.388 1.32-15.106 2.5-22.354.839-5.151 4.772-14.421 7.107-18.425z" class="cls-12" transform="translate(-867.261 -419.738)"/>
                    <path id="패스_2901" d="M901.881 469.167s31.734-2.117 32.017-1.934a.317.317 0 0 1-.011.532c-.4.228-31.773 2.79-31.773 2.79l-.233-1.387z" class="cls-19" transform="translate(-873.821 -420.321)"/>
                    <path id="패스_2902" fill="#f3e5e4" fill-rule="evenodd" d="M954.378 493.818c2.463 1.514.973 23.58-17.435 24.834-21.508 1.464-26.584-19.608-24.062-23.2 1-1.423 10.44-4.153 20.13-4.413 9.893-.266 20.041 1.961 21.367 2.776z" transform="translate(-875.959 -425.21)"/>
                    <path id="패스_2903" fill="#bcc6d2" fill-rule="evenodd" d="M926.335 518.307a.966.966 0 0 1-.995.829 1.268 1.268 0 0 1-.682-.252 7.222 7.222 0 0 1-.78-.8c-.7-.719-1.364-1.479-2.027-2.233A43.28 43.28 0 0 1 915 505.837a9.322 9.322 0 0 1-1.223-4.13 2.2 2.2 0 0 1 1.3-2.078 2.4 2.4 0 0 1 2.086.358 10.58 10.58 0 0 1 2.5 2.9c2.407 3.634 4.212 7.653 6.36 11.44.358.633.728 1.272 1.143 1.877-.107-.5-.247-.995-.381-1.479-.855-3.1-2.222-6.2-2.356-9.448a6.8 6.8 0 0 1 .309-2.545 2.181 2.181 0 0 1 3.894-.6 9.044 9.044 0 0 1 1.27 2.374c1.466 3.688 1.753 7.8 2.846 11.611.1.35.188.625.307.968a9.474 9.474 0 0 0 .725 1.743 2.059 2.059 0 0 0 .265.365c.017.018.044.041.067.06a1.93 1.93 0 0 0 .636-1.149 14.839 14.839 0 0 0 .371-1.994c.512-3.367.111-6.758.447-10.132a10.275 10.275 0 0 1 1.035-3.961 2.138 2.138 0 0 1 2.017-1.1 1.892 1.892 0 0 1 1.585 1.22 9.562 9.562 0 0 1 .467 3.251c.1 3.452-.347 6.88-.049 10.336a9.948 9.948 0 0 0 .21 1.657 2.389 2.389 0 0 0 .135.4 1.24 1.24 0 0 0 .107.172c.058-.012.1-.07.153-.116a2.192 2.192 0 0 0 .341-.407 8.87 8.87 0 0 0 .738-1.448c1.393-3.182 1.786-6.7 2.906-9.977a12.914 12.914 0 0 1 1.446-3.071 2.016 2.016 0 0 1 1.707-.943 1.618 1.618 0 0 1 1.366 1.085 7.275 7.275 0 0 1 .285 2.506c-.037 2.927-.956 5.661-1.395 8.527a8.14 8.14 0 0 0-.135 1.874.966.966 0 0 1-.065 1.786 1.278 1.278 0 0 1-.8.044 1.3 1.3 0 0 1-.794-.637 2.422 2.422 0 0 1-.253-.857 9.645 9.645 0 0 1 .133-2.5c.425-2.777 1.336-5.422 1.372-8.259a9.058 9.058 0 0 0-.026-1.244l-.059.091a12.732 12.732 0 0 0-.957 2.226c-1.136 3.326-1.549 6.9-2.964 10.126a9.251 9.251 0 0 1-1.207 2.154 2.366 2.366 0 0 1-2 .97 1.928 1.928 0 0 1-1.536-1.046 7.932 7.932 0 0 1-.642-2.941c-.3-3.493.143-6.958.044-10.448a12.413 12.413 0 0 0-.12-1.882 3.091 3.091 0 0 0-.126-.5 1.473 1.473 0 0 0-.1-.2.4.4 0 0 0-.082.081 1.762 1.762 0 0 0-.268.457 9.946 9.946 0 0 0-.559 2.768c-.339 3.407.058 6.832-.459 10.232a13.594 13.594 0 0 1-.6 2.758 3.362 3.362 0 0 1-1.43 1.812 1.762 1.762 0 0 1-2.125-.228 7.775 7.775 0 0 1-1.646-3.022c-.133-.378-.228-.683-.339-1.069-1.076-3.746-1.342-7.8-2.784-11.431a8.636 8.636 0 0 0-.761-1.587 2.046 2.046 0 0 0-.358-.426c-.059-.049-.11-.113-.186-.1-.242.051-.276.324-.338.569a5.619 5.619 0 0 0-.1 1.522c.128 3.1 1.472 6.055 2.288 9.014a14.133 14.133 0 0 1 .636 3.375 2.807 2.807 0 0 1-.172 1.106 1.169 1.169 0 0 1-.954.691 1.472 1.472 0 0 1-.9-.2 3.681 3.681 0 0 1-.841-.768l-.087-.1zm-10.568-16.85a2.2 2.2 0 0 0-.062.338 7.315 7.315 0 0 0 1.039 3.216 41.4 41.4 0 0 0 6.557 9.559c.59.669 1.176 1.344 1.794 1.987-.262-.421-.51-.85-.752-1.278-2.125-3.749-3.907-7.73-6.289-11.326a10.574 10.574 0 0 0-1.648-2.119 2.08 2.08 0 0 0-.439-.307.588.588 0 0 0-.2-.069z" transform="translate(-876.264 -426.957)"/>
                    <path id="패스_2904" fill="#f3d889" fill-rule="evenodd" d="M934.767 460.989c-1.494.157-3.508 2.447-3.418 3.552.279 3.408-1.277 6.558-1.31 9.922-.031 3.076 1.638 5.9 2.161 8.892a20.7 20.7 0 0 1 .217 5.954c-.061.516-.72 2.783-.72 2.783s1.752.028 2.1.025c1.707-.01 3.414.014 5.121-.034a20.744 20.744 0 0 0 4.88-.35c.045-.015-.775-2.4-1.716-4.7-.708-1.731-1.867-3.731-2.172-4.33-2.518-4.946-2.352-7.664-2.081-8.992.286-1.406.261-3.249.523-4.66.73-3.932-2.083-8.22-3.58-8.063z" transform="translate(-879.606 -419.04)"/>
                    <path id="패스_2905" d="M931.4 464.018a45.9 45.9 0 0 1-.1 4.749c-.357 2.41-1.225 4.712-.846 7.179.405 2.64 1.744 4.968 2.45 7.517a22.458 22.458 0 0 1 .015 9.095.156.156 0 1 0 .307.056 22.812 22.812 0 0 0-.021-9.234c-.7-2.537-2.04-4.852-2.443-7.48-.374-2.436.494-4.707.846-7.087a46.054 46.054 0 0 0 .1-4.779.156.156 0 0 0-.311-.015z" class="cls-33" transform="translate(-879.673 -419.633)"/>
                    <path id="패스_2906" d="M932.591 463.176c0 .017.006.033.008.048a1.1 1.1 0 0 1 .027.184v.528c0 .571.008 1.142 0 1.712a35.434 35.434 0 0 1-.5 4.68 14.6 14.6 0 0 0 .04 5.212c.675 3.216 2.371 6.1 3.166 9.275a16.2 16.2 0 0 1 .028 7.59.156.156 0 1 1-.3-.066 15.893 15.893 0 0 0-.025-7.448c-.8-3.182-2.493-6.066-3.169-9.287a14.922 14.922 0 0 1-.043-5.323 34.946 34.946 0 0 0 .493-4.639c.011-.568 0-1.137 0-1.706v-.528c0-.059-.032-.161-.041-.233a.29.29 0 0 1 .024-.17.176.176 0 0 1 .083-.077.185.185 0 0 1 .146 0 .157.157 0 0 1 .095.2.147.147 0 0 1-.031.052zm-.158.045z" class="cls-33" transform="translate(-879.927 -419.436)"/>
                    <path id="패스_2907" d="M935.591 461.287a12.064 12.064 0 0 1 1.851 4.311 20.256 20.256 0 0 1-.2 5.5 16.965 16.965 0 0 0-.03 5.574c.578 2.906 2.065 5.458 3.238 8.143a33.63 33.63 0 0 1 1.737 7.075.156.156 0 1 0 .308-.048 34.01 34.01 0 0 0-1.759-7.151c-1.164-2.664-2.643-5.194-3.217-8.078a16.623 16.623 0 0 1 .033-5.475 20.575 20.575 0 0 0 .2-5.581 12.475 12.475 0 0 0-1.915-4.461.156.156 0 0 0-.244.193z" class="cls-33" transform="translate(-880.74 -419.05)"/>
                    <path id="패스_2908" d="M934.42 461.392a1.5 1.5 0 0 1 .455.574 8.97 8.97 0 0 1 .443 1.165 14.574 14.574 0 0 1 .754 5.192c-.066 3.064-1 6.119-.22 9.16.666 2.607 2.2 4.881 3.248 7.339.83 1.954 1.037 5.128 1.255 7.232a.156.156 0 0 0 .31-.032c-.221-2.131-.439-5.344-1.278-7.322-1.037-2.443-2.57-4.7-3.233-7.294-.77-3.013.165-6.04.23-9.076a14.894 14.894 0 0 0-.771-5.3 9.514 9.514 0 0 0-.46-1.2 1.8 1.8 0 0 0-.561-.692.156.156 0 0 0-.172.26z" class="cls-33" transform="translate(-880.491 -419.065)"/>
                    <path id="패스_2909" d="M933.433 461.957a13.605 13.605 0 0 1 .218 5.877 21.986 21.986 0 0 0-.293 5.966 23.094 23.094 0 0 0 2 5.82c1.472 3.443 2.888 8.639 2.365 12.467a.156.156 0 1 0 .308.042c.528-3.878-.9-9.144-2.388-12.631a22.782 22.782 0 0 1-1.978-5.739 21.714 21.714 0 0 1 .293-5.885 13.891 13.891 0 0 0-.228-6.005.155.155 0 0 0-.3.089z" class="cls-33" transform="translate(-880.265 -419.199)"/>
                    <path id="패스_2910" d="M937.1 461.7a11.617 11.617 0 0 1 1.717 4.62 26.61 26.61 0 0 1-.208 5.565 19.8 19.8 0 0 0 0 5.617 25.978 25.978 0 0 0 2.929 7.237 22.174 22.174 0 0 1 2.721 7.165.155.155 0 0 0 .308-.044 22.462 22.462 0 0 0-2.753-7.266 25.65 25.65 0 0 1-2.9-7.149 19.471 19.471 0 0 1 0-5.529 26.968 26.968 0 0 0 .208-5.63 11.907 11.907 0 0 0-1.755-4.738.156.156 0 0 0-.272.152z" class="cls-33" transform="translate(-881.052 -419.14)"/>
                    <path id="패스_2911" d="M914.4 495.773a.932.932 0 0 0-.489.473.917.917 0 0 0-.02.636 2.559 2.559 0 0 0 2.028 1.482c6.794 1.3 26.609 1.386 35.78-.932a6.026 6.026 0 0 0 2.635-1.213 1.142 1.142 0 0 0 .334-.6.92.92 0 0 0-.167-.678.156.156 0 0 0-.259.172.626.626 0 0 1 .119.454.837.837 0 0 1-.25.435 5.7 5.7 0 0 1-2.489 1.129c-9.138 2.309-28.877 2.227-35.645.928a2.247 2.247 0 0 1-1.789-1.267.61.61 0 0 1 .008-.423.63.63 0 0 1 .334-.314.155.155 0 1 0-.131-.282z" class="cls-19" transform="translate(-876.279 -426.001)"/>
                    <path id="패스_2912" d="M902.835 472.312s31.451-4.741 31.746-4.583a.318.318 0 0 1 .033.532c-.382.261-31.432 5.415-31.432 5.415l-.347-1.363z" class="cls-19" transform="translate(-874.017 -420.425)"/>
                    <path id="패스_2913" d="M900.405 486.529c-3.834-3.141-8.155 2.9-9.25 3.856-2.952 2.58-5.966 5.09-8.841 7.754a79.467 79.467 0 0 0-7.638 7.955c-2.49 3.051-4.718 6.417-4.642 10.513.1 5.573 6.48 6.847 10.651 4.664 3.146-1.647 5.425-4.953 7.242-7.892 2.646-4.277 4.978-8.739 7.539-13.066a58.355 58.355 0 0 0 4.517-8.111c.577-1.467 1.57-4.733.423-5.674z" class="cls-12" transform="translate(-867.279 -424.103)"/>
                    <path id="패스_2914" d="M976.34 492.006c.9-.794 2.564-1.986 3.2-1.132 2.634 3.515.683 8.843-.728 10.9-4.187 6.105-9.718 12.309-15.925 16.486-1.955 1.315-5.958 3.15-8.275 1.673-2.514-1.6 2.784-6.392 3.837-7.516 3.693-3.939 7.568-9.648 10.378-13.231a47.548 47.548 0 0 1 7.509-7.18z" class="cls-12" transform="translate(-884.517 -425.12)"/>
                    <path id="패스_2915" d="M907.453 472.7c1-1.126 1.99-2.253 2.943-3.412a12.892 12.892 0 0 1 2.043-2.247c.263-.2.745-.467.981-.089.409.659-.148 1.572-.583 2.223a14.859 14.859 0 0 1 1.264-1.325c.237-.218 1.183-1.049 1.454-.451a2.1 2.1 0 0 1-.045 1.45.393.393 0 0 1 .118.113c.718 1.008-.492 3.282-.891 4.211q-.263.61-.547 1.208c.148-.187.3-.368.458-.541s.648-.743.928-.463c.342.341.01 1.251-.112 1.615-.475 1.425-1.213 2.754-1.724 4.168a17.637 17.637 0 0 1-.957 2.589 26.931 26.931 0 0 1-6.593 7.185 5.893 5.893 0 0 1-6.541-.154c-1.334-1.028-1.194-2.639-.641-4.068l-.489.162a.047.047 0 0 1-.02.006l.02-.006a10.076 10.076 0 0 0 .822-1.47q1.263-2.179 2.74-4.221c.551-.989 1.125-1.963 1.675-2.955a13.392 13.392 0 0 1 1.765-3.034 2.7 2.7 0 0 1 1.933-.495z" class="cls-12" transform="translate(-873.126 -420.226)"/>
                    <path id="패스_2916" d="M942.721 521.817c.1-.428-1.691-1.735-2.193-2.16-.725-.613-1.41-.865-1.835-1.8-.143-.315-.676-1.435-.19-1.678.385-.192.927.134 1.263.3a9.526 9.526 0 0 0 2.715 1c2.8.491 5.77.775 8.351 2.041a7.912 7.912 0 0 1 1.227.733 5.885 5.885 0 0 1 .767.667c1.489 1.568-.145 3.649-1.432 4.652l.068.037c-10.055 2.637-17.663 2.377-19.446.962a67.3 67.3 0 0 0-6.558-4.071c-.29-.18-2.187-1.175-1.7-1.727 1.093-1.24 3.2.432 4.382.348.462-.033.089-.738.651-.756 1.41-.044 3 .922 4.355 1.244 3.332.79 9.188 1.854 9.574.206z" class="cls-12" transform="translate(-878.299 -430.366)"/>
                    <path id="패스_2917" d="M871.276 491.839c-2.026 2.894-4.659 10.213-4.659 13.655 0 1.639.354 3.253.3 4.892-.08 2.265-.6 4.482-.2 6.75.939 5.321 5.694 9.261 11.1 7.231 4.5-1.692 5.566-5.807 8.567-8.954 2.674-2.8 6.292-4.4 8.691-7.553 2.088-2.745 2.548-6.223 3.724-9.381.557-1.5 2.887-4.392 2.32-6.048s-6.428-4.573-8.072-5.192c-1.947-.734-3.928.566-5.5 1.614-3.786 2.531-7.009 5.829-10.437 8.8-1.808 1.57-3.289-4.707-5.837-5.816z" class="cls-26" transform="translate(-866.567 -424.389)"/>
                    <path id="패스_2918" d="M888.593 458.292c-.407-.3-1.445.283-5.8 4.044a35.559 35.559 0 0 0-8.182 10.888 89.676 89.676 0 0 0-5.144 15.8c-.443 1.724-1.681 4.635-.749 6.389 1.278 2.4 8.662 4.562 11.1 5.127 1.693.392 7.166 1.779 8.663.571.988-.8 9.378-35.939.108-42.823z" class="cls-26" transform="translate(-866.94 -418.473)"/>
                    <path id="패스_2919" d="M964.9 486.239c-1.352 3.311.242 11.2-1.287 13.867-1.151 2.009-.858 4.247-2.5 5.8a14.484 14.484 0 0 0-3.3 5.278 17.856 17.856 0 0 0 1.31 4.558c2 3.227 1.106 5.966 4.8 3.168.936-.71 6.919-.955 7.927-1.756 1.853-1.473 6.7-3.857 8.849-6.662 2.112-2.756 4.841-4.961 6.066-8.307 2.064-5.631-5.584-15.5-9.138-18.919-1.581-1.518-3.983-3.634-6.354-3.39-1.578.163-5.676 5.1-6.376 6.364z" class="cls-26" transform="translate(-885.311 -422.917)"/>
                    <path id="패스_2920" d="M893.539 487.24c-.438.656-1.051 1.777-1.739 2.7a4.354 4.354 0 0 1-1.392 1.329 31.6 31.6 0 0 1-4.668 1.577 15.554 15.554 0 0 0-4.524 1.928c-3.239 2.26-6.153 7.206-8.606 10.191a.164.164 0 0 0 .253.208c2.436-2.966 5.323-7.886 8.54-10.131a15.2 15.2 0 0 1 4.43-1.882 31.925 31.925 0 0 0 4.717-1.6 4.68 4.68 0 0 0 1.513-1.428c.692-.925 1.309-2.051 1.75-2.711a.164.164 0 1 0-.273-.181z" class="cls-28" transform="translate(-867.801 -424.419)"/>
                    <path id="패스_2921" d="M905.344 495a3.534 3.534 0 0 0-.981 1.56c-.379.977-.654 2.143-.9 2.756-.549 1.348-1.631 2.338-2.221 3.682-.95 2.165-1.389 4.543-2.441 6.661-1.853 3.729-7.637 8.434-10.754 11.552a.164.164 0 0 0 .231.232c3.139-3.138 8.951-7.885 10.816-11.638 1.054-2.123 1.5-4.505 2.448-6.675.59-1.347 1.673-2.34 2.224-3.69.251-.615.526-1.783.906-2.762a3.206 3.206 0 0 1 .866-1.411.164.164 0 0 0-.19-.267z" class="cls-28" transform="translate(-870.969 -426.022)"/>
                    <path id="패스_2922" d="M905.559 440.836a19.3 19.3 0 0 0-2.061 2.321c-1.7 2.583-.964 4.845.6 6.868 1.527 1.971 3.854 3.711 5.4 5.3 1.031 1.058 3.1 4 4.017 5.152a.164.164 0 0 0 .257-.2c-.92-1.159-3-4.113-4.039-5.177-1.538-1.578-3.855-3.307-5.375-5.269-1.481-1.911-2.2-4.047-.59-6.487a18.8 18.8 0 0 1 2-2.251.164.164 0 0 0-.211-.25z" class="cls-28" transform="translate(-873.954 -414.893)"/>
                    <path id="패스_2923" d="M967.345 501.316a1 1 0 0 0 .058-.133 1.758 1.758 0 0 1 .21-.524 12.36 12.36 0 0 1 1.487-1.468c2.107-1.831 4.633-3.5 6.372-5.7a.164.164 0 1 1 .257.2c-1.751 2.221-4.291 3.9-6.414 5.749a12.05 12.05 0 0 0-1.448 1.428.77.77 0 0 0-.1.259 1.55 1.55 0 0 1-.135.362.325.325 0 0 1-.184.149.3.3 0 0 1-.181-.006.164.164 0 0 1 .084-.316z" class="cls-28" transform="translate(-887.229 -425.704)"/>
                    <path id="패스_2924" d="M959.774 459.757a2.965 2.965 0 0 0-.191.271c-.485.807-1.371 2.773-1.473 3.009-1.535 3.531-2.036 7.734-2.481 11.517a.164.164 0 0 1-.326-.039c.449-3.812.958-8.049 2.506-11.609.1-.238 1-2.23 1.493-3.046a1.981 1.981 0 0 1 .237-.335.3.3 0 0 1 .141-.087.177.177 0 0 1 .092.006.2.2 0 0 1 .068.044.164.164 0 0 1-.066.269z" class="cls-28" transform="translate(-884.796 -418.721)"/>
                    <path id="패스_2925" d="M954.12 473.87c.723 4.731 2.516 9.741 3.692 14.444a.164.164 0 0 0 .318-.079c-1.173-4.693-2.964-9.693-3.685-14.414a.164.164 0 0 0-.324.05z" class="cls-28" transform="translate(-884.552 -421.648)"/>
                    <path id="패스_2926" d="M890.549 462.235a1.027 1.027 0 0 0 .275.408c.292.3.769.682.9.832a34.091 34.091 0 0 1 2.594 3.482 25.81 25.81 0 0 1 4.349 12.271.164.164 0 1 0 .327-.023 26.128 26.128 0 0 0-4.4-12.425 34.326 34.326 0 0 0-2.62-3.516c-.129-.153-.614-.54-.911-.847a1.819 1.819 0 0 1-.144-.165.233.233 0 0 1-.045-.076.164.164 0 1 0-.322.061z" class="cls-28" transform="translate(-871.493 -419.257)"/>
                    <path id="패스_2927" d="M914.993 470.186c-.317.409-.952 1.228-1.33 1.738-.919 1.238-1.823 2.487-2.724 3.738a.155.155 0 1 0 .252.182c.9-1.25 1.8-2.5 2.722-3.734.377-.509 1.011-1.325 1.327-1.732a.156.156 0 0 0-.246-.191z" class="cls-23" transform="translate(-875.676 -420.918)"/>
                    <path id="패스_2928" d="M918.364 469.624a2.723 2.723 0 0 0-.566.665 16.425 16.425 0 0 0-1.046 1.731c-.87 1.6-1.692 3.231-2.532 4.85a.156.156 0 0 0 .277.143c.838-1.617 1.66-3.244 2.529-4.845a16.329 16.329 0 0 1 1.026-1.7 2.388 2.388 0 0 1 .493-.592.156.156 0 1 0-.18-.253z" class="cls-23" transform="translate(-876.353 -420.809)"/>
                    <path id="패스_2929" d="M917.581 476.459a7.925 7.925 0 0 0-.616 1.5c-.43 1.067-.837 2.141-1.216 3.228a.156.156 0 1 0 .294.1c.377-1.082.783-2.151 1.211-3.214a7.526 7.526 0 0 1 .582-1.434.156.156 0 1 0-.256-.177z" class="cls-23" transform="translate(-876.669 -422.205)"/>
                    <path id="패스_2930" d="M908.542 474.527a12.584 12.584 0 0 0-1.135 1.261q-1.113 1.254-2.185 2.545a.156.156 0 1 0 .24.2q1.065-1.287 2.178-2.536a12.134 12.134 0 0 1 1.1-1.232.155.155 0 1 0-.2-.237z" class="cls-23" transform="translate(-874.5 -421.814)"/>
                    <path id="패스_2931" d="M929.79 522.857a16.5 16.5 0 0 0 2.946 1.757 20.027 20.027 0 0 0 4.212 1.824 15 15 0 0 0 5.367.282.156.156 0 1 0-.032-.31 14.667 14.667 0 0 1-5.255-.273 19.74 19.74 0 0 1-4.145-1.8 16.167 16.167 0 0 1-2.892-1.72.156.156 0 0 0-.2.238z" class="cls-23" transform="translate(-879.543 -431.694)"/>
                </g>
            </g>
            <g id="그룹_2877" transform="translate(14177.177 -7564.171)">
                <path id="패스_2834" d="M1067.363 552.071a70.751 70.751 0 1 1-70.751 70.752 70.785 70.785 0 0 1 70.751-70.752z" class="cls-5" transform="translate(-989.791 -543.425)"/>
                <path id="패스_2835" fill="none" stroke="#f27070" stroke-linecap="round" stroke-linejoin="round" stroke-width="0.968px" d="M1054.479 688.692c.31.409-6.523.541-6.835.513a67.484 67.484 0 0 1-22.871-6.439c-19.322-9.255-31.6-28.271-34.295-49.31-1.552-12.1.448-24.956 6.629-35.573 7.6-13.055 63.711-56.45 79.372-56.69 20.528-.314 31.762 23.476 42.345 37.362 7.347 9.64 15.271 18.971 20.159 30.174 21.016 48.17-10 77.781-57.138 80.474l-27.367-.511z" transform="translate(-988.428 -541.189)"/>
                <g id="그룹_2874" transform="translate(0 9.35)">
                    <path id="패스_2251" d="M1060.9 558.044c-3.133.522-5.486 4.577-6.891 7.047a33.235 33.235 0 0 0-4.625 15.5c-.113 4.764 1.158 9.525-1.138 13.993-2.4 4.667-7.405 7.479-9.083 12.591-1.971 6-.006 12.341-2.688 18.288a42.966 42.966 0 0 1-4.992 8.277c-.5.658-2.413 2.326-2.156 3.285.575 2.144 8.778 4.382 10.607 4.824a108.471 108.471 0 0 0 37.3 1.873 81.365 81.365 0 0 0 20.692-5.277c1.532-.615 5.207-1.611 6.14-3.166.669-1.116-2.26-4.009-2.809-4.771-2.783-3.87-6.054-8.095-6.716-12.957-.548-4.017 1.769-7.517 1.807-11.443.036-3.661-2.169-7.022-2.33-10.764-.621-14.38 4.1-33.1-14.308-38.158-2.647-.728-16.086.717-18.808.858z" class="cls-4" transform="translate(-996.507 -553.783)"/>
                    <path id="패스_2252" d="M1108.294 595.652a14.255 14.255 0 0 1-.432 5.222 22.042 22.042 0 0 0-.759 5.349c.074 2.1 1.137 3.8 1.714 5.763a22.58 22.58 0 0 1 .475 6.376.188.188 0 0 0 .376.013 23.049 23.049 0 0 0-.49-6.5c-.564-1.934-1.625-3.606-1.7-5.673a21.648 21.648 0 0 1 .752-5.256 14.657 14.657 0 0 0 .439-5.36.19.19 0 0 0-.376.059z" class="cls-35" transform="translate(-1012.491 -561.682)"/>
                    <path id="패스_2253" d="M1104.076 606.517a4.164 4.164 0 0 0-.216 2.206c.178 1.917 1.115 3.625 1.6 5.467.62 2.36.174 4.55.317 6.919a.188.188 0 1 0 .376-.022c-.145-2.4.3-4.609-.329-6.993-.479-1.823-1.412-3.508-1.588-5.406a3.749 3.749 0 0 1 .168-1.984.189.189 0 1 0-.327-.188z" class="cls-35" transform="translate(-1011.812 -563.94)"/>
                    <path id="패스_2254" d="M1100.443 610.593a1.425 1.425 0 0 0-.115.713 8.4 8.4 0 0 0 .148.995c.251 1.5.852 2.868 1.216 4.336.556 2.23-.156 4.334-.132 6.568a.188.188 0 0 0 .376 0c-.025-2.263.683-4.4.121-6.654-.363-1.458-.963-2.814-1.211-4.307a8.146 8.146 0 0 1-.144-.951 1.048 1.048 0 0 1 .073-.52.189.189 0 1 0-.335-.174z" class="cls-35" transform="translate(-1011.097 -564.776)"/>
                    <path id="패스_2255" d="M1095 612.6a1.5 1.5 0 0 0-.11.984 12.685 12.685 0 0 0 .756 2.277 34.435 34.435 0 0 1 1.378 3.707 22.724 22.724 0 0 1 .348 4.086.188.188 0 0 0 .376-.019 23.1 23.1 0 0 0-.358-4.152 34.631 34.631 0 0 0-1.389-3.75 17.27 17.27 0 0 1-.671-1.867 2.987 2.987 0 0 1-.1-.639.817.817 0 0 1 .087-.428.189.189 0 0 0-.323-.2z" class="cls-35" transform="translate(-1009.974 -565.19)"/>
                    <path id="패스_2256" d="M1068.039 591.206c-.05.063.743 4.761.791 5.063.763 4.752 3.194 16.287 2.489 19.441-.484 2.168-2.914 4.616-2.456 6.871.45 2.222 3.49 3.279 5.405 3.533 4.554.6 11.941-.76 15.535-3.8a8.941 8.941 0 0 0 1.475-1.57c3.112-4.288-2.38-6.336-3.7-9.984-1.29-3.587-2.353-14.29-4.191-16.341-1.208-1.349-13.822-3.32-15.357-3.208z" class="cls-12" transform="translate(-1004.465 -560.813)"/>
                    <g id="그룹_1428" transform="translate(63.571 30.389)">
                        <g id="그룹_2873">
                            <g id="그룹_2872" clip-path="url(#clip-path-6)">
                                <g id="그룹_1427" transform="translate(-1.372 4.024)">
                                    <path id="패스_2257" d="M1066.388 596.267c-.355 1.736.552 4.052 1.259 5.575 2.694 5.809 8.813 8.736 14.171 11.576 1.75.926 4.824 3.194 6.926 2.875 1.569-.24 1.383-2.645 1.3-3.759a14.427 14.427 0 0 0-3.881-9.516 39.146 39.146 0 0 0-6.335-4.968c-3.508-2.308-9.282-1.229-13.443-1.778z" class="cls-23" transform="translate(-1066.309 -596.267)"/>
                                </g>
                            </g>
                        </g>
                    </g>
                    <path id="패스_2259" d="M1071.465 594.029c-1.226-1.653-2.511-7.114-2.582-7.2a42.9 42.9 0 0 0-5.749-5.049c-2.207-1.844-5.548-13.844-.494-20.481a20.942 20.942 0 0 1 23.393-7.249 19.653 19.653 0 0 1 11.767 13.15c.831 3.324.658 6.8.877 10.2a70.324 70.324 0 0 1 .486 7.283c-.2 4.969-4.48 15.418-10.91 17.227-2.536.714-13.656-3.654-16.792-7.883z" class="cls-12" transform="translate(-1002.812 -552.957)"/>
                    <path id="패스_2260" d="M1104.547 580.009a9.5 9.5 0 0 0-4.365.959 3.017 3.017 0 0 0-1.562 1.942 6.162 6.162 0 0 0 .126 2.285c.395 2.035 1.316 4.635 1.625 5.734a1.445 1.445 0 0 1-.083 1.2 1.549 1.549 0 0 1-.931.593 4.859 4.859 0 0 1-2.121.015.371.371 0 0 0-.14.728 5.5 5.5 0 0 0 2.568-.063 2.218 2.218 0 0 0 1.247-.873 2.136 2.136 0 0 0 .173-1.8c-.262-.936-.973-2.964-1.417-4.8a7.5 7.5 0 0 1-.321-2.858 2.3 2.3 0 0 1 1.206-1.462 8.766 8.766 0 0 1 4.009-.86.37.37 0 0 0-.013-.741z" class="cls-37" transform="translate(-1010.373 -558.514)"/>
                    <path id="패스_2261" d="M1085.979 583.134a12.131 12.131 0 0 1 6.453-.4.37.37 0 1 0 .2-.714 13.052 13.052 0 0 0-6.941.43.371.371 0 0 0 .292.681z" class="cls-37" transform="translate(-1008.048 -558.87)"/>
                    <path id="패스_2262" d="M1091.172 585.578a1.309 1.309 0 1 1-1.309 1.309 1.311 1.311 0 0 1 1.309-1.309z" class="cls-37" transform="translate(-1008.949 -559.658)"/>
                    <path id="패스_2263" d="M1104.515 584.352a1.309 1.309 0 1 1-1.31 1.309 1.311 1.311 0 0 1 1.31-1.309z" class="cls-37" transform="translate(-1011.69 -559.406)"/>
                    <path id="패스_2264" d="M1087.573 603.855a9.054 9.054 0 0 0 7.648.508c2.85-1.142 3.271-2.944 3-3.508-.774-1.629-3.445-1.131-5.15-1.163-2.054-.038-4.1-1.2-5.308-1.253-1.5-.068-3.2 1-2.876 2.624.259 1.286 1.594 2.164 2.686 2.794z" class="cls-28" transform="translate(-1007.918 -562.299)"/>
                    <path id="패스_2265" d="M1081.211 562.544c-.259.307 9.715 2.44 14.575 6.866 1.652 1.5 2.7 4.477 2.813 4.343.443-.534.61-2.721.394-4.107a24.06 24.06 0 0 0-3.425-8.4 16.909 16.909 0 0 0-4.443-4.957c-7.956-5.6-20.585-3.8-27.379 2.8-4.655 4.515-6.345 17-1.746 22.136a12.2 12.2 0 0 0 3.08 2.187 15.972 15.972 0 0 0 5.185 1.7c.528-.02.636-1.729.717-2.067a30.584 30.584 0 0 1 2.665-7.079c1.86-3.594 7.016-9.3 7.564-13.418z" class="cls-4" transform="translate(-1002.667 -552.956)"/>
                    <path id="패스_2266" d="M1072.542 556.7a55.91 55.91 0 0 1 10.622 5.791.189.189 0 0 0 .235-.3 56.427 56.427 0 0 0-10.719-5.846.189.189 0 1 0-.138.351z" class="cls-35" transform="translate(-1005.366 -553.65)"/>
                    <path id="패스_2267" d="M1081.746 560.765a5.086 5.086 0 0 1 1.547-.451 15.521 15.521 0 0 1 4.284-.447c4.459.125 9.2 1.484 12.242 4.948a13.867 13.867 0 0 1 2.019 3.39.189.189 0 0 0 .343-.158 14.21 14.21 0 0 0-2.08-3.481c-3.114-3.54-7.955-4.945-12.513-5.074a15.921 15.921 0 0 0-4.385.458 5.505 5.505 0 0 0-1.672.508.19.19 0 0 0 .214.313z" class="cls-35" transform="translate(-1007.22 -554.297)"/>
                    <path id="패스_2268" d="M1077.425 557.8c.036-.041.073-.079.112-.115a4.569 4.569 0 0 1 .395-.269 11.05 11.05 0 0 1 1.279-.714 14.94 14.94 0 0 1 3.971-1.072c4.441-.676 8.3.5 12.153 2.624a.188.188 0 1 1-.181.331c-3.78-2.079-7.557-3.244-11.911-2.582a14.584 14.584 0 0 0-3.87 1.042 10.575 10.575 0 0 0-1.234.689 3.835 3.835 0 0 0-.361.245c-.031.024-.083.094-.113.125a.27.27 0 0 1-.082.058.2.2 0 0 1-.153-.362zm.263.206zm0-.02V558a.13.13 0 0 0 0-.024v.007zm0-.016" class="cls-35" transform="translate(-1006.371 -553.466)"/>
                    <path id="패스_2269" d="M1074.384 556.47a.188.188 0 0 1-.36-.059.288.288 0 0 1 .125-.235 3.983 3.983 0 0 1 .574-.313 19.647 19.647 0 0 1 2.161-.907 24.39 24.39 0 0 1 9.687-1.151.188.188 0 0 1-.026.376 24.01 24.01 0 0 0-9.538 1.128 19.27 19.27 0 0 0-2.12.891c-.03.014-.2.091-.346.171a1.783 1.783 0 0 0-.156.1z" class="cls-35" transform="translate(-1005.695 -553.113)"/>
                    <path id="패스_2270" d="M1084.658 562.778a22.222 22.222 0 0 1 15.821 6.2 20.261 20.261 0 0 1 3.236 4.2.189.189 0 0 0 .335-.174 20.784 20.784 0 0 0-3.3-4.291 22.617 22.617 0 0 0-16.1-6.312.188.188 0 0 0 .009.376z" class="cls-35" transform="translate(-1007.839 -554.896)"/>
                    <path id="패스_2271" d="M1078.916 560.5a1.191 1.191 0 0 1 .01.182c-.021.2-.054.394-.087.589-.09.527-.2 1.051-.328 1.566a29.534 29.534 0 0 1-1.554 4.57c-1.813 4.167-4.614 7.923-5.928 12.306a.189.189 0 0 1-.362-.109c1.319-4.4 4.125-8.167 5.945-12.348a29.218 29.218 0 0 0 1.534-4.511c.126-.508.234-1.023.323-1.54.032-.188.063-.376.083-.563.006-.048-.017-.145-.018-.2a.262.262 0 0 1 .024-.121.189.189 0 0 1 .156-.107.2.2 0 0 1 .168.062.188.188 0 0 1 .036.217z" class="cls-35" transform="translate(-1005.003 -554.447)"/>
                    <path id="패스_2272" d="M1071.128 558.282a1.835 1.835 0 0 0-.172.119c-.233.184-.52.464-.549.493a21.375 21.375 0 0 0-2.118 2.451 51.482 51.482 0 0 0-6.489 11.6 29.391 29.391 0 0 0-2.457 11.431c.037 3.814 1.045 7.435.507 11.276a19.875 19.875 0 0 1-2.329 6.537 48.012 48.012 0 0 0-2.977 6.14c-1.4 3.916-1.117 8.23-2.4 12.2a.189.189 0 1 1-.359-.116c1.284-3.969 1.008-8.286 2.4-12.206a48.341 48.341 0 0 1 3-6.187 19.49 19.49 0 0 0 2.29-6.414c.535-3.822-.474-7.426-.512-11.221a29.782 29.782 0 0 1 2.487-11.578 51.9 51.9 0 0 1 6.537-11.683 21.965 21.965 0 0 1 2.156-2.494 6.85 6.85 0 0 1 .769-.654.432.432 0 0 1 .183-.068.209.209 0 0 1 .154.048.188.188 0 0 1 .029.264.186.186 0 0 1-.152.069z" class="cls-35" transform="translate(-1001.125 -553.971)"/>
                    <path id="패스_2273" d="M1074.08 559.794c-.539 1.616-2.423 3.438-3.345 4.867-2.664 4.129-5.328 8.261-6.5 13.1-.877 3.626-.576 7.285-.281 10.94.292 3.615.574 7.227-.34 10.8-.888 3.463-2.479 6.557-3.751 9.729a21.051 21.051 0 0 0-1.845 10.309.189.189 0 1 0 .376-.039 20.677 20.677 0 0 1 1.821-10.128c1.277-3.188 2.875-6.3 3.765-9.772.925-3.612.645-7.267.35-10.922-.292-3.616-.6-7.235.271-10.821 1.164-4.8 3.811-8.888 6.453-12.982.939-1.451 2.838-3.31 3.386-4.948a.189.189 0 0 0-.358-.12z" class="cls-35" transform="translate(-1002.388 -554.336)"/>
                    <path id="패스_2274" d="M1067.721 597.125a3.19 3.19 0 0 0-.313 1.327c-.044.714.023 1.491.015 2.02-.038 2.584.223 5.167.106 7.752-.135 2.961-1.138 5.8-1.955 8.645-.83 2.891-1.47 5.8-.868 8.848a.189.189 0 1 0 .37-.072c-.59-2.992.048-5.838.861-8.672.826-2.878 1.833-5.744 1.97-8.733.118-2.589-.144-5.175-.106-7.764.009-.524-.062-1.294-.015-2a2.8 2.8 0 0 1 .266-1.166.189.189 0 0 0-.329-.184z" class="cls-35" transform="translate(-1003.732 -562.01)"/>
                    <path id="패스_2275" d="M1065.594 556.957a19.721 19.721 0 0 0-5.191 4.215 27.9 27.9 0 0 0-5.951 9.8 30.647 30.647 0 0 0-.946 9.895 39.83 39.83 0 0 1-.572 9.906 31.054 31.054 0 0 1-3.85 9.1 53.945 53.945 0 0 0-4.385 8.221c-1.583 4.082-1.176 8.746-2.335 12.974-1.464 5.343-4.62 10.364-6.994 15.361a.188.188 0 1 0 .34.162c2.38-5.017 5.548-10.059 7.017-15.422 1.155-4.216.743-8.867 2.323-12.938a53.751 53.751 0 0 1 4.358-8.165 31.414 31.414 0 0 0 3.894-9.2 40.241 40.241 0 0 0 .583-10 30.18 30.18 0 0 1 .928-9.772 27.553 27.553 0 0 1 5.877-9.666 19.2 19.2 0 0 1 5.068-4.124.189.189 0 1 0-.162-.341z" class="cls-35" transform="translate(-997.75 -553.775)"/>
                    <path id="패스_2276" d="M1081.645 562.494c0 .1-.029 1.121-.039 1.216a10.446 10.446 0 0 1-.924 3.391c-2.053 4.416-5.951 9.246-7.49 13.921a.189.189 0 1 1-.359-.118c1.542-4.687 5.45-9.533 7.506-13.962a10.07 10.07 0 0 0 .891-3.27c.01-.092-.012-.845.028-1.166a.546.546 0 0 1 .063-.211.208.208 0 0 1 .088-.078.188.188 0 0 1 .238.277z" class="cls-35" transform="translate(-1005.448 -554.855)"/>
                    <path id="패스_2277" d="M1075.767 559.32c-9.557 5.683-9.057 21.127-9.057 21.127l3.722.1s1.36-14.007 7.58-18.611c12.107-8.962 21.083 3.885 20.969 3.513-2.141-7.014-11.413-13.149-23.214-6.129z" class="cls-37" transform="translate(-1004.191 -553.627)"/>
                    <path id="패스_2278" d="M1072.687 587.682c.121-.35-2.434-1.368-2.644-1.44-2.247-.8-5.363-.672-6 1.843-1.152 4.551 6.224 7.648 6.877 7.5 1.286-.292 1.5-6.967 1.767-7.9z" class="cls-12" transform="translate(-1003.619 -559.705)"/>
                    <path id="패스_2279" d="M1067.832 588.518q-.237-.007-.483 0a5.142 5.142 0 0 0-1.691.22.2.2 0 0 1-.239-.135v-.01a.213.213 0 0 1 .134-.26 5.5 5.5 0 0 1 1.788-.237 6.643 6.643 0 0 1 5.3 2.11.222.222 0 0 1 .006.3.187.187 0 0 1-.265.017l-.01-.01a6.133 6.133 0 0 0-4.15-1.971 5.01 5.01 0 0 0 1.089 3.974.224.224 0 0 1-.013.3.188.188 0 0 1-.265 0l-.01-.011a5.4 5.4 0 0 1-1.19-4.28z" class="cls-23" transform="translate(-1003.925 -560.172)"/>
                    <path id="패스_2287" d="M1054.074 631.535c-.55-5.084-3.344-8.186-13.624-2.273-4.013 2.308-23.853 39.967-23.773 46.312.036 2.882 1.5 6.355 4.976 5.764 5.009-.857 8.867-7.248 11.577-10.977 4.612-6.348 21.988-28.23 20.845-38.822z" class="cls-12" transform="translate(-993.913 -567.97)"/>
                    <path id="패스_2288" d="M1025.427 673.079c-2.082 9.06-6.156 8.761-7.726 7.97-2.3-1.16-3.508-3.924-4.089-6.289-2.505-10.239.376-26.19 1.865-36.792.4-2.839 1.128-11.1 4.592-12.372 3.884-1.421 5.289 3.73 5.4 7.095.37 10.69 1.708 32.75-.047 40.388z" class="cls-12" transform="translate(-993.081 -567.829)"/>
                    <path id="패스_2289" d="M1107.671 624.845c-.044.539 3.786-4.536 4.315-4.654a8.559 8.559 0 0 1 3.339-.115c3.061.551 5.3 2.733 7.131 5.109 6.007 7.8 15.578 26.085 18.886 35.359 1.119 3.139 2.561 8.222-.616 10.745-4.554 3.618-10.782-3.6-13.474-6.5-7.4-7.969-26.172-27.949-19.581-39.948z" class="cls-12" transform="translate(-1012.324 -566.722)"/>
                    <path id="패스_2290" d="M1163.323 623.429c-1.136 6.414-11.3 38.926-15.507 46.044-1.592 2.694-5.262-.665-6.211-1.423a10.262 10.262 0 0 1-4.053-9.1c.3-9.718 11.942-28.812 15.5-36.986 1.112-2.558 2.5-8.457 5.942-8.061 4.023.464 4.922 6.21 4.334 9.529z" class="cls-12" transform="translate(-1018.744 -565.472)"/>
                    <path id="패스_2291" fill="#b25150" fill-rule="evenodd" d="M1038.623 585.353l4.146.869 1.224 22.446-3.825 1.172z" transform="translate(-998.422 -559.612)"/>
                    <path id="패스_2292" d="M999.467 614.155l-2.26-23.576 32.927-5.226 1.524 24.556-32.192 4.247z" class="cls-21" transform="translate(-989.914 -559.612)"/>
                    <path id="패스_2293" fill="#637faf" fill-rule="evenodd" d="M1028.331 587.695l4.222.357 3.957 22.128-3.653 1.629-4.525-24.115z" transform="translate(-996.308 -560.092)"/>
                    <path id="패스_2294" fill="#899ec1" fill-rule="evenodd" d="M993.152 620.026l-5.124-23.126 32.043-9.209 4.51 24.186-31.431 8.148z" transform="translate(-988.028 -560.093)"/>
                    <path id="패스_2295" d="M1006.791 618.068a19.99 19.99 0 0 1-.289-6.3 23.792 23.792 0 0 1 .605-2.865c.208-.939 1.414.337 1.546 1.278a33.291 33.291 0 0 1-.149 3.489 8.72 8.72 0 0 0 1.266 4.1 14.593 14.593 0 0 0 1.675 1.033 15.032 15.032 0 0 1-.457-5.788 30.231 30.231 0 0 1 .752-3.177c.247-.98 1.4.278 1.382.94-.049 2.015-.269 1.861-.267 2.964a14.439 14.439 0 0 0 .506 3.151c.737 2.013 4.179 1.767 4.4 1.357.7-1.308.61-2.764 1.045-4.154.063-.207.729-1.487 1.144-1.128.25.218.226.716.212 1.011-.043.865-.261 1.711-.222 2.582.062 1.413.768 2.706.814 4.123.011.33 2.857 5.823 1.5 6.06-1.64.288-7.893 5.381-8.139 1.816-.2-2.872-7.938-6.523-8.413-6.964-1.6-1.488-2.192-3.508-2.645-5.6-.319-1.474-.93-3.185-1.139-4.687-.169-1.2.357-1.479 1.208-.726a4.6 4.6 0 0 1 1.3 1.846c.362.9.62 2.384.96 3.378a4.913 4.913 0 0 0 1.4 2.255z" class="cls-12" transform="translate(-990.876 -564.382)"/>
                    <path id="패스_2296" d="M1158.335 592.767c-.63-3.467-1.3-6.925-2.067-10.367-.482-2.157-.846-3.576-.2-3.8 1.224-.427 2.492 2.756 2.651 3.316.649 2.287.761 4.628 1.691 6.983a9.524 9.524 0 0 1 .435-2.073c.368-1.082 1.177-1.96 2.261-1.1a5.262 5.262 0 0 1 .482.438 1.379 1.379 0 0 1 1.1-.861c.911-.091 1.648.728 2.157 1.453a1.211 1.211 0 0 1 1.2-.265c1.134.376 1.706 1.9 2.091 2.9a12.461 12.461 0 0 1 .493 3.947c.014.906-.61 1.273-.6 1.486.068 1.54.25 4.665.421 6.964.438 5.819-2.772 6.8-3.366 14.341-.091 1.153-8.974-2.246-8.635-6.578.241-3.092-1.285-11.352-1.379-13.28a4.06 4.06 0 0 1 .219-1.493 7.948 7.948 0 0 1 1.049-2.019z" class="cls-12" transform="translate(-1022.478 -558.216)"/>
                    <path id="패스_2297" fill="#ffd252" fill-rule="evenodd" d="M1045.989 658.559c-.589.227-6.42-4.484-7.033-4.992-2.3-1.907-6.841-8.609-6.841-8.609s6.984-14.2 9.8-18.243c4.921-7.076 13.96-5.351 21.465-7.4.689-.188-.416-2.306.125-2.517.682-.266 4.586.019 8.645-.246 3.5-.229 7.406-.53 8.513-.726 1-.177.809 2.864 1.854 2.864 1.155 0 12.078-1.3 16-1.024 8.909.627 19.943 21.275 19.943 21.275s-5.806 6.906-8.121 11.43c-.914 1.785.1 2.422-.138 4.107-1.019 7.071-4.289 10.049-4.548 13.136-.156 1.876.119 14.444.119 14.444a182.985 182.985 0 0 1-19.351 2.921 168.317 168.317 0 0 1-25.967-.1s-.552-9.39-1.947-13.833c-1.708-5.444-6.713-14.837-8.3-18.824-.563-1.418-2.082 2.6-4.206 6.339z" transform="translate(-997.085 -565.871)"/>
                    <path id="패스_2298" d="M1094.129 642.487c-.07.119-12.573-5.371-10.2-9.341 2.578-4.3 6.821.6 7.46.526.5-.062 2.052-5.447 5.56-2.866 2.129 1.561-1.726 9.486-2.82 11.681z" class="cls-28" transform="translate(-1007.669 -568.806)"/>
                    <path id="패스_2299" d="M1119.918 636.919c.356 2.616 1.748 5.637 3.293 8.612 1.531 2.944 3.21 5.838 4.152 8.224a.189.189 0 0 0 .352-.139c-.947-2.4-2.632-5.3-4.169-8.26-1.524-2.93-2.9-5.91-3.254-8.489a.19.19 0 0 0-.376.05z" class="cls-33" transform="translate(-1015.123 -570.161)"/>
                    <path id="패스_2300" d="M1054.54 658.43c.15-.234.648-1.368.676-1.428.791-1.711 1.558-3.428 2.243-5.186a.189.189 0 1 1 .352.138c-.689 1.763-1.459 3.488-2.255 5.206-.029.063-.559 1.261-.71 1.486a.224.224 0 0 1-.25.11.188.188 0 0 1-.119-.238.183.183 0 0 1 .063-.087zm.166-.036a.18.18 0 0 0-.076 0 .18.18 0 0 1 .076 0z" class="cls-33" transform="translate(-1001.677 -573.241)"/>
                    <path id="패스_2301" d="M1072.094 620.223a76.914 76.914 0 0 0 17.524-.627.189.189 0 1 0-.063-.372 76.549 76.549 0 0 1-17.414.627.19.19 0 0 0-.05.376z" class="cls-33" transform="translate(-1005.264 -566.57)"/>
                    <path id="패스_2303" d="M1170.71 600.272a16.908 16.908 0 0 0-1.419 9.3.189.189 0 1 0 .372-.063 16.534 16.534 0 0 1 1.4-9.092.189.189 0 0 0-.35-.141z" class="cls-23" transform="translate(-1025.229 -562.653)"/>
                    <path id="패스_2304" d="M1171.276 596.571a3.606 3.606 0 0 0 .814 1.666 1.3 1.3 0 0 0 .343.3.577.577 0 0 0 .542.034 1.187 1.187 0 0 0 .539-.563 5.178 5.178 0 0 0 .344-1.027.189.189 0 0 0-.365-.1 4.781 4.781 0 0 1-.313.951.812.812 0 0 1-.359.393.211.211 0 0 1-.2-.018.931.931 0 0 1-.238-.218 3.155 3.155 0 0 1-.727-1.445.188.188 0 0 0-.376.021z" class="cls-23" transform="translate(-1025.674 -561.876)"/>
                    <path id="패스_2305" d="M1140.637 654.362c-.748 1.433-1.624 2.781-2.291 4.264a26.2 26.2 0 0 0-2.446 12.174.188.188 0 1 0 .376-.021 25.815 25.815 0 0 1 2.407-11.992c.664-1.477 1.536-2.819 2.281-4.245a.189.189 0 0 0-.335-.175h.005z" class="cls-23" transform="translate(-1018.403 -573.768)"/>
                    <path id="패스_2306" d="M1162.834 590.445a1.42 1.42 0 0 0 .04.161c.056.164.144.348.169.431.188.617.361 1.238.564 1.851a.189.189 0 0 1-.359.118c-.2-.616-.373-1.239-.563-1.858-.029-.1-.143-.327-.194-.508a.572.572 0 0 1-.019-.292.189.189 0 0 1 .365.1z" class="cls-23" transform="translate(-1023.863 -560.609)"/>
                    <path id="패스_2307" d="M1165.3 598.883a.682.682 0 0 0 .166.243 3.118 3.118 0 0 0 .269.223 2.338 2.338 0 0 0 .752.43.989.989 0 0 0 .914-.139 2.4 2.4 0 0 0 .78-1.713.189.189 0 0 0-.376-.04 2.017 2.017 0 0 1-.627 1.449.629.629 0 0 1-.581.08 1.919 1.919 0 0 1-.622-.362c-.057-.045-.133-.1-.2-.163a.385.385 0 0 1-.112-.136.189.189 0 1 0-.356.125z" class="cls-23" transform="translate(-1024.445 -562.152)"/>
                    <path id="패스_2308" d="M1168.126 594.747c-1.3-.095-3.688-.463-5.158-.642-.381-.046-.7-.079-.919-.091a1.011 1.011 0 0 0-.241 0 3.036 3.036 0 0 0-1.5 1.408.189.189 0 0 1-.332-.18 3.467 3.467 0 0 1 1.726-1.591 2.845 2.845 0 0 1 .725.014c1.353.13 4.357.617 5.814.711.169.01.286.133.265.385a3.949 3.949 0 0 1-1.073 1.9 3.012 3.012 0 0 1-1.839.487 5.955 5.955 0 0 1-1.359-.2 9.951 9.951 0 0 1 .35 2.3 20.778 20.778 0 0 1-.818 4.876.189.189 0 0 1-.337-.17 20.231 20.231 0 0 0 .779-4.724 11.215 11.215 0 0 0-.422-2.506.188.188 0 0 1 .128-.233.192.192 0 0 1 .118 0 5.608 5.608 0 0 0 1.569.278 2.628 2.628 0 0 0 1.609-.416 3.74 3.74 0 0 0 .885-1.471.766.766 0 0 0 .026-.133z" class="cls-23" transform="translate(-1023.348 -561.313)"/>
                    <path id="패스_2309" d="M1165.767 588.634a47.279 47.279 0 0 1 1.569 4.581.189.189 0 1 0 .371-.074 47.977 47.977 0 0 0-1.588-4.64.189.189 0 1 0-.353.133z" class="cls-23" transform="translate(-1024.54 -560.234)"/>
                    <path id="패스_2310" d="M1169.376 589.315c.155.474.525 1.674.648 2.157a13.009 13.009 0 0 1 .621 4.138 1.911 1.911 0 0 1-.343.908.563.563 0 0 1-.7.259.726.726 0 0 1-.232-.223c-.149-.191-.288-.43-.381-.557a.189.189 0 0 0-.3.224c.094.13.236.369.388.563a1.1 1.1 0 0 0 .382.338.862.862 0 0 0 .983-.191 2.207 2.207 0 0 0 .582-1.294 13.36 13.36 0 0 0-.632-4.26c-.125-.488-.5-1.7-.655-2.181a.189.189 0 1 0-.358.118z" class="cls-23" transform="translate(-1025.135 -560.375)"/>
                    <path id="패스_2311" d="M1007.962 621.493a6.761 6.761 0 0 0 1.312 2.094 4.741 4.741 0 0 0 1.951 1.038.189.189 0 0 0 .112-.361 4.358 4.358 0 0 1-1.8-.947 6.334 6.334 0 0 1-1.231-1.978.189.189 0 1 0-.346.153z" class="cls-23" transform="translate(-992.12 -566.982)"/>
                    <path id="패스_2312" d="M1029.6 658.219c.2 1.572.778 5.513 1.048 7.074.748 4.318 1.468 8.493.522 12.843a.189.189 0 0 0 .37.08c.957-4.4.238-8.622-.519-12.989-.27-1.557-.846-5.49-1.047-7.057a.189.189 0 0 0-.376.048z" class="cls-23" transform="translate(-996.568 -574.537)"/>
                    <path id="패스_2313" d="M1014.074 622.116c.16.288.5 1.008.819 1.509a2.008 2.008 0 0 0 .439.523 2.2 2.2 0 0 0 1.154.3.189.189 0 0 0 .021-.377 1.811 1.811 0 0 1-.958-.23 2.311 2.311 0 0 1-.474-.636c-.274-.468-.538-1.026-.673-1.27a.189.189 0 0 0-.33.183z" class="cls-23" transform="translate(-993.374 -567.107)"/>
                </g>
            </g>
            <path id="패스_2932" d="M20.246 27.959c5.719 5.989 13.611 3.986 16.67-.51S38.2 15.964 32.483 9.975C28.39 5.433 19.959 1.992 13.153 0 8.122 5 2.349 12.041.916 17.983c-2.172 7.991-.4 14.982 4.433 17.475s12.725.491 14.9-7.5z" class="cls-4" transform="rotate(-146 6089.254 -5923.494)"/>
        </g>
    </g>
</svg>
