<svg xmlns="http://www.w3.org/2000/svg" width="320" height="526" viewBox="0 0 320 526">
    <defs>
        <clipPath id="clip-path">
            <path id="패스_3114" d="M180.631 2532.188a13.852 13.852 0 0 0-13.855-13.852H108.2a13.851 13.851 0 0 0-13.852 13.852V2677.9a13.853 13.853 0 0 0 13.852 13.852h58.577a13.853 13.853 0 0 0 13.855-13.852z" class="cls-1" transform="translate(-94.347 -2518.336)"/>
        </clipPath>
        <clipPath id="clip-path-2">
            <path id="패스_3115" d="M108.2 2614.253a13.853 13.853 0 0 1-13.853-13.853v-36l86.282-.38v36.38a13.853 13.853 0 0 1-13.852 13.852z" class="cls-1" transform="translate(-94.347 -2564.017)"/>
        </clipPath>
        <clipPath id="clip-path-4">
            <path id="패스_3117" d="M100.731 2575.112c-.569-2.386.787-6.973 2.573-11.576.973-2.519 3.017-4.384 3.6-9.443a16.9 16.9 0 0 0-.262-5.752l26.432 3.376a2.679 2.679 0 0 0-1.332 3.174c.232.747 1.621 4.023 2.173 5.167 3.077 6.361 4.134 13.647 3 16.455-2.764 6.838-10.649 8.206-18.151 8.626q-1.213.068-2.357.067c-8.374-.001-13.94-2.806-15.676-10.094z" class="cls-1" transform="translate(-100.599 -2548.34)"/>
        </clipPath>
        <clipPath id="clip-path-6">
            <path id="패스_3119" d="M113.522 2551.068a4.342 4.342 0 0 1-4.366-3.594 15.076 15.076 0 0 1-.243-5.609c.224-2.551.162-8.454 1.6-9.7a5.91 5.91 0 0 1 9.325 2.071c.72 1.8.2 7.232-.027 9.119a18.674 18.674 0 0 1-.814 4.641 5.107 5.107 0 0 1-4.978 3.088q-.246 0-.497-.016z" class="cls-1" transform="translate(-108.769 -2530.691)"/>
        </clipPath>
        <clipPath id="clip-path-8">
            <path id="패스_3121" d="M116.568 2550.74a10.456 10.456 0 0 1-5.253-3.2c-3.15-3.378-2.632-9.861-2.276-13.305a11.221 11.221 0 0 1 4.406-7.359c3.346-2.318 8.16-1.378 10.8 1.583 3.241 3.64 2.931 9.665 2.411 14.148a8.819 8.819 0 0 1-7.17 7.976 9.855 9.855 0 0 1-1.971.246 5.057 5.057 0 0 1-.947-.089z" class="cls-1" transform="translate(-108.77 -2525.573)"/>
        </clipPath>
        <clipPath id="clip-path-10">
            <path id="패스_3123" d="M108.345 2533.85a3.621 3.621 0 0 1-.582-3.365 1.925 1.925 0 0 1 2.726-1.387 3.156 3.156 0 0 1 1.084.79 5.594 5.594 0 0 1 .957 1.777l-.833 2.542a1.987 1.987 0 0 1-1.41.548 2.551 2.551 0 0 1-1.942-.905z" class="cls-1" transform="translate(-107.579 -2528.896)"/>
        </clipPath>
        <clipPath id="clip-path-12">
            <path id="패스_3125" d="M165.135 2559.787a39.023 39.023 0 0 0-12.635 2.813c-.677.265-.289 1.6-.173 2.174.248 1.219.523 4.239.715 5.468a78.923 78.923 0 0 0 1.823 8.667c2.182 8.731 5.226 7.512 15.3 7.612 2.146.021 6.585-.4 8.162-2.359 1.68-2.082 2.516-7.651 2.653-10.255.07-1.346.828-11.364-.035-12.229-.615-.614-5.932-2.569-15.81-1.888z" class="cls-1" transform="translate(-152.108 -2559.647)"/>
        </clipPath>
        <clipPath id="clip-path-13">
            <path id="패스_3126" d="M163.057 2585.276l-.024.024c-.229.293-.7 1.114-1.154.936-.6-.229-.833-1.132-1.335-1.521-.429-.329-.89-.146-1.3-.4-1.532-.974-.936-3.651-.852-5.056.332-5.517 2.6-10.05 3.8-15.292.8-3.47.566-6.962.987-10.473.283-2.356 1.391-6.208 3.98-7.082 3.861-1.3 1.51 9.091 1.413 10.134-.105 1.116-.224 2.235-.423 3.338a27.9 27.9 0 0 1-.971 3.732c-.483 1.494-1.011 2.975-1.5 4.465-1.72 5.218-2.618 17.2-2.618 17.2z" class="cls-1" transform="translate(-158.211 -2546.295)"/>
        </clipPath>
        <clipPath id="clip-path-14">
            <path id="패스_3127" d="M162.5 2588.267c-1.332 1.176-2.516.861-2.637.03-.272-1.853-.564-6.274-.671-7.771-.3-4.207-1.885-7.777-2.794-11.811a34.292 34.292 0 0 1 .181-14.662c.4-1.782 1.888-9.47 4.331-9.47 3.46 0 3.848 7.942 4.1 10.277.364 3.408.879 7.116.334 10.536-.658 4.109-2.4 7.952-2.961 12.1-.464 3.427.119 10.772.119 10.772z" class="cls-1" transform="translate(-155.692 -2544.583)"/>
        </clipPath>
        <clipPath id="clip-path-15">
            <path id="패스_3128" d="M166.359 2586.444l-.027.032c-.245.3-2.715 1.81-3.247.852-1.54-2.791-.437-6.822-1.761-9.686-.963-2.082-2.734-3.624-4.015-5.509a52.208 52.208 0 0 1-7.337-15.6c-.666-2.486-2.163-9.5.852-11.042 3.063-1.572 5 6.555 5.477 8.23 1.186 4.182 2.467 8.373 3.942 12.463 1.432 3.975 3.287 7.941 4.355 12.032.553 2.107 1.761 8.228 1.761 8.228z" class="cls-1" transform="translate(-149.007 -2545.291)"/>
        </clipPath>
        <clipPath id="clip-path-16">
            <path id="패스_3129" d="M163.879 2589.195s-1.8 1.292-2.3.588-.213-2.658-.4-3.486a59.324 59.324 0 0 0-2.168-7c-.707-1.919-1.966-4.229-2.486-6.212-.963-3.67-.491-7.1-.839-10.846-.262-2.807-2.775-4.531-3.093-8.931-.3-4.18 2.357-10.163 3.964-9.727 1.774.479 2.157 7.351 2.244 8.758.14 2.322 1.044 5.3 1.246 7.626.375 4.2-.531 8.211.208 12.353.488 2.729 1.4 5.882 1.936 8.6.6 3.1 1.278 5.617 1.693 8.275z" class="cls-1" transform="translate(-152.564 -2543.557)"/>
        </clipPath>
        <clipPath id="clip-path-17">
            <path id="패스_3130" d="M145.322 2564.963c-.461 5.169-5.4 15.978-8.076 15.378-2.893-.65-5.474-14.987-4.412-18.8l12.488 3.422z" class="cls-1" transform="translate(-132.591 -2561.541)"/>
        </clipPath>
        <style>
            .cls-1,.cls-21,.cls-28,.cls-29,.cls-49,.cls-56,.cls-9{fill:none}.cls-3,.cls-42{fill:#fff}.cls-10,.cls-11,.cls-12,.cls-17,.cls-20,.cls-23,.cls-3,.cls-37,.cls-47,.cls-54,.cls-57,.cls-58,.cls-66,.cls-8{fill-rule:evenodd}.cls-4{clip-path:url(#clip-path)}.cls-21,.cls-28,.cls-29,.cls-37,.cls-49,.cls-56,.cls-57,.cls-9{stroke-linecap:round;stroke-linejoin:round}.cls-8{fill:#f27070}.cls-9{stroke:#d25e5e;stroke-width:.157px}.cls-10,.cls-57{fill:#ffbdbc}.cls-11{fill:#f4f8f7}.cls-12{fill:#ffbebc}.cls-21{stroke-width:.154px}.cls-17{fill:#403642}.cls-21{stroke:#f9eded}.cls-20{fill:#ff9e9c}.cls-23{fill:#110101}.cls-28{stroke:#8b5353;stroke-width:1.162px}.cls-29,.cls-37{stroke:#403641;stroke-width:.201px}.cls-37{fill:#f3d889;stroke:#ea9a43}.cls-47{fill:#668f8d}.cls-49{stroke:#41685f;stroke-width:.357px}.cls-54{fill:#ff7541}.cls-56,.cls-57{stroke:#ffbdbc;stroke-width:1.482px}.cls-58{fill:#ffe1ca}.cls-66{fill:#899ec1}
        </style>
    </defs>
    <g id="그룹_3324" transform="translate(0 -980.004)">
        <path id="사각형_1419" fill="#fff1f1" d="M0 0H320V526H0z" transform="translate(0 980.004)"/>
        <g id="그룹_3220" transform="translate(-78.984 -1302.332)">
            <g id="그룹_2901" transform="translate(94.962 2518.336)">
                <path id="패스_2933" d="M180.631 2532.188a13.852 13.852 0 0 0-13.855-13.852H108.2a13.851 13.851 0 0 0-13.852 13.852V2677.9a13.853 13.853 0 0 0 13.852 13.852h58.577a13.853 13.853 0 0 0 13.855-13.852z" class="cls-3" transform="translate(-94.347 -2518.336)"/>
                <g id="그룹_2880">
                    <g id="그룹_3274">
                        <g id="그룹_3273" class="cls-4">
                            <g id="그룹_2879" transform="translate(-2.09 123.168)">
                                <path id="패스_2934" fill="#d9cebc" fill-rule="evenodd" d="M93.572 2617.571v-53.158l91.389-.4.132 53.559z" transform="translate(-93.572 -2564.012)"/>
                            </g>
                        </g>
                    </g>
                </g>
                <g id="그룹_2882" transform="translate(0 123.182)">
                    <g id="그룹_3276">
                        <g id="그룹_3275" clip-path="url(#clip-path-2)">
                            <g id="그룹_2881" transform="translate(-24.798 -3.465)">
                                <path id="패스_2935" fill="none" stroke="#ad976e" stroke-linecap="round" stroke-linejoin="round" stroke-width="0.145px" d="M140.581 2565.607l-49.622 62.573m114.078-62.573L127.835 2663m57.644-100.264l-77.2 97.392m54.071-93.859l-77.2 97.391" transform="translate(-85.151 -2562.732)"/>
                            </g>
                        </g>
                    </g>
                </g>
                <g id="그룹_2884">
                    <g id="그룹_3278">
                        <g id="그룹_3277" class="cls-4">
                            <g id="그룹_2883" transform="translate(14.27 16.821)">
                                <path id="패스_2936" d="M151.047 2563.833a82.358 82.358 0 0 1-3.1-10.22c-1.135-4.994-5.647-9.292-5.924-9.792-1.6-2.9.251-6.506.027-7.871-.44-2.685-3.4-5.366-5.137-7.539-2.74-3.436-8.416-4.708-12.558-3.23a14.629 14.629 0 0 0-5.765 3.982 17.012 17.012 0 0 0-2.794 4.229c-.825 1.737-3.454 4.326-3.964 7.337-.434 2.556 1.257 5.523.539 7.394-.232.6-5.682 2.74-6.24 6.927-.418 3.161-4.172 8.861-4.172 8.861s18.577 2.036 26.758 2.022c7.478-.014 22.33-2.1 22.33-2.1z" class="cls-8" transform="translate(-95.703 -2524.573)"/>
                                <path id="패스_2937" d="M133.713 2543.256c.3 4.026 2.931 7.238 3.648 11.1.785 4.221-.987 5.3-.4 9.528m-5.393-16.164c2.9 6.876.054 9.548.79 16.587m-7.917-39.4a14.892 14.892 0 0 0-7.354 3.444c-2.907 2.634-4.484 7.121-4.746 11.047-.156 2.354.526 4.738-.14 7.054-1.119 3.9-5.223 5.927-6.609 9.654-1.529 4.106-.653 3.244-1.545 7.4m11.986-22.122c-.178 2.507.62 5.312-.262 7.726-.725 1.974-2.184 3.583-3.379 5.3a20.612 20.612 0 0 0-3.543 8.658m24.59-33.205a11.416 11.416 0 0 1 3 10.641c-.356 1.7-.809 3.393-.318 5.11.93 3.266 3.732 5.534 4.819 8.667.731 2.1.688 7.054.523 9.166" class="cls-9" transform="translate(-92.159 -2524.008)"/>
                                <path id="패스_2938" d="M114.249 2538.595c3.991-2.3 5.949 1.2 7.254 5a77.959 77.959 0 0 1 3.543 13.286c.485 2.918 4.244 12.661-1.27 14.249-4.781 1.375-5.938-10.009-6.981-12.814-1.211-3.25-2.082-7.4-3.457-12.7-.879-3.393-.434-6.246.909-7.02z" class="cls-10" transform="translate(-77.171 -2502.031)"/>
                                <path id="패스_2939" d="M115.2 2553.36l-.011-.027c-.062-.159-2.2-7.971-2.252-8.508-.181-1.92-.318-6.922 3.136-7.092a5.449 5.449 0 0 1 2.99 1.276c2.324 1.712 5.574 11.137 5.466 11.4s-3.969 1.624-5.525 2.117c-1.238.391-3.8.835-3.8.835z" class="cls-11" transform="translate(-77.198 -2502.251)"/>
                                <path id="패스_2940" d="M126.162 2537.119c6.5 2.378 10.2 5.514 11.245 8.395 1.03 2.842-.057 4.622-.758 8.575-.426 2.411-.771 7.361-2.1 9.548-1.844 3.047-4.457 4.889-6.229 7.942-1.906 3.278-2.47 6.04-3 6.646-1.95 2.249-22.217-3.238-22.29-4.954-.129-2.937 2.683-8.154 2.839-11.754.191-4.269-1.022-11.115.434-17.1.747-3.085 3.7-8.074 6.145-9.021 3.158-1.219 8.815-.064 13.7 1.724z" class="cls-11" transform="translate(-93.879 -2507.07)"/>
                                <path id="패스_2941" d="M109.022 2559.817l3.648 42.681c.256 3.966.92 11.409 1.664 19.286 1.3 13.72 2.834 28.738 2.834 28.738l6.135-.464s-.742-15.05-1.316-28.794c-.324-7.8-.593-15.176-.639-19.1l-1.4-43.081-10.921.731z" class="cls-12" transform="translate(-83.72 -2466.02)"/>
                                <path id="패스_2942" d="M104.076 2559l-2.284 47.039-1.262 43.948 6.145.308 3.562-43.673 4.754-46.78-10.915-.842z" class="cls-12" transform="translate(-98.127 -2466.167)"/>
                                <path id="패스_2943" fill="#c29997" fill-rule="evenodd" d="M102.665 2556.97c-.717 2.5-3.026 17.9-3.026 17.9l.089.054 21.427 2.346s.717-3.619 1.491-3.767.8 3.681.8 3.681l18.825-1.016s-3.071-18.7-3.783-19.547c-.984-1.173-35.818.348-35.818.348z" transform="translate(-99.639 -2470.955)"/>
                                <path id="패스_2944" fill="#c29996" fill-rule="evenodd" d="M133.07 2551.716a2.679 2.679 0 0 0-1.332 3.174c.232.747 1.621 4.023 2.173 5.167 3.077 6.361 4.134 13.647 3 16.455-2.764 6.841-10.649 8.206-18.151 8.626-9.678.547-16.136-2.079-18.029-10.026-.569-2.386.787-6.97 2.573-11.576.973-2.516 3.017-4.384 3.6-9.44a16.915 16.915 0 0 0-.262-5.755l26.432 3.376z" transform="translate(-98.01 -2484.25)"/>
                            </g>
                        </g>
                    </g>
                </g>
                <g id="그룹_2886" transform="translate(16.86 80.91)">
                    <g id="그룹_3280">
                        <g id="그룹_3279" clip-path="url(#clip-path-4)">
                            <g id="그룹_2885" transform="translate(5.829 3.535)">
                                <path id="패스_2945" fill="none" stroke="#d7bdbb" stroke-linecap="round" stroke-linejoin="round" stroke-width="0.154px" d="M108.387 2551.26a7.667 7.667 0 0 1 .027 1.141q.016 2.087-.019 4.174c-.1 6.132.1 12.28-.175 18.41m3.222-23.527c.027.278.186 16.988-.224 17.94s-2.068 2.154-2.891 2.936" transform="translate(-93.499 -2546.924)"/>
                                <path id="패스_2946" d="M120.928 2553.877q-2.148-.077-4.3-.187-2.043-.1-4.083-.22-3.369-.2-6.736-.44c-.715-.054-1.432-.108-2.146-.167-.2-.019-.4-.035-.6-.057-.065-.008-.127-.014-.191-.024l-.059-.008-.032-.005-.011-.019-.008-.057v-.024c0-.108.005-.216.011-.327.013-.215.035-.431.054-.647.027-.264.054-.525.084-.79.032-.291.065-.585.1-.876l.024-.246.008-.089v-.042q2.119.174 4.239.323 2.734.194 5.471.356 2.176.13 4.35.229c.515.022 1.033.043 1.548.062.472.017.944.032 1.413.043 1.793.043 3.586.027 5.38-.03.58-.019 1.162-.043 1.742-.07l.609-.024c.062 0 .124-.005.183-.005h.062a.241.241 0 0 1 .046 0l.016.014.016.021a.733.733 0 0 1 .054.125c.027.086.051.172.07.259q.036.17.065.34c.057.334.094.669.121 1.006.027.315.046.631.043.949 0 .092 0 .181-.008.272a2.078 2.078 0 0 1-.027.224.477.477 0 0 1-.032.122l-.019.032-.008.013-.024.008-.054.008c-.057 0-.113.01-.173.013-.218.014-.437.019-.655.021-.364.008-.725.008-1.087.011-.537 0-1.073-.006-1.61-.011h-.005c1.769 3.217 4.137 8.495 3.964 8.6-.224.144-2.583.914-2.777.974-.105.032-4.239-8.233-4.916-9.662h-.105z" class="cls-17" transform="translate(-102.761 -2549.652)"/>
                                <path id="패스_2947" fill="none" stroke="#f9eded" stroke-linecap="round" stroke-linejoin="round" stroke-width="0.305px" d="M107.991 2549.995l4 .059-.049 3.166-4-.057z" transform="translate(-93.971 -2549.07)"/>
                            </g>
                        </g>
                    </g>
                </g>
                <g id="그룹_2888">
                    <g id="그룹_3282">
                        <g id="그룹_3281" class="cls-4">
                            <g id="그룹_2887" transform="translate(38.889 33.313)">
                                <path id="패스_2948" d="M110.506 2532.167c-1.432 1.246-1.367 7.148-1.594 9.7a15.147 15.147 0 0 0 .243 5.612 4.346 4.346 0 0 0 4.368 3.592 5.2 5.2 0 0 0 5.469-3.072 18.431 18.431 0 0 0 .814-4.641c.229-1.887.744-7.318.03-9.117a5.915 5.915 0 0 0-9.33-2.074z" class="cls-10" transform="translate(-108.769 -2530.69)"/>
                            </g>
                        </g>
                    </g>
                </g>
                <g id="그룹_2890" transform="translate(38.891 33.317)">
                    <g id="그룹_3284">
                        <g id="그룹_3283" clip-path="url(#clip-path-6)">
                            <g id="그룹_2889" transform="translate(-.507 1.964)">
                                <path id="패스_2949" d="M121.115 2542.406c-.162.875-2.109 1.926-5.04 1.44-3.395-.561-5.132-2.64-6.45-5.714-.475-1.108-.9-5.6-.256-6.385s2.815-.132 4.1 1.672c.769 1.079 1.791 3.233 2.578 4.3.617.831 5.593 1.85 5.072 4.692z" class="cls-20" transform="translate(-107.798 -2531.419)"/>
                                <path id="패스_2950" d="M109.869 2542.388c-1.99-2.559-1.1-7.167-1.03-7.122.588.377 2 3.78 5.412 4.134a5.215 5.215 0 0 0 5.965-3.667c.2-.583-.046 6.234-1.154 7.24a5.46 5.46 0 0 1-3.592 1.154c-1.494.064-4.622-.478-5.6-1.739z" class="cls-11" transform="translate(-108.582 -2524.894)"/>
                            </g>
                        </g>
                    </g>
                </g>
                <g id="그룹_2892">
                    <g id="그룹_3286">
                        <g id="그룹_3285" class="cls-4">
                            <g id="그룹_2891" transform="translate(38.892 19.515)">
                                <path id="패스_2951" d="M116.842 2530.668c.011-.06.07.1.1.156.057.1.113.2.17.305a4.915 4.915 0 0 1 .364.9c.275.958.108 2.554-1.135 2.823a1.274 1.274 0 0 1-1.3-.779 2.512 2.512 0 0 1 .278-2.935" class="cls-21" transform="translate(-98.705 -2516.951)"/>
                                <path id="패스_2952" d="M109.04 2534.234a11.22 11.22 0 0 1 4.406-7.362c3.346-2.318 8.16-1.378 10.8 1.583 3.241 3.64 2.931 9.665 2.411 14.148a8.825 8.825 0 0 1-7.17 7.979 7.494 7.494 0 0 1-2.918.157 10.46 10.46 0 0 1-5.25-3.2c-3.15-3.378-2.635-9.858-2.276-13.3z" class="cls-10" transform="translate(-108.77 -2525.573)"/>
                            </g>
                        </g>
                    </g>
                </g>
                <g id="그룹_2894" transform="translate(38.893 19.515)">
                    <g id="그룹_3288">
                        <g id="그룹_3287" clip-path="url(#clip-path-8)">
                            <g id="그룹_2893" transform="translate(5.552 8.493)">
                                <path id="패스_2953" d="M114.607 2529.524a.849.849 0 1 0 .9.836.865.865 0 0 0-.893-.836z" class="cls-23" transform="translate(-105.781 -2527.364)"/>
                                <path id="패스_2954" d="M111.933 2529.507a.848.848 0 1 0 .893.833.862.862 0 0 0-.893-.833z" class="cls-23" transform="translate(-110.318 -2527.392)"/>
                                <path id="패스_2955" fill="none" stroke="#110101" stroke-linecap="round" stroke-linejoin="round" stroke-width="0.25px" d="M121.979 2529.125a8.954 8.954 0 0 0-1.691-.278 3.52 3.52 0 0 0-1.305.183c-1.58.615-1.305 2.956-1.243 4.242.019.37.065.737.105 1.106a3.419 3.419 0 0 1-.032 1.626 1.214 1.214 0 0 1-1.5.83 1.145 1.145 0 0 1-.189-.072m-1.515-7.833a6.723 6.723 0 0 0-3.492.051" transform="translate(-110.349 -2528.722)"/>
                                <path id="패스_2956" d="M112.789 2532.018c.79.278 1.537 1.089 3.22 1.356.822.132 2.184 0 2.578.92s-.582 1.877-1.381 2.254a4.518 4.518 0 0 1-4.908-.739 3.443 3.443 0 0 1-1.456-2.95c.1-1.065 1.022-1.168 1.947-.841z" class="cls-3" transform="translate(-110.829 -2523.409)"/>
                            </g>
                        </g>
                    </g>
                </g>
                <g id="그룹_2896">
                    <g id="그룹_3290">
                        <g id="그룹_3289" class="cls-4">
                            <g id="그룹_2895" transform="translate(35.681 28.475)">
                                <path id="패스_2957" d="M112.527 2531.666a5.535 5.535 0 0 0-.955-1.777 3.208 3.208 0 0 0-1.084-.79 1.925 1.925 0 0 0-2.726 1.387 3.621 3.621 0 0 0 .582 3.365 2.368 2.368 0 0 0 3.352.358l.833-2.542z" class="cls-10" transform="translate(-107.579 -2528.896)"/>
                            </g>
                        </g>
                    </g>
                </g>
                <g id="그룹_2898" transform="translate(35.681 28.475)">
                    <g id="그룹_3292">
                        <g id="그룹_3291" clip-path="url(#clip-path-10)">
                            <g id="그룹_2897" transform="translate(1.44 1.708)">
                                <path id="패스_2958" fill="none" stroke="#ff9e9c" stroke-linecap="round" stroke-linejoin="round" stroke-width="0.156px" d="M108.113 2529.685a1.036 1.036 0 0 1 .911-.089 2.535 2.535 0 0 1 1.462 1.416m-.906-1.141c-.162-.037-.448.3-.518.391a1.563 1.563 0 0 0 .049 1.831" transform="translate(-108.113 -2529.529)"/>
                            </g>
                        </g>
                    </g>
                </g>
                <g id="그룹_2900">
                    <g id="그룹_3294">
                        <g id="그룹_3293" class="cls-4">
                            <g id="그룹_2899" transform="translate(-20.123 18.162)">
                                <path id="패스_2959" d="M120.842 2525.907c-3.627 1.178-4.433 3.681-6.8 6.251-1.4 1.528-3.43 2.858-5.649 2.354a11.935 11.935 0 0 1 1.858-6.544c1.826-2.529 7.588-2.877 10.589-2.061" class="cls-8" transform="translate(-50.391 -2524.319)"/>
                                <path id="패스_2960" d="M120.774 2525.477c-3.926.286-4.091 3.972-6.483 5.938-1.445 1.189-3.487 1.306-4.867 2.564m7.531-8.079c-1.631.936-2.67 2.325-4.11 3.479-1.116.9-2.559 1.256-3.578 2.294a7.057 7.057 0 0 0-1.486 2.858" class="cls-9" transform="translate(-51.43 -2524.382)"/>
                                <path id="패스_2961" d="M109.842 2535.636a10.266 10.266 0 0 1 1.133-4.53c1.2-2.214 5.45-4.711 9.287-4.7a8.022 8.022 0 0 1 6.043 2.888c.218.194.518.2.423-.021a11.617 11.617 0 0 0-1.556-1.831 10.948 10.948 0 0 0-5.016-2.335c-3.686-.264-8.047 1.057-10.473 4.724a11.038 11.038 0 0 0-1.661 5.782 1.7 1.7 0 0 1 .817-.227 2.71 2.71 0 0 1 1 .253z" class="cls-23" transform="translate(-51.023 -2525.071)"/>
                                <path id="패스_2962" d="M109.8 2530.774c.011-.06.07.1.1.156.057.1.113.2.167.3a4.676 4.676 0 0 1 .367.9c.275.958.108 2.554-1.135 2.824a1.282 1.282 0 0 1-1.3-.779 2.508 2.508 0 0 1 .28-2.935" class="cls-21" transform="translate(-51.645 -2515.417)"/>
                                <path id="패스_2963" fill="#ebbd36" fill-rule="evenodd" d="M91.034 2538.939s-.342 2.745-.3 2.944c.14.742.307 1.476.453 2.214.386 1.947.7 3.9 1.06 5.852 1.095 5.911 2.37 12.067 5.59 17.3 1.321 2.149 3.546 4.42 6.369 3.282 6.38-2.578 7.116-17.991 6.7-23.687-.14-1.925 0-5.62-1.621-7.11-2.8-2.573-14.621-1.362-18.25-.79z" transform="translate(-80.362 -2502.881)"/>
                                <path id="패스_2964" d="M120.3 2535.145c4.409 1.432 2.907 5.134.742 8.556a80.567 80.567 0 0 1-8.23 11.2c-1.993 2.246-7.693 13.234-12.806 9.665-3.686-2.572 4.778-12.2 6.323-14.777 1.79-2.99 4.519-6.323 7.823-10.762 2.117-2.845 4.665-4.366 6.148-3.886z" class="cls-10" transform="translate(-66.185 -2508.127)"/>
                                <path id="패스_2965" d="M103.011 2544.445l.013-.022c.1-.143 5.361-6.439 5.781-6.8 1.5-1.281 5.6-4.357 7.793-1.788.65.76.485 2.179.469 3.109-.051 2.815-5.763 10.892-6.04 10.961a36.7 36.7 0 0 1-5.056-3.017c-1.062-.723-2.961-2.446-2.961-2.446z" class="cls-11" transform="translate(-59.525 -2508.492)"/>
                                <path id="패스_2966" d="M105.765 2563.982c2.661-.154 4.107-3.813 2.81-7.621-1.669-4.905-2.459-8.2-4.441-13.315-1.073-2.767-1.812-7.922-5.2-7.335-3.557.617-1.666 5.393-1 9.368.569 3.408 1.839 7.332 3.2 12.631.874 3.4 1.666 6.439 4.63 6.272z" class="cls-10" transform="translate(-70.009 -2507.098)"/>
                                <path id="패스_2967" d="M105.547 2542.261c.183-1.229-.326-2.227-2.187-4.26a19.982 19.982 0 0 0-4.023-2.969c-.963-.6-1.23-1.418-2.61-1.408-1.049.005 1.9 3.662 1.745 3.8-1.111.987-1.661-2.141-3.384-1.72-.849.208-.334 3.616-.089 4.522a26.838 26.838 0 0 0 1.23 4.543c.874 1.408 4.687 1.151 5.509 1.024a4.239 4.239 0 0 0 3.81-3.529z" class="cls-12" transform="translate(-73.764 -2510.558)"/>
                                <path id="패스_2968" d="M119.793 2544a.913.913 0 0 0-.081-.1 16.365 16.365 0 0 0-3.031-2.152 24.616 24.616 0 0 0-6.474-2.678c-6.83-1.7-15.656-.75-21.322 3.484" class="cls-28" transform="translate(-83.49 -2502.673)"/>
                                <path id="패스_2969" d="M99.237 2538.179c1.375-2.171-2.19-5.566-4.908-2.858-1.893 1.882 1.853 5.981 1.853 8.92" class="cls-29" transform="translate(-75.16 -2509.382)"/>
                                <path id="패스_2970" fill="#ffbebc" fill-rule="evenodd" stroke="#ff9e9d" stroke-linecap="round" stroke-linejoin="round" stroke-width="0.201px" d="M97.059 2541.688a23.946 23.946 0 0 0 3.123-.375 1.155 1.155 0 0 0 1.022-.788 1.137 1.137 0 0 0-.353-1.117 2.113 2.113 0 0 0-1.421-.2 20.145 20.145 0 0 1-2.928 0c-.059.005 3.948.348 4.46-.578a.8.8 0 0 0-.167-1.119l-.067-.045a2.676 2.676 0 0 0-1.488-.388c-1-.011-3.651-.022-3.678-.092-.035-.095 3.859.493 4.234-.437a.808.808 0 0 0-.488-1.033l-.073-.021a10.709 10.709 0 0 0-1.462-.429c-1.211-.269-1.542-.36-2.8-.652" transform="translate(-73.168 -2509.23)"/>
                                <path id="패스_2971" d="M129.77 2564.974c2.214-1.343 1.8-5.394-1.03-8.341-3.651-3.8-5.816-6.5-9.826-10.346-2.171-2.084-5.134-6.534-7.777-4.458-2.772 2.179 1.009 5.757 3.376 9.146 2.028 2.9 4.886 5.97 8.451 10.271 2.284 2.753 4.341 5.221 6.806 3.727z" class="cls-10" transform="translate(-47.394 -2497.552)"/>
                                <path id="패스_2972" d="M110.576 2543.435c.491-1.151 1.453-1.764 4.128-2.61a20.713 20.713 0 0 1 5.032-.6c1.146-.051 1.807-.629 2.993.053.9.518-3.562 2.236-3.5 2.43.44 1.391 2.559-1.039 3.824.162.623.593-1.615 3.282-2.3 3.945a28.01 28.01 0 0 1-3.452 3.319c-1.491.79-4.649-1.283-5.291-1.793a4.053 4.053 0 0 1-1.429-4.9z" class="cls-12" transform="translate(-47.262 -2499.837)"/>
                                <path id="패스_2973" d="M139.233 2550.372a.66.66 0 0 0-.078-.1 16.36 16.36 0 0 0-3.034-2.152 24.477 24.477 0 0 0-6.474-2.678c-6.83-1.7-15.654-.75-21.319 3.484" class="cls-28" transform="translate(-50.504 -2491.865)"/>
                                <path id="패스_2974" d="M118.682 2544.549c1.373-2.171-2.192-5.566-4.91-2.858-1.893 1.885 1.853 5.983 1.853 8.92" class="cls-29" transform="translate(-42.176 -2498.575)"/>
                                <path id="패스_2975" fill="#ffbebc" fill-rule="evenodd" stroke="#ff9e9d" stroke-linecap="round" stroke-linejoin="round" stroke-width="0.198px" d="M114.623 2546.952a23.014 23.014 0 0 1-2.494-1.845 1.1 1.1 0 0 1-.467-1.176 1.179 1.179 0 0 1 .89-.79 2.085 2.085 0 0 1 1.335.512 18.9 18.9 0 0 0 2.527 1.421c.049.035-3.589-1.618-3.546-2.664a.836.836 0 0 1 .771-.89h.049a2.672 2.672 0 0 1 1.491.386c.86.475 3.16 1.758 3.217 1.71.078-.062-3.589-1.451-3.422-2.436a.845.845 0 0 1 1.006-.645l.032.009a10.79 10.79 0 0 1 1.488.342c1.186.356 1.518.437 2.759.8" transform="translate(-44.899 -2498.865)"/>
                                <path id="패스_2976" fill="none" stroke="#c8bfc4" stroke-linecap="round" stroke-linejoin="round" stroke-width="0.208px" d="M110.261 2539.147c.049.043-.21 2.378-.24 2.551a14.857 14.857 0 0 1-3.673 7.329m25.633-1.4a3.466 3.466 0 0 0 .035.747 12.773 12.773 0 0 1-.189 1.664c-.326 1.987-.8 3.951-1.1 5.946m-7.2-17.086c-.469 2.25-3.373 3.1-4.614 3.08-3.619-.054-7.283-3.2-7.362-6.919" transform="translate(-53.863 -2508.124)"/>
                                <path id="패스_2977" fill="#d25e5e" fill-rule="evenodd" d="M134.2 2544.571s3.061.629 2.974 1.613c-.175 1.92.213 8.054.243 9.441.218 10.854 1.564 21.718 2.484 32.536.574 6.7 6.52 48.072 5.353 50.2-1.639 2.991-14.338 2.75-18.42 3.166-5.951.61-17.967-2.594-18.73-3.182-.906-.7 1.982-37.134 2.972-46.8.911-8.923 2.912-17.717 3.67-26.65.221-2.6-.782-20.564-.464-20.95.046-.054 2.99-.188 3.886.437.911.64 8.529 15.05 8.855 14.925.957-.361 5.148-11.746 7.178-14.739z" transform="translate(-51.185 -2493.127)"/>
                                <path id="패스_2978" fill="none" stroke="#ff7976" stroke-linecap="round" stroke-linejoin="round" stroke-width="0.201px" d="M123.394 2549.764a32.628 32.628 0 0 1-12.134 14.387m-.79 22.295a10.5 10.5 0 0 0 1.165-4.927c-.016-2.424-1.451-5.625-1.281-8.192a78.3 78.3 0 0 1 .871-9.152c.135.218.857 1.335.955 1.575.191.467.38.934.556 1.4a16.354 16.354 0 0 1 1.16 4.838c.113 2.292-.809 4.473-.8 6.76.022 2.794.839 5.5.747 8.311m-2.551-22.791a5.02 5.02 0 0 1 1.777.869 9.248 9.248 0 0 1 2.807 2.879c.194.38.493 1.073.078 1.432-.512.439-1.362-.356-1.672-.687a12.779 12.779 0 0 1-1.92-2.91 7 7 0 0 0-1.1-1.432c-.146-.138.407.221.431.416.043.369.078.739.1 1.108a7.489 7.489 0 0 1-.415 3.673c-.135.283-.518.9-.922.822-.574-.113-.537-1.162-.529-1.556a9.33 9.33 0 0 1 1.364-4.614z" transform="translate(-47.787 -2483.178)"/>
                                <path id="패스_2979" fill="#f3d889" fill-rule="evenodd" d="M99.889 2538.357c.817-.229 6.892 28.33 7.877 28.43 1.332.134 3.648-28.241 4.705-28.748.779-.372 7.691 1.744 8.5 2.333 3.133 2.278 4.252 4.7 5.231 8.5 1.551 6.019 1.537 12.45 2.16 18.6.547 5.39 1.715 10.722 2.319 16.115.283 2.521 2.287 16.767 1.812 18.441-.17.593-3.816 1.033-3.816 1.033s2.173 13.823 1.038 14.624c-4.064 2.866-12.032 1.464-16.57 1.736-2.81.17-5.617.668-8.424.917-2.395.213-11.223 2.562-12.736 2.1-.464-.143-.364-.788-.332-1.135.466-4.635 1.71-14.966 1.626-14.939a10.678 10.678 0 0 1-3.63.418c-.418-.086-2.009-23.218-2.128-25.148q-.635-10.435-.631-20.887c0-5.792-.361-16.179 5.552-19.938 1.888-1.2 5.318-1.855 7.445-2.454zm-5.01 61.233c-.108 0-.507-30.738-.483-30.676a85.066 85.066 0 0 1 2.95 14.885c.186 1.834-2.308 15.791-2.467 15.791zm27.624-31.528c-.369.259-1.909 13.135-1.146 16.681.523 2.446 4.2 9.786 4.2 9.786s.21-2.362-.731-9.246c-.736-5.379-1.586-11.954-1.774-13.974-.41-4.39-.547-3.247-.547-3.247z" transform="translate(-86.884 -2503.143)"/>
                                <path id="패스_2980" fill="none" stroke="#ea9a43" stroke-linecap="round" stroke-linejoin="round" stroke-width="0.201px" d="M123.121 2598.555a.57.57 0 1 0 .469.658.555.555 0 0 0 .008-.094.528.528 0 0 0-.477-.564zm-6.288-44.291c-.065-.062-.059.17-.089.256l-.148.478c-.129.448-.248.9-.356 1.348-.332 1.411-.9 3.924-1.138 5.353m.073-8.82c-.011 0 .019.413.019.434.005.5.005.99 0 1.486-.032 1.912-.235 8.942-.426 11.94m-9.055-28.526a3.82 3.82 0 0 0 .057.4c.043.31.089.623.135.933.129.877.253 1.753.378 2.629.361 2.594.52 5.218.768 7.822.159 1.665-.7 1.608-2.249 1.993-.235.057-1.354.208-1.426.491-.076.308.342.9.453 1.184a7.4 7.4 0 0 1 .852 2.942 13.887 13.887 0 0 1-1.313 3.514 61.831 61.831 0 0 1-3.371 6.417m-8.419-27.987c-.1-.092-.022.267-.016.4.005.267.019.531.032.795.043.869.121 1.734.2 2.6.224 2.556.213 5.083.294 7.642.022.631-.138 2 .569 2.37a7.853 7.853 0 0 0 2.076.669 3.071 3.071 0 0 1 .7.108c.089.518-1.769 1.688-1.475 2.982a13.409 13.409 0 0 0 1.475 3.077c.976 1.831 3.244 5.11 4.255 7.421.418.962.7 4.759.833 5.932.466 3.91.774 7.853 1.119 11.773 1.011 11.512 1.564 23.018 1.564 34.57m20.9-21.163a19.313 19.313 0 0 0-2.284.092 9.241 9.241 0 0 0 .151 2.6 20.182 20.182 0 0 0 2.324.332m-3.975 1.707c-.342 0-2.268.153-2.273.146-.442-.493-.448-6.97-.448-8.162" transform="translate(-79.015 -2502.822)"/>
                                <path id="패스_2981" d="M114.911 2554.474c-.024 0 .607 2.824.326 3.212-.191.264-8.149 1.442-11.512 1.739-2.068.186-12.836.776-13.038.011-.054-.2-.229-2.465.256-2.847.162-.127 9.171-.014 12.124-.187 3.29-.2 11.843-1.931 11.843-1.931z" class="cls-37" transform="translate(-80.56 -2475.19)"/>
                                <path id="패스_2982" d="M98.141 2581.027c.081.337 2.47.035 2.467-.148-.016-1.335.081-4.474.027-5.806a104.744 104.744 0 0 0-1.181-13.559c-.388-2.216-1.219-6.056-4.436-5.471-1.971.355-2.416 3.155-2.583 4.646-.547 4.894-.72 9.845-1.222 14.752-.078.772-.809 5.555-.173 5.941.353.215 1.906.057 2.111-.469.178-.45.9-14.113.9-18.989 0-1.313-.453-4.986 1.6-4.959 2.179.029 2.559 4.787 2.713 6.227.464 4.352-.348 17.331-.229 17.837z" class="cls-37" transform="translate(-80.27 -2472.625)"/>
                            </g>
                        </g>
                    </g>
                </g>
                <path id="패스_2983" fill="none" stroke="#c8bfc4" stroke-linecap="round" stroke-linejoin="round" stroke-width="0.154px" d="M152.529 2581.79a3.925 3.925 0 0 0-3.926-3.926h-45.489a3.925 3.925 0 0 0-3.926 3.926v.542a3.927 3.927 0 0 0 3.926 3.926H148.6a3.927 3.927 0 0 0 3.926-3.926v-.542z" transform="translate(-86.134 -2417.343)"/>
                <path id="패스_2984" fill="#7b95ba" fill-rule="evenodd" d="M128.941 2579.683l-9.209 5.561 2.036-4.374-2.036-2.886 9.209 1.7z" transform="translate(-51.28 -2417.139)"/>
                <path id="패스_2985" fill="#ebe9ea" fill-rule="evenodd" d="M120.7 2579.869c1.561-.229 4.681-.687 6.3-.968a.149.149 0 0 0 .1-.187.147.147 0 0 0-.148-.1c-1.621.28-4.738.738-6.3.965a.154.154 0 0 0-.148.151.149.149 0 0 0 .151.149l.04-.006z" transform="translate(-49.965 -2416.077)"/>
                <path id="패스_2986" fill="#b25150" fill-rule="evenodd" d="M123.764 2523.583a2.1 2.1 0 0 0-2.1-2.1h-11.639a2.1 2.1 0 0 0-2.1 2.1v1.721a2.1 2.1 0 0 0 2.1 2.1h11.641a2.1 2.1 0 0 0 2.1-2.1v-1.721z" transform="translate(-71.308 -2512.991)"/>
                <path id="패스_2987" d="M109.636 2522.338v2.6h1.48a.4.4 0 0 1 .272.086.278.278 0 0 1 .094.212.273.273 0 0 1-.094.216.411.411 0 0 1-.272.081h-1.764a.48.48 0 0 1-.342-.105.45.45 0 0 1-.1-.337v-2.75a.464.464 0 0 1 .1-.329.331.331 0 0 1 .262-.111.352.352 0 0 1 .27.108.476.476 0 0 1 .1.332z" class="cls-42" transform="translate(-69.649 -2512.288)"/>
                <path id="패스_2988" d="M110.05 2525.154v-2.815a.485.485 0 0 1 .1-.33.345.345 0 0 1 .262-.11.361.361 0 0 1 .267.11.467.467 0 0 1 .1.33v2.815a.475.475 0 0 1-.1.332.345.345 0 0 1-.267.108.331.331 0 0 1-.259-.11.454.454 0 0 1-.1-.329z" class="cls-42" transform="translate(-67.709 -2512.289)"/>
                <path id="패스_2989" d="M111.308 2522.376l.814 2.4.82-2.413c.043-.127.073-.213.094-.265a.387.387 0 0 1 .105-.132.358.358 0 0 1 .5.107.286.286 0 0 1 .046.154.415.415 0 0 1-.016.116.894.894 0 0 1-.035.124l-.046.122-.871 2.335c-.032.091-.062.175-.094.256a1.063 1.063 0 0 1-.108.213.528.528 0 0 1-.162.148.55.55 0 0 1-.251.059.51.51 0 0 1-.248-.059.483.483 0 0 1-.165-.148 1.066 1.066 0 0 1-.108-.213c-.032-.078-.062-.165-.094-.253l-.857-2.313-.046-.124a.8.8 0 0 1-.038-.132.455.455 0 0 1-.016-.119.3.3 0 0 1 .1-.227.324.324 0 0 1 .251-.1.292.292 0 0 1 .264.113 1.491 1.491 0 0 1 .159.361z" class="cls-42" transform="translate(-66.885 -2512.289)"/>
                <path id="패스_2990" d="M114.281 2522.479h-1.645v.877h1.513a.368.368 0 0 1 .248.075.246.246 0 0 1 .084.2.26.26 0 0 1-.081.2.346.346 0 0 1-.248.078h-1.515v1.017h1.7a.372.372 0 0 1 .259.079.262.262 0 0 1 .086.21.266.266 0 0 1-.086.208.384.384 0 0 1-.259.078h-1.982a.483.483 0 0 1-.345-.105.474.474 0 0 1-.1-.337v-2.686a.589.589 0 0 1 .046-.253.3.3 0 0 1 .146-.146.64.64 0 0 1 .256-.043h1.925a.371.371 0 0 1 .259.075.287.287 0 0 1 0 .4.369.369 0 0 1-.259.075z" class="cls-42" transform="translate(-64.557 -2512.249)"/>
            </g>
            <path id="패스_2991" fill="none" stroke="#9a8993" stroke-linecap="round" stroke-linejoin="round" stroke-width="0.304px" d="M173.23 2597.473l-9.94-29.584-8.481 30.892" transform="translate(103.194 84.07)"/>
            <path id="패스_2992" fill="#c8bec4" fill-rule="evenodd" d="M165.135 2559.786a39.039 39.039 0 0 0-12.635 2.814c-.677.265-.289 1.6-.173 2.174.251 1.219.523 4.242.715 5.471a79.8 79.8 0 0 0 1.823 8.667c2.182 8.729 5.229 7.512 15.3 7.61 2.146.021 6.588-.4 8.165-2.359 1.677-2.079 2.513-7.651 2.651-10.255.07-1.346.828-11.364-.035-12.227-.615-.617-5.932-2.569-15.81-1.89z" transform="translate(98.609 70.088)"/>
            <g id="그룹_2903" transform="translate(250.717 2629.734)">
                <g id="그룹_3296">
                    <g id="그룹_3295" clip-path="url(#clip-path-12)">
                        <g id="그룹_2902" transform="translate(.755 .897)">
                            <path id="패스_2993" fill="#9a5f5a" fill-rule="evenodd" d="M152.566 2562.911c-1.321-.471 5.061-1.866 6.585-2.138a58.2 58.2 0 0 1 15.734-.488c.51.04 5.091.569 4.978 1.4-.108.792-8.475 1.73-12.776 1.925-4.549.206-13.2-.224-14.521-.7z" transform="translate(-152.388 -2559.979)"/>
                        </g>
                    </g>
                </g>
            </g>
            <path id="패스_2994" d="M163.057 2585.276l-.024.024c-.229.293-.7 1.111-1.154.936-.6-.232-.833-1.135-1.335-1.521-.429-.329-.89-.146-1.3-.4-1.532-.974-.936-3.651-.852-5.059.332-5.515 2.6-10.05 3.8-15.29.8-3.47.566-6.965.987-10.473.283-2.356 1.391-6.21 3.98-7.082 3.864-1.3 1.51 9.091 1.413 10.134-.105 1.116-.224 2.233-.423 3.338a27.766 27.766 0 0 1-.971 3.729c-.483 1.494-1.011 2.974-1.5 4.468-1.72 5.218-2.618 17.2-2.618 17.2z" class="cls-47" transform="translate(108.964 47.434)"/>
            <g id="그룹_2905" transform="translate(267.174 2593.729)">
                <g id="그룹_3298">
                    <g id="그룹_3297" clip-path="url(#clip-path-13)">
                        <g id="그룹_2904" transform="translate(-.466 2.699)">
                            <path id="패스_2995" d="M163.482 2548.2c1.48-1.957 2.214-.148 3.638.095.448.076.844-.253 1.27-.321.582-.091 1.127.232 1.726.165m-7.941 5.11c1.839-2.57 2.78-.332 4.25-.1.636.1 1.27-.486 1.912-.542a18.935 18.935 0 0 0 2.044.081m-7.92 4.811c1.168-1.752 2.246-.423 3.454-.483.51-.027.963-.407 1.472-.49.76-.127 1.378.361 2.13.013m-7.262 4.126c-.194-.065.369-.189.569-.24a2.81 2.81 0 0 1 1.6.072c.4.143.728.456 1.135.561a7.951 7.951 0 0 0 3.047-.493m-7.467 3.982c1.685-.739 1.685.073 3.514.3.591.073 1.068-.429 1.613-.566.515-.13 1.044.076 1.569-.011m-7.434 3.548c1.3-.72 2.554.423 3.778.423.572 0 1.06-.416 1.6-.542a6.363 6.363 0 0 1 1.246.04m-7.645 4.66c.07-.5 1.116-.426 1.491-.345a15.343 15.343 0 0 1 1.809.771 6.721 6.721 0 0 0 3.6-.475m-7.472 3.727c.275.224.7-.24 1.046-.178 2.64.463 2.6 1.194 5.194.623m-7.016 3.729a3.041 3.041 0 0 1 .372-.238 1.744 1.744 0 0 1 1.718.37 2.175 2.175 0 0 0 .89.448c.52.051.914-.466 1.424-.523.582-.06 1.073.348 1.675.227" class="cls-49" transform="translate(-158.038 -2547.296)"/>
                        </g>
                    </g>
                </g>
            </g>
            <path id="패스_2996" d="M162.5 2588.267c-1.329 1.176-2.516.861-2.637.03-.272-1.855-.564-6.274-.671-7.774-.3-4.2-1.885-7.773-2.794-11.808a34.292 34.292 0 0 1 .181-14.662c.4-1.782 1.888-9.47 4.331-9.47 3.46 0 3.848 7.942 4.1 10.277.364 3.408.879 7.113.334 10.536-.658 4.109-2.4 7.952-2.961 12.1-.464 3.427.119 10.772.119 10.772z" class="cls-47" transform="translate(104.689 44.53)"/>
            <g id="그룹_2907" transform="translate(260.381 2589.113)">
                <g id="그룹_3300">
                    <g id="그룹_3299" clip-path="url(#clip-path-14)">
                        <g id="그룹_2906" transform="translate(-.684 2.069)">
                            <path id="패스_2997" d="M159.828 2583.6c.14-1.162.728-.6 1.526-.682.464-.051.941-.429 1.459-.509m-3.856-1.691c.173-.243.31-.863.655-1.187.707-.666 1.011.588 1.631.483.51-.083.671-.831 1.6-.979m-4.528-3.061c.119.116.094-.327.183-.467a2.128 2.128 0 0 1 1.052-.936c.884-.294 1.235.688 2 .75.52.04.914-.78 1.54-.86m-6.237-4.115c-.415-.179 1.184-1.214 1.41-1.251.591-.094 1.079.286 1.65.313.62.027 1.095-.542 1.691-.652 1.556-.294 1.809.62 3.454-.394m-9.435-3.845c.027.094.07-.187.129-.264a3.486 3.486 0 0 1 .4-.464 3.439 3.439 0 0 1 2.173-1.008c.866-.04 1.685.526 2.548.3.68-.175 1.24-.963 1.92-1.009 1.224-.076 1.666.957 2.974.111m-10.336-4.218c.431-.31.634-.9 1.227-1.163.081-.035.164-.064.248-.091 1.1-.367 2.1.246 3.182.035.893-.175 1.588-1.008 2.538-.97.51.022.876.51 1.378.577l.086.009a.317.317 0 0 0 .186-.019c.421-.124.739-.5 1.143-.615.372-.108.717.194 1.089-.019m-10.185-3.788c-.038-.024-.011-.051.013-.095a2.812 2.812 0 0 1 2.4-1.046 2.591 2.591 0 0 1 .747.148c1.8.607 1.774-.272 3.506-.326.5-.014 1.108.628 1.559.515.477-.119.76-.7 1.292-.831m-8.815-3.524c.062.049.108-.119.167-.167.574-.485 1.416-1.219 2.217-1.151.593.051 1.006.509 1.569.625.76.154 1.286-.345 2-.412 1.154-.113 1.634.478 2.616-.307" class="cls-49" transform="translate(-155.438 -2545.35)"/>
                        </g>
                    </g>
                </g>
            </g>
            <path id="패스_2998" d="M166.36 2586.444l-.027.032c-.245.3-2.718 1.81-3.247.852-1.54-2.791-.437-6.822-1.764-9.686-.963-2.082-2.732-3.624-4.012-5.509a52.124 52.124 0 0 1-7.337-15.6c-.669-2.483-2.163-9.495.849-11.04 3.066-1.572 5 6.552 5.479 8.23 1.184 4.182 2.467 8.373 3.94 12.461 1.435 3.977 3.29 7.943 4.358 12.035.55 2.104 1.761 8.225 1.761 8.225z" class="cls-47" transform="translate(93.348 45.73)"/>
            <g id="그룹_2909" transform="translate(242.357 2591.021)">
                <g id="그룹_3302">
                    <g id="그룹_3301" clip-path="url(#clip-path-15)">
                        <g id="그룹_2908" transform="translate(-.958 2.431)">
                            <path id="패스_2999" d="M148.652 2549.833c0 .021.143-.512.208-.653a1.608 1.608 0 0 1 1.111-1.022c.456-.073 1 .092 1.435-.089.537-.224.752-.882 1.267-1.152.731-.382 1.518-.027 2.109-.725m-4.932 7.1c-.248-.2.928-1.292 1.265-1.418.566-.216 1.178.083 1.739-.116.453-.162.7-.68 1.084-.96.831-.609 1.737-.4 2.492-1.253m-5.73 8.553c.388-1.841 2-1.434 2.939-2.011.523-.324.76-.965 1.324-1.241.941-.461 1.788-.337 2.637-1.091m-5.447 8.208c.876-2.012 1.691-1.181 3.028-1.971.526-.31.849-.863 1.41-1.138a9.749 9.749 0 0 0 2.783-1.467m-4.754 8.567a3.376 3.376 0 0 1 .2-.685 1.978 1.978 0 0 1 1.373-.717c1.084-.121 1.232-1.019 2.1-1.513.822-.463 1.631-.785 2.43-1.316m-4.091 7.615c.167-.183.248-.785.5-1.068.488-.549 1.138-.649 1.691-1.073.3-.232.491-.577.785-.82.526-.437 1.391-.229 1.78-.809m-2.721 7.265c-.14-.28.79-1.148.96-1.289.6-.5 1.275-.413 1.92-.76.556-.3 1-1.006 1.54-1.4m-2.362 5.887c-.132-.054.736-.787.787-.817.952-.54 2.02-.645 2.891-1.346m-2.748 6.652c.116.03.057-.242.127-.345a1.978 1.978 0 0 1 .844-.633c.626-.292 1.281-.024 1.882-.26.348-.137.744-.757 1.408-1.076m-3.635 6.162c.03.046.1-.14.111-.159a1.581 1.581 0 0 1 .769-.69c.483-.189.952.216 1.391.062.272-.094.3-.439.523-.6.267-.2 1.305.06 1.607-.04" class="cls-49" transform="translate(-148.652 -2546.192)"/>
                        </g>
                    </g>
                </g>
            </g>
            <path id="패스_3000" d="M163.878 2589.195s-1.8 1.292-2.3.588-.213-2.658-.4-3.486a59.324 59.324 0 0 0-2.168-7c-.7-1.919-1.963-4.229-2.484-6.212-.965-3.67-.491-7.1-.841-10.846-.262-2.807-2.775-4.531-3.093-8.931-.3-4.18 2.357-10.163 3.964-9.727 1.774.479 2.16 7.351 2.244 8.758.14 2.322 1.044 5.3 1.249 7.626.372 4.2-.531 8.211.208 12.353.485 2.729 1.4 5.882 1.933 8.6.6 3.1 1.281 5.617 1.693 8.275z" class="cls-47" transform="translate(99.384 42.79)"/>
            <g id="그룹_2911" transform="translate(251.947 2586.348)">
                <g id="그룹_3304">
                    <g id="그룹_3303" clip-path="url(#clip-path-16)">
                        <g id="그룹_2910" transform="translate(-.585 3.801)">
                            <path id="패스_3001" d="M160.528 2585.709c-.208-1.051 1.925-.914 2.287-1.006a11.119 11.119 0 0 0 1.259-.687m-3.489-1.661a2.806 2.806 0 0 1 .434-.73 2.287 2.287 0 0 1 .475-.308c.982-.477 1.3.124 2.295-.73m-4.638-2.481c.124-.129.294-.615.564-.814.623-.464 1.079-.1 1.731-.237a4.867 4.867 0 0 0 1.189-.623m-4.614-2.271c-.019.132.113-.248.21-.337a2.022 2.022 0 0 1 .717-.353 6.133 6.133 0 0 0 2.424-1.144m-5.436-3.036c-.113-.011.146-.175.216-.265a1.777 1.777 0 0 1 1.4-.739 4.335 4.335 0 0 0 1.478.151c.577-.164.7-.825 1.184-1.068.364-.181.944.289 1.211-.07m-5.471-3.158c.148.06.181-.269.313-.358a3.293 3.293 0 0 1 1.483-.575c.58-.054 1.227.326 1.758.232.334-.06.437-.691.758-.855s.825.216 1.044-.021m-5.865-3.058c-.105-.03 1.017-.919 1.2-1.005a2.928 2.928 0 0 1 .448-.17c.426-.116.884.013 1.3-.151a21.232 21.232 0 0 0 2.057-1.292m-6.477-.485c.024.032.081-.121.1-.148a2.5 2.5 0 0 1 1.453-1c1.575-.482 3.042-1.038 4.592-1.631m-7.774-1.68c.059 0 .032-.113.054-.17.186-.467.577-1.157 1.122-1.246s.9.493 1.421.475c.6-.02 1.076-.866 1.58-1.136 1.068-.569 1.478.318 2.866-.741m-6.69-2.312c-.21-.391 1.03-.941 1.278-1.019.8-.251 1.47.135 2.23.024.461-.067.706-.5 1.108-.682a5.623 5.623 0 0 1 1.219-.167" class="cls-49" transform="translate(-152.347 -2544.967)"/>
                        </g>
                    </g>
                </g>
            </g>
            <path id="패스_3002" fill="none" stroke="#6f5e68" stroke-linecap="round" stroke-linejoin="round" stroke-width="0.304px" d="M156.5 2598.091l-2.664-28.829 12.4 31.132 10.155-32.105-1.416 28.473" transform="translate(101.543 84.749)"/>
            <path id="패스_3003" d="M195.834 2639.127c-.267-.739-5.471-7.618-5.21-12.4.183-3.277 1.855-6.893 1.8-11.1-.054-3.888-6.021-9.793-6.2-13.855-.28-6.208 2.591-10.1 2.2-14.922-.453-5.627-5.07-11.15-5.31-11.744-1.391-3.454 1.483-7 1.464-8.524-.038-2.993-3.1-6.464-4.776-9.152-2.656-4.25-9.217-6.715-14.44-5.908a18.076 18.076 0 0 0-7.623 3.208 18.816 18.816 0 0 0-4.11 4.048c-1.3 1.723-4.916 4.025-6.075 7.188-.984 2.684.5 6.227-.7 8.114-.386.607-7.294 1.882-8.721 6.313-1.079 3.343-1.359 10.093-3.473 12.253-2.8 2.866-7.022 4.177-8.607 9.244-1.95 6.234 1.394 9.67-.758 14.494s-10.255 10.166-10.255 10.166 28.039 8.421 41.505 10.517c12.97 2.02 39.286 2.06 39.286 2.06z" class="cls-54" transform="translate(35.727 56.049)"/>
            <path id="패스_3004" fill="none" stroke="#f6a783" stroke-linecap="round" stroke-linejoin="round" stroke-width="0.234px" d="M172.611 2573.46c-.369 4.423 2.192 8.4 2.351 12.723.173 4.722-3.756 8.346-3.821 13.041-.081 6.162 3.562 12.121 3.948 18.25.4 6.293-1.332 13.334.647 19.728m-6.5-59.319c2.214 8.006-2.71 14.772-3.109 22.541-.31 6.062 2.168 11.558 2.8 17.5.3 2.869-.429 5.655-.491 8.5-.07 3.312.448 7.351.612 10.67m-4.19-85.295a19.03 19.03 0 0 0-9.424 2.322c-3.956 2.3-6.655 6.855-7.682 11.062-.617 2.521-.232 5.234-1.448 7.615-2.047 4.006-7.327 5.42-9.664 9.195-2.575 4.155-1.866 9.12-3.689 13.448-1.718 4.083-6.658 5.954-8.036 10.292-2.44 7.7 1.634 15.675-7.043 21.592m33.933-59.287c-.666 2.684-.221 5.876-1.718 8.32-1.224 2-3.263 3.465-5 5.093a21.692 21.692 0 0 0-5.814 8.7c-1.564 4.63-.879 9.646-2.462 14.265-1.545 4.508-5.064 8.159-6.52 12.706-1.122 3.5-.688 9.67-3.163 12.763m27.1-53.925a66.589 66.589 0 0 1-3.511 12.623c-2.2 5.191-5.1 10.045-6.66 15.468-1.888 6.571-.728 13.183-2.43 19.45-.909 3.341-3.4 5.676-5.034 8.659m38.132-73.273a11.706 11.706 0 0 1 1.658 12.1c-.733 1.771-1.583 3.521-1.31 5.476.523 3.716 3.462 6.709 4.193 10.315.491 2.416-.844 4.406-1.421 6.66a17.224 17.224 0 0 0-.313 5.477 23.97 23.97 0 0 0 1.631 7.478c.79 1.966 2.149 3.729 2.362 5.833.4 3.923-1.661 7.5-1.683 11.406-.027 5.067 2.473 9.244 4.927 13.717" transform="translate(40.525 56.782)"/>
            <path id="패스_3005" d="M139.909 2574.432c1-3.075 5.9-3.608 10.15-.879 5.474 3.52 9.255 5.493 14.882 9.44 3.047 2.136 9.109 4.641 7.356 8.429-1.839 3.975-7.087.24-11.73-1.8-3.98-1.75-8.378-4.484-14.424-7.766-3.872-2.1-7.343-4-6.234-7.421z" class="cls-10" transform="translate(77.558 90.679)"/>
            <path id="패스_3006" d="M162.611 2587.986a15.8 15.8 0 0 0-9.392-8.629m7.766 11.474c-1.64-3.851-4.945-8.244-8.047-10.233m5.037 10.681c-1.006-3.737-3.481-6.936-5.676-9.832m2.257 9.084a10.378 10.378 0 0 0-3.81-7.246m10.026-3.554a32.385 32.385 0 0 0-7.138-1.928" class="cls-56" transform="translate(96.299 100.891)"/>
            <path id="패스_3007" d="M154.121 2577.84a3.067 3.067 0 1 0 2.087 3.8 3.067 3.067 0 0 0-2.087-3.8z" class="cls-57" transform="translate(95.364 100.742)"/>
            <path id="패스_3008" d="M137.636 2562.485c4.662-3.168 7.281 1.1 9.136 5.792a101.415 101.415 0 0 1 5.237 16.476c.8 3.636 3.16 10.05-2.165 11.841-4.6 1.551-6.251-6.013-7.715-9.467-1.693-4-3.044-9.177-5.091-15.748-1.308-4.207-.971-7.829.6-8.893z" class="cls-10" transform="translate(71.671 73.047)"/>
            <path id="패스_3009" d="M106.894 2596.6a7.3 7.3 0 0 1-6.2 13.1 6.866 6.866 0 0 1-3.856-7.715l-.092-.188a31.4 31.4 0 0 1-2.516-9.137 12.04 12.04 0 0 1-.111-4.228 7.327 7.327 0 0 1 3.263-4.738 3.1 3.1 0 0 1 2.335-.72c2.012.534 1.971 3.123 2.306 4.88.677 3.549 3.346 7.009 4.87 8.748z" class="cls-10" transform="translate(0 109.579)"/>
            <path id="패스_3010" d="M140.831 2593.311a5.547 5.547 0 1 0-4.563-7.753l-.148.079a24.463 24.463 0 0 0-5.8 4.7 8.932 8.932 0 0 0-1.955 2.632 5.282 5.282 0 0 0 .148 4.409 2.509 2.509 0 0 0 1.294 1.464c1.626.529 2.75-1.127 3.762-2.095 2.047-1.955 5.428-2.993 7.256-3.438z" class="cls-10" transform="translate(57.63 108.421)"/>
            <path id="패스_3011" d="M136.753 2592.394l2.241-15.648s21.732 4.438 33.448 9.06a32.025 32.025 0 0 1 8.111 4.19 10.887 10.887 0 0 1 3.646 4.763c.839 2.7.933 5.423-1.391 7.788a7.209 7.209 0 0 1-4.873 2.624 38.422 38.422 0 0 1-5.007.086c-11.077-.426-39.4-2.815-39.4-2.815l.227-9.92 3-.126z" class="cls-10" transform="translate(67.079 99.096)"/>
            <path id="패스_3012" d="M175.791 2574.438s-8.872 5.688-18.768 11.525c-4.255 2.511-8.661 5.06-12.644 7.176-8.025 4.269-16.1 8.157-23.3 11.409-13.707 6.2-24.018 10.128-24.018 10.128l2.969 9.47s10.988-2.767 25.706-7.439c7.8-2.478 16.584-5.5 25.361-8.923 4.414-1.72 9.33-3.834 14.081-5.93 10.835-4.786 20.6-9.537 20.6-9.537l-9.991-17.879z" class="cls-10" transform="translate(5.226 95.182)"/>
            <path id="패스_3013" d="M184.128 2577.39c.1.043.086 5.992 14.114 3.5 12.93-2.3 29.069 4.139 29.239 6 .278 3.069-23.344 15.009-46.206 14.713-10.18-.135-29.719 11.25-42.994 10.083-14.432-1.268-27.405-3.827-32.6-7.445-3.87-2.691 40.686-19.839 43-23.914 3.063-5.385 3.969-6 3.969-6l31.48 3.071z" class="cls-58" transform="translate(19.438 94.979)"/>
            <path id="패스_3014" d="M155.5 2559.964c9.538 1.888 11.973 4.371 13.192 8.017 1.2 3.6-1.615 7.014-1.688 11.614-.049 3.082 1.1 9.867-.539 12.6-2.287 3.811-7.858 4.859-10.058 8.678-2.365 4.107-1.478 8.168-6.232 8.37-3.686.157-28.365-9.074-27.988-11.2.437-2.465 6.938-5.666 7.192-10.2.3-5.376-2-11.727 1.847-18.453 5.177-9.049 18.059-10.651 24.274-9.421z" class="cls-58" transform="translate(47.848 70.01)"/>
            <path id="패스_3015" d="M145.321 2564.963c-.461 5.169-5.4 15.978-8.076 15.378-2.893-.65-5.474-14.987-4.409-18.8l12.485 3.422z" class="cls-10" transform="translate(65.498 73.3)"/>
            <g id="그룹_2913" transform="translate(198.088 2634.841)">
                <g id="그룹_3306">
                    <g id="그룹_3305" clip-path="url(#clip-path-17)">
                        <g id="그룹_2912" transform="translate(-5.406 2.595)">
                            <path id="패스_3016" d="M133.234 2570.495a29.4 29.4 0 0 1 4.126-.218 16.74 16.74 0 0 0 10.592-1.562c2.087-1.071 6.288-4.978 1.626-5.986s-10.5 1.616-14.718 3.36c-2.845 1.176-7.1 3.495-1.626 4.406z" class="cls-20" transform="translate(-130.586 -2562.504)"/>
                        </g>
                    </g>
                </g>
            </g>
            <path id="패스_3017" fill="none" stroke="#ea9a43" stroke-linecap="round" stroke-linejoin="round" stroke-width="0.228px" d="M157.332 2577.5c-10.1 2.079-25.167.974-31.037-2.529m31.531 3.67c-13.725 2.535-26.9-.413-32.456-4.264m.456.323c-.116.017.116.206.173.308.1.178.189.361.275.548.291.625.555 1.262.8 1.9a14.357 14.357 0 0 1 1.141 5.14c-.005.582-.111 1.833-.92 1.9-.739.065-1.251-1.024-1.462-1.561a12.851 12.851 0 0 1-.569-5.8 14.84 14.84 0 0 1 .3-1.947c.046-.194.092-.386.151-.575a.69.69 0 0 0-.073.253 4.073 4.073 0 0 1-.4 1.483 19.282 19.282 0 0 1-1.683 4.333c-.289.486-1.257 1.99-2.033 1.465-.709-.48-.032-2 .2-2.546.79-1.831 4.091-4.908 4.091-4.908z" transform="translate(46.198 95.071)"/>
            <path id="패스_3018" d="M131.462 2563.284a14.26 14.26 0 0 1 5.69-9.061c4.161-2.767 9.945-1.359 13 2.494 3.751 4.735 3.088 12.307 2.241 17.929-.755 5.013-3.98 8.823-9.06 9.713a8.711 8.711 0 0 1-3.541.064 12.616 12.616 0 0 1-6.2-4.279c-3.659-4.405-2.724-12.537-2.13-16.86z" class="cls-10" transform="translate(62.626 58.432)"/>
            <path id="패스_3019" d="M138.591 2558.1a1.069 1.069 0 1 0 1.044 1.095 1.069 1.069 0 0 0-1.044-1.095z" class="cls-17" transform="translate(73.824 67.466)"/>
            <path id="패스_3020" d="M135.275 2558.027a1.068 1.068 0 1 0 1.044 1.095 1.069 1.069 0 0 0-1.044-1.095z" class="cls-17" transform="translate(68.199 67.339)"/>
            <path id="패스_3021" fill="none" stroke="#403642" stroke-linecap="round" stroke-linejoin="round" stroke-width="0.398px" d="M146.975 2557.662a10.519 10.519 0 0 0-2.036-.429 4.056 4.056 0 0 0-1.588.173c-1.944.7-1.723 3.662-1.71 5.28 0 .467.04.933.073 1.4a4.531 4.531 0 0 1-.116 2.047 1.458 1.458 0 0 1-2.087.876m-1.459-9.94a7.862 7.862 0 0 0-4.234-.094" transform="translate(67.581 65.139)"/>
            <path id="패스_3022" d="M135.741 2560.9c.944.388 1.807 1.445 3.832 1.86.99.2 2.645.095 3.077 1.276s-.8 2.337-1.78 2.777a5.321 5.321 0 0 1-5.908-1.163 4.415 4.415 0 0 1-1.621-3.783c.17-1.335 1.294-1.421 2.4-.968z" class="cls-3" transform="translate(66.717 71.788)"/>
            <path id="패스_3023" d="M135.483 2560.416a7.017 7.017 0 0 0-1.071-2.281 3.87 3.87 0 0 0-1.275-1.049c-1.507-.793-2.842.089-3.368 1.621a4.715 4.715 0 0 0 .545 4.266 2.8 2.8 0 0 0 4.042.606l1.13-3.163z" class="cls-10" transform="translate(60.235 65.238)"/>
            <path id="패스_3024" d="M146.015 2553.351c-4.447 1.316-5.547 4.428-8.529 7.556-1.777 1.861-4.288 3.441-6.957 2.7.253-2.866.8-5.8 2.567-8.155 2.33-3.1 9.325-3.271 12.922-2.1" class="cls-54" transform="translate(62 58.275)"/>
            <path id="패스_3025" fill="none" stroke="#f6a783" stroke-linecap="round" stroke-linejoin="round" stroke-width="0.25px" d="M145.953 2552.682c-4.773.178-5.142 4.813-8.133 7.178-1.809 1.432-4.282 1.483-6.013 3m9.5-9.824c-2.02 1.1-3.344 2.8-5.142 4.19-1.394 1.077-3.158 1.462-4.441 2.721a9.082 9.082 0 0 0-1.939 3.533" transform="translate(60.741 58.27)"/>
            <path id="패스_3026" d="M128.99 2564.217c5.183-2.22 6.936 2.47 7.86 7.434a101.756 101.756 0 0 1 1.987 17.172c.086 3.721 2.133 15.327-3.438 16.066-4.813.639-5.938-11.954-6.712-15.629-.9-4.255-1.235-9.591-1.985-16.428-.48-4.382.545-7.871 2.287-8.615z" class="cls-10" transform="translate(55.309 76.88)"/>
            <path id="패스_3027" fill="none" stroke="#212d43" stroke-linecap="round" stroke-linejoin="round" stroke-width="0.775px" d="M247.3 2626.219a3.536 3.536 0 0 1-2.111-2.2l-13.383-40.5a7.762 7.762 0 0 0-7.367-5.323h-85.43a7.76 7.76 0 0 0-7.181 4.822l-15.7 38.4a4.424 4.424 0 0 0 2.422 5.765l.105.043 24.738 9.357a5.318 5.318 0 0 0 6.8-2.95c3.737-9.082 11.83-28.737 15.573-37.838a7.751 7.751 0 0 1 7.173-4.8h85.443a7.753 7.753 0 0 1 7.364 5.32c2.947 8.913 8.858 26.8 11.943 36.125a3 3 0 0 1-3.913 3.756l-26.48-9.979z" transform="translate(37.016 101.565)"/>
            <path id="패스_3028" fill="#b1a3ab" fill-rule="evenodd" d="M122.718 2580.008a1.109 1.109 0 0 1 .345-2.163l94.868-.129a1.1 1.1 0 0 1 .348.057l34.276 11.32a1.108 1.108 0 0 1-.348 2.16l-95.334-.049a1.085 1.085 0 0 1-.348-.057l-33.809-11.142z" transform="translate(47.454 100.744)"/>
            <path id="패스_3029" d="M131.716 2604.767c-3.2-.464-4.544-6.005-2.559-11.515 2.559-7.1 3.878-11.9 6.833-19.277 1.6-3.991 3.063-11.544 7.095-10.368 4.225 1.235 1.418 8.125.175 13.938-1.062 4.983-3.028 10.665-5.258 18.374-1.429 4.938-2.726 9.368-6.286 8.848z" class="cls-10" transform="translate(58.092 76.595)"/>
            <path id="패스_3030" d="M129.426 2562.8c1.243 4.768 3.462 10.307 7.332 11.261m-5.261-13.8c.982 4.067 2.208 8.591 4.94 11.067m-1.9-11.013c.378 3.851 2.292 7.413 3.98 10.63m-.731-9.33a10.366 10.366 0 0 0 2.567 7.771" class="cls-56" transform="translate(60.128 71.136)"/>
            <path id="패스_3031" d="M133.338 2569.216a3.067 3.067 0 1 0-1.435-4.094 3.066 3.066 0 0 0 1.435 4.094z" class="cls-57" transform="translate(63.817 76.428)"/>
            <path id="패스_3032" fill="none" stroke="#ff9e9c" stroke-linecap="round" stroke-linejoin="round" stroke-width="0.233px" d="M137.72 2562.924a19.455 19.455 0 0 0 1.567 5.122m-4.5-6.343a32.575 32.575 0 0 0 2.271 6.944m-5.107-5.79c0 .18 2.039 6.951 3.489 8.365m-3.778-10.493c-.067.049.065-.159.108-.231a1.853 1.853 0 0 1 .264-.354 1.2 1.2 0 0 1 1.394-.275 3.152 3.152 0 0 1 1.057 1.356c.084.162.154.332.227.5a1.569 1.569 0 0 0 .132.267c.073-.073.046-.4.057-.491a3.07 3.07 0 0 1 .243-.955 1.214 1.214 0 0 1 2.157.107 4.2 4.2 0 0 1 .394 1.829 3.6 3.6 0 0 0 .143.736c.008 0 .194-.8.2-.844.1-.5.636-1.586 1.548-1.327 1.753.494.736 3.379 1.939 6.243.52 1.235 1.729 2.3 2.435 3.381a6.766 6.766 0 0 1 .653 5m-10.425 8.109s-.1.189-.488.906c-.55 1.022-1.033 2.079-1.537 3.123-2.262 4.684-3.832 9.589-3.632 14.855" transform="translate(58.589 70.271)"/>
            <path id="패스_3033" d="M167.567 2578.188c.251.076 26.817 9.737 26.5 9.708-.51-.049-39.518.11-42.077-.41-.186-.035-19.8-8.349-19.706-8.427.267-.213 35.284-.869 35.284-.869z" class="cls-66" transform="translate(64.974 101.544)"/>
            <path id="패스_3034" d="M181.758 2601.248c.259-.059 15.748-27.817 15.57-28.1-.1-.161-38.693-3.157-41.292-2.81-.189.024-16.538 30.515-16.452 30.6.248.251 42.174.31 42.174.31z" class="cls-66" transform="translate(77.362 88.171)"/>
            <path id="패스_3035" fill="none" stroke="#bbc5d2" stroke-linecap="round" stroke-linejoin="round" stroke-width="0.275px" d="M147.721 2575.886c-.337.569-6.1 11.047-8.06 15.138" transform="translate(77.493 97.637)"/>
            <path id="패스_3036" fill="#f9eded" fill-rule="evenodd" d="M151.265 2576.041c-.569.7-1.265 2.451-.6 3.514.682 1.082 2.7 1.424 3.131 1.478 1.979.245 3.942-1.146 3.565-3.247-.582-3.246-5.078-2.99-6.1-1.745z" transform="translate(95.704 96.442)"/>
        </g>
    </g>
</svg>
