<svg xmlns="http://www.w3.org/2000/svg" width="320" height="484" viewBox="0 0 320 484">
    <defs>
        <clipPath id="clip-path">
            <path id="SVGID" d="M1093.483 383.286c8.408-.613 14.154 1.072 16.838 3.83 2.647 2.721 2.4 5.31 3.74 10.191.817 2.975 3.077 8.811 2.789 11.99-.4 4.427-2.291 7.873-2.612 12.272a83.03 83.03 0 0 1-1.348 10.265c-.944 3.572-27.769 2.82-28.356.735-.679-2.41 1.413-6.8-.33-10.993-2.068-4.978-7.051-12.18-8.646-19.769-.822-3.913-.24-11.126 1.946-13.463 2.819-3.014 9.654-4.6 15.979-5.058z" class="cls-1" transform="translate(-1075.202 -383.16)"/>
        </clipPath>
        <clipPath id="clip-path-2">
            <path id="SVGID-2" d="M1107.765 345.785c-1.682 1.584-1.3 8.977-1.438 12.178a19.55 19.55 0 0 0 .59 7.023c.663 2.06 1.81 4.223 5.519 4.432 3.674.208 5.891-1.93 6.516-3.936a23.524 23.524 0 0 0 .75-5.826c.182-2.368.529-9.183-.442-11.424a7.226 7.226 0 0 0-11.493-2.447z" class="cls-1" transform="translate(-1106.266 -343.867)"/>
        </clipPath>
        <clipPath id="clip-path-3">
            <path id="SVGID-3" d="M1108.345 316.73a14.258 14.258 0 0 1 6.258-8.691c4.334-2.5 10.021-.723 12.824 3.319 3.445 4.968 2.3 12.49 1.1 18.052-1.073 4.959-4.536 8.56-9.669 9.127a8.757 8.757 0 0 1-3.54-.163 12.611 12.611 0 0 1-5.925-4.668c-3.368-4.634-1.914-12.7-1.045-16.976z" class="cls-1" transform="translate(-1107.275 -306.888)"/>
        </clipPath>
        <clipPath id="clip-path-4">
            <path id="SVGID-4" d="M1104.95 334.291a7.091 7.091 0 0 0-.926-2.348 3.848 3.848 0 0 0-1.206-1.127c-1.455-.887-2.845-.093-3.468 1.4a4.724 4.724 0 0 0 .272 4.3 2.8 2.8 0 0 0 4 .863l1.329-3.087z" class="cls-1" transform="translate(-1098.962 -330.444)"/>
        </clipPath>
        <clipPath id="clip-path-5">
            <path id="SVGID-5" d="M1124.609 366.066v.155c-.181 4.252-4.757 6.65-7.9 3.224-.359-.39-1.141-1.532-1.464-1.952a3.746 3.746 0 0 1-.3-.429c-.173-.305-.323-.623-.473-.94-.366-.769-.844-1.812-1.2-2.649-.224-.534-.372-.9-.543-1.43a.823.823 0 0 1-.046-.315.464.464 0 0 1 .349-.235 1.23 1.23 0 0 1 .93.155 3.34 3.34 0 0 1 .787.657 16.012 16.012 0 0 1 .151-4.606 12.984 12.984 0 0 1 .988-3.148.378.378 0 0 1 .339-.124c.157.023.29.069.338.261a5.818 5.818 0 0 1 .077.958c.027.546-.007 1.81.012 1.677.048-.332.093-.665.156-.994a10.962 10.962 0 0 1 .709-2.32 4.781 4.781 0 0 1 .543-.915.933.933 0 0 1 .251-.27.579.579 0 0 1 .437.045.35.35 0 0 1 .238.306 3.628 3.628 0 0 1-.126.715 12.465 12.465 0 0 0-.161 1.438c0 .024-.117 1.819-.112 1.951s.112-1.055.137-1.159a11.964 11.964 0 0 1 .321-1.236 5.7 5.7 0 0 1 .536-1.16 3.288 3.288 0 0 1 .423-.612.664.664 0 0 1 .684-.169.479.479 0 0 1 .141.1.976.976 0 0 1 .172.654 12.476 12.476 0 0 1-.239 2.112 7.459 7.459 0 0 0-.1 1.627c.095-.108.514-1.931.662-2.272.083-.19.178-.374.276-.556a2.53 2.53 0 0 1 .835-1.073 1.024 1.024 0 0 1 .821-.04.557.557 0 0 1 .424.634c-.071.388-.559 1.941-.748 3.325-.088.64.739 2.5 1.2 4.376a14.119 14.119 0 0 1 .477 4.237z" class="cls-1" transform="translate(-1112.673 -352.799)"/>
        </clipPath>
        <clipPath id="clip-path-6">
            <path id="SVGID-6" fill="none" d="M1068.037 591.2c-.027.034.4 2.551.424 2.713.408 2.546 1.712 8.728 1.333 10.418-.259 1.162-1.561 2.474-1.316 3.682.241 1.191 1.87 1.757 2.9 1.893 2.441.324 6.4-.407 8.325-2.039a4.794 4.794 0 0 0 .791-.841c1.668-2.3-1.275-3.4-1.98-5.35-.691-1.922-1.261-7.658-2.246-8.757-.647-.723-7.407-1.779-8.23-1.719z" transform="translate(-1068.035 -591.202)"/>
        </clipPath>
        <style>
            .cls-1{fill:none;clip-rule:evenodd}.cls-4{fill:#f27070}.cls-10,.cls-11,.cls-12,.cls-16,.cls-18,.cls-19,.cls-21,.cls-23,.cls-26,.cls-28,.cls-33,.cls-35,.cls-37,.cls-4,.cls-5,.cls-9{fill-rule:evenodd}.cls-5{fill:#eb5d5d}.cls-9{fill:#f6a783}.cls-10{fill:#ffbdbc}.cls-11{fill:#9faf68}.cls-12{fill:#ffbebc}.cls-16{fill:#ff9e9c}.cls-18{fill:#403642}.cls-19{fill:#403641}.cls-21{fill:#ff7976}.cls-23{fill:#ff9e9d}.cls-26{fill:#9fc8cc}.cls-28{fill:#fff}.cls-33{fill:#ea9a43}.cls-35{fill:#d25e5e}.cls-37{fill:#110101}
        </style>
    </defs>
    <g id="그룹_3326" transform="translate(0 -2411)">
        <path id="사각형_2364" fill="#fff1f1" d="M0 0H320V484H0z" transform="translate(0 2411)"/>
        <g id="그룹_3217" transform="translate(-13953.791 10358.986)">
            <path id="패스_2772" d="M8.951 13.353a4.952 4.952 0 0 0 7.538 1.669c1.885-1.669 1.885-5.007 0-8.346C15.17 4.173 11.778 1.669 8.951 0 6.124 1.669 2.733 4.173 1.413 6.676c-1.885 3.339-1.885 6.677 0 8.346a4.952 4.952 0 0 0 7.537-1.669z" class="cls-4" transform="rotate(169 7377.949 -3098.263)"/>
            <path id="패스_2773" d="M989.984 550.269a2.863 2.863 0 0 0-3.959-2.06c-1.3.65-1.8 2.514-1.249 4.66.362 1.6 1.882 3.5 3.21 4.856 1.828-.509 4.1-1.4 5.208-2.6 1.552-1.582 2.052-3.446 1.249-4.66a2.863 2.863 0 0 0-4.459-.2z" class="cls-4" transform="translate(13080.224 -8207.698)"/>
            <path id="패스_2774" d="M1171.257 731.982a3.583 3.583 0 0 0-5.583.171c-1.025 1.506-.431 3.846 1.485 5.852 1.371 1.521 4.194 2.673 6.473 3.34 1.685-1.673 3.618-4.032 4.1-6.022.727-2.676.133-5.017-1.485-5.852a3.583 3.583 0 0 0-4.989 2.511z" class="cls-4" transform="translate(12994.051 -8353.383)"/>
            <g id="그룹_2875" transform="translate(13970.791 -7672.986)">
                <path id="패스_2838" d="M1069.329 326.643a42.6 42.6 0 1 1-42.6 42.6 42.62 42.62 0 0 1 42.6-42.6z" class="cls-5" transform="translate(-1019.937 -314.371)"/>
                <path id="패스_2839" fill="none" stroke="#f27070" stroke-linecap="round" stroke-linejoin="round" stroke-width="1.088px" d="M1054.17 408.433c-55.256-5.92-63.34-85.775 8.641-85.775 50.619 0 64.667 80.122 4.418 84.67l-13.059 1.105z" transform="translate(-1010.777 -312.083)"/>
                <g id="그룹_2870" transform="translate(12.522)">
                    <path id="패스_2840" fill="#6f5e68" fill-rule="evenodd" d="M1040.542 338.773a.286.286 0 0 0-.234.148 1.016 1.016 0 0 0 0 .958.259.259 0 0 0 .468 0 1.017 1.017 0 0 0 0-.958.287.287 0 0 0-.234-.148zm0 .2c.026 0 .044.026.063.055a.823.823 0 0 1 0 .734c-.019.03-.037.055-.063.055s-.044-.025-.063-.055a.825.825 0 0 1 0-.734c.02-.029.037-.055.063-.055z" transform="translate(-1040.187 -321.335)"/>
                    <path id="패스_2841" fill="#d6702e" fill-rule="evenodd" d="M1113.014 347.516a106.547 106.547 0 0 1-3.683-12.914c-1.341-6.306-6.781-11.763-7.112-12.394-1.926-3.676.354-8.205.093-9.93-.513-3.391-4.086-6.794-6.173-9.549-3.3-4.355-10.173-6-15.208-4.171a17.74 17.74 0 0 0-7.024 4.978 21.548 21.548 0 0 0-3.42 5.314c-1.014 2.183-4.219 5.428-4.862 9.224-.546 3.22 1.482 6.978.6 9.331-.284.755-6.91 3.413-7.617 8.69-.533 3.983-5.125 11.146-5.125 11.146s22.513 2.707 32.436 2.753c9.07.042 27.1-2.479 27.1-2.479z" transform="translate(-1047.821 -297.82)"/>
                    <path id="패스_2842" d="M1154.283 354.671a22.03 22.03 0 0 0 1.963 7.014 33.088 33.088 0 0 1 2.375 6.984 14.659 14.659 0 0 1-.188 6.093 16.049 16.049 0 0 0-.362 5.933.24.24 0 1 1-.476.061 16.48 16.48 0 0 1 .368-6.09 14.235 14.235 0 0 0 .185-5.916 32.643 32.643 0 0 0-2.345-6.882 22.511 22.511 0 0 1-2-7.167.24.24 0 0 1 .479-.032z" class="cls-9" transform="translate(-1105.427 -330.335)"/>
                    <path id="패스_2843" d="M1148.088 367.774a19.97 19.97 0 0 1 1.415 10.508c-.328 3.021-.984 6.065-.566 10.487a.24.24 0 0 1-.478.045c-.422-4.462.236-7.535.567-10.583a19.535 19.535 0 0 0-1.383-10.279.24.24 0 0 1 .446-.178z" class="cls-9" transform="translate(-1101.879 -337.901)"/>
                    <path id="패스_2844" d="M1094.275 300.395a17.518 17.518 0 0 0-8.829 4.228c-3.5 3.262-5.419 8.847-5.763 13.742-.21 2.984.6 6.012-.229 8.944a16.139 16.139 0 0 1-3.976 6.239c-1.615 1.809-3.276 3.588-4.121 5.9-1.879 5.152-.81 4.072-1.919 9.285a.24.24 0 1 1-.469-.1c1.117-5.25.046-4.162 1.938-9.35.866-2.374 2.558-4.2 4.214-6.059a15.668 15.668 0 0 0 3.872-6.049c.82-2.9.006-5.9.213-8.847.352-5.011 2.328-10.72 5.915-14.06a17.978 17.978 0 0 1 9.058-4.347.24.24 0 0 1 .1.47z" class="cls-9" transform="translate(-1056.71 -299.026)"/>
                    <path id="패스_2845" d="M1092 348.827a43.35 43.35 0 0 0 .134 4.89 12.843 12.843 0 0 1-.523 4.915c-.9 2.506-2.691 4.542-4.163 6.711a26.336 26.336 0 0 0-4.324 10.8.24.24 0 1 1-.475-.07 26.824 26.824 0 0 1 4.4-11c1.45-2.136 3.222-4.137 4.108-6.6a12.371 12.371 0 0 0 .5-4.733 43.758 43.758 0 0 1-.133-4.946.24.24 0 1 1 .479.035z" class="cls-9" transform="translate(-1064.568 -326.961)"/>
                    <path id="패스_2846" d="M1153.69 314.825a15.027 15.027 0 0 1 3.616 13.655c-.434 2.1-1 4.2-.427 6.331a18.948 18.948 0 0 0 2.789 5.477 23.261 23.261 0 0 1 2.99 5.481c.876 2.677.793 8.974.577 11.659a.24.24 0 1 1-.478-.038c.212-2.642.307-8.837-.555-11.471a22.788 22.788 0 0 0-2.934-5.366 19.4 19.4 0 0 1-2.851-5.617c-.592-2.206-.028-4.38.421-6.553a14.565 14.565 0 0 0-3.5-13.235.24.24 0 1 1 .355-.322z" class="cls-9" transform="translate(-1105.121 -307.539)"/>
                    <path id="패스_2847" d="M1142.627 393.728c3.859-4.119 7.352-.527 10.194 3.651a101.575 101.575 0 0 1 8.729 14.939c1.576 3.376 9.333 13.942 3.45 17.7-5.1 3.26-10.389-10.164-12.577-13.219-2.534-3.538-4.989-8.292-8.427-14.26-2.2-3.822-2.667-7.431-1.37-8.815z" class="cls-10" transform="translate(-1098.597 -351.846)"/>
                    <path id="패스_2848" d="M1155.064 408.547c-.075-.928-3.563-6.669-4.632-5.474a2.173 2.173 0 0 1-1.629 1.142c-1.27.213-1.668-.467-2.932-.046-.928.309-1.258 1.376-2.137 1.748-.409.173-1.229-.071-2.425.236-1.093.281-.935 1.5-2.393 1.538-.947.023-.112 1.692.229 2.214 1.192 1.823 1.021 5.511 3.227 6.527 1.6.737 2.485-1.173 3.824-1.517.877-.225 1.8.086 2.654-.278 1.035-.44 1.333-1.575 2.152-2.261s2.042-.472 2.808-1.216c.46-.447.334-1.076.611-1.605.153-.294.673-.657.645-1.008z" class="cls-11" transform="translate(-1096.626 -358.163)"/>
                    <path id="패스_2849" d="M1093.483 383.286c8.408-.613 14.154 1.072 16.838 3.83 2.647 2.721 2.4 5.31 3.74 10.191.817 2.975 3.077 8.811 2.789 11.99-.4 4.427-2.291 7.873-2.612 12.272a83.03 83.03 0 0 1-1.348 10.265c-.944 3.572-27.769 2.82-28.356.735-.679-2.41 1.413-6.8-.33-10.993-2.068-4.978-7.051-12.18-8.646-19.769-.822-3.913-.24-11.126 1.946-13.463 2.819-3.014 9.654-4.6 15.979-5.058z" class="cls-12" transform="translate(-1060.293 -346.823)"/>
                    <g id="그룹_2861" transform="translate(14.909 36.337)">
                        <g id="그룹_2860" clip-path="url(#clip-path)">
                            <path id="패스_2850" d="M1111.542 402.645c.039.032-1.94 1.039-2.052 1.082a25.553 25.553 0 0 1-7.553 1.508 133.1 133.1 0 0 1-21.889-.683c-1.746-.168-7.4-1.492-8.92-.84-1.472.631-.581 6.775-.43 7.918.87 6.577 2.848 17.707 6.193 23.354 2.04 3.443 5.99 4.473 9.656 5.277 8.655 1.9 20.681 2.949 27.25-4.456 5.494-6.193-2.256-33.161-2.256-33.161z" class="cls-11" transform="translate(-1072.384 -394.348)"/>
                        </g>
                    </g>
                    <path id="패스_2851" fill="#75894e" fill-rule="evenodd" d="M1163.761 405.112c.193.783.579 2.349.724 2.957.587 2.47.942 3.383 1.384 5.2a.236.236 0 0 1-.458.112c-.442-1.815-.8-2.728-1.385-5.2-.144-.606-.53-2.171-.723-2.953a.236.236 0 1 1 .458-.113z" transform="translate(-1110.877 -359.325)"/>
                    <path id="패스_2852" d="M1107.765 345.785c-1.682 1.584-1.3 8.977-1.438 12.178a19.55 19.55 0 0 0 .59 7.023c.663 2.06 1.81 4.223 5.519 4.432 3.674.208 5.891-1.93 6.516-3.936a23.524 23.524 0 0 0 .75-5.826c.182-2.368.529-9.183-.442-11.424a7.226 7.226 0 0 0-11.493-2.447z" class="cls-10" transform="translate(-1078.13 -324.26)"/>
                    <g id="그룹_2863" transform="translate(28.136 19.607)">
                        <g id="그룹_2862" clip-path="url(#clip-path-2)">
                            <path id="패스_2853" d="M1122.433 363.4c-.15 1.1-2.474 2.447-6.074 1.888-4.176-.648-6.4-3.227-8.173-7.059-.637-1.38-1.387-7-.647-7.994s3.428-.21 5.087 2.026c1 1.342 2.352 4.024 3.372 5.342.8 1.031 6.923 2.227 6.436 5.8z" class="cls-16" transform="translate(-1106.82 -347.277)"/>
                        </g>
                    </g>
                    <path id="패스_2854" d="M1108.345 316.73a14.258 14.258 0 0 1 6.258-8.691c4.334-2.5 10.021-.723 12.824 3.319 3.445 4.968 2.3 12.49 1.1 18.052-1.073 4.959-4.536 8.56-9.669 9.127a8.757 8.757 0 0 1-3.54-.163 12.611 12.611 0 0 1-5.925-4.668c-3.368-4.634-1.914-12.7-1.045-16.976z" class="cls-10" transform="translate(-1078.71 -303.027)"/>
                    <g id="그룹_2865" transform="translate(28.565 3.861)">
                        <g id="그룹_2864" clip-path="url(#clip-path-3)">
                            <path id="패스_2855" d="M1147.946 341.536a1.07 1.07 0 1 0 .973 1.158 1.07 1.07 0 0 0-.973-1.158z" class="cls-18" transform="translate(-1129.961 -326.78)"/>
                            <path id="패스_2856" d="M1127 339.724a1.07 1.07 0 1 0 .974 1.158 1.07 1.07 0 0 0-.974-1.158z" class="cls-18" transform="translate(-1117.935 -325.74)"/>
                            <path id="패스_2857" d="M1146.143 334.636a10.047 10.047 0 0 0-1.931-.541 3.7 3.7 0 0 0-1.442.058 2.033 2.033 0 0 0-1.3 1.368 12.029 12.029 0 0 0-.468 3.452c-.026.459-.017.918-.014 1.377a4.915 4.915 0 0 1-.288 2.211 2.114 2.114 0 0 1-1.127 1.077 1.773 1.773 0 0 1-1.55-.175.383.383 0 0 1 .388-.66 1.031 1.031 0 0 0 .9.117 1.36 1.36 0 0 0 .707-.7 4.129 4.129 0 0 0 .207-1.864c0-.475-.011-.95.015-1.425a12.866 12.866 0 0 1 .516-3.679 2.767 2.767 0 0 1 1.8-1.834 4.489 4.489 0 0 1 1.753-.083 10.842 10.842 0 0 1 2.08.576.383.383 0 1 1-.247.725z" class="cls-18" transform="translate(-1124.822 -322.047)"/>
                            <path id="패스_2858" d="M1130.442 332.061a7.5 7.5 0 0 0-4.025-.34.383.383 0 0 1-.106-.758 8.228 8.228 0 0 1 4.417.388.383.383 0 1 1-.286.71z" class="cls-18" transform="translate(-1118.016 -320.638)"/>
                            <path id="패스_2859" d="M1137.676 362.778a5.993 5.993 0 0 1-4.314 2.227 6.257 6.257 0 0 1-3.978-.853.376.376 0 0 1 .44-.611 5.47 5.47 0 0 0 3.47.715 5.239 5.239 0 0 0 3.782-1.933.376.376 0 0 1 .6.455z" class="cls-19" transform="translate(-1119.881 -338.634)"/>
                        </g>
                    </g>
                    <path id="패스_2860" d="M1104.95 334.291a7.091 7.091 0 0 0-.926-2.348 3.848 3.848 0 0 0-1.206-1.127c-1.455-.887-2.845-.093-3.468 1.4a4.724 4.724 0 0 0 .272 4.3 2.8 2.8 0 0 0 4 .863l1.329-3.087z" class="cls-10" transform="translate(-1073.936 -316.553)"/>
                    <g id="그룹_2867" transform="translate(25.026 13.891)">
                        <g id="그룹_2866" clip-path="url(#clip-path-4)">
                            <path id="패스_2861" d="M1104.7 335.948a3.242 3.242 0 0 1 .63.941c.047.1.089.2.128.309l.031.086a.445.445 0 0 0 .029.073.239.239 0 0 0 .236.121.244.244 0 0 0 .073-.02.24.24 0 0 0 .138-.209.257.257 0 0 0-.007-.065c0-.014-.009-.027-.013-.04l-.021-.06c-.024-.067-.05-.134-.078-.2a4.272 4.272 0 0 0-.491-.892 3.044 3.044 0 0 0-.535-.573 2.353 2.353 0 0 0-.6-.359 2.036 2.036 0 0 0-.306-.1 1.6 1.6 0 0 0-.529-.042 1.088 1.088 0 0 0-.381.107c-.026.013-.051.027-.076.042a.378.378 0 0 0-.053.037.237.237 0 0 0-.055.284.234.234 0 0 0 .048.066.242.242 0 0 0 .19.066.223.223 0 0 0 .062-.015.23.23 0 0 0 .035-.017l.031-.02a.651.651 0 0 1 .069-.035.644.644 0 0 1 .208-.051 1.126 1.126 0 0 1 .457.072 1.983 1.983 0 0 1 .371.172h.007a2.915 2.915 0 0 0-.371.332 2.283 2.283 0 0 0-.211 2.582.238.238 0 1 0 .418-.228 1.793 1.793 0 0 1 .143-2.03 2.107 2.107 0 0 1 .34-.3.722.722 0 0 1 .079-.042z" class="cls-16" transform="translate(-1101.164 -333.01)"/>
                        </g>
                    </g>
                    <path id="패스_2862" d="M1077.532 396.767c2-5.272 6.643-2.766 9.54-.618a54.7 54.7 0 0 1 9.314 8.359c1.816 2.076 11.3 7.521 7.185 13.84-2.968 4.553-10.76-4.246-12.959-5.765-2.547-1.759-5.275-4.572-8.96-7.934-2.36-2.153-4.794-6.108-4.121-7.881z" class="cls-10" transform="translate(-1061.566 -352.836)"/>
                    <path id="패스_2863" d="M1092.649 400.34c-.269-.891-4.885-5.771-5.68-4.378-.258.453-.273 1.03-1.353 1.459-1.2.476-1.729-.105-2.876.572-.843.5-.941 1.61-1.722 2.159-.363.255-1.216.189-2.321.741-1.009.5-.6 1.666-2.016 2.007-.921.221.246 1.678.69 2.117 1.548 1.531 2.157 5.173 4.528 5.7 1.719.384 2.182-1.669 3.419-2.287.81-.4 1.775-.294 2.536-.829.92-.648.972-1.82 1.628-2.663s1.9-.891 2.489-1.779c.356-.534.1-1.122.26-1.7.088-.32.52-.784.419-1.121z" class="cls-11" transform="translate(-1060.944 -354.031)"/>
                    <path id="패스_2864" d="M1126.234 413.392c-3.168.649-6.055-3.358-5.777-8.4.358-6.5-.094-6.746.561-13.6.354-3.709-.881-8.337 3.282-8.684 4.366-.364 4.131 4.166 4.647 9.218a110.954 110.954 0 0 1 .667 12.372c.083 4.409.145 8.37-3.38 9.093z" class="cls-10" transform="translate(-1086.268 -346.552)"/>
                    <path id="패스_2865" d="M1117.913 348.182a6 6 0 0 0-3.784 4.071 11.283 11.283 0 0 0-.369 3.128 6.879 6.879 0 0 0 .646 2.988c1.052 1.922 3.24 1.44 4.4.656 1.964-1.328 2.839-3.814 2.315-6.952-.307-1.84-1.167-4.458-3.207-3.891z" class="cls-21" transform="translate(-1082.431 -326.693)"/>
                    <path id="패스_2866" d="M1124.609 366.066v.155c-.181 4.252-4.757 6.65-7.9 3.224-.359-.39-1.141-1.532-1.464-1.952a3.746 3.746 0 0 1-.3-.429c-.173-.305-.323-.623-.473-.94-.366-.769-.844-1.812-1.2-2.649-.224-.534-.372-.9-.543-1.43a.823.823 0 0 1-.046-.315.464.464 0 0 1 .349-.235 1.23 1.23 0 0 1 .93.155 3.34 3.34 0 0 1 .787.657 16.012 16.012 0 0 1 .151-4.606 12.984 12.984 0 0 1 .988-3.148.378.378 0 0 1 .339-.124c.157.023.29.069.338.261a5.818 5.818 0 0 1 .077.958c.027.546-.007 1.81.012 1.677.048-.332.093-.665.156-.994a10.962 10.962 0 0 1 .709-2.32 4.781 4.781 0 0 1 .543-.915.933.933 0 0 1 .251-.27.579.579 0 0 1 .437.045.35.35 0 0 1 .238.306 3.628 3.628 0 0 1-.126.715 12.465 12.465 0 0 0-.161 1.438c0 .024-.117 1.819-.112 1.951s.112-1.055.137-1.159a11.964 11.964 0 0 1 .321-1.236 5.7 5.7 0 0 1 .536-1.16 3.288 3.288 0 0 1 .423-.612.664.664 0 0 1 .684-.169.479.479 0 0 1 .141.1.976.976 0 0 1 .172.654 12.476 12.476 0 0 1-.239 2.112 7.459 7.459 0 0 0-.1 1.627c.095-.108.514-1.931.662-2.272.083-.19.178-.374.276-.556a2.53 2.53 0 0 1 .835-1.073 1.024 1.024 0 0 1 .821-.04.557.557 0 0 1 .424.634c-.071.388-.559 1.941-.748 3.325-.088.64.739 2.5 1.2 4.376a14.119 14.119 0 0 1 .477 4.237z" class="cls-10" transform="translate(-1081.809 -329.389)"/>
                    <g id="그룹_2869" transform="translate(30.864 23.41)">
                        <g id="그룹_2868" clip-path="url(#clip-path-5)">
                            <path id="패스_2867" d="M1117.654 378.251a12.119 12.119 0 0 1-.544-3.058.235.235 0 0 1 .47-.024 11.624 11.624 0 0 0 .52 2.932.235.235 0 1 1-.446.15z" class="cls-16" transform="translate(-1115.22 -365.515)"/>
                            <path id="패스_2868" d="M1121.276 368.332a17.293 17.293 0 0 1-.029-4.99.235.235 0 0 1 .466.069 16.71 16.71 0 0 0 .024 4.83.235.235 0 1 1-.461.092z" class="cls-16" transform="translate(-1117.5 -358.737)"/>
                            <path id="패스_2869" d="M1125.837 368.088a18.73 18.73 0 0 1-.03-4.712.235.235 0 1 1 .469.041 18.151 18.151 0 0 0 .023 4.577.235.235 0 1 1-.462.094z" class="cls-16" transform="translate(-1120.135 -358.749)"/>
                            <path id="패스_2870" d="M1131.151 368.186a11.118 11.118 0 0 1-.406-4.406.235.235 0 0 1 .47.029 10.632 10.632 0 0 0 .38 4.219.235.235 0 1 1-.443.158z" class="cls-16" transform="translate(-1123.022 -358.978)"/>
                        </g>
                    </g>
                    <path id="패스_2871" d="M1112.595 373.154a.168.168 0 0 1 .052-.029.74.74 0 0 1 .124-.042 1 1 0 0 1 .754.132 3.106 3.106 0 0 1 .73.611.236.236 0 0 0 .347-.32 3.553 3.553 0 0 0-.844-.7 1.461 1.461 0 0 0-1.105-.179.7.7 0 0 0-.512.383.461.461 0 0 0-.017.2 1.766 1.766 0 0 0 .06.268c.173.542.323.909.55 1.45.353.84.832 1.887 1.2 2.659.153.322.305.645.481.955a4.041 4.041 0 0 0 .321.456c.325.424 1.116 1.575 1.477 1.968a.236.236 0 0 0 .348-.319c-.355-.387-1.131-1.52-1.451-1.936a3.568 3.568 0 0 1-.284-.4c-.17-.3-.317-.613-.465-.925-.365-.767-.84-1.805-1.191-2.64-.221-.526-.368-.883-.536-1.41-.005-.017-.03-.137-.039-.18z" class="cls-23" transform="translate(-1081.492 -340.75)"/>
                    <path id="패스_2872" d="M1130.688 354.869a8.935 8.935 0 0 0 .112-1.342 1.9 1.9 0 0 0-.053-.477.757.757 0 0 0-.19-.344.729.729 0 0 0-.211-.148.921.921 0 0 0-.949.222.236.236 0 0 0 .34.327.41.41 0 0 1 .419-.117.253.253 0 0 1 .071.053.353.353 0 0 1 .077.186 1.625 1.625 0 0 1 .024.3 12.191 12.191 0 0 1-.236 2.072c-.028.165-.1.825-.121 1.263a1.994 1.994 0 0 0 .01.452.241.241 0 0 0 .194.187.23.23 0 0 0 .233-.081 1.209 1.209 0 0 0 .139-.333c.158-.525.444-1.731.562-2 .08-.184.174-.362.268-.54a2.289 2.289 0 0 1 .742-.978.8.8 0 0 1 .629-.022c.191.065.3.2.268.367-.071.39-.559 1.947-.75 3.336a2.752 2.752 0 0 0 .14.967c.241.883.743 2.186 1.065 3.5a.236.236 0 1 0 .458-.113c-.278-1.13-.687-2.255-.952-3.113a3.528 3.528 0 0 1-.243-1.175c.19-1.38.676-2.927.747-3.315a.781.781 0 0 0-.579-.9 1.252 1.252 0 0 0-1.012.057 2.78 2.78 0 0 0-.929 1.169c-.095.178-.188.358-.27.542z" class="cls-23" transform="translate(-1091.374 -329.219)"/>
                    <path id="패스_2873" fill="#ebe9ea" fill-rule="evenodd" d="M1129.851 316.737a12.925 12.925 0 0 0-.285-2.766 9.123 9.123 0 0 0-4.4-6.4 12.1 12.1 0 0 0-4.173-1.543c-6.147-1.039-10.141 3.226-12 6.964-.418.841-1.4 3.611-1.4 3.611a2.813 2.813 0 0 1 .743.553 12.351 12.351 0 0 1 .88 1.116s3.671-10.048 12.065-9.575c7.052.4 8.565 8.045 8.565 8.045z" transform="translate(-1078.895 -302.44)"/>
                    <path id="패스_2874" d="M1153.692 465.4c1.756 2.715-.927 6.861-5.728 8.436-6.188 2.031-10.107 3.72-16.727 5.6-3.583 1.018-9.356 4.143-11.192.391-1.926-3.935 4.289-5.655 8.807-7.972 3.873-1.986 8.772-3.676 15.14-6.3 4.077-1.68 7.745-3.177 9.7-.155z" class="cls-10" transform="translate(-1085.836 -393.049)"/>
                    <path id="패스_2875" d="M1108.17 493.634c.051-.005.1-.012.154-.02 4.208-.636 6.1-5.444 2.357-8.2-.427-.314-1.646-.97-2.1-1.246a3.723 3.723 0 0 0-.459-.255c-.321-.139-.654-.254-.985-.37-.8-.281-1.892-.644-2.762-.9-.555-.166-.93-.274-1.48-.386a.823.823 0 0 0-.318-.013.464.464 0 0 0-.2.373 1.228 1.228 0 0 0 .254.908 3.32 3.32 0 0 0 .737.712 16.027 16.027 0 0 0-4.563.645 12.994 12.994 0 0 0-3.025 1.32.378.378 0 0 0-.087.35c.04.154.1.281.3.309a5.765 5.765 0 0 0 .961-.026c.546-.031 1.8-.2 1.669-.168-.325.083-.651.164-.972.262a10.974 10.974 0 0 0-2.23.954 4.785 4.785 0 0 0-.851.638.924.924 0 0 0-.241.278.577.577 0 0 0 .092.429.35.35 0 0 0 .33.2 3.673 3.673 0 0 0 .7-.2 12.378 12.378 0 0 1 1.413-.315c.024 0 1.8-.312 1.928-.322s-1.037.224-1.137.261a11.783 11.783 0 0 0-1.194.451 5.721 5.721 0 0 0-1.1.657 3.328 3.328 0 0 0-.563.487.666.666 0 0 0-.1.7.486.486 0 0 0 .115.129.977.977 0 0 0 .668.1 12.42 12.42 0 0 0 2.074-.465 7.43 7.43 0 0 1 1.607-.27c-.1.105-1.865.718-2.187.9-.18.1-.352.218-.524.334a2.527 2.527 0 0 0-.978.946 1.025 1.025 0 0 0 .048.82.557.557 0 0 0 .676.353c.378-.112 1.869-.763 3.225-1.1.627-.156 2.565.466 4.48.723a14.124 14.124 0 0 0 4.263.019z" class="cls-10" transform="translate(-1071.268 -403.706)"/>
                </g>
            </g>
            <g id="그룹_2876" transform="translate(14192.451 -7666.382)">
                <path id="패스_2836" d="M875.056 420.917a30.595 30.595 0 1 1-30.6 30.595 30.609 30.609 0 0 1 30.6-30.595z" class="cls-5" transform="translate(-844.442 -415.5)"/>
                <path id="패스_2837" fill="none" stroke="#f27070" stroke-linecap="round" stroke-linejoin="round" stroke-width="0.781px" d="M867.611 482.532c-11.357-2.533-23.365-16.809-23.191-27.976a23.442 23.442 0 0 1 6.962-16.061c4.362-4.406 26.807-14.67 33.319-15.422a19.709 19.709 0 0 1 10.854 1.917c15.619 7.623 15.7 34.409 3.677 47.731-10.111 11.2-22.229 11.907-31.621 9.812z" transform="translate(-844.419 -416.667)"/>
                <g id="그룹_2871" transform="translate(9.431)">
                    <path id="패스_2876" d="M953.9 457.445c-2.006-1.9-3.553-.066-3.942.7a6.587 6.587 0 0 0-.1 5.188c1.442 4.078 4.971 7.933 8.294 10.62 1.632 1.32 4.61 2.339 6.658 1.272 2.121-1.1.3-3.643-.559-5.047a92.562 92.562 0 0 0-10.351-12.733z" class="cls-12" transform="translate(-914.115 -435.996)"/>
                    <path id="패스_2877" d="M962.462 476.982c-.01.023 2.437-1.646 4.546-3.281 1.423-1.1 2.668-1.971 2.634-2.3a23.1 23.1 0 0 0-2.331-3.386c-1.78-2.194-5.8-7-7.548-8.865a2.465 2.465 0 0 0-.877-.7c-.37.167-2.155 13.129-.742 14.79 1.137 1.337 3.2 1.689 4.319 3.743z" class="cls-26" transform="translate(-918.842 -437.05)"/>
                    <path id="패스_2878" d="M883.186 460.608c-.217-4.384 3.338-6.928 4.074-7.341a29.23 29.23 0 0 1 6.948-2.838c6.9-1.782 15.936-1.279 22.2 3.123.468.329.161 4.063-.411 9.434-1.063 9.977-3.855 12.044-3.212 19.618a8.181 8.181 0 0 1-2.609 6.78c-1.688 1.535-12.2 1.863-14.354 1.993-2.3.139-11.25.964-12.875-.695-.633-.646 1.4-6.467 1.613-7.841 1.139-7.467-1.137-17.534-1.369-22.234z" class="cls-26" transform="translate(-875.9 -431.894)"/>
                    <path id="패스_2879" fill="#89bfc1" fill-rule="evenodd" d="M909.456 453.6c.183.009-4.787-2.778-5.043-2.975-.837-.645-2.88-2.311-3.789-2.849-2.429-1.437-8.8-5.323-4.742-9.032a44.043 44.043 0 0 1 6.379-3.724c1.949-.393 4.1.051 6.077.031 2.029-.021 4.242-.294 6.209.327 2.838.9 6.129 5.285 4.787 7.936a14.331 14.331 0 0 1-3.6 4.04c-1.389 1-4.739 5.488-6.276 6.245z" transform="translate(-882.643 -423.507)"/>
                    <path id="패스_2880" d="M926.977 476.145c.009 1.59-.405 3.981-.5 5.563a.2.2 0 1 0 .407.025c.1-1.59.513-3.993.5-5.591a.2.2 0 0 0-.408 0z" class="cls-28" transform="translate(-900.965 -447.095)"/>
                    <path id="패스_2881" d="M912.331 439.827c-.612.108-1.805-1-2.223-1.327-1.442-1.116-3.2-2.737-3.154-4.722.079-3.194 3.118-4.062 4.8-1.326.448.725.258 6.585.572 7.375z" class="cls-21" transform="translate(-889.757 -421.184)"/>
                    <path id="패스_2882" d="M914.206 452.353c-.033.306 5.883 10.975 7.045 9.914.45-.411 4.616-6.32 5.035-7.753.124-.423.418-1.171-.021-1.511a4.24 4.24 0 0 0-2.169-.4c-1.8-.118-8.088-.125-9.89-.254z" class="cls-23" transform="translate(-893.921 -433.551)"/>
                    <path id="패스_2883" d="M914.133 435.485c-.686-1.042-1.951-8.522-1.026-11.487a7.749 7.749 0 0 1 3.639-4.228c3.01-1.693 8-1.294 9.818 1.994 1.345 2.433.733 5.433 1.156 8.072a9.694 9.694 0 0 1-.212 4.375 14.454 14.454 0 0 1-3.042 4.379c-.112.127-.229.257-.352.383a2.714 2.714 0 0 1-1.716.952c-1.422.087-3.87-1.4-5.069-2.078a8.981 8.981 0 0 1-3.2-2.361z" class="cls-12" transform="translate(-893.103 -414.279)"/>
                    <path id="패스_2884" d="M910.4 443.864a.038.038 0 0 1-.037-.017c-.291-.31-.523-.663-.831-.963-.875-.854-3-1.637-3.488.063s1.343 2.873 2.649 3.435c.262.113 1.362.7 1.624.395.313-.364.083-2.472.083-2.913z" class="cls-12" transform="translate(-889.188 -427.572)"/>
                    <path id="패스_2885" d="M909.137 444.911a1.463 1.463 0 0 0-.24-.024 1 1 0 0 0-.489.105.069.069 0 0 1-.068-.12 1.146 1.146 0 0 1 .559-.123 2.989 2.989 0 0 1 1.7.806.069.069 0 1 1-.087.107 3.525 3.525 0 0 0-1.24-.719l-.031.113a1.538 1.538 0 0 0 .015.465 2.075 2.075 0 0 0 .654 1.156.069.069 0 0 1-.1.1 2.209 2.209 0 0 1-.694-1.234 1.662 1.662 0 0 1-.015-.508s.015-.072.031-.124zm.073.042h-.016a.053.053 0 0 0 .016.007z" class="cls-23" transform="translate(-890.533 -429.184)"/>
                    <path id="패스_2886" d="M929.625 455.771a4.478 4.478 0 0 1-5.212-.579c-.536-.552-1.237-1.839-.5-2.478a1.709 1.709 0 0 1 1.512-.1 10.738 10.738 0 0 0 2.035.485c.693.045 1.4-.095 2.084-.021a1.243 1.243 0 0 1 1.088.749c.307.825-.348 1.549-1.011 1.944z" class="cls-28" transform="translate(-899.312 -433.628)"/>
                    <path id="패스_2887" fill="none" stroke="#403641" stroke-linecap="round" stroke-linejoin="round" d="M932.141 434.9c-.927.143-2.308.679-2.579 1.733-.411 1.6.4 2.2.654 3.719.131.769 0 1.554-.886 1.69m-5.8-6.142a4.718 4.718 0 0 1 3.767.288" transform="translate(-899.776 -423.527)"/>
                    <path id="패스_2888" d="M926.69 440.285a.673.673 0 1 1-.688.658.674.674 0 0 1 .688-.658z" class="cls-19" transform="translate(-900.694 -426.621)"/>
                    <path id="패스_2889" d="M939.438 439.741a.673.673 0 1 1-.688.658.673.673 0 0 1 .688-.658z" class="cls-19" transform="translate(-908.014 -426.309)"/>
                    <path id="패스_2890" d="M906.485 411.528c1.972-2.731 4.622-3.656 7.962-3.237 5.01.628 6.714 2.52 7.6 3.191.688.522 3.422 1.635 3.59 2.322.425 1.737-2.444 2.162-3.178 2.854-.35.33-.352.78-.846 1-2.189 1-5.376-.9-7.626-.84-.349.009-.292.568-.474.782a1.48 1.48 0 0 1-1.214.408c-1.009-.046-2.812-.545-3.424-1.463-.273 1.217-.388 4.644-1.19 5.645-1.056 1.317-2.192.46-2.869-.657a2.5 2.5 0 0 0-.242-.124c-.867-.383-1.937.037-2.632-.8-.621-.746-.212-1.759.157-2.519a23.6 23.6 0 0 1 3.46-5.728 7.062 7.062 0 0 1 .928-.839z" class="cls-21" transform="translate(-886.694 -408.195)"/>
                    <path id="패스_2891" d="M914.012 416.735a3.784 3.784 0 0 0 .254.736 8.735 8.735 0 0 0 1.959 2.668 9.088 9.088 0 0 0 1.012.835 4.566 4.566 0 0 0 .783.463 2.433 2.433 0 0 0 1.678.211 3.517 3.517 0 0 0 .8-.539 1.888 1.888 0 0 1 1.2-.287 6.9 6.9 0 0 1 2.138.688 9.25 9.25 0 0 0 2.18.781.088.088 0 1 0 .027-.173 9.059 9.059 0 0 1-2.135-.769 7.09 7.09 0 0 0-2.2-.7 2.059 2.059 0 0 0-1.311.316 3.357 3.357 0 0 1-.757.518 2.246 2.246 0 0 1-1.549-.2 4.427 4.427 0 0 1-.753-.446 8.919 8.919 0 0 1-.993-.819 8.558 8.558 0 0 1-1.92-2.613 3.611 3.611 0 0 1-.243-.7.088.088 0 1 0-.172.038z" class="cls-12" transform="translate(-893.809 -413.038)"/>
                    <path id="패스_2892" d="M916.086 414.038a13.05 13.05 0 0 0 1.5 2.389 2.85 2.85 0 0 0 1.57.976 2.319 2.319 0 0 0 1.043-.072c.328-.086.651-.205.977-.277a3.817 3.817 0 0 1 2.055.151 28.16 28.16 0 0 1 3.257 1.575 10.538 10.538 0 0 0 3.614 1.263.088.088 0 0 0 .016-.175 10.356 10.356 0 0 1-3.55-1.245 28.306 28.306 0 0 0-3.282-1.585 3.982 3.982 0 0 0-2.148-.156c-.329.072-.655.192-.984.279a2.151 2.151 0 0 1-.966.069 2.993 2.993 0 0 1-1.768-1.285 17.517 17.517 0 0 1-1.18-1.993.088.088 0 0 0-.153.085z" class="cls-12" transform="translate(-894.995 -411.475)"/>
                    <path id="패스_2893" d="M918.652 411.617a11.611 11.611 0 0 0 1.347 1.6 2.77 2.77 0 0 0 1.115.713 6.514 6.514 0 0 0 2.341 0 5.154 5.154 0 0 1 2.275.1 17.545 17.545 0 0 1 2.912 1.616 16.171 16.171 0 0 0 5.318 1.481.088.088 0 1 0 .013-.175 15.963 15.963 0 0 1-5.245-1.459 17.69 17.69 0 0 0-2.943-1.63 5.329 5.329 0 0 0-2.35-.106 6.345 6.345 0 0 1-2.279 0 2.594 2.594 0 0 1-1.037-.67 11.417 11.417 0 0 1-1.325-1.576.088.088 0 0 0-.143.1z" class="cls-12" transform="translate(-896.465 -410.08)"/>
                    <path id="패스_2894" d="M922.236 409.742a3.427 3.427 0 0 0 2.568 1.674 9.516 9.516 0 0 0 2.293-.174 4.922 4.922 0 0 1 2.218.064 15.7 15.7 0 0 1 3.019 1.723 15.113 15.113 0 0 0 4.545 1.667.088.088 0 0 0 .031-.173 14.914 14.914 0 0 1-4.488-1.646 15.858 15.858 0 0 0-3.054-1.739 5.1 5.1 0 0 0-2.3-.071 9.341 9.341 0 0 1-2.251.173 3.234 3.234 0 0 1-2.428-1.576.088.088 0 0 0-.158.077z" class="cls-12" transform="translate(-898.527 -409.011)"/>
                    <path id="패스_2895" d="M926.3 408.841a.352.352 0 0 0 .034.034 1.509 1.509 0 0 0 .141.089 3.073 3.073 0 0 0 .676.32 7.323 7.323 0 0 0 3.354.143.088.088 0 1 1 .024.174 7.484 7.484 0 0 1-3.435-.15 3.235 3.235 0 0 1-.714-.339 1.235 1.235 0 0 1-.184-.125.214.214 0 0 1-.069-.112.088.088 0 0 1 .173-.034z" class="cls-12" transform="translate(-900.767 -408.526)"/>
                    <path id="패스_2896" d="M910.445 418.937a5.977 5.977 0 0 1 1.377 4.126 3.579 3.579 0 0 1-.529 1.917 1.5 1.5 0 0 1-.54.436 6.413 6.413 0 0 0-.655.359 4.268 4.268 0 0 0-1.046 1.724.088.088 0 1 0 .164.062 6.866 6.866 0 0 1 .513-1.085 1.863 1.863 0 0 1 .469-.557 6.18 6.18 0 0 1 .638-.349 1.665 1.665 0 0 0 .6-.488 3.761 3.761 0 0 0 .563-2.012 6.151 6.151 0 0 0-1.418-4.248.088.088 0 1 0-.135.113z" class="cls-12" transform="translate(-890.959 -414.281)"/>
                    <path id="패스_2897" d="M913.742 430.2a4.938 4.938 0 0 1-.934 2.787 8.222 8.222 0 0 1-.8.783 3.084 3.084 0 0 0-.717.9.088.088 0 0 0 .158.076 2.918 2.918 0 0 1 .679-.848 8.467 8.467 0 0 0 .812-.8 5.125 5.125 0 0 0 .973-2.893.088.088 0 1 0-.176 0z" class="cls-12" transform="translate(-892.245 -420.783)"/>
                    <path id="패스_2898" d="M907.9 420.276c.061.4.194.777.237 1.184a4.859 4.859 0 0 1-.661 3.184 18.211 18.211 0 0 0-1.7 2.623.088.088 0 1 0 .161.069 17.986 17.986 0 0 1 1.68-2.594 5.039 5.039 0 0 0 .69-3.3c-.043-.409-.176-.792-.238-1.192a.088.088 0 0 0-.174.027z" class="cls-12" transform="translate(-889.079 -415.074)"/>
                    <path id="패스_2899" d="M905.4 423.545a8.17 8.17 0 0 1-1.033 2.631 7.644 7.644 0 0 0-1.223 2.648.088.088 0 0 0 .174.025 7.457 7.457 0 0 1 1.2-2.58 8.354 8.354 0 0 0 1.056-2.688.088.088 0 1 0-.172-.036z" class="cls-12" transform="translate(-887.571 -416.969)"/>
                    <path id="패스_2900" d="M875.126 466.886c1.7-2.918 4.019-2.939 5.448-1.8 1.124.892 1.46 2.585 1.538 3.934.235 4.089-1.4 8.216-2.8 11.977-.962 2.582-1.762 5.285-2.927 7.785-1.619 3.475-6.139 5.021-6.407-.038-.21-3.959.707-8.1 1.34-11.979a38.694 38.694 0 0 1 3.808-9.874z" class="cls-12" transform="translate(-868.508 -440.459)"/>
                    <path id="패스_2901" d="M901.881 468.264s17.006-1.134 17.157-1.036a.17.17 0 0 1-.006.285c-.216.122-17.026 1.495-17.026 1.495l-.125-.743z" class="cls-19" transform="translate(-886.844 -442.089)"/>
                    <path id="패스_2902" fill="#f3e5e4" fill-rule="evenodd" d="M934.843 492.519c1.32.811.522 12.636-9.343 13.308-11.526.785-14.246-10.507-12.894-12.431.535-.763 5.594-2.226 10.787-2.365 5.3-.143 10.739 1.051 11.45 1.488z" transform="translate(-892.82 -455.753)"/>
                    <path id="패스_2903" fill="#bcc6d2" fill-rule="evenodd" d="M920.5 509.589a.518.518 0 0 1-.533.444.679.679 0 0 1-.365-.135 3.865 3.865 0 0 1-.418-.43c-.376-.385-.731-.793-1.086-1.2a23.2 23.2 0 0 1-3.673-5.365 5 5 0 0 1-.655-2.213 1.182 1.182 0 0 1 .7-1.113 1.286 1.286 0 0 1 1.118.192 5.667 5.667 0 0 1 1.341 1.553c1.29 1.947 2.257 4.1 3.408 6.131.192.339.39.682.612 1.006-.057-.268-.132-.533-.2-.793a23.067 23.067 0 0 1-1.262-5.063 3.643 3.643 0 0 1 .166-1.364 1.169 1.169 0 0 1 2.087-.324 4.848 4.848 0 0 1 .681 1.272c.786 1.976.939 4.183 1.525 6.222.054.187.1.335.164.519a5.093 5.093 0 0 0 .388.934 1.106 1.106 0 0 0 .142.2c.009.01.024.022.036.032a1.034 1.034 0 0 0 .341-.616 7.936 7.936 0 0 0 .2-1.068c.275-1.8.06-3.621.24-5.43a5.506 5.506 0 0 1 .555-2.123 1.146 1.146 0 0 1 1.081-.589 1.014 1.014 0 0 1 .849.654 5.124 5.124 0 0 1 .25 1.742c.053 1.85-.186 3.687-.026 5.539a5.348 5.348 0 0 0 .113.888 1.283 1.283 0 0 0 .072.212.651.651 0 0 0 .057.092c.031-.006.054-.037.082-.062a1.173 1.173 0 0 0 .182-.218 4.752 4.752 0 0 0 .4-.776c.746-1.705.957-3.591 1.557-5.346a6.926 6.926 0 0 1 .775-1.646 1.081 1.081 0 0 1 .915-.505.867.867 0 0 1 .732.582 3.9 3.9 0 0 1 .153 1.343 32.891 32.891 0 0 1-.747 4.569 4.367 4.367 0 0 0-.072 1 .518.518 0 0 1-.035.957.685.685 0 0 1-.427.023.694.694 0 0 1-.425-.341 1.3 1.3 0 0 1-.136-.459 5.168 5.168 0 0 1 .072-1.341 31.833 31.833 0 0 0 .735-4.426 4.864 4.864 0 0 0-.014-.667l-.031.049a6.823 6.823 0 0 0-.513 1.193c-.609 1.782-.83 3.7-1.588 5.426a4.958 4.958 0 0 1-.647 1.154 1.267 1.267 0 0 1-1.07.52 1.033 1.033 0 0 1-.823-.56 4.251 4.251 0 0 1-.344-1.576c-.161-1.872.077-3.729.023-5.6a6.654 6.654 0 0 0-.064-1.009 1.642 1.642 0 0 0-.067-.268.8.8 0 0 0-.051-.106.211.211 0 0 0-.044.043.945.945 0 0 0-.143.245 5.332 5.332 0 0 0-.3 1.483c-.182 1.826.031 3.661-.246 5.483a7.292 7.292 0 0 1-.321 1.478 1.8 1.8 0 0 1-.767.971.944.944 0 0 1-1.139-.122 4.167 4.167 0 0 1-.882-1.619c-.071-.2-.122-.366-.182-.573-.577-2.007-.719-4.181-1.492-6.125a4.622 4.622 0 0 0-.408-.85 1.1 1.1 0 0 0-.192-.228c-.031-.026-.059-.06-.1-.052-.129.027-.148.174-.181.3a3.009 3.009 0 0 0-.056.816 22.052 22.052 0 0 0 1.226 4.83 7.58 7.58 0 0 1 .341 1.808 1.505 1.505 0 0 1-.092.593.627.627 0 0 1-.511.37.789.789 0 0 1-.48-.107 1.973 1.973 0 0 1-.45-.411l-.047-.056zm-5.663-9.029a1.186 1.186 0 0 0-.033.181 3.921 3.921 0 0 0 .557 1.723 22.187 22.187 0 0 0 3.514 5.122c.316.359.63.72.961 1.065-.141-.226-.273-.456-.4-.685-1.139-2.009-2.094-4.142-3.37-6.069a5.665 5.665 0 0 0-.883-1.136 1.116 1.116 0 0 0-.235-.165.317.317 0 0 0-.107-.037z" transform="translate(-893.671 -460.637)"/>
                    <path id="패스_2904" fill="#f3d889" fill-rule="evenodd" d="M932.572 460.987a2.585 2.585 0 0 0-1.831 1.9c.149 1.826-.684 3.515-.7 5.317-.017 1.648.878 3.161 1.158 4.765a11.091 11.091 0 0 1 .116 3.191c-.033.277-.386 1.492-.386 1.492s.939.015 1.123.014c.915-.005 1.83.007 2.744-.018a11.115 11.115 0 0 0 2.615-.188c.024-.008-.415-1.286-.92-2.518-.38-.927-1-2-1.164-2.32-1.349-2.651-1.26-4.107-1.115-4.819.153-.753.14-1.741.28-2.5.391-2.107-1.116-4.4-1.918-4.321z" transform="translate(-903.013 -438.507)"/>
                    <path id="패스_2905" d="M930.922 463.949a24.636 24.636 0 0 1-.052 2.545 12.732 12.732 0 0 0-.453 3.847 35.518 35.518 0 0 0 1.313 4.028 12.037 12.037 0 0 1 .008 4.874.083.083 0 1 0 .164.03 12.225 12.225 0 0 0-.012-4.948 35.329 35.329 0 0 1-1.309-4.008 12.579 12.579 0 0 1 .453-3.8 24.648 24.648 0 0 0 .054-2.561.083.083 0 1 0-.167-.008z" class="cls-33" transform="translate(-903.201 -440.164)"/>
                    <path id="패스_2906" d="M932.132 463.053v.026a.594.594 0 0 1 .015.1v1.201a19 19 0 0 1-.266 2.508 7.827 7.827 0 0 0 .021 2.793c.362 1.723 1.271 3.267 1.7 4.97a8.681 8.681 0 0 1 .015 4.067.083.083 0 1 1-.163-.035 8.519 8.519 0 0 0-.014-3.991c-.426-1.705-1.336-3.251-1.7-4.977a8 8 0 0 1-.023-2.852 18.729 18.729 0 0 0 .264-2.486c.006-.3 0-.609 0-.914v-.283c0-.032-.017-.086-.022-.125a.156.156 0 0 1 .013-.091.094.094 0 0 1 .044-.041.1.1 0 0 1 .078 0 .084.084 0 0 1 .051.107.08.08 0 0 1-.017.028zm-.085.024z" class="cls-33" transform="translate(-903.911 -439.614)"/>
                    <path id="패스_2907" d="M935.576 461.17a6.463 6.463 0 0 1 .992 2.31 10.853 10.853 0 0 1-.105 2.946 9.09 9.09 0 0 0-.016 2.987 21.7 21.7 0 0 0 1.735 4.363 18.027 18.027 0 0 1 .931 3.791.083.083 0 1 0 .165-.026 18.238 18.238 0 0 0-.943-3.832 21.493 21.493 0 0 1-1.724-4.329 8.91 8.91 0 0 1 .018-2.934 11.021 11.021 0 0 0 .105-2.991 6.683 6.683 0 0 0-1.026-2.39.083.083 0 0 0-.131.1z" class="cls-33" transform="translate(-906.182 -438.536)"/>
                    <path id="패스_2908" d="M934.388 461.26a.8.8 0 0 1 .244.308 4.819 4.819 0 0 1 .238.624 7.811 7.811 0 0 1 .4 2.783c-.035 1.642-.534 3.279-.118 4.909a28.4 28.4 0 0 0 1.741 3.933 15.381 15.381 0 0 1 .672 3.876.084.084 0 0 0 .166-.017 15.582 15.582 0 0 0-.685-3.924 28.314 28.314 0 0 1-1.733-3.909c-.412-1.615.089-3.237.124-4.864a7.98 7.98 0 0 0-.413-2.841 5.1 5.1 0 0 0-.246-.645.966.966 0 0 0-.3-.371.083.083 0 0 0-.092.139z" class="cls-33" transform="translate(-905.488 -438.577)"/>
                    <path id="패스_2909" d="M933.346 461.865a7.292 7.292 0 0 1 .117 3.149 11.779 11.779 0 0 0-.157 3.2 12.375 12.375 0 0 0 1.072 3.119 14.368 14.368 0 0 1 1.268 6.681.083.083 0 1 0 .165.023 14.556 14.556 0 0 0-1.28-6.769 12.214 12.214 0 0 1-1.06-3.076 11.642 11.642 0 0 1 .157-3.153 7.443 7.443 0 0 0-.122-3.218.083.083 0 0 0-.16.048z" class="cls-33" transform="translate(-904.854 -438.951)"/>
                    <path id="패스_2910" d="M937.088 461.594a6.226 6.226 0 0 1 .92 2.476 14.268 14.268 0 0 1-.112 2.982 10.6 10.6 0 0 0 0 3.01 13.922 13.922 0 0 0 1.569 3.878 11.885 11.885 0 0 1 1.458 3.839.083.083 0 0 0 .165-.023 12.035 12.035 0 0 0-1.475-3.893 13.749 13.749 0 0 1-1.553-3.831 10.438 10.438 0 0 1 0-2.963 14.453 14.453 0 0 0 .112-3.017 6.383 6.383 0 0 0-.941-2.539.083.083 0 0 0-.146.081z" class="cls-33" transform="translate(-907.054 -438.786)"/>
                    <path id="패스_2911" d="M914.143 495.354a.5.5 0 0 0-.262.253.492.492 0 0 0-.011.341 1.372 1.372 0 0 0 1.087.794c3.641.7 14.259.743 19.174-.5a3.229 3.229 0 0 0 1.412-.65.613.613 0 0 0 .179-.322.494.494 0 0 0-.089-.363.083.083 0 0 0-.139.092.335.335 0 0 1 .064.243.449.449 0 0 1-.134.233 3.053 3.053 0 0 1-1.333.605c-4.9 1.237-15.475 1.193-19.1.5a1.2 1.2 0 0 1-.958-.679.326.326 0 0 1 0-.227.337.337 0 0 1 .179-.168.083.083 0 0 0-.07-.151z" class="cls-19" transform="translate(-893.714 -457.964)"/>
                    <path id="패스_2912" d="M902.835 470.183s16.854-2.541 17.012-2.456a.17.17 0 0 1 .017.285c-.2.14-16.844 2.9-16.844 2.9l-.186-.731z" class="cls-19" transform="translate(-887.392 -442.378)"/>
                    <path id="패스_2913" d="M886.308 486.113c-2.054-1.683-4.37 1.553-4.957 2.066-1.582 1.383-3.2 2.728-4.738 4.155a42.583 42.583 0 0 0-4.093 4.263c-1.334 1.635-2.528 3.439-2.488 5.634.056 2.987 3.472 3.669 5.708 2.5a11.251 11.251 0 0 0 3.881-4.229c1.418-2.292 2.668-4.683 4.04-7a31.279 31.279 0 0 0 2.421-4.346c.309-.786.841-2.537.226-3.041z" class="cls-12" transform="translate(-868.556 -452.66)"/>
                    <path id="패스_2914" d="M965.946 491.344c.482-.425 1.374-1.065 1.717-.607 1.412 1.884.366 4.739-.39 5.841a33.886 33.886 0 0 1-8.534 8.834c-1.048.7-3.193 1.688-4.435.9-1.347-.858 1.492-3.426 2.056-4.028 1.979-2.111 4.055-5.17 5.561-7.09a25.479 25.479 0 0 1 4.024-3.848z" class="cls-12" transform="translate(-916.74 -455.5)"/>
                    <path id="패스_2915" d="M903.3 469.94c.534-.6 1.066-1.208 1.577-1.828a6.914 6.914 0 0 1 1.095-1.2c.141-.1.4-.25.525-.048.219.353-.079.843-.312 1.191a7.968 7.968 0 0 1 .677-.71c.127-.117.634-.562.779-.241a1.128 1.128 0 0 1-.024.777.209.209 0 0 1 .063.06c.385.54-.264 1.759-.478 2.257q-.141.327-.293.648c.079-.1.161-.2.246-.29s.347-.4.5-.248c.183.183.005.671-.06.866-.255.763-.65 1.476-.924 2.234a9.449 9.449 0 0 1-.513 1.387 14.431 14.431 0 0 1-3.533 3.85 3.158 3.158 0 0 1-3.505-.083 1.766 1.766 0 0 1-.344-2.18l-.262.087h-.011.011a5.4 5.4 0 0 0 .441-.788q.677-1.167 1.469-2.262c.3-.53.6-1.052.9-1.584a7.18 7.18 0 0 1 .946-1.626 1.447 1.447 0 0 1 1.036-.265z" class="cls-12" transform="translate(-884.901 -441.822)"/>
                    <path id="패스_2916" d="M933.883 519.172c.054-.23-.906-.93-1.175-1.157-.389-.329-.755-.464-.983-.967-.077-.169-.362-.769-.1-.9.206-.1.5.072.677.163a5.106 5.106 0 0 0 1.455.536 16.469 16.469 0 0 1 4.475 1.094 4.245 4.245 0 0 1 .657.393 3.171 3.171 0 0 1 .411.358c.8.841-.078 1.956-.767 2.493l.037.02c-5.388 1.413-9.466 1.274-10.421.516a36.048 36.048 0 0 0-3.514-2.181c-.155-.1-1.172-.63-.911-.926.586-.664 1.713.232 2.348.187.248-.018.048-.4.349-.4a10.029 10.029 0 0 1 2.334.667c1.785.423 4.923.993 5.13.11z" class="cls-12" transform="translate(-899.361 -470.164)"/>
                    <path id="패스_2917" d="M869.09 489.6a17.962 17.962 0 0 0-2.5 7.317c0 .878.19 1.743.159 2.622a17.023 17.023 0 0 0-.1 3.617c.5 2.852 3.051 4.963 5.947 3.875 2.412-.906 2.983-3.112 4.591-4.8 1.433-1.5 3.372-2.359 4.657-4.048 1.119-1.471 1.366-3.335 2-5.027.3-.8 1.547-2.354 1.243-3.241s-3.445-2.45-4.326-2.782c-1.044-.393-2.105.3-2.945.865a58.487 58.487 0 0 0-5.593 4.718c-.969.841-1.763-2.522-3.128-3.117z" class="cls-26" transform="translate(-866.567 -453.458)"/>
                    <path id="패스_2918" d="M879.214 458.261c-.218-.162-.774.152-3.106 2.167a19.057 19.057 0 0 0-4.385 5.835 48.071 48.071 0 0 0-2.757 8.469c-.237.924-.9 2.484-.4 3.424.685 1.286 4.642 2.445 5.948 2.748.907.21 3.84.953 4.643.306.53-.428 5.026-19.259.058-22.948z" class="cls-26" transform="translate(-867.61 -436.922)"/>
                    <path id="패스_2919" d="M961.611 483.277c-.724 1.774.13 6-.69 7.431-.617 1.076-.46 2.276-1.339 3.107a7.763 7.763 0 0 0-1.768 2.829 9.577 9.577 0 0 0 .7 2.442c1.073 1.729.593 3.2 2.572 1.7.5-.38 3.708-.512 4.248-.941.993-.789 3.59-2.067 4.742-3.57 1.132-1.477 2.594-2.659 3.251-4.452 1.106-3.018-2.992-8.309-4.9-10.138-.847-.814-2.134-1.947-3.4-1.816-.846.087-3.042 2.731-3.417 3.411z" class="cls-26" transform="translate(-918.961 -449.343)"/>
                    <path id="패스_2920" d="M883.808 487.206c-.234.352-.563.952-.932 1.445a2.334 2.334 0 0 1-.746.712 16.94 16.94 0 0 1-2.5.845 8.335 8.335 0 0 0-2.424 1.033c-1.736 1.211-3.3 3.862-4.612 5.461a.088.088 0 0 0 .136.112c1.306-1.59 2.852-4.226 4.577-5.429a8.142 8.142 0 0 1 2.374-1.009 17.107 17.107 0 0 0 2.528-.856 2.507 2.507 0 0 0 .811-.765c.371-.5.7-1.1.938-1.453a.088.088 0 1 0-.146-.1z" class="cls-28" transform="translate(-870.015 -453.541)"/>
                    <path id="패스_2921" d="M897.291 494.987a1.9 1.9 0 0 0-.526.836c-.2.524-.35 1.148-.484 1.477-.294.722-.874 1.253-1.19 1.973-.509 1.16-.744 2.435-1.308 3.569-.993 2-4.093 4.52-5.763 6.191a.088.088 0 0 0 .124.124c1.682-1.682 4.8-4.226 5.8-6.237.565-1.138.8-2.414 1.312-3.577.316-.722.9-1.254 1.192-1.977.135-.33.282-.956.486-1.48a1.718 1.718 0 0 1 .464-.756.088.088 0 0 0-.1-.143z" class="cls-28" transform="translate(-878.871 -458.022)"/>
                    <path id="패스_2922" d="M904.151 440.818a10.347 10.347 0 0 0-1.1 1.244 2.9 2.9 0 0 0 .324 3.681 35.5 35.5 0 0 0 2.893 2.838c.552.567 1.662 2.143 2.153 2.761a.088.088 0 0 0 .138-.109c-.493-.621-1.61-2.2-2.164-2.774a35.332 35.332 0 0 1-2.88-2.823 2.74 2.74 0 0 1-.316-3.476 10.071 10.071 0 0 1 1.071-1.206.088.088 0 0 0-.113-.134z" class="cls-28" transform="translate(-887.214 -426.915)"/>
                    <path id="패스_2923" d="M967.254 497.654a.542.542 0 0 0 .031-.071.943.943 0 0 1 .112-.281 6.621 6.621 0 0 1 .8-.787 25 25 0 0 0 3.414-3.056.088.088 0 1 1 .138.109 25.156 25.156 0 0 1-3.437 3.081 6.457 6.457 0 0 0-.776.765.413.413 0 0 0-.056.139.821.821 0 0 1-.072.194.174.174 0 0 1-.1.08.16.16 0 0 1-.1 0 .088.088 0 0 1 .045-.17z" class="cls-28" transform="translate(-924.322 -457.135)"/>
                    <path id="패스_2924" d="M957.7 459.607a1.586 1.586 0 0 0-.1.145c-.26.433-.734 1.486-.789 1.612a22.275 22.275 0 0 0-1.329 6.172.088.088 0 0 1-.175-.021 22.463 22.463 0 0 1 1.343-6.221c.055-.128.537-1.195.8-1.633a1.062 1.062 0 0 1 .127-.179.163.163 0 0 1 .075-.046.094.094 0 0 1 .049 0 .108.108 0 0 1 .036.023.088.088 0 0 1 0 .124.086.086 0 0 1-.033.02z" class="cls-28" transform="translate(-917.519 -437.617)"/>
                    <path id="패스_2925" d="M954.119 473.783c.388 2.535 1.348 5.22 1.978 7.74a.088.088 0 1 0 .17-.043c-.629-2.515-1.588-5.194-1.975-7.724a.088.088 0 0 0-.174.027z" class="cls-28" transform="translate(-916.839 -445.798)"/>
                    <path id="패스_2926" d="M890.548 462.144a.551.551 0 0 0 .147.219c.156.162.412.365.481.446a18.29 18.29 0 0 1 1.39 1.866 13.834 13.834 0 0 1 2.33 6.576.088.088 0 0 0 .175-.012 14 14 0 0 0-2.358-6.659 18.4 18.4 0 0 0-1.4-1.884c-.069-.082-.329-.289-.488-.454a.976.976 0 0 1-.077-.089.124.124 0 0 1-.024-.041.088.088 0 0 0-.172.033z" class="cls-28" transform="translate(-880.336 -439.113)"/>
                    <path id="패스_2927" d="M913.1 470.158c-.17.219-.51.658-.713.931q-.738 1-1.46 2a.083.083 0 1 0 .135.1c.483-.67.967-1.338 1.458-2 .2-.273.542-.71.711-.928a.083.083 0 0 0-.132-.1z" class="cls-23" transform="translate(-892.029 -443.756)"/>
                    <path id="패스_2928" d="M916.433 469.61a1.459 1.459 0 0 0-.3.356 8.849 8.849 0 0 0-.56.928c-.466.858-.907 1.732-1.357 2.6a.083.083 0 1 0 .148.077c.449-.866.89-1.738 1.355-2.6a8.752 8.752 0 0 1 .55-.91 1.284 1.284 0 0 1 .264-.317.083.083 0 1 0-.1-.136z" class="cls-23" transform="translate(-893.92 -443.451)"/>
                    <path id="패스_2929" d="M916.727 476.427a4.248 4.248 0 0 0-.33.8c-.23.572-.449 1.147-.651 1.73a.083.083 0 0 0 .158.055c.2-.58.419-1.153.649-1.722a4.034 4.034 0 0 1 .312-.769.083.083 0 1 0-.137-.095z" class="cls-23" transform="translate(-894.803 -447.354)"/>
                    <path id="패스_2930" d="M906.984 474.51a6.745 6.745 0 0 0-.608.676q-.6.672-1.171 1.364a.083.083 0 0 0 .129.106q.571-.69 1.167-1.359a6.5 6.5 0 0 1 .591-.66.083.083 0 1 0-.108-.127z" class="cls-23" transform="translate(-888.742 -446.262)"/>
                    <path id="패스_2931" d="M929.764 522.729a8.837 8.837 0 0 0 1.579.941 10.729 10.729 0 0 0 2.257.977 8.035 8.035 0 0 0 2.876.151.083.083 0 1 0-.017-.166 7.858 7.858 0 0 1-2.816-.146 10.576 10.576 0 0 1-2.221-.963 8.663 8.663 0 0 1-1.55-.922.084.084 0 0 0-.108.128z" class="cls-23" transform="translate(-902.838 -473.877)"/>
                </g>
            </g>
            <g id="그룹_2877" transform="translate(14081.39 -7614.674)">
                <path id="패스_2834" d="M1034.526 552.071a37.915 37.915 0 1 1-37.914 37.915 37.932 37.932 0 0 1 37.914-37.915z" class="cls-5" transform="translate(-992.957 -547.438)"/>
                <path id="패스_2835" fill="none" stroke="#f27070" stroke-linecap="round" stroke-linejoin="round" stroke-width="0.968px" d="M1024.542 620.233c.166.219-3.5.29-3.663.275a36.163 36.163 0 0 1-12.256-3.451c-10.354-4.96-16.933-15.15-18.378-26.424a30.5 30.5 0 0 1 3.555-19.063c4.073-7 34.142-30.25 42.534-30.379 11-.168 17.021 12.581 22.692 20.022 3.937 5.166 8.183 10.166 10.8 16.17 11.262 25.813-5.359 41.681-30.619 43.125l-14.666-.274z" transform="translate(-989.146 -541.189)"/>
                <g id="그룹_2874" transform="translate(0 5.01)">
                    <path id="패스_2251" d="M1046.235 557.552c-1.679.28-2.94 2.453-3.693 3.776a17.81 17.81 0 0 0-2.479 8.306c-.061 2.553.62 5.1-.61 7.5-1.284 2.5-3.968 4.008-4.868 6.748-1.057 3.217 0 6.613-1.441 9.8a23.013 23.013 0 0 1-2.675 4.435c-.268.353-1.293 1.246-1.156 1.76.308 1.149 4.7 2.348 5.684 2.585a58.128 58.128 0 0 0 19.989 1 43.6 43.6 0 0 0 11.089-2.828c.821-.33 2.79-.864 3.29-1.7.359-.6-1.211-2.149-1.505-2.557-1.491-2.074-3.244-4.338-3.6-6.943-.294-2.153.948-4.028.968-6.132.019-1.962-1.162-3.763-1.249-5.768-.333-7.706 2.2-17.738-7.667-20.448-1.418-.39-8.62.384-10.079.46z" class="cls-4" transform="translate(-1011.728 -555.268)"/>
                    <path id="패스_2252" d="M1107.741 595.549a7.636 7.636 0 0 1-.232 2.8 11.8 11.8 0 0 0-.407 2.866 12.444 12.444 0 0 0 .918 3.088 12.1 12.1 0 0 1 .255 3.417.1.1 0 0 0 .2.007 12.352 12.352 0 0 0-.263-3.481 12.381 12.381 0 0 1-.91-3.04 11.593 11.593 0 0 1 .4-2.817 7.853 7.853 0 0 0 .235-2.872.1.1 0 0 0-.2.031z" class="cls-35" transform="translate(-1056.402 -577.345)"/>
                    <path id="패스_2253" d="M1103.948 606.472a2.234 2.234 0 0 0-.116 1.182 18.464 18.464 0 0 0 .857 2.93 18.007 18.007 0 0 1 .17 3.708.1.1 0 1 0 .2-.012 18.211 18.211 0 0 0-.176-3.747 18.223 18.223 0 0 1-.851-2.9 2.009 2.009 0 0 1 .09-1.063.1.1 0 1 0-.176-.1z" class="cls-35" transform="translate(-1054.505 -583.656)"/>
                    <path id="패스_2254" d="M1100.387 610.546a.763.763 0 0 0-.061.382 4.5 4.5 0 0 0 .079.533c.135.806.457 1.537.652 2.323.3 1.195-.084 2.323-.071 3.52a.1.1 0 0 0 .2 0c-.014-1.213.366-2.356.065-3.566-.195-.781-.516-1.508-.649-2.308a4.349 4.349 0 0 1-.077-.51.561.561 0 0 1 .039-.279.1.1 0 1 0-.18-.093z" class="cls-35" transform="translate(-1052.508 -585.993)"/>
                    <path id="패스_2255" d="M1094.934 612.556a.8.8 0 0 0-.059.527 6.794 6.794 0 0 0 .4 1.22 18.409 18.409 0 0 1 .738 1.987 12.176 12.176 0 0 1 .187 2.189.1.1 0 0 0 .2-.01 12.375 12.375 0 0 0-.192-2.225 18.576 18.576 0 0 0-.744-2.009 9.241 9.241 0 0 1-.359-1 1.6 1.6 0 0 1-.051-.342.441.441 0 0 1 .047-.229.1.1 0 0 0-.173-.1z" class="cls-35" transform="translate(-1049.369 -587.152)"/>
                    <path id="패스_2256" d="M1068.037 591.2c-.027.034.4 2.551.424 2.713.408 2.546 1.712 8.728 1.333 10.418-.259 1.162-1.561 2.474-1.316 3.682.241 1.191 1.87 1.757 2.9 1.893 2.441.324 6.4-.407 8.325-2.039a4.794 4.794 0 0 0 .791-.841c1.668-2.3-1.275-3.4-1.981-5.35-.691-1.922-1.261-7.658-2.246-8.757-.647-.723-7.407-1.779-8.23-1.719z" class="cls-12" transform="translate(-1033.969 -574.917)"/>
                    <g id="그룹_1428" transform="translate(34.066 16.285)">
                        <g id="그룹_2873">
                            <g id="그룹_2872" clip-path="url(#clip-path-6)">
                                <g id="그룹_1427" transform="translate(-.735 2.157)">
                                    <path id="패스_2257" d="M1066.351 596.267a5.5 5.5 0 0 0 .675 2.988c1.443 3.113 4.723 4.682 7.594 6.2.938.5 2.585 1.712 3.712 1.54.841-.129.741-1.417.7-2.014a7.73 7.73 0 0 0-2.079-5.1 20.974 20.974 0 0 0-3.395-2.663c-1.88-1.237-4.974-.659-7.2-.953z" class="cls-23" transform="translate(-1066.309 -596.267)"/>
                                </g>
                            </g>
                        </g>
                    </g>
                    <path id="패스_2259" d="M1066.141 574.968a18.158 18.158 0 0 1-1.384-3.858 23 23 0 0 0-3.081-2.706c-1.182-.988-2.973-7.419-.264-10.976a11.222 11.222 0 0 1 12.536-3.885 10.532 10.532 0 0 1 6.307 7.049 30.469 30.469 0 0 1 .47 5.464 37.729 37.729 0 0 1 .261 3.9c-.1 2.663-2.4 8.262-5.846 9.232-1.359.383-7.318-1.958-9-4.224z" class="cls-12" transform="translate(-1029.35 -552.958)"/>
                    <path id="패스_2260" d="M1100.949 580.008a5.088 5.088 0 0 0-2.339.514 1.617 1.617 0 0 0-.837 1.041 3.3 3.3 0 0 0 .068 1.225c.211 1.09.7 2.484.871 3.072a.774.774 0 0 1-.044.645.83.83 0 0 1-.5.318 2.6 2.6 0 0 1-1.137.008.2.2 0 1 0-.075.39 2.948 2.948 0 0 0 1.376-.034 1.189 1.189 0 0 0 .669-.468 1.146 1.146 0 0 0 .093-.967c-.141-.5-.521-1.588-.759-2.57a4.019 4.019 0 0 1-.172-1.532 1.233 1.233 0 0 1 .646-.784 4.7 4.7 0 0 1 2.149-.461.2.2 0 0 0-.007-.4z" class="cls-37" transform="translate(-1050.483 -568.489)"/>
                    <path id="패스_2261" d="M1085.746 582.488a6.5 6.5 0 0 1 3.458-.213.2.2 0 0 0 .106-.382 7 7 0 0 0-3.72.23.2.2 0 0 0 .157.365z" class="cls-37" transform="translate(-1043.984 -569.486)"/>
                    <path id="패스_2262" d="M1090.564 585.578a.7.7 0 1 1-.7.7.7.7 0 0 1 .7-.7z" class="cls-37" transform="translate(-1046.502 -571.688)"/>
                    <path id="패스_2263" d="M1103.907 584.352a.7.7 0 1 1-.7.7.7.7 0 0 1 .7-.7z" class="cls-37" transform="translate(-1054.163 -570.984)"/>
                    <path id="패스_2264" d="M1086.307 601.34a4.852 4.852 0 0 0 4.1.273c1.527-.612 1.753-1.578 1.608-1.88-.415-.873-1.846-.606-2.76-.623a24.847 24.847 0 0 1-2.845-.672c-.8-.036-1.717.537-1.541 1.406.139.689.854 1.159 1.44 1.5z" class="cls-28" transform="translate(-1043.621 -579.071)"/>
                    <path id="패스_2265" d="M1071.035 558.094c-.139.165 5.206 1.308 7.811 3.679a10.679 10.679 0 0 1 1.507 2.327 4.118 4.118 0 0 0 .211-2.2 12.9 12.9 0 0 0-1.836-4.5 9.063 9.063 0 0 0-2.381-2.657c-4.263-3-11.031-2.034-14.672 1.5-2.494 2.42-3.4 9.108-.936 11.862a6.535 6.535 0 0 0 1.651 1.172 8.556 8.556 0 0 0 2.779.911c.283-.011.341-.927.384-1.108a16.39 16.39 0 0 1 1.428-3.793c1-1.926 3.76-4.984 4.053-7.19z" class="cls-4" transform="translate(-1028.944 -552.956)"/>
                    <path id="패스_2266" d="M1072.486 556.529a29.958 29.958 0 0 1 5.692 3.1.1.1 0 0 0 .126-.158 30.248 30.248 0 0 0-5.745-3.133.1.1 0 1 0-.074.188z" class="cls-35" transform="translate(-1036.487 -554.895)"/>
                    <path id="패스_2267" d="M1081.607 560.17a2.726 2.726 0 0 1 .829-.242 8.316 8.316 0 0 1 2.3-.24 8.954 8.954 0 0 1 6.56 2.652 7.427 7.427 0 0 1 1.082 1.816.1.1 0 1 0 .184-.085 7.613 7.613 0 0 0-1.114-1.865 9.167 9.167 0 0 0-6.706-2.719 8.532 8.532 0 0 0-2.35.246 2.955 2.955 0 0 0-.9.272.1.1 0 1 0 .115.168z" class="cls-35" transform="translate(-1041.67 -556.703)"/>
                    <path id="패스_2268" d="M1077.374 556.705a.843.843 0 0 1 .06-.062 2.438 2.438 0 0 1 .211-.144 5.944 5.944 0 0 1 .685-.383 8 8 0 0 1 2.128-.574 9.944 9.944 0 0 1 6.512 1.406.1.1 0 1 1-.1.177 9.753 9.753 0 0 0-6.383-1.383 7.815 7.815 0 0 0-2.074.558 5.665 5.665 0 0 0-.661.369 2.018 2.018 0 0 0-.193.132c-.017.013-.044.05-.061.067a.144.144 0 0 1-.044.031.105.105 0 0 1-.082-.194zm.141.11zm0-.011v.009a.056.056 0 0 0 0-.013zm0-.008" class="cls-35" transform="translate(-1039.297 -554.382)"/>
                    <path id="패스_2269" d="M1074.217 555.194a.1.1 0 0 1-.193-.032.154.154 0 0 1 .067-.126 2.136 2.136 0 0 1 .308-.168 10.53 10.53 0 0 1 1.158-.486 13.068 13.068 0 0 1 5.191-.617.1.1 0 0 1-.014.2 12.868 12.868 0 0 0-5.111.6 10.317 10.317 0 0 0-1.136.478c-.016.008-.107.049-.186.092a.956.956 0 0 0-.083.053z" class="cls-35" transform="translate(-1037.408 -553.395)"/>
                    <path id="패스_2270" d="M1084.567 562.6a11.909 11.909 0 0 1 8.478 3.323 10.86 10.86 0 0 1 1.734 2.249.1.1 0 0 0 .18-.093 11.133 11.133 0 0 0-1.771-2.3 12.12 12.12 0 0 0-8.628-3.382.1.1 0 1 0 0 .2z" class="cls-35" transform="translate(-1043.402 -558.377)"/>
                    <path id="패스_2271" d="M1075.083 560.366a.631.631 0 0 1 .005.1c-.011.106-.029.211-.047.315-.048.282-.106.563-.176.839a15.812 15.812 0 0 1-.833 2.449c-.971 2.233-2.472 4.246-3.177 6.595a.1.1 0 0 1-.194-.058c.707-2.356 2.211-4.377 3.186-6.617a15.671 15.671 0 0 0 .822-2.417c.067-.272.125-.548.173-.825.017-.1.034-.2.045-.3 0-.026-.009-.078-.01-.1a.139.139 0 0 1 .013-.065.1.1 0 0 1 .084-.057.1.1 0 0 1 .09.033.1.1 0 0 1 .019.116z" class="cls-35" transform="translate(-1035.474 -557.124)"/>
                    <path id="패스_2272" d="M1062.146 558.1a.993.993 0 0 0-.092.064c-.125.1-.279.249-.294.264a11.436 11.436 0 0 0-1.135 1.313 27.6 27.6 0 0 0-3.477 6.215 15.753 15.753 0 0 0-1.317 6.126c.02 2.044.56 3.984.272 6.042a10.654 10.654 0 0 1-1.248 3.5 25.737 25.737 0 0 0-1.6 3.29c-.748 2.1-.6 4.41-1.286 6.535a.1.1 0 1 1-.192-.062c.688-2.127.54-4.44 1.288-6.541a25.919 25.919 0 0 1 1.606-3.315 10.444 10.444 0 0 0 1.227-3.437c.286-2.048-.254-3.979-.274-6.013a15.962 15.962 0 0 1 1.333-6.2 27.817 27.817 0 0 1 3.5-6.261 11.762 11.762 0 0 1 1.156-1.337 3.66 3.66 0 0 1 .412-.35.231.231 0 0 1 .1-.036.111.111 0 0 1 .083.026.1.1 0 0 1 .016.141.1.1 0 0 1-.082.037z" class="cls-35" transform="translate(-1024.633 -555.794)"/>
                    <path id="패스_2273" d="M1066.583 559.737a14.807 14.807 0 0 1-1.793 2.608 23.318 23.318 0 0 0-3.484 7.019 18.352 18.352 0 0 0-.15 5.863 17.4 17.4 0 0 1-.182 5.786 41.933 41.933 0 0 1-2.01 5.213 11.283 11.283 0 0 0-.989 5.524.1.1 0 0 0 .2-.021 11.077 11.077 0 0 1 .976-5.428 42.289 42.289 0 0 0 2.018-5.237 17.592 17.592 0 0 0 .188-5.853 18.15 18.15 0 0 1 .145-5.8 23.121 23.121 0 0 1 3.458-6.957 15.026 15.026 0 0 0 1.815-2.652.1.1 0 0 0-.192-.064z" class="cls-35" transform="translate(-1028.164 -556.812)"/>
                    <path id="패스_2274" d="M1066.211 597.079a1.706 1.706 0 0 0-.168.711c-.024.382.012.8.008 1.082-.021 1.385.12 2.769.057 4.154a20.4 20.4 0 0 1-1.048 4.633 9.945 9.945 0 0 0-.465 4.742.1.1 0 1 0 .2-.039 9.749 9.749 0 0 1 .462-4.647 20.641 20.641 0 0 0 1.056-4.68c.063-1.387-.077-2.773-.057-4.16 0-.281-.033-.693-.008-1.074a1.5 1.5 0 0 1 .143-.625.1.1 0 0 0-.176-.1z" class="cls-35" transform="translate(-1031.921 -578.261)"/>
                    <path id="패스_2275" d="M1051.557 556.949a10.568 10.568 0 0 0-2.782 2.259 14.952 14.952 0 0 0-3.189 5.253 16.424 16.424 0 0 0-.507 5.3 21.344 21.344 0 0 1-.307 5.308 16.635 16.635 0 0 1-2.063 4.875 28.885 28.885 0 0 0-2.35 4.405c-.849 2.187-.63 4.687-1.251 6.952-.785 2.863-2.476 5.554-3.748 8.232a.1.1 0 1 0 .182.087c1.275-2.688 2.973-5.391 3.76-8.265.619-2.259.4-4.752 1.245-6.933a28.814 28.814 0 0 1 2.335-4.375 16.834 16.834 0 0 0 2.087-4.932 21.556 21.556 0 0 0 .312-5.359 16.172 16.172 0 0 1 .5-5.237 14.764 14.764 0 0 1 3.15-5.18 10.291 10.291 0 0 1 2.716-2.21.1.1 0 1 0-.087-.183z" class="cls-35" transform="translate(-1015.201 -555.244)"/>
                    <path id="패스_2276" d="M1077.551 562.357c0 .056-.016.6-.021.652a5.6 5.6 0 0 1-.5 1.817c-1.1 2.367-3.189 4.955-4.014 7.46a.1.1 0 1 1-.193-.063c.826-2.512 2.921-5.109 4.023-7.482a5.4 5.4 0 0 0 .478-1.752c.005-.049-.006-.453.015-.625a.292.292 0 0 1 .034-.113.113.113 0 0 1 .047-.042.1.1 0 0 1 .127.148z" class="cls-35" transform="translate(-1036.718 -558.264)"/>
                    <path id="패스_2277" d="M1071.561 557.881c-5.122 3.045-4.854 11.322-4.854 11.322l1.995.052s.729-7.506 4.062-9.973c6.488-4.8 11.3 2.082 11.237 1.883-1.147-3.758-6.116-7.043-12.44-3.284z" class="cls-37" transform="translate(-1033.205 -554.83)"/>
                    <path id="패스_2278" d="M1068.619 586.811c.065-.188-1.3-.733-1.417-.772-1.2-.428-2.874-.36-3.215.987-.617 2.439 3.335 4.1 3.685 4.019.689-.157.806-3.733.947-4.233z" class="cls-12" transform="translate(-1031.607 -571.818)"/>
                    <path id="패스_2279" d="M1066.707 588.316h-.259a2.754 2.754 0 0 0-.906.118.1.1 0 0 1-.128-.072v-.006a.114.114 0 0 1 .072-.139 2.945 2.945 0 0 1 .958-.127 3.56 3.56 0 0 1 2.84 1.13.119.119 0 0 1 0 .159.1.1 0 0 1-.142.009l-.006-.005a3.286 3.286 0 0 0-2.224-1.056 2.684 2.684 0 0 0 .584 2.13.12.12 0 0 1-.007.16.1.1 0 0 1-.142 0l-.005-.006a2.893 2.893 0 0 1-.638-2.293z" class="cls-23" transform="translate(-1032.46 -573.126)"/>
                    <path id="패스_2287" d="M1036.717 628.985c-.295-2.724-1.792-4.387-7.3-1.218-2.151 1.237-12.782 21.418-12.74 24.818.02 1.544.805 3.406 2.667 3.089 2.684-.459 4.752-3.884 6.2-5.882 2.472-3.4 11.783-15.128 11.17-20.8z" class="cls-12" transform="translate(-1004.478 -594.921)"/>
                    <path id="패스_2288" d="M1019.486 650.929c-1.116 4.855-3.3 4.695-4.141 4.271a5 5 0 0 1-2.191-3.37c-1.343-5.487.2-14.035 1-19.716.214-1.521.6-5.951 2.461-6.63 2.081-.762 2.834 2 2.9 3.8.2 5.729.915 17.55-.025 21.643z" class="cls-12" transform="translate(-1002.152 -594.528)"/>
                    <path id="패스_2289" d="M1107.031 622.58c-.023.289 2.029-2.431 2.312-2.494a4.586 4.586 0 0 1 1.789-.062 6.466 6.466 0 0 1 3.822 2.738c3.219 4.181 8.348 13.978 10.121 18.948.6 1.682 1.372 4.406-.33 5.758-2.44 1.939-5.778-1.927-7.221-3.481-3.966-4.271-14.025-14.977-10.493-21.408z" class="cls-12" transform="translate(-1055.936 -591.433)"/>
                    <path id="패스_2290" d="M1151.358 619c-.609 3.437-6.054 20.86-8.31 24.674-.853 1.443-2.82-.356-3.329-.763a5.5 5.5 0 0 1-2.172-4.879c.159-5.208 6.4-15.44 8.3-19.82.6-1.371 1.339-4.532 3.184-4.32 2.156.249 2.638 3.328 2.323 5.107z" class="cls-12" transform="translate(-1073.881 -587.939)"/>
                    <path id="패스_2291" fill="#b25150" fill-rule="evenodd" d="M1038.623 585.353l2.222.466.656 12.028-2.05.628z" transform="translate(-1017.08 -571.559)"/>
                    <path id="패스_2292" d="M998.417 600.788l-1.211-12.634 17.645-2.8.817 13.159-17.251 2.276z" class="cls-21" transform="translate(-993.298 -571.559)"/>
                    <path id="패스_2293" fill="#637faf" fill-rule="evenodd" d="M1028.331 587.694l2.262.191 2.12 11.858-1.958.873-2.425-12.923z" transform="translate(-1011.17 -572.902)"/>
                    <path id="패스_2294" fill="#899ec1" fill-rule="evenodd" d="M990.774 605.02l-2.746-12.391 17.171-4.935 2.417 12.961-16.844 4.366z" transform="translate(-988.028 -572.903)"/>
                    <path id="패스_2295" d="M1004.516 613.661a10.711 10.711 0 0 1-.155-3.378 12.731 12.731 0 0 1 .324-1.535c.111-.5.757.181.828.685a17.811 17.811 0 0 1-.08 1.87 4.674 4.674 0 0 0 .678 2.2 7.823 7.823 0 0 0 .9.554 8.058 8.058 0 0 1-.245-3.1 16.182 16.182 0 0 1 .4-1.7c.132-.525.749.149.74.5-.026 1.08-.144 1-.143 1.589a7.737 7.737 0 0 0 .271 1.689c.395 1.078 2.24.947 2.358.727a11.772 11.772 0 0 0 .56-2.226c.034-.111.391-.8.613-.6.134.117.121.384.114.542-.023.464-.14.917-.119 1.384.033.757.412 1.45.436 2.21.006.177 1.531 3.12.806 3.247-.879.154-4.23 2.884-4.361.973-.105-1.539-4.254-3.5-4.508-3.732a5.409 5.409 0 0 1-1.417-3c-.171-.79-.5-1.707-.611-2.512-.09-.644.191-.792.648-.389a2.466 2.466 0 0 1 .7.989c.194.482.332 1.277.514 1.81a2.633 2.633 0 0 0 .752 1.208z" class="cls-12" transform="translate(-995.987 -584.891)"/>
                    <path id="패스_2296" d="M1157.121 586.173c-.338-1.858-.7-3.711-1.108-5.555-.259-1.156-.453-1.916-.107-2.037.656-.229 1.335 1.477 1.42 1.777a35.97 35.97 0 0 0 .906 3.742 5.085 5.085 0 0 1 .233-1.111c.2-.58.631-1.05 1.212-.588a2.818 2.818 0 0 1 .259.235.739.739 0 0 1 .59-.462c.489-.049.883.39 1.156.779a.65.65 0 0 1 .641-.142c.607.2.914 1.016 1.12 1.555a6.69 6.69 0 0 1 .264 2.115c.007.485-.327.682-.322.8.037.825.134 2.5.226 3.732.234 3.119-1.486 3.644-1.8 7.685-.049.618-4.809-1.2-4.627-3.525.129-1.657-.688-6.083-.739-7.117a2.169 2.169 0 0 1 .117-.8 4.257 4.257 0 0 1 .562-1.082z" class="cls-12" transform="translate(-1084.318 -567.658)"/>
                    <path id="패스_2297" fill="#ffd252" fill-rule="evenodd" d="M1039.55 638.723c-.316.122-3.44-2.4-3.769-2.675a33.96 33.96 0 0 1-3.666-4.613s3.742-7.611 5.249-9.776c2.637-3.792 7.481-2.867 11.5-3.964.369-.1-.223-1.236.067-1.349.365-.143 2.458.01 4.633-.132 1.874-.123 3.969-.284 4.562-.389.535-.095.433 1.535.994 1.535.619 0 6.472-.7 8.576-.549 4.774.336 10.687 11.4 10.687 11.4a44.554 44.554 0 0 0-4.352 6.125c-.49.956.056 1.3-.074 2.2-.546 3.789-2.3 5.385-2.437 7.039-.084 1.005.063 7.74.063 7.74a98.081 98.081 0 0 1-10.37 1.565 90.2 90.2 0 0 1-13.915-.055 43.056 43.056 0 0 0-1.043-7.413c-.915-2.917-3.6-7.951-4.45-10.087-.3-.76-1.116 1.393-2.254 3.4z" transform="translate(-1013.343 -589.053)"/>
                    <path id="패스_2298" d="M1089.258 636.741c-.037.064-6.738-2.878-5.464-5.006 1.381-2.306 3.656.324 4 .282.266-.033 1.1-2.919 2.98-1.536 1.136.837-.93 5.084-1.516 6.26z" class="cls-28" transform="translate(-1042.925 -597.256)"/>
                    <path id="패스_2299" d="M1119.917 636.819a15.5 15.5 0 0 0 1.764 4.615c.821 1.578 1.72 3.128 2.225 4.407a.1.1 0 0 0 .189-.074c-.508-1.284-1.41-2.841-2.234-4.426a15.264 15.264 0 0 1-1.744-4.549.1.1 0 1 0-.2.027z" class="cls-33" transform="translate(-1063.758 -601.045)"/>
                    <path id="패스_2300" d="M1054.506 655.3c.081-.125.347-.733.362-.765.424-.917.835-1.837 1.2-2.779a.1.1 0 1 1 .188.074c-.369.945-.782 1.869-1.208 2.79-.015.034-.3.676-.38.8a.12.12 0 0 1-.134.059.1.1 0 0 1-.064-.127.1.1 0 0 1 .034-.047zm.089-.019a.1.1 0 0 0-.041 0 .1.1 0 0 1 .046.004z" class="cls-33" transform="translate(-1026.178 -609.653)"/>
                    <path id="패스_2301" d="M1072.016 619.758a41.216 41.216 0 0 0 9.391-.336.1.1 0 1 0-.034-.2 41.027 41.027 0 0 1-9.332.336.1.1 0 0 0-.114.087.1.1 0 0 0 .087.114z" class="cls-33" transform="translate(-1036.203 -591.006)"/>
                    <path id="패스_2303" d="M1169.966 600.218a9.06 9.06 0 0 0-.76 4.982.1.1 0 1 0 .2-.034 8.861 8.861 0 0 1 .749-4.872.1.1 0 1 0-.188-.075z" class="cls-23" transform="translate(-1092.005 -580.058)"/>
                    <path id="패스_2304" d="M1171.276 596.479a1.93 1.93 0 0 0 .436.893.7.7 0 0 0 .184.163.31.31 0 0 0 .29.018.636.636 0 0 0 .289-.3 2.776 2.776 0 0 0 .184-.55.1.1 0 0 0-.2-.053 2.563 2.563 0 0 1-.168.51.435.435 0 0 1-.193.211.113.113 0 0 1-.108-.01.5.5 0 0 1-.128-.117 1.689 1.689 0 0 1-.39-.774.1.1 0 0 0-.2.011z" class="cls-23" transform="translate(-1093.251 -577.886)"/>
                    <path id="패스_2305" d="M1138.43 654.316c-.4.768-.87 1.49-1.228 2.285a14.043 14.043 0 0 0-1.309 6.521.1.1 0 1 0 .2-.011 13.831 13.831 0 0 1 1.29-6.426c.356-.792.823-1.511 1.223-2.275a.1.1 0 0 0-.18-.094z" class="cls-23" transform="translate(-1072.927 -611.127)"/>
                    <path id="패스_2306" d="M1162.66 590.335a.766.766 0 0 0 .021.086c.03.088.077.186.091.231.1.33.193.663.3.992a.1.1 0 1 1-.192.063c-.108-.33-.2-.664-.3-1-.016-.052-.077-.175-.1-.272a.308.308 0 0 1-.01-.157.1.1 0 1 1 .2.052z" class="cls-23" transform="translate(-1088.189 -574.346)"/>
                    <path id="패스_2307" d="M1165.3 598.343a.362.362 0 0 0 .089.13 1.656 1.656 0 0 0 .144.12 1.255 1.255 0 0 0 .4.23.53.53 0 0 0 .49-.075 1.286 1.286 0 0 0 .418-.918.1.1 0 0 0-.2-.021 1.081 1.081 0 0 1-.336.777.337.337 0 0 1-.311.043 1.027 1.027 0 0 1-.333-.194c-.03-.024-.071-.054-.109-.087a.207.207 0 0 1-.06-.073.1.1 0 1 0-.191.067z" class="cls-23" transform="translate(-1089.814 -578.659)"/>
                    <path id="패스_2308" d="M1164.333 594.231c-.7-.051-1.977-.248-2.764-.344-.2-.025-.375-.042-.493-.049a.542.542 0 0 0-.129 0 1.627 1.627 0 0 0-.8.754.1.1 0 0 1-.178-.1 1.858 1.858 0 0 1 .925-.853 1.521 1.521 0 0 1 .389.008c.725.07 2.335.33 3.115.381.091.006.153.072.142.206a2.118 2.118 0 0 1-.575 1.016 1.613 1.613 0 0 1-.985.261 3.185 3.185 0 0 1-.728-.107 5.33 5.33 0 0 1 .188 1.231 11.143 11.143 0 0 1-.438 2.613.1.1 0 0 1-.181-.091 10.833 10.833 0 0 0 .417-2.532 6 6 0 0 0-.226-1.343.1.1 0 0 1 .069-.125.1.1 0 0 1 .063 0 3.007 3.007 0 0 0 .841.149 1.408 1.408 0 0 0 .862-.223 2 2 0 0 0 .474-.788.414.414 0 0 0 .014-.071z" class="cls-23" transform="translate(-1086.75 -576.314)"/>
                    <path id="패스_2309" d="M1165.761 588.516a25.343 25.343 0 0 1 .841 2.455.1.1 0 0 0 .2-.04 25.655 25.655 0 0 0-.851-2.486.1.1 0 1 0-.189.071z" class="cls-23" transform="translate(-1090.08 -573.297)"/>
                    <path id="패스_2310" d="M1169.04 589.2c.083.254.281.9.347 1.156a6.965 6.965 0 0 1 .333 2.218 1.02 1.02 0 0 1-.184.487.3.3 0 0 1-.374.139.389.389 0 0 1-.124-.12c-.08-.1-.154-.23-.2-.3a.1.1 0 0 0-.163.12c.051.069.126.2.208.3a.59.59 0 0 0 .2.181.462.462 0 0 0 .527-.1 1.182 1.182 0 0 0 .312-.693 7.162 7.162 0 0 0-.339-2.283c-.067-.261-.268-.912-.351-1.169a.1.1 0 1 0-.192.063z" class="cls-23" transform="translate(-1091.743 -573.691)"/>
                    <path id="패스_2311" d="M1007.954 621.37a3.626 3.626 0 0 0 .7 1.122 2.541 2.541 0 0 0 1.046.556.1.1 0 0 0 .06-.193 2.335 2.335 0 0 1-.964-.508 3.389 3.389 0 0 1-.66-1.06.1.1 0 1 0-.185.082z" class="cls-23" transform="translate(-999.465 -592.158)"/>
                    <path id="패스_2312" d="M1029.6 658.119c.108.842.417 2.954.562 3.791a17.589 17.589 0 0 1 .28 6.882.1.1 0 0 0 .2.043 17.793 17.793 0 0 0-.278-6.96c-.145-.834-.453-2.942-.561-3.782a.1.1 0 1 0-.2.026z" class="cls-23" transform="translate(-1011.897 -613.275)"/>
                    <path id="패스_2313" d="M1014.063 621.987c.085.154.266.54.439.809a1.076 1.076 0 0 0 .235.28 1.178 1.178 0 0 0 .619.161.1.1 0 0 0 .011-.2.972.972 0 0 1-.513-.123 1.243 1.243 0 0 1-.254-.341c-.147-.251-.288-.55-.36-.68a.1.1 0 0 0-.177.1z" class="cls-23" transform="translate(-1002.969 -592.509)"/>
                </g>
            </g>
            <path id="패스_2932" d="M10.85 14.983a5.733 5.733 0 0 0 8.933-.273c1.639-2.409.689-6.155-2.376-9.364C15.214 2.912 10.7 1.068 7.048 0 4.352 2.677 1.259 6.453.491 9.637-.673 13.919.278 17.665 2.867 19a5.733 5.733 0 0 0 7.983-4.019z" class="cls-4" transform="rotate(-146 5960.79 -5946.072)"/>
        </g>
    </g>
</svg>
