<svg xmlns="http://www.w3.org/2000/svg" xmlns:xlink="http://www.w3.org/1999/xlink" width="320" height="493.157" viewBox="0 0 320 493.157">
    <defs>
        <clipPath id="clip-path">
            <path id="사각형_2416" d="M0 0H320V493.157H0z" class="cls-1" transform="translate(0 1918.008)"/>
        </clipPath>
        <clipPath id="clip-path-2">
            <path id="사각형_2409" d="M0 0H628.972V240.157H0z" class="cls-2"/>
        </clipPath>
        <clipPath id="clip-path-3">
            <path id="패스_3132" d="M579.5 1957.346a8.222 8.222 0 0 0-8.221-8.222h-34.764a8.222 8.222 0 0 0-8.221 8.222v86.48a8.221 8.221 0 0 0 8.221 8.222h34.766a8.222 8.222 0 0 0 8.222-8.222v-86.48z" class="cls-2" transform="translate(-528.294 -1949.124)"/>
        </clipPath>
        <clipPath id="clip-path-4">
            <path id="패스_3133" d="M562.1 2010.948c-.705-.085-5.6-6.215-4.938-8.88.151-.607.676-.753.845-2.173a37.783 37.783 0 0 0 .12-7.649 19.175 19.175 0 0 0 2.707-.365c1.714-.282 3.645-.565 4.031-.19.475.462-.262 5.6-.107 8.824a3.5 3.5 0 0 0 .874 1.927c.833 1.114-2.57 8.509-3.509 8.509zm-3.975-18.7" class="cls-2" transform="translate(-557.105 -1991.51)"/>
        </clipPath>
        <linearGradient id="linear-gradient" x1="2.354" x2="2.355" y1="270.297" y2="270.297" gradientUnits="objectBoundingBox">
            <stop offset="0" stop-color="#b3b3b3"/>
            <stop offset=".026" stop-color="#fbfbfb"/>
            <stop offset=".347" stop-color="#f3f3f3"/>
            <stop offset=".73" stop-color="#f2f2f2"/>
            <stop offset=".973" stop-color="#fff"/>
            <stop offset="1" stop-color="#b3b3b3"/>
        </linearGradient>
        <linearGradient id="linear-gradient-2" x1="2.355" x2="2.355" y1="101.8" y2="101.849" gradientUnits="objectBoundingBox">
            <stop offset="0" stop-color="#4d4d4d"/>
            <stop offset=".012" stop-color="#acacac"/>
            <stop offset=".092" stop-color="#a5a5a5"/>
            <stop offset=".18" stop-color="#b2b2b2"/>
            <stop offset=".277" stop-color="#c7c7c7"/>
            <stop offset=".385" stop-color="#d2d2d2"/>
            <stop offset=".512" stop-color="#e1e1e1"/>
            <stop offset=".675" stop-color="#e2e2e2"/>
            <stop offset="1" stop-color="#f1f1f1"/>
        </linearGradient>
        <linearGradient id="linear-gradient-3" x1="10.199" x2="10.203" y1="190.689" y2="190.689" xlink:href="#linear-gradient"/>
        <style>
            .cls-1,.cls-14,.cls-29{fill:#fff}.cls-15,.cls-16,.cls-2{fill:none}.cls-11{fill:gray}.cls-14,.cls-19{opacity:.5;isolation:isolate}.cls-15,.cls-16{stroke:#f27070;stroke-miterlimit:10}.cls-15{stroke-width:2.109px}.cls-16{stroke-width:.843px}.cls-19{fill:#f5abab}.cls-22,.cls-23,.cls-24,.cls-25,.cls-27,.cls-28,.cls-29,.cls-30,.cls-31,.cls-32,.cls-34,.cls-35,.cls-36,.cls-37{fill-rule:evenodd}.cls-21{clip-path:url(#clip-path-3)}.cls-22{fill:#ff7976}.cls-23{fill:#a07262}.cls-24{fill:#c08f71}.cls-25{fill:#ffbebc}.cls-27{fill:#ff9e9d}.cls-28{fill:#403641}.cls-30{fill:#f3e5e4}.cls-31{fill:#fbf2f3}.cls-32{fill:#d8ab82}.cls-34{fill:#f3d889}.cls-35{fill:#ea9a43}.cls-36{fill:#6f5e68}.cls-37{fill:#9a8993}
        </style>
    </defs>
    <g id="그룹_3327" transform="translate(0 -1918.008)">
        <path id="사각형_2407" d="M0 0H320V493.157H0z" class="cls-1" transform="translate(0 1918.008)"/>
        <g id="마스크_그룹_29" clip-path="url(#clip-path)">
            <g id="그룹_3315" transform="translate(-369.13 379.49)">
                <g id="그룹_3314" clip-path="url(#clip-path-2)" transform="translate(268.288 1791.518)">
                    <g id="그룹_3239" transform="translate(-129.042 9.174)">
                        <g id="그룹_3238">
                            <path id="사각형_2327" fill="#d0d0d0" d="M164.689 1803.327h356.17a8.325 8.325 0 0 1 8.325 8.325v243.255a4.916 4.916 0 0 1-4.917 4.917H160.533a4.37 4.37 0 0 1-4.37-4.37v-243.6a8.525 8.525 0 0 1 8.526-8.526z" transform="translate(-114.221 -1803.327)"/>
                            <path id="사각형_2328" fill="#f5f5f5" d="M165.65 1804.976h355.533a7.359 7.359 0 0 1 7.36 7.36v242.97a4.886 4.886 0 0 1-4.886 4.885H162.633a4.343 4.343 0 0 1-4.343-4.342v-243.513a7.359 7.359 0 0 1 7.36-7.36z" transform="translate(-114.696 -1803.695)"/>
                            <path id="사각형_2329" fill="#f1f1f1" d="M158.29 2116.875h370.254v8.059a4.869 4.869 0 0 1-4.868 4.868H162.615a4.324 4.324 0 0 1-4.325-4.324v-8.6z" transform="translate(-114.696 -1873.307)"/>
                            <path id="사각형_2331" fill="url(#linear-gradient)" d="M0 0H456.959V2.673H0z" transform="translate(0 253.321)"/>
                            <path id="패스_3067" fill="url(#linear-gradient-2)" d="M102.171 2132.872s10.916 6.442 68.474 6.517l318.676.148s52.432.779 69.809-6.666z" transform="translate(-102.171 -1876.877)"/>
                            <path id="사각형_2332" fill="url(#linear-gradient-3)" d="M340.415 2129.43h86.965v2.412a1.282 1.282 0 0 1-1.283 1.283H341.7a1.282 1.282 0 0 1-1.282-1.283v-2.412z" transform="translate(-155.344 -1876.109)"/>
                            <path id="사각형_2333" d="M0 0H3.119V1.448H0z" class="cls-11" transform="translate(170.441 259.281)"/>
                            <path id="사각형_2334" d="M0 0H3.119V1.448H0z" class="cls-11" transform="translate(282.731 259.281)"/>
                            <g id="그룹_3237" transform="translate(56.479 19.104)">
                                <path id="사각형_2330" d="M0 0H343.889V215.223H0z" class="cls-1"/>
                                <path id="사각형_2375" fill="#fff1f1" d="M0 0H139.412V139.412H0z" transform="translate(24.247 57.773)"/>
                                <path id="사각형_2369" fill="#f27070" d="M0 0H343.889V21.032H0z"/>
                                <path id="패스_3092" d="M193.94 1839.54a5.613 5.613 0 1 1-5.613-5.613 5.613 5.613 0 0 1 5.613 5.613z" class="cls-14" transform="translate(-176.627 -1829.261)"/>
                                <path id="패스_3093" d="M428.275 1845.811H308.708a5.68 5.68 0 0 1-5.68-5.681 5.681 5.681 0 0 1 5.68-5.681h119.567a5.681 5.681 0 0 1 5.681 5.68 5.68 5.68 0 0 1-5.68 5.681z" class="cls-14" transform="translate(-203.479 -1829.377)"/>
                                <path id="사각형_2370" d="M0 0H34.085V11.361H0z" class="cls-14" transform="translate(302.704 5.072)"/>
                                <g id="그룹_3230" transform="translate(24.247 36.851)">
                                    <path id="선_300" d="M0 0L114.898 0" class="cls-15"/>
                                    <path id="선_301" d="M0 0L72.609 0" class="cls-15" transform="translate(0 8.777)"/>
                                </g>
                                <path id="선_302" d="M0 0L132.111 0" class="cls-16" transform="translate(187.826 98.269)"/>
                                <path id="선_303" d="M0 0L132.111 0" class="cls-16" transform="translate(187.826 104.652)"/>
                                <path id="선_304" d="M0 0L132.111 0" class="cls-16" transform="translate(187.826 111.036)"/>
                                <path id="선_305" d="M0 0L132.111 0" class="cls-16" transform="translate(187.826 117.419)"/>
                                <path id="패스_3098" fill="#e73828" d="M472.058 1924.45h-43.884A11.171 11.171 0 0 1 417 1913.279a11.17 11.17 0 0 1 11.171-11.171h43.885a11.17 11.17 0 0 1 11.171 11.171 11.171 11.171 0 0 1-11.171 11.171z" transform="translate(-228.917 -1844.478)"/>
                                <path id="선_306" d="M0 0L132.111 0" class="cls-16" transform="translate(187.826 123.802)"/>
                                <g id="그룹_3233" transform="translate(208.833 64.747)">
                                    <path id="패스_3099" d="M443.983 1918.465a3.831 3.831 0 0 0 1.938.547c1.106 0 1.753-.584 1.753-1.429 0-.782-.447-1.23-1.578-1.665-1.367-.485-2.211-1.192-2.211-2.372 0-1.305 1.081-2.275 2.708-2.275a3.807 3.807 0 0 1 1.851.41l-.3.882a3.34 3.34 0 0 0-1.59-.4c-1.143 0-1.578.684-1.578 1.255 0 .782.51 1.168 1.665 1.615 1.416.546 2.137 1.23 2.137 2.461 0 1.292-.956 2.41-2.932 2.41a4.316 4.316 0 0 1-2.135-.534z" class="cls-1" transform="translate(-443.711 -1911.269)"/>
                                    <path id="패스_3100" d="M453.314 1917.189l-.87 2.633h-1.118l2.845-8.374h1.3l2.859 8.374h-1.155l-.9-2.633zm2.745-.844l-.819-2.411c-.186-.546-.31-1.044-.434-1.528h-.026c-.124.5-.26 1.007-.422 1.516l-.819 2.424z" class="cls-1" transform="translate(-445.411 -1911.309)"/>
                                    <path id="패스_3101" d="M461.936 1911.448h1.081v7.469h3.583v.906h-4.659z" class="cls-1" transform="translate(-447.779 -1911.309)"/>
                                    <path id="패스_3102" d="M473.825 1915.9h-3.255v3.02h3.63v.907h-4.709v-8.374h4.523v.907h-3.444v2.64h3.255z" class="cls-1" transform="translate(-449.464 -1911.309)"/>
                                </g>
                                <g id="그룹_3236" transform="translate(43.224 84.481)">
                                    <g id="그룹_3235">
                                        <path id="패스_3094" fill="#ff7541" d="M295.741 1936.673c-1.125 6.368-7.58 11.249-15.375 11.249s-14.25-4.882-15.375-11.249h-13.076s-21.5 18.1-21.394 18.527c2.394 10.2 12.793 15.219 12.793 15.219l8.167-7.586s-.545 55.043 0 55.226c30.9 10.373 58.133 0 58.133 0v-55.226l9.131 7.586s10.983-7.947 13.235-15.659c.04-.138-22.5-18.087-22.5-18.087z" transform="translate(-230.521 -1936.673)"/>
                                    </g>
                                </g>
                                <path id="사각형_2371" d="M0 0H27.525V27.528H0z" class="cls-19" transform="translate(188.085 130.184)"/>
                                <path id="사각형_2376" d="M0 0H27.525V27.528H0z" class="cls-19" transform="translate(292.346 130.184)"/>
                                <path id="사각형_2377" d="M0 0H27.525V27.528H0z" class="cls-19" transform="translate(257.196 130.184)"/>
                                <path id="사각형_2378" d="M0 0H27.525V27.528H0z" class="cls-19" transform="translate(222.641 130.184)"/>
                            </g>
                            <g id="그룹_2850" transform="translate(331.018 113.256)">
                                <g id="그룹_3307" transform="translate(.002)">
                                    <path id="패스_2552-2" fill="#ffd252" fill-rule="evenodd" d="M579.5 1957.345a8.221 8.221 0 0 0-8.221-8.222h-34.761a8.222 8.222 0 0 0-8.222 8.222v86.48a8.222 8.222 0 0 0 8.222 8.222h34.765a8.222 8.222 0 0 0 8.222-8.222v-86.48z" transform="translate(-528.296 -1949.123)"/>
                                </g>
                                <g id="그룹_2845" transform="translate(0 .001)">
                                    <g id="그룹_3309">
                                        <g id="그룹_3308" class="cls-21">
                                            <g id="그룹_2844" transform="translate(6.939 12.521)">
                                                <path id="패스_2553" d="M537.4 2032.779c-.293-1.14-.157-11.714.038-14.828.143-2.28.344-4.564.685-6.823.754-4.983 2.733-8.786 8.526-7.631 4.4.877 12.071 2.055 18.657.433 2.147-.529 5.268-1.039 6.963-.743 5.74 1 1.523 13.005-.383 17.634-1.228 3.734-3.757 6.582-3.8 11.039-.054 5.26 1.376 10.352 1.863 15.555a.419.419 0 0 1-.109.381c-1.763 1.549-16.322.143-19.027.026-.832-.036-5.835.04-6.2-.855-.076-.185-.238-1.124.367-4.124-3.9-2.8-7.081-8.139-7.575-10.064z" class="cls-22" transform="translate(-537.227 -1973.692)"/>
                                                <path id="패스_2554" d="M570.025 1981.42c-.332-2.438.6-10.1.185-10.651-6.573-8.761-16.035-5.667-20.409-.6-3.069 3.559-4.426 8.5-5.981 12.844-.371 1.036-2.481 6.412-2.414 7.312.1 1.3 5.139 2.966 6.1 3.256a51.57 51.57 0 0 0 17.839 1.954c1.253-.082 5.887-.4 6.835-1.2.642-.547-.419-4.257-.573-4.975-.565-2.636-1.215-5.265-1.579-7.939z" class="cls-23" transform="translate(-538.159 -1965.243)"/>
                                                <path id="패스_2555" d="M578.381 1990.589a.082.082 0 0 1-.023-.072.081.081 0 0 1 .094-.068.089.089 0 0 1 .06.039.418.418 0 0 1 .048.138c.059.274.126.95.134 1l.2 1.281c.366 2.238.866 4.676 1.4 6.877a.081.081 0 1 1-.158.038c-.537-2.205-1.038-4.648-1.4-6.89l-.2-1.282a10.458 10.458 0 0 0-.151-1.063z" class="cls-24" transform="translate(-546.407 -1970.868)"/>
                                                <path id="패스_2556" d="M577.581 1994.713a10.629 10.629 0 0 0 .279 1.966 36.991 36.991 0 0 0 .962 4.438.084.084 0 0 0 .1.056.083.083 0 0 0 .056-.1 36.821 36.821 0 0 1-.956-4.419 10.392 10.392 0 0 1-.277-1.933.083.083 0 0 0-.08-.085.082.082 0 0 0-.084.08z" class="cls-24" transform="translate(-546.233 -1971.803)"/>
                                                <path id="패스_2557" d="M576.529 1996.824c.127 1.788.465 3.407.737 5.179a.082.082 0 1 0 .162-.025c-.272-1.769-.608-3.381-.735-5.166a.083.083 0 0 0-.088-.076.083.083 0 0 0-.077.088z" class="cls-24" transform="translate(-545.998 -1972.272)"/>
                                                <path id="패스_2558" d="M575.059 1997.971a1.327 1.327 0 0 0-.006.534c.041.28.124.58.151.781.134 1.042.276 2.086.386 3.131a.082.082 0 1 0 .164-.016c-.11-1.048-.252-2.091-.387-3.136-.026-.2-.11-.5-.151-.783a1.138 1.138 0 0 1 0-.464.082.082 0 0 0-.056-.1.081.081 0 0 0-.1.054z" class="cls-24" transform="translate(-545.664 -1972.534)"/>
                                                <path id="패스_2559" d="M573.553 1999.27c.173 1.256.172 2.382.4 3.636a.082.082 0 1 0 .161-.03c-.227-1.251-.225-2.374-.4-3.628a.082.082 0 0 0-.163.022z" class="cls-24" transform="translate(-545.334 -1972.817)"/>
                                                <path id="패스_2560" d="M571.634 2000.2a19.654 19.654 0 0 0 .236 2.986.083.083 0 0 0 .09.074.083.083 0 0 0 .074-.09 19.217 19.217 0 0 1-.238-2.937.083.083 0 0 0-.064-.1.083.083 0 0 0-.1.063z" class="cls-24" transform="translate(-544.901 -1973.029)"/>
                                                <path id="패스_2561" d="M569.75 2000.137a22.613 22.613 0 0 0 .406 3.056.082.082 0 0 0 .093.07.084.084 0 0 0 .07-.094 22.481 22.481 0 0 1-.4-3.03.083.083 0 0 0-.082-.084.084.084 0 0 0-.084.082z" class="cls-24" transform="translate(-544.485 -1973.013)"/>
                                                <path id="패스_2562" d="M568.24 1999.574a18.379 18.379 0 0 0 .266 3.542.083.083 0 0 0 .092.072.082.082 0 0 0 .072-.091 18.147 18.147 0 0 1-.266-3.506.082.082 0 0 0-.074-.089.081.081 0 0 0-.09.073z" class="cls-24" transform="translate(-544.143 -1972.889)"/>
                                                <path id="패스_2563" d="M554.071 1987.327a34.147 34.147 0 0 0-2.846 9.17.082.082 0 0 0 .068.093.083.083 0 0 0 .094-.069 33.97 33.97 0 0 1 2.832-9.125.082.082 0 0 0-.04-.11.083.083 0 0 0-.11.04z" class="cls-24" transform="translate(-540.351 -1970.161)"/>
                                                <path id="패스_2564" d="M555.6 1989.027a17.313 17.313 0 0 0-1.292 3.765.082.082 0 0 0 .053.1.082.082 0 0 0 .1-.053 17.1 17.1 0 0 1 1.276-3.727.083.083 0 0 0-.027-.113.082.082 0 0 0-.11.028z" class="cls-24" transform="translate(-541.038 -1970.543)"/>
                                                <path id="패스_2565" d="M557 1989.661a26.6 26.6 0 0 0-.827 4.61.082.082 0 0 0 .072.091.082.082 0 0 0 .092-.072 26.351 26.351 0 0 1 .82-4.582.082.082 0 0 0-.054-.1.081.081 0 0 0-.1.054z" class="cls-24" transform="translate(-541.456 -1970.68)"/>
                                                <path id="패스_2566" d="M558.58 1990.212c-.277 2.235-.548 4.462-.663 6.716a.082.082 0 0 0 .078.086.082.082 0 0 0 .086-.078c.114-2.249.386-4.472.662-6.7a.082.082 0 1 0-.163-.02z" class="cls-24" transform="translate(-541.845 -1970.8)"/>
                                                <path id="패스_2567" d="M558.129 1992.246a37.6 37.6 0 0 1-.119 7.649c-.169 1.419-.694 1.566-.844 2.173-.659 2.665 4.232 8.794 4.937 8.881.91.112 4.369-7.386 3.53-8.507a3.491 3.491 0 0 1-.873-1.927c-.154-3.225.583-8.362.107-8.825-.662-.643-5.895.656-6.739.557z" class="cls-25" transform="translate(-541.663 -1971.106)"/>
                                            </g>
                                        </g>
                                    </g>
                                </g>
                                <g id="그룹_2847" transform="translate(22.381 32.927)">
                                    <g id="그룹_3311">
                                        <g id="그룹_3310" clip-path="url(#clip-path-4)">
                                            <g id="그룹_2846" transform="translate(-1.069 -.386)">
                                                <path id="패스_2568" d="M555.728 1991.014c.4 3.3 4.8 6.963 7.043 8.575a20.97 20.97 0 0 0 2.748 1.789c.492-.319.462-1.94.485-2.493.188-4.516-.966-4.36-4.518-6.268-1.617-.868-4.019-1.165-5.758-1.6z" class="cls-27" transform="translate(-555.728 -1991.014)"/>
                                            </g>
                                        </g>
                                    </g>
                                </g>
                                <g id="그룹_2849" transform="translate(0 .001)">
                                    <g id="그룹_3313">
                                        <g id="그룹_3312" class="cls-21">
                                            <g id="그룹_2848" transform="translate(-39.161 12.665)">
                                                <path id="패스_2569" d="M564.835 2020.037c-.012-.229-6.25-2.5-6.1-2.71a50.9 50.9 0 0 1 3.427-4.346c.144-.164 1.269-1.515 1.4-1.474a5.75 5.75 0 0 1 1.446.808c.732.7 3.164 2.279 3.173 2.564.007.2-3.222 5.037-3.346 5.156z" class="cls-22" transform="translate(-495.926 -1975.712)"/>
                                                <path id="패스_2570" d="M557.944 1986.53c-.207-1.072-1.289-8.19-.512-10.231.833-2.187 2.083-5.674 5.031-7 5.766-2.586 9.718-.2 11.12 1.939 1.593 2.427.895 5.107.986 7.836.069 2.1-.1 4.646-.131 6.726a6.844 6.844 0 0 1-.653 2.7c-.665 1.462-2.772 4.787-4.5 5.507s-4.914-.683-5.884-1.187c-2.785-1.45-4.789-2.855-5.453-6.295z" class="cls-25" transform="translate(-495.574 -1966.041)"/>
                                                <path id="패스_2571" d="M577.561 1981.222a4.3 4.3 0 0 0-2.828.363 2.047 2.047 0 0 0-1.061 1.161 4.638 4.638 0 0 0 .112 2.5 14.245 14.245 0 0 1 .549 2.334 1.3 1.3 0 0 1-1.212 1.507.21.21 0 1 0 .007.42 1.708 1.708 0 0 0 1.623-1.961 14.592 14.592 0 0 0-.562-2.406 4.215 4.215 0 0 1-.114-2.276 1.629 1.629 0 0 1 .855-.908 3.86 3.86 0 0 1 2.542-.322.21.21 0 0 0 .089-.411z" class="cls-28" transform="translate(-499.091 -1968.932)"/>
                                                <path id="패스_2572" d="M564.441 1982.395a4.89 4.89 0 0 1 4.453.256.21.21 0 1 0 .229-.352 5.315 5.315 0 0 0-4.841-.3.21.21 0 0 0 .159.389z" class="cls-28" transform="translate(-497.135 -1969.03)"/>
                                                <path id="패스_2573" d="M567.634 1984.173a.807.807 0 1 1-.806.806.807.807 0 0 1 .806-.806z" class="cls-28" transform="translate(-497.733 -1969.612)"/>
                                                <path id="패스_2574" d="M575.728 1983.966a.807.807 0 1 1-.807.807.808.808 0 0 1 .807-.807z" class="cls-28" transform="translate(-499.539 -1969.566)"/>
                                                <path id="패스_2575" d="M572.622 1994.265c-.367-1.139-.948-.767-2.91-1.077-1.471-.232-3.188-1.7-4.119-.64-1.563 1.776 1.429 3.8 3.392 4.088 2.233.326 3.982-1.3 3.636-2.371z" class="cls-29" transform="translate(-497.36 -1971.397)"/>
                                                <path id="패스_2576" d="M558.272 1982.518c1.179-.688 1.438-2.654 1.894-3.848.865-2.263 2.733-5.173 5.137-6.072a10.835 10.835 0 0 1 6.191-.546c1.4.317 3.122 2.046 3.155 1.815a4.82 4.82 0 0 0-1.871-2.641 8.537 8.537 0 0 0-3.311-1.292c-2.217-.355-7.784 1.456-9.658 3.974a9.874 9.874 0 0 0-1.538 8.609z" class="cls-23" transform="translate(-495.736 -1966.424)"/>
                                                <path id="패스_2577" d="M557.389 1984.34a3.769 3.769 0 0 0-3.708-.211c-1.318.728-1.906 2.392-2.362 3.728a60.827 60.827 0 0 0-2.307 9.578.083.083 0 0 0 .068.095.081.081 0 0 0 .095-.067 60.7 60.7 0 0 1 2.3-9.552c.444-1.3 1-2.929 2.285-3.636a3.592 3.592 0 0 1 3.531.2.082.082 0 0 0 .1-.132z" class="cls-24" transform="translate(-493.756 -1969.515)"/>
                                                <path id="패스_2578" d="M557.283 1982.683a4.894 4.894 0 0 0-1.986-.513 4.181 4.181 0 0 0-3.308 1.577 16.109 16.109 0 0 0-2.883 4.923 42.834 42.834 0 0 0-2.042 7.791.081.081 0 0 0 .067.095.081.081 0 0 0 .094-.068 42.75 42.75 0 0 1 2.034-7.759 15.933 15.933 0 0 1 2.852-4.873 4.019 4.019 0 0 1 3.177-1.522 4.7 4.7 0 0 1 1.915.492.082.082 0 0 0 .112-.033.083.083 0 0 0-.033-.112z" class="cls-24" transform="translate(-493.321 -1969.164)"/>
                                                <path id="패스_2579" d="M557.3 1981.3a5.265 5.265 0 0 0-2.288-.568 6.482 6.482 0 0 0-5.33 3.3 31.031 31.031 0 0 0-4.482 11.393.083.083 0 0 0 .068.095.082.082 0 0 0 .095-.068 30.858 30.858 0 0 1 4.455-11.33 6.315 6.315 0 0 1 5.19-3.221 5.112 5.112 0 0 1 2.223.553.083.083 0 0 0 .109-.041.082.082 0 0 0-.041-.108z" class="cls-24" transform="translate(-492.905 -1968.844)"/>
                                                <path id="패스_2580" d="M557.3 1979.9a10.42 10.42 0 0 0-1.586-.552 7.012 7.012 0 0 0-3.444.164 10.5 10.5 0 0 0-5.33 4.555 33.257 33.257 0 0 0-3.97 10.268.082.082 0 0 0 .062.1.082.082 0 0 0 .1-.061 33.061 33.061 0 0 1 3.947-10.214 10.338 10.338 0 0 1 5.243-4.489 6.862 6.862 0 0 1 3.363-.16 10.136 10.136 0 0 1 1.551.542.082.082 0 0 0 .064-.152z" class="cls-24" transform="translate(-492.408 -1968.503)"/>
                                                <path id="패스_2581" d="M558.188 1978.676c-.334-.135-1-.406-1.158-.448a9.847 9.847 0 0 0-2.889-.322c-4.166.161-7.058 3.565-8.962 6.926a.082.082 0 0 0 .033.112.083.083 0 0 0 .113-.031c1.878-3.313 4.717-6.682 8.825-6.841a9.672 9.672 0 0 1 2.839.316c.154.041.811.308 1.14.44a.082.082 0 1 0 .062-.152z" class="cls-24" transform="translate(-492.899 -1968.212)"/>
                                                <path id="패스_2582" d="M559.125 1977.424a7.569 7.569 0 0 0-.924-.532 9.541 9.541 0 0 0-2.149-.765 8.933 8.933 0 0 0-8.607 3.192.082.082 0 0 0 .007.116.081.081 0 0 0 .116-.008 8.776 8.776 0 0 1 8.448-3.139 9.355 9.355 0 0 1 2.112.754 7.41 7.41 0 0 1 .9.521.082.082 0 1 0 .092-.136z" class="cls-24" transform="translate(-493.402 -1967.775)"/>
                                                <path id="패스_2583" d="M560.159 1976.112a11.411 11.411 0 0 0-2.18-1.157c-4.514-1.509-6.5-1-8.638.771a.082.082 0 0 0-.011.116.083.083 0 0 0 .116.011c2.1-1.74 4.05-2.223 8.481-.743a11.21 11.21 0 0 1 2.143 1.14.082.082 0 0 0 .113-.025.082.082 0 0 0-.025-.114z" class="cls-24" transform="translate(-493.823 -1967.356)"/>
                                                <path id="패스_2584" d="M561.174 1974.909a13.028 13.028 0 0 0-2.32-1.666c-2.1-1-5.256-1.745-7.724-.423a.083.083 0 0 0-.033.112.082.082 0 0 0 .111.033c2.421-1.3 5.518-.552 7.576.426a12.857 12.857 0 0 1 2.285 1.644.082.082 0 0 0 .106-.126z" class="cls-24" transform="translate(-494.22 -1966.92)"/>
                                                <path id="패스_2585" d="M562.411 1973.895a27.5 27.5 0 0 0-2.107-1.93 10.529 10.529 0 0 0-6.374-1.8.082.082 0 0 0-.081.083.082.082 0 0 0 .083.082 10.358 10.358 0 0 1 6.273 1.766 27.1 27.1 0 0 1 2.09 1.914.083.083 0 0 0 .116 0 .084.084 0 0 0 0-.117z" class="cls-24" transform="translate(-494.836 -1966.486)"/>
                                                <path id="패스_2586" d="M563.861 1972.745a19.4 19.4 0 0 0-1.613-1.881 17.633 17.633 0 0 0-5.162-3.169.081.081 0 0 0-.106.045.082.082 0 0 0 .045.107 17.463 17.463 0 0 1 5.11 3.137 19.2 19.2 0 0 1 1.6 1.863.083.083 0 0 0 .116.015.082.082 0 0 0 .014-.115z" class="cls-24" transform="translate(-495.533 -1965.933)"/>
                                                <path id="패스_2587" d="M565.543 1971.881a13.516 13.516 0 0 0-5.318-5.424.082.082 0 0 0-.109.039.082.082 0 0 0 .038.109 13.323 13.323 0 0 1 5.242 5.348.081.081 0 0 0 .11.038.082.082 0 0 0 .038-.11z" class="cls-24" transform="translate(-496.233 -1965.656)"/>
                                                <path id="패스_2588" d="M567.457 1971.32a11.675 11.675 0 0 0-.9-1.788 15.535 15.535 0 0 0-3.355-3.768.083.083 0 0 0-.117.008.082.082 0 0 0 .008.116 15.322 15.322 0 0 1 3.32 3.724 11.347 11.347 0 0 1 .889 1.762.083.083 0 0 0 .1.051.082.082 0 0 0 .051-.1z" class="cls-24" transform="translate(-496.893 -1965.499)"/>
                                                <path id="패스_2589" d="M569.38 1970.878c-.134-.38-.4-1.139-.541-1.506a10.783 10.783 0 0 0-2.319-3.921.082.082 0 0 0-.113.12 10.617 10.617 0 0 1 2.278 3.859c.138.367.406 1.125.541 1.5a.082.082 0 0 0 .1.05.083.083 0 0 0 .05-.1z" class="cls-24" transform="translate(-497.633 -1965.428)"/>
                                                <path id="패스_2590" d="M571.106 1970.941c-.03-.393-.089-1.179-.117-1.4a18.036 18.036 0 0 0-.84-3.382.082.082 0 0 0-.1-.05.081.081 0 0 0-.051.1 17.879 17.879 0 0 1 .831 3.349c.028.223.087 1 .117 1.4a.081.081 0 0 0 .088.075.082.082 0 0 0 .076-.088z" class="cls-24" transform="translate(-498.438 -1965.578)"/>
                                                <path id="패스_2591" d="M572.447 1971.112a.089.089 0 0 1 0 .051.083.083 0 0 1-.1.06.08.08 0 0 1-.053-.04.15.15 0 0 1-.016-.061c-.014-.159.021-.93.022-.969 0-.917-.091-2.222-.172-3.134a.082.082 0 1 1 .164-.015c.082.917.176 2.228.172 3.15 0 .037-.036.8-.022.954zm-.031-.037l-.009-.005h-.009zm-.007 0zm0 0z" class="cls-24" transform="translate(-498.917 -1965.763)"/>
                                                <path id="패스_2592" d="M573.867 1971.445c.086-.865.258-2.6.3-3.187a.082.082 0 0 0-.076-.087.082.082 0 0 0-.088.076c-.039.59-.211 2.318-.3 3.182a.082.082 0 1 0 .164.016z" class="cls-24" transform="translate(-499.267 -1966.04)"/>
                                                <path id="패스_2593" d="M575.411 1972.09c.085-.548.155-1.3.224-1.846a.083.083 0 0 0-.164-.021c-.068.548-.138 1.295-.223 1.842a.083.083 0 0 0 .068.094.083.083 0 0 0 .094-.069z" class="cls-24" transform="translate(-499.612 -1966.482)"/>
                                                <path id="패스_2594" d="M576.8 1972.855a11.079 11.079 0 0 0 .253-1.53.081.081 0 0 0-.067-.095.082.082 0 0 0-.095.068 11.015 11.015 0 0 1-.246 1.5.083.083 0 0 0 .048.106.083.083 0 0 0 .106-.05z" class="cls-24" transform="translate(-499.923 -1966.723)"/>
                                                <path id="패스_2595" d="M554.981 1981.522a27.626 27.626 0 0 1 1.361-6.018 11.54 11.54 0 0 1 12.5-7.2c3.194.452 4.933 3.418 5.369 5.614a6.125 6.125 0 0 0-5.362-3.517 10.277 10.277 0 0 0-7.4 2.5 12.951 12.951 0 0 0-3.447 6.434c-.2.851-.233 3.447-.364 3.548-.263.2-2.437-1.257-2.661-1.36z" class="cls-30" transform="translate(-495.085 -1966.041)"/>
                                                <path id="패스_2596" d="M557.566 1985.972a13.388 13.388 0 0 0-1.688-1.031c-1.321-.627-2.936.77-2.2 2.674.536 1.4 3.853 2.6 4.16 2.372.436-.324-.229-3.574-.267-4.015z" class="cls-25" transform="translate(-494.756 -1969.75)"/>
                                                <path id="패스_2597" d="M555.759 1986.491a2.356 2.356 0 0 0-.447-.079 1.3 1.3 0 0 0-1 .246.084.084 0 0 1-.119-.008.085.085 0 0 1 .008-.119 1.482 1.482 0 0 1 1.119-.287 3.6 3.6 0 0 1 2.333 1.371.085.085 0 0 1-.009.119.085.085 0 0 1-.119-.009 3.968 3.968 0 0 0-1.573-1.168h-.007a.092.092 0 0 1-.031.011l-.033.028a1.155 1.155 0 0 0-.313.719 2.262 2.262 0 0 0 .692 1.626.085.085 0 0 1-.009.119.086.086 0 0 1-.12-.009 2.433 2.433 0 0 1-.732-1.753 1.357 1.357 0 0 1 .36-.807zm.09.057l-.007-.008-.005-.009a.087.087 0 0 0 .013.016z" class="cls-27" transform="translate(-494.909 -1970.07)"/>
                                                <path id="패스_2598" d="M555.808 2007.607c-1.784-1.183-5.766-4.687-6.043-6.312-.272-1.584 1.687-6.438 2.768-7.756a12.718 12.718 0 0 1 2.853-.948c.67.464.567 2.518.711 3.283.454 2.4 1.956 5.94 2.651 8.561.228.262.431.542.573.7.692.75 1.343 1.474 2.1 2.159.063.057-.847.961-1.676 1.937-.948 1.114-1.805 2.249-1.835 2.18-.224-.487-.441-.868-.7-1.341-.447-.833-.89-1.663-1.4-2.457z" class="cls-25" transform="translate(-493.919 -1971.49)"/>
                                                <path id="패스_2599" d="M551.8 1996.05c.123-.239 7.25-4.35 7.8-4.783.01-.008.548 1.107.367 1.194-.8.384-7.453 4.548-7.589 4.557-.117.007-.559-.819-.574-.967z" class="cls-28" transform="translate(-494.379 -1971.195)"/>
                                                <path id="패스_2600" d="M561.92 1990.525s1.109-1.788 1.638-2.014 1.272.26 1.533.662.442 1.343.033 1.751a8.113 8.113 0 0 1-2.534.74l-.67-1.139z" class="cls-29" transform="translate(-496.637 -1970.568)"/>
                                                <path id="패스_2601" d="M560.736 1991.728l1.028-.826.743 1.326-1.2.519-.572-1.018z" class="cls-30" transform="translate(-496.373 -1971.114)"/>
                                                <path id="패스_2602" d="M562.314 1990.482l1.767-1.8a.085.085 0 0 0 0-.12.085.085 0 0 0-.12 0l-1.766 1.8a.085.085 0 0 0 0 .12.084.084 0 0 0 .12 0z" class="cls-30" transform="translate(-496.693 -1970.585)"/>
                                                <path id="패스_2603" d="M562.482 1990.791l2.179-1.78a.084.084 0 0 0-.107-.13l-2.179 1.781a.084.084 0 0 0-.012.118.083.083 0 0 0 .119.012z" class="cls-30" transform="translate(-496.732 -1970.658)"/>
                                                <path id="패스_2604" d="M562.66 1991.2l2.469-1.659a.084.084 0 1 0-.095-.14l-2.468 1.658a.084.084 0 1 0 .094.14z" class="cls-30" transform="translate(-496.773 -1970.776)"/>
                                                <path id="패스_2605" d="M562.829 1991.6l2.525-1.408a.085.085 0 0 0 .033-.115.085.085 0 0 0-.115-.033l-2.525 1.409a.085.085 0 1 0 .082.148z" class="cls-30" transform="translate(-496.812 -1970.921)"/>
                                                <path id="패스_2606" d="M563.031 1992.065l2.4-.966a.084.084 0 0 0 .047-.109.085.085 0 0 0-.11-.047l-2.4.966a.084.084 0 0 0-.047.109.085.085 0 0 0 .11.047z" class="cls-30" transform="translate(-496.859 -1971.121)"/>
                                                <path id="패스_2607" d="M558.474 1999.428c.182.59 1 2.457 1.185 3.047a25.825 25.825 0 0 0 1.178 3.542 14.061 14.061 0 0 0 2.487 2.63.084.084 0 1 0 .114-.124 13.875 13.875 0 0 1-2.457-2.594 25.483 25.483 0 0 1-1.159-3.5c-.183-.59-1-2.455-1.185-3.047a.084.084 0 0 0-.106-.055.085.085 0 0 0-.056.105z" class="cls-27" transform="translate(-495.868 -1972.992)"/>
                                                <path id="패스_2608" d="M555.827 2000.692c.041-.269-.233-2.263-.2-2.534l.058-.584c.068-.662.381-2.6 1.5-1.925" class="cls-25" transform="translate(-495.231 -1972.142)"/>
                                                <path id="패스_2609" d="M555.887 2000.682a7.063 7.063 0 0 0-.062-.95c-.066-.652-.159-1.426-.142-1.586.02-.2.038-.39.059-.585a4.059 4.059 0 0 1 .492-1.691.676.676 0 0 1 .365-.285.662.662 0 0 1 .513.115.083.083 0 0 0 .116-.027.084.084 0 0 0-.029-.116.82.82 0 0 0-.643-.134.838.838 0 0 0-.458.351 4.264 4.264 0 0 0-.524 1.771c-.02.194-.038.39-.059.584-.017.164.074.956.142 1.621a6.973 6.973 0 0 1 .064.909.084.084 0 0 0 .167.025z" class="cls-27" transform="translate(-495.207 -1972.118)"/>
                                                <path id="패스_2610" d="M554.443 1994.763a2.043 2.043 0 0 0-.224.591c-.129.345-.263.685-.41 1.022a1.394 1.394 0 0 0-.2.6 4.01 4.01 0 0 0 .317.861.366.366 0 0 1-.079.438 1.437 1.437 0 0 1-.548.209 2.064 2.064 0 0 1-.928.1.785.785 0 0 1-.433-.4 2.123 2.123 0 0 1-.327-1.215c.089-.925 2.133-1.741 2.833-2.208z" class="cls-25" transform="translate(-494.336 -1971.975)"/>
                                                <path id="패스_2611" d="M551.96 1995.889a6.141 6.141 0 0 0-.373 1.185 4.164 4.164 0 0 0 .7 2.293.084.084 0 1 0 .149-.079 4.021 4.021 0 0 1-.684-2.186 5.913 5.913 0 0 1 .36-1.147.085.085 0 0 0-.155-.069z" class="cls-27" transform="translate(-494.327 -1972.215)"/>
                                                <path id="패스_2612" d="M550.631 1999.225c-.022.344-.065 1.033-.061 1.159a1.008 1.008 0 0 0 .245.577c.128.164.292.322.442.491a.084.084 0 0 0 .127-.111c-.148-.169-.309-.323-.435-.485a.848.848 0 0 1-.211-.481c0-.124.04-.8.061-1.141a.084.084 0 0 0-.078-.089.084.084 0 0 0-.09.078z" class="cls-27" transform="translate(-494.104 -1972.953)"/>
                                                <path id="패스_2613" d="M549.947 2001.5c-.016.22-.046.659-.04.784a2.482 2.482 0 0 0 .6 1.236.084.084 0 1 0 .133-.1 2.306 2.306 0 0 1-.562-1.139c0-.123.025-.551.04-.765a.085.085 0 1 0-.169-.011z" class="cls-27" transform="translate(-493.956 -1973.461)"/>
                                                <path id="패스_2614" d="M556.952 1993.621c-.013.019-.1.142-.115.155a3.444 3.444 0 0 1-.488.446 3.025 3.025 0 0 1-1.662.59.084.084 0 0 1-.007-.169 2.848 2.848 0 0 0 1.568-.557 3.245 3.245 0 0 0 .464-.424c.014-.015.1-.14.126-.165a.092.092 0 0 1 .056-.028.085.085 0 0 1 .06.151z" class="cls-27" transform="translate(-495.003 -1971.687)"/>
                                                <path id="패스_2615" d="M554.815 1995.106a4.434 4.434 0 0 0-.36.8c-.075.187-.208.426-.306.66a1.473 1.473 0 0 0-.127.481.333.333 0 0 0 .051.168 3.471 3.471 0 0 0 .213.285c.23.33.577.952.8 1.285a.085.085 0 0 0 .141-.095c-.225-.333-.575-.956-.8-1.286-.036-.051-.12-.143-.18-.233a.238.238 0 0 1-.054-.116 1.313 1.313 0 0 1 .114-.423c.1-.236.232-.475.308-.663a4.187 4.187 0 0 1 .345-.77.085.085 0 0 0-.024-.117.084.084 0 0 0-.117.024z" class="cls-27" transform="translate(-494.874 -1972.044)"/>
                                                <path id="패스_2616" d="M546.111 2005.992a.108.108 0 0 1-.016-.023.112.112 0 0 1-.012-.055.08.08 0 0 1 .025-.051.083.083 0 0 1 .057-.025.081.081 0 0 1 .074.039c.03.043.371.672.421.768.307.587.6 1.182.88 1.781a30.552 30.552 0 0 1 1.918 5.324.085.085 0 0 1-.061.1.084.084 0 0 1-.1-.061 30.4 30.4 0 0 0-1.907-5.3c-.28-.6-.572-1.19-.878-1.774-.043-.084-.34-.624-.4-.731z" class="cls-31" transform="translate(-493.103 -1974.447)"/>
                                                <path id="패스_2617" d="M548.626 2008.041a.083.083 0 0 1-.046-.075.143.143 0 0 1 .019-.08.083.083 0 0 1 .06-.038.085.085 0 0 1 .088.04.586.586 0 0 1 .049.129c.037.121.083.312.11.4.148.483.286.968.41 1.457.308 1.214.585 2.439.807 3.673.655 3.639 1.116 10.572 1.5 14.245a.085.085 0 0 1-.075.093.084.084 0 0 1-.092-.075c-.388-3.669-.848-10.6-1.5-14.234-.221-1.229-.5-2.45-.8-3.66-.123-.488-.262-.969-.408-1.45-.027-.089-.075-.281-.11-.4l-.007-.023z" class="cls-31" transform="translate(-493.66 -1974.896)"/>
                                                <path id="패스_2618" d="M546.067 2034.814c.881-.2 2.379-.548 3.448-.669a3.2 3.2 0 0 1 1.025-.005 2.844 2.844 0 0 1 1.3.9c2.908 3.112 5.138 6.959 7.736 10.33a.084.084 0 0 0 .134-.1c-2.6-3.376-4.835-7.227-7.747-10.343a3.005 3.005 0 0 0-1.376-.945 3.363 3.363 0 0 0-1.088 0c-1.074.122-2.581.468-3.467.672a.085.085 0 0 0 .038.165z" class="cls-31" transform="translate(-493.076 -1980.717)"/>
                                                <path id="패스_2619" d="M562.822 2011.53a1.281 1.281 0 0 0-.118.094c-.1.09-.238.231-.406.412a56.269 56.269 0 0 0-5.024 6.41c-.428.736-.822 1.486-1.21 2.243-.164.319-.331.637-.475.965a.084.084 0 0 1-.111.043.085.085 0 0 1-.043-.112c.146-.331.315-.652.479-.973.389-.76.785-1.513 1.214-2.252a56.68 56.68 0 0 1 5.045-6.44 4.288 4.288 0 0 1 .544-.527.171.171 0 0 1 .1-.035 1.265 1.265 0 0 1 .414.164 15.77 15.77 0 0 1 1.723 1.191c2.372 1.812 5.872 4.916 6.362 5.767a.084.084 0 1 1-.146.083c-.486-.844-3.964-3.918-6.319-5.717a15.508 15.508 0 0 0-1.7-1.177 1.208 1.208 0 0 0-.333-.141z" class="cls-31" transform="translate(-495.188 -1975.679)"/>
                                                <path id="패스_2620" d="M571.146 2013.545l.125-.159c.742-.936 4.541-5.7 6.044-7.057a.084.084 0 0 1 .113.125c-1.5 1.353-5.285 6.1-6.023 7.036l-.126.158c-.038.047-.074.02-.1-.019-.038-.015-.065-.04-.036-.082z" class="cls-31" transform="translate(-498.693 -1974.552)"/>
                                                <path id="패스_2621" d="M573.692 2010.443a.086.086 0 0 1-.15.082.159.159 0 0 1-.021-.1.675.675 0 0 1 .085-.237 30.18 30.18 0 0 1 2.659-3.491.085.085 0 0 1 .13.108 39.216 39.216 0 0 0-2.511 3.239 1.829 1.829 0 0 0-.181.343.3.3 0 0 0-.012.053z" class="cls-31" transform="translate(-499.226 -1974.633)"/>
                                                <path id="패스_2622" d="M555.8 2025.256c.948.534 4.131 1.971 4.989 2.641 1.067.833 2.738 2.686 4.334 4.136a8.224 8.224 0 0 0 2.926 1.97.991.991 0 0 0 .66-.166 7.361 7.361 0 0 0 1.335-1.058 51.151 51.151 0 0 0 5.066-5.979.085.085 0 0 0-.14-.1 50.775 50.775 0 0 1-5.043 5.951 7.142 7.142 0 0 1-1.3 1.033.828.828 0 0 1-.538.15 8.039 8.039 0 0 1-2.853-1.93c-1.6-1.454-3.274-3.308-4.344-4.144-.861-.673-4.057-2.118-5.009-2.654a.084.084 0 0 0-.115.032.085.085 0 0 0 .033.115z" class="cls-31" transform="translate(-495.261 -1978.746)"/>
                                                <path id="패스_2623" d="M488.935 2046.944h117.5l11.054 24.1v3.2H477.881v-3.2l11.055-24.1z" class="cls-29" transform="translate(-477.881 -1983.622)"/>
                                                <path id="패스_2624" d="M478.4 2078.079l138.418.219a.107.107 0 1 0 0-.207l-138.418-.218a.122.122 0 0 0-.134.1.12.12 0 0 0 .134.1z" class="cls-28" transform="translate(-477.968 -1990.524)"/>
                                                <path id="패스_2625" d="M621.744 1999.581c-11.15 0-25.65 11.891-32.366 26.538s-3.112 26.538 8.036 26.538 25.65-11.891 32.366-26.538 3.112-26.538-8.036-26.538z" class="cls-32" transform="translate(-502.011 -1973.051)"/>
                                                <path id="패스_2626" d="M621.354 1998.139c-4.67 0-9.919 1.955-14.967 5.327a54.431 54.431 0 0 0-18.476 21.864c-3.486 7.607-4.239 14.505-2.728 19.495 1.617 5.34 5.729 8.63 11.926 8.63 4.671 0 9.92-1.955 14.967-5.328a54.42 54.42 0 0 0 18.477-21.863c3.486-7.607 4.239-14.505 2.728-19.495-1.617-5.339-5.729-8.63-11.927-8.63zm.085 2.241c4.952 0 8.214 2.655 9.507 6.922 1.4 4.619.594 10.988-2.633 18.028a52.176 52.176 0 0 1-17.7 20.966c-4.592 3.068-9.336 4.918-13.584 4.918-4.951 0-8.214-2.656-9.507-6.922-1.4-4.62-.594-10.988 2.633-18.028a52.181 52.181 0 0 1 17.7-20.966c4.593-3.068 9.337-4.918 13.584-4.918z" class="cls-24" transform="translate(-501.664 -1972.729)"/>
                                                <path id="패스_2627" fill="#89bfc1" fill-rule="evenodd" d="M524.911 2045.461a12 12 0 0 1-1.111 1.93c-2.946 4.89-7.222 16.586-9.061 22.02-.675 2-.649 13.157-.1 17.361.276 2.1 8.358.857 10.262.879 3.823.045 7.4 1.611 11.187 1.759 2.392.093 4.5-.74 6.8-1.221 1.236-.26 2.789-.085 3.953-.561.933-.381 1.51-16.01 1.654-17.062 1-7.32 2.671-16.085 4.5-24.418.16-.727-20.495-.447-28.087-.686z" transform="translate(-485.994 -1983.291)"/>
                                                <path id="패스_2628" d="M527.936 2048.909s-.276-1.648 3.636-1.8c3.862-.155 4.206 1.524 4.206 1.524s-.4 6.112-.936 6.9c-.816 1.2-4.525 1.086-5.484.215-.772-.7-1.422-6.833-1.422-6.833z" class="cls-29" transform="translate(-489.052 -1983.655)"/>
                                                <path id="패스_2629" d="M528.485 2048.724a.554.554 0 0 1 .163-.368 1.654 1.654 0 0 1 .488-.349 7.885 7.885 0 0 1 5.734 0 1.644 1.644 0 0 1 .488.349.554.554 0 0 1 .163.368.082.082 0 0 0 .165 0c0-.319-.267-.625-.74-.864a8.045 8.045 0 0 0-5.884 0c-.472.239-.74.544-.74.864a.082.082 0 0 0 .082.082.082.082 0 0 0 .082-.082z" class="cls-34" transform="translate(-489.139 -1983.701)"/>
                                                <path id="패스_2630" d="M531.205 2052.224c-.2-.183-2.237-8.154-2.506-8.8 0-.011 1.213-.229 1.248-.033.155.872 2.372 8.4 2.344 8.537a2.541 2.541 0 0 1-1.086.292z" class="cls-28" transform="translate(-489.223 -1982.811)"/>
                                                <path id="패스_2631" d="M528.146 2042.343a8.274 8.274 0 0 1-1.5-2.119c-.072-.555.593-1.156 1.05-1.3s1.413-.064 1.7.441a8.147 8.147 0 0 1 .03 2.64l-1.278.338z" class="cls-29" transform="translate(-488.764 -1981.818)"/>
                                                <path id="패스_2632" d="M528.926 2044.262l-.52-1.213 1.477-.36.176 1.3-1.135.277z" class="cls-30" transform="translate(-489.158 -1982.672)"/>
                                                <path id="패스_2633" d="M528.213 2042.263l-1.261-2.188a.085.085 0 0 0-.115-.033.085.085 0 0 0-.031.116l1.262 2.188a.085.085 0 0 0 .148-.084z" class="cls-30" transform="translate(-488.798 -1982.079)"/>
                                                <path id="패스_2634" d="M528.589 2042.07l-1.128-2.578a.085.085 0 0 0-.155.068l1.129 2.578a.084.084 0 0 0 .111.043.084.084 0 0 0 .044-.111z" class="cls-30" transform="translate(-488.91 -1981.947)"/>
                                                <path id="패스_2635" d="M529.055 2041.93l-.932-2.824a.085.085 0 0 0-.106-.054.085.085 0 0 0-.054.107l.931 2.824a.084.084 0 0 0 .106.053.085.085 0 0 0 .054-.106z" class="cls-30" transform="translate(-489.058 -1981.859)"/>
                                                <path id="패스_2636" d="M529.49 2041.858l-.675-2.811a.085.085 0 0 0-.165.04l.675 2.811a.085.085 0 0 0 .1.062.085.085 0 0 0 .063-.1z" class="cls-30" transform="translate(-489.212 -1981.845)"/>
                                                <path id="패스_2637" d="M529.979 2041.823l-.283-2.572a.084.084 0 0 0-.168.018l.283 2.571a.084.084 0 1 0 .168-.018z" class="cls-30" transform="translate(-489.408 -1981.888)"/>
                                                <path id="패스_2638" d="M528.526 2043.807a1.709 1.709 0 0 1 .622 1.313 2.718 2.718 0 0 1-.068 1.357 1.678 1.678 0 0 1-.262.452 1.91 1.91 0 0 0-.2.328 1.15 1.15 0 0 0-.03.782c.566 1.8 1.027 3.262 1.612 5a.208.208 0 0 0 .262.131.208.208 0 0 0 .131-.262c-.585-1.736-1.046-3.2-1.61-4.992a.7.7 0 0 1 .009-.479 6.582 6.582 0 0 0 .479-.811 3.149 3.149 0 0 0 .089-1.572 2.1 2.1 0 0 0-.809-1.593.207.207 0 0 0-.22.35z" class="cls-24" transform="translate(-489.163 -1982.837)"/>
                                                <path id="패스_2639" d="M528.2 2043.8a1.8 1.8 0 0 0-1.422.2 2 2 0 0 0-.257 1.384 1.888 1.888 0 0 0 .725 1.468 1.555 1.555 0 0 0 1.523-.291 2.255 2.255 0 0 0 .065-1.48c-.077-.5-.265-1.134-.636-1.28z" class="cls-35" transform="translate(-488.732 -1982.905)"/>
                                                <path id="패스_2640" d="M536.021 2052.141c-.138-.229.123-8.455.045-9.148 0-.012 1.229.117 1.208.318-.094.881-.063 8.731-.128 8.852a2.545 2.545 0 0 1-1.125-.022z" class="cls-24" transform="translate(-490.848 -1982.74)"/>
                                                <path id="패스_2641" d="M535.576 2042s-1.577-1.7-1.5-2.193 1.269-.723 1.985-.761a2.863 2.863 0 0 1 2.369.757c.157.474-1.536 2.228-1.536 2.228l-1.322-.033z" class="cls-36" transform="translate(-490.423 -1981.857)"/>
                                                <path id="패스_2642" d="M536.934 2041.708l.029-2.49a.087.087 0 0 0-.085-.088.087.087 0 0 0-.087.086l-.03 2.49a.087.087 0 0 0 .173 0z" class="cls-37" transform="translate(-491.022 -1981.878)"/>
                                                <path id="패스_2643" d="M536.491 2041.718l-.259-2.477a.087.087 0 1 0-.172.018l.259 2.477a.086.086 0 0 0 .172-.018z" class="cls-37" transform="translate(-490.866 -1981.885)"/>
                                                <path id="패스_2644" d="M537.385 2041.72l.259-2.477a.086.086 0 0 0-.077-.095.088.088 0 0 0-.1.077l-.259 2.477a.087.087 0 0 0 .077.1.086.086 0 0 0 .095-.077z" class="cls-37" transform="translate(-491.123 -1981.882)"/>
                                                <path id="패스_2645" d="M535.97 2041.754l-.583-2.333a.087.087 0 0 0-.169.043l.583 2.333a.087.087 0 0 0 .169-.043z" class="cls-37" transform="translate(-490.677 -1981.928)"/>
                                                <path id="패스_2646" d="M537.809 2041.778l.583-2.332a.087.087 0 0 0-.063-.106.086.086 0 0 0-.1.063l-.583 2.333a.087.087 0 0 0 .169.042z" class="cls-37" transform="translate(-491.218 -1981.924)"/>
                                                <path id="패스_2647" d="M535.414 2041.447l-.8-1.749a.087.087 0 0 0-.114-.043.088.088 0 0 0-.043.115l.8 1.749a.086.086 0 0 0 .114.043.087.087 0 0 0 .044-.114z" class="cls-37" transform="translate(-490.507 -1981.993)"/>
                                                <path id="패스_2648" d="M538.293 2041.5l.8-1.749a.086.086 0 0 0-.043-.114.087.087 0 0 0-.115.043l-.8 1.749a.088.088 0 0 0 .043.115.086.086 0 0 0 .114-.043z" class="cls-37" transform="translate(-491.327 -1981.99)"/>
                                                <path id="패스_2649" d="M536.037 2043.934l-.226-1.275 1.624.041-.232 1.285-1.166-.051z" class="cls-30" transform="translate(-490.81 -1982.665)"/>
                                                <path id="패스_2650" d="M534.625 2051.991c-.126-.193-.167-7.251-.257-7.842 0-.011 1.057.061 1.045.232-.052.758.23 7.487.177 7.592a2.181 2.181 0 0 1-.965.018z" class="cls-28" transform="translate(-490.488 -1982.997)"/>
                                                <path id="패스_2651" d="M534.21 2043.545l-.28-1.679 1.49.406-.076 1.258-1.133.016z" class="cls-29" transform="translate(-490.39 -1982.488)"/>
                                                <path id="패스_2652" d="M534.368 2044.948l-.18-1.117 1.3.009-.122 1.114-1-.005z" class="cls-30" transform="translate(-490.448 -1982.927)"/>
                                                <path id="패스_2653" d="M533.151 2049.313c-.065-.092-.725-10.38-.783-10.672 0 0 .527.006.524.092-.009.377.76 10.5.737 10.549a1.084 1.084 0 0 1-.479.031z" class="cls-28" transform="translate(-490.042 -1981.769)"/>
                                                <path id="패스_2654" d="M532.2 2038.162a3.508 3.508 0 0 1-.448-1.012c.016-.238.345-.433.548-.454s.6.092.672.328a3.5 3.5 0 0 1-.21 1.105l-.562.033z" class="cls-28" transform="translate(-489.904 -1981.334)"/>
                                                <path id="패스_2655" d="M532.434 2036.8l.082 1.179a.087.087 0 0 0 .092.08.086.086 0 0 0 .081-.092l-.083-1.179a.087.087 0 0 0-.092-.08.086.086 0 0 0-.08.092z" class="cls-36" transform="translate(-490.056 -1981.337)"/>
                                                <path id="패스_2656" d="M531.937 2037.085l.255.981a.087.087 0 0 0 .106.061.086.086 0 0 0 .062-.106l-.255-.98a.087.087 0 0 0-.106-.062.086.086 0 0 0-.061.106z" class="cls-36" transform="translate(-489.945 -1981.397)"/>
                                                <path id="패스_2657" d="M532.9 2036.957l-.072 1.029a.086.086 0 0 0 .08.092.086.086 0 0 0 .092-.078l.073-1.029a.086.086 0 0 0-.172-.012z" class="cls-36" transform="translate(-490.144 -1981.375)"/>
                                                <path id="패스_2658" d="M532.386 2039.031l-.115-.55.648-.026-.035.557-.5.021z" class="cls-30" transform="translate(-490.02 -1981.727)"/>
                                                <path id="패스_2659" d="M532.454 2049.576c-.074-.087-1.531-10.293-1.612-10.579 0 0 .524-.035.53.05.021.377 1.576 10.4 1.557 10.46a1.1 1.1 0 0 1-.475.068z" class="cls-32" transform="translate(-489.701 -1981.846)"/>
                                                <path id="패스_2660" d="M530.742 2038.7l-.176-.82.721.124.041.631-.585.065z" class="cls-28" transform="translate(-489.64 -1981.598)"/>
                                                <path id="패스_2661" d="M530.9 2039.372l-.134-.545.612-.072.016.559-.494.059z" class="cls-30" transform="translate(-489.684 -1981.794)"/>
                                                <path id="패스_2662" d="M536.432 2053.039c.074-.087 1.531-10.293 1.612-10.579 0 0-.524-.035-.53.051-.021.377-1.575 10.4-1.556 10.46a1.1 1.1 0 0 0 .474.068z" class="cls-29" transform="translate(-490.843 -1982.619)"/>
                                                <path id="패스_2663" d="M538.525 2042.16l.175-.82-.721.124-.042.63.586.066z" class="cls-28" transform="translate(-491.285 -1982.371)"/>
                                                <path id="패스_2664" d="M538.407 2042.835l.134-.545-.612-.073-.016.559.493.059z" class="cls-30" transform="translate(-491.279 -1982.567)"/>
                                                <path id="패스_2665" d="M527.937 2049.35a8.206 8.206 0 0 0 3.956 1.164c2.845.073 3.886-1.445 3.886-1.445s-.4 6.111-.936 6.9c-.816 1.2-4.525 1.086-5.484.216-.772-.7-1.422-6.833-1.422-6.833z" class="cls-29" transform="translate(-489.053 -1984.096)"/>
                                                <path id="패스_2666" d="M535.519 2049.111a.558.558 0 0 1-.164.368 1.668 1.668 0 0 1-.487.35 7.9 7.9 0 0 1-5.735 0 1.656 1.656 0 0 1-.487-.35.554.554 0 0 1-.164-.368.082.082 0 0 0-.165 0c0 .32.268.625.74.865a8.048 8.048 0 0 0 5.884 0c.472-.24.74-.545.74-.865a.082.082 0 0 0-.165 0z" class="cls-34" transform="translate(-489.138 -1984.087)"/>
                                                <path id="패스_2667" d="M530.817 2062.168a3.7 3.7 0 0 1-.008-2.377c.884-1.52 5.456-1.385 6.852-.418.729.5.482 2.264.224 2.585-.343.429-1.835.813-3.489.878a7.05 7.05 0 0 1-3.58-.669z" class="cls-35" transform="translate(-489.651 -1986.234)"/>
                                                <path id="패스_2668" d="M532.123 2060.949a.215.215 0 0 0 .134-.187.21.21 0 0 0-.138-.187 1.166 1.166 0 0 0-.631-.076c-.065.016-.091.05-.1.085a.14.14 0 0 0 .046.11 1.044 1.044 0 0 0 .393.227.532.532 0 0 0 .286.032h.009zm-.039-.087a.123.123 0 0 0 .078-.1c0-.04-.03-.076-.084-.1a1.05 1.05 0 0 0-.569-.071l-.023.009.006.012a.2.2 0 0 0 .023.028.5.5 0 0 0 .047.04 1.116 1.116 0 0 0 .336.164.4.4 0 0 0 .186.019z" class="cls-34" transform="translate(-489.824 -1986.644)"/>
                                                <path id="패스_2669" d="M537.5 2062.442a.215.215 0 0 0-.047.226.211.211 0 0 0 .2.114 1.164 1.164 0 0 0 .607-.184.108.108 0 0 0 .054-.116.144.144 0 0 0-.086-.083 1.05 1.05 0 0 0-.449-.049.535.535 0 0 0-.274.086zm.721.063l-.01-.008a.138.138 0 0 0-.033-.016.4.4 0 0 0-.058-.017 1.1 1.1 0 0 0-.374-.015.393.393 0 0 0-.178.057.123.123 0 0 0-.03.124.118.118 0 0 0 .116.057 1.053 1.053 0 0 0 .549-.164.117.117 0 0 0 .018-.018z" class="cls-34" transform="translate(-491.174 -1987.058)"/>
                                                <path id="패스_2670" d="M534.49 2062.925a.215.215 0 0 0-.047.226.209.209 0 0 0 .2.114 1.159 1.159 0 0 0 .608-.183.111.111 0 0 0 .054-.117.142.142 0 0 0-.086-.082 1.028 1.028 0 0 0-.449-.05.529.529 0 0 0-.274.086l-.006.006zm.721.064l-.01-.009a.164.164 0 0 0-.033-.016.315.315 0 0 0-.058-.018 1.1 1.1 0 0 0-.374-.015.391.391 0 0 0-.177.058.122.122 0 0 0-.031.123.12.12 0 0 0 .116.058 1.057 1.057 0 0 0 .549-.163.143.143 0 0 0 .017-.018z" class="cls-34" transform="translate(-490.502 -1987.166)"/>
                                                <path id="패스_2671" d="M535.562 2059.284a.218.218 0 0 0-.047.226.211.211 0 0 0 .2.114 1.164 1.164 0 0 0 .608-.184.109.109 0 0 0 .054-.116.14.14 0 0 0-.086-.082 1.024 1.024 0 0 0-.449-.05.528.528 0 0 0-.274.086zm.721.063l-.01-.008a.155.155 0 0 0-.033-.016.356.356 0 0 0-.058-.018 1.1 1.1 0 0 0-.374-.015.39.39 0 0 0-.177.058.123.123 0 0 0-.031.124.12.12 0 0 0 .117.057 1.06 1.06 0 0 0 .549-.164.091.091 0 0 0 .017-.018z" class="cls-34" transform="translate(-490.741 -1986.354)"/>
                                                <path id="패스_2672" d="M533.229 2061.708l-.006.011a.257.257 0 0 0 .01.19.245.245 0 0 0 .135.134.407.407 0 0 0 .226.008.251.251 0 0 0 .127-.074.1.1 0 0 0 .016-.106.288.288 0 0 0-.11-.115.583.583 0 0 0-.289-.1.133.133 0 0 0-.108.048zm.079.053a.169.169 0 0 0 .012.11.152.152 0 0 0 .08.083.3.3 0 0 0 .17 0 .156.156 0 0 0 .079-.043v-.017a.232.232 0 0 0-.07-.063.528.528 0 0 0-.207-.08.2.2 0 0 0-.048 0h-.011z" class="cls-34" transform="translate(-490.23 -1986.906)"/>
                                                <path id="패스_2673" d="M535.1 2062.017l-.006.011a.257.257 0 0 0 .011.19.244.244 0 0 0 .135.134.4.4 0 0 0 .226.007.248.248 0 0 0 .127-.073.1.1 0 0 0 .016-.107.284.284 0 0 0-.11-.114.577.577 0 0 0-.29-.1.129.129 0 0 0-.107.047zm.08.054a.163.163 0 0 0 .011.11.149.149 0 0 0 .08.082.3.3 0 0 0 .17.006.166.166 0 0 0 .079-.043v-.017a.235.235 0 0 0-.07-.063.529.529 0 0 0-.208-.08.166.166 0 0 0-.047 0h-.011z" class="cls-34" transform="translate(-490.647 -1986.975)"/>
                                                <path id="패스_2674" d="M531.1 2062.684l-.006.012a.261.261 0 0 0 .01.19.243.243 0 0 0 .136.134.4.4 0 0 0 .225.007.247.247 0 0 0 .127-.073.1.1 0 0 0 .016-.107.289.289 0 0 0-.111-.114.573.573 0 0 0-.289-.1.135.135 0 0 0-.108.047zm.08.054a.161.161 0 0 0 .011.109.147.147 0 0 0 .08.083.3.3 0 0 0 .17.005.155.155 0 0 0 .079-.043v-.017a.227.227 0 0 0-.07-.063.517.517 0 0 0-.207-.079.119.119 0 0 0-.047 0h-.011z" class="cls-34" transform="translate(-489.755 -1987.124)"/>
                                                <path id="패스_2675" d="M532.953 2059.011l-.006.012a.257.257 0 0 0 .01.19.246.246 0 0 0 .135.134.4.4 0 0 0 .226.007.25.25 0 0 0 .127-.073.1.1 0 0 0 .016-.107.289.289 0 0 0-.111-.115.575.575 0 0 0-.289-.1.133.133 0 0 0-.108.047zm.08.054a.164.164 0 0 0 .011.11.15.15 0 0 0 .08.083.306.306 0 0 0 .17.005.16.16 0 0 0 .079-.043v-.017a.233.233 0 0 0-.071-.063.521.521 0 0 0-.207-.08.129.129 0 0 0-.047 0h-.011z" class="cls-34" transform="translate(-490.168 -1986.304)"/>
                                                <path id="패스_2676" d="M539.313 2059.692l-.006.012a.257.257 0 0 0 .01.19.244.244 0 0 0 .135.134.4.4 0 0 0 .226.008.247.247 0 0 0 .127-.073.1.1 0 0 0 .016-.107.285.285 0 0 0-.111-.114.583.583 0 0 0-.289-.1.136.136 0 0 0-.108.047zm.079.053a.166.166 0 0 0 .012.11.148.148 0 0 0 .08.083.308.308 0 0 0 .17.005.156.156 0 0 0 .079-.043v-.017a.222.222 0 0 0-.07-.063.525.525 0 0 0-.207-.08.154.154 0 0 0-.047 0h-.012z" class="cls-34" transform="translate(-491.587 -1986.456)"/>
                                                <path id="패스_2677" d="M536.38 2059.712l-.006.011a.257.257 0 0 0 .01.19.245.245 0 0 0 .135.134.4.4 0 0 0 .226.007.243.243 0 0 0 .127-.073.1.1 0 0 0 .016-.107.293.293 0 0 0-.111-.114.585.585 0 0 0-.289-.1.134.134 0 0 0-.108.048zm.079.053a.169.169 0 0 0 .012.11.149.149 0 0 0 .08.082.3.3 0 0 0 .17.005.151.151 0 0 0 .079-.043v-.017a.237.237 0 0 0-.07-.063.524.524 0 0 0-.207-.079.154.154 0 0 0-.047 0h-.011z" class="cls-34" transform="translate(-490.933 -1986.461)"/>
                                                <path id="패스_2678" d="M539.12 2062.365l-.006.012a.256.256 0 0 0 .011.19.24.24 0 0 0 .135.134.4.4 0 0 0 .226.008.245.245 0 0 0 .127-.073.1.1 0 0 0 .016-.107.281.281 0 0 0-.11-.114.575.575 0 0 0-.29-.1.135.135 0 0 0-.107.047zm.08.054a.161.161 0 0 0 .011.11.146.146 0 0 0 .08.083.3.3 0 0 0 .17.005.155.155 0 0 0 .079-.043v-.017a.235.235 0 0 0-.07-.063.538.538 0 0 0-.208-.079.166.166 0 0 0-.047 0h-.012z" class="cls-34" transform="translate(-491.544 -1987.053)"/>
                                                <path id="패스_2679" d="M534.278 2061.57a.047.047 0 1 0-.093-.016.048.048 0 0 0 .039.055.048.048 0 0 0 .055-.038z" class="cls-34" transform="translate(-490.447 -1986.873)"/>
                                                <path id="패스_2680" d="M532.8 2060.775a.047.047 0 1 1 0-.095.048.048 0 0 1 .043.052.047.047 0 0 1-.051.042zm0 0" class="cls-34" transform="translate(-490.129 -1986.687)"/>
                                                <path id="패스_2681" d="M532.153 2062.264a.047.047 0 0 0 .028-.061.047.047 0 0 0-.061-.028.048.048 0 0 0-.028.061.047.047 0 0 0 .061.027z" class="cls-34" transform="translate(-489.979 -1987.02)"/>
                                                <path id="패스_2682" d="M531.3 2059.972a.048.048 0 0 1-.086-.04.051.051 0 0 1 .013-.019.047.047 0 0 1 .072.058z" class="cls-34" transform="translate(-489.784 -1986.514)"/>
                                                <path id="패스_2683" d="M535.342 2059.054a.048.048 0 0 1-.089.021.046.046 0 0 1-.007-.024.044.044 0 0 1 0-.02.048.048 0 0 1 .091.023zm0 0v.009zm0-.028v.014a.031.031 0 0 0-.004-.01z" class="cls-34" transform="translate(-490.684 -1986.313)"/>
                                                <path id="패스_2684" d="M538.471 2059.68a.048.048 0 0 0-.027.062.047.047 0 0 0 .061.027h.006a.048.048 0 0 0-.038-.087z" class="cls-34" transform="translate(-491.397 -1986.463)"/>
                                                <path id="패스_2685" d="M539.537 2061.4a.048.048 0 0 0 0 .068.047.047 0 0 0 .065 0 .047.047 0 0 0 0-.066.048.048 0 0 0-.066 0z" class="cls-34" transform="translate(-491.639 -1986.845)"/>
                                                <path id="패스_2686" d="M537.055 2061.834a.047.047 0 0 0 .022-.064.048.048 0 0 0-.064-.022.046.046 0 0 0-.022.063.047.047 0 0 0 .064.022z" class="cls-34" transform="translate(-491.073 -1986.924)"/>
                                                <path id="패스_2687" d="M536.752 2063.4a.045.045 0 0 1 .033.005l.009.006a.047.047 0 0 1 .005.066.044.044 0 0 1-.043.016.109.109 0 0 1-.033-.02.047.047 0 0 1 0-.065.055.055 0 0 1 .014-.009h.008zm.011 0h-.019a.052.052 0 0 0-.017.014.048.048 0 0 1 .037-.017z" class="cls-34" transform="translate(-491.012 -1987.294)"/>
                                                <path id="패스_2688" d="M534.286 2063.723a.047.047 0 0 0 .064.02.047.047 0 0 0 .021-.063.048.048 0 0 0-.064-.021.047.047 0 0 0-.02.064z" class="cls-34" transform="translate(-490.469 -1987.35)"/>
                                                <path id="패스_2689" d="M534.85 2059.354a.046.046 0 0 0 .07.061.046.046 0 1 0-.07-.061z" class="cls-34" transform="translate(-490.593 -1986.388)"/>
                                                <path id="패스_2690" d="M538.979 2063.226a.047.047 0 0 1-.084-.018c0-.012.017-.049.017-.049l-.009.009a.048.048 0 0 1 .066-.011.049.049 0 0 1 .01.066z" class="cls-34" transform="translate(-491.498 -1987.238)"/>
                                                <path id="패스_2691" d="M537.682 2060.646a.047.047 0 0 1-.043-.083.044.044 0 0 1 .027-.01.048.048 0 0 1 .022.092h-.006zm.006 0h.008l-.012.006h-.011.013z" class="cls-34" transform="translate(-491.214 -1986.659)"/>
                                                <path id="패스_2692" d="M535.375 2061.334a.046.046 0 0 1-.048.012.047.047 0 0 1-.03-.06.04.04 0 0 1 .02-.026.047.047 0 0 1 .065.014.05.05 0 0 1 0 .047.03.03 0 0 1-.01.014zm.01-.014v.009a.041.041 0 0 1-.014.015l.007-.005.007-.009z" class="cls-34" transform="translate(-490.695 -1986.815)"/>
                                                <path id="패스_2693" d="M532.481 2059.721a.047.047 0 0 0 .047.047.048.048 0 0 0 .047-.047.049.049 0 0 0-.047-.048.047.047 0 0 0-.047.047z" class="cls-34" transform="translate(-490.067 -1986.463)"/>
                                                <path id="패스_2694" d="M531.156 2062.3a.046.046 0 0 1 .046-.02.047.047 0 0 1 .04.053.035.035 0 0 1-.012.026.047.047 0 0 1-.079-.045.025.025 0 0 1 .007-.014zm0 .006l.006-.01v.02-.014z" class="cls-34" transform="translate(-489.77 -1987.045)"/>
                                                <path id="패스_2695" d="M532.955 2063.492a.055.055 0 0 1 0-.016.048.048 0 0 1 .048-.047.038.038 0 0 1 .033.015.182.182 0 0 1 .013.036v-.005a.048.048 0 0 1-.042.05h-.013a.038.038 0 0 1-.025-.012.043.043 0 0 1-.011-.016zm.012.018a.041.041 0 0 0 .025.012.047.047 0 0 1-.031-.013z" class="cls-34" transform="translate(-490.172 -1987.301)"/>
                                                <path id="패스_2696" d="M534.285 2060.637a.047.047 0 0 1-.086-.034.029.029 0 0 1 .009-.02.047.047 0 0 1 .085.04.031.031 0 0 1-.006.014zm.006-.013v-.005.017-.014z" class="cls-34" transform="translate(-490.45 -1986.661)"/>
                                                <path id="패스_2697" d="M537.637 2059.231a.047.047 0 1 0-.058.073.048.048 0 0 0 .066-.008.048.048 0 0 0-.008-.065z" class="cls-34" transform="translate(-491.201 -1986.362)"/>
                                                <path id="패스_2698" d="M531.124 2061.493a.2.2 0 0 1-.14-.075.388.388 0 0 1-.09-.231.182.182 0 0 1 .059-.147.159.159 0 0 1 .117-.03.321.321 0 0 1 .159.065c.039.03.078.057.119.082a.885.885 0 0 0 .164.053.29.29 0 0 1 .173.116.125.125 0 0 1 .018.116.131.131 0 0 1-.082.069 1.228 1.228 0 0 1-.5-.018zm.02-.093h-.014a.093.093 0 0 1-.061-.029.276.276 0 0 1-.073-.135.2.2 0 0 1 0-.08.061.061 0 0 1 .023-.041.073.073 0 0 1 .048-.009.238.238 0 0 1 .113.048 1.424 1.424 0 0 0 .127.088 1.061 1.061 0 0 0 .18.061.194.194 0 0 1 .12.074.093.093 0 0 1 .011.023v.009a.03.03 0 0 1-.019.011.223.223 0 0 1-.059.015 1.313 1.313 0 0 1-.393-.033z" class="cls-34" transform="translate(-489.713 -1986.76)"/>
                                                <path id="패스_2699" d="M532.575 2062.12a.2.2 0 0 1-.06-.145.379.379 0 0 1 .078-.236.178.178 0 0 1 .139-.076.157.157 0 0 1 .109.051.322.322 0 0 1 .082.151c.011.047.024.093.04.139a.873.873 0 0 0 .092.144.284.284 0 0 1 .059.2.122.122 0 0 1-.06.1.127.127 0 0 1-.106 0 1.212 1.212 0 0 1-.372-.327zm.075-.058l-.009-.011a.089.089 0 0 1-.03-.062.274.274 0 0 1 .03-.151.187.187 0 0 1 .047-.065.063.063 0 0 1 .044-.018.07.07 0 0 1 .043.023.226.226 0 0 1 .057.109 1.546 1.546 0 0 0 .043.149 1.019 1.019 0 0 0 .1.161.2.2 0 0 1 .045.134.13.13 0 0 1-.006.024l-.005.007a.031.031 0 0 1-.022 0 .235.235 0 0 1-.055-.027 1.285 1.285 0 0 1-.281-.273z" class="cls-34" transform="translate(-490.075 -1986.906)"/>
                                                <path id="패스_2700" d="M535.343 2060.367a.2.2 0 0 1-.14-.073.39.39 0 0 1-.092-.231.179.179 0 0 1 .058-.147.161.161 0 0 1 .117-.033.337.337 0 0 1 .16.064 1.287 1.287 0 0 0 .119.082.883.883 0 0 0 .164.052.289.289 0 0 1 .173.116.123.123 0 0 1 .019.116.128.128 0 0 1-.081.069 1.227 1.227 0 0 1-.5-.015zm.02-.094h-.015a.092.092 0 0 1-.061-.028.275.275 0 0 1-.074-.135.2.2 0 0 1 0-.08.063.063 0 0 1 .022-.041.073.073 0 0 1 .048-.009.233.233 0 0 1 .114.047 1.325 1.325 0 0 0 .127.087 1.078 1.078 0 0 0 .18.06.194.194 0 0 1 .12.074.09.09 0 0 1 .01.023v.009a.03.03 0 0 1-.017.011.236.236 0 0 1-.06.015 1.28 1.28 0 0 1-.393-.031z" class="cls-34" transform="translate(-490.654 -1986.509)"/>
                                                <path id="패스_2701" d="M538.925 2060.6a.2.2 0 0 1-.14-.073.389.389 0 0 1-.092-.232.179.179 0 0 1 .058-.147.161.161 0 0 1 .117-.033.332.332 0 0 1 .16.064c.038.029.078.057.119.082a.942.942 0 0 0 .164.052.285.285 0 0 1 .173.116.124.124 0 0 1 .019.115.127.127 0 0 1-.081.069 1.215 1.215 0 0 1-.5-.015zm.02-.094h-.014a.093.093 0 0 1-.062-.029.268.268 0 0 1-.074-.135.186.186 0 0 1 0-.08.059.059 0 0 1 .022-.041.068.068 0 0 1 .047-.01.236.236 0 0 1 .114.047 1.344 1.344 0 0 0 .127.087.994.994 0 0 0 .18.06.2.2 0 0 1 .12.074.084.084 0 0 1 .01.023v.008a.028.028 0 0 1-.017.012.228.228 0 0 1-.06.015 1.284 1.284 0 0 1-.393-.031z" class="cls-34" transform="translate(-491.453 -1986.561)"/>
                                                <path id="패스_2702" d="M537.241 2063.315a.2.2 0 0 1-.139-.073.381.381 0 0 1-.092-.231.176.176 0 0 1 .058-.147.159.159 0 0 1 .116-.033.322.322 0 0 1 .16.064c.04.027.078.06.12.082a.9.9 0 0 0 .164.052.283.283 0 0 1 .173.115.125.125 0 0 1 .019.116.131.131 0 0 1-.081.069 1.227 1.227 0 0 1-.5-.015zm.021-.093h-.015a.089.089 0 0 1-.061-.029.264.264 0 0 1-.074-.134.2.2 0 0 1 0-.08.064.064 0 0 1 .023-.041.069.069 0 0 1 .048-.01.236.236 0 0 1 .113.047 1.265 1.265 0 0 0 .127.087 1 1 0 0 0 .18.06.2.2 0 0 1 .12.075.091.091 0 0 1 .011.022v.009a.036.036 0 0 1-.018.011.236.236 0 0 1-.06.015 1.3 1.3 0 0 1-.393-.03z" class="cls-34" transform="translate(-491.078 -1987.167)"/>
                                                <path id="패스_2703" d="M534.2 2059.013a.183.183 0 0 1 .069.145.539.539 0 0 1-.066.273c-.061.109-.154.162-.245.1a.24.24 0 0 1-.081-.115c-.022-.055-.033-.119-.055-.171a.7.7 0 0 0-.1-.127.276.276 0 0 1-.068-.2.145.145 0 0 1 .221-.13 1.013 1.013 0 0 1 .32.229zm-.068.065a.039.039 0 0 0 .014.012c.021.012.026.041.029.073a.437.437 0 0 1-.054.22.193.193 0 0 1-.049.062.044.044 0 0 1-.057 0 .181.181 0 0 1-.057-.1 1.251 1.251 0 0 0-.048-.15.517.517 0 0 0-.086-.121.207.207 0 0 1-.069-.159.07.07 0 0 1 .019-.054.032.032 0 0 1 .023-.006.151.151 0 0 1 .052.011.892.892 0 0 1 .284.207z" class="cls-34" transform="translate(-490.33 -1986.26)"/>
                                                <path id="패스_2704" d="M530.873 2060.334a5.177 5.177 0 0 0 2.457.646c1.65.127 3.636-.08 4.589-.812a.089.089 0 0 0 .016-.125.09.09 0 0 0-.125-.015c-.924.711-2.861.9-4.466.774a4.988 4.988 0 0 1-2.357-.606.089.089 0 0 0-.125.012.089.089 0 0 0 .012.125z" class="cls-29" transform="translate(-489.701 -1986.537)"/>
                                                <path id="패스_2705" d="M525.532 2063.305c-.409-.11-1.18-1.634-1.172-2.068.026-1.759 4.078-3.88 5.77-3.722.882.083 1.529 1.736 1.461 2.144-.089.542-1.2 1.608-2.611 2.475a7.072 7.072 0 0 1-3.449 1.17z" class="cls-35" transform="translate(-488.254 -1985.979)"/>
                                                <path id="패스_2706" d="M531.312 2060.982a.22.22 0 0 0 .069.221.214.214 0 0 0 .232 0 1.165 1.165 0 0 0 .44-.459.108.108 0 0 0-.01-.127.14.14 0 0 0-.115-.03 1.035 1.035 0 0 0-.416.176.543.543 0 0 0-.2.21v.009zm.661-.3h-.013a.2.2 0 0 0-.036 0 .541.541 0 0 0-.06.013 1.114 1.114 0 0 0-.332.171.386.386 0 0 0-.127.137.124.124 0 0 0 .033.123.121.121 0 0 0 .131-.007 1.046 1.046 0 0 0 .4-.413.127.127 0 0 0 .007-.024z" class="cls-34" transform="translate(-489.805 -1986.666)"/>
                                                <path id="패스_2707" d="M528.922 2062.879a.216.216 0 0 0 .069.221.21.21 0 0 0 .231 0 1.17 1.17 0 0 0 .44-.459.109.109 0 0 0-.01-.128.144.144 0 0 0-.115-.03 1.049 1.049 0 0 0-.416.177.527.527 0 0 0-.2.21v.009zm.66-.3h-.013a.126.126 0 0 0-.036 0 .316.316 0 0 0-.06.013 1.1 1.1 0 0 0-.332.17.39.39 0 0 0-.127.137.123.123 0 0 0 .033.123.12.12 0 0 0 .131-.007 1.057 1.057 0 0 0 .4-.413.074.074 0 0 0 .006-.023z" class="cls-34" transform="translate(-489.271 -1987.089)"/>
                                                <path id="패스_2708" d="M528.072 2059.18a.214.214 0 0 0 .069.22.209.209 0 0 0 .231 0 1.163 1.163 0 0 0 .44-.458.11.11 0 0 0-.01-.128.146.146 0 0 0-.116-.031 1.057 1.057 0 0 0-.416.177.537.537 0 0 0-.2.21v.008zm.66-.3h-.012a.183.183 0 0 0-.036 0 .481.481 0 0 0-.059.013 1.133 1.133 0 0 0-.333.171.4.4 0 0 0-.127.137.122.122 0 0 0 .033.123.119.119 0 0 0 .13-.007 1.044 1.044 0 0 0 .4-.412.114.114 0 0 0 .007-.024z" class="cls-34" transform="translate(-489.081 -1986.264)"/>
                                                <path id="패스_2709" d="M528.994 2061.854a.037.037 0 0 0 0 .013.259.259 0 0 0 .1.161.244.244 0 0 0 .183.05.391.391 0 0 0 .2-.1.247.247 0 0 0 .075-.126.1.1 0 0 0-.039-.1.287.287 0 0 0-.153-.046.578.578 0 0 0-.3.058.134.134 0 0 0-.07.094zm.1.008a.163.163 0 0 0 .064.09.148.148 0 0 0 .11.033.306.306 0 0 0 .151-.079.152.152 0 0 0 .047-.077c0-.006-.005-.009-.012-.012a.245.245 0 0 0-.092-.021.531.531 0 0 0-.22.033.162.162 0 0 0-.04.024l-.008.009z" class="cls-34" transform="translate(-489.289 -1986.915)"/>
                                                <path id="패스_2710" d="M531.528 2057.762a.037.037 0 0 0 0 .013.253.253 0 0 0 .1.161.243.243 0 0 0 .184.051.4.4 0 0 0 .2-.1.247.247 0 0 0 .075-.126.1.1 0 0 0-.038-.1.29.29 0 0 0-.153-.046.584.584 0 0 0-.3.057.13.13 0 0 0-.071.095zm.1.008a.162.162 0 0 0 .064.09.146.146 0 0 0 .11.033.3.3 0 0 0 .151-.078.152.152 0 0 0 .047-.077c0-.006-.005-.009-.012-.012a.216.216 0 0 0-.092-.02.521.521 0 0 0-.22.032.148.148 0 0 0-.04.024l-.008.009z" class="cls-34" transform="translate(-489.854 -1986.002)"/>
                                                <path id="패스_2711" d="M528.98 2059.214v.013a.259.259 0 0 0 .1.161.244.244 0 0 0 .183.051.4.4 0 0 0 .2-.1.251.251 0 0 0 .075-.127.1.1 0 0 0-.039-.1.289.289 0 0 0-.153-.046.578.578 0 0 0-.3.058.134.134 0 0 0-.071.094zm.1.008a.165.165 0 0 0 .064.09.15.15 0 0 0 .11.033.3.3 0 0 0 .151-.079.157.157 0 0 0 .048-.077c0-.006-.006-.009-.012-.012a.249.249 0 0 0-.092-.02.513.513 0 0 0-.22.032.138.138 0 0 0-.04.024l-.008.009z" class="cls-34" transform="translate(-489.286 -1986.326)"/>
                                                <path id="패스_2712" d="M532.668 2060.186a.037.037 0 0 0 0 .013.255.255 0 0 0 .1.161.245.245 0 0 0 .184.051.4.4 0 0 0 .2-.1.251.251 0 0 0 .075-.127.1.1 0 0 0-.039-.1.284.284 0 0 0-.152-.046.575.575 0 0 0-.3.058.133.133 0 0 0-.071.094zm.1.008a.164.164 0 0 0 .064.09.144.144 0 0 0 .11.032.305.305 0 0 0 .15-.078.161.161 0 0 0 .048-.077c0-.007-.005-.009-.012-.013a.25.25 0 0 0-.092-.02.543.543 0 0 0-.22.033.157.157 0 0 0-.04.025l-.008.009z" class="cls-34" transform="translate(-490.109 -1986.543)"/>
                                                <path id="패스_2713" d="M530.781 2058.191a.048.048 0 0 0 .006.065.048.048 0 0 0 .065-.006v-.005a.047.047 0 0 0-.075-.056z" class="cls-34" transform="translate(-489.685 -1986.127)"/>
                                                <path id="패스_2714" d="M532.553 2059.169a.048.048 0 1 0 .092.023.047.047 0 0 0-.036-.057.047.047 0 0 0-.057.036z" class="cls-34" transform="translate(-490.083 -1986.342)"/>
                                                <path id="패스_2715" d="M530.6 2060.762a.047.047 0 0 0-.012-.065.048.048 0 0 0-.066.012.049.049 0 0 0 .012.066.048.048 0 0 0 .066-.013z" class="cls-34" transform="translate(-489.628 -1986.689)"/>
                                                <path id="패스_2716" d="M531.1 2062.274a.048.048 0 0 1 .03-.011h.011a.047.047 0 0 1 .037.055.044.044 0 0 1-.029.036.142.142 0 0 1-.038 0 .048.048 0 0 1-.03-.06.05.05 0 0 1 .008-.014l.005-.006zm.009-.006l-.009.006-.005.006a.054.054 0 0 0-.009.02.047.047 0 0 1 .024-.032z" class="cls-34" transform="translate(-489.756 -1987.04)"/>
                                                <path id="패스_2717" d="M529.114 2063.766a.048.048 0 0 0 .065-.014.048.048 0 0 0-.014-.066.048.048 0 0 0-.066.015.048.048 0 0 0 .015.065z" class="cls-34" transform="translate(-489.311 -1987.357)"/>
                                                <path id="패스_2718" d="M532.96 2061.031a.049.049 0 0 1-.015.028.047.047 0 0 1-.065 0c-.009-.009-.009-.051-.009-.051v.012a.047.047 0 0 1 .053-.041.047.047 0 0 1 .041.052z" class="cls-34" transform="translate(-490.153 -1986.753)"/>
                                                <path id="패스_2719" d="M530.566 2059.419a.049.049 0 0 1-.054.011.048.048 0 0 1-.023-.063.042.042 0 0 1 .019-.023.047.047 0 0 1 .065.013.047.047 0 0 1 0 .056v.005zm0-.005v-.008l-.006.01-.009.008.006-.006z" class="cls-34" transform="translate(-489.621 -1986.388)"/>
                                                <path id="패스_2720" d="M528.892 2061.15a.049.049 0 0 1-.037.033.047.047 0 0 1-.056-.036.04.04 0 0 1 0-.033.049.049 0 0 1 .064-.02.05.05 0 0 1 .025.04.026.026 0 0 1 0 .017zm0-.017a.045.045 0 0 1-.005.02v-.008a.059.059 0 0 0 0-.012z" class="cls-34" transform="translate(-489.245 -1986.778)"/>
                                                <path id="패스_2721" d="M529.833 2058.208a.046.046 0 0 0-.054.039.047.047 0 0 0 .039.053.05.05 0 0 0 .055-.04.048.048 0 0 0-.04-.054z" class="cls-34" transform="translate(-489.464 -1986.135)"/>
                                                <path id="패스_2722" d="M528.4 2060.29a.2.2 0 0 1-.158 0 .383.383 0 0 1-.193-.158.178.178 0 0 1-.021-.157.158.158 0 0 1 .085-.084.333.333 0 0 1 .171-.023 1.226 1.226 0 0 0 .145.013.862.862 0 0 0 .167-.033.288.288 0 0 1 .207.016.125.125 0 0 1 .074.093.133.133 0 0 1-.036.1 1.222 1.222 0 0 1-.44.23zm-.028-.091l-.013.005a.1.1 0 0 1-.068.005.269.269 0 0 1-.13-.082.2.2 0 0 1-.044-.067.062.062 0 0 1 0-.047.076.076 0 0 1 .037-.032.23.23 0 0 1 .123-.015c.051.007.1.011.154.013a.978.978 0 0 0 .186-.037.2.2 0 0 1 .141.006.065.065 0 0 1 .02.015v.006a.035.035 0 0 1-.009.02.21.21 0 0 1-.045.042 1.314 1.314 0 0 1-.357.166z" class="cls-34" transform="translate(-489.072 -1986.5)"/>
                                                <path id="패스_2723" d="M531.639 2058.738a.2.2 0 0 1-.158 0 .385.385 0 0 1-.193-.157.178.178 0 0 1-.021-.157.16.16 0 0 1 .085-.085.329.329 0 0 1 .171-.022c.048 0 .1.013.144.012a.945.945 0 0 0 .168-.034.285.285 0 0 1 .207.015.124.124 0 0 1 .073.093.127.127 0 0 1-.037.1 1.233 1.233 0 0 1-.44.23zm-.028-.091l-.013.005a.093.093 0 0 1-.068.005.275.275 0 0 1-.13-.082.2.2 0 0 1-.043-.067.061.061 0 0 1 0-.047.07.07 0 0 1 .036-.033.234.234 0 0 1 .122-.014c.052 0 .1.014.155.013a.946.946 0 0 0 .186-.037.2.2 0 0 1 .141.006.081.081 0 0 1 .021.015v.007a.033.033 0 0 1-.009.019.214.214 0 0 1-.044.041 1.323 1.323 0 0 1-.357.167z" class="cls-34" transform="translate(-489.794 -1986.153)"/>
                                                <path id="패스_2724" d="M531.5 2061.93a.2.2 0 0 1-.158 0 .385.385 0 0 1-.193-.157.176.176 0 0 1-.022-.157.164.164 0 0 1 .086-.085.329.329 0 0 1 .171-.023 1.177 1.177 0 0 0 .144.013.921.921 0 0 0 .168-.032.285.285 0 0 1 .207.015.124.124 0 0 1 .073.093.126.126 0 0 1-.036.1 1.23 1.23 0 0 1-.44.23zm-.028-.09h-.013a.09.09 0 0 1-.068.005.265.265 0 0 1-.13-.082.186.186 0 0 1-.043-.067.062.062 0 0 1 0-.047.069.069 0 0 1 .036-.032.232.232 0 0 1 .122-.014c.051.007.1.011.155.013a1.023 1.023 0 0 0 .186-.037.194.194 0 0 1 .141.006.081.081 0 0 1 .021.015v.006a.029.029 0 0 1-.009.02.215.215 0 0 1-.045.042 1.269 1.269 0 0 1-.356.165z" class="cls-34" transform="translate(-489.763 -1986.866)"/>
                                                <path id="패스_2725" d="M524.507 2061.5a5.174 5.174 0 0 0 2.456-.639c1.5-.7 3.132-1.851 3.6-2.955a.087.087 0 1 0-.16-.068c-.458 1.073-2.054 2.186-3.515 2.864a5 5 0 0 1-2.352.627.087.087 0 0 0-.1.071.088.088 0 0 0 .071.1z" class="cls-29" transform="translate(-488.271 -1986.041)"/>
                                                <path id="패스_2726" d="M544.835 2054.935l-3.083 4.558.042.9 6.02.471 2.452-4.824-.04-.74-5.39-.367z" class="cls-28" transform="translate(-492.136 -1985.405)"/>
                                                <path id="패스_2727" d="M547.444 2060.055l2.537-4.49a.083.083 0 0 1 .144.082l-2.563 4.535a.083.083 0 0 1-.078.042l-5.522-.416a.083.083 0 0 1 .012-.165l5.47.412z" class="cls-37" transform="translate(-492.166 -1985.536)"/>
                                                <path id="패스_2728" d="M543.665 2059.525c.382.023.678.2.66.387s-.341.328-.722.3-.678-.2-.66-.387.341-.328.722-.3z" class="cls-23" transform="translate(-492.402 -1986.429)"/>
                                                <path id="패스_2729" fill="#8f4f4f" fill-rule="evenodd" d="M545.7 2059.646c.381.023.677.2.66.387s-.341.328-.722.3-.677-.2-.66-.387.345-.322.722-.3z" transform="translate(-492.857 -1986.456)"/>
                                                <path id="패스_2730" d="M547.709 2059.764c.381.023.677.2.66.388s-.341.327-.722.3-.678-.2-.661-.387.341-.328.723-.305z" class="cls-36" transform="translate(-493.304 -1986.482)"/>
                                                <path id="패스_2731" fill="#d5dfad" fill-rule="evenodd" d="M544.564 2058.118c.381.023.678.2.66.387s-.341.328-.722.305-.677-.2-.66-.387.341-.328.722-.305z" transform="translate(-492.602 -1986.115)"/>
                                                <path id="패스_2732" fill="#9faf68" fill-rule="evenodd" d="M546.6 2058.241c.381.023.678.2.66.387s-.341.327-.722.3-.677-.2-.66-.387.344-.322.722-.3z" transform="translate(-493.058 -1986.142)"/>
                                                <path id="패스_2733" fill="#75894e" fill-rule="evenodd" d="M548.608 2058.358c.381.023.677.2.66.388s-.341.327-.723.3-.677-.2-.659-.388.341-.322.722-.3z" transform="translate(-493.505 -1986.169)"/>
                                                <path id="패스_2734" d="M545.509 2056.839c.381.022.678.2.66.387s-.341.328-.722.3-.677-.2-.66-.387.341-.323.722-.3z" class="cls-25" transform="translate(-492.813 -1985.829)"/>
                                                <path id="패스_2735" d="M547.548 2056.96c.381.023.677.2.66.387s-.342.328-.722.305-.678-.2-.661-.387.341-.327.723-.305z" class="cls-27" transform="translate(-493.268 -1985.857)"/>
                                                <path id="패스_2736" d="M549.553 2057.08c.382.023.677.2.66.387s-.341.327-.722.3-.677-.2-.66-.387.341-.322.722-.3z" class="cls-22" transform="translate(-493.716 -1985.883)"/>
                                                <path id="패스_2737" d="M546.337 2055.532c.381.022.677.2.66.387s-.341.327-.723.3-.677-.2-.66-.387.341-.328.723-.3z" class="cls-34" transform="translate(-492.998 -1985.538)"/>
                                                <path id="패스_2738" d="M548.376 2055.653c.381.023.677.2.66.387s-.341.327-.722.3-.677-.2-.66-.387.341-.323.722-.3z" class="cls-35" transform="translate(-493.453 -1985.565)"/>
                                                <path id="패스_2739" fill="#d6702e" fill-rule="evenodd" d="M550.382 2055.772c.381.023.677.2.66.387s-.341.328-.722.305-.677-.2-.66-.387.341-.328.723-.305z" transform="translate(-493.901 -1985.591)"/>
                                                <path id="패스_2740" d="M545.9 2048.619a2.9 2.9 0 0 0-2.614-1.067 6.493 6.493 0 0 0-2.01.43c-1.091.44-1.621 1.014-1.655 1.851-.025.608-.023 1.156.524 1.533a5.164 5.164 0 0 0 4.652.068c1-.518 1.39-1.028 1.212-2.159a2.3 2.3 0 0 0-.109-.657z" class="cls-28" transform="translate(-491.659 -1983.757)"/>
                                                <path id="패스_2741" d="M545.44 2048.692c-.987-.821-3.341-.69-4.68.263-.437.311-.644.969.256 1.278a4.767 4.767 0 0 0 3.542-.093c.826-.375 1.283-1.114.883-1.449z" class="cls-27" transform="translate(-491.831 -1983.891)"/>
                                                <path id="패스_2742" d="M539.934 2050.705a4.761 4.761 0 0 0 3.987.564 3.269 3.269 0 0 0 2.06-1.554.082.082 0 0 0-.036-.11.083.083 0 0 0-.111.035 3.1 3.1 0 0 1-1.96 1.47 4.591 4.591 0 0 1-3.844-.538.081.081 0 0 0-.114.017.083.083 0 0 0 .016.115z" class="cls-37" transform="translate(-491.723 -1984.214)"/>
                                                <path id="패스_2743" d="M545.718 2046.367a2.9 2.9 0 0 0-2.613-1.066 6.452 6.452 0 0 0-2.01.43c-1.091.44-1.621 1.014-1.656 1.851-.025.609-.023 1.156.524 1.532a5.167 5.167 0 0 0 4.652.069c1-.519 1.39-1.028 1.213-2.16a2.332 2.332 0 0 0-.11-.657z" class="cls-28" transform="translate(-491.618 -1983.255)"/>
                                                <path id="패스_2744" fill="#b25150" fill-rule="evenodd" d="M545.259 2046.439c-.987-.821-3.342-.691-4.681.264-.436.311-.644.969.256 1.278a4.766 4.766 0 0 0 3.542-.093c.827-.375 1.283-1.114.883-1.449z" transform="translate(-491.791 -1983.388)"/>
                                                <path id="패스_2745" d="M539.752 2048.453a4.758 4.758 0 0 0 3.987.563 3.265 3.265 0 0 0 2.06-1.553.082.082 0 0 0-.035-.111.082.082 0 0 0-.11.036 3.105 3.105 0 0 1-1.961 1.471 4.59 4.59 0 0 1-3.843-.538.082.082 0 1 0-.1.133z" class="cls-37" transform="translate(-491.682 -1983.711)"/>
                                                <path id="패스_2746" d="M554.473 2048.259a2.9 2.9 0 0 0-2.614-1.067 6.493 6.493 0 0 0-2.01.43c-1.091.441-1.621 1.014-1.655 1.851-.025.609-.023 1.156.524 1.533a5.165 5.165 0 0 0 4.652.069c1-.518 1.391-1.028 1.212-2.16a2.282 2.282 0 0 0-.11-.657z" class="cls-28" transform="translate(-493.572 -1983.677)"/>
                                                <path id="패스_2747" d="M554.013 2048.331c-.987-.821-3.341-.69-4.68.264-.436.311-.644.969.256 1.278a4.766 4.766 0 0 0 3.542-.092c.827-.375 1.283-1.114.883-1.449z" class="cls-25" transform="translate(-493.745 -1983.81)"/>
                                                <path id="패스_2748" d="M548.507 2050.345a4.76 4.76 0 0 0 3.987.564 3.268 3.268 0 0 0 2.06-1.554.082.082 0 1 0-.146-.075 3.107 3.107 0 0 1-1.961 1.47 4.589 4.589 0 0 1-3.843-.538.082.082 0 0 0-.1.132z" class="cls-37" transform="translate(-493.637 -1984.133)"/>
                                            </g>
                                        </g>
                                    </g>
                                </g>
                                <path id="패스_2749" d="M568.07 2072.6a2.416 2.416 0 0 0-2.414-2.415h-26.948a2.416 2.416 0 0 0-2.414 2.415v.322a2.415 2.415 0 0 0 2.414 2.414h26.947a2.413 2.413 0 0 0 2.414-2.414v-.322zm-.176 0v.322a2.236 2.236 0 0 1-2.238 2.238h-26.948a2.236 2.236 0 0 1-2.238-2.238v-.322a2.236 2.236 0 0 1 2.238-2.238h26.947a2.237 2.237 0 0 1 2.239 2.238z" class="cls-29" transform="translate(-530.08 -1976.142)"/>
                                <path id="패스_2750" fill="#7b95ba" fill-rule="evenodd" d="M584.11 2071.548l-5.457 3.295 1.206-2.593-1.206-1.71 5.457 1.007z" transform="translate(-539.534 -1976.222)"/>
                                <path id="패스_2751" fill="#ebe9ea" fill-rule="evenodd" d="M580.365 2072.574c.924-.136 2.773-.406 3.735-.573a.089.089 0 0 0 .071-.1.088.088 0 0 0-.1-.072c-.96.167-2.807.438-3.73.573a.087.087 0 0 0-.074.1.088.088 0 0 0 .1.075z" transform="translate(-539.893 -1976.509)"/>
                                <path id="패스_2752" fill="#e73828" fill-rule="evenodd" d="M563.76 1955.968a1.417 1.417 0 0 0-1.243-1.542h-6.9a1.417 1.417 0 0 0-1.242 1.542v1.265a1.417 1.417 0 0 0 1.242 1.542h6.9a1.416 1.416 0 0 0 1.243-1.542z" transform="translate(-534.116 -1950.307)"/>
                                <path id="패스_2753" d="M556.823 1956.1v1.54h.876a.231.231 0 0 1 .161.05.171.171 0 0 1 0 .253.24.24 0 0 1-.162.048h-1.043a.28.28 0 0 1-.2-.062.275.275 0 0 1-.061-.2v-1.629a.279.279 0 0 1 .059-.195.2.2 0 0 1 .155-.066.211.211 0 0 1 .158.066.276.276 0 0 1 .06.2z" class="cls-1" transform="translate(-534.565 -1950.622)"/>
                                <path id="패스_2754" d="M558.741 1957.765v-1.665a.276.276 0 0 1 .06-.195.2.2 0 0 1 .154-.066.209.209 0 0 1 .158.066.281.281 0 0 1 .061.2v1.666a.28.28 0 0 1-.061.2.2.2 0 0 1-.158.066.2.2 0 0 1-.154-.066.281.281 0 0 1-.061-.2z" class="cls-1" transform="translate(-535.089 -1950.622)"/>
                                <path id="패스_2755" d="M560.194 1956.12l.483 1.418.485-1.429c.026-.074.044-.127.057-.156a.215.215 0 0 1 .062-.079.185.185 0 0 1 .12-.036.211.211 0 0 1 .177.1.183.183 0 0 1 .027.092.338.338 0 0 1-.009.068.557.557 0 0 1-.022.072l-.026.073-.517 1.383-.055.151a.65.65 0 0 1-.065.125.32.32 0 0 1-.394.091.271.271 0 0 1-.1-.089.645.645 0 0 1-.065-.126c-.019-.047-.036-.1-.056-.15l-.508-1.371c-.009-.025-.017-.05-.027-.074a.713.713 0 0 1-.023-.078.35.35 0 0 1-.009-.071.186.186 0 0 1 .06-.134.2.2 0 0 1 .15-.061.175.175 0 0 1 .156.065.9.9 0 0 1 .094.214z" class="cls-1" transform="translate(-535.31 -1950.622)"/>
                                <path id="패스_2756" d="M563.968 1956.17h-.974v.52h.9a.22.22 0 0 1 .148.044.147.147 0 0 1 .048.117.153.153 0 0 1-.048.117.212.212 0 0 1-.148.046h-.9v.6H564a.221.221 0 0 1 .153.047.159.159 0 0 1 .052.125.156.156 0 0 1-.052.122.222.222 0 0 1-.153.047h-1.174a.226.226 0 0 1-.266-.263v-1.592a.362.362 0 0 1 .028-.151.172.172 0 0 1 .087-.085.356.356 0 0 1 .151-.026h1.141a.223.223 0 0 1 .154.045.153.153 0 0 1 .05.119.155.155 0 0 1-.05.121.227.227 0 0 1-.154.045z" class="cls-1" transform="translate(-535.942 -1950.622)"/>
                                <path id="패스_2757" d="M582.661 2058.295a1.775 1.775 0 0 1 2.664-.575c.666.575.666 1.727 0 2.878a7.4 7.4 0 0 1-2.664 2.3 7.41 7.41 0 0 1-2.664-2.3c-.666-1.151-.666-2.3 0-2.878a1.774 1.774 0 0 1 2.49.305 1.793 1.793 0 0 1 .174.27z" class="cls-29" transform="translate(-539.722 -1973.276)"/>
                                <path id="패스_2758" d="M584.079 2049.563a1.774 1.774 0 0 1 2.664-.576c.667.576.667 1.727 0 2.878a7.39 7.39 0 0 1-2.664 2.3 7.394 7.394 0 0 1-2.664-2.3c-.667-1.151-.667-2.3 0-2.878a1.772 1.772 0 0 1 2.664.576z" class="cls-29" transform="translate(-540.038 -1971.327)"/>
                                <path id="패스_2759" d="M580.086 2040.684a1.774 1.774 0 0 1 2.395-.749 1.867 1.867 0 0 1 .27.173c.666.576.666 1.728 0 2.879a7.4 7.4 0 0 1-2.664 2.3 7.4 7.4 0 0 1-2.664-2.3c-.666-1.151-.666-2.3 0-2.879a1.775 1.775 0 0 1 2.49.306 1.794 1.794 0 0 1 .173.27z" class="cls-29" transform="translate(-539.147 -1969.346)"/>
                                <path id="패스_2760" d="M584.832 2032.411a1.773 1.773 0 0 1 2.394-.75 1.793 1.793 0 0 1 .27.174c.667.576.667 1.727 0 2.878a7.387 7.387 0 0 1-2.664 2.3 7.389 7.389 0 0 1-2.664-2.3c-.666-1.151-.666-2.3 0-2.878a1.774 1.774 0 0 1 2.49.306 1.754 1.754 0 0 1 .174.27z" class="cls-29" transform="translate(-540.206 -1967.5)"/>
                                <path id="패스_2761" d="M578.465 2028.817a.957.957 0 0 1 1.457-.322 1.307 1.307 0 0 1 0 1.613 1.468 1.468 0 0 1-2.914 0 1.305 1.305 0 0 1 0-1.613.954.954 0 0 1 1.456.322z" class="cls-29" transform="translate(-539.105 -1966.791)"/>
                                <path id="패스_2762" d="M587.655 2040.894a.958.958 0 0 1 1.282-.434 1.033 1.033 0 0 1 .175.111 1.306 1.306 0 0 1 0 1.614 1.468 1.468 0 0 1-2.914 0 1.306 1.306 0 0 1 0-1.614.958.958 0 0 1 1.345.148.948.948 0 0 1 .112.175z" class="cls-29" transform="translate(-541.157 -1969.486)"/>
                                <path id="패스_2763" d="M576.463 2049.3a.958.958 0 0 1 1.283-.434 1.017 1.017 0 0 1 .174.111 1.3 1.3 0 0 1 0 1.613 1.467 1.467 0 0 1-2.913 0 1.305 1.305 0 0 1 0-1.613.957.957 0 0 1 1.345.148 1.031 1.031 0 0 1 .111.175z" class="cls-29" transform="translate(-538.659 -1971.362)"/>
                                <path id="패스_2764" d="M585.624 2026.618a.958.958 0 0 1 1.282-.434.982.982 0 0 1 .174.111 1.305 1.305 0 0 1 0 1.613 1.467 1.467 0 0 1-2.913 0 1.305 1.305 0 0 1 0-1.613.958.958 0 0 1 1.345.148.913.913 0 0 1 .112.175z" class="cls-29" transform="translate(-540.703 -1966.3)"/>
                                <path id="패스_2765" d="M578.9 2022a.957.957 0 0 1 1.283-.433.991.991 0 0 1 .174.111 1.305 1.305 0 0 1 0 1.613 1.467 1.467 0 0 1-2.913 0 1.305 1.305 0 0 1 0-1.613.958.958 0 0 1 1.345.148.987.987 0 0 1 .111.174z" class="cls-29" transform="translate(-539.201 -1965.269)"/>
                                <path id="패스_2766" d="M574.653 2016.274a.956.956 0 0 1 1.282-.433.932.932 0 0 1 .175.111 1.305 1.305 0 0 1 0 1.613 1.468 1.468 0 0 1-2.914 0 1.305 1.305 0 0 1 0-1.613.961.961 0 0 1 1.457.322z" class="cls-29" transform="translate(-538.254 -1963.991)"/>
                                <path id="패스_2767" d="M584.783 2020.217a.957.957 0 0 1 1.282-.433.94.94 0 0 1 .175.111 1.307 1.307 0 0 1 0 1.614 1.468 1.468 0 0 1-2.914 0 1.306 1.306 0 0 1 0-1.614.957.957 0 0 1 1.345.148.932.932 0 0 1 .112.174z" class="cls-29" transform="translate(-540.516 -1964.871)"/>
                            </g>
                        </g>
                    </g>
                </g>
            </g>
        </g>
    </g>
</svg>
