<svg xmlns="http://www.w3.org/2000/svg" width="1920" height="1281.033" viewBox="0 0 1920 1281.033">
    <defs>
        <clipPath id="clip-path">
            <path id="패스_3037" d="M17834-18499.906s628.457-146.277 1187.363-63.908 732.307 0 732.307 0l-.2 1255.877-1919.47-140.975z" class="cls-1" transform="translate(-17833.67 19571.375)"/>
        </clipPath>
        <style>
            .cls-1{fill:#f27070}.cls-2,.cls-6{fill:none}.cls-2{stroke:#e56464;stroke-width:50px}.cls-5{stroke:none}
        </style>
    </defs>
    <g id="그룹_2939" transform="translate(0 -982.404)">
        <path id="패스_2332" d="M17834-18499.906s628.564-146.277 1187.566-63.908 732.434 0 732.434 0l-.2 1255.877-1919.8-140.975z" class="cls-1" transform="translate(-17834 19571.375)"/>
        <g id="타원_97" class="cls-2" transform="translate(1461 1692)">
            <circle cx="106.5" cy="106.5" r="106.5" class="cls-5"/>
            <circle cx="106.5" cy="106.5" r="81.5" class="cls-6"/>
        </g>
        <g id="타원_98" class="cls-2" transform="translate(405 1306)">
            <circle cx="82" cy="82" r="82" class="cls-5"/>
            <circle cx="82" cy="82" r="57" class="cls-6"/>
        </g>
        <g id="마스크_그룹_17" clip-path="url(#clip-path)" transform="translate(-.33)">
            <path id="패스_2333" fill="#e56464" fill-rule="evenodd" d="M594.237 783.283c7.1-10.679-2.057 3.674 4.149-11 39.788-94.069-112.407-96.089-119.716-197.7-1.977-27.5 7.128-56.175-1.5-83-14.426-44.842-55.719-71.878-59.107-122.236-2.292-34.051 14-68.348-2.2-101.131-23.236-47.026-83.426-62.961-117.18-100.443-29.292-32.527-29.62-77.811-53.756-112.553C226.194 28.258 156.937-.054 123.91-.043c-9.48 0-74.443 21.018-82.549 25.9-61.43 36.97-36.624 339.908-35.827 394.531C6.54 489.3 9.888 558.01 11.9 626.876c.9 30.618-1.588 61.744 2.008 92.228 1.156 9.8 3.5 19.472 10.954 26.384 15.558 14.423 42.884 16.373 62.52 19.347 80.041 12.122 161.353 12.285 241.946 7.392 45.122-2.74 264.906 11.057 264.906 11.057z" transform="translate(-155.434 1412.141)"/>
        </g>
    </g>
</svg>
