<svg xmlns="http://www.w3.org/2000/svg" width="766.998" height="440.91" viewBox="0 0 766.998 440.91">
    <defs>
        <linearGradient id="linear-gradient" x2="1" y1=".5" y2=".5" gradientUnits="objectBoundingBox">
            <stop offset="0" stop-color="#b3b3b3"/>
            <stop offset=".026" stop-color="#fbfbfb"/>
            <stop offset=".347" stop-color="#f3f3f3"/>
            <stop offset=".73" stop-color="#f2f2f2"/>
            <stop offset=".973" stop-color="#fff"/>
            <stop offset="1" stop-color="#b3b3b3"/>
        </linearGradient>
        <linearGradient id="linear-gradient-2" x1=".5" x2=".5" y1="1" gradientUnits="objectBoundingBox">
            <stop offset="0" stop-color="#4d4d4d"/>
            <stop offset=".012" stop-color="#acacac"/>
            <stop offset=".092" stop-color="#a5a5a5"/>
            <stop offset=".18" stop-color="#b2b2b2"/>
            <stop offset=".277" stop-color="#c7c7c7"/>
            <stop offset=".385" stop-color="#d2d2d2"/>
            <stop offset=".512" stop-color="#e1e1e1"/>
            <stop offset=".675" stop-color="#e2e2e2"/>
            <stop offset="1" stop-color="#f1f1f1"/>
        </linearGradient>
        <style>
            .cls-6{fill:url(#linear-gradient)}.cls-8{fill:gray}
        </style>
    </defs>
    <g id="그룹_3347" transform="translate(-12.501 -55.09)">
        <path id="사각형_2327" fill="#d0d0d0" d="M26.025 0h574.668a25.414 25.414 0 0 1 25.414 25.414v390.1a15.007 15.007 0 0 1-15.007 15.011H13.339A13.339 13.339 0 0 1 0 417.185V26.025A26.025 26.025 0 0 1 26.025 0z" transform="translate(82.9 55.09)"/>
        <path id="사각형_2328" fill="#f5f5f5" d="M22.466 0H599a22.466 22.466 0 0 1 22.466 22.466v390.995a14.914 14.914 0 0 1-14.914 14.914H13.257A13.257 13.257 0 0 1 0 415.118V22.466A22.466 22.466 0 0 1 22.466 0z" transform="translate(86 57.24)"/>
        <path id="사각형_2329" fill="#f1f1f1" d="M0 0h621.464v6.838A14.861 14.861 0 0 1 606.6 21.7H13.2A13.2 13.2 0 0 1 0 8.495V0z" transform="translate(85.674 463.915)"/>
        <circle id="타원_115" cx="2.15" cy="2.15" r="2.15" fill="#999" transform="translate(392.915 70.376)"/>
        <path id="패스_3066" fill="#b3b3b3" d="M-88.757 1231.9a1.145 1.145 0 0 1-1.145 1.145 1.145 1.145 0 0 1-1.145-1.145 1.145 1.145 0 0 1 1.145-1.145 1.145 1.145 0 0 1 1.145 1.145z" transform="translate(484.968 -1159.379)"/>
        <path id="사각형_2331" d="M0 0H766.998V4.488H0z" class="cls-6" transform="translate(12.502 480.285)"/>
        <path id="패스_3067" fill="url(#linear-gradient-2)" d="M-518.023 1693.527s18.324 10.813 114.932 10.939l534.892.249s88.006 1.309 117.175-11.188z" transform="translate(530.524 -1208.754)"/>
        <path id="사각형_2332" d="M0 0h145.97v2.286a3.916 3.916 0 0 1-3.916 3.914H3.916A3.916 3.916 0 0 1 0 2.286V0z" class="cls-6" transform="translate(323.14 480.285)"/>
        <path id="사각형_2333" d="M0 0H5.235V2.431H0z" class="cls-8" transform="translate(298.583 490.289)"/>
        <path id="사각형_2334" d="M0 0H5.235V2.431H0z" class="cls-8" transform="translate(487.061 490.289)"/>
    </g>
</svg>
