<svg xmlns="http://www.w3.org/2000/svg" width="76.965" height="12.322" viewBox="0 0 76.965 12.322">
    <defs>
        <style>
            .cls-1{fill:#f27070}.cls-2{fill:#e5e5e5}
        </style>
    </defs>
    <g id="그룹_3057" transform="translate(-515.808 -1022.011)">
        <path id="star" d="M12.013 4.423l-3.794-.58-1.7-3.622a.4.4 0 0 0-.7 0l-1.7 3.622-3.792.58a.385.385 0 0 0-.218.65L2.866 7.9l-.651 3.994a.386.386 0 0 0 .567.4l3.388-1.875 3.388 1.873a.386.386 0 0 0 .567-.4L9.474 7.9l2.756-2.826a.386.386 0 0 0-.218-.651z" class="cls-1" transform="translate(515.809 1021.992)"/>
        <path id="star-2" d="M12.013 4.423l-3.794-.58-1.7-3.622a.4.4 0 0 0-.7 0l-1.7 3.622-3.792.58a.385.385 0 0 0-.218.65L2.866 7.9l-.651 3.994a.386.386 0 0 0 .567.4l3.388-1.875 3.388 1.873a.386.386 0 0 0 .567-.4L9.474 7.9l2.756-2.826a.386.386 0 0 0-.218-.651z" class="cls-1" transform="translate(531.965 1021.992)"/>
        <path id="star-3" d="M12.013 4.423l-3.794-.58-1.7-3.622a.4.4 0 0 0-.7 0l-1.7 3.622-3.792.58a.385.385 0 0 0-.218.65L2.866 7.9l-.651 3.994a.386.386 0 0 0 .567.4l3.388-1.875 3.388 1.873a.386.386 0 0 0 .567-.4L9.474 7.9l2.756-2.826a.386.386 0 0 0-.218-.651z" class="cls-1" transform="translate(548.121 1021.992)"/>
        <path id="star-4" d="M12.013 4.423l-3.794-.58-1.7-3.622a.4.4 0 0 0-.7 0l-1.7 3.622-3.792.58a.385.385 0 0 0-.218.65L2.866 7.9l-.651 3.994a.386.386 0 0 0 .567.4l3.388-1.875 3.388 1.873a.386.386 0 0 0 .567-.4L9.474 7.9l2.756-2.826a.386.386 0 0 0-.218-.651z" class="cls-2" transform="translate(564.277 1021.992)"/>
        <path id="star-5" d="M12.013 4.423l-3.794-.58-1.7-3.622a.4.4 0 0 0-.7 0l-1.7 3.622-3.792.58a.385.385 0 0 0-.218.65L2.866 7.9l-.651 3.994a.386.386 0 0 0 .567.4l3.388-1.875 3.388 1.873a.386.386 0 0 0 .567-.4L9.474 7.9l2.756-2.826a.386.386 0 0 0-.218-.651z" class="cls-2" transform="translate(580.434 1021.992)"/>
    </g>
</svg>
