<svg xmlns="http://www.w3.org/2000/svg" width="19.72" height="17.579" viewBox="0 0 19.72 17.579">
    <defs>
        <style>
            .cls-1{fill:#606060}
        </style>
    </defs>
    <g id="home" transform="translate(.001 -27.797)">
        <g id="그룹_288" transform="translate(-.001 27.798)">
            <g id="그룹_287">
                <path id="패스_187" d="M19.51 34.741L10.162 27.9a.512.512 0 0 0-.605 0L.209 34.741a.512.512 0 1 0 .605.827l9.046-6.623 9.04 6.622a.512.512 0 0 0 .605-.827z" class="cls-1" transform="translate(.001 -27.798)"/>
            </g>
        </g>
        <g id="그룹_290" transform="translate(2.174 35.684)">
            <g id="그룹_289">
                <path id="패스_188" d="M71.311 232.543a.512.512 0 0 0-.512.512v8.156H66.7v-4.452a2.562 2.562 0 1 0-5.124 0v4.452h-4.1v-8.156a.512.512 0 1 0-1.025 0v8.668a.512.512 0 0 0 .512.512h5.124a.512.512 0 0 0 .51-.473.387.387 0 0 0 0-.04v-4.964a1.537 1.537 0 1 1 3.075 0v4.964a.375.375 0 0 0 0 .039.512.512 0 0 0 .51.473h5.124a.512.512 0 0 0 .512-.512v-8.668a.512.512 0 0 0-.507-.511z" class="cls-1" transform="translate(-56.452 -232.543)"/>
            </g>
        </g>
    </g>
</svg>
