<svg xmlns="http://www.w3.org/2000/svg" width="16.236" height="16.236" viewBox="0 0 16.236 16.236">
    <defs>
        <style>
            .cls-1{fill:#f27070}
        </style>
    </defs>
    <g id="그룹_439" transform="translate(-527.227 -173.227)">
        <g id="그룹_184" transform="translate(527.227 173.227)">
            <g id="그룹_183">
                <circle id="타원_71" cx="7.489" cy="7.489" r="7.489" class="cls-1" transform="translate(.629 .629)"/>
                <path id="패스_152" d="M8.118 16.236a8.118 8.118 0 1 1 8.118-8.118 8.127 8.127 0 0 1-8.118 8.118zm0-14.979a6.861 6.861 0 1 0 6.861 6.861 6.868 6.868 0 0 0-6.861-6.86z" class="cls-1"/>
            </g>
            <path id="패스_153" fill="#fff" d="M135.016 167.8a.628.628 0 0 1-.448-.188l-2.32-2.358a.629.629 0 0 1 .9-.882l1.852 1.882 3.835-4.224a.629.629 0 1 1 .931.846l-4.282 4.716a.629.629 0 0 1-.453.206z" transform="translate(-127.879 -156.693)"/>
        </g>
    </g>
</svg>
