<svg xmlns="http://www.w3.org/2000/svg" width="294.372" height="116.586" viewBox="0 0 294.372 116.586">
    <defs>
        <clipPath id="clip-path">
            <path id="사각형_104" d="M0 0H294.372V116.586H0z" class="cls-1"/>
        </clipPath>
        <style>
            .cls-1{fill:none}.cls-3{fill:#e73828}.cls-5{fill:#fff}.cls-6{fill:#e54141}
        </style>
    </defs>
    <g id="그룹_975" transform="translate(-812.609 -140.924)">
        <path id="패스_212" fill="#f27070" d="M273.629 100.388L17.236 81.833 8.593 8.626h269.6z" transform="translate(816.258 144.586)"/>
        <path id="패스_213" d="M73.285 34.025H62.85l2.906-16.477h4.12l-2.267 12.907h6.317z" class="cls-3" transform="translate(839.293 148.375)"/>
        <g id="그룹_434" transform="translate(812.609 140.924)">
            <g id="그룹_433" clip-path="url(#clip-path)">
                <path id="패스_214" d="M75.828 31.416a1.89 1.89 0 0 0 .939-.229l-.115 2.587a3.732 3.732 0 0 1-2.449.892q-2.081 0-2.7-.96a2.476 2.476 0 0 1-.412-1.363 7.773 7.773 0 0 1 .091-1.269l1.373-7.735h3.89l-1.282 7.208a1.518 1.518 0 0 0-.023.252c0 .413.229.618.687.618m-2.814-11.809a2.993 2.993 0 0 1 .652-2.14 2.7 2.7 0 0 1 2.024-.675q1.923 0 1.923 1.692a2.912 2.912 0 0 1-.652 2.106 2.766 2.766 0 0 1-2.049.665q-1.9 0-1.9-1.648" class="cls-3" transform="translate(30.183 7.13)"/>
                <path id="패스_215" d="M87.107 21.387a8.285 8.285 0 0 1 .321 2.551 11.859 11.859 0 0 1-.389 3.056 10.772 10.772 0 0 1-1.178 2.781 6.027 6.027 0 0 1-2.2 2.128 6.368 6.368 0 0 1-3.239.812q-2.859 0-3.959-1.167a3.373 3.373 0 0 1-.732-2.38 9.245 9.245 0 0 1 .184-1.717l1.074-6.064h3.89l-1.076 6.087a3.206 3.206 0 0 0-.068.618 1.174 1.174 0 0 0 1.35 1.3q2.38 0 2.38-4.989a20.314 20.314 0 0 0-.184-2.587l-.068-.434z" class="cls-3" transform="translate(32.154 9.08)"/>
                <path id="패스_216" d="M89.022 32.817q-4.759 0-4.759-3.3a5.752 5.752 0 0 1 .091-.984l.48-2.838a5.059 5.059 0 0 1 2.026-3.375 7.258 7.258 0 0 1 4.336-1.18q4.6 0 4.6 3.479a7.215 7.215 0 0 1-.091 1.1l-.275 1.625h-6.98l-.091.526a3.008 3.008 0 0 0-.046.5q0 1.259 1.489 1.258a1.367 1.367 0 0 0 .937-.343 1.3 1.3 0 0 0 .457-.8l3.8.046q-.754 4.28-5.973 4.279m2.747-6.865a3.23 3.23 0 0 0 .091-.721 1.047 1.047 0 0 0-.3-.675 1.191 1.191 0 0 0-.95-.343 1.845 1.845 0 0 0-1.188.434 2.3 2.3 0 0 0-.745 1.3z" class="cls-3" transform="translate(35.775 8.978)"/>
                <path id="패스_217" d="M63.063 48.7H47.947l-2.613 15H35.047l7.217-40.912h28.527L69.2 31.657H50.9l-1.422 8.181H64.6z" class="cls-5" transform="translate(14.88 9.677)"/>
                <path id="패스_218" d="M83.818 51.127a1.318 1.318 0 0 0 1.506 1.473 5.142 5.142 0 0 0 2.529-.568l-.284 6.422a9.478 9.478 0 0 1-6.137 2.215q-6.252 0-6.932-4.546a9.24 9.24 0 0 1-8.354 4.546q-9.321 0-9.319-8.013a17.7 17.7 0 0 1 .285-3.01L58.3 43a14.133 14.133 0 0 1 4.177-8.156A12.014 12.014 0 0 1 71 31.807q5.255 0 7.131 2.442l.285-1.7h8.637l-3.182 17.9a4.084 4.084 0 0 0-.057.682M67 48.4a6.805 6.805 0 0 0-.114 1.42 2.6 2.6 0 0 0 .853 1.791 3.88 3.88 0 0 0 2.869.88A4.616 4.616 0 0 0 74.1 50.9l1.705-9.546q-.626-1.419-2.955-1.42-4.376 0-5.114 4.205z" class="cls-5" transform="translate(24.127 13.504)"/>
                <path id="패스_219" d="M91.463 60.708q-11.819 0-11.82-8.183a14.22 14.22 0 0 1 .228-2.443l1.192-7.046a12.251 12.251 0 0 1 4.973-8.355 17.631 17.631 0 0 1 10.314-2.954q12.1 0 12.1 8.411a11.6 11.6 0 0 1-.426 3.268 5.5 5.5 0 0 1-.88 1.959l-.456.57h-9.66a3.817 3.817 0 0 0 1.42-2.955q0-3.071-3.069-3.07a4.747 4.747 0 0 0-3.124 1.08 5.307 5.307 0 0 0-1.705 3.3l-.739 4.148a5.522 5.522 0 0 0-.113 1.08q0 3.013 3.749 3.012a3.5 3.5 0 0 0 2.245-.8 2.939 2.939 0 0 0 1.165-1.761l9.432.114q-1.869 10.626-14.826 10.625" class="cls-5" transform="translate(33.814 13.47)"/>
                <path id="패스_220" d="M112.633 63.283q-6.592 0-9.49-2.955a7.833 7.833 0 0 1-2.16-5.8 15.5 15.5 0 0 1 .228-2.556l3.863-21.991 10.4-4.319-1.648 9.49h15.684l-1.42 8.012h-15.685l-1.137 6.422a9.509 9.509 0 0 0-.227 1.932q0 3.579 3.409 3.58a3.746 3.746 0 0 0 3.04-1.534 8.993 8.993 0 0 0 1.677-4.091h9.433q-2.385 13.808-15.967 13.808" class="cls-5" transform="translate(42.874 10.896)"/>
                <path id="패스_221" d="M138.4 31.767q6.139 0 9.263 2.671a7.31 7.31 0 0 1 2.445 5.852 14.515 14.515 0 0 1-.285 2.728l-1.192 6.648q-1.081 6.022-5.029 8.525t-10.543 2.5q-6.59 0-9.657-2.5a6.874 6.874 0 0 1-2.274-5.627 16.722 16.722 0 0 1 .282-2.9l1.2-6.648q1.989-11.251 15.8-11.251m1.536 12.388a7.763 7.763 0 0 0 .113-1.45 3.574 3.574 0 0 0-.737-1.96 2.918 2.918 0 0 0-2.587-1.078 4.265 4.265 0 0 0-3.1 1.221 5.743 5.743 0 0 0-1.59 3.268l-.738 4.261a7.534 7.534 0 0 0-.114 1.45 3.327 3.327 0 0 0 .738 1.9 2.978 2.978 0 0 0 2.584 1.021 4.158 4.158 0 0 0 3.1-1.278 5.876 5.876 0 0 0 1.59-3.1z" class="cls-5" transform="translate(51.427 13.487)"/>
                <path id="패스_222" d="M170.425 38.358a12.373 12.373 0 0 1-1.932 6.422l-.625.795h-8.58a4.227 4.227 0 0 0 1.42-3.239 2.272 2.272 0 0 0-.654-1.677 2.425 2.425 0 0 0-1.789-.652 4.106 4.106 0 0 0-3.353 1.933l-3.183 17.96h-9.659l4.83-27.337h8.979l-.679 3.807q3.24-4.6 7.841-4.6 3.695 0 5.542 1.761a6.364 6.364 0 0 1 1.846 4.831" class="cls-5" transform="translate(60.318 13.487)"/>
                <path id="패스_223" d="M173.076 47.441a12.374 12.374 0 0 0-.171 2.044q0 2.729 3.069 2.728a5.443 5.443 0 0 0 4.148-1.761l3.178-18.127h9.661l-5 28.242a19.817 19.817 0 0 1-5.71 11.422 14.455 14.455 0 0 1-10.2 4.2q-5.742 0-8.268-2.1a6.824 6.824 0 0 1-2.53-5.513q0-4.829 5.968-8.58-3.239-.795-4.091-3.237a8.724 8.724 0 0 1-.511-3.071 21.585 21.585 0 0 1 .285-3.466l3.181-17.9h9.66zm.283 20.626q3.695 0 4.831-6.705l.568-3.3q-7.9 3.695-7.9 7.445a2.616 2.616 0 0 0 .654 1.848 2.381 2.381 0 0 0 1.846.709" class="cls-5" transform="translate(68.463 13.724)"/>
                <path id="패스_224" d="M113.135 18.419a9.279 9.279 0 0 0-7.177 3.4l1.647 1.635a6.967 6.967 0 0 1 11.06 0l1.647-1.635a9.277 9.277 0 0 0-7.177-3.4" class="cls-5" transform="translate(44.986 7.82)"/>
                <path id="패스_225" d="M113.92 15.822a12.963 12.963 0 0 0-9.811 4.48l1.581 1.573a10.753 10.753 0 0 1 16.459 0l1.581-1.573a12.963 12.963 0 0 0-9.811-4.48" class="cls-5" transform="translate(44.201 6.717)"/>
                <path id="패스_226" d="M112.328 21.075a5.5 5.5 0 0 0-4.47 2.3l1.665 1.655a3.2 3.2 0 0 1 5.61 0l1.665-1.655a5.5 5.5 0 0 0-4.47-2.3" class="cls-5" transform="translate(45.793 8.948)"/>
                <path id="패스_227" d="M109.04 56.293h.678v6.117h2.6v.654h-3.278z" class="cls-6" transform="translate(46.294 23.9)"/>
                <path id="패스_228" d="M112.138 56.083a.532.532 0 0 1 0 1.064.5.5 0 0 1-.372-.157.531.531 0 0 1 0-.751.5.5 0 0 1 .372-.157m-.321 2.063h.644v5.009h-.644z" class="cls-6" transform="translate(47.386 23.811)"/>
                <path id="패스_229" d="M112.617 57.531h.685l1.682 3.651 1.661-3.651h.691l-2.294 5.009h-.12z" class="cls-6" transform="translate(47.813 24.426)"/>
                <path id="패스_230" d="M120.707 60.916l.543.285a2.955 2.955 0 0 1-.617.846 2.434 2.434 0 0 1-.788.491 2.772 2.772 0 0 1-.992.168 2.394 2.394 0 0 1-1.916-.8 2.707 2.707 0 0 1-.691-1.816 2.679 2.679 0 0 1 .584-1.7 2.4 2.4 0 0 1 1.987-.949 2.466 2.466 0 0 1 2.044.972 2.714 2.714 0 0 1 .554 1.712h-4.507a2.048 2.048 0 0 0 .558 1.432 1.782 1.782 0 0 0 1.331.557 2.114 2.114 0 0 0 .745-.134 1.894 1.894 0 0 0 .615-.353 2.973 2.973 0 0 0 .548-.709m0-1.349a2.134 2.134 0 0 0-.376-.823 1.763 1.763 0 0 0-.652-.5 1.993 1.993 0 0 0-.852-.188 1.837 1.837 0 0 0-1.268.474 2.15 2.15 0 0 0-.584 1.036z" class="cls-6" transform="translate(49.354 24.387)"/>
                <path id="패스_231" d="M128.629 57.6l-.534.41a2.9 2.9 0 0 0-1.06-.872 3.09 3.09 0 0 0-1.36-.3 3.01 3.01 0 0 0-1.5.389 2.806 2.806 0 0 0-1.07 1.046 2.882 2.882 0 0 0-.38 1.474 2.773 2.773 0 0 0 .85 2.067 2.944 2.944 0 0 0 2.143.829 3.012 3.012 0 0 0 2.379-1.114l.534.4a3.375 3.375 0 0 1-1.264 1 3.956 3.956 0 0 1-1.691.352 3.517 3.517 0 0 1-2.8-1.182 3.567 3.567 0 0 1-.86-2.412 3.353 3.353 0 0 1 1.043-2.5 3.592 3.592 0 0 1 2.611-1.016 3.822 3.822 0 0 1 1.712.376 3.34 3.34 0 0 1 1.252 1.051" class="cls-6" transform="translate(51.801 23.849)"/>
                <path id="패스_232" d="M129.778 57.44a2.475 2.475 0 0 1 1.919.839 2.689 2.689 0 0 1-.04 3.643 2.647 2.647 0 0 1-3.762 0 2.686 2.686 0 0 1-.04-3.64 2.484 2.484 0 0 1 1.923-.842m0 .631a1.853 1.853 0 0 0-1.382.594 1.976 1.976 0 0 0-.577 1.436 2.043 2.043 0 0 0 .264 1.013 1.877 1.877 0 0 0 .709.725 2.025 2.025 0 0 0 1.967 0 1.894 1.894 0 0 0 .712-.725 2.041 2.041 0 0 0 .262-1.013 1.983 1.983 0 0 0-.578-1.436 1.862 1.862 0 0 0-1.378-.594" class="cls-6" transform="translate(53.989 24.387)"/>
                <path id="패스_233" d="M131.467 57.57h.644v.865a2.518 2.518 0 0 1 .691-.7 1.973 1.973 0 0 1 1.029-.295 1.718 1.718 0 0 1 .692.144 1.494 1.494 0 0 1 .534.379 2.077 2.077 0 0 1 .358.68 2.4 2.4 0 0 1 .8-.9 1.907 1.907 0 0 1 1.037-.306 1.618 1.618 0 0 1 .916.264 1.567 1.567 0 0 1 .591.731 3.925 3.925 0 0 1 .192 1.41v2.734h-.651v-2.731a3.574 3.574 0 0 0-.114-1.108.991.991 0 0 0-.393-.484 1.171 1.171 0 0 0-.662-.185 1.448 1.448 0 0 0-.856.276 1.577 1.577 0 0 0-.566.737 4.649 4.649 0 0 0-.179 1.537v1.962h-.645v-2.566a4.375 4.375 0 0 0-.113-1.231 1.018 1.018 0 0 0-.393-.521 1.144 1.144 0 0 0-.668-.2 1.438 1.438 0 0 0-.835.269 1.6 1.6 0 0 0-.575.725 3.915 3.915 0 0 0-.187 1.395v2.123h-.644z" class="cls-6" transform="translate(55.816 24.387)"/>
                <path id="패스_234" d="M137.476 57.57h.644v.865a2.518 2.518 0 0 1 .691-.7 1.973 1.973 0 0 1 1.029-.295 1.718 1.718 0 0 1 .692.144 1.494 1.494 0 0 1 .534.379 2.076 2.076 0 0 1 .358.68 2.4 2.4 0 0 1 .8-.9 1.907 1.907 0 0 1 1.037-.306 1.619 1.619 0 0 1 .916.264 1.567 1.567 0 0 1 .591.731 3.925 3.925 0 0 1 .192 1.41v2.734h-.658v-2.731a3.573 3.573 0 0 0-.114-1.108.991.991 0 0 0-.393-.484 1.17 1.17 0 0 0-.662-.185 1.448 1.448 0 0 0-.856.276 1.576 1.576 0 0 0-.566.737 4.649 4.649 0 0 0-.18 1.537v1.962h-.645v-2.566a4.375 4.375 0 0 0-.113-1.231 1.019 1.019 0 0 0-.393-.521 1.144 1.144 0 0 0-.668-.2 1.438 1.438 0 0 0-.835.269 1.6 1.6 0 0 0-.575.725 3.915 3.915 0 0 0-.187 1.395v2.123h-.644z" class="cls-6" transform="translate(58.368 24.387)"/>
                <path id="패스_235" d="M147.776 60.916l.543.285a2.954 2.954 0 0 1-.617.846 2.434 2.434 0 0 1-.788.491 2.772 2.772 0 0 1-.991.168 2.394 2.394 0 0 1-1.916-.8 2.707 2.707 0 0 1-.691-1.816 2.679 2.679 0 0 1 .584-1.7 2.4 2.4 0 0 1 1.987-.949 2.466 2.466 0 0 1 2.044.972 2.715 2.715 0 0 1 .554 1.712h-4.507a2.047 2.047 0 0 0 .558 1.432 1.782 1.782 0 0 0 1.331.557 2.114 2.114 0 0 0 .745-.134 1.9 1.9 0 0 0 .615-.353 2.974 2.974 0 0 0 .548-.709m0-1.349a2.135 2.135 0 0 0-.376-.823 1.763 1.763 0 0 0-.652-.5 1.993 1.993 0 0 0-.852-.188 1.837 1.837 0 0 0-1.268.474 2.15 2.15 0 0 0-.584 1.036z" class="cls-6" transform="translate(60.847 24.387)"/>
                <path id="패스_236" d="M147.418 57.57h.658v.73a2.319 2.319 0 0 1 .621-.647 1.228 1.228 0 0 1 .681-.215 1.173 1.173 0 0 1 .571.171l-.336.543a.9.9 0 0 0-.34-.087.93.93 0 0 0-.621.265 1.672 1.672 0 0 0-.456.821 7.892 7.892 0 0 0-.12 1.731v1.7h-.658z" class="cls-6" transform="translate(62.589 24.387)"/>
                <path id="패스_237" d="M154.312 58.61l-.51.318a2.144 2.144 0 0 0-1.808-.88 2.086 2.086 0 0 0-1.519.59 1.914 1.914 0 0 0-.605 1.429 2.029 2.029 0 0 0 .278 1.03 1.94 1.94 0 0 0 .764.749 2.306 2.306 0 0 0 2.89-.611l.51.335a2.4 2.4 0 0 1-.964.839 3.067 3.067 0 0 1-1.379.3 2.723 2.723 0 0 1-1.969-.757 2.456 2.456 0 0 1-.784-1.836 2.628 2.628 0 0 1 .366-1.352 2.589 2.589 0 0 1 1.006-.973 2.935 2.935 0 0 1 1.432-.35 3.042 3.042 0 0 1 .959.152 2.615 2.615 0 0 1 .785.395 2.132 2.132 0 0 1 .548.623" class="cls-6" transform="translate(63.352 24.387)"/>
                <path id="패스_238" d="M157.753 60.916l.543.285a2.955 2.955 0 0 1-.617.846 2.434 2.434 0 0 1-.788.491 2.772 2.772 0 0 1-.991.168 2.394 2.394 0 0 1-1.916-.8 2.707 2.707 0 0 1-.691-1.816 2.679 2.679 0 0 1 .584-1.7 2.4 2.4 0 0 1 1.987-.949 2.466 2.466 0 0 1 2.044.972 2.715 2.715 0 0 1 .554 1.712h-4.507a2.047 2.047 0 0 0 .558 1.432 1.782 1.782 0 0 0 1.331.557 2.113 2.113 0 0 0 .745-.134 1.894 1.894 0 0 0 .615-.353 2.974 2.974 0 0 0 .548-.709m0-1.349a2.134 2.134 0 0 0-.376-.823 1.763 1.763 0 0 0-.652-.5 1.993 1.993 0 0 0-.852-.188 1.837 1.837 0 0 0-1.268.474 2.15 2.15 0 0 0-.584 1.036z" class="cls-6" transform="translate(65.083 24.387)"/>
                <path id="패스_239" d="M30.974 22.771H19.925a4.281 4.281 0 0 1 0-8.562h11.049a4.281 4.281 0 0 1 0 8.562" class="cls-3" transform="translate(6.642 6.033)"/>
                <path id="패스_240" fill="none" stroke="#fff" stroke-miterlimit="10" stroke-width="0.256px" d="M30.974 22.771H19.925a4.281 4.281 0 0 1 0-8.562h11.049a4.281 4.281 0 0 1 0 8.562z" transform="translate(6.642 6.033)"/>
                <path id="패스_241" d="M18.54 19.956v-4.282h.608V19.5h1.926v.454z" class="cls-5" transform="translate(7.871 6.654)"/>
                <path id="사각형_103" d="M0 0H0.608V4.282H0z" class="cls-5" transform="translate(29.568 22.329)"/>
                <path id="패스_242" d="M23.26 19.956l-1.618-4.282h.607l1.325 3.506 1.281-3.506h.531l-1.554 4.282z" class="cls-5" transform="translate(9.188 6.654)"/>
                <path id="패스_243" d="M24.676 19.956v-4.282h2.393v.453h-1.785V17.5h1.5v.45h-1.5v1.55h1.91v.454z" class="cls-5" transform="translate(10.476 6.654)"/>
                <path id="패스_244" fill="#e05555" d="M14.642 60.027l56.839 28.722V64.121z" transform="translate(6.216 25.485)"/>
            </g>
        </g>
        <path id="사각형_105" d="M0 0H294.372V116.586H0z" class="cls-1" transform="translate(812.609 140.924)"/>
    </g>
</svg>
