<svg xmlns="http://www.w3.org/2000/svg" width="1182" height="641" viewBox="0 0 1182 641">
    <defs>
        <clipPath id="clip-path">
            <rect id="사각형_1429" width="569" height="569" class="cls-1" rx="10" transform="translate(22077 -17042)"/>
        </clipPath>
        <clipPath id="clip-path-2">
            <path id="SVGID" d="M-982.886-28.87a29.883 29.883 0 0 0-29.883-29.881h-955.376a29.882 29.882 0 0 0-29.881 29.881v667.16a29.882 29.882 0 0 0 29.881 29.882h955.376a29.884 29.884 0 0 0 29.883-29.882V-28.87z" class="cls-2" transform="translate(1998.026 58.751)"/>
        </clipPath>
        <clipPath id="clip-path-3">
            <path id="SVGID-2" d="M-674.565 304.077a24.768 24.768 0 0 0-7.254-17.514 24.769 24.769 0 0 0-17.515-7.255h-104.742a24.769 24.769 0 0 0-17.515 7.255 24.768 24.768 0 0 0-7.254 17.514v260.548a24.77 24.77 0 0 0 7.254 17.515 24.772 24.772 0 0 0 17.515 7.255h104.741a24.772 24.772 0 0 0 17.515-7.255 24.77 24.77 0 0 0 7.254-17.515V304.077z" class="cls-2" transform="translate(828.845 -279.308)"/>
        </clipPath>
        <clipPath id="clip-path-4">
            <path id="교차_5" fill="none" d="M15.06 58.561C12.935 58.3-1.8 39.837.184 31.807c.452-1.828 2.036-2.273 2.544-6.546 1.045-8.786.886-22.949.362-23.045 1.069.122 4.445-.489 8.157-1.1 5.165-.851 10.981-1.7 12.14-.574 1.432 1.392-.787 16.868-.324 26.585.13 2.728 1.847 4.757 2.632 5.8 2.51 3.354-7.741 25.636-10.572 25.633a.514.514 0 0 1-.063.001zM3.085 2.216z"/>
        </clipPath>
        <filter id="패스_2552" width="172.28" height="328.086" x="813.558" y="120.539" filterUnits="userSpaceOnUse">
            <feOffset dy="3"/>
            <feGaussianBlur result="blur" stdDeviation="3"/>
            <feFlood flood-opacity=".149"/>
            <feComposite in2="blur" operator="in"/>
            <feComposite in="SourceGraphic"/>
        </filter>
        <filter id="사각형_1418" width="722" height="386" x="0" y="255" filterUnits="userSpaceOnUse">
            <feOffset dy="3"/>
            <feGaussianBlur result="blur-2" stdDeviation="3"/>
            <feFlood flood-opacity=".102"/>
            <feComposite in2="blur-2" operator="in"/>
            <feComposite in="SourceGraphic"/>
        </filter>
        <style>
            .cls-1{fill:#cfe1ff}.cls-2{fill:none;clip-rule:evenodd}.cls-11,.cls-13,.cls-14,.cls-15,.cls-16,.cls-18,.cls-19,.cls-20,.cls-21,.cls-23,.cls-24,.cls-25,.cls-31,.cls-6,.cls-7,.cls-9{fill-rule:evenodd}.cls-6{fill:#ebe9ea}.cls-33,.cls-7{fill:#fff}.cls-9{fill:#403641}.cls-11{fill:#f3d889}.cls-12{clip-path:url(#clip-path-3)}.cls-13{fill:#ff7976}.cls-14{fill:#a07262}.cls-15{fill:#c08f71}.cls-16{fill:#ffbebc}.cls-18{fill:#ff9e9d}.cls-19{fill:#f3e5e4}.cls-20{fill:#fbf2f3}.cls-21{fill:#d8ab82}.cls-23{fill:#ea9a43}.cls-24{fill:#6f5e68}.cls-25{fill:#9a8993}.cls-31{fill:#b25150}.cls-40{fill:#f27070}
        </style>
    </defs>
    <g id="그룹_2930" transform="translate(-16673 14323)">
        <g id="그룹_2919" transform="translate(-3316 3672)">
            <g id="그룹_2918" transform="translate(-4 -44)">
                <rect id="사각형_1419" width="569" height="569" class="cls-1" rx="10" transform="translate(20606 -17951)"/>
                <g id="마스크_그룹_16" clip-path="url(#clip-path)" transform="translate(-1471 -909)">
                    <g id="그룹_2917" transform="translate(806.682 -103.73)">
                        <path id="패스_2547" d="M-1443.049 889.9c1.98.866 2.3 84.189-6.1 110.059-6.521 20.065-38.611 40.213-44.341 45.162-4.249 3.67-1.187 12.92-1.187 12.92l334.872-2.652s2.4-6.952-.359-9.93c-9.34-10.07-41.261-30.546-45.12-50.729-6.454-33.761-10.455-67.111-9.591-104.407.151-6.5-228.169-.424-228.169-.424z" class="cls-6" transform="translate(22522.795 -17286.209)"/>
                        <path id="패스_2548" d="M-982.886-28.87a29.883 29.883 0 0 0-29.883-29.881h-955.376a29.882 29.882 0 0 0-29.881 29.881v667.16a29.882 29.882 0 0 0 29.881 29.882h955.376a29.884 29.884 0 0 0 29.883-29.882V-28.87z" class="cls-7" transform="translate(22684.023 -16982.523)"/>
                        <g id="그룹_2843" transform="translate(20686 -17041.275)">
                            <g id="그룹_2842" clip-path="url(#clip-path-2)">
                                <path id="패스_2549" d="M-970.844-91.079h-1052.863v635h1052.863v-635z" class="cls-9" transform="translate(2006.269 69.128)"/>
                                <path id="패스_2550" fill="#fff1f1" fill-rule="evenodd" d="M-999.133-11.406h-946.562v541.089h946.562V-11.406z" transform="translate(1981.228 43.553)"/>
                            </g>
                        </g>
                        <path id="패스_2551" d="M-1998.026 844.124v83.988a29.882 29.882 0 0 0 29.881 29.882h955.376a29.884 29.884 0 0 0 29.883-29.882v-83.988" class="cls-6" transform="translate(22684.023 -17272.346)"/>
                        <g id="그룹_2850" transform="translate(21479.875 -16811.73)">
                            <g filter="url(#패스_2552)" transform="translate(-822.56 -126.54)">
                                <path id="패스_2552-2" d="M-674.565 304.077a24.768 24.768 0 0 0-7.254-17.514 24.769 24.769 0 0 0-17.515-7.255h-104.742a24.769 24.769 0 0 0-17.515 7.255 24.768 24.768 0 0 0-7.254 17.514v260.548a24.77 24.77 0 0 0 7.254 17.515 24.772 24.772 0 0 0 17.515 7.255h104.741a24.772 24.772 0 0 0 17.515-7.255 24.77 24.77 0 0 0 7.254-17.515V304.077z" class="cls-11" transform="translate(1651.4 -152.77)"/>
                            </g>
                            <g id="그룹_2845">
                                <g id="그룹_2844" class="cls-12">
                                    <path id="패스_2553" d="M-797.546 554.76c-.881-3.434-.471-35.293.115-44.673.429-6.869 1.037-13.752 2.064-20.559 2.267-15.014 8.234-26.47 25.687-22.989 13.242 2.641 36.366 6.192 56.212 1.3 6.468-1.594 15.874-3.131 20.979-2.237 17.294 3.026 4.587 39.185-1.153 53.126-3.7 11.25-11.322 19.83-11.458 33.263-.16 15.849 4.144 31.186 5.614 46.863a1.263 1.263 0 0 1-.332 1.148c-5.308 4.665-49.174.43-57.325.077-2.506-.109-17.579.119-18.692-2.577-.23-.558-.719-3.386 1.108-12.426-11.744-8.429-21.334-24.519-22.821-30.318z" class="cls-13" transform="translate(818.962 -339.025)"/>
                                    <path id="패스_2554" d="M-697.427 383.6c-1-7.343 1.81-30.416.557-32.088-19.8-26.4-48.31-17.072-61.484-1.793-9.245 10.721-13.334 25.614-18.02 38.7-1.118 3.12-7.475 19.316-7.273 22.03.291 3.906 15.481 8.934 18.368 9.807a155.344 155.344 0 0 0 53.745 5.886c3.775-.244 17.737-1.2 20.593-3.63 1.934-1.646-1.264-12.825-1.728-14.99-1.7-7.942-3.66-15.863-4.758-23.92z" class="cls-14" transform="translate(814.338 -297.14)"/>
                                    <path id="패스_2555" d="M-656.216 422.157a.246.246 0 0 1-.069-.217.248.248 0 0 1 .285-.2.279.279 0 0 1 .182.116 1.309 1.309 0 0 1 .145.419c.177.826.38 2.865.4 3.016q.3 1.93.614 3.858c1.1 6.744 2.608 14.087 4.222 20.721a.249.249 0 0 1-.183.3.249.249 0 0 1-.3-.183c-1.616-6.645-3.125-14-4.229-20.758q-.315-1.93-.615-3.862a32.088 32.088 0 0 0-.454-3.2z" class="cls-15" transform="translate(773.454 -325.026)"/>
                                    <path id="패스_2556" d="M-658.967 436.4a32.018 32.018 0 0 0 .841 5.92 111.3 111.3 0 0 0 2.9 13.373.248.248 0 0 0 .309.167.247.247 0 0 0 .166-.308 110.883 110.883 0 0 1-2.883-13.314 31.477 31.477 0 0 1-.834-5.824.248.248 0 0 0-.242-.255.248.248 0 0 0-.255.241z" class="cls-15" transform="translate(774.315 -329.658)"/>
                                    <path id="패스_2557" d="M-662.588 443.672c.382 5.389 1.4 10.264 2.22 15.6a.248.248 0 0 0 .282.208.249.249 0 0 0 .208-.283c-.82-5.325-1.834-10.188-2.215-15.563a.248.248 0 0 0-.265-.23.248.248 0 0 0-.23.265z" class="cls-15" transform="translate(775.477 -331.983)"/>
                                    <path id="패스_2558" d="M-667.667 447.64a3.969 3.969 0 0 0-.019 1.609c.124.844.375 1.747.453 2.351.406 3.142.835 6.283 1.164 9.435a.248.248 0 0 0 .273.221.248.248 0 0 0 .221-.272c-.329-3.155-.758-6.3-1.165-9.448-.079-.606-.33-1.513-.454-2.359a3.472 3.472 0 0 1 0-1.4.248.248 0 0 0-.168-.308.247.247 0 0 0-.307.168z" class="cls-15" transform="translate(777.136 -333.285)"/>
                                    <path id="패스_2559" d="M-672.848 452.1c.522 3.785.517 7.177 1.2 10.953a.249.249 0 0 0 .289.2.248.248 0 0 0 .2-.289c-.685-3.768-.68-7.154-1.2-10.932a.248.248 0 0 0-.28-.212.248.248 0 0 0-.212.28z" class="cls-15" transform="translate(778.771 -334.685)"/>
                                    <path id="패스_2560" d="M-679.472 455.311c-.314 1.549.589 7.8.712 9a.248.248 0 0 0 .272.221.248.248 0 0 0 .221-.272c-.121-1.182-1.028-7.326-.72-8.849a.248.248 0 0 0-.194-.293.248.248 0 0 0-.292.193z" class="cls-15" transform="translate(780.918 -335.741)"/>
                                    <path id="패스_2561" d="M-685.958 455.1c-.029 2.749.835 6.493 1.225 9.206a.249.249 0 0 0 .281.21.248.248 0 0 0 .21-.281c-.388-2.69-1.248-6.4-1.22-9.129a.248.248 0 0 0-.246-.251.248.248 0 0 0-.251.245z" class="cls-15" transform="translate(782.979 -335.658)"/>
                                    <path id="패스_2562" d="M-691.172 453.157c-.314 3.226.424 7.476.8 10.671a.248.248 0 0 0 .276.217.248.248 0 0 0 .218-.275c-.373-3.164-1.11-7.371-.8-10.565a.248.248 0 0 0-.223-.271.248.248 0 0 0-.271.223z" class="cls-15" transform="translate(784.676 -335.041)"/>
                                    <path id="패스_2563" d="M-741.234 410.955a102.837 102.837 0 0 0-8.574 27.627.248.248 0 0 0 .207.283.248.248 0 0 0 .283-.207 102.365 102.365 0 0 1 8.533-27.492.248.248 0 0 0-.119-.33.249.249 0 0 0-.33.119z" class="cls-15" transform="translate(803.475 -321.521)"/>
                                    <path id="패스_2564" d="M-735.3 416.819c-1.985 3.21-2.762 7.787-3.893 11.341a.248.248 0 0 0 .161.312.248.248 0 0 0 .312-.161c1.12-3.519 1.877-8.054 3.843-11.231a.248.248 0 0 0-.081-.342.248.248 0 0 0-.341.08z" class="cls-15" transform="translate(800.07 -323.411)"/>
                                    <path id="패스_2565" d="M-730.248 419a80.046 80.046 0 0 0-2.491 13.89.248.248 0 0 0 .217.275.248.248 0 0 0 .275-.217 79.51 79.51 0 0 1 2.473-13.8.248.248 0 0 0-.166-.309.247.247 0 0 0-.309.165z" class="cls-15" transform="translate(797.996 -324.093)"/>
                                    <path id="패스_2566" d="M-724.746 420.891c-.833 6.734-1.652 13.444-2 20.232a.247.247 0 0 0 .235.261.248.248 0 0 0 .26-.236c.345-6.775 1.163-13.473 1.995-20.2a.248.248 0 0 0-.216-.276.248.248 0 0 0-.276.216z" class="cls-15" transform="translate(796.071 -324.686)"/>
                                    <path id="패스_2567" d="M-726.456 427.612c.528.013.691 14.233-.357 23.045-.509 4.274-2.092 4.718-2.544 6.546-1.988 8.03 12.751 26.494 14.877 26.754 2.741.336 13.162-22.251 10.634-25.63-.784-1.048-2.5-3.077-2.632-5.8-.463-9.717 1.756-25.194.324-26.586-1.994-1.937-17.759 1.973-20.3 1.674z" class="cls-16" transform="translate(796.968 -326.202)"/>
                                </g>
                            </g>
                            <g id="그룹_2847" transform="translate(67.428 99.194)">
                                <g id="그룹_2846" clip-path="url(#clip-path-4)">
                                    <path id="패스_2568" d="M-734.286 423.687c1.2 9.93 14.457 20.979 21.216 25.835.816.585 7.853 5.667 8.282 5.389 1.478-.961 1.391-5.847 1.46-7.511.566-13.606-2.912-13.136-13.611-18.884-4.872-2.618-12.111-3.51-17.346-4.829z" class="cls-18" transform="translate(731.064 -424.847)"/>
                                </g>
                            </g>
                            <g id="그룹_2849">
                                <g id="그룹_2848" class="cls-12">
                                    <path id="패스_2569" d="M-705.54 520.019c-.037-.689-18.83-7.532-18.385-8.166A153.392 153.392 0 0 1-713.6 498.76c.433-.492 3.821-4.565 4.221-4.439a17.311 17.311 0 0 1 4.355 2.436c2.206 2.12 9.532 6.866 9.561 7.726.021.6-9.706 15.174-10.078 15.535z" class="cls-13" transform="translate(795.168 -348.326)"/>
                                    <path id="패스_2570" d="M-726.991 400.262c-.624-3.229-3.885-24.671-1.541-30.825 2.51-6.587 6.276-17.094 15.157-21.078 17.366-7.792 29.281-.59 33.5 5.842 4.8 7.31 2.7 15.384 2.97 23.606.209 6.317-.288 14-.4 20.264a20.642 20.642 0 0 1-1.968 8.141c-2 4.4-8.353 14.421-13.568 16.59s-14.807-2.055-17.726-3.575c-8.386-4.366-14.426-8.6-16.428-18.965z" class="cls-16" transform="translate(796.913 -300.384)"/>
                                    <path id="패스_2571" d="M-661.048 389.9a12.942 12.942 0 0 0-8.521 1.093 6.16 6.16 0 0 0-3.2 3.5 13.943 13.943 0 0 0 .337 7.533 42.838 42.838 0 0 1 1.655 7.032c.189 2.29-1.19 4.5-3.65 4.54a.634.634 0 0 0-.622.644.632.632 0 0 0 .643.622c3.238-.054 5.138-2.894 4.89-5.909a44.117 44.117 0 0 0-1.684-7.255 12.7 12.7 0 0 1-.346-6.858 4.909 4.909 0 0 1 2.577-2.735 11.635 11.635 0 0 1 7.658-.972.633.633 0 0 0 .752-.485.633.633 0 0 0-.485-.752z" class="cls-9" transform="translate(779.475 -314.718)"/>
                                    <path id="패스_2572" d="M-704.379 393.617a14.733 14.733 0 0 1 13.417.772.633.633 0 0 0 .876-.183.634.634 0 0 0-.184-.877 16 16 0 0 0-14.587-.884.633.633 0 0 0-.347.825.633.633 0 0 0 .825.347z" class="cls-9" transform="translate(789.172 -315.199)"/>
                                    <path id="패스_2573" d="M-693.6 400.105a2.432 2.432 0 0 1 2.431 2.431 2.433 2.433 0 0 1-2.431 2.431 2.432 2.432 0 0 1-2.431-2.431 2.432 2.432 0 0 1 2.431-2.431z" class="cls-9" transform="translate(786.211 -318.084)"/>
                                    <path id="패스_2574" d="M-665.7 399.393a2.432 2.432 0 0 1 2.431 2.431 2.432 2.432 0 0 1-2.431 2.431 2.432 2.432 0 0 1-2.431-2.431 2.432 2.432 0 0 1 2.431-2.431z" class="cls-9" transform="translate(777.256 -317.855)"/>
                                    <path id="패스_2575" d="M-679.3 433.98c-1.107-3.43-2.857-2.312-8.766-3.244-4.431-.7-9.6-5.112-12.409-1.926-4.709 5.349 4.3 11.451 10.221 12.314 6.729.982 12-3.913 10.954-7.143z" class="cls-7" transform="translate(788.06 -326.931)"/>
                                    <path id="패스_2576" d="M-725.682 388.923c3.555-2.074 4.332-7.995 5.706-11.591 2.6-6.818 8.234-15.584 15.476-18.292a32.632 32.632 0 0 1 18.656-1.647c4.2.955 9.406 6.166 9.505 5.47.115-.8-1.71-4.964-5.638-7.957-2.952-2.249-7.8-3.543-9.975-3.891-6.679-1.071-23.45 4.385-29.1 11.972a29.756 29.756 0 0 0-4.633 25.936z" class="cls-14" transform="translate(796.103 -302.283)"/>
                                    <path id="패스_2577" d="M-732.2 400.421c-3.4-2.526-8.568-2.073-11.17-.635-3.971 2.194-5.742 7.2-7.117 11.232a183.19 183.19 0 0 0-6.952 28.858.248.248 0 0 0 .2.285.247.247 0 0 0 .285-.2 182.735 182.735 0 0 1 6.932-28.78c1.338-3.919 3.022-8.823 6.887-10.958 2.478-1.369 7.4-1.806 10.635.6a.248.248 0 0 0 .347-.051.248.248 0 0 0-.052-.347z" class="cls-15" transform="translate(805.924 -317.606)"/>
                                    <path id="패스_2578" d="M-733.365 394.747a14.719 14.719 0 0 0-5.981-1.546c-3.988-.2-7.377 1.855-9.969 4.75A48.52 48.52 0 0 0-758 412.785a129.125 129.125 0 0 0-6.154 23.474.247.247 0 0 0 .2.285.248.248 0 0 0 .286-.2 128.659 128.659 0 0 1 6.127-23.376 48.039 48.039 0 0 1 8.593-14.682c2.491-2.783 5.741-4.782 9.574-4.585a14.176 14.176 0 0 1 5.769 1.486.248.248 0 0 0 .336-.1.248.248 0 0 0-.1-.337z" class="cls-15" transform="translate(808.081 -315.863)"/>
                                    <path id="패스_2579" d="M-734.129 389.963a15.852 15.852 0 0 0-6.891-1.71c-6.913-.119-12.416 4.435-16.058 9.927a93.472 93.472 0 0 0-13.5 34.327.248.248 0 0 0 .2.287.249.249 0 0 0 .287-.2 92.952 92.952 0 0 1 13.427-34.136c3.55-5.353 8.9-9.821 15.636-9.7a15.415 15.415 0 0 1 6.7 1.666.248.248 0 0 0 .328-.125.248.248 0 0 0-.125-.327z" class="cls-15" transform="translate(810.143 -314.278)"/>
                                    <path id="패스_2580" d="M-735.082 385.071a31.16 31.16 0 0 0-4.777-1.664 21.14 21.14 0 0 0-10.374.5c-6.639 2.163-11.909 7.326-16.059 13.726-6.193 9.549-9.891 21.85-11.96 30.934a.248.248 0 0 0 .187.3.247.247 0 0 0 .3-.187c2.058-9.037 5.733-21.274 11.893-30.774 4.085-6.3 9.262-11.4 15.8-13.524a20.645 20.645 0 0 1 10.131-.483 30.528 30.528 0 0 1 4.67 1.632.249.249 0 0 0 .326-.13.249.249 0 0 0-.13-.326z" class="cls-15" transform="translate(812.607 -312.591)"/>
                                    <path id="패스_2581" d="M-731.457 380.821c-1.006-.407-3.02-1.221-3.489-1.348a29.686 29.686 0 0 0-8.7-.97c-12.553.483-21.264 10.74-27 20.866a.249.249 0 0 0 .094.338.248.248 0 0 0 .338-.094c5.657-9.983 14.213-20.138 26.589-20.614a29.132 29.132 0 0 1 8.555.953c.462.124 2.442.927 3.433 1.329a.248.248 0 0 0 .323-.136.248.248 0 0 0-.136-.323z" class="cls-15" transform="translate(810.175 -311.143)"/>
                                    <path id="패스_2582" d="M-727.654 376.2a22.641 22.641 0 0 0-2.785-1.6 28.7 28.7 0 0 0-6.474-2.3c-9.88-2.177-19.436 2.172-25.932 9.615a.248.248 0 0 0 .024.35.248.248 0 0 0 .35-.024c6.378-7.308 15.753-11.595 25.452-9.457a28.158 28.158 0 0 1 6.362 2.265 22.122 22.122 0 0 1 2.725 1.569.248.248 0 0 0 .344-.067.248.248 0 0 0-.066-.344z" class="cls-15" transform="translate(807.679 -308.975)"/>
                                    <path id="패스_2583" d="M-723.721 371.433a34.3 34.3 0 0 0-6.567-3.486c-13.6-4.545-19.575-3.015-26.026 2.326a.248.248 0 0 0-.033.349.248.248 0 0 0 .349.033c6.332-5.243 12.2-6.7 25.552-2.237a33.713 33.713 0 0 1 6.457 3.434.248.248 0 0 0 .342-.076.247.247 0 0 0-.075-.342z" class="cls-15" transform="translate(805.591 -306.9)"/>
                                    <path id="패스_2584" d="M-719.894 366.962a39.284 39.284 0 0 0-6.99-5.019c-6.317-3.006-15.836-5.257-23.27-1.275a.249.249 0 0 0-.1.336.249.249 0 0 0 .336.1c7.292-3.906 16.627-1.663 22.823 1.285a38.658 38.658 0 0 1 6.883 4.951.249.249 0 0 0 .35-.029.248.248 0 0 0-.029-.35z" class="cls-15" transform="translate(803.627 -304.737)"/>
                                    <path id="패스_2585" d="M-714.967 363.062a82.58 82.58 0 0 0-6.349-5.813c-5.108-3.837-12.205-5.5-19.2-5.418a.248.248 0 0 0-.245.25.248.248 0 0 0 .251.245c6.886-.084 13.873 1.543 18.9 5.319a82 82 0 0 1 6.3 5.766.248.248 0 0 0 .35 0 .248.248 0 0 0 0-.351z" class="cls-15" transform="translate(800.571 -302.587)"/>
                                    <path id="패스_2586" d="M-709.243 358.522a58.568 58.568 0 0 0-4.863-5.668c-4.331-4.127-10.794-7.631-15.55-9.549a.248.248 0 0 0-.323.137.248.248 0 0 0 .138.323c4.707 1.9 11.106 5.364 15.393 9.449a57.993 57.993 0 0 1 4.814 5.613.248.248 0 0 0 .348.043.248.248 0 0 0 .043-.348z" class="cls-15" transform="translate(797.115 -299.845)"/>
                                    <path id="패스_2587" d="M-702.821 355.388c-3.659-7.466-11.478-14.154-16.022-16.339a.248.248 0 0 0-.331.116.248.248 0 0 0 .116.331c4.48 2.154 12.185 8.75 15.792 16.111a.248.248 0 0 0 .332.113.248.248 0 0 0 .113-.332z" class="cls-15" transform="translate(793.649 -298.477)"/>
                                    <path id="패스_2588" d="M-695.767 353.385a35.112 35.112 0 0 0-2.714-5.385c-2.4-4.3-6.415-8.1-10.109-11.348a.249.249 0 0 0-.351.022.249.249 0 0 0 .022.35c3.654 3.217 7.632 6.969 10 11.218a34.408 34.408 0 0 1 2.679 5.308.248.248 0 0 0 .316.152.247.247 0 0 0 .152-.316z" class="cls-15" transform="translate(790.376 -297.695)"/>
                                    <path id="패스_2589" d="M-688.53 351.917c-.4-1.145-1.215-3.434-1.631-4.54-1.486-3.953-3.835-8.879-6.987-11.814a.249.249 0 0 0-.351.012.248.248 0 0 0 .013.35c3.1 2.887 5.4 7.739 6.861 11.626.415 1.1 1.224 3.39 1.627 4.532a.248.248 0 0 0 .316.151.248.248 0 0 0 .151-.316z" class="cls-15" transform="translate(786.704 -297.344)"/>
                                    <path id="패스_2590" d="M-681.767 352.4c-.09-1.183-.27-3.552-.354-4.227a54.327 54.327 0 0 0-2.53-10.189.248.248 0 0 0-.316-.153.247.247 0 0 0-.153.315 53.816 53.816 0 0 1 2.506 10.089c.084.671.263 3.026.352 4.2a.247.247 0 0 0 .266.228.248.248 0 0 0 .229-.266z" class="cls-15" transform="translate(782.714 -298.089)"/>
                                    <path id="패스_2591" d="M-676.8 353.272a.249.249 0 0 1 .012.154.248.248 0 0 1-.3.181.245.245 0 0 1-.159-.122.466.466 0 0 1-.046-.183c-.041-.479.064-2.8.065-2.917.011-2.76-.272-6.694-.517-9.442a.248.248 0 0 1 .225-.269.248.248 0 0 1 .27.225c.246 2.761.53 6.715.519 9.488 0 .113-.107 2.4-.066 2.874v.011zm-.094-.113zm-.028-.016l.011.006h.007l-.029-.014h.01zm-.021-.009h.009-.005zm-.013 0h.007-.007z" class="cls-15" transform="translate(780.343 -299.006)"/>
                                    <path id="패스_2592" d="M-671.837 354.816c.259-2.607.778-7.822.9-9.6a.248.248 0 0 0-.231-.263.247.247 0 0 0-.264.231c-.117 1.778-.635 6.983-.894 9.586a.248.248 0 0 0 .222.272.248.248 0 0 0 .271-.223z" class="cls-15" transform="translate(778.604 -300.379)"/>
                                    <path id="패스_2593" d="M-666.514 357.617c.257-1.651.469-3.906.674-5.564a.248.248 0 0 0-.215-.276.248.248 0 0 0-.277.216c-.2 1.653-.416 3.9-.672 5.549a.247.247 0 0 0 .206.283.249.249 0 0 0 .284-.207z" class="cls-15" transform="translate(776.895 -302.57)"/>
                                    <path id="패스_2594" d="M-661.727 360.389a33.27 33.27 0 0 0 .765-4.607.248.248 0 0 0-.2-.286.248.248 0 0 0-.286.2 32.66 32.66 0 0 1-.742 4.519.248.248 0 0 0 .149.318.249.249 0 0 0 .318-.149z" class="cls-15" transform="translate(775.355 -303.763)"/>
                                    <path id="패스_2595" d="M-736.869 385.177c-.5-.655 2.445-14.129 4.1-18.131 6.172-14.937 20.8-24.094 37.663-21.706 9.621 1.362 14.861 10.3 16.177 16.914.3 1.526-3.011-10.127-16.156-10.6-8.9-.316-17.374 2.709-22.282 7.545a39.016 39.016 0 0 0-10.386 19.381c-.591 2.565-.7 10.386-1.1 10.689-.789.6-7.342-3.786-8.018-4.1z" class="cls-19" transform="translate(799.339 -300.383)"/>
                                    <path id="패스_2596" d="M-729.718 405.794a40.357 40.357 0 0 0-5.087-3.1c-3.978-1.89-8.843 2.319-6.639 8.056 1.617 4.206 11.61 7.833 12.531 7.147 1.313-.976-.694-10.768-.805-12.1z" class="cls-16" transform="translate(800.966 -318.766)"/>
                                    <path id="패스_2597" d="M-734.862 407.994a7.162 7.162 0 0 0-1.347-.24 3.924 3.924 0 0 0-3 .741.254.254 0 0 1-.359-.024.254.254 0 0 1 .024-.359 4.47 4.47 0 0 1 3.374-.865c2.828.228 5.232 2.052 7.028 4.13a.254.254 0 0 1-.026.359.255.255 0 0 1-.359-.026 11.957 11.957 0 0 0-4.733-3.52l-.022.016a.249.249 0 0 1-.092.033l-.1.084a3.484 3.484 0 0 0-.944 2.166c-.19 1.881.925 3.533 2.086 4.9a.255.255 0 0 1-.029.359.255.255 0 0 1-.359-.03c-1.248-1.471-2.408-3.261-2.2-5.282a4.067 4.067 0 0 1 1.056-2.442zm.272.173a.216.216 0 0 1-.021-.023.259.259 0 0 1-.018-.026.242.242 0 0 0 .039.05z" class="cls-18" transform="translate(800.207 -320.364)"/>
                                    <path id="패스_2598" d="M-736.642 474.36c-5.374-3.565-17.368-14.12-18.207-19.018-.819-4.774 5.084-19.4 8.338-23.369.559-.683 8.348-3.028 8.6-2.855 2.018 1.4 1.708 7.588 2.143 9.889 1.365 7.228 5.89 17.9 7.986 25.791.686.788 1.3 1.634 1.727 2.1 2.086 2.26 4.045 4.443 6.322 6.506.189.172-2.554 2.9-5.052 5.835-2.854 3.359-5.437 6.776-5.532 6.569-.677-1.469-1.33-2.616-2.094-4.041-1.346-2.508-2.682-5.012-4.229-7.4z" class="cls-16" transform="translate(805.117 -327.394)"/>
                                    <path id="패스_2599" d="M-747.813 438.969c.37-.718 21.843-13.108 23.491-14.411.029-.023 1.651 3.332 1.1 3.6-2.4 1.158-22.455 13.7-22.867 13.729-.352.021-1.685-2.465-1.729-2.914z" class="cls-9" transform="translate(802.834 -325.933)"/>
                                    <path id="패스_2600" d="M-712.944 421.1s3.342-5.387 4.934-6.066c1.549-.661 3.836.782 4.622 1.994s1.332 4.047.1 5.277c-1.256 1.251-7.633 2.228-7.633 2.228l-2.019-3.433z" class="cls-7" transform="translate(791.641 -322.823)"/>
                                    <path id="패스_2601" d="M-717.024 425.788l3.1-2.491 2.241 4-3.614 1.562-1.723-3.067z" class="cls-19" transform="translate(792.95 -325.528)"/>
                                    <path id="패스_2602" d="M-711.649 421.007l5.323-5.435a.255.255 0 0 0 0-.36.255.255 0 0 0-.36 0l-5.323 5.435a.254.254 0 0 0 0 .36.255.255 0 0 0 .36 0z" class="cls-19" transform="translate(791.365 -322.91)"/>
                                    <path id="패스_2603" d="M-711.064 422.079l6.565-5.366a.254.254 0 0 0 .036-.358.254.254 0 0 0-.358-.036l-6.565 5.366a.254.254 0 0 0-.036.358.254.254 0 0 0 .358.036z" class="cls-19" transform="translate(791.171 -323.27)"/>
                                    <path id="패스_2604" d="M-710.45 423.549l7.437-5a.255.255 0 0 0 .069-.353.255.255 0 0 0-.353-.069l-7.437 5a.254.254 0 0 0-.069.353.255.255 0 0 0 .353.069z" class="cls-19" transform="translate(790.968 -323.856)"/>
                                    <path id="패스_2605" d="M-709.865 425.034l7.607-4.24a.254.254 0 0 0 .1-.346.254.254 0 0 0-.346-.1l-7.607 4.24a.255.255 0 0 0-.1.346.256.256 0 0 0 .346.1z" class="cls-19" transform="translate(790.774 -324.572)"/>
                                    <path id="패스_2606" d="M-709.165 426.817l7.232-2.908a.255.255 0 0 0 .141-.331.255.255 0 0 0-.331-.141l-7.232 2.907a.255.255 0 0 0-.141.331.255.255 0 0 0 .331.141z" class="cls-19" transform="translate(790.54 -325.567)"/>
                                    <path id="패스_2607" d="M-724.825 452.643c.548 1.778 3.02 7.4 3.571 9.175 1.145 3.685 2.508 9 3.547 10.671 1.832 2.947 4.959 5.6 7.493 7.925a.255.255 0 0 0 .359-.016.255.255 0 0 0-.016-.36c-2.5-2.294-5.6-4.909-7.4-7.819-1.027-1.653-2.362-6.91-3.493-10.554-.551-1.776-3.023-7.4-3.571-9.174a.254.254 0 0 0-.318-.168.254.254 0 0 0-.168.318z" class="cls-18" transform="translate(795.458 -334.843)"/>
                                    <path id="패스_2608" d="M-734.035 454.793c.124-.809-.7-6.818-.617-7.633.062-.587.117-1.174.177-1.761.205-1.994 1.15-7.847 4.515-5.8" class="cls-16" transform="translate(798.611 -330.624)"/>
                                    <path id="패스_2609" d="M-733.9 454.711a20.956 20.956 0 0 0-.187-2.866c-.2-1.962-.479-4.3-.428-4.779.061-.587.116-1.174.177-1.761a12.226 12.226 0 0 1 1.486-5.095 2.028 2.028 0 0 1 1.1-.858 1.992 1.992 0 0 1 1.546.346.254.254 0 0 0 .35-.085.254.254 0 0 0-.085-.35 2.473 2.473 0 0 0-1.938-.4 2.528 2.528 0 0 0-1.386 1.056 12.843 12.843 0 0 0-1.576 5.337c-.061.587-.116 1.174-.177 1.761-.052.494.223 2.878.428 4.883a20.692 20.692 0 0 1 .19 2.738.255.255 0 0 0 .213.29.255.255 0 0 0 .29-.213z" class="cls-18" transform="translate(798.731 -330.504)"/>
                                    <path id="패스_2610" d="M-739.949 436.608a6.159 6.159 0 0 0-.678 1.782c-.388 1.038-.791 2.065-1.235 3.079a4.182 4.182 0 0 0-.6 1.8 12.122 12.122 0 0 0 .954 2.6 1.1 1.1 0 0 1-.236 1.319 4.362 4.362 0 0 1-1.654.629 6.2 6.2 0 0 1-2.8.3 2.353 2.353 0 0 1-1.3-1.2 6.413 6.413 0 0 1-.983-3.662c.271-2.787 6.427-5.245 8.536-6.65z" class="cls-16" transform="translate(803.055 -329.801)"/>
                                    <path id="패스_2611" d="M-747.442 440.47a18.506 18.506 0 0 0-1.125 3.568c-.251 1.42.42 3.705 2.114 6.912a.256.256 0 0 0 .344.106.254.254 0 0 0 .106-.344c-1.617-3.062-2.3-5.23-2.063-6.586a17.893 17.893 0 0 1 1.089-3.45.254.254 0 0 0-.13-.335.254.254 0 0 0-.335.129z" class="cls-18" transform="translate(803.092 -330.992)"/>
                                    <path id="패스_2612" d="M-751.879 451.954c-.067 1.038-.2 3.113-.185 3.491a3.034 3.034 0 0 0 .739 1.739c.386.494.879.97 1.331 1.484a.255.255 0 0 0 .359.023.255.255 0 0 0 .023-.359c-.445-.507-.932-.974-1.312-1.461a2.541 2.541 0 0 1-.632-1.448c-.016-.371.118-2.414.185-3.436a.255.255 0 0 0-.238-.27.254.254 0 0 0-.27.238z" class="cls-18" transform="translate(804.199 -334.651)"/>
                                    <path id="패스_2613" d="M-754.23 459.786c-.046.661-.137 1.983-.122 2.362a7.482 7.482 0 0 0 1.8 3.724.254.254 0 0 0 .357.043.255.255 0 0 0 .043-.357 6.933 6.933 0 0 1-1.692-3.431c-.016-.37.075-1.66.12-2.305a.255.255 0 0 0-.236-.272.254.254 0 0 0-.271.236z" class="cls-18" transform="translate(804.933 -337.165)"/>
                                    <path id="패스_2614" d="M-731.087 432.608c-.041.057-.312.428-.348.467a10.2 10.2 0 0 1-1.469 1.343 9.093 9.093 0 0 1-5.009 1.78.255.255 0 0 1-.265-.244.254.254 0 0 1 .244-.265 8.571 8.571 0 0 0 4.725-1.68 9.7 9.7 0 0 0 1.4-1.277c.041-.044.3-.421.378-.5a.283.283 0 0 1 .17-.083.255.255 0 0 1 .278.227.254.254 0 0 1-.1.23z" class="cls-18" transform="translate(799.741 -328.37)"/>
                                    <path id="패스_2615" d="M-737.778 437.774a13.23 13.23 0 0 0-1.087 2.412c-.225.565-.628 1.281-.923 1.99a4.43 4.43 0 0 0-.384 1.448.985.985 0 0 0 .155.505 10.368 10.368 0 0 0 .642.861c.687 1 1.739 2.868 2.415 3.871a.255.255 0 0 0 .353.069.255.255 0 0 0 .069-.353c-.678-1-1.731-2.879-2.419-3.876-.108-.156-.362-.433-.544-.7a.713.713 0 0 1-.164-.35 3.93 3.93 0 0 1 .346-1.275c.3-.71.7-1.429.926-2a12.649 12.649 0 0 1 1.039-2.32.255.255 0 0 0-.072-.352.254.254 0 0 0-.352.071z" class="cls-18" transform="translate(800.381 -330.139)"/>
                                    <path id="패스_2616" d="M-767.445 475.244a.254.254 0 0 1-.046-.069.315.315 0 0 1-.035-.164.245.245 0 0 1 .075-.156.246.246 0 0 1 .172-.073.246.246 0 0 1 .222.115c.09.13 1.117 2.026 1.267 2.313.924 1.767 1.805 3.561 2.654 5.365a92.033 92.033 0 0 1 5.776 16.042.256.256 0 0 1-.182.311.254.254 0 0 1-.31-.182 91.5 91.5 0 0 0-5.744-15.955c-.845-1.8-1.723-3.585-2.644-5.346-.132-.253-1.026-1.88-1.2-2.2z" class="cls-20" transform="translate(809.162 -342.055)"/>
                                    <path id="패스_2617" d="M-758.786 482.294a.254.254 0 0 1-.138-.226.438.438 0 0 1 .055-.242.253.253 0 0 1 .179-.115.259.259 0 0 1 .266.12 1.8 1.8 0 0 1 .148.388c.108.366.249.941.331 1.211.445 1.455.862 2.915 1.236 4.39.928 3.659 1.763 7.35 2.431 11.066 1.973 10.962 3.362 31.853 4.53 42.918a.254.254 0 0 1-.226.28.254.254 0 0 1-.28-.226c-1.167-11.057-2.554-31.929-4.525-42.882-.667-3.7-1.5-7.383-2.424-11.03-.372-1.468-.787-2.92-1.229-4.367-.083-.271-.225-.849-.333-1.216l-.022-.069z" class="cls-20" transform="translate(806.401 -344.278)"/>
                                    <path id="패스_2618" d="M-767.63 574.273c2.655-.611 7.169-1.651 10.387-2.014a9.648 9.648 0 0 1 3.088-.017 8.573 8.573 0 0 1 3.907 2.7c8.761 9.376 15.48 20.966 23.307 31.124a.255.255 0 0 0 .357.046.255.255 0 0 0 .046-.357c-7.838-10.171-14.567-21.773-23.339-31.16a9.064 9.064 0 0 0-4.145-2.846 10.125 10.125 0 0 0-3.28 0c-3.236.366-7.775 1.41-10.444 2.025a.255.255 0 0 0-.191.3.254.254 0 0 0 .306.191z" class="cls-20" transform="translate(809.295 -373.14)"/>
                                    <path id="패스_2619" d="M-713.045 494.326a3.877 3.877 0 0 0-.356.282c-.3.272-.716.7-1.222 1.241-3.781 4.071-12.5 14.791-15.135 19.312-1.289 2.216-2.477 4.478-3.643 6.76-.492.961-1 1.92-1.432 2.908a.254.254 0 0 1-.335.13.254.254 0 0 1-.13-.336c.439-1 .948-1.964 1.444-2.933 1.171-2.29 2.364-4.56 3.658-6.784 2.642-4.541 11.4-15.313 15.2-19.4a13.028 13.028 0 0 1 1.638-1.585.52.52 0 0 1 .313-.105 3.8 3.8 0 0 1 1.249.494 47.522 47.522 0 0 1 5.19 3.586c7.148 5.461 17.692 14.81 19.169 17.376a.255.255 0 0 1-.094.348.254.254 0 0 1-.347-.094c-1.466-2.546-11.944-11.806-19.037-17.225a47.059 47.059 0 0 0-5.125-3.545 3.68 3.68 0 0 0-1.006-.427z" class="cls-20" transform="translate(798.824 -348.164)"/>
                                    <path id="패스_2620" d="M-681.152 498.2l.378-.477c2.235-2.819 13.68-17.173 18.207-21.26a.255.255 0 0 1 .359.018.254.254 0 0 1-.018.359c-4.514 4.074-15.922 18.388-18.15 21.2l-.377.477c-.115.145-.223.061-.3-.055-.115-.045-.2-.122-.109-.248l.009-.011z" class="cls-20" transform="translate(781.451 -342.574)"/>
                                    <path id="패스_2621" d="M-672.442 489.016a.255.255 0 0 1-.094.324.255.255 0 0 1-.351-.078.474.474 0 0 1-.064-.292 2.085 2.085 0 0 1 .255-.714c.8-1.564 3.688-5.3 8.012-10.516a.255.255 0 0 1 .358-.033.254.254 0 0 1 .033.358 118.457 118.457 0 0 0-7.566 9.758 5.656 5.656 0 0 0-.549 1.033 1.012 1.012 0 0 0-.035.16z" class="cls-20" transform="translate(778.804 -342.975)"/>
                                    <path id="패스_2622" d="M-734.065 541.643c2.855 1.609 12.446 5.939 15.03 7.956 3.216 2.51 8.251 8.09 13.057 12.462 3.245 2.953 6.395 5.351 8.817 5.934a2.974 2.974 0 0 0 1.987-.5 22.053 22.053 0 0 0 4.022-3.188c5.844-5.539 13.652-15.648 15.264-18.013a.255.255 0 0 0-.067-.354.255.255 0 0 0-.354.067c-1.6 2.353-9.377 12.416-15.194 17.93a21.526 21.526 0 0 1-3.919 3.112 2.494 2.494 0 0 1-1.621.452c-2.365-.569-5.425-2.933-8.594-5.816-4.816-4.381-9.864-9.971-13.086-12.487-2.6-2.026-12.225-6.382-15.093-8a.254.254 0 0 0-.347.1.255.255 0 0 0 .1.346z" class="cls-20" transform="translate(798.463 -363.364)"/>
                                    <path id="패스_2623" d="M-969.306 616.463h354.013l33.3 72.612v9.649h-420.623v-9.649l33.3-72.612z" class="cls-7" transform="translate(884.624 -387.534)"/>
                                    <path id="패스_2624" d="M-1000.863 723.693l417.026.658a.368.368 0 0 0 .405-.31.366.366 0 0 0-.4-.311l-417.026-.659a.368.368 0 0 0-.4.31.366.366 0 0 0 .4.311z" class="cls-9" transform="translate(884.192 -421.756)"/>
                                    <path id="패스_2625" d="M-522.256 453.216c-33.59 0-77.282 35.826-97.509 79.954s-9.377 79.954 24.212 79.954 77.281-35.825 97.508-79.954 9.378-79.954-24.212-79.954z" class="cls-21" transform="translate(764.999 -335.132)"/>
                                    <path id="패스_2626" d="M-524.1 448.244c-14.071 0-29.885 5.891-45.092 16.052-22.24 14.861-43.271 38.835-55.664 65.871-10.5 22.916-12.771 43.7-8.219 58.734 4.872 16.089 17.262 26 35.933 26 14.071 0 29.886-5.89 45.092-16.052 22.24-14.861 43.272-38.835 55.664-65.871 10.5-22.916 12.771-43.7 8.219-58.735-4.872-16.09-17.262-26-35.933-26zm.255 6.752c14.918 0 24.748 8 28.641 20.856 4.213 13.913 1.791 33.1-7.931 54.315-11.88 25.917-32.015 48.92-53.336 63.167-13.835 9.245-28.124 14.818-40.925 14.818-14.918 0-24.748-8-28.641-20.856-4.213-13.914-1.791-33.1 7.931-54.315 11.879-25.917 32.015-48.92 53.336-63.167 13.829-9.245 28.119-14.814 40.92-14.814z" class="cls-15" transform="translate(766.72 -333.536)"/>
                                    <path id="패스_2627" fill="#89bfc1" fill-rule="evenodd" d="M-845.14 611.354c.293.3-3.164 5.509-3.347 5.812-8.875 14.734-21.757 49.971-27.3 66.344-2.034 6.013-1.958 39.638-.29 52.3.833 6.324 25.181 2.581 30.918 2.649 11.521.135 22.292 4.854 33.7 5.3 7.21.281 13.564-2.227 20.484-3.679 3.721-.78 8.4-.255 11.908-1.687 2.812-1.149 4.551-48.236 4.982-51.407 3-22.053 8.048-48.456 13.56-73.567.481-2.189-61.748-1.345-84.621-2.065z" transform="translate(844.405 -385.894)"/>
                                    <path id="패스_2628" d="M-830.084 622.45s-.83-4.965 10.95-5.438c11.634-.466 12.674 4.592 12.674 4.592s-1.206 18.412-2.82 20.781c-2.459 3.606-13.634 3.272-16.522.649-2.326-2.112-4.283-20.585-4.283-20.585z" class="cls-7" transform="translate(829.247 -387.701)"/>
                                    <path id="패스_2629" d="M-828.262 621.986a1.671 1.671 0 0 1 .49-1.109 5 5 0 0 1 1.467-1.052 20.3 20.3 0 0 1 8.64-1.626 20.3 20.3 0 0 1 8.64 1.626 4.994 4.994 0 0 1 1.468 1.052 1.674 1.674 0 0 1 .49 1.109.248.248 0 0 0 .248.248.248.248 0 0 0 .248-.248c0-.962-.807-1.882-2.229-2.6a20.8 20.8 0 0 0-8.864-1.679 20.8 20.8 0 0 0-8.864 1.679c-1.422.722-2.23 1.641-2.23 2.6a.249.249 0 0 0 .249.248.248.248 0 0 0 .248-.248z" class="cls-11" transform="translate(828.817 -387.932)"/>
                                    <path id="패스_2630" d="M-819.9 630.8c-.592-.55-6.738-24.567-7.549-26.506-.014-.035 3.654-.692 3.76-.095.468 2.627 7.148 25.317 7.061 25.72-.075.345-2.827.959-3.272.881z" class="cls-9" transform="translate(828.396 -383.517)"/>
                                    <path id="패스_2631" d="M-830.006 599.1s-4.287-4.669-4.512-6.386c-.218-1.67 1.786-3.482 3.165-3.914s4.257-.192 5.109 1.33c.866 1.547.088 7.952.088 7.952l-3.85 1.019z" class="cls-7" transform="translate(830.671 -378.592)"/>
                                    <path id="패스_2632" d="M-826.893 606.532l-1.565-3.652 4.452-1.082.53 3.9-3.417.832z" class="cls-19" transform="translate(828.721 -382.827)"/>
                                    <path id="패스_2633" d="M-829.737 599.363l-3.8-6.591a.254.254 0 0 0-.347-.094.255.255 0 0 0-.094.348l3.8 6.591a.255.255 0 0 0 .348.093.255.255 0 0 0 .094-.347z" class="cls-19" transform="translate(830.504 -379.888)"/>
                                    <path id="패스_2634" d="M-828.389 598.523l-3.4-7.768a.254.254 0 0 0-.335-.131.255.255 0 0 0-.132.335l3.4 7.768a.254.254 0 0 0 .335.131.254.254 0 0 0 .131-.335z" class="cls-19" transform="translate(829.946 -379.233)"/>
                                    <path id="패스_2635" d="M-826.7 597.93l-2.808-8.508a.254.254 0 0 0-.321-.162.255.255 0 0 0-.161.322l2.808 8.508a.254.254 0 0 0 .321.162.254.254 0 0 0 .161-.321z" class="cls-19" transform="translate(829.216 -378.798)"/>
                                    <path id="패스_2636" d="M-825.089 597.689l-2.034-8.468a.255.255 0 0 0-.307-.188.255.255 0 0 0-.188.307l2.034 8.468a.255.255 0 0 0 .307.188.254.254 0 0 0 .187-.307z" class="cls-19" transform="translate(828.453 -378.727)"/>
                                    <path id="패스_2637" d="M-823.23 597.666l-.851-7.748a.255.255 0 0 0-.28-.225.254.254 0 0 0-.226.28l.852 7.748a.254.254 0 0 0 .28.225.254.254 0 0 0 .225-.281z" class="cls-19" transform="translate(827.479 -378.941)"/>
                                    <path id="패스_2638" d="M-828.088 605.485c1.5.94 1.647 2.653 1.873 3.956a8.186 8.186 0 0 1-.206 4.088 5.035 5.035 0 0 1-.786 1.363 5.7 5.7 0 0 0-.614.985 3.463 3.463 0 0 0-.093 2.353c1.7 5.418 3.095 9.829 4.858 15.064a.624.624 0 0 0 .79.392.624.624 0 0 0 .393-.79c-1.761-5.226-3.15-9.63-4.851-15.04a2.119 2.119 0 0 1 .029-1.442 19.752 19.752 0 0 0 1.44-2.444 9.462 9.462 0 0 0 .269-4.742c-.278-1.6-.6-3.642-2.439-4.8a.624.624 0 0 0-.86.2.624.624 0 0 0 .2.86z" class="cls-15" transform="translate(828.696 -383.641)"/>
                                    <path id="패스_2639" d="M-829.918 605.6c-1-.392-3.439-.2-4.282.6s-.913 3.015-.777 4.17a5.7 5.7 0 0 0 2.185 4.423c.908.7 3.866.073 4.588-.879.564-.743.526-2.322.2-4.457-.232-1.52-.8-3.417-1.916-3.857z" class="cls-23" transform="translate(830.831 -383.985)"/>
                                    <path id="패스_2640" d="M-802.229 630.405c-.416-.693.373-25.471.136-27.558 0-.037 3.7.353 3.638.956-.283 2.654-.19 26.306-.386 26.669-.167.309-2.982.132-3.388-.067z" class="cls-15" transform="translate(820.341 -383.163)"/>
                                    <path id="패스_2641" d="M-804.4 598.131s-4.751-5.122-4.505-6.606 3.823-2.177 5.98-2.294c3.842-.208 6.859 1.454 7.134 2.282.473 1.428-4.627 6.713-4.627 6.713l-3.981-.094z" class="cls-24" transform="translate(822.446 -378.787)"/>
                                    <path id="패스_2642" d="M-799.139 597.295l.087-7.5a.261.261 0 0 0-.258-.264.262.262 0 0 0-.263.258l-.088 7.5a.262.262 0 0 0 .258.264.262.262 0 0 0 .264-.258z" class="cls-25" transform="translate(819.477 -378.89)"/>
                                    <path id="패스_2643" d="M-800.779 597.343l-.779-7.463a.262.262 0 0 0-.286-.233.262.262 0 0 0-.232.287l.779 7.463a.261.261 0 0 0 .286.232.261.261 0 0 0 .232-.286z" class="cls-25" transform="translate(820.253 -378.926)"/>
                                    <path id="패스_2644" d="M-797.585 597.341l.78-7.464a.26.26 0 0 0-.232-.286.262.262 0 0 0-.287.232l-.779 7.464a.261.261 0 0 0 .232.286.262.262 0 0 0 .287-.232z" class="cls-25" transform="translate(818.977 -378.908)"/>
                                    <path id="패스_2645" d="M-802.715 597.536l-1.757-7.028a.261.261 0 0 0-.316-.189.261.261 0 0 0-.19.316l1.757 7.028a.261.261 0 0 0 .316.19.261.261 0 0 0 .189-.316z" class="cls-25" transform="translate(821.186 -379.14)"/>
                                    <path id="패스_2646" d="M-796.125 597.607l1.757-7.027a.261.261 0 0 0-.189-.316.26.26 0 0 0-.316.19l-1.757 7.028a.262.262 0 0 0 .19.316.261.261 0 0 0 .316-.19z" class="cls-25" transform="translate(818.507 -379.122)"/>
                                    <path id="패스_2647" d="M-804.723 596.739l-2.405-5.268a.26.26 0 0 0-.345-.129.261.261 0 0 0-.129.346l2.4 5.268a.26.26 0 0 0 .346.128.26.26 0 0 0 .129-.345z" class="cls-25" transform="translate(822.034 -379.463)"/>
                                    <path id="패스_2648" d="M-794.453 596.9l2.405-5.268a.261.261 0 0 0-.129-.346.261.261 0 0 0-.345.129l-2.405 5.269a.261.261 0 0 0 .129.345.261.261 0 0 0 .346-.129z" class="cls-25" transform="translate(817.965 -379.445)"/>
                                    <path id="패스_2649" d="M-802.254 605.536l-.68-3.841 4.89.123-.7 3.871-3.514-.153z" class="cls-19" transform="translate(820.528 -382.794)"/>
                                    <path id="패스_2650" d="M-807.134 630.457c-.379-.58-.5-21.845-.775-23.627-.005-.032 3.184.183 3.148.7-.157 2.283.689 22.554.532 22.872-.133.272-2.552.211-2.906.053z" class="cls-9" transform="translate(822.125 -384.441)"/>
                                    <path id="패스_2651" d="M-808.575 604.02l-.846-5.057 4.49 1.221-.228 3.788-3.416.048z" class="cls-7" transform="translate(822.61 -381.917)"/>
                                    <path id="패스_2652" d="M-807.987 609.1l-.544-3.365 3.93.025-.369 3.357-3.017-.017z" class="cls-19" transform="translate(822.324 -384.091)"/>
                                    <path id="패스_2653" d="M-812.445 620c-.2-.28-2.184-31.274-2.36-32.153 0-.016 1.586.017 1.579.276-.025 1.137 2.292 31.622 2.221 31.783a3.262 3.262 0 0 1-1.441.094z" class="cls-9" transform="translate(824.338 -378.348)"/>
                                    <path id="패스_2654" d="M-815.585 585.556s-1.4-2.311-1.35-3.047c.049-.716 1.039-1.306 1.651-1.37s1.795.277 2.023.984-.63 3.331-.63 3.331l-1.694.1z" class="cls-9" transform="translate(825.022 -376.193)"/>
                                    <path id="패스_2655" d="M-814.578 581.461l.25 3.553a.261.261 0 0 0 .278.242.261.261 0 0 0 .242-.279l-.25-3.553a.261.261 0 0 0-.279-.242.261.261 0 0 0-.242.278z" class="cls-24" transform="translate(824.266 -376.209)"/>
                                    <path id="패스_2656" d="M-816.29 582.436l.769 2.955a.26.26 0 0 0 .318.187.261.261 0 0 0 .187-.318l-.768-2.955a.261.261 0 0 0-.319-.187.261.261 0 0 0-.187.318z" class="cls-24" transform="translate(824.818 -376.507)"/>
                                    <path id="패스_2657" d="M-813.01 582.007l-.219 3.1a.26.26 0 0 0 .241.278.261.261 0 0 0 .279-.242l.219-3.1a.261.261 0 0 0-.242-.278.261.261 0 0 0-.278.242z" class="cls-24" transform="translate(823.832 -376.396)"/>
                                    <path id="패스_2658" d="M-814.791 588.941l-.347-1.657 1.951-.079-.106 1.675-1.5.061z" class="cls-19" transform="translate(824.445 -378.143)"/>
                                    <path id="패스_2659" d="M-815.207 620.942c-.222-.263-4.612-31.009-4.856-31.871 0-.015 1.581-.106 1.6.152.064 1.135 4.747 31.347 4.69 31.514a3.27 3.27 0 0 1-1.43.2z" class="cls-21" transform="translate(826.026 -378.733)"/>
                                    <path id="패스_2660" d="M-820.486 587.68l-.528-2.464 2.167.371.125 1.9-1.764.193z" class="cls-9" transform="translate(826.331 -377.504)"/>
                                    <path id="패스_2661" d="M-819.928 590.1l-.4-1.644 1.845-.218.047 1.684-1.489.178z" class="cls-19" transform="translate(826.112 -378.473)"/>
                                    <path id="패스_2662" d="M-801 632.882c.223-.263 4.613-31.009 4.856-31.871 0-.015-1.581-.106-1.6.152-.063 1.135-4.747 31.347-4.69 31.514a3.267 3.267 0 0 0 1.429.2z" class="cls-7" transform="translate(820.366 -382.565)"/>
                                    <path id="패스_2663" d="M-793.834 599.621l.527-2.464-2.167.371-.125 1.9 1.764.193z" class="cls-9" transform="translate(818.173 -381.337)"/>
                                    <path id="패스_2664" d="M-794.2 602.036l.4-1.644-1.845-.218-.047 1.684 1.489.178z" class="cls-19" transform="translate(818.203 -382.306)"/>
                                    <path id="패스_2665" d="M-830.078 624.635a24.732 24.732 0 0 0 11.918 3.507c8.57.22 11.707-4.352 11.707-4.352s-1.206 18.412-2.82 20.781c-2.459 3.606-13.634 3.272-16.522.649-2.326-2.112-4.283-20.585-4.283-20.585z" class="cls-7" transform="translate(829.241 -389.886)"/>
                                    <path id="패스_2666" d="M-807.067 623.893a1.674 1.674 0 0 1-.49 1.109 5 5 0 0 1-1.468 1.052 20.3 20.3 0 0 1-8.64 1.625 20.3 20.3 0 0 1-8.64-1.625 5 5 0 0 1-1.466-1.054 1.671 1.671 0 0 1-.49-1.109.248.248 0 0 0-.248-.248.249.249 0 0 0-.249.248c0 .963.807 1.882 2.23 2.6a20.8 20.8 0 0 0 8.864 1.679 20.8 20.8 0 0 0 8.864-1.67c1.423-.722 2.229-1.641 2.229-2.6a.248.248 0 0 0-.248-.248.248.248 0 0 0-.248.248z" class="cls-11" transform="translate(828.817 -389.84)"/>
                                    <path id="패스_2667" d="M-820.233 667.412c-.912-.892-.683-6.029-.025-7.16 2.666-4.58 16.438-4.173 20.646-1.259 2.2 1.52 1.453 6.819.675 7.789-1.034 1.289-5.529 2.446-10.51 2.648-4.753.192-9.826-1.078-10.786-2.018z" class="cls-23" transform="translate(826.274 -400.483)"/>
                                    <path id="패스_2668" d="M-815.966 664.531a.651.651 0 0 0 .4-.565.634.634 0 0 0-.417-.56 3.5 3.5 0 0 0-1.9-.23c-.2.047-.275.152-.291.255a.428.428 0 0 0 .136.333 3.136 3.136 0 0 0 1.18.682 1.6 1.6 0 0 0 .861.094l.025-.009zm-.116-.263a.367.367 0 0 0 .235-.3c0-.117-.09-.225-.251-.3a3.158 3.158 0 0 0-1.712-.212.341.341 0 0 0-.07.027.234.234 0 0 0 .018.035.55.55 0 0 0 .07.083 1.31 1.31 0 0 0 .14.12 3.35 3.35 0 0 0 1.012.493 1.169 1.169 0 0 0 .559.056z" class="cls-11" transform="translate(825.419 -402.513)"/>
                                    <path id="패스_2669" d="M-797.132 669.841a.649.649 0 0 0-.143.68.631.631 0 0 0 .607.345 3.494 3.494 0 0 0 1.831-.553.326.326 0 0 0 .164-.351.429.429 0 0 0-.259-.25 3.151 3.151 0 0 0-1.354-.149 1.614 1.614 0 0 0-.826.26l-.019.019zm2.175.19a.242.242 0 0 0-.03-.025.489.489 0 0 0-.1-.048 1.351 1.351 0 0 0-.176-.054 3.35 3.35 0 0 0-1.125-.043 1.181 1.181 0 0 0-.535.173.369.369 0 0 0-.092.371.361.361 0 0 0 .35.174 3.175 3.175 0 0 0 1.653-.5.355.355 0 0 0 .052-.053z" class="cls-11" transform="translate(818.725 -404.574)"/>
                                    <path id="패스_2670" d="M-807.517 671.507a.65.65 0 0 0-.144.68.635.635 0 0 0 .608.345 3.5 3.5 0 0 0 1.831-.554.326.326 0 0 0 .164-.351.428.428 0 0 0-.259-.249 3.142 3.142 0 0 0-1.354-.15 1.612 1.612 0 0 0-.826.26l-.019.019zm2.175.19a.226.226 0 0 0-.03-.024.529.529 0 0 0-.1-.048 1.212 1.212 0 0 0-.176-.053 3.343 3.343 0 0 0-1.125-.044 1.176 1.176 0 0 0-.534.174.368.368 0 0 0-.093.371.36.36 0 0 0 .351.174 3.158 3.158 0 0 0 1.653-.5.323.323 0 0 0 .053-.053z" class="cls-11" transform="translate(822.059 -405.109)"/>
                                    <path id="패스_2671" d="M-803.825 658.956a.652.652 0 0 0-.144.68.634.634 0 0 0 .608.344 3.5 3.5 0 0 0 1.831-.553.327.327 0 0 0 .164-.351.427.427 0 0 0-.259-.249 3.141 3.141 0 0 0-1.354-.15 1.61 1.61 0 0 0-.826.26l-.019.019zm2.175.19a.234.234 0 0 0-.03-.025.521.521 0 0 0-.1-.048 1.293 1.293 0 0 0-.176-.054 3.349 3.349 0 0 0-1.126-.044 1.182 1.182 0 0 0-.534.173.369.369 0 0 0-.093.371.362.362 0 0 0 .351.174 3.159 3.159 0 0 0 1.653-.5.313.313 0 0 0 .053-.053z" class="cls-11" transform="translate(820.874 -401.08)"/>
                                    <path id="패스_2672" d="M-811.846 667.332a.148.148 0 0 0-.018.034.77.77 0 0 0 .031.573.733.733 0 0 0 .408.4 1.211 1.211 0 0 0 .68.022.753.753 0 0 0 .383-.221.291.291 0 0 0 .047-.321.864.864 0 0 0-.333-.346 1.744 1.744 0 0 0-.871-.289.4.4 0 0 0-.325.143zm.24.161a.5.5 0 0 0 .034.331.445.445 0 0 0 .241.25.917.917 0 0 0 .512.015.465.465 0 0 0 .239-.131c.013-.015 0-.032-.014-.051a.713.713 0 0 0-.211-.19 1.581 1.581 0 0 0-.625-.239.427.427 0 0 0-.143 0 .106.106 0 0 0-.033.011z" class="cls-11" transform="translate(823.408 -403.817)"/>
                                    <path id="패스_2673" d="M-805.395 668.4a.123.123 0 0 0-.018.034.769.769 0 0 0 .031.573.734.734 0 0 0 .408.4 1.216 1.216 0 0 0 .68.023.757.757 0 0 0 .383-.221.292.292 0 0 0 .047-.322.868.868 0 0 0-.333-.346 1.75 1.75 0 0 0-.872-.289.4.4 0 0 0-.325.143zm.24.161a.5.5 0 0 0 .034.331.442.442 0 0 0 .241.249.908.908 0 0 0 .512.016.475.475 0 0 0 .239-.131c.013-.016 0-.032-.014-.051a.718.718 0 0 0-.211-.189 1.6 1.6 0 0 0-.625-.24.43.43 0 0 0-.142 0 .111.111 0 0 0-.033.011z" class="cls-11" transform="translate(821.337 -404.161)"/>
                                    <path id="패스_2674" d="M-819.168 670.7a.131.131 0 0 0-.019.034.773.773 0 0 0 .031.573.731.731 0 0 0 .408.4 1.216 1.216 0 0 0 .68.022.753.753 0 0 0 .383-.221.292.292 0 0 0 .047-.322.87.87 0 0 0-.333-.345 1.745 1.745 0 0 0-.872-.289.4.4 0 0 0-.324.143zm.24.161a.494.494 0 0 0 .034.331.443.443 0 0 0 .24.25.911.911 0 0 0 .512.016.464.464 0 0 0 .24-.131c.013-.016 0-.032-.014-.051a.716.716 0 0 0-.212-.189 1.58 1.58 0 0 0-.625-.239.427.427 0 0 0-.143 0 .1.1 0 0 0-.033.011z" class="cls-11" transform="translate(825.758 -404.897)"/>
                                    <path id="패스_2675" d="M-812.793 658.038a.119.119 0 0 0-.018.034.771.771 0 0 0 .031.574.737.737 0 0 0 .408.4 1.215 1.215 0 0 0 .68.022.757.757 0 0 0 .383-.221.292.292 0 0 0 .047-.322.867.867 0 0 0-.333-.346 1.752 1.752 0 0 0-.872-.289.4.4 0 0 0-.325.143zm.24.162a.5.5 0 0 0 .034.331.446.446 0 0 0 .241.25.915.915 0 0 0 .511.016.467.467 0 0 0 .239-.131c.014-.016 0-.033-.014-.051a.7.7 0 0 0-.212-.19 1.582 1.582 0 0 0-.625-.24.43.43 0 0 0-.142 0 .1.1 0 0 0-.033.012z" class="cls-11" transform="translate(823.712 -400.834)"/>
                                    <path id="패스_2676" d="M-790.872 660.385a.185.185 0 0 0-.018.034.774.774 0 0 0 .03.574.734.734 0 0 0 .408.4 1.219 1.219 0 0 0 .681.022.76.76 0 0 0 .383-.221.291.291 0 0 0 .046-.322.86.86 0 0 0-.333-.346 1.754 1.754 0 0 0-.871-.289.407.407 0 0 0-.325.143zm.24.162a.5.5 0 0 0 .034.331.441.441 0 0 0 .241.25.911.911 0 0 0 .512.016.471.471 0 0 0 .239-.131c.014-.016 0-.032-.014-.051a.711.711 0 0 0-.211-.19 1.581 1.581 0 0 0-.625-.24.436.436 0 0 0-.142 0 .137.137 0 0 0-.033.011z" class="cls-11" transform="translate(816.675 -401.587)"/>
                                    <path id="패스_2677" d="M-800.983 660.453a.129.129 0 0 0-.019.034.769.769 0 0 0 .031.573.733.733 0 0 0 .408.4 1.21 1.21 0 0 0 .68.022.754.754 0 0 0 .383-.221.292.292 0 0 0 .047-.322.871.871 0 0 0-.333-.345 1.745 1.745 0 0 0-.872-.289.4.4 0 0 0-.325.143zm.24.161a.5.5 0 0 0 .034.331.441.441 0 0 0 .241.249.908.908 0 0 0 .512.016.463.463 0 0 0 .239-.131c.014-.016 0-.032-.014-.051a.707.707 0 0 0-.211-.189 1.578 1.578 0 0 0-.625-.239.43.43 0 0 0-.142 0 .113.113 0 0 0-.033.011z" class="cls-11" transform="translate(819.921 -401.609)"/>
                                    <path id="패스_2678" d="M-791.539 669.594a.13.13 0 0 0-.019.034.771.771 0 0 0 .031.574.733.733 0 0 0 .408.4 1.209 1.209 0 0 0 .68.023.755.755 0 0 0 .383-.222.292.292 0 0 0 .047-.322.866.866 0 0 0-.333-.345 1.744 1.744 0 0 0-.872-.289.4.4 0 0 0-.325.143zm.24.161a.5.5 0 0 0 .034.331.443.443 0 0 0 .241.249.908.908 0 0 0 .512.016.46.46 0 0 0 .239-.131c.014-.016 0-.032-.014-.051a.708.708 0 0 0-.211-.19 1.579 1.579 0 0 0-.625-.239.422.422 0 0 0-.142 0 .114.114 0 0 0-.033.011z" class="cls-11" transform="translate(816.889 -404.543)"/>
                                    <path id="패스_2679" d="M-808.26 666.853a.143.143 0 0 0-.115-.166.144.144 0 0 0-.166.116.144.144 0 0 0 .116.166.143.143 0 0 0 .166-.115z" class="cls-11" transform="translate(822.329 -403.655)"/>
                                    <path id="패스_2680" d="M-813.319 664.1a.143.143 0 0 1-.136-.149.144.144 0 0 1 .15-.136h.012a.143.143 0 0 1 .129.156.142.142 0 0 1-.155.129zm0 0z" class="cls-11" transform="translate(823.905 -402.734)"/>
                                    <path id="패스_2681" d="M-815.574 669.23a.144.144 0 0 0 .084-.185.143.143 0 0 0-.185-.083.143.143 0 0 0-.083.184.143.143 0 0 0 .184.084z" class="cls-11" transform="translate(824.647 -404.383)"/>
                                    <path id="패스_2682" d="M-818.519 661.337a.142.142 0 0 1-.18.067.143.143 0 0 1-.079-.185.144.144 0 0 1 .039-.056.143.143 0 0 1 .2.011.142.142 0 0 1 .019.164z" class="cls-11" transform="translate(825.617 -401.871)"/>
                                    <path id="패스_2683" d="M-804.593 658.186a.145.145 0 0 1-.071.115.143.143 0 0 1-.2-.053.133.133 0 0 1-.02-.071.143.143 0 0 1 .013-.062.144.144 0 0 1 .189-.072.144.144 0 0 1 .084.143zm0 .01a.192.192 0 0 1-.008.029.156.156 0 0 0 .008-.029zm-.013-.083a.15.15 0 0 1 .012.041.117.117 0 0 0-.012-.041z" class="cls-11" transform="translate(821.152 -400.877)"/>
                                    <path id="패스_2684" d="M-793.782 660.364a.143.143 0 0 0-.083.185.142.142 0 0 0 .184.083l.018-.007a.143.143 0 0 0 .074-.188.143.143 0 0 0-.189-.074z" class="cls-11" transform="translate(817.621 -401.623)"/>
                                    <path id="패스_2685" d="M-790.1 666.29a.144.144 0 0 0 .008.2.143.143 0 0 0 .2-.008l.008-.009a.142.142 0 0 0-.011-.2.143.143 0 0 0-.2.011z" class="cls-11" transform="translate(816.423 -403.514)"/>
                                    <path id="패스_2686" d="M-798.675 667.749a.143.143 0 0 0 .064-.192.143.143 0 0 0-.192-.064.143.143 0 0 0-.064.192.143.143 0 0 0 .192.064z" class="cls-11" transform="translate(819.227 -403.91)"/>
                                    <path id="패스_2687" d="M-799.709 673.177a.146.146 0 0 1 .1.015.154.154 0 0 1 .026.018.143.143 0 0 1 .017.2.131.131 0 0 1-.13.05.361.361 0 0 1-.1-.059l.01.012a.142.142 0 0 1 .01-.2.151.151 0 0 1 .04-.026l.024-.008zm.033 0a.14.14 0 0 0-.033 0l-.024.008a.153.153 0 0 0-.052.041.141.141 0 0 1 .111-.051z" class="cls-11" transform="translate(819.529 -405.739)"/>
                                    <path id="패스_2688" d="M-808.193 674.272a.143.143 0 0 0 .193.059.142.142 0 0 0 .059-.193.143.143 0 0 0-.193-.059.143.143 0 0 0-.059.194z" class="cls-11" transform="translate(822.221 -406.023)"/>
                                    <path id="패스_2689" d="M-806.255 659.229a.144.144 0 0 0 .013.2.144.144 0 0 0 .2-.013.143.143 0 0 0-.013-.2.142.142 0 0 0-.2.013z" class="cls-11" transform="translate(821.606 -401.246)"/>
                                    <path id="패스_2690" d="M-792.053 672.551a.142.142 0 0 1-.079.052.144.144 0 0 1-.173-.105c-.009-.037.052-.149.052-.149a.367.367 0 0 0-.026.027.143.143 0 0 1 .2-.031.143.143 0 0 1 .032.2l-.005.006z" class="cls-11" transform="translate(817.116 -405.464)"/>
                                    <path id="패스_2691" d="M-796.514 663.653a.143.143 0 0 1-.158-.052.143.143 0 0 1 .031-.2.131.131 0 0 1 .082-.031.144.144 0 0 1 .153.132.143.143 0 0 1-.089.143l-.019.007zm.019-.007l.023-.014a.144.144 0 0 1-.033.018.128.128 0 0 1-.033.007h.039z" class="cls-11" transform="translate(818.527 -402.591)"/>
                                    <path id="패스_2692" d="M-804.475 666.031a.144.144 0 0 1-.145.034.143.143 0 0 1-.092-.18.117.117 0 0 1 .062-.081.142.142 0 0 1 .2.044.143.143 0 0 1 .008.14.088.088 0 0 1-.031.043zm.031-.043l.005-.016a.128.128 0 0 1-.014.029.128.128 0 0 1-.043.043l.021-.014a.12.12 0 0 0 .022-.029v-.012z" class="cls-11" transform="translate(821.1 -403.366)"/>
                                    <path id="패스_2693" d="M-814.416 660.484v.006a.143.143 0 0 0 .143.143.143.143 0 0 0 .143-.143v-.006a.144.144 0 0 0-.143-.143.143.143 0 0 0-.143.143z" class="cls-11" transform="translate(824.213 -401.619)"/>
                                    <path id="패스_2694" d="M-818.987 669.4a.141.141 0 0 1 .138-.062.142.142 0 0 1 .122.161.108.108 0 0 1-.035.078.143.143 0 0 1-.2.014.144.144 0 0 1-.043-.148.075.075 0 0 1 .02-.043zm-.01.017a.158.158 0 0 1 .019-.029l-.009.011-.01.017a.19.19 0 0 0-.01.026v.017a.15.15 0 0 1 .013-.043z" class="cls-11" transform="translate(825.689 -404.505)"/>
                                    <path id="패스_2695" d="M-812.781 673.474a.153.153 0 0 1-.008-.046.143.143 0 0 1 .143-.143.116.116 0 0 1 .1.044.42.42 0 0 1 .039.109.13.13 0 0 0 0-.017.143.143 0 0 1-.125.149.162.162 0 0 1-.041 0 .108.108 0 0 1-.075-.037.126.126 0 0 1-.034-.049v-.009zm.035.055a.142.142 0 0 0 .075.037h.015a.139.139 0 0 1-.093-.042z" class="cls-11" transform="translate(823.691 -405.774)"/>
                                    <path id="패스_2696" d="M-808.235 663.633a.143.143 0 0 1-.143.061.144.144 0 0 1-.117-.165.1.1 0 0 1 .025-.06.143.143 0 0 1 .2-.042.143.143 0 0 1 .059.161.09.09 0 0 1-.02.041zm.02-.041v-.015a.155.155 0 0 1-.01.033.149.149 0 0 1-.01.018v.005a.114.114 0 0 0 .013-.023c0-.006 0-.012.007-.018z" class="cls-11" transform="translate(822.313 -402.604)"/>
                                    <path id="패스_2697" d="M-796.677 658.811a.144.144 0 0 0-.2.023.143.143 0 0 0 .024.2.143.143 0 0 0 .2-.024.143.143 0 0 0-.024-.2z" class="cls-11" transform="translate(818.593 -401.118)"/>
                                    <path id="패스_2698" d="M-819.191 666.4a.6.6 0 0 1-.42-.223 1.155 1.155 0 0 1-.271-.7.537.537 0 0 1 .178-.444.484.484 0 0 1 .35-.092.984.984 0 0 1 .481.194 4.286 4.286 0 0 0 .359.249 2.8 2.8 0 0 0 .489.16.869.869 0 0 1 .521.35.379.379 0 0 1 .053.351.388.388 0 0 1-.245.207 3.684 3.684 0 0 1-1.5-.054zm.062-.28a.122.122 0 0 0-.042-.005.281.281 0 0 1-.186-.088.819.819 0 0 1-.219-.407.586.586 0 0 1-.012-.241.186.186 0 0 1 .067-.124.219.219 0 0 1 .145-.028.7.7 0 0 1 .342.145c.128.088.251.191.383.264a3.057 3.057 0 0 0 .543.182.587.587 0 0 1 .361.226.266.266 0 0 1 .032.069v.025a.1.1 0 0 1-.054.037.671.671 0 0 1-.179.043 3.942 3.942 0 0 1-1.18-.1z" class="cls-11" transform="translate(825.968 -403.096)"/>
                                    <path id="패스_2699" d="M-814.117 668.573a.6.6 0 0 1-.182-.439 1.16 1.16 0 0 1 .234-.712.539.539 0 0 1 .419-.229.486.486 0 0 1 .329.152.984.984 0 0 1 .248.456 4.24 4.24 0 0 0 .119.42 2.744 2.744 0 0 0 .276.435.862.862 0 0 1 .179.6.376.376 0 0 1-.181.3.392.392 0 0 1-.321 0 3.672 3.672 0 0 1-1.12-.991zm.226-.176a.138.138 0 0 0-.029-.031.274.274 0 0 1-.088-.185.822.822 0 0 1 .088-.454.6.6 0 0 1 .144-.193.184.184 0 0 1 .132-.053.211.211 0 0 1 .129.07.7.7 0 0 1 .171.329c.043.151.073.308.128.448a3.019 3.019 0 0 0 .3.485.591.591 0 0 1 .134.4.264.264 0 0 1-.019.073c0 .009-.008.017-.015.02a.1.1 0 0 1-.064-.006.685.685 0 0 1-.167-.081 3.938 3.938 0 0 1-.849-.825z" class="cls-11" transform="translate(824.176 -403.818)"/>
                                    <path id="패스_2700" d="M-804.647 662.522a.6.6 0 0 1-.421-.221 1.157 1.157 0 0 1-.276-.7.537.537 0 0 1 .176-.444.483.483 0 0 1 .35-.095.992.992 0 0 1 .482.192 4.2 4.2 0 0 0 .36.246 2.707 2.707 0 0 0 .49.157.867.867 0 0 1 .522.348.376.376 0 0 1 .056.35.385.385 0 0 1-.244.208 3.674 3.674 0 0 1-1.5-.044zm.061-.28a.132.132 0 0 0-.043-.006.279.279 0 0 1-.186-.086.826.826 0 0 1-.222-.405.6.6 0 0 1-.013-.241.187.187 0 0 1 .067-.125.218.218 0 0 1 .145-.029.7.7 0 0 1 .342.143c.129.088.252.19.385.261a3.087 3.087 0 0 0 .544.179.588.588 0 0 1 .362.224.286.286 0 0 1 .032.068c0 .01.005.018 0 .025a.1.1 0 0 1-.054.036.7.7 0 0 1-.179.044 3.94 3.94 0 0 1-1.18-.091z" class="cls-11" transform="translate(821.301 -401.851)"/>
                                    <path id="패스_2701" d="M-792.3 663.323a.6.6 0 0 1-.421-.221 1.157 1.157 0 0 1-.276-.7.538.538 0 0 1 .176-.444.483.483 0 0 1 .35-.095.993.993 0 0 1 .482.192 4.185 4.185 0 0 0 .36.247 2.826 2.826 0 0 0 .49.157.864.864 0 0 1 .522.348.378.378 0 0 1 .056.35.388.388 0 0 1-.244.208 3.675 3.675 0 0 1-1.5-.045zm.06-.28a.147.147 0 0 0-.042-.005.278.278 0 0 1-.186-.086.821.821 0 0 1-.222-.405.586.586 0 0 1-.013-.241.185.185 0 0 1 .067-.124.214.214 0 0 1 .145-.029.7.7 0 0 1 .342.143c.129.088.252.19.384.262a3.077 3.077 0 0 0 .543.179.594.594 0 0 1 .363.225.282.282 0 0 1 .032.068.04.04 0 0 1 0 .025.1.1 0 0 1-.054.037.676.676 0 0 1-.179.044 3.929 3.929 0 0 1-1.181-.091z" class="cls-11" transform="translate(817.338 -402.108)"/>
                                    <path id="패스_2702" d="M-798.111 672.679a.6.6 0 0 1-.421-.221 1.16 1.16 0 0 1-.276-.7.537.537 0 0 1 .176-.444.483.483 0 0 1 .35-.1.984.984 0 0 1 .482.192 4.312 4.312 0 0 0 .36.247 2.7 2.7 0 0 0 .49.157.868.868 0 0 1 .523.348.38.38 0 0 1 .057.351.393.393 0 0 1-.245.208 3.678 3.678 0 0 1-1.5-.045zm.06-.28a.153.153 0 0 0-.042-.006.276.276 0 0 1-.187-.085.828.828 0 0 1-.222-.406.587.587 0 0 1-.013-.24.191.191 0 0 1 .066-.125.216.216 0 0 1 .145-.028.7.7 0 0 1 .342.143 4.615 4.615 0 0 0 .385.262 3.047 3.047 0 0 0 .544.179.586.586 0 0 1 .361.224.239.239 0 0 1 .033.069.041.041 0 0 1 0 .025.1.1 0 0 1-.054.037.7.7 0 0 1-.179.044 3.959 3.959 0 0 1-1.18-.091z" class="cls-11" transform="translate(819.203 -405.111)"/>
                                    <path id="패스_2703" d="M-808.712 657.958a.55.55 0 0 1 .207.435 1.621 1.621 0 0 1-.195.823c-.183.329-.464.486-.739.289a.731.731 0 0 1-.243-.343c-.064-.166-.1-.361-.167-.516a2.1 2.1 0 0 0-.288-.384.819.819 0 0 1-.206-.6.5.5 0 0 1 .162-.361.507.507 0 0 1 .505-.033 3.084 3.084 0 0 1 .964.693zm-.206.2a.135.135 0 0 0 .042.036c.063.035.079.122.085.219a1.311 1.311 0 0 1-.159.665.6.6 0 0 1-.149.187.133.133 0 0 1-.173.008.549.549 0 0 1-.171-.292 4.2 4.2 0 0 0-.145-.452 1.635 1.635 0 0 0-.26-.365.63.63 0 0 1-.209-.479.229.229 0 0 1 .058-.164.106.106 0 0 1 .07-.019.463.463 0 0 1 .155.033 2.681 2.681 0 0 1 .857.623z" class="cls-11" transform="translate(822.907 -400.616)"/>
                                    <path id="패스_2704" d="M-819.972 662.478c1.185.963 4.06 1.685 7.4 1.944 4.97.386 10.959-.24 13.824-2.445a.267.267 0 0 0 .049-.376.268.268 0 0 0-.375-.048c-2.787 2.145-8.621 2.711-13.456 2.335-3.2-.248-5.966-.9-7.1-1.826a.267.267 0 0 0-.377.039.268.268 0 0 0 .039.377z" class="cls-7" transform="translate(826.028 -401.99)"/>
                                    <path id="패스_2705" d="M-838.874 670.344c-1.232-.331-3.549-4.921-3.529-6.23.079-5.3 12.286-11.69 17.382-11.212 2.658.249 4.607 5.233 4.4 6.46-.27 1.632-3.622 4.842-7.866 7.458-4.05 2.5-9.1 3.873-10.392 3.524z" class="cls-23" transform="translate(833.197 -399.223)"/>
                                    <path id="패스_2706" d="M-818.444 664.683a.65.65 0 0 0 .208.663.633.633 0 0 0 .7 0 3.5 3.5 0 0 0 1.326-1.379.328.328 0 0 0-.029-.386.432.432 0 0 0-.348-.091 3.138 3.138 0 0 0-1.254.533 1.607 1.607 0 0 0-.594.631l-.007.026zm1.99-.9a.231.231 0 0 0-.039-.007.557.557 0 0 0-.109.005 1.474 1.474 0 0 0-.18.04 3.361 3.361 0 0 0-1 .513 1.181 1.181 0 0 0-.381.413.369.369 0 0 0 .1.369.362.362 0 0 0 .391-.02 3.158 3.158 0 0 0 1.2-1.242.394.394 0 0 0 .02-.072z" class="cls-11" transform="translate(825.511 -402.63)"/>
                                    <path id="패스_2707" d="M-826.682 671.223a.651.651 0 0 0 .208.663.633.633 0 0 0 .7 0 3.5 3.5 0 0 0 1.325-1.379.326.326 0 0 0-.029-.386.43.43 0 0 0-.348-.091 3.15 3.15 0 0 0-1.254.533 1.609 1.609 0 0 0-.593.631l-.008.026zm1.99-.9a.219.219 0 0 0-.039-.007.511.511 0 0 0-.109.006 1.321 1.321 0 0 0-.179.039 3.359 3.359 0 0 0-1 .514 1.185 1.185 0 0 0-.381.413.369.369 0 0 0 .1.369.361.361 0 0 0 .391-.021 3.16 3.16 0 0 0 1.2-1.242.326.326 0 0 0 .02-.072z" class="cls-11" transform="translate(828.156 -404.729)"/>
                                    <path id="패스_2708" d="M-829.611 658.473a.649.649 0 0 0 .208.663.633.633 0 0 0 .7 0 3.5 3.5 0 0 0 1.325-1.38.328.328 0 0 0-.029-.386.429.429 0 0 0-.349-.09 3.139 3.139 0 0 0-1.253.532 1.612 1.612 0 0 0-.594.631l-.007.027zm1.99-.9a.171.171 0 0 0-.039-.007.564.564 0 0 0-.109.006 1.355 1.355 0 0 0-.18.039 3.369 3.369 0 0 0-1 .513 1.177 1.177 0 0 0-.381.414.367.367 0 0 0 .1.369.361.361 0 0 0 .391-.021 3.16 3.16 0 0 0 1.2-1.242.45.45 0 0 0 .02-.071z" class="cls-11" transform="translate(829.096 -400.636)"/>
                                    <path id="패스_2709" d="M-826.433 667.789a.125.125 0 0 0 0 .039.776.776 0 0 0 .308.485.736.736 0 0 0 .553.153 1.209 1.209 0 0 0 .6-.314.754.754 0 0 0 .226-.38.292.292 0 0 0-.116-.3.866.866 0 0 0-.46-.138 1.752 1.752 0 0 0-.9.174.4.4 0 0 0-.213.284zm.289.023a.494.494 0 0 0 .192.272.445.445 0 0 0 .332.1.916.916 0 0 0 .454-.238.468.468 0 0 0 .144-.232c0-.02-.018-.026-.037-.037a.7.7 0 0 0-.277-.061 1.575 1.575 0 0 0-.662.1.431.431 0 0 0-.122.073.121.121 0 0 0-.023.026z" class="cls-11" transform="translate(828.071 -403.862)"/>
                                    <path id="패스_2710" d="M-817.7 653.686a.12.12 0 0 0 0 .039.772.772 0 0 0 .308.485.729.729 0 0 0 .553.153 1.21 1.21 0 0 0 .6-.314.755.755 0 0 0 .225-.38.291.291 0 0 0-.117-.3.87.87 0 0 0-.46-.138 1.746 1.746 0 0 0-.9.175.4.4 0 0 0-.213.284zm.288.023a.5.5 0 0 0 .192.272.445.445 0 0 0 .332.1.917.917 0 0 0 .454-.237.469.469 0 0 0 .144-.231c0-.021-.018-.027-.038-.037a.692.692 0 0 0-.277-.062 1.575 1.575 0 0 0-.663.1.435.435 0 0 0-.122.073.121.121 0 0 0-.023.026z" class="cls-11" transform="translate(825.268 -399.335)"/>
                                    <path id="패스_2711" d="M-826.48 658.7a.142.142 0 0 0 0 .039.771.771 0 0 0 .308.485.734.734 0 0 0 .554.153 1.212 1.212 0 0 0 .6-.314.759.759 0 0 0 .226-.381.292.292 0 0 0-.117-.3.863.863 0 0 0-.46-.138 1.748 1.748 0 0 0-.9.175.406.406 0 0 0-.213.284zm.288.022a.494.494 0 0 0 .192.272.447.447 0 0 0 .333.1.912.912 0 0 0 .453-.238.472.472 0 0 0 .145-.231c0-.02-.018-.026-.037-.037a.716.716 0 0 0-.277-.062 1.589 1.589 0 0 0-.662.1.439.439 0 0 0-.122.072.137.137 0 0 0-.023.026z" class="cls-11" transform="translate(828.086 -400.943)"/>
                                    <path id="패스_2712" d="M-813.769 662.041a.155.155 0 0 0 0 .039.771.771 0 0 0 .308.485.737.737 0 0 0 .554.153 1.213 1.213 0 0 0 .6-.314.758.758 0 0 0 .225-.381.291.291 0 0 0-.117-.3.863.863 0 0 0-.46-.138 1.752 1.752 0 0 0-.9.174.4.4 0 0 0-.213.284zm.289.023a.5.5 0 0 0 .191.272.447.447 0 0 0 .333.1.914.914 0 0 0 .453-.238.469.469 0 0 0 .145-.232c0-.02-.018-.026-.037-.037a.716.716 0 0 0-.277-.062 1.589 1.589 0 0 0-.663.1.445.445 0 0 0-.122.073.136.136 0 0 0-.023.026z" class="cls-11" transform="translate(824.006 -402.017)"/>
                                    <path id="패스_2713" d="M-820.279 655.223a.143.143 0 0 0 .017.2.143.143 0 0 0 .2-.017l.012-.015a.142.142 0 0 0-.027-.2.144.144 0 0 0-.2.028z" class="cls-11" transform="translate(826.107 -399.958)"/>
                                    <path id="패스_2714" d="M-814.168 658.588v.006a.144.144 0 0 0 .105.173.143.143 0 0 0 .173-.106v-.011a.143.143 0 0 0-.108-.171.143.143 0 0 0-.17.108z" class="cls-11" transform="translate(824.135 -401.02)"/>
                                    <path id="패스_2715" d="M-820.928 664.059a.143.143 0 0 0-.038-.2.143.143 0 0 0-.2.039.143.143 0 0 0 .038.2.144.144 0 0 0 .2-.038z" class="cls-11" transform="translate(826.388 -402.74)"/>
                                    <path id="패스_2716" d="M-819.17 669.3a.146.146 0 0 1 .092-.035.125.125 0 0 1 .031 0 .143.143 0 0 1 .114.168.133.133 0 0 1-.089.107.384.384 0 0 1-.114 0l.015.006a.144.144 0 0 1-.091-.181.142.142 0 0 1 .023-.043.138.138 0 0 1 .017-.018zm.028-.017a.142.142 0 0 0-.028.017l-.017.018a.147.147 0 0 0-.025.061.14.14 0 0 1 .072-.1z" class="cls-11" transform="translate(825.755 -404.483)"/>
                                    <path id="패스_2717" d="M-826.03 674.409a.143.143 0 0 0 .2-.043.143.143 0 0 0-.044-.2.143.143 0 0 0-.2.043.145.145 0 0 0 .043.2z" class="cls-11" transform="translate(827.963 -406.05)"/>
                                    <path id="패스_2718" d="M-812.8 665a.143.143 0 0 1-.043.085.144.144 0 0 1-.2-.008c-.026-.028-.027-.155-.027-.155a.292.292 0 0 0-.01.037.143.143 0 0 1 .159-.126.144.144 0 0 1 .126.159v.007z" class="cls-11" transform="translate(823.786 -403.061)"/>
                                    <path id="패스_2719" d="M-821.049 659.429a.144.144 0 0 1-.164.032.143.143 0 0 1-.071-.189.132.132 0 0 1 .057-.067.143.143 0 0 1 .2.04.143.143 0 0 1-.007.169.075.075 0 0 1-.014.016zm.014-.016a.135.135 0 0 0 .012-.024.131.131 0 0 1-.02.032.119.119 0 0 1-.026.022.132.132 0 0 0 .02-.014l.007-.008z" class="cls-11" transform="translate(826.422 -401.247)"/>
                                    <path id="패스_2720" d="M-826.826 665.4a.142.142 0 0 1-.108.1.143.143 0 0 1-.169-.111.121.121 0 0 1 .014-.1.143.143 0 0 1 .194-.058.142.142 0 0 1 .075.119.083.083 0 0 1-.005.052zm.005-.052v-.016a.122.122 0 0 1 0 .032.14.14 0 0 1-.016.06l.011-.023a.127.127 0 0 0 .005-.037v-.016z" class="cls-11" transform="translate(828.287 -403.183)"/>
                                    <path id="패스_2721" d="M-823.563 655.289a.142.142 0 0 0-.164.119.142.142 0 0 0 .119.164.144.144 0 0 0 .164-.119.143.143 0 0 0-.12-.164z" class="cls-11" transform="translate(827.203 -399.997)"/>
                                    <path id="패스_2722" d="M-828.639 662.269a.6.6 0 0 1-.475.014 1.153 1.153 0 0 1-.582-.473.537.537 0 0 1-.064-.473.481.481 0 0 1 .259-.253.98.98 0 0 1 .514-.069c.146.012.293.041.435.038a2.645 2.645 0 0 0 .5-.1.864.864 0 0 1 .626.047.378.378 0 0 1 .221.278.39.39 0 0 1-.111.3 3.68 3.68 0 0 1-1.325.693zm-.085-.273a.169.169 0 0 0-.039.016.274.274 0 0 1-.205.016.821.821 0 0 1-.392-.244.593.593 0 0 1-.13-.2.186.186 0 0 1 0-.142.22.22 0 0 1 .112-.1.708.708 0 0 1 .368-.043 4.6 4.6 0 0 0 .464.04 3.044 3.044 0 0 0 .562-.11.586.586 0 0 1 .425.018.241.241 0 0 1 .062.044.036.036 0 0 1 .014.02c0 .02-.014.038-.029.059a.679.679 0 0 1-.135.126 3.944 3.944 0 0 1-1.074.5z" class="cls-11" transform="translate(829.148 -401.803)"/>
                                    <path id="패스_2723" d="M-817.482 656.92a.6.6 0 0 1-.475.013 1.158 1.158 0 0 1-.582-.473.538.538 0 0 1-.064-.473.482.482 0 0 1 .258-.254.98.98 0 0 1 .514-.069c.147.012.293.041.435.039a2.712 2.712 0 0 0 .5-.1.87.87 0 0 1 .626.048.376.376 0 0 1 .22.278.389.389 0 0 1-.111.3 3.688 3.688 0 0 1-1.325.694zm-.085-.274a.17.17 0 0 0-.039.016.277.277 0 0 1-.2.017.824.824 0 0 1-.392-.245.59.59 0 0 1-.129-.2.188.188 0 0 1 0-.141.216.216 0 0 1 .112-.1.7.7 0 0 1 .368-.043c.156.013.314.042.464.04a3 3 0 0 0 .561-.11.589.589 0 0 1 .426.018.263.263 0 0 1 .061.044c.007.007.014.013.014.021a.1.1 0 0 1-.029.058.675.675 0 0 1-.134.126 3.913 3.913 0 0 1-1.074.5z" class="cls-11" transform="translate(825.567 -400.086)"/>
                                    <path id="패스_2724" d="M-817.965 667.923a.6.6 0 0 1-.475.014 1.159 1.159 0 0 1-.582-.473.536.536 0 0 1-.064-.473.485.485 0 0 1 .259-.254.993.993 0 0 1 .514-.068 4.209 4.209 0 0 0 .435.039 2.7 2.7 0 0 0 .5-.1.864.864 0 0 1 .625.047.379.379 0 0 1 .221.279.389.389 0 0 1-.111.3 3.669 3.669 0 0 1-1.325.693zm-.085-.274a.176.176 0 0 0-.039.016.273.273 0 0 1-.2.016.82.82 0 0 1-.393-.244.6.6 0 0 1-.129-.2.192.192 0 0 1 0-.142.222.222 0 0 1 .111-.1.713.713 0 0 1 .369-.043 4.587 4.587 0 0 0 .464.04 3.05 3.05 0 0 0 .562-.11.585.585 0 0 1 .426.018.269.269 0 0 1 .061.043c.007.008.014.014.014.021a.1.1 0 0 1-.029.058.674.674 0 0 1-.135.126 3.939 3.939 0 0 1-1.073.5z" class="cls-11" transform="translate(825.722 -403.618)"/>
                                    <path id="패스_2725" d="M-841.934 665.02c1.5.259 4.363-.519 7.4-1.928 4.521-2.1 9.434-5.576 10.851-8.9a.263.263 0 0 0-.139-.344.263.263 0 0 0-.344.139c-1.379 3.237-6.188 6.588-10.589 8.631-2.912 1.351-5.645 2.135-7.089 1.887a.262.262 0 0 0-.3.214.262.262 0 0 0 .214.3z" class="cls-7" transform="translate(833.116 -399.528)"/>
                                    <path id="패스_2726" d="M-773.17 644.008l-9.288 13.731.125 2.718 18.139 1.421 7.385-14.534-.121-2.23-16.241-1.106z" class="cls-9" transform="translate(813.955 -396.376)"/>
                                    <path id="패스_2727" d="M-765.254 659.69l7.645-13.527a.248.248 0 0 1 .338-.094.249.249 0 0 1 .094.338l-7.722 13.664a.249.249 0 0 1-.235.125l-16.638-1.254a.248.248 0 0 1-.229-.266.248.248 0 0 1 .266-.229l16.481 1.243z" class="cls-25" transform="translate(813.808 -397.027)"/>
                                    <path id="패스_2728" d="M-776.178 659.827c1.15.068 2.041.591 1.989 1.166s-1.027.987-2.177.918-2.042-.591-1.99-1.166 1.027-.987 2.178-.918z" class="cls-14" transform="translate(812.639 -401.452)"/>
                                    <path id="패스_2729" fill="#8f4f4f" fill-rule="evenodd" d="M-769.151 660.245c1.15.069 2.041.591 1.99 1.166s-1.027.987-2.177.919-2.041-.591-1.99-1.166 1.027-.987 2.177-.919z" transform="translate(810.383 -401.586)"/>
                                    <path id="패스_2730" d="M-762.239 660.654c1.15.069 2.042.591 1.99 1.167s-1.027.987-2.177.918-2.042-.591-1.989-1.166 1.027-.987 2.177-.919z" class="cls-24" transform="translate(808.164 -401.717)"/>
                                    <path id="패스_2731" fill="#d5dfad" fill-rule="evenodd" d="M-773.079 654.98c1.149.068 2.042.591 1.989 1.166s-1.027.987-2.177.918-2.041-.59-1.989-1.166 1.027-.987 2.177-.918z" transform="translate(811.644 -399.896)"/>
                                    <path id="패스_2732" fill="#9faf68" fill-rule="evenodd" d="M-766.052 655.4c1.15.069 2.042.591 1.99 1.166s-1.028.987-2.178.919-2.041-.591-1.989-1.166 1.027-.987 2.177-.919z" transform="translate(809.388 -400.03)"/>
                                    <path id="패스_2733" fill="#75894e" fill-rule="evenodd" d="M-759.14 655.807c1.149.068 2.041.591 1.99 1.166s-1.027.987-2.178.918-2.041-.591-1.989-1.166 1.027-.987 2.177-.918z" transform="translate(807.169 -400.161)"/>
                                    <path id="패스_2734" d="M-769.822 650.571c1.15.068 2.042.59 1.99 1.166s-1.028.987-2.177.918-2.041-.591-1.99-1.166 1.027-.986 2.177-.918z" class="cls-16" transform="translate(810.598 -398.481)"/>
                                    <path id="패스_2735" d="M-762.8 650.988c1.15.068 2.042.591 1.99 1.166s-1.028.987-2.178.919-2.041-.591-1.989-1.166 1.027-.987 2.177-.919z" class="cls-18" transform="translate(808.343 -398.614)"/>
                                    <path id="패스_2736" d="M-755.883 651.4c1.151.069 2.042.591 1.99 1.166s-1.027.987-2.177.919-2.041-.591-1.99-1.166 1.027-.987 2.177-.919z" class="cls-13" transform="translate(806.124 -398.746)"/>
                                    <path id="패스_2737" d="M-766.969 646.065c1.15.068 2.041.59 1.989 1.165s-1.027.987-2.177.919-2.041-.591-1.989-1.166 1.027-.987 2.177-.918z" class="cls-11" transform="translate(809.682 -397.034)"/>
                                    <path id="패스_2738" d="M-759.941 646.482c1.15.068 2.041.591 1.99 1.166s-1.027.987-2.178.918-2.041-.591-1.99-1.166 1.027-.987 2.178-.918z" class="cls-23" transform="translate(807.427 -397.168)"/>
                                    <path id="패스_2739" fill="#d6702e" fill-rule="evenodd" d="M-753.03 646.893c1.15.069 2.041.591 1.989 1.166s-1.027.987-2.177.919-2.041-.591-1.99-1.166 1.027-.987 2.177-.919z" transform="translate(805.208 -397.3)"/>
                                    <path id="패스_2740" d="M-770.891 621.774c-.957-1.824-3.777-3.174-7.874-3.212a19.523 19.523 0 0 0-6.054 1.3c-3.286 1.325-4.885 3.054-4.989 5.578-.075 1.833-.068 3.481 1.581 4.618 3.091 2.13 9.621 2.486 14.012.208 3.012-1.562 4.19-3.1 3.654-6.507a6.95 6.95 0 0 0-.331-1.98z" class="cls-9" transform="translate(816.321 -388.208)"/>
                                    <path id="패스_2741" d="M-771.94 622.254c-2.973-2.474-10.07-2.081-14.1.8-1.314.937-1.941 2.92.771 3.848a14.354 14.354 0 0 0 10.671-.278c2.49-1.131 3.867-3.36 2.66-4.365z" class="cls-18" transform="translate(815.466 -388.869)"/>
                                    <path id="패스_2742" d="M-788.738 628.949c3.138 2.321 7.993 2.876 12.014 1.7a9.847 9.847 0 0 0 6.207-4.68.248.248 0 0 0-.107-.333.249.249 0 0 0-.334.107 9.353 9.353 0 0 1-5.905 4.43c-3.875 1.135-8.555.616-11.58-1.62a.247.247 0 0 0-.346.052.247.247 0 0 0 .052.346z" class="cls-25" transform="translate(816.003 -390.469)"/>
                                    <path id="패스_2743" d="M-771.517 614.011c-.958-1.824-3.777-3.173-7.874-3.212a19.526 19.526 0 0 0-6.055 1.3c-3.286 1.326-4.884 3.054-4.988 5.577-.075 1.833-.069 3.482 1.58 4.618 3.092 2.13 9.621 2.486 14.013.208 3.012-1.563 4.189-3.1 3.654-6.508a6.936 6.936 0 0 0-.33-1.98z" class="cls-9" transform="translate(816.522 -385.716)"/>
                                    <path id="패스_2744" d="M-772.566 614.492c-2.974-2.474-10.07-2.081-14.1.8-1.313.936-1.94 2.919.771 3.847a14.356 14.356 0 0 0 10.672-.278c2.49-1.13 3.866-3.36 2.66-4.364z" class="cls-31" transform="translate(815.667 -386.377)"/>
                                    <path id="패스_2745" d="M-789.364 621.186c3.138 2.32 7.993 2.875 12.014 1.7a9.854 9.854 0 0 0 6.207-4.68.248.248 0 0 0-.108-.334.248.248 0 0 0-.333.107 9.356 9.356 0 0 1-5.906 4.431c-3.874 1.135-8.554.616-11.579-1.621a.249.249 0 0 0-.347.052.249.249 0 0 0 .052.347z" class="cls-25" transform="translate(816.204 -387.977)"/>
                                    <path id="패스_2746" d="M-741.341 620.532c-.957-1.824-3.777-3.173-7.874-3.212a19.545 19.545 0 0 0-6.055 1.3c-3.286 1.325-4.884 3.053-4.988 5.577-.075 1.833-.069 3.482 1.58 4.618 3.091 2.13 9.621 2.486 14.013.208 3.012-1.562 4.189-3.1 3.654-6.506a6.954 6.954 0 0 0-.33-1.981z" class="cls-9" transform="translate(806.836 -387.809)"/>
                                    <path id="패스_2747" d="M-742.39 621.013c-2.973-2.474-10.07-2.08-14.1.8-1.313.936-1.94 2.92.771 3.848a14.359 14.359 0 0 0 10.671-.279c2.49-1.13 3.866-3.36 2.66-4.364z" class="cls-16" transform="translate(805.981 -388.47)"/>
                                    <path id="패스_2748" d="M-759.189 627.707c3.138 2.321 7.993 2.875 12.014 1.7a9.852 9.852 0 0 0 6.207-4.68.248.248 0 0 0-.107-.334.248.248 0 0 0-.334.107 9.358 9.358 0 0 1-5.906 4.43c-3.874 1.135-8.555.616-11.579-1.621a.249.249 0 0 0-.347.052.249.249 0 0 0 .052.347z" class="cls-25" transform="translate(806.518 -390.07)"/>
                                </g>
                            </g>
                            <path id="패스_2749" d="M-705.539 703.832a7.271 7.271 0 0 0-2.131-5.143 7.273 7.273 0 0 0-5.143-2.13H-794a7.271 7.271 0 0 0-5.143 2.13 7.274 7.274 0 0 0-2.131 5.143v.97a7.276 7.276 0 0 0 2.131 5.143 7.271 7.271 0 0 0 5.143 2.13h81.185a7.273 7.273 0 0 0 5.143-2.13 7.273 7.273 0 0 0 2.131-5.143v-.97zm-.527 0v.97a6.746 6.746 0 0 1-1.976 4.77 6.743 6.743 0 0 1-4.77 1.976H-794a6.744 6.744 0 0 1-4.771-1.976 6.746 6.746 0 0 1-1.976-4.77v-.97a6.746 6.746 0 0 1 1.976-4.77 6.747 6.747 0 0 1 4.771-1.975h81.185a6.746 6.746 0 0 1 4.77 1.976 6.746 6.746 0 0 1 1.976 4.77z" class="cls-7" transform="translate(819.994 -413.245)"/>
                            <path id="패스_2750" fill="#7b95ba" fill-rule="evenodd" d="M-638.827 700.833l-16.441 9.925 3.635-7.81-3.635-5.151 16.441 3.036z" transform="translate(773.127 -413.642)"/>
                            <path id="패스_2751" d="M-649.41 704.482c2.785-.408 8.356-1.223 11.253-1.727a.264.264 0 0 0 .215-.305.264.264 0 0 0-.306-.215c-2.893.5-8.457 1.318-11.239 1.725a.264.264 0 0 0-.223.3.263.263 0 0 0 .3.223z" class="cls-6" transform="translate(771.343 -415.065)"/>
                            <path id="패스_2752" d="M-710.671 301.083a3.745 3.745 0 0 0-3.745-3.745h-20.778a3.745 3.745 0 0 0-3.744 3.745v3.072a3.744 3.744 0 0 0 3.744 3.744h20.778a3.744 3.744 0 0 0 3.745-3.744v-3.072z" class="cls-31" transform="translate(799.985 -285.096)"/>
                            <path id="패스_2753" d="M-730.7 301.059v4.641h2.64a.7.7 0 0 1 .485.152.494.494 0 0 1 .169.383.481.481 0 0 1-.167.38.72.72 0 0 1-.487.146h-3.14a.839.839 0 0 1-.612-.187.83.83 0 0 1-.187-.6v-4.909a.849.849 0 0 1 .178-.587.6.6 0 0 1 .467-.2.624.624 0 0 1 .476.194.835.835 0 0 1 .182.589z" class="cls-33" transform="translate(797.759 -286.039)"/>
                            <path id="패스_2754" d="M-723.9 306.081v-5.022a.841.841 0 0 1 .18-.587.6.6 0 0 1 .464-.2.624.624 0 0 1 .476.194.832.832 0 0 1 .182.589v5.022a.842.842 0 0 1-.182.591.621.621 0 0 1-.476.2.6.6 0 0 1-.462-.2.844.844 0 0 1-.182-.589z" class="cls-33" transform="translate(795.156 -286.039)"/>
                            <path id="패스_2755" d="M-719.087 301.123l1.456 4.274 1.46-4.3c.077-.226.133-.384.171-.472a.632.632 0 0 1 .189-.239.554.554 0 0 1 .36-.107.6.6 0 0 1 .309.083.61.61 0 0 1 .224.219.539.539 0 0 1 .081.276.89.89 0 0 1-.026.207 1.727 1.727 0 0 1-.066.217l-.079.219-1.557 4.166c-.056.16-.111.311-.167.454a1.945 1.945 0 0 1-.193.378.859.859 0 0 1-.292.268.878.878 0 0 1-.445.1.892.892 0 0 1-.445-.1.838.838 0 0 1-.294-.27 2.013 2.013 0 0 1-.2-.38q-.083-.213-.167-.452l-1.53-4.13q-.04-.113-.081-.222a1.83 1.83 0 0 1-.07-.235 1 1 0 0 1-.028-.213.564.564 0 0 1 .18-.4.607.607 0 0 1 .452-.183.53.53 0 0 1 .472.2 2.69 2.69 0 0 1 .282.645z" class="cls-33" transform="translate(794.058 -286.039)"/>
                            <path id="패스_2756" d="M-706.5 301.431h-2.934V303h2.7a.646.646 0 0 1 .445.132.448.448 0 0 1 .147.35.465.465 0 0 1-.145.354.63.63 0 0 1-.447.137h-2.7v1.814h3.035a.667.667 0 0 1 .462.141.482.482 0 0 1 .156.376.473.473 0 0 1-.156.367.67.67 0 0 1-.462.141h-3.54a.838.838 0 0 1-.612-.187.829.829 0 0 1-.186-.6v-4.792a1.066 1.066 0 0 1 .083-.454.514.514 0 0 1 .261-.256 1.1 1.1 0 0 1 .453-.081h3.439a.671.671 0 0 1 .463.137.46.46 0 0 1 .151.359.467.467 0 0 1-.151.363.674.674 0 0 1-.463.137z" class="cls-33" transform="translate(790.931 -286.09)"/>
                            <path id="패스_2757" d="M-642.826 655.173a5.346 5.346 0 0 1 8.027-1.734c2.007 1.734 2.007 5.2 0 8.672-1.4 2.6-5.017 5.2-8.027 6.937-3.01-1.735-6.622-4.336-8.027-6.937-2.006-3.469-2.006-6.937 0-8.672a5.346 5.346 0 0 1 8.027 1.734z" class="cls-7" transform="translate(772.193 -399.038)"/>
                            <path id="패스_2758" d="M-637.938 625.075a5.346 5.346 0 0 1 8.027-1.734c2.006 1.734 2.006 5.2 0 8.671-1.4 2.6-5.017 5.2-8.027 6.937-3.01-1.734-6.622-4.335-8.027-6.937-2.007-3.468-2.007-6.937 0-8.671a5.346 5.346 0 0 1 8.027 1.734z" class="cls-7" transform="translate(770.624 -389.376)"/>
                            <path id="패스_2759" d="M-651.7 594.473a5.345 5.345 0 0 1 8.026-1.734c2.007 1.734 2.007 5.2 0 8.671-1.4 2.6-5.016 5.2-8.026 6.937-3.01-1.734-6.622-4.335-8.027-6.937-2.006-3.468-2.006-6.937 0-8.671a5.346 5.346 0 0 1 8.027 1.734z" class="cls-7" transform="translate(775.042 -379.553)"/>
                            <path id="패스_2760" d="M-635.345 565.957a5.345 5.345 0 0 1 8.026-1.734c2.007 1.734 2.007 5.2 0 8.672-1.4 2.6-5.016 5.2-8.026 6.937-3.01-1.734-6.622-4.335-8.027-6.937-2.006-3.468-2.006-6.937 0-8.672a5.346 5.346 0 0 1 8.027 1.734z" class="cls-7" transform="translate(769.792 -370.4)"/>
                            <path id="패스_2761" d="M-656.673 553.75a2.884 2.884 0 0 1 4.389-.972c1.1.972 1.1 2.916 0 4.859-.768 1.458-2.743 2.916-4.389 3.887-1.646-.972-3.621-2.429-4.388-3.887-1.1-1.943-1.1-3.887 0-4.859a2.883 2.883 0 0 1 4.388.972z" class="cls-7" transform="translate(775.251 -366.887)"/>
                            <path id="패스_2762" d="M-624.99 595.38a2.883 2.883 0 0 1 4.388-.972c1.1.972 1.1 2.916 0 4.859-.768 1.458-2.742 2.916-4.388 3.887-1.646-.972-3.621-2.429-4.389-3.887-1.1-1.943-1.1-3.887 0-4.859a2.884 2.884 0 0 1 4.389.972z" class="cls-7" transform="translate(765.081 -380.25)"/>
                            <path id="패스_2763" d="M-663.57 624.352a2.884 2.884 0 0 1 4.389-.972c1.1.972 1.1 2.916 0 4.859-.769 1.458-2.743 2.916-4.389 3.887-1.646-.972-3.62-2.429-4.389-3.887-1.1-1.943-1.1-3.887 0-4.859a2.884 2.884 0 0 1 4.389.972z" class="cls-7" transform="translate(777.465 -389.55)"/>
                            <path id="패스_2764" d="M-631.992 546.171a2.884 2.884 0 0 1 4.389-.972c1.1.972 1.1 2.916 0 4.859-.768 1.458-2.743 2.916-4.389 3.887-1.646-.972-3.62-2.429-4.388-3.887-1.1-1.943-1.1-3.887 0-4.859a2.883 2.883 0 0 1 4.388.972z" class="cls-7" transform="translate(767.328 -364.454)"/>
                            <path id="패스_2765" d="M-655.186 530.259a2.884 2.884 0 0 1 4.389-.972c1.1.972 1.1 2.916 0 4.859-.768 1.458-2.743 2.916-4.389 3.887-1.646-.972-3.62-2.429-4.389-3.887-1.1-1.943-1.1-3.887 0-4.859a2.884 2.884 0 0 1 4.389.972z" class="cls-7" transform="translate(774.773 -359.346)"/>
                            <path id="패스_2766" d="M-669.809 510.519a2.883 2.883 0 0 1 4.388-.972c1.1.972 1.1 2.916 0 4.859-.768 1.458-2.743 2.916-4.388 3.887-1.646-.972-3.621-2.43-4.389-3.887-1.1-1.943-1.1-3.887 0-4.859a2.884 2.884 0 0 1 4.389.972z" class="cls-7" transform="translate(779.468 -353.01)"/>
                            <path id="패스_2767" d="M-634.891 524.111a2.883 2.883 0 0 1 4.388-.972c1.1.972 1.1 2.916 0 4.859-.768 1.458-2.742 2.915-4.388 3.887-1.646-.972-3.621-2.43-4.389-3.887-1.1-1.943-1.1-3.887 0-4.859a2.884 2.884 0 0 1 4.389.972z" class="cls-7" transform="translate(768.259 -357.373)"/>
                        </g>
                        <path id="패스_2768" d="M-905.859 301.929l-58.546-37.86-15.36 33.693z" class="cls-11" transform="translate(22357.164 -17086.148)"/>
                        <path id="패스_2769" d="M-857.367 239.921l-17.255-67.552-34.158 14.3z" class="cls-11" transform="translate(22334.379 -17056.711)"/>
                        <path id="패스_2770" d="M-786.353 218.738l21.586-66.295-36.5-6.209z" class="cls-11" transform="translate(22299.869 -17048.324)"/>
                    </g>
                </g>
            </g>
            <g filter="url(#사각형_1418)" transform="translate(19989 -17995)">
                <rect id="사각형_1418-2" width="704" height="368" class="cls-33" rx="10" transform="translate(9 261)"/>
            </g>
            <text id="쇼핑_중에도_소형_라이브톡으로_원활한_영상_시청_" fill="#f27070" font-family="TmonMonsoriBlack, TmonMonsori" font-size="35px" letter-spacing="0.01em" transform="translate(20048 -17582)">
                <tspan x="0" y="0">쇼핑 중에도 </tspan><tspan x="0" y="46">소형 라이브톡으로 원활한 영상 시청!</tspan>
            </text>
            <text id="라이브_시청_중에_쇼핑몰로_이동은_걱정하지_마세요_어느_쇼핑몰로_이동하든_소형_라이브톡이_함께합니다." fill="#110101" font-family="NotoSansCJKkr-Regular, Noto Sans CJK KR" font-size="16px" letter-spacing="0.01em" transform="translate(20048 -17473)">
                <tspan x="0" y="0">라이브 시청 중에 쇼핑몰로 이동은 걱정하지 마세요!</tspan><tspan x="0" y="24">어느 쇼핑몰로 이동하든 소형 라이브톡이 함께합니다.</tspan>
            </text>
            <path id="사각형_1423" fill="#e73828" d="M0 0H165V42H0z" transform="translate(20048 -17694)"/>
            <text id="LIVE_TALK_" fill="#fff" font-family="NotoSansCJKkr-Bold, Noto Sans CJK KR" font-size="20px" font-weight="700" letter-spacing="-0.02em" transform="translate(20068 -17664)">
                <tspan x="0" y="0">LIVE TALK </tspan><tspan y="0" font-family="SegoeUIEmoji, Segoe UI Emoji" font-weight="400">📺</tspan>
            </text>
        </g>
        <text id="_자사쇼핑몰_라이브톡_소형플레이어" fill="#110101" font-family="NanumSquare_acR, NanumSquare_ac" font-size="16px" transform="rotate(90 15687 1655)">
            <tspan x="0" y="0">#</tspan><tspan y="0" class="cls-40">자사쇼핑몰</tspan><tspan y="0"> #</tspan><tspan y="0" class="cls-40">라이브톡</tspan><tspan y="0"> #</tspan><tspan y="0" class="cls-40">소형플레이어</tspan>
        </text>
    </g>
</svg>
