<svg xmlns="http://www.w3.org/2000/svg" width="1179" height="641" viewBox="0 0 1179 641">
    <defs>
        <clipPath id="clip-path">
            <path id="사각형_1420" d="M0 0H519V519H0z" class="cls-1" transform="translate(.449 .324)"/>
        </clipPath>
        <clipPath id="clip-path-2">
            <path id="SVGID" d="M197.835 731.139h-552.571v218.692h552.571V731.139z" class="cls-2" transform="translate(354.736 -731.139)"/>
        </clipPath>
        <clipPath id="clip-path-3">
            <path id="SVGID-2" d="M535.436 568.3c.595-18.189-135.009-16.906-137.015-.026-.962 8.091 31.182 26.391 73.314 25.684 35.566-.6 63.454-18.095 63.7-25.658z" class="cls-2" transform="translate(-398.401 -555.132)"/>
        </clipPath>
        <clipPath id="clip-path-4">
            <path id="SVGID-3" d="M858.3-78.436c3.2 3.258 1.859 17.824 1.886 24.153.021 4.642-.047 9.266-1.713 13.819-1.473 4.014-3.9 8.194-11.245 8.317-7.267.122-11.478-4.273-12.552-8.282-1.122-4.186-.865-7.247-1.025-11.56-.174-4.688-.323-18.169 1.769-22.519 3.9-8.1 15.575-11.375 22.881-3.929z" class="cls-2" transform="translate(-833.557 82.607)"/>
        </clipPath>
        <clipPath id="clip-path-5">
            <path id="SVGID-4" d="M860.407 386.209c6.634-4.141 6.321-13.63-2.006-15.555-.949-.219-3.483-.437-4.447-.572a6.919 6.919 0 0 0-.96-.095c-.644 0-1.288.049-1.931.095-1.562.112-3.662.293-5.319.49-1.056.125-1.769.216-2.778.428a1.5 1.5 0 0 0-.546.211.853.853 0 0 0-.06.772 2.26 2.26 0 0 0 1.09 1.346 12.583 12.583 0 0 0 3.97 1.081c.312.065.623.137.929.224.332.095.835.328.69.766a1.455 1.455 0 0 1-.42.5 15.59 15.59 0 0 1-2.127 1.387 42.336 42.336 0 0 1-6.335 3.036c-2.417.867-5.361 1.391-6.054 1.605a1.024 1.024 0 0 0-.672 1.228 1.882 1.882 0 0 0 .762 1.3 4.655 4.655 0 0 0 2.459.449c.38 0 .762 0 1.141-.023.681-.047 4.008-.914 4.263-.851a13.692 13.692 0 0 1-2.731 1.226 22.869 22.869 0 0 0-3.645 1.4c-.322.169-.8.456-.919.835a.9.9 0 0 0-.044.316 1.223 1.223 0 0 0 .857.971 6.091 6.091 0 0 0 1.357.17 10.5 10.5 0 0 0 2.346-.111 21.914 21.914 0 0 0 2.286-.528c.191-.047 2.217-.88 2.005-.761s-3.234 1.455-3.275 1.473a22.733 22.733 0 0 1-2.481.959 6.7 6.7 0 0 0-1.273.4.645.645 0 0 0-.3.649 1.066 1.066 0 0 0 .3.749 1.709 1.709 0 0 0 .653.179 8.821 8.821 0 0 0 1.951.107 20.163 20.163 0 0 0 4.382-.815c.591-.176 1.171-.385 1.753-.59.233-.082-1.856.936-2.722 1.445a10.662 10.662 0 0 0-1.5.939.627.627 0 0 0-.137.773.692.692 0 0 0 .49.446 23.848 23.848 0 0 0 5.969-1.064c3.015-.761 6.221-2.748 13.023-6.994z" class="cls-2" transform="translate(-833.412 -369.987)"/>
        </clipPath>
        <clipPath id="clip-path-6">
            <path id="SVGID-5" d="M214.169-109.371l-88.478-2.475 25.381 327.983 86.557-21.066-23.46-304.442z" class="cls-2" transform="translate(-125.691 111.846)"/>
        </clipPath>
        <clipPath id="clip-path-7">
            <path id="교차_3" d="M13.214 50.46c-7.341-.124-9.772-4.3-11.245-8.317C.3 37.589.234 32.965.255 28.324c.027-6.329-1.31-20.895 1.886-24.153C9.447-3.275 21.123 0 25.021 8.1c2.092 4.35 1.943 17.83 1.769 22.519-.16 4.313.1 7.374-1.024 11.56-1.06 3.955-5.171 8.285-12.257 8.284z" class="cls-3"/>
        </clipPath>
        <clipPath id="clip-path-9">
            <path id="교차_4" d="M17.664 23.216c-3.015-.761-6.222-2.749-13.023-6.994C-1.993 12.081-1.68 2.591 6.647.666 7.6.447 10.13.229 11.094.095a6.937 6.937 0 0 1 .96-.095c.644 0 1.288.049 1.931.095 1.562.112 3.662.293 5.318.49 1.056.125 1.769.216 2.779.428a1.5 1.5 0 0 1 .546.211.854.854 0 0 1 .06.772A2.26 2.26 0 0 1 21.6 3.341a12.576 12.576 0 0 1-3.969 1.081c-.312.065-.623.137-.929.224-.332.095-.835.328-.689.766a1.454 1.454 0 0 0 .42.5 15.625 15.625 0 0 0 2.127 1.387 42.344 42.344 0 0 0 6.335 3.036c2.417.867 5.361 1.391 6.054 1.605a1.024 1.024 0 0 1 .672 1.228 1.881 1.881 0 0 1-.762 1.3 4.654 4.654 0 0 1-2.459.449c-.38 0-.761 0-1.141-.023-.681-.047-4.008-.913-4.263-.851a13.711 13.711 0 0 0 2.731 1.226 22.894 22.894 0 0 1 3.645 1.4c.322.169.8.456.919.835a.9.9 0 0 1 .044.315 1.222 1.222 0 0 1-.857.971 6.092 6.092 0 0 1-1.357.17 10.5 10.5 0 0 1-2.346-.111 21.935 21.935 0 0 1-2.286-.528c-.191-.047-2.217-.88-2-.761s3.234 1.455 3.275 1.473a22.764 22.764 0 0 0 2.481.959 6.7 6.7 0 0 1 1.273.4.644.644 0 0 1 .3.649 1.062 1.062 0 0 1-.3.749 1.707 1.707 0 0 1-.653.179 8.851 8.851 0 0 1-1.952.107 20.185 20.185 0 0 1-4.382-.815c-.591-.177-1.171-.385-1.753-.59-.233-.082 1.856.936 2.722 1.445a10.68 10.68 0 0 1 1.5.939.627.627 0 0 1 .137.774.694.694 0 0 1-.49.446q-.144.01-.3.01a27.987 27.987 0 0 1-5.683-1.069z" class="cls-3"/>
        </clipPath>
        <clipPath id="clip-path-10">
            <path id="SVGID-7" d="M822.231-159.813a27.7 27.7 0 0 0-10.456-17.987c-7.907-5.648-19.239-3.293-25.424 3.992-7.6 8.954-6.812 23.714-5.536 34.7 1.138 9.792 7.153 17.409 16.97 19.475a17 17 0 0 0 6.875.355c4.688-.966 9.224-4.395 12.34-7.9 7.387-8.322 6.1-24.191 5.232-32.627z" class="cls-2" transform="translate(-779.993 180.941)"/>
        </clipPath>
        <clipPath id="clip-path-12">
            <path id="SVGID-9" d="M233.23-159.813a27.7 27.7 0 0 1 10.457-17.987c7.907-5.648 19.239-3.293 25.424 3.992 7.6 8.954 6.812 23.714 5.536 34.7-1.138 9.792-7.153 17.409-16.97 19.475a17 17 0 0 1-6.875.355c-4.688-.966-9.224-4.395-12.34-7.9-7.387-8.322-6.1-24.191-5.232-32.627z" class="cls-2" transform="translate(-232.553 180.941)"/>
        </clipPath>
        <filter id="사각형_1418" width="722" height="386" x="0" y="255" filterUnits="userSpaceOnUse">
            <feOffset dy="3"/>
            <feGaussianBlur result="blur" stdDeviation="3"/>
            <feFlood flood-opacity=".102"/>
            <feComposite in2="blur" operator="in"/>
            <feComposite in="SourceGraphic"/>
        </filter>
        <style>
            .cls-1{fill:#fff1f1}.cls-2,.cls-3{fill:none}.cls-2{clip-rule:evenodd}.cls-11,.cls-12,.cls-13,.cls-15,.cls-17,.cls-18,.cls-22,.cls-23,.cls-24,.cls-25,.cls-27,.cls-28,.cls-29,.cls-30,.cls-32,.cls-33,.cls-7,.cls-8,.cls-9{fill-rule:evenodd}.cls-7{fill:#fcf1ed}.cls-8{fill:#f2dbc9}.cls-9{fill:#a07262}.cls-11{fill:#eccbb1}.cls-12{fill:#403641}.cls-13{fill:#c8bfc4}.cls-15{fill:#fbf2f3}.cls-17{fill:#d25e5e}.cls-18{fill:#ff7976}.cls-22{fill:#ff7541}.cls-23,.cls-47{fill:#f27070}.cls-24{fill:#ffbdbc}.cls-25{fill:#ffbebc}.cls-27{fill:#ff9e9c}.cls-28{fill:#403642}.cls-29{fill:#8b5353}.cls-30{fill:#ff9e9d}.cls-32{fill:#c08f71}.cls-33{fill:#d8ab82}.cls-34{clip-path:url(#clip-path-6)}
        </style>
    </defs>
    <g id="그룹_2927" transform="translate(-351 -1202)">
        <g id="그룹_2851" transform="translate(-7 -11)">
            <rect id="사각형_1419" width="569" height="569" class="cls-1" rx="10" transform="translate(968 1213)"/>
            <g id="마스크_그룹_15" clip-path="url(#clip-path)" transform="translate(992.551 1230.676)">
                <g id="그룹_1460" transform="translate(-28.176 55.454)">
                    <g id="그룹_1439" transform="translate(0 285.529)">
                        <g id="그룹_1438" clip-path="url(#clip-path-2)">
                            <path id="패스_2335" d="M194 766.792c-19.215-16.31-61.88-32.458-156.955-35.586-43.3-1.424-79.481 20.393-138.323 29.272-48.417 7.305-67.559-12.209-151.98 7.653-79.616 18.732-108.019 66.1-100.242 88.576 8.521 24.628 66.712 32.253 89.321 40.669 14.653 5.455 30.038 12.656 40.2 24.189 10.518 11.937 13.787 31.15 30.466 37.576a35.03 35.03 0 0 0 4.485 1.369c38.233 9.066 81.377-10.6 120.169-10.6 50.251 0 96.176 25.117 147.026 19.929 29.484-3.008 62.044-16.357 86.421-31.591 67.594-42.245-14.386-78.2-12.252-109.179 1.745-25.346 60.877-45.966 41.66-62.277z" class="cls-7" transform="translate(354.736 -731.139)"/>
                            <path id="패스_2336" d="M-28.27 1033.282a2.622 2.622 0 0 1 .5.7c.226.4.435.805.641 1.1a.909.909 0 0 0 1.263.231.91.91 0 0 0 .232-1.264 11.38 11.38 0 0 0-1.468-2.166.908.908 0 0 0-1.279.11.911.911 0 0 0 .111 1.281z" class="cls-8" transform="translate(129.213 -938.958)"/>
                            <path id="패스_2337" d="M-15.155 1020.972c.382 1.814.557 4.784.77 5.8a.907.907 0 0 0 1.075.7.907.907 0 0 0 .7-1.073c-.213-1.02-.388-3.991-.772-5.807a.909.909 0 0 0-1.076-.7.91.91 0 0 0-.7 1.077z" class="cls-8" transform="translate(119.934 -930.797)"/>
                            <path id="패스_2338" d="M148.8 1266.984a31.108 31.108 0 0 0 .632 4.541.908.908 0 1 0 1.772-.4 29.19 29.19 0 0 1-.591-4.248.908.908 0 1 0-1.813.106z" class="cls-8" transform="translate(6.546 -1101.004)"/>
                            <path id="패스_2339" d="M159.384 1268.188c.091.8.311 2.971.359 3.312a.909.909 0 0 0 1.8-.258c-.048-.335-.264-2.465-.354-3.256a.908.908 0 1 0-1.8.2z" class="cls-8" transform="translate(-.768 -1101.803)"/>
                            <path id="패스_2340" d="M173.535 1257.584c0 .267 0 .719-.018.9-.1 1.148-.141 2.3-.213 3.447a.909.909 0 1 1-1.813-.115c.074-1.161.119-2.326.217-3.485.027-.328.019-1.18.05-1.3a.863.863 0 0 1 .8-.692.9.9 0 0 1 1 .784.878.878 0 0 1-.021.464zm-1.725.021zm-.016-.049v.01-.013z" class="cls-8" transform="translate(-9.142 -1094.304)"/>
                            <path id="패스_2341" d="M275.323 1114.918c.013.121.04.379.077.592.166.945.488 2.205.519 2.4a.909.909 0 0 1-1.8.276c-.039-.251-.552-2.248-.613-3.119a1.638 1.638 0 0 1 .124-.837.971.971 0 0 1 .384-.4.908.908 0 0 1 1.306 1.093z" class="cls-8" transform="translate(-79.684 -995.68)"/>
                            <path id="패스_2342" d="M283.751 1113.3a.909.909 0 0 1 1.474-1.062 2.373 2.373 0 0 1 .387 1.129c.078.677-.006 1.575.033 2a.908.908 0 1 1-1.808.167c-.034-.367.021-1.088-.01-1.718a4.406 4.406 0 0 0-.076-.515z" class="cls-8" transform="translate(-86.66 -994.412)"/>
                            <path id="패스_2343" d="M306.692 1112.332c-.027.262-.087.852-.114 1.088a.908.908 0 1 1-1.8-.2c.036-.317.116-1.146.132-1.26a.909.909 0 0 1 .839-.8.864.864 0 0 1 .742.3.833.833 0 0 1 .226.522 1.454 1.454 0 0 1 0 .229.815.815 0 0 1-.017.119z" class="cls-8" transform="translate(-101.303 -993.918)"/>
                            <path id="패스_2344" d="M329.9 1255.818v.045c.051.683.091 1.366.132 2.049a.909.909 0 0 1-1.815.105c-.038-.673-.078-1.345-.129-2.019a3.383 3.383 0 0 1-.013-.407.906.906 0 0 1 .089-.3.873.873 0 0 1 .607-.486.838.838 0 0 1 1 .421.9.9 0 0 1 .127.6zm-1.478.58a.91.91 0 0 1-.195-.224.831.831 0 0 0 .195.224z" class="cls-8" transform="translate(-117.417 -1093.22)"/>
                            <path id="패스_2345" d="M347.493 1257.6a.908.908 0 0 1 1.219-1.174 1.087 1.087 0 0 1 .586.88 10.764 10.764 0 0 1-.046 1.442.908.908 0 0 1-1.816-.038c0-.082.044-.878.057-1.11z" class="cls-8" transform="translate(-130.798 -1094.309)"/>
                            <path id="패스_2346" d="M282.919 1387.48a.908.908 0 0 1 1.257-1.294 1.589 1.589 0 0 1 .5.812 22.53 22.53 0 0 1 .34 2.473.908.908 0 0 1-1.784.345c-.044-.232-.088-.959-.173-1.622-.033-.255-.114-.607-.139-.714z" class="cls-8" transform="translate(-86.055 -1183.968)"/>
                            <path id="패스_2347" d="M302.924 1385.852c.01.181.044.807.045.847a.909.909 0 0 1-1.816.053 11.129 11.129 0 0 1-.021-1.253.9.9 0 0 1 .7-.734.908.908 0 0 1 1.09.68.9.9 0 0 1 0 .407zm-.225.42a.894.894 0 0 1-.456.262.844.844 0 0 0 .456-.262zm.01-.011z" class="cls-8" transform="translate(-98.778 -1183.098)"/>
                            <path id="패스_2348" d="M-135.283 1166.98a4.161 4.161 0 0 1 .785 1.257c.277.6.52 1.223.783 1.712a.908.908 0 0 0 1.231.368.91.91 0 0 0 .368-1.231c-.55-1.02-1.042-2.584-1.909-3.417a.909.909 0 0 0-1.285.026.909.909 0 0 0 .027 1.285z" class="cls-8" transform="translate(203.18 -1031.436)"/>
                            <path id="패스_2349" d="M-121.914 1163.033a.906.906 0 0 1-.121-.655.909.909 0 0 1 1.066-.717.966.966 0 0 1 .708.6c.183.414.539 2.378.591 2.569a.908.908 0 0 1-.635 1.116.909.909 0 0 1-1.117-.635c-.043-.159-.428-1.976-.492-2.275z" class="cls-8" transform="translate(193.837 -1028.828)"/>
                            <path id="패스_2350" d="M-132.321 1053.676c.18.382.647 1.382.8 1.781.463 1.221.777 2.486 1.116 3.741a.908.908 0 0 1-.639 1.113.91.91 0 0 1-1.114-.64c-.323-1.2-.618-2.4-1.06-3.569-.176-.466-.739-1.641-.816-1.806a.834.834 0 0 1-.028-.746.858.858 0 0 1 .677-.552.86.86 0 0 1 .727.18.77.77 0 0 1 .243.292c0 .008.026.052.068.141a.64.64 0 0 1 .029.065z" class="cls-8" transform="translate(202.194 -953.689)"/>
                            <path id="패스_2351" d="M-120.486 1054.191c.05.379.34 2.6.361 2.73a.909.909 0 0 1-.753 1.041.908.908 0 0 1-1.041-.753 31.008 31.008 0 0 1-.385-3.227.936.936 0 0 1 .8-.909.907.907 0 0 1 1.03.765.891.891 0 0 1-.017.353zm-.669.662l-.023.005h.022zm.056-.015l-.027.007.023-.005.044-.015-.04.013zm.126-.05c-.014.006-.027.013-.041.018l-.041.017a.831.831 0 0 0 .121-.055l-.038.02zm.065-.034l-.021.012.021-.012z" class="cls-8" transform="translate(194.014 -953.745)"/>
                            <path id="패스_2352" d="M7.012 1202.861a13.947 13.947 0 0 0 .347 3.037.908.908 0 1 0 1.792-.294 12.22 12.22 0 0 1-.327-2.632.908.908 0 1 0-1.812-.112z" class="cls-8" transform="translate(104.598 -1056.74)"/>
                            <path id="패스_2353" d="M22.947 1181.788a.909.909 0 0 1-.011-.912 1.01 1.01 0 0 1 .694-.552.9.9 0 0 1 .631.089.919.919 0 0 1 .424.454 1.576 1.576 0 0 1 .108.611c0 .452-.112 1.36-.1 1.772a.908.908 0 1 1-1.815.071c-.011-.308.035-1.077.067-1.534z" class="cls-8" transform="translate(93.661 -1041.73)"/>
                            <path id="패스_2354" d="M96.17 1039.765v.036c.033.436.2 2.626.212 2.763a.908.908 0 0 1-1.812.127l-.212-2.756c-.067-.895.913-1.05.915-1.05a.91.91 0 0 1 .894.88z" class="cls-8" transform="translate(44.193 -943.942)"/>
                            <path id="패스_2355" d="M121.228 1040.859a.907.907 0 0 1 .649-1.049.844.844 0 0 1 .971.329 1 1 0 0 1 .193.559c.031.468-.11 2.895-.119 2.994a.908.908 0 1 1-1.808-.175c.009-.082.1-2.334.114-2.658zm.242.461a.826.826 0 0 0 .891.241.91.91 0 0 1-.891-.241z" class="cls-8" transform="translate(25.694 -944.553)"/>
                            <path id="패스_2356" d="M3.5 1017.25c-.024.424-.169 2.967-.183 3.17a.908.908 0 1 1-1.817-.12 28.134 28.134 0 0 1 .281-3.707.982.982 0 0 1 .817-.705.908.908 0 0 1 .9 1.359z" class="cls-8" transform="translate(108.403 -928.037)"/>
                            <path id="패스_2357" d="M632.282 1208.064a2.631 2.631 0 0 1 .5.7c.226.4.435.805.641 1.1a.909.909 0 0 0 1.5-1.033 11.406 11.406 0 0 0-1.468-2.166.908.908 0 1 0-1.168 1.391z" class="cls-8" transform="translate(-327.552 -1059.818)"/>
                            <path id="패스_2358" d="M886.049 1265.3a11.394 11.394 0 0 0-1.468 2.166.909.909 0 0 0 1.5 1.033c.206-.3.415-.709.641-1.1a2.638 2.638 0 0 1 .5-.7.908.908 0 1 0-1.168-1.391z" class="cls-8" transform="translate(-502.126 -1100.36)"/>
                            <path id="패스_2359" d="M1178.668 829.052a11.373 11.373 0 0 0-1.468 2.166.908.908 0 0 0 1.495 1.033c.206-.3.415-.708.641-1.1a2.615 2.615 0 0 1 .5-.7.908.908 0 0 0-1.168-1.391z" class="cls-8" transform="translate(-704.469 -798.698)"/>
                            <path id="패스_2360" d="M645.4 1195.754c.382 1.814.557 4.785.77 5.8a.908.908 0 0 0 1.778-.372c-.213-1.02-.388-3.991-.772-5.807a.908.908 0 1 0-1.777.374z" class="cls-8" transform="translate(-336.831 -1051.657)"/>
                            <path id="패스_2361" d="M873.52 1254.011c-.384 1.816-.559 4.787-.771 5.807a.908.908 0 0 0 1.778.371c.213-1.02.388-3.99.77-5.8a.908.908 0 1 0-1.777-.375z" class="cls-8" transform="translate(-494.042 -1092.2)"/>
                            <path id="패스_2362" d="M1166.14 817.76c-.384 1.816-.558 4.787-.771 5.807a.908.908 0 0 0 1.778.371c.214-1.02.388-3.99.771-5.8a.908.908 0 1 0-1.777-.374z" class="cls-8" transform="translate(-696.385 -790.537)"/>
                            <path id="패스_2363" d="M1120.4 1260a31.031 31.031 0 0 0 .632 4.541.908.908 0 1 0 1.772-.4 29.14 29.14 0 0 1-.591-4.248.908.908 0 1 0-1.813.105z" class="cls-8" transform="translate(-665.303 -1096.176)"/>
                            <path id="패스_2364" d="M1130.982 1261.206c.091.8.311 2.971.359 3.311a.909.909 0 0 0 1.8-.258c-.048-.335-.265-2.465-.354-3.256a.908.908 0 1 0-1.8.2z" class="cls-8" transform="translate(-672.617 -1096.976)"/>
                            <path id="패스_2365" d="M1145.133 1250.6c0 .268 0 .719-.018.9-.1 1.148-.141 2.3-.213 3.447a.909.909 0 1 1-1.814-.115c.074-1.161.119-2.326.218-3.485.027-.328.018-1.179.05-1.3a.863.863 0 0 1 .8-.692.9.9 0 0 1 1 .784.878.878 0 0 1-.021.464zm-1.725.021zm-.016-.049v.011-.013z" class="cls-8" transform="translate(-680.991 -1089.477)"/>
                            <path id="패스_2366" d="M1246.921 1107.936c.013.121.04.38.077.592.167.945.488 2.206.519 2.4a.909.909 0 0 1-1.8.276c-.039-.25-.552-2.248-.613-3.119a1.638 1.638 0 0 1 .124-.837.968.968 0 0 1 .384-.4.908.908 0 0 1 1.306 1.092z" class="cls-8" transform="translate(-751.533 -990.852)"/>
                            <path id="패스_2367" d="M1255.349 1106.315a.909.909 0 0 1 1.474-1.062 2.374 2.374 0 0 1 .387 1.129c.078.677-.006 1.574.033 2a.908.908 0 1 1-1.808.167c-.034-.368.021-1.088-.01-1.718a4.424 4.424 0 0 0-.076-.516z" class="cls-8" transform="translate(-758.509 -989.584)"/>
                            <path id="패스_2368" d="M1278.29 1105.351c-.027.262-.086.852-.114 1.088a.908.908 0 0 1-1.805-.2c.036-.318.116-1.146.132-1.26a.908.908 0 0 1 .839-.8.866.866 0 0 1 .742.3.833.833 0 0 1 .226.522 1.479 1.479 0 0 1 0 .229.863.863 0 0 1-.017.119z" class="cls-8" transform="translate(-773.152 -989.09)"/>
                            <path id="패스_2369" d="M1301.493 1248.836v.045c.051.682.091 1.366.132 2.049a.909.909 0 0 1-1.815.105c-.038-.673-.078-1.345-.129-2.019a3.329 3.329 0 0 1-.012-.407.907.907 0 0 1 .089-.3.872.872 0 0 1 .607-.486.839.839 0 0 1 1 .42.9.9 0 0 1 .126.6zm-1.478.58a.917.917 0 0 1-.2-.224.836.836 0 0 0 .2.224z" class="cls-8" transform="translate(-789.266 -1088.393)"/>
                            <path id="패스_2370" d="M1319.091 1250.616a.908.908 0 0 1 1.22-1.174 1.087 1.087 0 0 1 .586.88 10.769 10.769 0 0 1-.046 1.441.908.908 0 0 1-1.816-.038c0-.082.044-.877.057-1.109z" class="cls-8" transform="translate(-802.647 -1089.481)"/>
                            <path id="패스_2371" d="M1254.517 1380.5a.908.908 0 0 1 1.257-1.294 1.591 1.591 0 0 1 .5.812 22.561 22.561 0 0 1 .34 2.473.908.908 0 0 1-1.784.345c-.044-.232-.088-.959-.173-1.622-.033-.255-.114-.608-.14-.714z" class="cls-8" transform="translate(-757.904 -1179.14)"/>
                            <path id="패스_2372" d="M1274.521 1378.871c.01.18.045.807.046.847a.908.908 0 0 1-1.816.052 11.1 11.1 0 0 1-.022-1.252.9.9 0 0 1 .7-.734.907.907 0 0 1 1.09.68.9.9 0 0 1 0 .407zm-.224.421a.9.9 0 0 1-.456.262.846.846 0 0 0 .456-.262zm.01-.011z" class="cls-8" transform="translate(-770.627 -1178.27)"/>
                            <path id="패스_2373" d="M525.27 1341.763a4.17 4.17 0 0 1 .784 1.257c.277.6.52 1.222.783 1.711a.909.909 0 0 0 1.6-.863c-.55-1.02-1.042-2.583-1.909-3.416a.908.908 0 1 0-1.258 1.311z" class="cls-8" transform="translate(-253.584 -1152.297)"/>
                            <path id="패스_2374" d="M992 1399.083c-.867.833-1.359 2.4-1.909 3.417a.908.908 0 0 0 1.6.863c.263-.489.506-1.111.783-1.712a4.164 4.164 0 0 1 .785-1.257.908.908 0 1 0-1.258-1.311z" class="cls-8" transform="translate(-575.12 -1192.839)"/>
                            <path id="패스_2375" d="M1284.618 962.831c-.867.833-1.359 2.4-1.909 3.416a.908.908 0 0 0 1.6.863c.263-.489.506-1.111.783-1.712a4.164 4.164 0 0 1 .784-1.257.908.908 0 1 0-1.258-1.311z" class="cls-8" transform="translate(-777.463 -891.177)"/>
                            <path id="패스_2376" d="M538.639 1337.816a.908.908 0 0 1 .945-1.371.964.964 0 0 1 .708.6c.183.413.538 2.376.591 2.568a.909.909 0 0 1-1.752.481c-.043-.158-.428-1.975-.492-2.274z" class="cls-8" transform="translate(-262.927 -1149.689)"/>
                            <path id="패스_2377" d="M982.443 1396.447c-.064.3-.449 2.116-.492 2.275a.909.909 0 0 1-1.752-.481c.052-.191.408-2.155.591-2.568a.965.965 0 0 1 .708-.6.908.908 0 0 1 .945 1.371z" class="cls-8" transform="translate(-568.334 -1190.232)"/>
                            <path id="패스_2378" d="M1275.063 960.2c-.064.3-.449 2.116-.492 2.274a.909.909 0 0 1-1.753-.481c.053-.191.408-2.154.591-2.568a.965.965 0 0 1 .708-.6.908.908 0 0 1 .946 1.372z" class="cls-8" transform="translate(-770.677 -888.568)"/>
                            <path id="패스_2379" d="M528.231 1228.458c.18.382.647 1.382.8 1.782.463 1.221.777 2.486 1.116 3.74a.908.908 0 1 1-1.754.474c-.323-1.2-.618-2.4-1.06-3.568-.176-.467-.739-1.642-.816-1.807a.834.834 0 0 1-.028-.746.909.909 0 0 1 1.4-.373.773.773 0 0 1 .243.292c0 .008.026.051.068.141a.676.676 0 0 1 .028.064z" class="cls-8" transform="translate(-254.57 -1074.549)"/>
                            <path id="패스_2380" d="M989.9 1287.249c.542-.942 1.672.016 1.673.019a.837.837 0 0 1-.029.746c-.077.165-.639 1.34-.816 1.806-.442 1.163-.738 2.372-1.06 3.569a.908.908 0 0 1-1.754-.473c.338-1.254.652-2.52 1.116-3.741.152-.4.618-1.4.8-1.781.009-.021.017-.043.028-.064a.551.551 0 0 1 .027-.053l.015-.033v.005z" class="cls-8" transform="translate(-573.671 -1115.396)"/>
                            <path id="패스_2381" d="M1282.523 851c.541-.942 1.671.016 1.673.02a.836.836 0 0 1-.028.746c-.077.165-.64 1.34-.816 1.806-.442 1.163-.738 2.372-1.06 3.568a.908.908 0 1 1-1.754-.473c.338-1.255.652-2.519 1.115-3.741.152-.4.618-1.4.8-1.781a.654.654 0 0 1 .028-.065.526.526 0 0 1 .027-.053l.016-.033V851z" class="cls-8" transform="translate(-776.014 -813.733)"/>
                            <path id="패스_2382" d="M540.067 1228.973c.05.38.34 2.6.361 2.73a.908.908 0 1 1-1.794.287 31.006 31.006 0 0 1-.385-3.227.938.938 0 0 1 .8-.909.907.907 0 0 1 1.031.766.887.887 0 0 1-.017.353zm-.669.663l-.023.005h.023zm.056-.015l-.027.007.023-.005.044-.014-.04.013zm.126-.05l-.041.019-.041.017a.914.914 0 0 0 .121-.055l-.038.02zm.066-.034l-.021.012.021-.012z" class="cls-8" transform="translate(-262.751 -1074.605)"/>
                            <path id="패스_2383" d="M981.51 1287.6a.889.889 0 0 1-.017-.353.908.908 0 0 1 1.031-.766.937.937 0 0 1 .8.909 31.055 31.055 0 0 1-.385 3.227.908.908 0 1 1-1.793-.287c.021-.132.311-2.351.361-2.73zm.683.667h.009l-.023-.005h.014zm-.065-.017l.023.005-.027-.007-.04-.013.044.015zm-.169-.071a.765.765 0 0 0 .121.056l-.041-.017c-.014-.005-.027-.012-.041-.019l-.039-.02zm-.027-.014l.021.012-.021-.012z" class="cls-8" transform="translate(-569.005 -1115.148)"/>
                            <path id="패스_2384" d="M1274.13 851.352a.886.886 0 0 1-.017-.353.907.907 0 0 1 1.03-.766.938.938 0 0 1 .8.909 31.019 31.019 0 0 1-.385 3.227.908.908 0 1 1-1.793-.288c.021-.132.311-2.351.361-2.73zm.683.667h.009l-.023-.005h.014zm-.065-.017l.023.005-.027-.007-.04-.013.044.014zm-.169-.071a.741.741 0 0 0 .121.055l-.042-.017a.434.434 0 0 1-.041-.018l-.038-.02zm-.027-.015l.021.012-.021-.012z" class="cls-8" transform="translate(-771.348 -813.485)"/>
                            <path id="패스_2385" d="M667.564 1377.643a13.977 13.977 0 0 0 .347 3.037.908.908 0 1 0 1.792-.294 12.22 12.22 0 0 1-.327-2.631.908.908 0 1 0-1.812-.112z" class="cls-8" transform="translate(-352.166 -1177.599)"/>
                            <path id="패스_2386" d="M852.273 1436.386a12.209 12.209 0 0 1-.327 2.632.908.908 0 1 0 1.792.294 13.964 13.964 0 0 0 .347-3.037.908.908 0 1 0-1.812.112z" class="cls-8" transform="translate(-479.663 -1218.142)"/>
                            <path id="패스_2387" d="M1144.894 1000.135a12.267 12.267 0 0 1-.327 2.631.908.908 0 1 0 1.792.294 13.932 13.932 0 0 0 .347-3.037.908.908 0 1 0-1.812.112z" class="cls-8" transform="translate(-682.006 -916.48)"/>
                            <path id="패스_2388" d="M683.5 1356.57a.909.909 0 0 1-.011-.912 1.013 1.013 0 0 1 .693-.552.9.9 0 0 1 .631.088.921.921 0 0 1 .424.455 1.586 1.586 0 0 1 .108.612c0 .452-.112 1.36-.1 1.772a.908.908 0 1 1-1.815.071c-.011-.309.035-1.076.067-1.534z" class="cls-8" transform="translate(-363.104 -1162.59)"/>
                            <path id="패스_2389" d="M838.57 1415.2c.032.457.079 1.225.067 1.533a.908.908 0 1 1-1.815-.071c.016-.412-.1-1.32-.1-1.772a1.565 1.565 0 0 1 .108-.611.915.915 0 0 1 .424-.454.9.9 0 0 1 .631-.088 1.009 1.009 0 0 1 .693.552.908.908 0 0 1-.012.912z" class="cls-8" transform="translate(-469.146 -1203.133)"/>
                            <path id="패스_2390" d="M1131.191 978.95c.031.457.078 1.225.067 1.534a.908.908 0 1 1-1.815-.071c.016-.412-.1-1.32-.1-1.772a1.572 1.572 0 0 1 .108-.612.921.921 0 0 1 .423-.454.9.9 0 0 1 .631-.088 1.01 1.01 0 0 1 .693.552.908.908 0 0 1-.011.912z" class="cls-8" transform="translate(-671.49 -901.47)"/>
                            <path id="패스_2391" d="M1067.768 1032.783v.036c.033.436.2 2.626.212 2.763a.908.908 0 0 1-1.812.128l-.212-2.757c-.066-.895.913-1.05.916-1.05a.91.91 0 0 1 .894.88z" class="cls-8" transform="translate(-627.655 -939.114)"/>
                            <path id="패스_2392" d="M1092.826 1033.877a.907.907 0 0 1 .65-1.049.843.843 0 0 1 .97.33 1 1 0 0 1 .194.558c.031.468-.11 2.9-.12 2.994a.908.908 0 1 1-1.808-.176c.009-.082.1-2.333.114-2.657zm.242.461a.824.824 0 0 0 .891.241.908.908 0 0 1-.891-.241z" class="cls-8" transform="translate(-646.155 -939.725)"/>
                            <path id="패스_2393" d="M664.049 1192.033c-.024.424-.169 2.967-.183 3.17a.908.908 0 1 1-1.812-.118 28.167 28.167 0 0 1 .282-3.706.982.982 0 0 1 .817-.705.908.908 0 0 1 .9 1.359z" class="cls-8" transform="translate(-348.361 -1048.897)"/>
                            <path id="패스_2394" d="M857.69 1250.664a.908.908 0 0 1 .9-1.358.981.981 0 0 1 .817.7 28.263 28.263 0 0 1 .281 3.707.908.908 0 1 1-1.812.117c-.014-.2-.159-2.746-.184-3.17z" class="cls-8" transform="translate(-483.557 -1089.44)"/>
                            <path id="패스_2395" d="M1150.31 814.412a.909.909 0 0 1 .9-1.359.982.982 0 0 1 .818.705 28.256 28.256 0 0 1 .281 3.706.908.908 0 1 1-1.812.118c-.014-.2-.159-2.746-.184-3.17z" class="cls-8" transform="translate(-685.901 -787.777)"/>
                            <path id="패스_2396" d="M69.827 900.9a2.622 2.622 0 0 1 .5.7c.226.4.435.8.641 1.1a.909.909 0 0 0 1.5-1.033A11.386 11.386 0 0 0 71 899.5a.908.908 0 1 0-1.168 1.391z" class="cls-8" transform="translate(61.379 -847.415)"/>
                            <path id="패스_2397" d="M82.942 888.586c.382 1.815.557 4.784.77 5.8a.908.908 0 0 0 1.778-.371c-.213-1.02-.388-3.991-.772-5.807a.908.908 0 1 0-1.776.374z" class="cls-8" transform="translate(52.1 -839.254)"/>
                            <path id="패스_2398" d="M593.745 1033.527a31.159 31.159 0 0 0 .632 4.541.908.908 0 1 0 1.772-.4 29.163 29.163 0 0 1-.591-4.248.908.908 0 1 0-1.813.105z" class="cls-8" transform="translate(-301.126 -939.571)"/>
                            <path id="패스_2399" d="M604.326 1034.732c.091.8.311 2.971.36 3.311a.909.909 0 0 0 1.8-.258c-.048-.335-.264-2.465-.354-3.256a.908.908 0 1 0-1.805.2z" class="cls-8" transform="translate(-308.441 -940.371)"/>
                            <path id="패스_2400" d="M618.477 1024.128c0 .267 0 .719-.019.9-.1 1.148-.141 2.3-.213 3.447a.909.909 0 1 1-1.814-.115c.074-1.161.119-2.326.218-3.485.027-.328.019-1.179.05-1.3a.862.862 0 0 1 .8-.692.9.9 0 0 1 1 .784.883.883 0 0 1-.021.464zm-1.726.021zm-.016-.049v.01-.013z" class="cls-8" transform="translate(-316.814 -932.872)"/>
                            <path id="패스_2401" d="M720.266 881.462c.013.121.04.38.076.591.166.945.488 2.206.519 2.4a.909.909 0 0 1-1.8.276c-.038-.251-.551-2.248-.612-3.119a1.641 1.641 0 0 1 .123-.837.968.968 0 0 1 .384-.4.908.908 0 0 1 1.306 1.093z" class="cls-8" transform="translate(-387.357 -834.248)"/>
                            <path id="패스_2402" d="M728.694 879.841a.908.908 0 0 1 1.474-1.062 2.37 2.37 0 0 1 .386 1.129c.078.677-.006 1.575.033 2a.908.908 0 1 1-1.808.167c-.034-.367.021-1.088-.01-1.718a4.42 4.42 0 0 0-.075-.515z" class="cls-8" transform="translate(-394.333 -832.98)"/>
                            <path id="패스_2403" d="M751.634 878.876c-.027.262-.087.853-.114 1.088a.908.908 0 1 1-1.8-.2c.036-.317.117-1.146.132-1.26a.909.909 0 0 1 .839-.8.865.865 0 0 1 .742.3.829.829 0 0 1 .226.522 1.5 1.5 0 0 1 0 .229.78.78 0 0 1-.017.119z" class="cls-8" transform="translate(-408.975 -832.485)"/>
                            <path id="패스_2404" d="M774.837 1022.362v.045c.051.682.091 1.366.132 2.049a.909.909 0 0 1-1.815.106c-.038-.674-.078-1.346-.129-2.019a3.437 3.437 0 0 1-.013-.407.922.922 0 0 1 .089-.3.875.875 0 0 1 .607-.486.839.839 0 0 1 1 .421.9.9 0 0 1 .127.6zm-1.478.58a.911.911 0 0 1-.195-.224.83.83 0 0 0 .195.224z" class="cls-8" transform="translate(-425.09 -931.788)"/>
                            <path id="패스_2405" d="M792.435 1024.142a.908.908 0 0 1 1.219-1.174 1.086 1.086 0 0 1 .586.88 10.8 10.8 0 0 1-.045 1.442.908.908 0 0 1-1.817-.039c0-.082.044-.878.057-1.109z" class="cls-8" transform="translate(-438.471 -932.877)"/>
                            <path id="패스_2406" d="M727.861 1154.024a.908.908 0 0 1 1.256-1.294 1.592 1.592 0 0 1 .5.811 22.683 22.683 0 0 1 .34 2.473.908.908 0 0 1-1.784.345c-.044-.232-.088-.959-.174-1.622-.033-.256-.114-.608-.139-.714z" class="cls-8" transform="translate(-393.727 -1022.535)"/>
                            <path id="패스_2407" d="M747.866 1152.4c.01.181.044.807.045.847a.908.908 0 0 1-1.816.053 11.172 11.172 0 0 1-.021-1.253.9.9 0 0 1 .7-.734.908.908 0 0 1 1.09.68.894.894 0 0 1 0 .407zm-.225.421a.9.9 0 0 1-.456.262.845.845 0 0 0 .456-.262zm.01-.011z" class="cls-8" transform="translate(-406.451 -1021.665)"/>
                            <path id="패스_2408" d="M309.66 933.524a4.16 4.16 0 0 1 .784 1.257c.277.6.52 1.223.783 1.712a.908.908 0 0 0 1.6-.863c-.55-1.02-1.042-2.584-1.909-3.417a.908.908 0 1 0-1.258 1.311z" class="cls-8" transform="translate(-104.493 -870.005)"/>
                            <path id="패스_2409" d="M323.029 929.577a.908.908 0 0 1 .945-1.371.965.965 0 0 1 .708.6c.183.414.539 2.377.591 2.568a.909.909 0 0 1-1.752.481c-.043-.158-.428-1.975-.492-2.275z" class="cls-8" transform="translate(-113.835 -867.396)"/>
                            <path id="패스_2410" d="M-34.224 921.29c.18.382.647 1.383.8 1.782.463 1.221.777 2.486 1.116 3.741a.908.908 0 0 1-.64 1.113.91.91 0 0 1-1.114-.641c-.323-1.2-.618-2.4-1.06-3.568-.176-.466-.739-1.641-.816-1.806a.833.833 0 0 1-.028-.746.857.857 0 0 1 .677-.552.86.86 0 0 1 .727.179.769.769 0 0 1 .243.292c0 .008.026.052.068.141a.581.581 0 0 1 .028.064z" class="cls-8" transform="translate(134.361 -862.145)"/>
                            <path id="패스_2411" d="M-22.388 921.805c.05.379.34 2.6.361 2.73a.91.91 0 0 1-.753 1.041.908.908 0 0 1-1.04-.754 31.006 31.006 0 0 1-.385-3.227.937.937 0 0 1 .8-.909.907.907 0 0 1 1.03.765.891.891 0 0 1-.017.353zm-.669.663l-.023.005h.023zm.056-.015l-.027.006.023-.005.044-.014-.04.013zm.126-.05c-.014.006-.027.013-.041.018l-.041.017a.883.883 0 0 0 .121-.055l-.038.02zm.065-.034l-.022.011.022-.011z" class="cls-8" transform="translate(126.18 -862.202)"/>
                            <path id="패스_2412" d="M451.954 969.405a13.945 13.945 0 0 0 .347 3.037.908.908 0 1 0 1.792-.294 12.235 12.235 0 0 1-.327-2.631.908.908 0 1 0-1.812-.112z" class="cls-8" transform="translate(-203.074 -895.307)"/>
                            <path id="패스_2413" d="M467.89 948.332a.909.909 0 0 1-.012-.912 1.011 1.011 0 0 1 .694-.552.9.9 0 0 1 .631.088.918.918 0 0 1 .424.455 1.568 1.568 0 0 1 .108.611c0 .452-.112 1.36-.1 1.772a.908.908 0 1 1-1.815.071c-.011-.308.035-1.076.067-1.533z" class="cls-8" transform="translate(-214.011 -880.298)"/>
                            <path id="패스_2414" d="M194.268 907.379v.035c.033.436.2 2.626.212 2.763a.908.908 0 0 1-1.812.128l-.212-2.756c-.067-.895.912-1.05.915-1.05a.909.909 0 0 1 .894.88z" class="cls-8" transform="translate(-23.64 -852.398)"/>
                            <path id="패스_2415" d="M219.326 908.473a.907.907 0 0 1 .65-1.049.843.843 0 0 1 .971.329 1.007 1.007 0 0 1 .193.559c.031.468-.11 2.9-.119 2.994a.908.908 0 1 1-1.808-.175c.008-.082.1-2.334.113-2.658zm.242.461a.826.826 0 0 0 .891.241.91.91 0 0 1-.891-.241z" class="cls-8" transform="translate(-42.14 -853.009)"/>
                            <path id="패스_2416" d="M101.594 884.864c-.024.424-.169 2.967-.183 3.17a.908.908 0 1 1-1.812-.117 28.248 28.248 0 0 1 .281-3.707.982.982 0 0 1 .817-.705.908.908 0 0 1 .9 1.359z" class="cls-8" transform="translate(40.57 -836.494)"/>
                        </g>
                    </g>
                    <path id="패스_2417" d="M724.3 774.078c.931 5.191 12.247 5.857 12.354.526.426-21.281-8.142-119.412-9.8-128.212-1.064-5.65-12.662-3.656-12.845 1.937-.184 5.625 6.517 104.7 10.291 125.749z" class="cls-9" transform="translate(-384.285 -384.676)"/>
                    <path id="패스_2418" d="M512.05 774.462c.032 5.321 11.053 8.59 12.054 3.4 4.029-20.88 12.419-119.654 12.121-128.684-.192-5.8-11.884-6.55-12.909-1.1-1.031 5.481-11.4 104.749-11.267 126.38z" class="cls-9" transform="translate(-244.636 -385.621)"/>
                    <path id="패스_2419" d="M535.436 568.3c.595-18.189-135.009-16.906-137.015-.026-.962 8.091 31.182 26.391 73.314 25.684 35.566-.6 63.454-18.095 63.7-25.658z" class="cls-8" transform="translate(-166.049 -323.903)"/>
                    <g id="그룹_1441" transform="translate(232.351 231.229)">
                        <g id="그룹_1440" clip-path="url(#clip-path-3)">
                            <path id="패스_2420" d="M418.429 596.836c41 10.909 98.6 9.751 127.8-.754a.482.482 0 0 0-.327-.908c-29.061 10.458-86.4 11.589-127.222.729a.483.483 0 1 0-.248.933z" class="cls-9" transform="translate(-412.002 -582.801)"/>
                            <path id="패스_2421" d="M468.849 633.432a2.687 2.687 0 0 0 .995-.542 20.846 20.846 0 0 1 2.229-1.718 13.547 13.547 0 0 1 9.2-.6 14.306 14.306 0 0 1 5.211 2.9 58.578 58.578 0 0 0 4.913 3.855c3.231 2.068 9.083 2.962 14.219 2.2 3.467-.517 6.6-1.793 8.417-3.922a2.215 2.215 0 0 0 .624-1.6 2.1 2.1 0 0 0-.645-1.319 6.629 6.629 0 0 0-2.513-1.412c-1.823-.608-7.265-1.7-10.693-.935-1.632.364-2.817 1.156-3.135 2.49a2.338 2.338 0 0 0 1.351 2.67 8.968 8.968 0 0 0 5.264.776 4.916 4.916 0 0 0 1.772-.575 1.833 1.833 0 0 0 .747-.787 1.711 1.711 0 0 0-.462-1.876.457.457 0 1 0-.693.594 1.131 1.131 0 0 1 .361.76c-.017.231-.2.4-.454.544a4.071 4.071 0 0 1-1.408.436 7.958 7.958 0 0 1-4.672-.666 1.487 1.487 0 0 1-.917-1.666 2.137 2.137 0 0 1 1.249-1.408 7.382 7.382 0 0 1 2.671-.609 27.213 27.213 0 0 1 8.731 1.116 5.642 5.642 0 0 1 2.148 1.183 1.2 1.2 0 0 1 .388.742 1.355 1.355 0 0 1-.407.943c-1.692 1.982-4.629 3.13-7.858 3.611-4.907.732-10.5-.086-13.592-2.062a57.8 57.8 0 0 1-4.835-3.8 15.2 15.2 0 0 0-5.543-3.072 14.441 14.441 0 0 0-9.812.641 14.821 14.821 0 0 0-2.081 1.565 7.532 7.532 0 0 1-.717.53.623.623 0 0 1-.185.1.456.456 0 1 0 .127.9z" class="cls-11" transform="translate(-446.755 -606.3)"/>
                            <path id="패스_2422" d="M545.424 630.8c.013-.067.079-.408.124-.6a1.5 1.5 0 0 1 .114-.339 6.059 6.059 0 0 1 1.654-1.8c4.864-3.742 12.986-2.959 18.33-.831a39.736 39.736 0 0 1 4.672 2.474 13.724 13.724 0 0 0 4.673 1.824c3.755.564 7.785-.6 11.283-1.9a35.661 35.661 0 0 1 5.5-1.974 27.269 27.269 0 0 1 6.032-.233 18.843 18.843 0 0 0 5.71-.439.457.457 0 0 1 .246.879 19.744 19.744 0 0 1-5.984.473 26.337 26.337 0 0 0-5.832.216 34.782 34.782 0 0 0-5.35 1.934c-3.637 1.355-7.832 2.537-11.737 1.95a14.618 14.618 0 0 1-4.985-1.932 38.839 38.839 0 0 0-4.562-2.421c-5.082-2.024-12.809-2.852-17.435.706a5.148 5.148 0 0 0-1.4 1.5c-.007.034-.111.537-.152.708a.723.723 0 0 1-.135.3.456.456 0 0 1-.759-.49z" class="cls-11" transform="translate(-500.037 -603.752)"/>
                            <path id="패스_2423" d="M598.775 667.66a.456.456 0 0 1-.82.4 1.4 1.4 0 0 1 .068-1.119 10.9 10.9 0 0 1 1.2-1.926c1.8-2.506 4.454-4.779 7.642-5.095a8.893 8.893 0 0 1 5.41 1.529 26.271 26.271 0 0 0 4.741 2.551 25.415 25.415 0 0 0 18.968-1.686.456.456 0 0 1 .431.8 26.378 26.378 0 0 1-19.683 1.75 27.222 27.222 0 0 1-4.914-2.625 8.01 8.01 0 0 0-4.861-1.41c-2.928.291-5.338 2.418-6.991 4.719a12.217 12.217 0 0 0-.971 1.47 2.35 2.35 0 0 0-.2.492.912.912 0 0 0-.018.149z" class="cls-11" transform="translate(-536.33 -627.57)"/>
                            <path id="패스_2424" d="M614.211 677.783a.456.456 0 0 1-.827.324.626.626 0 0 1-.073-.536 3.492 3.492 0 0 1 .576-.919 5.852 5.852 0 0 1 3.632-1.949c2.221-.283 4.245.5 6.28 1.324 1.9.769 3.8 1.576 5.926 1.4a.457.457 0 0 1 .075.91c-2.271.186-4.316-.643-6.343-1.465-1.888-.766-3.759-1.528-5.821-1.265a4.913 4.913 0 0 0-3.05 1.634c-.046.054-.3.432-.372.541z" class="cls-11" transform="translate(-546.989 -637.773)"/>
                            <path id="패스_2425" d="M687.268 640.367a2.887 2.887 0 0 1-.353.092c-.405.046-.812.073-1.218.107q-1.954.165-3.905.366c-.856.086-1.712.173-2.566.274-2.82.332-5.926.966-8.072 3a5.836 5.836 0 0 0-1.125 1.369 1.312 1.312 0 0 0-.2.877c.121.561.7.711 1.341.765a15.572 15.572 0 0 0 3.505-.374c5.618-.8 11.274-1.331 16.912-1.972a.457.457 0 1 1 .1.907c-5.629.64-11.277 1.17-16.887 1.969a16.653 16.653 0 0 1-3.709.38c-1.1-.091-1.953-.53-2.159-1.482a2.218 2.218 0 0 1 .284-1.5 6.817 6.817 0 0 1 1.3-1.6c2.288-2.165 5.585-2.885 8.592-3.239.859-.1 1.721-.189 2.582-.276q1.958-.2 3.92-.367c.4-.034.8-.059 1.191-.1.1-.011.294-.1.4-.12a.6.6 0 0 1 .289 0 .448.448 0 0 1 .322.317.469.469 0 0 1-.07.423.457.457 0 0 1-.484.191zm-.319-.616zm.011-.026l.007-.014v.009zm.014-.028v.007l.006-.011z" class="cls-11" transform="translate(-585.449 -613.414)"/>
                            <path id="패스_2426" d="M482.54 650.437a1.342 1.342 0 0 1 .109-.266 4.789 4.789 0 0 1 .717-.787 14.525 14.525 0 0 1 2.6-1.913c2.294-1.26 4.724-.777 7.04.175 2.622 1.079 4.762 3 6.918 4.854 2.07 1.784 4.153 3.515 6.751 4.3 2.558.77 5.211.273 7.723-.415a.457.457 0 0 1 .241.881c-2.675.733-5.5 1.228-8.227.409s-4.917-2.612-7.084-4.48c-2.081-1.794-4.137-3.66-6.668-4.7-2.058-.847-4.215-1.339-6.254-.22a13.594 13.594 0 0 0-2.436 1.793 3.958 3.958 0 0 0-.556.6c-.012.048-.047.178-.063.222a.531.531 0 0 1-.127.194.444.444 0 0 1-.416.121.451.451 0 0 1-.332-.255.456.456 0 0 1 .059-.509zm.64-.051a.444.444 0 0 1 .1.114.408.408 0 0 0-.1-.114z" class="cls-11" transform="translate(-456.506 -618.457)"/>
                            <path id="패스_2427" d="M480.347 564.153c2.666-2.277 7.473-2.372 10.791-2.033 6.608.676 12.611 2.518 19.122.061 2.809-1.06 6.426-2.919 7.551-5.949 1.026-2.765-1.627-4.324-3.9-4.773-3.478-.687-8-.457-10.163 2.82a1.916 1.916 0 0 0-.3 1.753 2.17 2.17 0 0 0 2.1 1.233 8.955 8.955 0 0 0 4.05-1.014 3.461 3.461 0 0 0 1.855-2.141.457.457 0 0 0-.891-.2 2.562 2.562 0 0 1-1.405 1.543 7.944 7.944 0 0 1-3.591.9 1.281 1.281 0 0 1-1.266-.636 1.051 1.051 0 0 1 .21-.933c1.957-2.964 6.079-3.049 9.224-2.427a6.349 6.349 0 0 1 2.222.863 2.136 2.136 0 0 1 .995 2.7c-1.037 2.794-4.428 4.435-7.017 5.413-6.369 2.4-12.242.546-18.707-.115-3.533-.361-8.637-.179-11.477 2.247a.457.457 0 1 0 .593.694z" class="cls-11" transform="translate(-454.545 -552.374)"/>
                            <path id="패스_2428" d="M555.3 551.859a5.009 5.009 0 0 0-.555.34c-.812.6-1.9 1.621-2.328 1.839-2.7 1.386-6.242 2.155-9.168.993a4.1 4.1 0 0 1-1.844-1.322 3.238 3.238 0 0 1-.41-2.921 7.857 7.857 0 0 1 2.806-3.8 17.74 17.74 0 0 1 12.88-3.01 11.578 11.578 0 0 1 6.42 3.4 31.89 31.89 0 0 0 5.338 4.531c6 3.478 13.6 4.816 20.455 5.1a25.59 25.59 0 0 0 10.876-1.914c2.2-1.052 3.894-2.625 4.063-4.99a.457.457 0 1 1 .911.065c-.193 2.7-2.063 4.547-4.58 5.749a26.634 26.634 0 0 1-11.307 2c-7-.288-14.748-1.671-20.876-5.221a32.822 32.822 0 0 1-5.5-4.648 10.7 10.7 0 0 0-5.924-3.169 16.819 16.819 0 0 0-12.215 2.838 7.345 7.345 0 0 0-2.247 2.713 3.04 3.04 0 0 0-.263 2.137 2.693 2.693 0 0 0 1.751 1.612c2.686 1.067 5.937.316 8.413-.957.4-.207 1.43-1.19 2.2-1.761a2.334 2.334 0 0 1 1.061-.518.457.457 0 0 1 .037.912z" class="cls-11" transform="translate(-496.885 -547.296)"/>
                            <path id="패스_2429" d="M475.147 590.891a5.4 5.4 0 0 0 .569-.221c.878-.422 2.12-1.2 2.481-1.328a27.429 27.429 0 0 1 7.212-1.472c8.073-.65 15.961 1.928 24.01.968a25.62 25.62 0 0 0 8.469-2.181 12.315 12.315 0 0 0 1.881-1.45 4.182 4.182 0 0 1 2.415-1.137c2.423-.067 5.4.869 8.365 1.953a63.307 63.307 0 0 0 8.091 2.711c5.588 1.118 11.436.044 16.882-1.249a.457.457 0 0 1 .211.889c-5.571 1.322-11.556 2.4-17.272 1.256a64.3 64.3 0 0 1-8.226-2.749c-2.848-1.041-5.7-1.963-8.026-1.9a3.282 3.282 0 0 0-1.863.932 13.247 13.247 0 0 1-2.044 1.557 26.568 26.568 0 0 1-8.776 2.274c-8.061.961-15.959-1.616-24.044-.965a26.5 26.5 0 0 0-6.974 1.42c-.349.127-1.547.884-2.4 1.293a3.724 3.724 0 0 1-.751.287.9.9 0 0 1-.356.012.457.457 0 0 1 .142-.9z" class="cls-11" transform="translate(-451.118 -575.14)"/>
                            <path id="패스_2430" d="M480.171 610.661a3.324 3.324 0 0 0 .592.149 21.924 21.924 0 0 0 3.562-.067c4.729-.241 9.43-.918 14.166-1.018a65.908 65.908 0 0 1 11.476.341c3.773.589 7.429 1.867 11.294 1.6a23.508 23.508 0 0 0 6.489-1.768 18.444 18.444 0 0 1 6.84-1.5c2.909.065 5.749.974 8.622 1.357 6.075.81 12.976.892 18.828-1.089a.456.456 0 1 1 .293.865c-5.981 2.024-13.033 1.957-19.242 1.129-2.84-.379-5.646-1.285-8.522-1.349a17.552 17.552 0 0 0-6.5 1.446 24.393 24.393 0 0 1-6.742 1.822c-3.934.272-7.657-1.01-11.5-1.609a64.945 64.945 0 0 0-11.316-.331c-4.727.1-9.419.776-14.139 1.016a18.125 18.125 0 0 1-4.273-.043c-.515-.143-.775-.441-.81-.741a.457.457 0 0 1 .882-.21z" class="cls-11" transform="translate(-454.332 -591.963)"/>
                            <path id="패스_2431" d="M628.615 537.782c.063.08.836 1.071.876 1.107a26.451 26.451 0 0 0 2.872 2.238 35.176 35.176 0 0 0 8.322 4.132c10.293 3.523 20.533 3.384 29.607-2.737a.457.457 0 0 1 .511.757c-9.323 6.288-19.839 6.463-30.414 2.844a36.1 36.1 0 0 1-8.537-4.239 27.4 27.4 0 0 1-2.971-2.316c-.047-.042-.866-1.057-1.011-1.259a.481.481 0 0 1-.1-.375.457.457 0 0 1 .479-.379.457.457 0 0 1 .367.228zm-.139.606a.454.454 0 0 1-.285.078.436.436 0 0 0 .285-.078zm.026-.019zm.018-.016l-.012.01.006-.005.006-.005zm.133-.2a.459.459 0 0 1-.132.2.431.431 0 0 0 .132-.2z" class="cls-11" transform="translate(-557.002 -542.976)"/>
                            <path id="패스_2432" d="M467.388 555.763a.456.456 0 0 1-.349.263.516.516 0 0 1-.495-.147.439.439 0 0 1-.081-.512.708.708 0 0 1 .238-.263c.19-.133.617-.35.694-.392a8.65 8.65 0 0 1 2.041-.741 37.838 37.838 0 0 1 5.708-1.02c2-.193 5.4-.239 8.056-1.152 1.641-.565 3-1.456 3.431-3a3.772 3.772 0 0 0-.15-1.979 5.916 5.916 0 0 1-.281-2.426.457.457 0 1 1 .9.147 5.01 5.01 0 0 0 .265 2.052 4.664 4.664 0 0 1 .145 2.451c-.512 1.835-2.068 2.952-4.013 3.622-2.725.938-6.217 1-8.266 1.2a36.849 36.849 0 0 0-5.57 1 7.716 7.716 0 0 0-1.825.654l-.449.252z" class="cls-11" transform="translate(-445.432 -547.439)"/>
                        </g>
                    </g>
                    <path id="패스_2433" d="M443.572 797.858c-1.075 4.922-11.85 4.568-11.588-.544 1.246-24.228 17.059-136.533 19.063-144.827 1.287-5.325 12.037-2.43 11.921 2.946-.117 5.407-14.232 118.778-19.4 142.425z" class="cls-9" transform="translate(-189.269 -389.27)"/>
                    <path id="패스_2434" d="M665.713 810.473c.6 5.063 11.348 6.454 11.551 1.337.992-25.016-4.373-142.879-5.6-151.435-.786-5.494-11.723-4.362-12.1.993-.382 5.385 3.2 124.031 6.149 149.1z" class="cls-9" transform="translate(-346.621 -394.182)"/>
                    <path id="패스_2435" d="M529.363 399.783h3.686a1.325 1.325 0 1 0 0-2.65h-3.686a1.325 1.325 0 1 0 0 2.65z" class="cls-12" transform="translate(-255.692 -214.649)"/>
                    <path id="패스_2436" d="M576 395.247a1.36 1.36 0 0 1 1.648 1.57 39.37 39.37 0 0 1-5.928 20.119c-3.971 6.294-9.923 11.138-17.818 11.456l.359 19.448a1.325 1.325 0 0 1-2.65.049l-.361-19.548c-15.341-1.071-24.337-14.116-24.291-31.219a1.325 1.325 0 1 1 2.65.007c-.043 15.963 8.335 28.235 22.973 28.623h.01c7.579.2 13.178-4.354 16.886-10.231a37 37 0 0 0 5.509-17.624h-2.327a1.325 1.325 0 0 1 0-2.65z" class="cls-12" transform="translate(-254.943 -213.318)"/>
                    <path id="패스_2437" d="M568.131 561.5c10.465 0 19.039 1.063 18.961 2.368-.063 1.061.006 2.433-.487 2.739-.575.357-9.426 1.9-18.33 2.007-8.472.1-18.3-1.627-18.773-1.99s-.506-2.055-.331-2.756c.316-1.268 8.5-2.368 18.961-2.368z" class="cls-12" transform="translate(-270.239 -328.309)"/>
                    <path id="패스_2438" d="M544.31 323.917c9.851-4.668 23.469 3.4 30.391 18.007s4.544 30.256-5.307 34.924-23.469-3.4-30.391-18.007-4.544-30.256 5.307-34.924z" class="cls-13" transform="translate(-260.533 -163.105)"/>
                    <path id="패스_2439" fill="#9a8993" fill-rule="evenodd" d="M551.185 320.7c9.851-4.668 23.469 3.4 30.391 18.007s4.544 30.256-5.307 34.924-23.469-3.4-30.391-18.007-4.544-30.256 5.307-34.924z" transform="translate(-265.287 -160.878)"/>
                    <path id="패스_2440" d="M560.283 332.1c8.5-4.028 20.288 3.011 26.306 15.71s4 26.28-4.5 30.309-20.288-3.011-26.306-15.711-4-26.28 4.5-30.308z" class="cls-15" transform="translate(-272.481 -168.896)"/>
                    <path id="패스_2441" fill="#6f5e68" fill-rule="evenodd" d="M551.581 568.6c9.163 1.722 27.811 1.959 35.849-.123a.376.376 0 1 1 .189.728c-8.111 2.1-26.93 1.872-36.177.134a.376.376 0 0 1 .139-.739z" transform="translate(-271.664 -333.125)"/>
                    <path id="패스_2442" d="M527.626 542.031c-.621-.456-2.9-22.619-2.568-23.292.419-.855 9.41-.714 9.887-.313.33.276-1.323 23.082-1.7 23.464-.432.433-5.149.484-5.615.141z" class="cls-17" transform="translate(-253.609 -298.302)"/>
                    <path id="패스_2443" d="M531.532 582.707a16.334 16.334 0 0 0 6.1-.009.376.376 0 1 0-.187-.729 15.287 15.287 0 0 1-5.708.013.376.376 0 0 0-.2.725z" class="cls-18" transform="translate(-257.918 -342.453)"/>
                    <path id="패스_2444" d="M548.849 520.952c-.2 5.766-.619 13.722-.917 18.062a.376.376 0 1 0 .75.051c.3-4.347.719-12.313.918-18.088a.376.376 0 1 0-.752-.026z" class="cls-18" transform="translate(-269.448 -300.017)"/>
                    <path id="패스_2445" fill="#899ec1" fill-rule="evenodd" d="M597.379 582.79c-1.179-.721-1.208-7.228-.028-8.289 3.093-2.781 14.529-2.585 18.036-.421 1.144.706 1.583 7.6.061 8.757-3.407 2.578-14.22 2.31-18.069-.046z" transform="translate(-303.019 -335.868)"/>
                    <path id="패스_2446" fill="#e4e4c2" fill-rule="evenodd" d="M597.9 587.337c2.135 1.159 7.229 1.728 11.67 1.525 2.992-.136 5.686-.631 7.007-1.485a.379.379 0 1 0-.412-.637c-1.249.808-3.8 1.236-6.63 1.365-4.288.2-9.211-.315-11.273-1.434a.379.379 0 0 0-.362.667z" transform="translate(-303.867 -345.68)"/>
                    <path id="패스_2447" fill="#ffd252" fill-rule="evenodd" d="M668.225 535.943c-.883-.648-4.116-32.132-3.647-33.088.595-1.215 13.368-1.014 14.045-.446.468.393-1.88 32.79-2.421 33.332-.614.615-7.315.687-7.977.2z" transform="translate(-350.076 -287.136)"/>
                    <path id="패스_2448" d="M674.181 593.933a22.971 22.971 0 0 0 8.578-.014.372.372 0 1 0-.184-.72 21.944 21.944 0 0 1-8.193.018.372.372 0 0 0-.2.716z" class="cls-22" transform="translate(-356.56 -350.218)"/>
                    <path id="패스_2449" d="M684.447 522.763c-.062 1.425-5.931 1.592-6.16.372a3.245 3.245 0 0 1 2.645-3.7 3.023 3.023 0 0 1 3.516 3.328z" class="cls-22" transform="translate(-359.55 -299.206)"/>
                    <path id="패스_2450" d="M685.537 512.795a12.807 12.807 0 0 1 .486-2.279 17.084 17.084 0 0 1 .607 2.167 4.58 4.58 0 0 1-1.092.111z" class="cls-22" transform="translate(-364.599 -293.052)"/>
                    <path id="패스_2451" d="M697.984 522.25a12.257 12.257 0 0 1 2.3-.082 16.562 16.562 0 0 1-1.921 1.129 4.8 4.8 0 0 1-.375-1.047z" class="cls-22" transform="translate(-373.206 -301.088)"/>
                    <path id="패스_2452" d="M678.212 516.115a12.734 12.734 0 0 1-.781-2.193 16.717 16.717 0 0 1 1.648 1.509 4.651 4.651 0 0 1-.867.683z" class="cls-22" transform="translate(-358.993 -295.407)"/>
                    <path id="패스_2453" d="M673.6 523.027a12.279 12.279 0 0 0-2.3-.082 16.583 16.583 0 0 0 1.921 1.13 4.79 4.79 0 0 0 .374-1.048z" class="cls-22" transform="translate(-354.758 -301.625)"/>
                    <path id="패스_2454" d="M692.463 514.227a12.507 12.507 0 0 1 1.66-1.611 17.054 17.054 0 0 1-.695 2.14 4.635 4.635 0 0 1-.966-.529z" class="cls-22" transform="translate(-369.39 -294.504)"/>
                    <path id="패스_2455" d="M699.141 529.295a12.434 12.434 0 0 1 1.946 1.239 16.348 16.348 0 0 1-2.214-.158 4.763 4.763 0 0 1 .268-1.081z" class="cls-22" transform="translate(-373.82 -306.037)"/>
                    <path id="패스_2456" d="M672.622 530.073a12.429 12.429 0 0 0-1.946 1.239 16.346 16.346 0 0 0 2.214-.158 4.782 4.782 0 0 0-.268-1.08z" class="cls-22" transform="translate(-354.324 -306.575)"/>
                    <path id="패스_2457" d="M708.023-91.42a210.632 210.632 0 0 0 4.885-26.078c1.486-12.651 11.188-24.379 11.723-25.681 3.119-7.584-2.194-16.077-2-19.517.388-6.766 6.8-14.112 10.4-19.914 5.69-9.17 18.916-13.669 29.155-10.985a35.038 35.038 0 0 1 14.727 8.51 42.54 42.54 0 0 1 7.7 9.829c2.4 4.11 9.292 9.908 11.251 17.256 1.662 6.235-1.64 14 .529 18.466.7 1.435 14.219 5.451 16.572 15.7 1.777 7.739 12.121 20.992 12.121 20.992S781.293-93.4 761.782-91.5c-17.835 1.741-53.759.077-53.759.077z" class="cls-23" transform="translate(-380.149 194.366)"/>
                    <path id="패스_2458" d="M783.535-33.164c.132 4.977-1.163 9.586-2.58 14.158-1.441 4.654-3.01 9.268-3.395 14.173a28.962 28.962 0 0 0 1.483 11.953 31.68 31.68 0 0 1 1.8 11.606.474.474 0 1 0 .947.033 32.546 32.546 0 0 0-1.837-11.913 28.11 28.11 0 0 1-1.447-11.6c.381-4.834 1.936-9.38 3.356-13.967 1.448-4.669 2.758-9.38 2.623-14.463a.473.473 0 0 0-.485-.466.475.475 0 0 0-.462.487z" class="cls-17" transform="translate(-428.16 83.233)"/>
                    <path id="패스_2459" d="M813.12.9a39.458 39.458 0 0 0-.863 20.931c1.2 5.883 3.044 11.752 3.03 20.525a.474.474 0 1 0 .949 0c.015-8.855-1.841-14.779-3.048-20.716a38.589 38.589 0 0 1 .842-20.474.474.474 0 0 0-.91-.266z" class="cls-17" transform="translate(-451.523 59.573)"/>
                    <path id="패스_2460" d="M854.621-187.328c6.92.777 12.823 2.6 18.14 6.7 7.49 5.777 12.279 16.413 13.85 25.98.958 5.833-.08 11.937 2.085 17.553 1.84 4.77 5.358 8.193 8.964 11.546 3.508 3.264 7.1 6.46 9.185 10.862 4.638 9.791 2.338 7.862 5.472 17.915a.475.475 0 0 0 .594.311.475.475 0 0 0 .312-.594c-3.158-10.124-.852-8.179-5.522-18.039-2.137-4.512-5.8-7.8-9.4-11.15-3.5-3.255-6.938-6.562-8.724-11.193-2.143-5.555-1.088-11.6-2.034-17.365-1.609-9.794-6.541-20.664-14.206-26.578-5.458-4.21-11.512-6.1-18.616-6.9a.476.476 0 0 0-.524.418.475.475 0 0 0 .42.524z" class="cls-17" transform="translate(-481.228 190.152)"/>
                    <path id="패스_2461" d="M932.3-61.747a85.461 85.461 0 0 1 .631 9.645 25.377 25.377 0 0 0 1.927 9.574c2.227 4.764 6.124 8.443 9.416 12.441a52.042 52.042 0 0 1 10.483 20.452.473.473 0 0 0 .572.349.476.476 0 0 0 .349-.573 53.015 53.015 0 0 0-10.67-20.831c-3.243-3.937-7.1-7.548-9.29-12.24a24.45 24.45 0 0 1-1.839-9.22 86.245 86.245 0 0 0-.642-9.754.475.475 0 0 0-.547-.389.473.473 0 0 0-.389.546z" class="cls-17" transform="translate(-535.231 103.043)"/>
                    <path id="패스_2462" d="M760.918-141.386c-6.193 8.251-7.594 17.784-4.617 27.524 1.238 4.052 2.732 8.078 2 12.377-.7 4.108-2.571 7.713-4.483 11.285-1.958 3.653-3.958 7.273-4.881 11.329-1.234 5.427.081 17.8 1 23.041a.473.473 0 0 0 .548.386.474.474 0 0 0 .385-.549c-.9-5.159-2.219-17.328-1.006-22.668.9-3.973 2.876-7.513 4.792-11.092 1.96-3.661 3.863-7.361 4.582-11.572.761-4.448-.744-8.621-2.025-12.814-2.886-9.44-1.534-18.68 4.47-26.677a.475.475 0 0 0-.095-.664.476.476 0 0 0-.665.095z" class="cls-17" transform="translate(-408.092 157.862)"/>
                    <path id="패스_2463" d="M719.472 63.314c-7.216-8.5-14.456-1.746-20.47 6.221-7.616 10.1-13.183 18.253-18.666 28.64-3.435 6.51-19.76 26.614-8.515 34.6 9.744 6.924 21.482-19.055 26.093-24.874 5.342-6.738 10.645-15.883 18.006-27.326 4.713-7.329 5.979-14.407 3.551-17.266z" class="cls-24" transform="translate(-352.422 18.904)"/>
                    <path id="패스_2464" d="M796.287 34.075c-16.645.615-27.564 5.166-32.239 11.163-4.611 5.916-3.564 10.948-5.14 20.821-.961 6.019-4.136 17.97-2.882 24.151 1.747 8.608 6.2 14.966 7.785 23.535 1.7 9.213.772 16.16 1.477 17.99 2.627 6.81 53.01 9.451 54.551 5.459 2.637-6.831.438-21.314 2.954-29.933 2.984-10.222 11.212-25.445 12.7-40.693.768-7.862-1.936-21.9-6.733-26.017-6.19-5.31-19.955-6.939-32.477-6.476z" class="cls-25" transform="translate(-413.143 36.453)"/>
                    <path id="패스_2465" d="M723.349 754.582c-1.629 3.037-2.535 7.382-4.628 11.028-2.883 5.023-5.424 10.931-10.595 14.656-2.562 1.845-6.692 3.652-6.189 7.474.2 1.52 1.542 2.64 2.708 3.469a11.9 11.9 0 0 0 9.7 2.147 20.052 20.052 0 0 0 6.63-3.247c4.608-3.075 9.322-6.54 12.8-10.914l.238-.3a12.5 12.5 0 0 0 9.643-12.174 14.494 14.494 0 0 0-2.279-7.176c6.592-15.362 11.125-31.888 14.373-46.941a308.264 308.264 0 0 0 6.764-49.939 3.205 3.205 0 0 0 .091.558s2.438-5.749 4.479-9.617c1.177-2.229 2.867-5.326 4.247-7.655l-18.423-36.992a325.99 325.99 0 0 0-14.808 31.462c-3.756 9.73-5.882 18.3-5.41 23.3a281.54 281.54 0 0 1-.89 45.167c-1.363 14.262-3.735 30.054-8.215 44.943q-.136.372-.238.747z" class="cls-25" transform="translate(-375.912 -361.127)"/>
                    <path id="패스_2466" d="M839.2 772.634a252.024 252.024 0 0 0-14.2-35.88 281.582 281.582 0 0 0-22.5-39.174c-2.98-4.043-5.573-12.487-7.365-22.761a326.106 326.106 0 0 1-3.511-34.591l34.844 22.221c.017 2.708.163 6.232.3 8.749.242 4.367 1.113 10.55 1.113 10.55a3.2 3.2 0 0 1-.365-.431 308.332 308.332 0 0 1 19.922 46.29c4.071 11.945 5.761 25.666 8.26 39.172.51 2.757 5.72 13.881 3.054 19.722-2.452 5.381-25.252 10.05-30.752 10.733a20.057 20.057 0 0 1-7.382-.07 11.9 11.9 0 0 1-7.711-6.27c-.67-1.263-1.368-2.867-.865-4.314 1.265-3.642 5.766-3.406 8.883-3.906 6.292-1.011 11.212-5.152 16.042-8.349a24.416 24.416 0 0 0 2.234-1.69z" class="cls-25" transform="translate(-437.96 -382.745)"/>
                    <path id="패스_2467" d="M858.3-78.436c3.2 3.258 1.859 17.824 1.886 24.153.021 4.642-.047 9.266-1.713 13.819-1.473 4.014-3.9 8.194-11.245 8.317-7.267.122-11.478-4.273-12.552-8.282-1.122-4.186-.865-7.247-1.025-11.56-.174-4.688-.323-18.169 1.769-22.519 3.9-8.1 15.575-11.375 22.881-3.929z" class="cls-24" transform="translate(-466.954 117.086)"/>
                    <g id="그룹_1443" transform="translate(366.602 34.479)">
                        <g id="그룹_1442" clip-path="url(#clip-path-4)">
                            <path id="패스_2468" d="M813.8-34.737c-.1 2.19 3.924 5.645 11.119 5.857 8.345.246 13.6-3.959 18.423-10.766 1.736-2.452 5.217-13.1 4.139-15.3s-6.586-1.644-10.614 2.1c-2.416 2.248-6.017 6.97-8.475 9.162-1.921 1.715-14.25 1.831-14.591 8.941z" class="cls-27" transform="translate(-819.891 64.369)"/>
                        </g>
                    </g>
                    <path id="패스_2469" d="M822.808-161.482c-.84-7-5.742-14.53-10.94-18.112-8.136-5.608-19.618-3.02-25.783 4.494-7.576 9.235-6.521 24.229-5.036 35.374 1.324 9.937 7.57 17.58 17.588 19.513a17.294 17.294 0 0 0 7 .244c4.75-1.063 9.3-4.626 12.411-8.249 7.37-8.588 5.79-24.7 4.762-33.265z" class="cls-24" transform="translate(-429.916 186.243)"/>
                    <path id="패스_2470" d="M907.889-104.875a13.974 13.974 0 0 1 2.2-4.476 7.631 7.631 0 0 1 2.555-2.027c3.006-1.516 5.62.27 6.606 3.315a9.328 9.328 0 0 1-1.217 8.416c-1.81 2.424-5.711 3.295-8.014 1.063l-2.127-6.291z" class="cls-24" transform="translate(-518.354 137.361)"/>
                    <path id="패스_2471" d="M917.965-97.771a6.391 6.391 0 0 0-1.39 1.754c-.108.192-.208.389-.3.588l-.074.164a1.006 1.006 0 0 1-.067.134.456.456 0 0 1-.176.16.461.461 0 0 1-.167.051.475.475 0 0 1-.154-.009.491.491 0 0 1-.144-.059.484.484 0 0 1-.1-.085.478.478 0 0 1-.122-.333.442.442 0 0 1 .022-.121.9.9 0 0 1 .034-.089l.044-.1c.06-.135.126-.269.193-.4a8.472 8.472 0 0 1 1.109-1.678 6.041 6.041 0 0 1 1.145-1.043 4.637 4.637 0 0 1 1.235-.612 4.114 4.114 0 0 1 .619-.143 3.179 3.179 0 0 1 1.059 0 2.148 2.148 0 0 1 .72.27c.049.03.1.062.143.1a.716.716 0 0 1 .1.082.477.477 0 0 1 .117.439.489.489 0 0 1-.05.123.473.473 0 0 1-.1.123.49.49 0 0 1-.105.068.476.476 0 0 1-.4 0 .667.667 0 0 1-.067-.039c-.019-.014-.038-.03-.059-.044a1.045 1.045 0 0 0-.13-.081 1.279 1.279 0 0 0-.4-.133 1.817 1.817 0 0 0-.433-.014 2.819 2.819 0 0 0-.5.089 4.1 4.1 0 0 0-.413.133c-.109.042-.215.089-.321.14l-.014.008a5.64 5.64 0 0 1 .678.713 4.508 4.508 0 0 1 0 5.118.471.471 0 0 1-.652.136.471.471 0 0 1-.135-.652 3.542 3.542 0 0 0 .042-4.021 4.147 4.147 0 0 0-.622-.641 1.311 1.311 0 0 0-.149-.1z" class="cls-27" transform="translate(-523.456 128.858)"/>
                    <path id="패스_2472" d="M830.628-182.913c8.75 2.753 10.817 8.944 16.612 15.23 3.447 3.737 8.361 6.943 13.659 5.577-.4-5.68-1.375-11.492-4.8-16.213-4.5-6.209-18.325-6.779-25.474-4.594" class="cls-23" transform="translate(-464.929 187.248)"/>
                    <path id="패스_2473" d="M838.077-185.071c4.533.247 6.929 2.59 8.9 5.433 2.076 2.991 3.709 6.512 6.661 8.929a20.928 20.928 0 0 0 6.085 3.08 17.055 17.055 0 0 1 5.688 3.044.474.474 0 0 0 .67-.032.473.473 0 0 0-.032-.669 17.992 17.992 0 0 0-5.989-3.229 20.025 20.025 0 0 1-5.822-2.927c-2.882-2.36-4.455-5.815-6.483-8.736-2.129-3.069-4.734-5.571-9.627-5.838a.474.474 0 0 0-.5.447.474.474 0 0 0 .447.5z" class="cls-17" transform="translate(-469.771 188.594)"/>
                    <path id="패스_2474" d="M867.578-182.331c3.935 2.234 6.476 5.625 9.966 8.417a27.048 27.048 0 0 0 4.505 2.681 15.93 15.93 0 0 1 4.143 2.814c1.908 1.936 2.715 4.379 3.6 6.873a.474.474 0 0 0 .606.288.475.475 0 0 0 .289-.605c-.934-2.625-1.811-5.183-3.82-7.221a16.875 16.875 0 0 0-4.379-2.989 26.187 26.187 0 0 1-4.352-2.582c-3.53-2.823-6.111-6.241-10.091-8.5a.473.473 0 0 0-.645.178.475.475 0 0 0 .178.646z" class="cls-17" transform="translate(-490.314 186.657)"/>
                    <path id="패스_2475" d="M830.986-167.67a26.486 26.486 0 0 0-2.949-11.234c-3-5.454-13.3-11.459-22.5-11.241-8.873.21-13.009 6.243-14.323 7.5-.518.5-1.228.53-1.015-.034a28.764 28.764 0 0 1 3.631-4.64c.864-.839 6.783-5.583 11.895-6.072 8.819-.844 19.335 2.227 25.339 11.242a28.349 28.349 0 0 1 4.28 14.319 3.952 3.952 0 0 0-1.967-.519 6.2 6.2 0 0 0-2.393.678z" class="cls-28" transform="translate(-436.949 193.784)"/>
                    <path id="패스_2476" d="M817.352 347.9c-.63-.252-27.958 7.059-55.183 6.91-25.678-.141-51.277-7.686-53.906-9.64-3.905-2.9 11.8-172.307 13.369-186.712 1.1-10.115-5.583-36.419 8.741-45.014 6.658-3.995 29.2.845 37.317 1.547 4.978.431 28.721-.394 31.484 3.571 1.21 1.736 2.605 16.516 5.063 45.465 5.672 66.815 13.115 183.872 13.115 183.872z" class="cls-7" transform="translate(-379.886 -17.397)"/>
                    <path id="패스_2477" d="M911.486 126.925c-.336 1.751-1.788 7.614-2.227 9.342a159.788 159.788 0 0 0-3.641 17.26c-2.412 17.227-.536 35.8.186 53.125 1.532 36.764 1.793 73.632 3.117 110.423.512 14.235-1.124 30 1.689 44.063a.447.447 0 0 0 .877-.176c-2.8-14.019-1.162-29.731-1.672-43.92-1.323-36.792-1.585-73.663-3.117-110.428-.72-17.271-2.6-35.79-.194-52.964a158.948 158.948 0 0 1 3.622-17.163c.442-1.738 1.9-7.634 2.239-9.394a.447.447 0 0 0-.878-.168z" class="cls-13" transform="translate(-515.959 -27.552)"/>
                    <path id="패스_2478" d="M697.888 64.243c3.094.242 5.5-1.135 10.26-5.916 2.591-2.6 4.69-6.4 6.766-10.094 1.347-2.4 3.341-3.167 3.1-6.468-.18-2.5-8.817 5.125-9.181 4.778-2.625-2.5 5.066-4.315 3.756-8.365-.646-2-9.046-.218-11.259.51s-9.155 2.33-11.111 3.672c-3.368 2.309-2.143 11.387-1.7 13.333.908 3.989 3.773 8.108 9.37 8.55z" class="cls-25" transform="translate(-366.259 34.199)"/>
                    <path id="패스_2479" d="M671.014 142.99c-6.392.1-10.519-8.745-8.129-18.436 3.088-12.492 4.365-20.826 8.158-33.883 2.05-7.068 2.867-20.011 11.075-19.153 8.608.9 4.976 13.11 4.118 23.106-.733 8.567-3.037 18.545-5.317 31.958-1.461 8.59-2.8 16.3-9.906 16.408z" class="cls-24" transform="translate(-348.463 10.538)"/>
                    <path id="패스_2480" d="M734.064 43.7c-2.407-1.2-5.256 3.473-2.431 4.88a60.3 60.3 0 0 0 16.783 5.583c17.438 2.969 39.261-1.462 52.471-13.668a2.726 2.726 0 1 0-3.7-4c-12.038 11.122-31.964 15-47.856 12.3a54.818 54.818 0 0 1-15.267-5.095z" class="cls-29" transform="translate(-395.662 35.234)"/>
                    <path id="패스_2481" d="M722.7 40.868s-7.294 1.747-7.018 4.193c.537 4.776-.009 20.083.013 23.538.158 27.053-2.379 54.2-3.909 81.206-.949 16.738-12.588 120.164-9.656 125.4 4.12 7.353 34.517 5.984 44.326 6.775 14.293 1.153 42.872-7.552 44.665-9.066 2.125-1.8-7.087-92.393-10.064-116.407-2.751-22.174-8.094-43.96-10.471-66.174-.69-6.457.579-51.28-.207-52.217-.112-.135-7.179-.289-9.28 1.324-2.143 1.644-19.487 38-20.277 37.717-2.312-.839-13.07-28.949-18.12-36.287z" class="cls-17" transform="translate(-375.748 33.663)"/>
                    <path id="패스_2482" d="M828.967 167.16a80.918 80.918 0 0 0 30.148 35.315.471.471 0 1 0 .518-.787 79.989 79.989 0 0 1-29.8-34.9.471.471 0 1 0-.865.375z" class="cls-18" transform="translate(-463.754 -55.17)"/>
                    <path id="패스_2483" d="M913.439 282.114c-.6 1.04-1.443 2.522-1.594 2.936-.426 1.169-.847 2.338-1.237 3.52a41.582 41.582 0 0 0-2.451 11.99c-.122 5.709 2.221 11.078 2.326 16.77.129 6.956-1.663 13.745-1.262 20.732a.471.471 0 0 1-.94.053c-.4-7 1.39-13.8 1.261-20.768-.106-5.7-2.45-11.086-2.327-16.807a42.533 42.533 0 0 1 2.5-12.266c.392-1.19.817-2.368 1.246-3.547.223-.61 1.9-3.485 2.22-4.051a.49.49 0 0 1 .261-.228.475.475 0 0 1 .353 0 .727.727 0 0 1 .367.495c.433 1.488 1.559 11.435 2.561 22.667.289 3.236-.379 6.9-1.112 10.512-.717 3.535-1.495 7.022-1.437 10.01a26.673 26.673 0 0 0 2.959 11.839c.059.108.092.17.1.181a.459.459 0 0 1-.242.623.472.472 0 0 1-.613-.228l-.069-.126a27.611 27.611 0 0 1-3.075-12.272c-.058-3.048.724-6.609 1.455-10.215.715-3.522 1.379-7.087 1.1-10.24-.87-9.753-1.827-18.53-2.344-21.583zm2.89 54.268a.468.468 0 0 1 .282-.467.429.429 0 0 0-.282.467z" class="cls-18" transform="translate(-517.885 -133.94)"/>
                    <path id="패스_2484" d="M899.273 285.049a9.214 9.214 0 0 0-.5.914 32.534 32.534 0 0 1-4.488 7.471 8.44 8.44 0 0 1-2.389 2 1.959 1.959 0 0 1-2.236-.132 2.1 2.1 0 0 1-.7-1.724 6.585 6.585 0 0 1 .674-2.407c1.422-3.086 4.111-5.358 6.666-7.508a12.443 12.443 0 0 1 4.384-2.363.472.472 0 0 1 .506.184 24.485 24.485 0 0 1 3.647 11.665 9.977 9.977 0 0 1-.169 2.818 1.965 1.965 0 0 1-1.363 1.568 1.741 1.741 0 0 1-1.533-.511 6.154 6.154 0 0 1-1.26-1.729c-1.406-2.809-1.362-6.291-1.272-9.35.008-.3.019-.6.034-.894zm1.644-2.254c-.192.223-.4.476-.6.747-.068.807-.111 1.619-.135 2.429-.086 2.91-.166 6.228 1.173 8.9a5.11 5.11 0 0 0 1.041 1.446.832.832 0 0 0 .7.3c.384-.09.552-.468.667-.894a8.906 8.906 0 0 0 .137-2.533 24.318 24.318 0 0 0-2.978-10.393zm-1.36-.071a11.637 11.637 0 0 0-2.651 1.658c-2.451 2.063-5.051 4.222-6.414 7.181a6.464 6.464 0 0 0-.56 1.695 1.381 1.381 0 0 0 .337 1.325 1.071 1.071 0 0 0 1.218 0 7.343 7.343 0 0 0 2.08-1.761 31.515 31.515 0 0 0 4.35-7.256 15.352 15.352 0 0 1 1.483-2.366v-.045a1.081 1.081 0 0 1 .153-.426z" class="cls-18" transform="translate(-505.265 -134.54)"/>
                    <path id="패스_2485" d="M710.2 50.137a54.72 54.72 0 0 0 1.416 7.405 2.793 2.793 0 0 0 2.115 2.317 2.889 2.889 0 0 0 2.718-1.019c.51-.752.532-1.858.293-3.431a45.752 45.752 0 0 1-.443-7c-.023-.143-.263 9.494 2.121 10.572a2.037 2.037 0 0 0 2.858-.754 6.186 6.186 0 0 0 .742-3.619c-.132-2.374-.509-8.733-.343-8.8.229-.1-.629 9.3 1.737 10.054a2.03 2.03 0 0 0 2.538-1.511 25.057 25.057 0 0 0 .842-3.568c.485-2.939.661-3.742 1.195-6.8" class="cls-25" transform="translate(-381.651 29.554)"/>
                    <path id="패스_2486" d="M721.319 51.369c.053.423.121.829.206 1.205a4.814 4.814 0 0 0 .455 1.284 1.035 1.035 0 0 0 .531.518 1.585 1.585 0 0 0 1.96-1.218 24.428 24.428 0 0 0 .823-3.492c.484-2.943.66-3.745 1.2-6.807a.463.463 0 0 1 .912.16c-.535 3.056-.711 3.859-1.194 6.8a25.644 25.644 0 0 1-.859 3.638 2.473 2.473 0 0 1-3.117 1.8 1.686 1.686 0 0 1-.791-.576 6.157 6.157 0 0 1-.8 2.729 2.471 2.471 0 0 1-3.455.95 2.17 2.17 0 0 1-.874-.787 3.234 3.234 0 0 1-.17-.275 2.808 2.808 0 0 1-.35.762 3.4 3.4 0 0 1-3.188 1.213 3.218 3.218 0 0 1-2.479-2.656 57.033 57.033 0 0 1-1.421-7.393.88.88 0 0 1-.008-.178.417.417 0 0 1 .229-.352.426.426 0 0 1 .414-.025.422.422 0 0 1 .264.3.391.391 0 0 1 .017.121v.04a56.392 56.392 0 0 0 1.4 7.256 2.238 2.238 0 0 0 4 1.156c.461-.681.434-1.682.22-3.105l-.02-.129a40.3 40.3 0 0 1-.438-6.721 1.654 1.654 0 0 1 .057-.428.463.463 0 0 1 .872.134 46.2 46.2 0 0 0 .433 6.928c.075.423.162.834.267 1.215a6.217 6.217 0 0 0 .538 1.418 1.491 1.491 0 0 0 .617.665 1.611 1.611 0 0 0 2.266-.559 5.761 5.761 0 0 0 .682-3.368c-.03-.551-.072-1.321-.121-2.177a34.263 34.263 0 0 1-.195-3.856c-.052-1.207-.084-2.208-.06-2.621a1.075 1.075 0 0 1 .067-.354.46.46 0 0 1 .249-.245.474.474 0 0 1 .3-.023.46.46 0 0 1 .275.2 1.008 1.008 0 0 1 .108.475c.013.421-.019 1.367-.017 2.512.051 1.2.127 2.628.2 3.87zm-12.37-1.858a.463.463 0 0 1-.238-.29.423.423 0 0 0 .238.29zm.35.026l-.017.006a.466.466 0 0 1-.23 0 .432.432 0 0 0 .247-.011zm.13-.065a.421.421 0 0 0 .177-.267.464.464 0 0 1-.177.267z" class="cls-30" transform="translate(-380.613 30.592)"/>
                    <path id="패스_2487" d="M813.967 110.161a5 5 0 0 0 .286 4.753 7.092 7.092 0 0 0 6.188 3.628 6.806 6.806 0 0 0 5.062-2.786c1.547-1.9.921-4.446-.326-7.262-1.2-2.7-3-5.63-4.328-8.486a17.49 17.49 0 0 1-1.756-5.688.471.471 0 0 1 .938-.08 19.645 19.645 0 0 0 2.366 6.791c1.22 2.4 2.641 4.821 3.641 7.082 1.413 3.192 1.947 6.086.2 8.238-3.151 3.873-7.189 3.74-10.059 1.9-2.894-1.854-4.567-5.463-3.051-8.511a.471.471 0 0 1 .843.419z" class="cls-12" transform="translate(-452.431 -4.904)"/>
                    <path id="패스_2488" d="M961.916 52.622c-11.144.061-10.759 8.665-8.652 17.13 2.676 10.727 5.215 19 9.5 28.463 2.687 5.931 6.634 32.293 21.114 28.29 10.437-2.885-.877-28.244-2.272-34.574-1.614-7.33-5.076-15.98-8.936-27.288-2.47-7.243-7.005-12.043-10.754-12.021z" class="cls-24" transform="translate(-548.92 23.577)"/>
                    <path id="패스_2489" d="M941.214 245.564c5.327 3.534 3.736 13.159-3.713 19.8-9.607 8.561-15.37 14.715-25.879 23.343-5.686 4.673-13.675 14.889-19.962 9.542-6.592-5.607 3.3-13.627 9.661-21.389 5.446-6.654 12.986-13.583 22.447-23.36 6.06-6.261 11.523-11.866 17.445-7.938z" class="cls-24" transform="translate(-505.628 -108.938)"/>
                    <path id="패스_2490" d="M860.407 386.209c6.634-4.141 6.321-13.63-2.006-15.555-.949-.219-3.483-.437-4.447-.572a6.919 6.919 0 0 0-.96-.095c-.644 0-1.288.049-1.931.095-1.562.112-3.662.293-5.319.49-1.056.125-1.769.216-2.778.428a1.5 1.5 0 0 0-.546.211.853.853 0 0 0-.06.772 2.26 2.26 0 0 0 1.09 1.346 12.583 12.583 0 0 0 3.97 1.081c.312.065.623.137.929.224.332.095.835.328.69.766a1.455 1.455 0 0 1-.42.5 15.59 15.59 0 0 1-2.127 1.387 42.336 42.336 0 0 1-6.335 3.036c-2.417.867-5.361 1.391-6.054 1.605a1.024 1.024 0 0 0-.672 1.228 1.882 1.882 0 0 0 .762 1.3 4.655 4.655 0 0 0 2.459.449c.38 0 .762 0 1.141-.023.681-.047 4.008-.914 4.263-.851a13.692 13.692 0 0 1-2.731 1.226 22.869 22.869 0 0 0-3.645 1.4c-.322.169-.8.456-.919.835a.9.9 0 0 0-.044.316 1.223 1.223 0 0 0 .857.971 6.091 6.091 0 0 0 1.357.17 10.5 10.5 0 0 0 2.346-.111 21.914 21.914 0 0 0 2.286-.528c.191-.047 2.217-.88 2.005-.761s-3.234 1.455-3.275 1.473a22.733 22.733 0 0 1-2.481.959 6.7 6.7 0 0 0-1.273.4.645.645 0 0 0-.3.649 1.066 1.066 0 0 0 .3.749 1.709 1.709 0 0 0 .653.179 8.821 8.821 0 0 0 1.951.107 20.163 20.163 0 0 0 4.382-.815c.591-.176 1.171-.385 1.753-.59.233-.082-1.856.936-2.722 1.445a10.662 10.662 0 0 0-1.5.939.627.627 0 0 0-.137.773.692.692 0 0 0 .49.446 23.848 23.848 0 0 0 5.969-1.064c3.015-.761 6.221-2.748 13.023-6.994z" class="cls-24" transform="translate(-466.854 -195.878)"/>
                    <g id="그룹_1445" transform="translate(366.557 174.109)">
                        <g id="그룹_1444" clip-path="url(#clip-path-5)">
                            <path id="패스_2491" d="M866.966 407.522l-.154.074-.3.154q-.575.294-1.154.578a18.822 18.822 0 0 1-3.025 1.262.467.467 0 0 1-.274-.893 17.986 17.986 0 0 0 2.888-1.208q.573-.28 1.14-.571l.3-.153s.2-.1.241-.114c.446-.176.631.31.638.36a.467.467 0 0 1-.3.51zm-.2.028zm-.274-.114a.434.434 0 0 0 .258.112.466.466 0 0 1-.258-.112zm-.013-.012l.007.006-.011-.01zm-.137-.242a.451.451 0 0 0 .129.235.464.464 0 0 1-.129-.235zm0 0v-.023.023z" class="cls-27" transform="translate(-852.991 -395.314)"/>
                            <path id="패스_2492" d="M871.033 417.809a.466.466 0 0 1 .475-.1.448.448 0 0 1 .29.278.454.454 0 0 1-.024.4.491.491 0 0 1-.114.141 1.943 1.943 0 0 1-.213.12c-.1.06-.2.117-.305.173q-.543.3-1.1.574c-1.056.533-1.817.926-2.911 1.377a.467.467 0 0 1-.356-.863c1.07-.441 1.814-.827 2.847-1.348.359-.181.716-.368 1.069-.56.094-.051.188-.1.28-.158l.059-.03zm.026.7a.43.43 0 0 0 .138.078.452.452 0 0 1-.138-.078z" class="cls-27" transform="translate(-856.284 -402.967)"/>
                            <path id="패스_2493" d="M876.343 427.671c-.353.2-.814.485-1.164.684a19.535 19.535 0 0 1-2.948 1.543.467.467 0 1 0 .331.873 20.406 20.406 0 0 0 3.079-1.6c.347-.2.805-.485 1.155-.679a.467.467 0 0 0-.453-.817z" class="cls-27" transform="translate(-860.046 -409.834)"/>
                        </g>
                    </g>
                    <path id="패스_2494" d="M367.524 330.609l-38.608 233.358a3.382 3.382 0 1 1-6.674-1.1L364.309 308.6a3.382 3.382 0 0 1 6.68.038l40.885 265.794a3.382 3.382 0 0 1-6.686 1.029l-37.664-244.852z" class="cls-32" transform="translate(-113.355 -151.472)"/>
                    <path id="패스_2495" d="M-29.3 1051.246l119.807-35.52 69.538 10.341L43.5 1061.96l-72.8-10.714z" class="cls-33" transform="translate(129.697 -642.399)"/>
                    <path id="패스_2496" d="M207 180.71l-99.278 24.567-12.465-.939L71.346-136.2l8.213-4.142 102.6 2.732L207 180.71z" class="cls-33" transform="translate(60.105 157.009)"/>
                    <path id="패스_2497" d="M95.886-134.706l27.9 341.58a.467.467 0 1 0 .931-.076l-27.9-341.58a.467.467 0 0 0-.5-.427.467.467 0 0 0-.427.5z" class="cls-32" transform="translate(43.137 153.461)"/>
                    <path id="패스_2498" d="M1.032 331.123l-43.421 266.93a3.384 3.384 0 0 1-3.882 2.8 3.384 3.384 0 0 1-2.8-3.881l47.299-290.739a3.382 3.382 0 0 1 6.7.147l35.655 302.265a3.382 3.382 0 1 1-6.718.792L1.032 331.123z" class="cls-32" transform="translate(143.4 -149.83)"/>
                    <path id="패스_2499" d="M214.169-109.371l-88.478-2.475 25.381 327.983 86.557-21.066-23.46-304.442z" class="cls-15" transform="translate(22.526 137.304)"/>
                    <g id="그룹_1447" transform="translate(148.217 25.458)">
                        <g id="그룹_1446" class="cls-34">
                            <path id="패스_2500" d="M181.458-91.42a210.545 210.545 0 0 1-4.885-26.078c-1.486-12.651-11.188-24.379-11.723-25.681-3.118-7.584 2.194-16.077 2-19.517-.388-6.766-6.8-14.112-10.4-19.914-5.69-9.17-18.916-13.669-29.155-10.985a35.037 35.037 0 0 0-14.727 8.51 42.553 42.553 0 0 0-7.7 9.829c-2.395 4.11-9.292 9.908-11.25 17.256-1.663 6.235 1.64 14-.529 18.466-.7 1.435-14.218 5.451-16.572 15.7-1.777 7.739-12.12 20.992-12.12 20.992S108.188-93.4 127.7-91.5c17.835 1.741 53.759.077 53.759.077z" class="cls-23" transform="translate(-83.304 168.907)"/>
                            <path id="패스_2501" d="M352.553-33.164c-.133 4.977 1.162 9.586 2.58 14.158 1.441 4.654 3.01 9.268 3.4 14.173A28.973 28.973 0 0 1 357.05 7.12a31.678 31.678 0 0 0-1.8 11.606.474.474 0 0 1-.948.033 32.558 32.558 0 0 1 1.837-11.913 28.1 28.1 0 0 0 1.447-11.6c-.381-4.834-1.935-9.38-3.356-13.967-1.448-4.669-2.758-9.38-2.623-14.463a.474.474 0 0 1 .486-.461.475.475 0 0 1 .462.487z" class="cls-17" transform="translate(-281.901 57.775)"/>
                            <path id="패스_2502" d="M327.551.9a39.458 39.458 0 0 1 .864 20.931c-1.2 5.883-3.044 11.752-3.03 20.525a.474.474 0 1 1-.948 0c-.015-8.855 1.841-14.779 3.048-20.716a38.59 38.59 0 0 0-.843-20.474.474.474 0 0 1 .909-.266z" class="cls-17" transform="translate(-263.121 34.115)"/>
                            <path id="패스_2503" d="M164.9-187.328c-6.92.777-12.823 2.6-18.14 6.7-7.49 5.777-12.279 16.413-13.85 25.98-.958 5.833.08 11.937-2.086 17.553-1.84 4.77-5.358 8.193-8.964 11.546-3.508 3.264-7.1 6.46-9.185 10.862-4.638 9.791-2.338 7.862-5.472 17.915a.476.476 0 0 1-.595.311.475.475 0 0 1-.312-.594c3.158-10.124.852-8.179 5.522-18.039 2.138-4.512 5.8-7.8 9.4-11.15 3.5-3.255 6.939-6.562 8.724-11.193 2.143-5.555 1.088-11.6 2.035-17.365 1.609-9.794 6.541-20.664 14.205-26.578 5.458-4.21 11.512-6.1 18.616-6.9a.476.476 0 0 1 .524.418.476.476 0 0 1-.42.524z" class="cls-17" transform="translate(-112.265 164.694)"/>
                            <path id="패스_2504" d="M167.125-61.747a85.46 85.46 0 0 0-.631 9.645 25.378 25.378 0 0 1-1.927 9.574c-2.226 4.764-6.124 8.443-9.416 12.441A52.032 52.032 0 0 0 144.67-9.635a.473.473 0 0 1-.572.349.477.477 0 0 1-.349-.573 53.017 53.017 0 0 1 10.67-20.831c3.243-3.937 7.1-7.548 9.29-12.24a24.453 24.453 0 0 0 1.839-9.22 86.274 86.274 0 0 1 .642-9.754.475.475 0 0 1 .547-.389.474.474 0 0 1 .389.546z" class="cls-17" transform="translate(-138.169 77.585)"/>
                            <path id="패스_2505" d="M361.048-141.386c6.193 8.251 7.594 17.784 4.617 27.524-1.238 4.052-2.733 8.078-2 12.377.7 4.108 2.571 7.713 4.483 11.285 1.958 3.653 3.959 7.273 4.881 11.329 1.233 5.427-.081 17.8-1 23.041a.473.473 0 0 1-.548.386.474.474 0 0 1-.386-.549c.9-5.159 2.219-17.328 1.006-22.668-.9-3.973-2.877-7.513-4.792-11.092-1.96-3.661-3.863-7.361-4.582-11.572-.761-4.448.744-8.621 2.025-12.814 2.886-9.44 1.534-18.68-4.469-26.677a.474.474 0 0 1 .094-.664.476.476 0 0 1 .665.095z" class="cls-17" transform="translate(-287.847 132.403)"/>
                            <path id="패스_2506" d="M314.156 63.314c7.216-8.5 14.456-1.746 20.469 6.221 7.616 10.1 13.183 18.253 18.666 28.64 3.435 6.51 19.76 26.614 8.515 34.6-9.744 6.924-21.482-19.055-26.094-24.874-5.342-6.738-10.645-15.883-18.006-27.326-4.713-7.329-5.979-14.407-3.551-17.266z" class="cls-24" transform="translate(-255.179 -6.554)"/>
                            <path id="패스_2507" d="M176.518 34.075c16.645.615 27.564 5.166 32.238 11.163 4.611 5.916 3.564 10.948 5.141 20.821.961 6.019 4.136 17.97 2.882 24.151-1.747 8.608-6.2 14.966-7.785 23.535-1.7 9.213-.772 16.16-1.478 17.99-2.627 6.81-53.009 9.451-54.551 5.459-2.637-6.831-.438-21.314-2.955-29.933-2.984-10.222-11.212-25.445-12.7-40.693-.768-7.862 1.936-21.9 6.733-26.017 6.189-5.31 19.955-6.939 32.477-6.476z" class="cls-25" transform="translate(-133.635 10.995)"/>
                            <path id="패스_2508" d="M272.887 754.582c1.629 3.037 2.535 7.382 4.628 11.028 2.883 5.023 5.425 10.931 10.6 14.656 2.561 1.845 6.692 3.652 6.189 7.474-.2 1.52-1.543 2.64-2.708 3.469a11.894 11.894 0 0 1-9.7 2.147 20.049 20.049 0 0 1-6.63-3.247c-4.608-3.075-9.323-6.54-12.8-10.914-.078-.1-.158-.2-.238-.3a12.5 12.5 0 0 1-9.643-12.174 14.492 14.492 0 0 1 2.278-7.176c-6.592-15.362-11.124-31.888-14.373-46.941a308.283 308.283 0 0 1-6.764-49.939 3.206 3.206 0 0 1-.091.558s-2.438-5.749-4.48-9.617c-1.177-2.229-2.866-5.326-4.246-7.655l18.422-36.992a326.009 326.009 0 0 1 14.806 31.458c3.756 9.73 5.882 18.3 5.41 23.3a281.524 281.524 0 0 0 .889 45.167c1.363 14.262 3.735 30.054 8.215 44.943q.136.372.239.747z" class="cls-25" transform="translate(-194.296 -386.585)"/>
                            <path id="패스_2509" d="M160.509 772.634a252.006 252.006 0 0 1 14.2-35.88 281.54 281.54 0 0 1 22.5-39.174c2.98-4.043 5.573-12.487 7.364-22.761a326.02 326.02 0 0 0 3.511-34.591l-34.844 22.221c-.017 2.708-.163 6.232-.3 8.749-.242 4.367-1.113 10.55-1.113 10.55a3.208 3.208 0 0 0 .365-.431 308.27 308.27 0 0 0-19.922 46.29c-4.071 11.945-5.761 25.666-8.26 39.172-.51 2.757-5.719 13.881-3.053 19.722 2.457 5.383 25.256 10.052 30.754 10.735a20.057 20.057 0 0 0 7.381-.07 11.9 11.9 0 0 0 7.711-6.27c.67-1.263 1.368-2.867.865-4.314-1.264-3.642-5.766-3.406-8.883-3.906-6.292-1.011-11.212-5.152-16.042-8.349a24.356 24.356 0 0 1-2.235-1.69z" class="cls-25" transform="translate(-135.724 -408.204)"/>
                            <path id="패스_2510" d="M233.314-78.436c-3.2 3.258-1.859 17.824-1.885 24.153-.021 4.642.047 9.266 1.713 13.819 1.473 4.014 3.9 8.194 11.245 8.317 7.267.122 11.478-4.273 12.553-8.282 1.122-4.186.865-7.247 1.024-11.56.174-4.688.323-18.169-1.769-22.519-3.9-8.1-15.575-11.375-22.881-3.929z" class="cls-24" transform="translate(-198.631 91.627)"/>
                        </g>
                    </g>
                    <g id="그룹_1449" transform="translate(180.76 34.479)">
                        <g id="그룹_1448" clip-path="url(#clip-path-7)">
                            <path id="패스_2511" d="M262.119-34.737c.1 2.19-3.924 5.645-11.119 5.857-8.345.246-13.6-3.959-18.423-10.766-1.736-2.452-5.217-13.1-4.138-15.3s6.585-1.644 10.614 2.1c2.416 2.248 6.017 6.97 8.475 9.162 1.921 1.715 14.25 1.831 14.592 8.941z" class="cls-27" transform="translate(-229.141 64.369)"/>
                        </g>
                    </g>
                    <g id="그룹_1451" transform="translate(148.217 25.458)">
                        <g id="그룹_1450" class="cls-34">
                            <path id="패스_2512" d="M231.095-161.482c.839-7 5.742-14.53 10.94-18.112 8.136-5.608 19.618-3.02 25.782 4.494 7.576 9.235 6.521 24.229 5.036 35.374-1.324 9.937-7.571 17.58-17.588 19.513a17.292 17.292 0 0 1-7 .244c-4.75-1.063-9.3-4.626-12.412-8.249-7.371-8.588-5.79-24.7-4.762-33.265z" class="cls-24" transform="translate(-197.96 160.785)"/>
                            <path id="패스_2513" d="M286.442-114.537a14.8 14.8 0 0 0-7.98-.028.76.76 0 0 1-.9-.574.757.757 0 0 1 .576-.9 16.253 16.253 0 0 1 8.759.061.757.757 0 0 1 .5.947.756.756 0 0 1-.947.5z" class="cls-28" transform="translate(-230.693 115.142)"/>
                            <path id="패스_2514" d="M217.422-104.875a13.959 13.959 0 0 0-2.2-4.476 7.624 7.624 0 0 0-2.555-2.027c-3.006-1.516-5.62.27-6.606 3.315a9.325 9.325 0 0 0 1.217 8.416c1.809 2.424 5.711 3.295 8.014 1.063l2.126-6.291z" class="cls-24" transform="translate(-180.929 111.903)"/>
                            <path id="패스_2515" d="M219.214-97.771a6.4 6.4 0 0 1 1.39 1.754c.108.192.208.389.3.588l.074.164a1.022 1.022 0 0 0 .067.134.461.461 0 0 0 .176.16.465.465 0 0 0 .167.051.477.477 0 0 0 .154-.009.49.49 0 0 0 .144-.059.489.489 0 0 0 .1-.085.476.476 0 0 0 .122-.333.458.458 0 0 0-.021-.121.84.84 0 0 0-.035-.089l-.044-.1c-.06-.135-.126-.269-.192-.4a8.468 8.468 0 0 0-1.109-1.678 6.061 6.061 0 0 0-1.145-1.043 4.639 4.639 0 0 0-1.236-.612 4.1 4.1 0 0 0-.619-.143 3.179 3.179 0 0 0-1.059 0 2.148 2.148 0 0 0-.72.27c-.049.03-.1.062-.143.1a.676.676 0 0 0-.1.082.476.476 0 0 0-.117.439.494.494 0 0 0 .05.123.48.48 0 0 0 .1.123.5.5 0 0 0 .106.068.477.477 0 0 0 .4 0 .714.714 0 0 0 .066-.039c.019-.014.038-.03.059-.044a1.079 1.079 0 0 1 .13-.081 1.287 1.287 0 0 1 .4-.133 1.82 1.82 0 0 1 .433-.014 2.821 2.821 0 0 1 .5.089 4.161 4.161 0 0 1 .414.133c.109.042.215.089.321.14l.014.008a5.6 5.6 0 0 0-.677.713 4.507 4.507 0 0 0 0 5.118.471.471 0 0 0 .652.136.471.471 0 0 0 .135-.652 3.543 3.543 0 0 1-.042-4.021 4.175 4.175 0 0 1 .623-.641 1.306 1.306 0 0 1 .149-.1z" class="cls-27" transform="translate(-187.696 103.4)"/>
                            <path id="패스_2516" fill="#d6702e" fill-rule="evenodd" d="M253.388-182.913c-8.75 2.753-10.816 8.944-16.612 15.23-3.447 3.737-8.361 6.943-13.659 5.577.4-5.68 1.376-11.492 4.8-16.213 4.5-6.209 18.325-6.779 25.474-4.594" transform="translate(-193.06 161.79)"/>
                            <path id="패스_2517" fill="#f6a783" fill-rule="evenodd" d="M231.893-182.331c-3.934 2.234-6.476 5.625-9.966 8.417a27.052 27.052 0 0 1-4.5 2.681 15.937 15.937 0 0 0-4.143 2.814c-1.908 1.936-2.715 4.379-3.6 6.873a.474.474 0 0 1-.606.288.475.475 0 0 1-.288-.605c.934-2.625 1.811-5.183 3.82-7.221a16.866 16.866 0 0 1 4.379-2.989 26.2 26.2 0 0 0 4.352-2.582c3.53-2.823 6.111-6.241 10.091-8.5a.473.473 0 0 1 .645.178.475.475 0 0 1-.178.646z" transform="translate(-183.13 161.199)"/>
                            <path id="패스_2518" d="M219.607-167.67a26.5 26.5 0 0 1 2.949-11.234c3-5.454 13.3-11.459 22.5-11.241 8.873.21 13.009 6.243 14.323 7.5.518.5 1.229.53 1.015-.034a28.774 28.774 0 0 0-3.631-4.64c-.864-.839-6.784-5.583-11.895-6.072-8.82-.844-19.335 2.227-25.339 11.242a28.35 28.35 0 0 0-4.28 14.319 3.952 3.952 0 0 1 1.967-.519 6.2 6.2 0 0 1 2.393.678z" class="cls-28" transform="translate(-187.618 168.326)"/>
                            <path id="패스_2519" d="M88.611 347.9c.63-.252 27.958 7.059 55.184 6.91 25.678-.141 51.277-7.686 53.905-9.64 3.9-2.9-11.8-172.307-13.369-186.712-1.1-10.115 5.583-36.419-8.741-45.014-6.658-3.995-29.2.845-37.317 1.547-4.978.431-28.721-.394-31.484 3.571-1.21 1.736-2.605 16.516-5.063 45.465C96.054 230.839 88.611 347.9 88.611 347.9z" class="cls-7" transform="translate(-100.051 -42.856)"/>
                            <path id="패스_2520" d="M222.567 126.925c.335 1.751 1.788 7.614 2.227 9.342a159.715 159.715 0 0 1 3.641 17.26c2.412 17.227.536 35.8-.186 53.125-1.532 36.764-1.794 73.632-3.117 110.423-.512 14.235 1.124 30-1.689 44.063a.447.447 0 0 1-.877-.176c2.8-14.019 1.162-29.731 1.672-43.92 1.323-36.792 1.585-73.663 3.117-110.428.719-17.271 2.6-35.79.193-52.964a158.838 158.838 0 0 0-3.623-17.163c-.441-1.738-1.9-7.634-2.239-9.394a.447.447 0 0 1 .879-.168z" class="cls-13" transform="translate(-192.067 -53.01)"/>
                            <path id="패스_2521" d="M386.51 64.243c-3.093.242-5.5-1.135-10.259-5.916-2.59-2.6-4.69-6.4-6.766-10.094-1.347-2.4-3.341-3.167-3.1-6.468.18-2.5 8.817 5.125 9.182 4.778 2.625-2.5-5.066-4.315-3.756-8.365.646-2 9.046-.218 11.259.51s9.155 2.33 11.111 3.672c3.368 2.309 2.144 11.387 1.7 13.333-.908 3.989-3.773 8.108-9.37 8.55z" class="cls-25" transform="translate(-292.113 8.741)"/>
                            <path id="패스_2522" d="M423.627 142.99c6.392.1 10.52-8.745 8.129-18.436-3.088-12.492-4.365-20.826-8.158-33.883-2.049-7.068-2.867-20.011-11.076-19.153-8.607.9-4.976 13.11-4.118 23.106.733 8.567 3.037 18.545 5.317 31.958 1.461 8.59 2.8 16.3 9.906 16.408z" class="cls-24" transform="translate(-320.151 -14.92)"/>
                            <path id="패스_2523" d="M257.982 43.7c2.407-1.2 5.256 3.473 2.431 4.88a60.3 60.3 0 0 1-16.782 5.583C226.192 57.127 204.37 52.7 191.16 40.49a2.726 2.726 0 1 1 3.7-4c12.038 11.122 31.964 15 47.856 12.3a54.826 54.826 0 0 0 15.266-5.09z" class="cls-29" transform="translate(-170.356 9.776)"/>
                            <path id="패스_2524" d="M227.938 40.868s7.293 1.747 7.018 4.193c-.537 4.776.009 20.083-.013 23.538-.158 27.053 2.379 54.2 3.909 81.206.948 16.738 12.588 120.164 9.656 125.4-4.12 7.353-34.517 5.984-44.326 6.775-14.294 1.153-42.872-7.552-44.665-9.066-2.125-1.8 7.086-92.393 10.064-116.407 2.751-22.174 8.094-43.96 10.471-66.174.69-6.457-.579-51.28.207-52.217.112-.135 7.178-.289 9.28 1.324 2.143 1.644 19.487 38 20.277 37.717 2.312-.839 13.07-28.949 18.12-36.287z" class="cls-17" transform="translate(-148.864 8.205)"/>
                            <path id="패스_2525" d="M253.6 167.16a80.917 80.917 0 0 1-30.148 35.315.471.471 0 0 1-.518-.787 79.987 79.987 0 0 0 29.8-34.9.471.471 0 1 1 .865.375z" class="cls-18" transform="translate(-192.788 -80.628)"/>
                            <path id="패스_2526" d="M215.862 282.114c.6 1.04 1.443 2.522 1.594 2.936.425 1.169.846 2.338 1.237 3.52a41.559 41.559 0 0 1 2.451 11.99c.123 5.709-2.221 11.078-2.326 16.77-.129 6.956 1.663 13.745 1.262 20.732a.471.471 0 0 0 .94.053c.4-7-1.39-13.8-1.261-20.768.106-5.7 2.451-11.086 2.327-16.807a42.56 42.56 0 0 0-2.5-12.266c-.392-1.19-.818-2.368-1.246-3.547-.223-.61-1.9-3.485-2.22-4.051a.49.49 0 0 0-.261-.228.475.475 0 0 0-.353 0 .725.725 0 0 0-.367.495c-.433 1.488-1.559 11.435-2.561 22.667-.289 3.236.38 6.9 1.112 10.512.717 3.535 1.5 7.022 1.437 10.01a26.676 26.676 0 0 1-2.959 11.839c-.059.108-.092.17-.1.181a.46.46 0 0 0 .242.623.471.471 0 0 0 .613-.228l.069-.126a27.61 27.61 0 0 0 3.075-12.272c.058-3.048-.724-6.609-1.456-10.215-.715-3.522-1.379-7.087-1.1-10.24.869-9.753 1.827-18.53 2.344-21.583zm-2.89 54.268a.467.467 0 0 0-.282-.467.428.428 0 0 1 .282.467z" class="cls-18" transform="translate(-185.389 -159.398)"/>
                            <path id="패스_2527" d="M216.947 285.049a9.266 9.266 0 0 1 .5.914 32.536 32.536 0 0 0 4.487 7.471 8.442 8.442 0 0 0 2.39 2 1.959 1.959 0 0 0 2.236-.132 2.1 2.1 0 0 0 .7-1.724 6.6 6.6 0 0 0-.674-2.407c-1.422-3.086-4.111-5.358-6.666-7.508a12.443 12.443 0 0 0-4.384-2.363.472.472 0 0 0-.505.184 24.483 24.483 0 0 0-3.647 11.665 9.973 9.973 0 0 0 .169 2.818 1.966 1.966 0 0 0 1.363 1.568 1.741 1.741 0 0 0 1.534-.511 6.155 6.155 0 0 0 1.26-1.729c1.406-2.809 1.363-6.291 1.272-9.35-.008-.3-.019-.6-.034-.894zm-1.644-2.254c.192.223.4.476.6.747.068.807.111 1.619.135 2.429.087 2.91.166 6.228-1.173 8.9a5.111 5.111 0 0 1-1.041 1.446.832.832 0 0 1-.7.3c-.384-.09-.552-.468-.666-.894a8.894 8.894 0 0 1-.137-2.533 24.324 24.324 0 0 1 2.977-10.393zm1.361-.071a11.639 11.639 0 0 1 2.651 1.658c2.451 2.063 5.051 4.222 6.414 7.181a6.467 6.467 0 0 1 .56 1.695 1.381 1.381 0 0 1-.336 1.325 1.071 1.071 0 0 1-1.218 0 7.343 7.343 0 0 1-2.08-1.761 31.506 31.506 0 0 1-4.35-7.256 15.38 15.38 0 0 0-1.484-2.369v-.045a1.072 1.072 0 0 0-.152-.426z" class="cls-18" transform="translate(-184.928 -159.998)"/>
                            <path id="패스_2528" d="M401.8 50.137a54.842 54.842 0 0 1-1.416 7.405 2.793 2.793 0 0 1-2.115 2.317 2.889 2.889 0 0 1-2.719-1.019c-.509-.752-.532-1.858-.293-3.431a45.678 45.678 0 0 0 .442-7c.023-.143.263 9.494-2.12 10.572a2.038 2.038 0 0 1-2.859-.754 6.191 6.191 0 0 1-.742-3.619c.132-2.374.509-8.733.343-8.8-.229-.1.629 9.3-1.737 10.054a2.03 2.03 0 0 1-2.538-1.511 25.007 25.007 0 0 1-.842-3.568c-.485-2.939-.661-3.742-1.195-6.8" class="cls-25" transform="translate(-304.314 4.096)"/>
                            <path id="패스_2529" d="M388.6 51.369c-.053.423-.121.829-.206 1.205a4.812 4.812 0 0 1-.455 1.284 1.033 1.033 0 0 1-.531.518 1.585 1.585 0 0 1-1.96-1.218 24.443 24.443 0 0 1-.823-3.492c-.484-2.943-.66-3.745-1.2-6.807a.463.463 0 1 0-.912.16c.535 3.056.711 3.859 1.194 6.8a25.557 25.557 0 0 0 .86 3.638 2.473 2.473 0 0 0 3.117 1.8 1.684 1.684 0 0 0 .791-.576 6.159 6.159 0 0 0 .8 2.729 2.471 2.471 0 0 0 3.455.95 2.17 2.17 0 0 0 .874-.787c.058-.085.116-.177.17-.275a2.807 2.807 0 0 0 .35.762 3.4 3.4 0 0 0 3.188 1.213 3.218 3.218 0 0 0 2.479-2.656 56.99 56.99 0 0 0 1.42-7.393.88.88 0 0 0 .009-.178.417.417 0 0 0-.23-.352.464.464 0 0 0-.678.273.392.392 0 0 0-.016.121v.04a56.345 56.345 0 0 1-1.4 7.256 2.238 2.238 0 0 1-4 1.156c-.461-.681-.434-1.682-.22-3.105l.02-.129a40.273 40.273 0 0 0 .438-6.721 1.635 1.635 0 0 0-.057-.428.463.463 0 0 0-.872.134 46.13 46.13 0 0 1-.432 6.928c-.075.423-.162.834-.267 1.215a6.242 6.242 0 0 1-.538 1.418 1.492 1.492 0 0 1-.617.665 1.611 1.611 0 0 1-2.265-.559 5.762 5.762 0 0 1-.682-3.368c.029-.551.072-1.321.121-2.177a34.236 34.236 0 0 0 .195-3.856c.052-1.207.084-2.208.06-2.621a1.075 1.075 0 0 0-.067-.354.459.459 0 0 0-.249-.245.473.473 0 0 0-.3-.023.46.46 0 0 0-.275.2 1.008 1.008 0 0 0-.108.475c-.013.421.02 1.367.018 2.512-.051 1.2-.127 2.628-.2 3.87zm12.37-1.858a.464.464 0 0 0 .238-.29.423.423 0 0 1-.238.29zm-.35.026l.017.006a.467.467 0 0 0 .23 0 .433.433 0 0 1-.247-.011zm-.13-.065a.423.423 0 0 1-.176-.267.462.462 0 0 0 .176.267z" class="cls-30" transform="translate(-303.276 5.134)"/>
                            <path id="패스_2530" d="M304.759 110.161a5 5 0 0 1-.286 4.753 7.092 7.092 0 0 1-6.188 3.628 6.807 6.807 0 0 1-5.063-2.786c-1.547-1.9-.921-4.446.327-7.262 1.195-2.7 3-5.63 4.327-8.486a17.486 17.486 0 0 0 1.756-5.688.471.471 0 0 0-.938-.08 19.66 19.66 0 0 1-2.366 6.791c-1.22 2.4-2.641 4.821-3.641 7.082-1.413 3.192-1.947 6.086-.2 8.238 3.151 3.873 7.189 3.74 10.059 1.9 2.894-1.854 4.568-5.463 3.051-8.511a.471.471 0 0 0-.843.419z" class="cls-12" transform="translate(-240.268 -30.362)"/>
                            <path id="패스_2531" d="M108.888 52.622c11.144.061 10.759 8.665 8.652 17.13-2.676 10.727-5.215 19-9.5 28.463-2.687 5.931-6.634 32.293-21.115 28.29-10.436-2.885.875-28.244 2.275-34.574 1.614-7.33 5.077-15.98 8.936-27.288 2.472-7.241 7.006-12.043 10.755-12.022z" class="cls-24" transform="translate(-95.857 -1.882)"/>
                            <path id="패스_2532" d="M87.669 245.564c-5.327 3.534-3.737 13.159 3.713 19.8 9.607 8.561 15.37 14.715 25.879 23.343 5.686 4.673 13.675 14.889 19.962 9.542 6.592-5.607-3.3-13.627-9.661-21.389-5.446-6.654-12.986-13.583-22.447-23.36-6.06-6.261-11.523-11.866-17.445-7.938z" class="cls-24" transform="translate(-97.228 -134.396)"/>
                            <path id="패스_2533" d="M220.549 386.209c-6.634-4.141-6.321-13.63 2.006-15.555.949-.219 3.483-.437 4.447-.572a6.92 6.92 0 0 1 .96-.095c.645 0 1.288.049 1.931.095 1.562.112 3.662.293 5.318.49 1.056.125 1.769.216 2.778.428a1.5 1.5 0 0 1 .546.211.853.853 0 0 1 .06.772 2.261 2.261 0 0 1-1.091 1.346 12.579 12.579 0 0 1-3.97 1.081c-.312.065-.623.137-.929.224-.332.095-.835.328-.69.766a1.458 1.458 0 0 0 .42.5 15.622 15.622 0 0 0 2.127 1.387 42.334 42.334 0 0 0 6.335 3.036c2.417.867 5.361 1.391 6.054 1.605a1.024 1.024 0 0 1 .672 1.228 1.881 1.881 0 0 1-.762 1.3 4.655 4.655 0 0 1-2.459.449c-.38 0-.761 0-1.141-.023-.681-.047-4.008-.914-4.264-.851a13.7 13.7 0 0 0 2.731 1.226 22.888 22.888 0 0 1 3.644 1.4c.322.169.8.456.919.835a.893.893 0 0 1 .044.316 1.222 1.222 0 0 1-.857.971 6.09 6.09 0 0 1-1.357.17 10.5 10.5 0 0 1-2.346-.111 21.923 21.923 0 0 1-2.286-.528c-.191-.047-2.217-.88-2.005-.761s3.234 1.455 3.275 1.473a22.764 22.764 0 0 0 2.481.959 6.692 6.692 0 0 1 1.273.4.644.644 0 0 1 .3.649 1.063 1.063 0 0 1-.3.749 1.707 1.707 0 0 1-.653.179 8.824 8.824 0 0 1-1.952.107 20.17 20.17 0 0 1-4.382-.815c-.59-.176-1.171-.385-1.753-.59-.233-.082 1.856.936 2.722 1.445a10.679 10.679 0 0 1 1.5.939.627.627 0 0 1 .137.773.693.693 0 0 1-.49.446 23.848 23.848 0 0 1-5.969-1.064c-3.015-.761-6.221-2.748-13.023-6.994z" class="cls-24" transform="translate(-188.075 -221.336)"/>
                        </g>
                    </g>
                    <g id="그룹_1453" transform="translate(176.05 174.109)">
                        <g id="그룹_1452" clip-path="url(#clip-path-9)">
                            <path id="패스_2534" d="M272.477 407.522l.154.074.3.154q.575.294 1.154.578a18.836 18.836 0 0 0 3.025 1.262.467.467 0 0 0 .274-.893 18 18 0 0 1-2.888-1.208q-.572-.28-1.14-.571l-.3-.153s-.2-.1-.241-.114c-.446-.176-.631.31-.639.36a.467.467 0 0 0 .3.51zm.2.028zm.274-.114a.433.433 0 0 1-.258.112.464.464 0 0 0 .258-.112zm.013-.012l-.006.006.011-.01zm.137-.242a.45.45 0 0 1-.129.235.462.462 0 0 0 .129-.235zm0 0v-.023.023z" class="cls-27" transform="translate(-254.815 -395.314)"/>
                            <path id="패스_2535" d="M268.854 417.809a.466.466 0 0 0-.475-.1.475.475 0 0 0-.266.675.483.483 0 0 0 .114.141 1.93 1.93 0 0 0 .214.12c.1.06.2.117.305.173q.543.3 1.1.574c1.056.533 1.817.926 2.911 1.377a.467.467 0 1 0 .356-.863c-1.07-.441-1.814-.827-2.847-1.348q-.539-.272-1.069-.56c-.094-.051-.188-.1-.28-.158l-.059-.03zm-.026.7a.431.431 0 0 1-.139.078.457.457 0 0 0 .139-.078z" class="cls-27" transform="translate(-251.967 -402.967)"/>
                            <path id="패스_2536" d="M264.075 427.671c.352.2.814.485 1.164.684a19.555 19.555 0 0 0 2.948 1.543.467.467 0 0 1-.331.873 20.407 20.407 0 0 1-3.079-1.6c-.348-.2-.806-.485-1.155-.679a.467.467 0 0 1 .453-.817z" class="cls-27" transform="translate(-248.735 -409.834)"/>
                        </g>
                    </g>
                    <g id="그룹_1455" transform="translate(350.077 4.142)">
                        <g id="그룹_1454" clip-path="url(#clip-path-10)">
                            <path id="패스_2537" d="M803.174-92.034a2.079 2.079 0 0 1 2.055 2.1 2.079 2.079 0 0 1-2.1 2.054 2.079 2.079 0 0 1-2.055-2.1 2.079 2.079 0 0 1 2.1-2.054z" class="cls-28" transform="translate(-794.569 119.463)"/>
                            <path id="패스_2538" d="M859.538-91.4a2.079 2.079 0 0 1 2.054 2.1 2.078 2.078 0 0 1-2.1 2.054 2.079 2.079 0 0 1-2.055-2.1 2.079 2.079 0 0 1 2.1-2.054z" class="cls-28" transform="translate(-833.544 119.027)"/>
                            <path id="패스_2539" d="M786.25-112.525a19.585 19.585 0 0 1 3.835-.681 7.18 7.18 0 0 1 2.779.386 3.946 3.946 0 0 1 2.253 2.892 23.38 23.38 0 0 1 .252 6.763c-.037.891-.14 1.779-.233 2.665a9.54 9.54 0 0 0 .139 4.33 4.106 4.106 0 0 0 1.974 2.3 3.445 3.445 0 0 0 3.031-.045.744.744 0 0 0 .362-.988.744.744 0 0 0-.987-.362 2.005 2.005 0 0 1-1.757.056 2.636 2.636 0 0 1-1.235-1.491 8.03 8.03 0 0 1-.048-3.643c.1-.917.2-1.835.24-2.757a25.006 25.006 0 0 0-.3-7.212 5.376 5.376 0 0 0-3.139-3.887 8.724 8.724 0 0 0-3.374-.491 21.032 21.032 0 0 0-4.131.72.744.744 0 0 0-.554.894.744.744 0 0 0 .894.554z" class="cls-28" transform="translate(-783.688 135.135)"/>
                            <path id="패스_2540" d="M850.436-115.812a14.558 14.558 0 0 1-7.846-.1.744.744 0 0 0-.9.549.744.744 0 0 0 .549.9 15.984 15.984 0 0 0 8.614.085.744.744 0 0 0 .5-.923.744.744 0 0 0-.923-.5z" class="cls-28" transform="translate(-822.643 135.992)"/>
                            <path id="패스_2541" d="M825.342-20.121a14.561 14.561 0 0 1 7.846.1.744.744 0 0 0 .9-.549.744.744 0 0 0-.549-.9 15.985 15.985 0 0 0-8.614-.085.744.744 0 0 0-.5.923.744.744 0 0 0 .923.5z" class="cls-28" transform="translate(-810.692 71.106)"/>
                        </g>
                    </g>
                    <g id="그룹_1459" transform="translate(148.217 25.458)">
                        <g id="그룹_1458" class="cls-34">
                            <g id="그룹_1457" transform="translate(32.968 -21.317)">
                                <g id="그룹_1456" clip-path="url(#clip-path-12)">
                                    <path id="패스_2542" d="M339.164-92.034a2.079 2.079 0 0 0-2.054 2.1 2.079 2.079 0 0 0 2.1 2.054 2.079 2.079 0 0 0 2.054-2.1 2.079 2.079 0 0 0-2.1-2.054z" class="cls-28" transform="translate(-304.853 119.463)"/>
                                    <path id="패스_2543" d="M282.8-91.4a2.079 2.079 0 0 0-2.054 2.1 2.079 2.079 0 0 0 2.1 2.054 2.079 2.079 0 0 0 2.054-2.1 2.079 2.079 0 0 0-2.1-2.054z" class="cls-28" transform="translate(-265.878 119.027)"/>
                                    <path id="패스_2544" d="M330.938-112.525a19.586 19.586 0 0 0-3.835-.681 7.179 7.179 0 0 0-2.779.386 3.947 3.947 0 0 0-2.253 2.892 23.379 23.379 0 0 0-.252 6.763c.037.891.14 1.779.233 2.665a9.537 9.537 0 0 1-.139 4.33 4.1 4.1 0 0 1-1.974 2.3 3.445 3.445 0 0 1-3.031-.045.744.744 0 0 1-.362-.988.744.744 0 0 1 .988-.362 2.005 2.005 0 0 0 1.757.056 2.636 2.636 0 0 0 1.235-1.491 8.028 8.028 0 0 0 .048-3.643c-.1-.917-.2-1.835-.24-2.757a25.009 25.009 0 0 1 .3-7.212 5.376 5.376 0 0 1 3.139-3.887 8.725 8.725 0 0 1 3.375-.491 21.038 21.038 0 0 1 4.131.72.744.744 0 0 1 .554.894.744.744 0 0 1-.894.554z" class="cls-28" transform="translate(-290.584 135.135)"/>
                                    <path id="패스_2545" d="M279.435-115.812a14.558 14.558 0 0 0 7.846-.1.745.745 0 0 1 .9.549.744.744 0 0 1-.549.9 15.984 15.984 0 0 1-8.614.085.744.744 0 0 1-.5-.923.744.744 0 0 1 .923-.5z" class="cls-28" transform="translate(-264.312 135.992)"/>
                                    <path id="패스_2546" d="M304.528-20.121a14.561 14.561 0 0 0-7.846.1.744.744 0 0 1-.9-.549.744.744 0 0 1 .549-.9 15.985 15.985 0 0 1 8.614-.085.744.744 0 0 1 .5.923.744.744 0 0 1-.923.5z" class="cls-28" transform="translate(-276.262 71.106)"/>
                                </g>
                            </g>
                        </g>
                    </g>
                </g>
            </g>
            <g id="타원_100" fill="none" stroke="#e73828" stroke-width="3px" transform="translate(1422 1243)">
                <circle cx="40" cy="40" r="40" stroke="none"/>
                <circle cx="40" cy="40" r="38.5" class="cls-3"/>
            </g>
            <path id="패스_853" fill="#e73828" stroke="#e73828" stroke-width="2px" d="M32.281 1.467L30.814 0 16.14 14.673 1.467 0 0 1.467 14.673 16.14 0 30.814l1.467 1.467L16.14 17.608l14.674 14.673 1.467-1.467L17.608 16.14z" transform="translate(1445.859 1266.859)"/>
        </g>
        <g filter="url(#사각형_1418)" transform="translate(351 1202)">
            <rect id="사각형_1418-2" width="704" height="368" fill="#fff" rx="10" transform="translate(9 261)"/>
        </g>
        <text id="사진만_보고_구매하고서_실망하는_일은_이제_그만_" fill="#f27070" font-family="TmonMonsoriBlack, TmonMonsori" font-size="35px" letter-spacing="0.01em" transform="translate(410 1615)">
            <tspan x="0" y="0">사진만 보고 구매하고서 </tspan><tspan x="0" y="46">실망하는 일은 이제 그만!</tspan>
        </text>
        <text id="사진으로만_물건을_구매하실_때_궁금한_게_많으셨죠_라이브_팩토리는_채널관리자에게_언제든_라이브채팅으로_질문할_수_있습니다." fill="#110101" font-family="NotoSansCJKkr-Regular, Noto Sans CJK KR" font-size="16px" letter-spacing="0.01em" transform="translate(410 1724)">
            <tspan x="0" y="0">사진으로만 물건을 구매하실 때 궁금한 게 많으셨죠? </tspan><tspan x="0" y="24">라이브 팩토리는 채널관리자에게 언제든 </tspan><tspan x="0" y="48">라이브채팅으로 질문할 수 있습니다.</tspan>
        </text>
        <text id="_라이브채팅_채널관리자_실사물건" fill="#110101" font-family="NanumSquare_acR, NanumSquare_ac" font-size="16px" transform="rotate(90 -236.5 1256.5)">
            <tspan x="0" y="0">#</tspan><tspan y="0" class="cls-47">라이브채팅</tspan><tspan y="0"> #</tspan><tspan y="0" class="cls-47">채널관리자</tspan><tspan y="0"> #</tspan><tspan y="0" class="cls-47">실사물건</tspan>
        </text>
        <path id="사각형_1423" fill="#e73828" d="M0 0H220V42H0z" transform="translate(410 1503)"/>
        <text id="LIVE_SHOPPING_" fill="#fff" font-family="NotoSansCJKkr-Bold, Noto Sans CJK KR" font-size="20px" font-weight="700" letter-spacing="-0.02em" transform="translate(430 1533)">
            <tspan x="0" y="0">LIVE SHOPPING </tspan><tspan y="0" font-family="SegoeUIEmoji, Segoe UI Emoji" font-weight="400">🎥</tspan>
        </text>
    </g>
</svg>
