<svg xmlns="http://www.w3.org/2000/svg" width="1920" height="560" viewBox="0 0 1920 560">
    <defs>
        <clipPath id="clip-path">
            <path id="SVGID" d="M2793.854 399.989a27.874 27.874 0 0 0-27.874-27.873h-117.869a27.873 27.873 0 0 0-27.873 27.873v293.2a27.873 27.873 0 0 0 27.873 27.874h117.869a27.874 27.874 0 0 0 27.874-27.874v-293.2z" class="cls-1" transform="translate(-2620.238 -372.116)"/>
        </clipPath>
        <clipPath id="clip-path-2">
            <path id="교차_6" d="M27.873 101.089A27.874 27.874 0 0 1 0 73.214V.765L173.615 0v73.214a27.875 27.875 0 0 1-27.874 27.874z" class="cls-2"/>
        </clipPath>
        <clipPath id="clip-path-4">
            <path id="교차_7" d="M.264 53.869c-1.144-4.8 1.585-14.027 5.174-23.294 1.96-5.063 6.071-8.82 7.241-19A33.933 33.933 0 0 0 12.151 0l53.186 6.794c.236.09-4.13 1.767-2.682 6.389.469 1.5 3.262 8.094 4.374 10.393 6.193 12.8 8.318 27.462 6.034 33.112C67.5 70.449 51.638 73.195 36.541 74.043q-2.441.137-4.745.139c-16.837 0-28.04-5.658-31.532-20.313z" class="cls-2"/>
        </clipPath>
        <clipPath id="clip-path-6">
            <path id="교차_8" d="M9.565 41.017c-6.1-.415-7.837-3.912-8.788-7.231C-.3 30.019-.044 26.264.289 22.5.743 17.364.616 5.487 3.5 2.98a11.9 11.9 0 0 1 18.767 4.17c1.445 3.62.4 14.552-.058 18.349-.426 3.493-.421 5.988-1.638 9.336-1.1 3.028-4.553 6.216-10.018 6.216q-.484 0-.988-.034z" class="cls-2"/>
        </clipPath>
        <clipPath id="clip-path-8">
            <path id="교차_9" d="M15.688 50.638c-4.007-.776-7.893-3.574-10.566-6.446-6.338-6.8-5.3-19.84-4.582-26.769C1.123 11.756 5.105 5.6 9.405 2.615 16.138-2.051 25.824-.158 31.131 5.8c6.522 7.325 5.9 19.446 4.849 28.467-.937 8.044-6.047 14.321-14.423 16.053a19.724 19.724 0 0 1-3.967.49 9.993 9.993 0 0 1-1.902-.172z" class="cls-2"/>
        </clipPath>
        <clipPath id="clip-path-10">
            <path id="교차_10" d="M1.529 9.97A7.3 7.3 0 0 1 .358 3.2C1.134.722 3.295-.764 5.846.407A6.379 6.379 0 0 1 8.026 2 11.177 11.177 0 0 1 9.95 5.576L8.275 10.69a4 4 0 0 1-2.837 1.1 5.144 5.144 0 0 1-3.909-1.82z" class="cls-2"/>
        </clipPath>
        <clipPath id="clip-path-12">
            <path id="SVGID-7" d="M3086.461 687.1a78.451 78.451 0 0 0-25.43 5.658c-1.362.531-.58 3.227-.347 4.372.5 2.455 1.051 8.533 1.438 11.007a159.286 159.286 0 0 0 3.666 17.439c4.391 17.565 10.518 15.116 30.791 15.316 4.319.042 13.253-.818 16.427-4.751 3.377-4.185 5.06-15.394 5.336-20.632.143-2.709 1.665-22.864-.071-24.605-1.237-1.241-11.937-5.171-31.809-3.8z" class="cls-1" transform="translate(-3060.249 -686.816)"/>
        </clipPath>
        <clipPath id="clip-path-13">
            <path id="SVGID-8" d="M3116.486 663.541l-.045.047c-.463.593-1.4 2.24-2.326 1.883-1.2-.462-1.673-2.281-2.685-3.058-.862-.662-1.789-.293-2.611-.816-3.079-1.959-1.883-7.344-1.713-10.175.669-11.1 5.228-20.222 7.64-30.768 1.6-6.981 1.137-14.012 1.987-21.074.571-4.741 2.8-12.492 8.006-14.249 7.774-2.623 3.038 18.293 2.843 20.392-.209 2.247-.45 4.494-.848 6.717a56.943 56.943 0 0 1-1.954 7.507c-.975 3.006-2.037 5.984-3.026 8.986-3.462 10.5-5.269 34.606-5.269 34.606z" class="cls-1" transform="translate(-3106.736 -585.105)"/>
        </clipPath>
        <clipPath id="clip-path-14">
            <path id="SVGID-9" d="M3101.241 659.959c-2.678 2.366-5.063 1.734-5.309.061-.547-3.73-1.132-12.624-1.349-15.64-.611-8.46-3.792-15.647-5.621-23.762a69 69 0 0 1 .363-29.5c.8-3.586 3.8-19.057 8.715-19.057 6.96 0 7.743 15.979 8.246 20.678.735 6.861 1.771 14.317.672 21.2-1.321 8.27-4.825 16-5.955 24.344-.934 6.9.239 21.679.239 21.679z" class="cls-1" transform="translate(-3087.536 -572.06)"/>
        </clipPath>
        <clipPath id="clip-path-15">
            <path id="SVGID-10" d="M3071.542 660.261c.012-.016-.053.058-.057.062-.492.6-5.465 3.642-6.53 1.715-3.1-5.617-.88-13.727-3.547-19.49-1.937-4.187-5.5-7.293-8.076-11.083a104.92 104.92 0 0 1-14.762-31.392c-1.345-5-4.353-19.108 1.71-22.217 6.165-3.162 10.067 13.188 11.022 16.56 2.385 8.414 4.967 16.849 7.93 25.076 2.882 8 6.617 15.984 8.768 24.214 1.108 4.237 3.542 16.555 3.542 16.555z" class="cls-1" transform="translate(-3036.625 -577.453)"/>
        </clipPath>
        <clipPath id="clip-path-16">
            <path id="SVGID-11" d="M3086.485 656.078s-3.627 2.6-4.627 1.187c-.987-1.395-.428-5.354-.813-7.018a119.747 119.747 0 0 0-4.362-14.087c-1.419-3.864-3.953-8.505-5-12.5-1.939-7.385-.988-14.281-1.69-21.821-.527-5.648-5.583-9.116-6.226-17.972-.609-8.412 4.745-20.448 7.977-19.573 3.571.967 4.343 14.792 4.515 17.623.283 4.676 2.1 10.677 2.51 15.344.75 8.452-1.07 16.522.417 24.859.98 5.492 2.826 11.834 3.893 17.31 1.216 6.238 2.574 11.3 3.409 16.649z" class="cls-1" transform="translate(-3063.717 -564.247)"/>
        </clipPath>
        <clipPath id="clip-path-17">
            <path id="SVGID-12" d="M2937.186 708.132c-.925 10.4-10.865 32.15-16.249 30.942-5.821-1.306-11.016-30.155-8.875-37.826l25.125 6.883z" class="cls-1" transform="translate(-2911.57 -701.249)"/>
        </clipPath>
        <style>
            .cls-1,.cls-11,.cls-2,.cls-23,.cls-30,.cls-31,.cls-51,.cls-58{fill:none}.cls-1{clip-rule:evenodd}.cls-10,.cls-12,.cls-13,.cls-14,.cls-19,.cls-22,.cls-25,.cls-39,.cls-49,.cls-5,.cls-56,.cls-59,.cls-60,.cls-68{fill-rule:evenodd}.cls-44,.cls-5{fill:#fff}.cls-6{clip-path:url(#clip-path)}.cls-11,.cls-23,.cls-30,.cls-31,.cls-39,.cls-51,.cls-58,.cls-59{stroke-linecap:round;stroke-linejoin:round}.cls-10{fill:#f27070}.cls-11{stroke:#d25e5e;stroke-width:.85px}.cls-12,.cls-59{fill:#ffbdbc}.cls-13{fill:#f4f8f7}.cls-14{fill:#ffbebc}.cls-23{stroke-width:.833px}.cls-19{fill:#403642}.cls-23{stroke:#f9eded}.cls-22{fill:#ff9e9c}.cls-25{fill:#110101}.cls-30{stroke:#8b5353;stroke-width:6.305px}.cls-31,.cls-39{stroke:#403641;stroke-width:1.09px}.cls-39{fill:#f3d889;stroke:#ea9a43}.cls-49{fill:#668f8d}.cls-51{stroke:#41685f;stroke-width:1.936px}.cls-56{fill:#ff7541}.cls-58,.cls-59{stroke:#ffbdbc;stroke-width:8.043px}.cls-60{fill:#ffe1ca}.cls-68{fill:#899ec1}
        </style>
    </defs>
    <g id="그룹_3244" transform="translate(0 -1880)">
        <path id="사각형_1419" fill="#fff1f1" d="M0 0H1920V560H0z" transform="translate(0 1880)"/>
        <g id="그룹_3220" transform="translate(9.251 -335.68)">
            <g id="그룹_2901" transform="translate(412.735 2280.681)">
                <path id="패스_2933" d="M2793.854 399.989a27.874 27.874 0 0 0-27.874-27.873h-117.869a27.873 27.873 0 0 0-27.873 27.873v293.2a27.873 27.873 0 0 0 27.873 27.874h117.869a27.874 27.874 0 0 0 27.874-27.874v-293.2z" class="cls-5" transform="translate(-2620.238 -372.116)"/>
                <g id="그룹_2880">
                    <g id="그룹_2879" class="cls-6">
                        <path id="패스_2934" fill="#d9cebc" fill-rule="evenodd" d="M2614.334 827.836V720.874l183.888-.81.266 107.772z" transform="translate(-2618.539 -472.232)"/>
                    </g>
                </g>
                <g id="그룹_2882" transform="translate(0 247.859)">
                    <g id="그룹_2881" clip-path="url(#clip-path-2)">
                        <path id="패스_2935" fill="none" stroke="#ad976e" stroke-linecap="round" stroke-linejoin="round" stroke-width="0.787px" d="M2661.719 716.1l-99.846 125.908m229.54-125.908l-155.339 195.963m115.986-201.748l-155.338 195.966m108.8-188.858l-155.336 195.965" transform="translate(-2600.082 -717.286)"/>
                    </g>
                </g>
                <g id="그룹_2884">
                    <g id="그룹_2883" class="cls-6">
                        <path id="패스_2936" d="M2777 498.632a165.046 165.046 0 0 1-6.238-20.562c-2.287-10.047-11.365-18.695-11.921-19.7-3.232-5.844.506-13.091.055-15.839-.885-5.405-6.846-10.8-10.336-15.171-5.514-6.914-16.937-9.473-25.272-6.5a29.44 29.44 0 0 0-11.6 8.012 34.23 34.23 0 0 0-5.622 8.511c-1.661 3.493-6.947 8.7-7.976 14.761-.873 5.143 2.529 11.116 1.085 14.879-.463 1.209-11.431 5.514-12.552 13.939-.844 6.359-8.393 17.832-8.393 17.832s37.378 4.092 53.839 4.065c15.048-.024 44.93-4.226 44.93-4.226z" class="cls-10" transform="translate(-2636.925 -385.79)"/>
                        <path id="패스_2937" d="M2753.829 459.1c.609 8.1 5.9 14.562 7.341 22.325 1.581 8.492-1.983 10.663-.8 19.173m-10.854-32.522c5.828 13.834.108 19.213 1.589 33.375m-15.926-79.273c-5.794 1.192-10.636 3.159-14.8 6.928-5.849 5.3-9.021 14.327-9.549 22.232-.316 4.737 1.06 9.532-.279 14.192-2.253 7.841-10.512 11.924-13.3 19.424-3.077 8.264-1.313 6.525-3.108 14.881m24.115-44.512c-.355 5.046 1.251 10.69-.527 15.544-1.456 3.975-4.392 7.212-6.795 10.661a41.474 41.474 0 0 0-7.13 17.427m49.477-66.817a22.967 22.967 0 0 1 6.037 21.411c-.712 3.413-1.626 6.826-.64 10.28 1.876 6.571 7.512 11.136 9.7 17.442 1.468 4.227 1.382 14.191 1.053 18.442" class="cls-11" transform="translate(-2641.504 -386.521)"/>
                        <path id="패스_2938" d="M2764.185 522.333c8.031-4.628 11.97 2.41 14.6 10.062a156.96 156.96 0 0 1 7.125 26.737c.978 5.868 8.542 25.471-2.555 28.667-9.616 2.769-11.948-20.139-14.048-25.783-2.432-6.536-4.185-14.9-6.952-25.562-1.773-6.826-.873-12.565 1.827-14.121z" class="cls-12" transform="translate(-2660.867 -414.913)"/>
                        <path id="패스_2939" d="M2766.017 551.313c.009.016-.016-.034-.023-.051-.123-.323-4.424-16.037-4.526-17.121-.364-3.862-.645-13.924 6.306-14.267 2.056-.1 4.472 1.429 6.018 2.567 4.68 3.445 11.217 22.409 11 22.927-.224.536-7.99 3.269-11.12 4.259-2.487.788-7.656 1.685-7.656 1.685z" class="cls-13" transform="translate(-2660.831 -414.63)"/>
                        <path id="패스_2940" d="M2732.951 502.713c13.072 4.784 20.529 11.094 22.629 16.891 2.072 5.719-.117 9.3-1.524 17.253-.858 4.852-1.555 14.813-4.218 19.214-3.71 6.129-8.967 9.836-12.536 15.978-3.836 6.6-4.97 12.157-6.024 13.373-3.925 4.527-44.706-6.512-44.855-9.964-.257-5.907 5.4-16.411 5.718-23.654.382-8.589-2.058-22.362.869-34.407 1.508-6.211 7.442-16.245 12.368-18.149 6.353-2.457 17.739-.135 27.573 3.465z" class="cls-13" transform="translate(-2639.279 -408.403)"/>
                        <path id="패스_2941" d="M2732.028 684.02l7.341 85.883c.517 7.979 1.851 22.955 3.351 38.805 2.613 27.608 5.7 57.823 5.7 57.823l12.342-.935s-1.491-30.28-2.645-57.937c-.654-15.7-1.194-30.535-1.289-38.428l-2.822-86.682-21.98 1.47z" class="cls-14" transform="translate(-2652.403 -461.438)"/>
                        <path id="패스_2942" d="M2674.479 681.884l-4.6 94.65-2.535 88.431 12.362.618 7.168-87.877 9.565-94.129-21.964-1.693z" class="cls-14" transform="translate(-2633.793 -461.246)"/>
                        <path id="패스_2943" fill="#c29997" fill-rule="evenodd" d="M2666.642 661.987c-1.447 5.026-6.088 36.019-6.088 36.019l.178.111 43.113 4.72s1.445-7.284 3-7.582c1.529-.293 1.6 7.409 1.6 7.409l37.877-2.046s-6.179-37.626-7.609-39.33c-1.983-2.363-72.071.7-72.071.7z" transform="translate(-2631.838 -455.062)"/>
                        <path id="패스_2944" fill="#c29996" fill-rule="evenodd" d="M2733.206 607.48c.236.09-4.131 1.767-2.682 6.39.469 1.5 3.262 8.094 4.374 10.393 6.193 12.8 8.318 27.461 6.034 33.112-5.563 13.761-21.425 16.507-36.522 17.356-19.474 1.1-32.467-4.183-36.277-20.174-1.144-4.8 1.585-14.027 5.174-23.294 1.96-5.063 6.072-8.82 7.24-18.995a33.94 33.94 0 0 0-.527-11.581l53.186 6.794z" transform="translate(-2633.943 -437.883)"/>
                    </g>
                </g>
                <g id="그룹_2886" transform="translate(33.926 162.803)">
                    <g id="그룹_2885" clip-path="url(#clip-path-4)">
                        <path id="패스_2945" fill="none" stroke="#d7bdbb" stroke-linecap="round" stroke-linejoin="round" stroke-width="0.833px" d="M2726.256 622.925a15.771 15.771 0 0 1 .054 2.294q.035 4.2-.036 8.4c-.2 12.341.2 24.711-.356 37.044m6.484-47.342c.006-.006 0-.008 0 0 .057.561.376 34.183-.449 36.1s-4.16 4.334-5.816 5.909" transform="translate(-2684.571 -607.085)"/>
                        <path id="패스_2946" d="M2720.89 619.177c-2.884-.1-5.767-.225-8.649-.37q-4.108-.205-8.214-.448-6.78-.4-13.554-.885c-1.441-.105-2.882-.213-4.322-.337-.4-.035-.806-.07-1.208-.113-.129-.013-.258-.027-.387-.045l-.117-.017a.247.247 0 0 1-.064-.015c-.013-.006-.019-.024-.022-.036a.548.548 0 0 1-.016-.111v-.053c-.008-.217.007-.435.021-.653.027-.436.067-.871.109-1.305.052-.53.108-1.059.165-1.588.064-.588.132-1.177.2-1.765.018-.164.036-.328.052-.493.006-.06.012-.119.016-.179v-.06a.1.1 0 0 0 0-.017v-.01q4.262.349 8.527.649 5.5.393 11.011.721 4.374.257 8.751.456 1.558.069 3.116.127c.947.035 1.895.067 2.842.089 3.607.083 7.217.053 10.823-.063 1.169-.038 2.338-.086 3.506-.137.408-.018.817-.037 1.226-.052.124 0 .248-.009.372-.011h.121a.59.59 0 0 1 .094.005c.017 0 .023.014.033.027a.455.455 0 0 1 .031.046 1.306 1.306 0 0 1 .109.251 4.844 4.844 0 0 1 .141.519c.051.227.094.455.131.684.112.67.188 1.345.244 2.021.053.635.089 1.274.085 1.911 0 .183-.006.366-.017.549a3.925 3.925 0 0 1-.051.449 1.176 1.176 0 0 1-.067.246.374.374 0 0 1-.035.066.089.089 0 0 1-.019.024.129.129 0 0 1-.046.016.944.944 0 0 1-.111.018c-.114.013-.23.021-.345.028-.44.026-.882.036-1.322.043-.729.014-1.458.018-2.186.019-1.08 0-2.16-.009-3.239-.021h-.009c3.558 6.474 8.32 17.094 7.977 17.312-.451.286-5.2 1.84-5.589 1.957-.216.064-8.533-16.567-9.891-19.441l-.216-.007z" class="cls-19" transform="translate(-2672.606 -603.561)"/>
                        <path id="패스_2947" fill="none" stroke="#f9eded" stroke-linecap="round" stroke-linejoin="round" stroke-width="1.654px" d="M2723.9 613.29l8.045.119-.1 6.373-8.045-.119.1-6.373z" transform="translate(-2683.961 -604.313)"/>
                    </g>
                </g>
                <g id="그룹_2888">
                    <g id="그룹_2887" class="cls-6">
                        <path id="패스_2948" d="M2733.6 469.2c-2.881 2.506-2.755 14.384-3.208 19.518-.333 3.766-.59 7.52.488 11.287.95 3.32 2.691 6.816 8.788 7.231 6.038.411 9.84-2.975 11.007-6.182 1.217-3.348 1.211-5.843 1.637-9.336.463-3.8 1.5-14.729.058-18.349a11.9 11.9 0 0 0-18.77-4.17z" class="cls-12" transform="translate(-2651.851 -399.192)"/>
                    </g>
                </g>
                <g id="그룹_2890" transform="translate(78.256 67.026)">
                    <g id="그룹_2889" clip-path="url(#clip-path-6)">
                        <path id="패스_2949" d="M2756.482 493.894c-.323 1.761-4.245 3.875-10.138 2.9-6.836-1.128-10.33-5.314-12.982-11.5-.955-2.229-1.8-11.264-.515-12.846s5.663-.265 8.243 3.36c1.548 2.175 3.6 6.509 5.187 8.646 1.243 1.671 11.253 3.721 10.206 9.441z" class="cls-22" transform="translate(-2730.707 -467.821)"/>
                        <path id="패스_2950" d="M2731.265 515.418c-4-5.151-2.207-14.422-2.071-14.334 1.182.761 4.034 7.607 10.89 8.319 5.369.558 10.01-1.519 12-7.379.4-1.171-.088 12.543-2.318 14.567-2.014 1.828-4.623 2.208-7.232 2.324-3.005.133-9.3-.959-11.27-3.5z" class="cls-13" transform="translate(-2729.696 -476.25)"/>
                    </g>
                </g>
                <g id="그룹_2892">
                    <g id="그룹_2891" class="cls-6">
                        <path id="패스_2951" d="M2779.606 465.991c.023-.122.145.205.206.315.115.2.231.406.341.613a9.493 9.493 0 0 1 .734 1.811c.556 1.925.219 5.139-2.283 5.68a2.568 2.568 0 0 1-2.617-1.568c-.975-1.725-1.012-4.445.563-5.9" class="cls-23" transform="translate(-2664.855 -399.119)"/>
                        <path id="패스_2952" d="M2730.653 444.675c.583-5.668 4.566-11.827 8.866-14.808 6.733-4.667 16.418-2.774 21.725 3.185 6.522 7.324 5.9 19.446 4.849 28.467-.937 8.044-6.046 14.321-14.423 16.053a15.068 15.068 0 0 1-5.87.317c-4.007-.776-7.893-3.574-10.566-6.445-6.338-6.8-5.3-19.84-4.582-26.769z" class="cls-12" transform="translate(-2651.853 -387.98)"/>
                    </g>
                </g>
                <g id="그룹_2894" transform="translate(78.261 39.271)">
                    <g id="그룹_2893" clip-path="url(#clip-path-8)">
                        <path id="패스_2953" d="M2770.025 457.35a1.707 1.707 0 1 0 1.8 1.679 1.739 1.739 0 0 0-1.8-1.679z" class="cls-25" transform="translate(-2741.095 -435.912)"/>
                        <path id="패스_2954" d="M2749.649 457.215a1.707 1.707 0 1 0 1.8 1.679 1.739 1.739 0 0 0-1.8-1.679z" class="cls-25" transform="translate(-2735.232 -435.873)"/>
                        <path id="패스_2955" fill="none" stroke="#110101" stroke-linecap="round" stroke-linejoin="round" stroke-width="1.356px" d="M2769.812 452.052a18.009 18.009 0 0 0-3.4-.561 7.033 7.033 0 0 0-2.625.371c-3.18 1.235-2.626 5.949-2.5 8.532.036.744.127 1.484.211 2.225a6.937 6.937 0 0 1-.065 3.273 2.446 2.446 0 0 1-3.408 1.528m-3.049-15.767a13.548 13.548 0 0 0-7.028.108" transform="translate(-2735.243 -434.153)"/>
                        <path id="패스_2956" d="M2749.74 475.424c1.588.561 3.091 2.193 6.475 2.733 1.657.264 4.4-.012 5.188 1.85s-1.171 3.773-2.778 4.536a9.092 9.092 0 0 1-9.876-1.489c-2.026-1.774-3.145-3.658-2.93-5.937.2-2.143 2.06-2.348 3.921-1.692z" class="cls-5" transform="translate(-2734.625 -441.017)"/>
                    </g>
                </g>
                <g id="그룹_2896">
                    <g id="그룹_2895" class="cls-6">
                        <path id="패스_2957" d="M2731 458.136a11.164 11.164 0 0 0-1.924-3.576 6.376 6.376 0 0 0-2.18-1.593c-2.551-1.172-4.712.315-5.487 2.79a7.3 7.3 0 0 0 1.171 6.772c1.559 1.925 4.853 2.561 6.746.72l1.675-5.114z" class="cls-12" transform="translate(-2649.245 -395.262)"/>
                    </g>
                </g>
                <g id="그룹_2898" transform="translate(71.806 57.298)">
                    <g id="그룹_2897" clip-path="url(#clip-path-10)">
                        <path id="패스_2958" fill="none" stroke="#ff9e9c" stroke-linecap="round" stroke-linejoin="round" stroke-width="0.844px" d="M2725.108 457.7a2.093 2.093 0 0 1 1.829-.179 5.107 5.107 0 0 1 2.942 2.847m-1.822-2.29c-.323-.077-.9.6-1.043.783a3.148 3.148 0 0 0 .1 3.688" transform="translate(-2722.218 -453.95)"/>
                    </g>
                </g>
                <g id="그룹_2900">
                    <g id="그룹_2899" class="cls-6">
                        <path id="패스_2959" d="M2752.3 427.592c-7.3 2.373-8.923 7.405-13.68 12.579-2.828 3.076-6.9 5.748-11.369 4.736.237-4.592.953-9.3 3.743-13.169 3.669-5.089 15.265-5.787 21.306-4.146" class="cls-10" transform="translate(-2651.03 -387.851)"/>
                        <path id="패스_2960" d="M2748.723 426.517c-7.9.577-8.227 7.994-13.04 11.95-2.911 2.392-7.015 2.626-9.793 5.158m15.154-16.254c-3.283 1.882-5.373 4.673-8.272 7-2.243 1.8-5.145 2.527-7.2 4.615-1.609 1.638-2.272 3.67-2.991 5.752" class="cls-11" transform="translate(-2649.686 -387.769)"/>
                        <path id="패스_2961" d="M2728.073 444.687a20.685 20.685 0 0 1 2.279-9.119c2.42-4.453 10.968-9.478 18.688-9.46 7.453.018 11.031 4.816 12.157 5.809.443.391 1.041.407.852-.045a23.409 23.409 0 0 0-3.129-3.683c-.74-.662-5.793-4.39-10.092-4.7-7.42-.53-16.194 2.13-21.076 9.509a22.187 22.187 0 0 0-3.341 11.631 3.415 3.415 0 0 1 1.642-.452 5.357 5.357 0 0 1 2.021.506z" class="cls-25" transform="translate(-2650.211 -386.88)"/>
                        <path id="패스_2962" d="M2725.923 466.8c.024-.122.145.205.207.314.114.2.231.407.34.613a9.5 9.5 0 0 1 .734 1.81c.557 1.925.22 5.14-2.283 5.68a2.568 2.568 0 0 1-2.616-1.568c-.976-1.726-1.013-4.445.563-5.9" class="cls-23" transform="translate(-2649.409 -399.352)"/>
                        <path id="패스_2963" fill="#ebbd36" fill-rule="evenodd" d="M2593.292 524.646s-.687 5.524-.609 5.927c.285 1.489.618 2.967.912 4.454.774 3.915 1.405 7.853 2.133 11.776 2.205 11.892 4.769 24.276 11.245 34.8 2.66 4.324 7.139 8.894 12.818 6.6 12.839-5.187 14.32-36.2 13.483-47.661-.284-3.873 0-11.306-3.263-14.308-5.623-5.174-29.419-2.74-36.718-1.586z" transform="translate(-2612.308 -415.546)"/>
                        <path id="패스_2964" d="M2699.024 499.679c8.871 2.88 5.847 10.326 1.494 17.213a162.11 162.11 0 0 1-16.561 22.545c-4.013 4.519-15.483 26.631-25.77 19.448-7.413-5.176 9.616-24.54 12.726-29.735 3.6-6.017 9.093-12.723 15.741-21.657 4.258-5.722 9.388-8.782 12.37-7.814z" class="cls-12" transform="translate(-2630.624 -408.769)"/>
                        <path id="패스_2965" d="M2686.239 517.189c-.008.016.019-.032.029-.047.2-.287 10.786-12.952 11.632-13.675 3.013-2.576 11.264-8.772 15.68-3.6 1.307 1.53.976 4.384.942 6.256-.1 5.667-11.592 21.914-12.153 22.055-.582.145-7.482-4.237-10.171-6.068-2.137-1.455-5.959-4.92-5.959-4.92z" class="cls-13" transform="translate(-2639.228 -408.299)"/>
                        <path id="패스_2966" d="M2657.136 561.1c5.355-.306 8.264-7.67 5.657-15.33-3.361-9.873-4.951-16.507-8.937-26.793-2.158-5.569-3.647-15.941-10.469-14.758-7.153 1.24-3.35 10.853-2.011 18.85 1.147 6.854 3.7 14.75 6.443 25.414 1.758 6.829 3.358 12.958 9.317 12.618z" class="cls-12" transform="translate(-2625.683 -410.098)"/>
                        <path id="패스_2967" d="M2644.291 505.968c.371-2.479-.654-4.486-4.4-8.574-2.038-2.221-5.112-4.11-8.093-5.974-1.935-1.21-2.472-2.857-5.252-2.836-2.11.016 3.817 7.371 3.508 7.646-2.235 1.986-3.342-4.306-6.808-3.46-1.708.417-.67 7.277-.18 9.1s1.46 7.5 2.478 9.143c1.753 2.833 9.427 2.318 11.081 2.062 3.392-.525 7-2.62 7.67-7.106z" class="cls-14" transform="translate(-2620.831 -405.628)"/>
                        <path id="패스_2968" d="M2640.822 535.521a1.35 1.35 0 0 0-.16-.2 32.894 32.894 0 0 0-6.1-4.331 49.392 49.392 0 0 0-13.028-5.389c-13.742-3.423-31.5-1.509-42.9 7.01" class="cls-30" transform="translate(-2608.268 -415.817)"/>
                        <path id="패스_2969" d="M2626.986 501.636c2.765-4.369-4.408-11.2-9.878-5.751-3.808 3.79 3.728 12.037 3.728 17.948" class="cls-31" transform="translate(-2619.029 -407.148)"/>
                        <path id="패스_2970" fill="#ffbebc" fill-rule="evenodd" stroke="#ff9e9d" stroke-linecap="round" stroke-linejoin="round" stroke-width="1.09px" d="M2629.183 509.2a48.041 48.041 0 0 0 6.283-.756 2.316 2.316 0 0 0 2.055-1.585 2.274 2.274 0 0 0-.706-2.242 4.234 4.234 0 0 0-2.86-.414 39.912 39.912 0 0 1-5.892-.007c-.119.011 7.943.7 8.975-1.159a1.61 1.61 0 0 0-.477-2.343 5.375 5.375 0 0 0-2.993-.785c-2-.018-7.346-.043-7.4-.181-.069-.189 7.764.991 8.52-.878a1.627 1.627 0 0 0-1.13-2.123 21.706 21.706 0 0 0-2.943-.863c-2.437-.542-3.1-.726-5.636-1.315" transform="translate(-2621.603 -407.343)"/>
                        <path id="패스_2971" d="M2780.163 594.641c4.456-2.7 3.624-10.851-2.073-16.78-7.344-7.643-11.705-13.079-19.772-20.823-4.367-4.192-10.331-13.143-15.648-8.965-5.576 4.382 2.031 11.584 6.792 18.4 4.081 5.841 9.836 12.015 17.009 20.669 4.593 5.542 8.735 10.507 13.692 7.5z" class="cls-12" transform="translate(-2654.901 -422.432)"/>
                        <path id="패스_2972" d="M2741.979 543.753c.985-2.319 2.924-3.551 8.309-5.254 2.927-.925 6.573-1.059 10.125-1.217 2.306-.1 3.635-1.261 6.023.11 1.811 1.04-7.172 4.5-7.05 4.889.883 2.8 5.148-2.088 7.692.327 1.255 1.19-3.251 6.6-4.632 7.935s-5.2 5.757-6.948 6.682c-3 1.591-9.351-2.586-10.643-3.612-2.65-2.1-4.658-5.664-2.876-9.86z" class="cls-14" transform="translate(-2655.072 -419.48)"/>
                        <path id="패스_2973" d="M2788.929 584.05a1.257 1.257 0 0 0-.16-.2 32.843 32.843 0 0 0-6.1-4.331 49.365 49.365 0 0 0-13.028-5.388c-13.742-3.423-31.5-1.509-42.9 7.01" class="cls-30" transform="translate(-2650.883 -429.78)"/>
                        <path id="패스_2974" d="M2775.093 550.165c2.764-4.369-4.407-11.2-9.877-5.752-3.809 3.79 3.727 12.038 3.727 17.948" class="cls-31" transform="translate(-2661.644 -421.111)"/>
                        <path id="패스_2975" fill="#ffbebc" fill-rule="evenodd" stroke="#ff9e9d" stroke-linecap="round" stroke-linejoin="round" stroke-width="1.075px" d="M2757.927 554.053a46.133 46.133 0 0 1-5.021-3.708 2.208 2.208 0 0 1-.939-2.368 2.388 2.388 0 0 1 1.789-1.591 4.2 4.2 0 0 1 2.685 1.034 38.736 38.736 0 0 0 5.086 2.86c.1.067-7.222-3.256-7.132-5.365a1.671 1.671 0 0 1 1.645-1.79 5.378 5.378 0 0 1 3 .779c1.731.956 6.359 3.536 6.474 3.441.159-.129-7.218-2.922-6.886-4.9a1.7 1.7 0 0 1 2.091-1.282 21.848 21.848 0 0 1 2.993.687c2.388.719 3.056.883 5.554 1.608" transform="translate(-2658.12 -420.749)"/>
                        <path id="패스_2976" fill="none" stroke="#c8bfc4" stroke-linecap="round" stroke-linejoin="round" stroke-width="1.126px" d="M2719.533 507.744c.1.088-.425 4.788-.483 5.133-.949 5.675-3.627 10.358-7.389 14.75m51.578-2.814a6.852 6.852 0 0 0 .07 1.5 26.18 26.18 0 0 1-.38 3.348c-.655 4-1.6 7.949-2.212 11.963m-14.488-34.375c-.944 4.525-6.791 6.232-9.287 6.194-7.278-.11-14.655-6.441-14.81-13.921" transform="translate(-2646.543 -408.776)"/>
                        <path id="패스_2977" fill="#d25e5e" fill-rule="evenodd" d="M2776.548 568.211s6.159 1.261 5.981 3.241c-.349 3.865.433 16.208.49 19 .441 21.839 3.146 43.7 5 65.465 1.151 13.489 13.117 96.73 10.767 101.014-3.3 6.02-28.848 5.534-37.066 6.373-11.974 1.222-36.149-5.221-37.687-6.407-1.822-1.405 3.989-74.716 5.979-94.16 1.838-17.953 5.862-35.646 7.386-53.622.443-5.227-1.573-41.378-.935-42.151.092-.11 6.021-.38 7.819.879 1.833 1.283 17.164 30.277 17.822 30.029 1.924-.724 10.359-23.632 14.442-29.657z" transform="translate(-2650.003 -428.149)"/>
                        <path id="패스_2978" fill="none" stroke="#ff7976" stroke-linecap="round" stroke-linejoin="round" stroke-width="1.09px" d="M2766.035 611.527c-6.615 15.768-18.128 24.743-24.418 28.949m-1.587 44.859a21.069 21.069 0 0 0 2.341-9.912c-.031-4.875-2.919-11.317-2.575-16.485.667-10.057 1.488-18.84 1.751-18.416.275.444 1.725 2.69 1.922 3.17.383.938.763 1.878 1.117 2.826a32.85 32.85 0 0 1 2.335 9.738c.225 4.611-1.628 9-1.6 13.6.04 5.621 1.687 11.07 1.5 16.721m-5.13-45.857a10.258 10.258 0 0 1 3.575 1.745c2.146 1.649 4.412 3.383 5.646 5.795.393.769.994 2.164.16 2.883-1.029.887-2.739-.715-3.364-1.384a25.751 25.751 0 0 1-3.866-5.853 13.866 13.866 0 0 0-2.209-2.88c-.292-.281.823.442.87.836q.134 1.11.2 2.228c.137 2.407.261 5.15-.832 7.39-.276.567-1.043 1.816-1.86 1.654-1.156-.229-1.078-2.338-1.063-3.129a18.781 18.781 0 0 1 2.747-9.285z" transform="translate(-2654.392 -441.002)"/>
                        <path id="패스_2979" fill="#f3d889" fill-rule="evenodd" d="M2589.56 522.612c1.645-.464 13.869 57.006 15.849 57.206 2.683.27 7.342-56.829 9.468-57.845 1.571-.751 15.478 3.507 17.1 4.69 6.3 4.588 8.555 9.458 10.525 17.105 3.119 12.107 3.092 25.05 4.344 37.43 1.1 10.848 3.451 21.575 4.669 32.425.57 5.076 4.6 33.739 3.643 37.11-.338 1.192-7.678 2.078-7.678 2.078s4.374 27.815 2.092 29.425c-8.176 5.764-24.213 2.945-33.344 3.494-5.655.34-11.3 1.345-16.951 1.846-4.815.427-22.583 5.15-25.623 4.223-.933-.284-.736-1.585-.667-2.284.935-9.328 3.437-30.112 3.272-30.056-1.526.515-5.682 1.167-7.306.838-.843-.17-4.043-46.718-4.279-50.6q-1.278-21-1.269-42.029c0-11.655-.73-32.554 11.169-40.117 3.8-2.412 10.7-3.733 14.982-4.94zm-10.081 123.209c-.214 0-1.019-61.848-.972-61.724a171.148 171.148 0 0 1 5.938 29.952c.372 3.69-4.643 31.773-4.966 31.773zm55.581-63.436c-.74.516-3.837 26.429-2.305 33.564 1.055 4.917 8.449 19.688 8.449 19.688s.425-4.754-1.469-18.607c-1.48-10.824-3.193-24.05-3.572-28.114-.823-8.834-1.1-6.532-1.1-6.532z" transform="translate(-2603.884 -415.209)"/>
                        <path id="패스_2980" fill="none" stroke="#ea9a43" stroke-linecap="round" stroke-linejoin="round" stroke-width="1.09px" d="M2662.31 644.8a1.148 1.148 0 1 0 .957 1.132 1.056 1.056 0 0 0-.957-1.132zm-12.653-89.12c-.134-.128-.123.343-.179.516l-.3.959c-.263.9-.5 1.8-.719 2.712-.667 2.838-1.818 7.895-2.286 10.77m.143-17.745c-.022.009.039.831.039.87.009 1 .011 1.994-.005 2.991-.066 3.846-.472 17.993-.858 24.027m-18.222-57.4c-.056-.268.081.541.117.812.085.627.177 1.254.269 1.879q.391 2.642.759 5.287c.731 5.224 1.05 10.5 1.55 15.745.318 3.345-1.4 3.229-4.526 4.006-.473.118-2.727.417-2.87.988-.155.621.689 1.821.91 2.382.672 1.706 1.889 4.05 1.713 5.918-.221 2.346-1.753 4.91-2.64 7.074a124.079 124.079 0 0 1-6.78 12.911m-16.942-56.314c-.206-.182-.041.536-.034.8.013.534.041 1.069.067 1.6.086 1.747.246 3.485.4 5.227.451 5.145.429 10.23.595 15.378.042 1.268-.277 4.031 1.14 4.769a15.867 15.867 0 0 0 4.178 1.344 6.3 6.3 0 0 1 1.415.222c.18 1.039-3.559 3.395-2.971 6 .487 2.16 1.94 4.25 2.971 6.188 1.96 3.685 6.526 10.281 8.558 14.936.845 1.936 1.4 9.576 1.678 11.933.942 7.868 1.556 15.8 2.25 23.693 2.038 23.162 3.15 46.315 3.15 69.559m42.052-42.582c-.089.084-4.123-.1-4.6.182a18.627 18.627 0 0 0 .308 5.23c.123.221 3.551.49 4.676.67m-8 3.433c-.686 0-4.561.309-4.574.293-.887-.995-.9-14.027-.9-16.423" transform="translate(-2614.049 -415.624)"/>
                        <path id="패스_2981" d="M2640.683 647.4c-.051.007 1.219 5.683.655 6.463-.384.531-16.4 2.9-23.162 3.5-4.165.372-25.828 1.559-26.235.021-.108-.408-.461-4.962.515-5.73.326-.256 18.456-.025 24.395-.377 6.619-.393 23.832-3.881 23.832-3.881z" class="cls-39" transform="translate(-2612.053 -451.323)"/>
                        <path id="패스_2982" d="M2607.9 709.3c.16.68 4.968.07 4.964-.3-.032-2.687.163-9 .051-11.68-.378-9.042-.813-18.345-2.374-27.28-.78-4.461-2.454-12.187-8.927-11.012-3.964.719-4.859 6.347-5.2 9.351-1.1 9.849-1.448 19.81-2.456 29.685-.158 1.548-1.627 11.174-.345 11.953.707.431 3.836.112 4.248-.944.354-.908 1.814-28.4 1.814-38.209 0-2.641-.911-10.033 3.225-9.978 4.383.058 5.149 9.628 5.458 12.528.935 8.755-.7 34.869-.462 35.891z" class="cls-39" transform="translate(-2612.427 -454.634)"/>
                    </g>
                </g>
                <path id="패스_2983" fill="none" stroke="#c8bfc4" stroke-linecap="round" stroke-linejoin="round" stroke-width="0.835px" d="M2764.448 833.484a7.9 7.9 0 0 0-7.9-7.9h-91.528a7.9 7.9 0 0 0-7.9 7.9v1.093a7.9 7.9 0 0 0 7.9 7.9h91.525a7.9 7.9 0 0 0 7.9-7.9v-1.093z" transform="translate(-2630.85 -502.593)"/>
                <path id="패스_2984" fill="#7b95ba" fill-rule="evenodd" d="M2832.146 829.918l-18.534 11.189 4.1-8.8-4.1-5.807 18.534 3.423z" transform="translate(-2675.878 -502.856)"/>
                <path id="패스_2985" fill="#ebe9ea" fill-rule="evenodd" d="M2819.922 833.8c3.14-.459 9.419-1.38 12.686-1.947a.3.3 0 0 0-.1-.586c-3.262.567-9.534 1.486-12.671 1.945a.3.3 0 1 0 .086.588z" transform="translate(-2677.596 -504.226)"/>
                <path id="패스_2986" fill="#b25150" fill-rule="evenodd" d="M2755.556 400.339a4.221 4.221 0 0 0-4.221-4.222h-23.425a4.221 4.221 0 0 0-4.221 4.222v3.461a4.222 4.222 0 0 0 4.221 4.222h23.424a4.221 4.221 0 0 0 4.221-4.222v-3.463z" transform="translate(-2650.004 -379.022)"/>
                <path id="패스_2987" d="M2732.612 400.157v5.23h2.977a.787.787 0 0 1 .546.172.554.554 0 0 1 .19.431.544.544 0 0 1-.188.43.812.812 0 0 1-.548.164h-3.546a.948.948 0 0 1-.69-.211.936.936 0 0 1-.21-.681v-5.534a.958.958 0 0 1 .2-.662.676.676 0 0 1 .526-.221.7.7 0 0 1 .538.218.942.942 0 0 1 .2.665z" class="cls-44" transform="translate(-2652.149 -379.93)"/>
                <path id="패스_2988" d="M2739.855 405.818v-5.662a.947.947 0 0 1 .2-.662.678.678 0 0 1 .524-.221.7.7 0 0 1 .537.218.939.939 0 0 1 .205.665v5.662a.95.95 0 0 1-.205.667.7.7 0 0 1-.537.22.677.677 0 0 1-.521-.223.95.95 0 0 1-.205-.664z" class="cls-44" transform="translate(-2654.656 -379.93)"/>
                <path id="패스_2989" d="M2745.1 400.23l1.641 4.818 1.647-4.853c.086-.255.15-.432.193-.532a.711.711 0 0 1 .212-.27.628.628 0 0 1 .405-.12.676.676 0 0 1 .349.093.69.69 0 0 1 .252.247.6.6 0 0 1 .092.311 1.039 1.039 0 0 1-.03.233 2.2 2.2 0 0 1-.074.245q-.045.12-.089.248l-1.756 4.7q-.094.269-.187.512a2.149 2.149 0 0 1-.218.427.969.969 0 0 1-.328.3 1 1 0 0 1-.5.118 1.01 1.01 0 0 1-.5-.115.941.941 0 0 1-.331-.3 2.255 2.255 0 0 1-.22-.429q-.094-.24-.187-.51l-1.726-4.657c-.03-.085-.061-.169-.092-.25a1.924 1.924 0 0 1-.079-.265 1.113 1.113 0 0 1-.032-.24.634.634 0 0 1 .2-.456.684.684 0 0 1 .509-.206.6.6 0 0 1 .531.228 3.014 3.014 0 0 1 .319.728z" class="cls-44" transform="translate(-2655.714 -379.93)"/>
                <path id="패스_2990" d="M2758.778 400.569h-3.308v1.764h3.046a.733.733 0 0 1 .5.15.506.506 0 0 1 .166.395.525.525 0 0 1-.164.4.71.71 0 0 1-.5.155h-3.046v2.044h3.422a.753.753 0 0 1 .521.159.545.545 0 0 1 .176.424.534.534 0 0 1-.176.415.753.753 0 0 1-.521.159h-3.99a.949.949 0 0 1-.69-.211.938.938 0 0 1-.21-.681v-5.4a1.2 1.2 0 0 1 .094-.513.582.582 0 0 1 .294-.289 1.246 1.246 0 0 1 .512-.09h3.876a.757.757 0 0 1 .522.155.519.519 0 0 1 .17.4.525.525 0 0 1-.17.41.756.756 0 0 1-.522.155z" class="cls-44" transform="translate(-2658.726 -379.98)"/>
            </g>
            <path id="패스_2991" fill="none" stroke="#9a8993" stroke-linecap="round" stroke-linejoin="round" stroke-width="1.65px" d="M3117.893 809.13l-20-59.529-17.062 62.158" transform="translate(-2340.029 1799.95)"/>
            <path id="패스_2992" fill="#c8bec4" fill-rule="evenodd" d="M3086.461 687.1a78.451 78.451 0 0 0-25.43 5.658c-1.362.531-.58 3.227-.347 4.372.5 2.455 1.051 8.533 1.438 11.007a159.286 159.286 0 0 0 3.666 17.439c4.391 17.565 10.518 15.116 30.791 15.316 4.319.042 13.253-.818 16.427-4.751 3.377-4.185 5.06-15.394 5.336-20.632.143-2.709 1.665-22.864-.071-24.605-1.237-1.241-11.937-5.171-31.809-3.8z" transform="translate(-2334.108 1818.016)"/>
            <g id="그룹_2903" transform="translate(726.14 2504.831)">
                <g id="그룹_2902" clip-path="url(#clip-path-12)">
                    <path id="패스_2993" fill="#9a5f5a" fill-rule="evenodd" d="M3062.74 695.252c-2.662-.952 10.186-3.755 13.248-4.307 11.34-2.041 21.208-1.831 31.663-.982 1.025.084 10.24 1.145 10.013 2.816-.217 1.6-17.05 3.488-25.708 3.878-9.153.413-26.555-.452-29.216-1.4z" transform="translate(-3060.862 -687.545)"/>
                </g>
            </g>
            <path id="패스_2994" d="M3116.486 663.541l-.045.047c-.463.593-1.4 2.24-2.326 1.883-1.2-.462-1.673-2.281-2.685-3.058-.862-.662-1.789-.293-2.611-.816-3.079-1.959-1.883-7.344-1.713-10.175.669-11.1 5.228-20.222 7.64-30.768 1.6-6.981 1.137-14.012 1.987-21.074.571-4.741 2.8-12.492 8.006-14.249 7.774-2.623 3.038 18.293 2.843 20.392-.209 2.247-.45 4.494-.848 6.717a56.943 56.943 0 0 1-1.954 7.507c-.975 3.006-2.037 5.984-3.026 8.986-3.462 10.5-5.269 34.606-5.269 34.606z" class="cls-49" transform="translate(-2347.484 1847.28)"/>
            <g id="그룹_2905" transform="translate(759.252 2432.387)">
                <g id="그룹_2904" clip-path="url(#clip-path-13)">
                    <path id="패스_2995" d="M3116.382 594.541c2.975-3.941 4.45-.3 7.318.189.9.151 1.7-.508 2.555-.643 1.172-.185 2.269.463 3.471.329m-15.977 10.284c3.7-5.173 5.594-.67 8.549-.205 1.281.2 2.559-.972 3.848-1.09 1.407-.127 2.681.442 4.115.164m-15.938 9.679c2.35-3.524 4.521-.849 6.949-.972 1.026-.052 1.939-.817 2.962-.988 1.534-.255 2.775.729 4.287.031m-14.608 8.3c-.395-.129.743-.381 1.145-.483a5.6 5.6 0 0 1 3.213.149c.8.288 1.465.913 2.288 1.129 1.477.386 4.674-.568 6.129-.995m-15.024 8.014c3.394-1.485 3.393.144 7.069.6 1.19.147 2.148-.859 3.244-1.136 1.041-.263 2.1.149 3.159-.023m-14.956 7.138c2.608-1.449 5.136.856 7.6.856 1.151 0 2.131-.839 3.229-1.09a12.436 12.436 0 0 1 2.508.078m-15.386 9.378c.143-1 2.247-.86 3-.695a30.75 30.75 0 0 1 3.644 1.551c1.884.665 5.419-.278 7.25-.956m-15.035 7.5c.552.449 1.4-.482 2.1-.358 5.315.932 5.226 2.405 10.455 1.254m-14.12 7.5a7.088 7.088 0 0 1 .75-.475c1.224-.59 2.414.068 3.457.745a4.354 4.354 0 0 0 1.786.9c1.05.1 1.842-.942 2.868-1.051 1.173-.124 2.159.7 3.371.455" class="cls-51" transform="translate(-3106.362 -587.299)"/>
                </g>
            </g>
            <path id="패스_2996" d="M3101.241 659.959c-2.678 2.366-5.063 1.734-5.309.061-.547-3.73-1.132-12.624-1.349-15.64-.611-8.46-3.792-15.647-5.621-23.762a69 69 0 0 1 .363-29.5c.8-3.586 3.8-19.057 8.715-19.057 6.96 0 7.743 15.979 8.246 20.678.735 6.861 1.771 14.317.672 21.2-1.321 8.27-4.825 16-5.955 24.344-.934 6.9.239 21.679.239 21.679z" class="cls-49" transform="translate(-2341.959 1851.034)"/>
            <g id="그룹_2907" transform="translate(745.576 2423.095)">
                <g id="그룹_2906" clip-path="url(#clip-path-14)">
                    <path id="패스_2997" d="M3094.448 654.868c.283-2.337 1.466-1.207 3.075-1.373.929-.1 1.893-.859 2.935-1.024m-7.762-3.4c.348-.488.626-1.738 1.321-2.391 1.423-1.336 2.031 1.185 3.283.975 1.026-.17 1.352-1.674 3.226-1.969m-9.11-6.163c.238.236.191-.652.368-.937a4.321 4.321 0 0 1 2.117-1.882c1.783-.594 2.487 1.385 4.017 1.506 1.046.084 1.841-1.563 3.1-1.728m-12.553-8.278c-.833-.36 2.38-2.444 2.838-2.519 1.187-.192 2.168.577 3.322.628 1.248.055 2.2-1.088 3.4-1.313 3.132-.589 3.642 1.246 6.953-.791m-18.989-7.737c.059.189.146-.374.263-.534a7.373 7.373 0 0 1 .812-.934 6.944 6.944 0 0 1 4.375-2.026c1.744-.082 3.392 1.056 5.128.608 1.365-.353 2.494-1.941 3.863-2.029 2.464-.156 3.355 1.926 5.987.222m-20.8-8.49c.869-.62 1.277-1.8 2.468-2.336a5.327 5.327 0 0 1 .5-.184c2.217-.739 4.22.495 6.4.068 1.8-.353 3.2-2.026 5.108-1.95 1.028.041 1.766 1.023 2.771 1.159q.086.012.174.019a.669.669 0 0 0 .377-.039c.846-.25 1.487-1 2.3-1.236.75-.219 1.444.39 2.193-.038m-20.494-7.626c-.075-.048-.025-.1.027-.187.912-1.531 3.186-2.148 4.832-2.106a5.194 5.194 0 0 1 1.507.3c3.621 1.22 3.569-.553 7.049-.657 1.006-.029 2.231 1.261 3.139 1.034.957-.239 1.531-1.4 2.6-1.67m-17.737-7.093c.124.1.215-.236.336-.338 1.155-.975 2.849-2.453 4.46-2.313 1.194.1 2.024 1.026 3.157 1.255 1.528.311 2.588-.693 4.018-.83 2.326-.224 3.288.962 5.263-.618" class="cls-51" transform="translate(-3086.985 -573.741)"/>
                </g>
            </g>
            <path id="패스_2998" d="M3071.542 660.261c.012-.016-.053.058-.057.062-.492.6-5.465 3.642-6.53 1.715-3.1-5.617-.88-13.727-3.547-19.49-1.937-4.187-5.5-7.293-8.076-11.083a104.92 104.92 0 0 1-14.762-31.392c-1.345-5-4.353-19.108 1.71-22.217 6.165-3.162 10.067 13.188 11.022 16.56 2.385 8.414 4.967 16.849 7.93 25.076 2.882 8 6.617 15.984 8.768 24.214 1.108 4.237 3.542 16.555 3.542 16.555z" class="cls-49" transform="translate(-2327.312 1849.482)"/>
            <g id="그룹_2909" transform="translate(709.314 2426.936)">
                <g id="그룹_2908" clip-path="url(#clip-path-15)">
                    <path id="패스_2999" d="M3033.921 591.643c-.007.044.285-1.031.418-1.312a3.233 3.233 0 0 1 2.233-2.055c.917-.15 2.018.186 2.888-.179 1.079-.452 1.515-1.776 2.552-2.319 1.471-.771 3.056-.052 4.242-1.46m-9.924 14.282c-.5-.4 1.868-2.6 2.543-2.856 1.142-.432 2.371.17 3.5-.231.915-.327 1.417-1.37 2.18-1.93 1.675-1.226 3.495-.808 5.016-2.524m-11.53 17.212c.781-3.71 4.027-2.89 5.912-4.048 1.057-.65 1.531-1.944 2.664-2.5 1.894-.927 3.6-.675 5.307-2.194m-10.957 16.516c1.762-4.05 3.4-2.375 6.093-3.967 1.056-.625 1.71-1.735 2.834-2.292 2.306-1.143 3.52-1.147 5.6-2.948m-9.564 17.237a6.964 6.964 0 0 1 .4-1.377 4 4 0 0 1 2.762-1.447c2.184-.241 2.482-2.05 4.236-3.04 1.652-.933 3.281-1.582 4.884-2.65m-8.229 15.324c.335-.371.5-1.582 1-2.147.979-1.109 2.286-1.312 3.4-2.161.611-.466.99-1.164 1.579-1.652 1.058-.877 2.8-.457 3.582-1.625m-5.473 14.614c-.282-.562 1.588-2.308 1.93-2.593 1.217-1.012 2.564-.83 3.86-1.526 1.119-.6 2.023-2.026 3.1-2.815m-4.754 11.849c-.263-.112 1.481-1.586 1.588-1.646 1.914-1.084 4.064-1.3 5.816-2.709m-5.533 13.384c.238.06.118-.487.255-.691a4.026 4.026 0 0 1 1.7-1.275c1.259-.588 2.577-.048 3.787-.521.7-.275 1.5-1.527 2.834-2.168m-7.315 12.4c.06.091.2-.284.221-.318a3.2 3.2 0 0 1 1.55-1.39c.968-.378 1.914.435 2.8.125.544-.189.613-.887 1.051-1.209.537-.4 2.623.12 3.235-.083" class="cls-51" transform="translate(-3035.847 -579.429)"/>
                </g>
            </g>
            <path id="패스_3000" d="M3086.485 656.078s-3.627 2.6-4.627 1.187c-.987-1.395-.428-5.354-.813-7.018a119.747 119.747 0 0 0-4.362-14.087c-1.419-3.864-3.953-8.505-5-12.5-1.939-7.385-.988-14.281-1.69-21.821-.527-5.648-5.583-9.116-6.226-17.972-.609-8.412 4.745-20.448 7.977-19.573 3.571.967 4.343 14.792 4.515 17.623.283 4.676 2.1 10.677 2.51 15.344.75 8.452-1.07 16.522.417 24.859.98 5.492 2.826 11.834 3.893 17.31 1.216 6.238 2.574 11.3 3.409 16.649z" class="cls-49" transform="translate(-2335.105 1853.282)"/>
            <g id="그룹_2911" transform="translate(728.61 2417.529)">
                <g id="그룹_2910" clip-path="url(#clip-path-16)">
                    <path id="패스_3001" d="M3078.531 656.968c-.417-2.118 3.871-1.839 4.6-2.025a22.992 22.992 0 0 0 2.531-1.385m-7.017-3.341a5.5 5.5 0 0 1 .874-1.471 4.455 4.455 0 0 1 .951-.62c1.975-.959 2.611.253 4.619-1.469m-9.332-4.992c.251-.259.594-1.237 1.135-1.639 1.254-.934 2.171-.206 3.482-.476a9.694 9.694 0 0 0 2.392-1.255m-9.281-4.566c-.037.264.224-.5.423-.68a4.061 4.061 0 0 1 1.44-.71c1.83-.61 3.412-.981 4.881-2.3m-10.938-6.112c-.227-.019.291-.352.43-.533a3.593 3.593 0 0 1 2.821-1.483c.95.076 2.026.572 2.972.3 1.162-.33 1.4-1.656 2.379-2.144.734-.367 1.9.577 2.44-.145m-11.01-6.351c.3.12.363-.545.628-.722a6.594 6.594 0 0 1 2.985-1.158c1.168-.108 2.469.657 3.536.469.676-.119.879-1.389 1.524-1.723s1.665.436 2.1-.041m-11.8-6.154c-.212-.061 2.045-1.848 2.421-2.023a6.113 6.113 0 0 1 .9-.344c.86-.229 1.778.03 2.62-.3 1.429-.555 2.761-1.859 4.143-2.6m-13.034-.975c.046.063.163-.244.2-.3a5.018 5.018 0 0 1 2.922-2.019c3.173-.971 6.124-2.09 9.244-3.281m-15.646-3.383c.119-.006.064-.229.109-.339.378-.939 1.16-2.331 2.26-2.51s1.809.992 2.855.959c1.2-.039 2.166-1.747 3.184-2.289 2.146-1.143 2.973.64 5.764-1.489m-13.458-4.65c-.426-.788 2.071-1.893 2.572-2.051 1.6-.505 2.958.272 4.488.048.923-.135 1.421-1 2.227-1.372a11.565 11.565 0 0 1 2.454-.338" class="cls-51" transform="translate(-3063.241 -567.336)"/>
                </g>
            </g>
            <path id="패스_3002" fill="none" stroke="#6f5e68" stroke-linecap="round" stroke-linejoin="round" stroke-width="1.65px" d="M3078.777 812.618l-5.357-58.011 24.939 62.641 20.439-64.6-2.849 57.292" transform="translate(-2337.898 1799.072)"/>
            <path id="패스_3003" d="M2940.457 800.359c-.537-1.485-11.009-15.327-10.478-24.949.364-6.591 3.729-13.864 3.615-22.331-.105-7.826-12.112-19.708-12.483-27.878-.567-12.489 5.215-20.314 4.432-30.028-.911-11.324-10.2-22.434-10.682-23.627-2.8-6.952 2.983-14.088 2.944-17.151-.076-6.026-6.23-13.009-9.61-18.418-5.341-8.547-18.541-13.51-29.053-11.886a36.307 36.307 0 0 0-15.337 6.457 37.932 37.932 0 0 0-8.272 8.144c-2.623 3.466-9.891 8.1-12.224 14.465-1.979 5.4 1 12.529-1.4 16.329-.774 1.22-14.678 3.784-17.548 12.7-2.167 6.727-2.734 20.309-6.985 24.657-5.636 5.764-14.131 8.4-17.323 18.6-3.924 12.542 2.807 19.454-1.523 29.159s-20.636 20.456-20.636 20.456 56.421 16.946 83.516 21.164c26.1 4.062 79.05 4.142 79.05 4.142z" class="cls-56" transform="translate(-2252.865 1836.151)"/>
            <path id="패스_3004" fill="none" stroke="#f6a783" stroke-linecap="round" stroke-linejoin="round" stroke-width="1.271px" d="M2909.587 670.653c-.744 8.9 4.408 16.906 4.727 25.6.349 9.5-7.559 16.792-7.685 26.24-.165 12.394 7.168 24.388 7.943 36.722.8 12.661-2.683 26.828 1.3 39.693M2902.8 679.552c4.458 16.106-5.451 29.723-6.252 45.351-.625 12.2 4.362 23.258 5.622 35.214.609 5.776-.863 11.382-.985 17.118-.141 6.658.9 14.788 1.234 21.47m-8.435-171.629c-7.149.18-13.3 1.385-18.96 4.672-7.96 4.623-13.395 13.794-15.463 22.258-1.239 5.072-.464 10.531-2.913 15.322-4.119 8.065-14.742 10.905-19.445 18.5-5.182 8.365-3.756 18.351-7.421 27.06-3.457 8.215-13.4 11.983-16.169 20.709-4.914 15.5 3.289 31.542-14.174 43.445m68.279-119.291c-1.342 5.4-.446 11.821-3.455 16.74-2.464 4.027-6.566 6.972-10.066 10.248a43.681 43.681 0 0 0-11.7 17.516c-3.147 9.317-1.766 19.408-4.953 28.705-3.109 9.07-10.188 16.414-13.119 25.563-2.255 7.04-1.381 19.46-6.367 25.681m54.526-108.505c-1.751 8.534-3.636 17.3-7.065 25.4-4.417 10.443-10.266 20.209-13.4 31.118-3.8 13.226-1.468 26.531-4.891 39.14-1.825 6.72-6.839 11.42-10.126 17.424m76.727-147.441c5.8 7.651 6.756 16.072 3.333 24.355-1.472 3.561-3.186 7.084-2.633 11.016 1.051 7.479 6.963 13.5 8.437 20.757.988 4.861-1.7 8.862-2.864 13.4a34.907 34.907 0 0 0-.628 11.022 48.483 48.483 0 0 0 3.281 15.047c1.595 3.951 4.325 7.5 4.756 11.734.8 7.895-3.345 15.1-3.387 22.95-.055 10.195 4.979 18.6 9.916 27.6" transform="translate(-2259.065 1835.205)"/>
            <path id="패스_3005" d="M2966.141 784.6c2.009-6.183 11.879-7.255 20.424-1.764 11.015 7.079 18.62 11.049 29.947 18.992 6.132 4.3 18.327 9.341 14.8 16.964-3.7 7.995-14.259.481-23.6-3.63-8.009-3.522-16.859-9.022-29.025-15.629-7.792-4.232-14.777-8.054-12.543-14.933z" class="cls-12" transform="translate(-2306.909 1791.411)"/>
            <path id="패스_3006" d="M3073.746 845.618a31.8 31.8 0 0 0-18.9-17.364m15.628 23.087c-3.3-7.744-9.951-16.582-16.192-20.589m10.138 21.493c-2.027-7.519-7.006-13.956-11.422-19.783m4.54 18.28c-.705-5.239-2.689-10.916-7.668-14.578m20.177-7.155a65.221 65.221 0 0 0-14.366-3.876" class="cls-58" transform="translate(-2331.123 1778.218)"/>
            <path id="패스_3007" d="M3053.58 824.71a6.172 6.172 0 1 0 4.2 7.65 6.175 6.175 0 0 0-4.2-7.65z" class="cls-59" transform="translate(-2329.918 1778.409)"/>
            <path id="패스_3008" d="M2942.117 702.306c9.384-6.378 14.652 2.208 18.386 11.654 4.731 11.97 7.977 21.477 10.537 33.151 1.6 7.316 6.359 20.224-4.358 23.828-9.264 3.115-12.575-12.1-15.521-19.055-3.411-8.057-6.13-18.463-10.244-31.684-2.634-8.466-1.956-15.75 1.2-17.894z" class="cls-12" transform="translate(-2299.305 1814.192)"/>
            <path id="패스_3009" d="M2643.445 891.661c6.094 3.3 8.643 11.175 5.68 18.185-3.137 7.421-11.272 11.084-18.155 8.175-5.908-2.5-8.986-9.03-7.756-15.525l-.187-.38c-2.782-5.587-4.093-12.124-5.062-18.384a24.234 24.234 0 0 1-.219-8.506 14.752 14.752 0 0 1 6.564-9.534c1.358-.9 3.088-1.875 4.7-1.447 4.044 1.075 3.965 6.283 4.639 9.819 1.361 7.139 6.73 14.1 9.8 17.6z" class="cls-12" transform="translate(-2206.701 1766.994)"/>
            <path id="패스_3010" d="M2902.155 881.21a11.159 11.159 0 1 0-9.178-15.6c-.1.054-.2.108-.3.16-4.408 2.338-8.22 5.913-11.673 9.459a17.919 17.919 0 0 0-3.932 5.294 10.625 10.625 0 0 0 .3 8.873c.537 1.159 1.3 2.521 2.6 2.945 3.276 1.065 5.536-2.268 7.574-4.217 4.116-3.934 10.92-6.022 14.6-6.916z" class="cls-12" transform="translate(-2281.164 1768.49)"/>
            <path id="패스_3011" d="M2925.167 848.56l4.513-31.487s43.725 8.93 67.3 18.228c7.252 2.86 13.037 5.691 16.319 8.433 3.907 3.265 6.379 6.5 7.336 9.584 1.689 5.441 1.881 10.913-2.8 15.668a14.484 14.484 0 0 1-9.8 5.278 76.217 76.217 0 0 1-10.08.176c-22.288-.855-79.288-5.664-79.288-5.664l.455-19.963 6.047-.252z" class="cls-12" transform="translate(-2293.369 1780.536)"/>
            <path id="패스_3012" d="M2799.353 799.495s-17.85 11.443-37.765 23.194c-8.563 5.052-17.43 10.176-25.439 14.436-16.148 8.589-32.395 16.411-46.879 22.959-27.577 12.468-48.326 20.379-48.326 20.379l5.974 19.054s22.109-5.569 51.727-14.971c15.7-4.984 33.366-11.069 51.028-17.951 8.884-3.462 18.772-7.715 28.334-11.936 21.8-9.626 41.451-19.188 41.451-19.188l-20.1-35.976z" class="cls-12" transform="translate(-2213.461 1785.594)"/>
            <path id="패스_3013" d="M2863.082 804.763c.2.088.172 12.058 28.4 7.043 26.014-4.623 58.49 8.327 58.829 12.069.56 6.172-46.97 30.2-92.967 29.6-20.486-.271-59.8 22.637-86.514 20.29-29.04-2.551-55.142-7.7-65.6-14.98-7.781-5.415 81.867-39.923 86.53-48.117 6.165-10.836 7.988-12.086 7.988-12.086l63.338 6.183z" class="cls-60" transform="translate(-2231.819 1785.857)"/>
            <path id="패스_3014" d="M2899.359 687.2c19.191 3.8 24.092 8.794 26.542 16.132 2.417 7.24-3.248 14.109-3.394 23.367-.1 6.2 2.211 19.854-1.088 25.357-4.6 7.665-15.81 9.776-20.236 17.461-4.757 8.26-2.974 16.433-12.537 16.841-7.421.316-57.075-18.26-56.317-22.547.877-4.957 13.961-11.4 14.47-20.523.6-10.818-4.024-23.6 3.717-37.131 10.415-18.209 36.337-21.434 48.844-18.957z" class="cls-60" transform="translate(-2268.525 1818.115)"/>
            <path id="패스_3015" d="M2937.186 708.132c-.925 10.4-10.865 32.15-16.249 30.942-5.821-1.306-11.016-30.155-8.875-37.826l25.125 6.883z" class="cls-12" transform="translate(-2291.328 1813.862)"/>
            <g id="그룹_2913" transform="translate(620.241 2515.111)">
                <g id="그룹_2912" clip-path="url(#clip-path-17)">
                    <path id="패스_3016" d="M2901.629 724.656s6.794-.746 8.3-.442a33.667 33.667 0 0 0 21.314-3.137c4.2-2.155 12.651-10.02 3.272-12.05s-21.136 3.251-29.615 6.761c-5.726 2.37-14.284 7.032-3.273 8.867z" class="cls-22" transform="translate(-2907.176 -703.357)"/>
                </g>
            </g>
            <path id="패스_3017" fill="none" stroke="#ea9a43" stroke-linecap="round" stroke-linejoin="round" stroke-width="1.235px" d="M2897.588 805.277c-20.314 4.183-50.641 1.96-62.45-5.086m63.443 7.381c-27.617 5.1-54.132-.829-65.309-8.578m.919.65c-.235.032.233.414.349.62.2.359.376.728.551 1.1.585 1.258 1.118 2.539 1.613 3.834a28.884 28.884 0 0 1 2.296 10.339c-.011 1.174-.221 3.691-1.85 3.829-1.486.126-2.517-2.063-2.941-3.145-1.426-3.635-1.506-7.83-1.145-11.668a29.343 29.343 0 0 1 .609-3.922c.09-.387.181-.776.3-1.154a1.393 1.393 0 0 0-.146.511c.061 1.161-.479 1.9-.8 2.982a38.867 38.867 0 0 1-3.39 8.719c-.578.981-2.527 4.008-4.088 2.951-1.43-.968-.065-4.021.409-5.122 1.59-3.688 8.236-9.875 8.236-9.875z" transform="translate(-2266.395 1785.738)"/>
            <path id="패스_3018" d="M2899.812 655.631c.979-7.109 6.1-14.682 11.445-18.236 8.376-5.565 20.012-2.732 26.154 5.02 7.547 9.527 6.214 24.763 4.509 36.077-1.52 10.087-8.008 17.754-18.233 19.547a17.587 17.587 0 0 1-7.123.126c-4.814-1.163-9.385-4.868-12.485-8.608-7.348-8.865-5.463-25.231-4.267-33.926z" class="cls-12" transform="translate(-2287.619 1833.072)"/>
            <path id="패스_3019" d="M2951.158 675.049a2.15 2.15 0 1 0 2.1 2.2 2.151 2.151 0 0 0-2.1-2.2z" class="cls-19" transform="translate(-2302.087 1821.401)"/>
            <path id="패스_3020" d="M2925.9 674.476a2.15 2.15 0 1 0 2.1 2.2 2.152 2.152 0 0 0-2.1-2.2z" class="cls-19" transform="translate(-2294.819 1821.566)"/>
            <path id="패스_3021" fill="none" stroke="#403642" stroke-linecap="round" stroke-linejoin="round" stroke-width="2.161px" d="M2947.4 666.477a21.017 21.017 0 0 0-4.095-.864 8.212 8.212 0 0 0-3.2.346c-3.91 1.407-3.465 7.369-3.438 10.627.007.939.083 1.876.149 2.812a9.09 9.09 0 0 1-.235 4.119c-.772 1.824-2.431 2.66-4.2 1.766m-2.938-20a15.81 15.81 0 0 0-8.515-.191" transform="translate(-2294.021 1824.406)"/>
            <path id="패스_3022" d="M2921.933 694.95c1.9.781 3.637 2.905 7.71 3.742 1.994.409 5.324.189 6.193 2.57s-1.6 4.7-3.582 5.584a10.692 10.692 0 0 1-11.886-2.335c-2.368-2.328-3.632-4.753-3.264-7.613.346-2.689 2.608-2.862 4.829-1.949z" class="cls-5" transform="translate(-2292.902 1815.818)"/>
            <path id="패스_3023" d="M2900.011 672.342a14.232 14.232 0 0 0-2.158-4.591 7.728 7.728 0 0 0-2.563-2.107c-3.033-1.595-5.72.177-6.778 3.258a9.5 9.5 0 0 0 1.094 8.584c1.8 2.5 5.754 3.45 8.135 1.22l2.271-6.363z" class="cls-12" transform="translate(-2284.535 1824.279)"/>
            <path id="패스_3024" d="M2927.028 635.12c-8.95 2.649-11.16 8.911-17.166 15.206-3.572 3.742-8.626 6.919-13.994 5.437.507-5.772 1.6-11.668 5.164-16.411 4.687-6.239 18.76-6.579 26-4.232" class="cls-56" transform="translate(-2286.811 1833.276)"/>
            <path id="패스_3025" fill="none" stroke="#f6a783" stroke-linecap="round" stroke-linejoin="round" stroke-width="1.354px" d="M2922.742 633.76c-9.6.359-10.344 9.686-16.362 14.444-3.64 2.878-8.618 2.982-12.1 6.042m19.12-19.766c-4.065 2.217-6.729 5.636-10.35 8.431-2.8 2.164-6.351 2.944-8.936 5.478-2.026 1.988-2.927 4.517-3.9 7.106" transform="translate(-2285.186 1833.281)"/>
            <path id="패스_3026" d="M2870.659 718.457c10.431-4.463 13.959 4.972 15.816 14.958 2.353 12.654 3.719 22.606 4 34.554.175 7.487 4.294 30.842-6.915 32.328-9.688 1.284-11.951-24.056-13.51-31.448-1.806-8.562-2.484-19.3-3.99-33.058-.965-8.814 1.094-15.834 4.6-17.334z" class="cls-12" transform="translate(-2278.165 1809.238)"/>
            <path id="패스_3027" fill="none" stroke="#212d43" stroke-linecap="round" stroke-linejoin="round" stroke-width="4.204px" d="M3048.279 924.775a7.118 7.118 0 0 1-4.247-4.425l-26.932-81.484a15.609 15.609 0 0 0-14.819-10.709h-171.9a15.608 15.608 0 0 0-14.448 9.7l-31.583 77.265a8.895 8.895 0 0 0 5.085 11.684l49.773 18.831a10.7 10.7 0 0 0 13.686-5.938c7.521-18.274 23.8-57.821 31.335-76.134a15.6 15.6 0 0 1 14.432-9.667h171.924a15.608 15.608 0 0 1 14.819 10.708l24.03 72.691a6.045 6.045 0 0 1-7.872 7.556l-53.282-20.08z" transform="translate(-2254.533 1777.348)"/>
            <path id="패스_3028" fill="#b1a3ab" fill-rule="evenodd" d="M2832.087 829.08a2.231 2.231 0 0 1 .694-4.35l190.888-.258a2.238 2.238 0 0 1 .7.112l68.97 22.775a2.231 2.231 0 0 1-.7 4.35l-191.829-.1a2.206 2.206 0 0 1-.7-.113l-68.03-22.418z" transform="translate(-2268.018 1778.407)"/>
            <path id="패스_3029" d="M2885.342 799.112c-6.438-.937-9.142-12.086-5.148-23.17 5.148-14.287 7.8-23.948 13.747-38.788 3.221-8.034 6.162-23.229 14.274-20.862 8.507 2.482 2.854 16.344.356 28.042-2.141 10.027-6.092 21.464-10.583 36.975-2.875 9.933-5.482 18.847-12.646 17.8z" class="cls-12" transform="translate(-2281.762 1809.605)"/>
            <path id="패스_3030" d="M2887.464 696.635c2.5 9.592 6.968 20.74 14.754 22.66m-10.59-27.768c1.977 8.181 4.445 17.284 9.942 22.263m-3.821-22.158c.763 7.75 4.615 14.918 8.013 21.392m-1.472-18.777c-.165 5.284.858 11.21 5.167 15.64" class="cls-58" transform="translate(-2284.393 1816.66)"/>
            <path id="패스_3031" d="M2907.525 727.022a6.172 6.172 0 1 0-2.888-8.237 6.176 6.176 0 0 0 2.888 8.237z" class="cls-59" transform="translate(-2289.158 1809.824)"/>
            <path id="패스_3032" fill="none" stroke="#ff9e9c" stroke-linecap="round" stroke-linejoin="round" stroke-width="1.265px" d="M2899.066 694.018a39 39 0 0 0 3.152 10.3m-9.05-12.76s1.821 8.815 4.568 13.97m-10.277-11.646c0 .36 4.1 13.987 7.022 16.829m-7.6-21.114c-.139.1.126-.318.213-.465a3.856 3.856 0 0 1 .532-.708 2.4 2.4 0 0 1 2.807-.555 6.331 6.331 0 0 1 2.125 2.729c.169.326.313.665.459 1a3.123 3.123 0 0 0 .265.536c.146-.146.092-.8.116-.991a6.1 6.1 0 0 1 .488-1.918c.941-1.945 3.516-1.377 4.336.219a8.44 8.44 0 0 1 .793 3.677 7.543 7.543 0 0 0 .287 1.482c.019 0 .392-1.6.413-1.7.2-1 1.281-3.19 3.118-2.672 3.525.994 1.478 6.8 3.9 12.561 1.048 2.49 3.475 4.638 4.9 6.806 1.823 2.776 2.064 6.806 1.31 10.069m-20.977 16.317s-.2.378-.981 1.824c-1.108 2.054-2.078 4.183-3.093 6.285-4.549 9.421-7.706 19.293-7.308 29.89" transform="translate(-2282.403 1817.783)"/>
            <path id="패스_3033" d="M2980.212 828.067c.509.152 53.964 19.592 53.32 19.532-1.026-.1-79.515.22-84.663-.824-.373-.075-39.845-16.8-39.654-16.955.541-.43 71-1.752 71-1.752z" class="cls-68" transform="translate(-2290.65 1777.373)"/>
            <path id="패스_3034" d="M3049.7 830.278c.521-.122 31.688-55.978 31.328-56.552-.205-.326-77.854-6.353-83.082-5.655-.38.051-33.282 61.4-33.106 61.578.5.508 84.86.628 84.86.628z" class="cls-68" transform="translate(-2306.654 1794.652)"/>
            <path id="패스_3035" fill="none" stroke="#bbc5d2" stroke-linecap="round" stroke-linejoin="round" stroke-width="1.493px" d="M2981.649 810.521c-.677 1.143-12.272 22.227-16.219 30.462" transform="translate(-2306.826 1782.422)"/>
            <path id="패스_3036" fill="#f9eded" fill-rule="evenodd" d="M3048.953 806.878c-1.146 1.4-2.547 4.934-1.2 7.074 1.371 2.172 5.426 2.865 6.3 2.974 3.983.494 7.93-2.306 7.173-6.533-1.171-6.532-10.218-6.018-12.274-3.514z" transform="translate(-2330.354 1783.967)"/>
        </g>
    </g>
</svg>
