<svg xmlns="http://www.w3.org/2000/svg" width="1920" height="560" viewBox="0 0 1920 560">
    <defs>
        <clipPath id="clip-path">
            <path id="사각형_2379" d="M0 0H1920V560H0z" class="cls-1" transform="translate(0 3240)"/>
        </clipPath>
        <clipPath id="clip-path-2">
            <path id="SVGID" fill="none" d="M-672.527 304.4a25.1 25.1 0 0 0-7.35-17.746 25.1 25.1 0 0 0-17.746-7.351h-106.126a25.1 25.1 0 0 0-17.746 7.351 25.1 25.1 0 0 0-7.35 17.746v263.99a25.1 25.1 0 0 0 7.35 17.746 25.1 25.1 0 0 0 17.746 7.351h106.125a25.1 25.1 0 0 0 17.746-7.351 25.1 25.1 0 0 0 7.35-17.746V304.4z" clip-rule="evenodd" transform="translate(828.845 -279.308)"/>
        </clipPath>
        <clipPath id="clip-path-3">
            <path id="교차_5" fill="none" d="M15.259 59.335C13.106 59.072-1.827 40.363.186 32.227c.458-1.853 2.063-2.3 2.578-6.633 1.059-8.9.9-23.252.367-23.349 1.083.124 4.5-.5 8.264-1.115C16.628.269 22.521-.593 23.7.549c1.451 1.41-.8 17.091-.328 26.937.132 2.764 1.872 4.82 2.667 5.882 2.543 3.4-7.843 25.975-10.712 25.972a.523.523 0 0 1-.068-.005zM3.126 2.245z"/>
        </clipPath>
        <linearGradient id="linear-gradient" x2="1" y1=".5" y2=".5" gradientUnits="objectBoundingBox">
            <stop offset="0" stop-color="#b3b3b3"/>
            <stop offset=".026" stop-color="#fbfbfb"/>
            <stop offset=".347" stop-color="#f3f3f3"/>
            <stop offset=".73" stop-color="#f2f2f2"/>
            <stop offset=".973" stop-color="#fff"/>
            <stop offset="1" stop-color="#b3b3b3"/>
        </linearGradient>
        <linearGradient id="linear-gradient-2" x1=".5" x2=".5" y1="1" gradientUnits="objectBoundingBox">
            <stop offset="0" stop-color="#4d4d4d"/>
            <stop offset=".012" stop-color="#acacac"/>
            <stop offset=".092" stop-color="#a5a5a5"/>
            <stop offset=".18" stop-color="#b2b2b2"/>
            <stop offset=".277" stop-color="#c7c7c7"/>
            <stop offset=".385" stop-color="#d2d2d2"/>
            <stop offset=".512" stop-color="#e1e1e1"/>
            <stop offset=".675" stop-color="#e2e2e2"/>
            <stop offset="1" stop-color="#f1f1f1"/>
        </linearGradient>
        <filter id="패스_2552" width="174.318" height="332.184" x="607.552" y="125.865" filterUnits="userSpaceOnUse">
            <feOffset dy="3"/>
            <feGaussianBlur result="blur" stdDeviation="3"/>
            <feFlood flood-opacity=".149"/>
            <feComposite in2="blur" operator="in"/>
            <feComposite in="SourceGraphic"/>
        </filter>
        <style>
            .cls-1,.cls-14,.cls-29{fill:#fff}.cls-15,.cls-16{fill:none}.cls-22,.cls-23,.cls-24,.cls-25,.cls-27,.cls-28,.cls-29,.cls-30,.cls-31,.cls-32,.cls-34,.cls-35,.cls-36,.cls-37{fill-rule:evenodd}.cls-9{fill:url(#linear-gradient)}.cls-11{fill:gray}.cls-14,.cls-19{opacity:.5}.cls-15,.cls-16{stroke:#f27070;stroke-miterlimit:10}.cls-15{stroke-width:5px}.cls-16{stroke-width:2px}.cls-19{fill:#f5abab}.cls-21{clip-path:url(#clip-path-2)}.cls-22{fill:#ff7976}.cls-23{fill:#a07262}.cls-24{fill:#c08f71}.cls-25{fill:#ffbebc}.cls-27{fill:#ff9e9d}.cls-28{fill:#403641}.cls-30{fill:#f3e5e4}.cls-31{fill:#fbf2f3}.cls-32{fill:#d8ab82}.cls-34{fill:#f3d889}.cls-35{fill:#ea9a43}.cls-36{fill:#6f5e68}.cls-37{fill:#9a8993}
        </style>
    </defs>
    <g id="그룹_3245" transform="translate(0 -3240)">
        <path id="사각형_2361" d="M0 0H1920V560H0z" class="cls-1" transform="translate(0 3240)"/>
        <g id="마스크_그룹_27" clip-path="url(#clip-path)">
            <g id="그룹_3239" transform="translate(-14050.083 11687.502)">
                <g id="그룹_3238" transform="translate(13656.167 -8661.372)">
                    <path id="사각형_2327" fill="#d0d0d0" d="M26.025 0h1087.242a25.414 25.414 0 0 1 25.414 25.414v742.561a15.007 15.007 0 0 1-15.007 15.007H13.339A13.339 13.339 0 0 1 0 769.642V26.025A26.025 26.025 0 0 1 26.025 0z" transform="translate(128.034)"/>
                    <path id="사각형_2328" fill="#f5f5f5" d="M22.466 0h1085.3a22.466 22.466 0 0 1 22.466 22.466v741.691a14.914 14.914 0 0 1-14.914 14.914H13.257A13.257 13.257 0 0 1 0 765.814V22.466A22.466 22.466 0 0 1 22.466 0z" transform="translate(133.077 3.91)"/>
                    <path id="사각형_2329" fill="#f1f1f1" d="M0 0h1130.237v24.6a14.861 14.861 0 0 1-14.861 14.861H13.2A13.2 13.2 0 0 1 0 26.259V0z" transform="translate(133.077 743.517)"/>
                    <path id="사각형_2331" d="M0 0H1394.915V8.161H0z" class="cls-9" transform="translate(.002 773.29)"/>
                    <path id="패스_3067" fill="url(#linear-gradient-2)" d="M-518.023 1693.527s33.323 19.666 209.023 19.894l972.791.453s160.053 2.38 213.1-20.347z" transform="translate(518.024 -912.076)"/>
                    <path id="사각형_2332" d="M0 0h265.471v7.363a3.916 3.916 0 0 1-3.916 3.916H3.916A3.916 3.916 0 0 1 0 7.363V0z" class="cls-9" transform="translate(564.949 773.29)"/>
                    <path id="사각형_2333" d="M0 0H9.522V4.421H0z" class="cls-11" transform="translate(520.289 791.483)"/>
                    <path id="사각형_2334" d="M0 0H9.522V4.421H0z" class="cls-11" transform="translate(863.067 791.483)"/>
                    <g id="그룹_3237" transform="translate(172.411 58.318)">
                        <path id="사각형_2330" d="M0 0H1049.757V656.99H0z" class="cls-1"/>
                        <path id="사각형_2375" fill="#fff1f1" d="M0 0H425.568V425.568H0z" transform="translate(74.017 176.358)"/>
                        <path id="사각형_2369" fill="#f27070" d="M0 0H1049.757V64.203H0z"/>
                        <path id="패스_3092" d="M318.054 266.375a17.134 17.134 0 1 1-17.134-17.134 17.134 17.134 0 0 1 17.134 17.134z" class="cls-14" transform="translate(-265.204 -234.996)"/>
                        <path id="패스_3093" d="M787.766 284.451H422.777a17.341 17.341 0 0 1-17.341-17.341 17.341 17.341 0 0 1 17.341-17.341h364.989a17.341 17.341 0 0 1 17.343 17.341 17.341 17.341 0 0 1-17.343 17.341z" class="cls-14" transform="translate(-101.554 -234.286)"/>
                        <path id="사각형_2370" d="M0 0H104.047V34.682H0z" class="cls-14" transform="translate(924.035 15.482)"/>
                        <g id="그룹_3230" transform="translate(74.017 112.493)">
                            <path id="선_300" d="M0 0L350.738 0" class="cls-15"/>
                            <path id="선_301" d="M0 0L221.647 0" class="cls-15" transform="translate(0 26.792)"/>
                        </g>
                        <path id="선_302" d="M0 0L403.281 0" class="cls-16" transform="translate(573.358 299.977)"/>
                        <path id="선_303" d="M0 0L403.281 0" class="cls-16" transform="translate(573.358 319.462)"/>
                        <path id="선_304" d="M0 0L403.281 0" class="cls-16" transform="translate(573.358 338.949)"/>
                        <path id="선_305" d="M0 0L403.281 0" class="cls-16" transform="translate(573.358 358.432)"/>
                        <path id="패스_3098" fill="#e73828" d="M467.079 359.2H333.117a34.1 34.1 0 0 1-34.1-34.1 34.1 34.1 0 0 1 34.1-34.1h133.962a34.1 34.1 0 0 1 34.1 34.1 34.1 34.1 0 0 1-34.1 34.1z" transform="translate(275.134 -115.078)"/>
                        <path id="선_306" d="M0 0L403.281 0" class="cls-16" transform="translate(573.358 377.917)"/>
                        <g id="그룹_3233" transform="translate(637.482 197.654)">
                            <path id="패스_3099" d="M325.852 321.882a11.684 11.684 0 0 0 5.916 1.668c3.376 0 5.349-1.783 5.349-4.362 0-2.389-1.366-3.753-4.818-5.081-4.172-1.481-6.749-3.641-6.749-7.244 0-3.982 3.3-6.942 8.267-6.942a11.607 11.607 0 0 1 5.651 1.252l-.911 2.691a10.171 10.171 0 0 0-4.854-1.213c-3.488 0-4.815 2.085-4.815 3.831 0 2.389 1.554 3.566 5.081 4.93 4.323 1.668 6.523 3.756 6.523 7.512 0 3.943-2.918 7.356-8.951 7.356a13.194 13.194 0 0 1-6.52-1.632z" class="cls-1" transform="translate(-325.019 -299.922)"/>
                            <path id="패스_3100" d="M338.5 317.618l-2.655 8.038h-3.412l8.683-25.562h3.984l8.725 25.562H350.3l-2.733-8.038zm8.381-2.579l-2.5-7.361c-.568-1.666-.947-3.186-1.325-4.664h-.078c-.378 1.517-.794 3.074-1.288 4.628l-2.5 7.4z" class="cls-1" transform="translate(-314.372 -299.677)"/>
                            <path id="패스_3101" d="M342.763 300.093h3.3v22.8h10.924v2.767h-14.224z" class="cls-1" transform="translate(-299.544 -299.677)"/>
                            <path id="패스_3102" d="M363.352 313.672h-9.935v9.217h11.075v2.767h-14.375v-25.563h13.805v2.769h-10.505v8.079h9.935z" class="cls-1" transform="translate(-288.986 -299.677)"/>
                        </g>
                        <g id="그룹_3236" transform="translate(131.947 257.886)">
                            <g id="그룹_3235">
                                <path id="패스_3094" fill="#ff7541" d="M633.76 353c-3.434 19.437-23.139 34.338-46.933 34.338s-43.5-14.9-46.933-34.338h-39.918s-65.617 55.243-65.308 56.556c7.307 31.128 39.049 46.456 39.049 46.456l24.932-23.156s-1.661 168.025 0 168.582c94.339 31.664 177.456 0 177.456 0V432.856l27.874 23.156s33.524-24.259 40.4-47.8C744.5 407.79 675.7 353 675.7 353z" transform="translate(-434.667 -353)"/>
                            </g>
                        </g>
                        <path id="사각형_2371" d="M0 0H84.022V84.031H0z" class="cls-19" transform="translate(574.15 397.4)"/>
                        <path id="사각형_2376" d="M0 0H84.022V84.031H0z" class="cls-19" transform="translate(892.417 397.4)"/>
                        <path id="사각형_2377" d="M0 0H84.022V84.031H0z" class="cls-19" transform="translate(785.116 397.4)"/>
                        <path id="사각형_2378" d="M0 0H84.022V84.031H0z" class="cls-19" transform="translate(679.633 397.4)"/>
                    </g>
                    <g id="그룹_2850" transform="translate(1010.468 345.735)">
                        <g filter="url(#패스_2552)" transform="translate(-616.55 -131.87)">
                            <path id="패스_2552-2" fill="#ffd252" fill-rule="evenodd" d="M-672.527 304.4a25.1 25.1 0 0 0-7.35-17.746 25.1 25.1 0 0 0-17.746-7.351h-106.126a25.1 25.1 0 0 0-17.746 7.351 25.1 25.1 0 0 0-7.35 17.746v263.99a25.1 25.1 0 0 0 7.35 17.746 25.1 25.1 0 0 0 17.746 7.351h106.125a25.1 25.1 0 0 0 17.746-7.351 25.1 25.1 0 0 0 7.35-17.746V304.4z" transform="translate(1445.4 -147.44)"/>
                        </g>
                        <g id="그룹_2845">
                            <g id="그룹_2844" class="cls-21">
                                <path id="패스_2553" d="M-797.539 555.942c-.893-3.479-.478-35.759.117-45.263.435-6.96 1.051-13.933 2.091-20.83 2.3-15.212 8.343-26.819 26.027-23.293 13.417 2.676 36.847 6.274 56.954 1.32 6.554-1.615 16.083-3.172 21.256-2.267 17.522 3.066 4.648 39.7-1.168 53.828-3.749 11.4-11.471 20.092-11.609 33.7-.162 16.058 4.2 31.6 5.688 47.482a1.28 1.28 0 0 1-.336 1.163c-5.379 4.727-49.824.436-58.082.078-2.539-.11-17.811.121-18.939-2.611-.233-.565-.728-3.431 1.122-12.59-11.9-8.54-21.616-24.843-23.122-30.719z" class="cls-22" transform="translate(819.238 -337.356)"/>
                                <path id="패스_2554" d="M-696.288 384.241c-1.014-7.44 1.834-30.818.564-32.512-20.064-26.745-48.948-17.3-62.3-1.817-9.367 10.863-13.51 25.953-18.258 39.208-1.132 3.161-7.574 19.571-7.369 22.321.3 3.958 15.685 9.052 18.611 9.937a157.4 157.4 0 0 0 54.455 5.964c3.824-.248 17.972-1.216 20.865-3.678 1.959-1.668-1.281-12.994-1.751-15.187-1.724-8.047-3.709-16.073-4.821-24.236z" class="cls-23" transform="translate(814.744 -296.642)"/>
                                <path id="패스_2555" d="M-656.215 422.163a.249.249 0 0 1-.07-.22.251.251 0 0 1 .289-.207.283.283 0 0 1 .184.118 1.327 1.327 0 0 1 .146.424c.18.837.385 2.9.408 3.056q.3 1.955.622 3.909c1.116 6.833 2.643 14.273 4.278 20.995a.253.253 0 0 1-.185.3.253.253 0 0 1-.3-.185c-1.638-6.733-3.167-14.187-4.285-21.033q-.319-1.956-.623-3.913a32.482 32.482 0 0 0-.459-3.246z" class="cls-24" transform="translate(775.003 -323.748)"/>
                                <path id="패스_2556" d="M-658.967 436.405a32.444 32.444 0 0 0 .852 6 112.7 112.7 0 0 0 2.936 13.549.251.251 0 0 0 .313.169.25.25 0 0 0 .169-.312 112.327 112.327 0 0 1-2.921-13.49 31.888 31.888 0 0 1-.846-5.9.251.251 0 0 0-.245-.258.251.251 0 0 0-.258.244z" class="cls-24" transform="translate(775.84 -328.25)"/>
                                <path id="패스_2557" d="M-662.589 443.675c.387 5.46 1.417 10.4 2.249 15.81a.252.252 0 0 0 .286.211.253.253 0 0 0 .211-.287c-.83-5.4-1.858-10.322-2.244-15.768a.251.251 0 0 0-.268-.233.252.252 0 0 0-.234.268z" class="cls-24" transform="translate(776.969 -330.511)"/>
                                <path id="패스_2558" d="M-667.666 447.642a4.022 4.022 0 0 0-.019 1.63c.125.855.38 1.77.459 2.382.411 3.184.846 6.367 1.179 9.56a.252.252 0 0 0 .277.224.251.251 0 0 0 .224-.276c-.334-3.2-.769-6.385-1.181-9.573-.08-.614-.334-1.533-.461-2.39a3.516 3.516 0 0 1 0-1.416.252.252 0 0 0-.17-.312.25.25 0 0 0-.312.17z" class="cls-24" transform="translate(778.581 -331.777)"/>
                                <path id="패스_2559" d="M-672.848 452.107c.529 3.835.524 7.272 1.22 11.1a.252.252 0 0 0 .292.2.252.252 0 0 0 .2-.292c-.694-3.818-.689-7.248-1.216-11.076a.252.252 0 0 0-.283-.215.251.251 0 0 0-.215.283z" class="cls-24" transform="translate(780.171 -333.137)"/>
                                <path id="패스_2560" d="M-679.471 455.314c-.318 1.569.6 7.9.721 9.117a.251.251 0 0 0 .276.224.252.252 0 0 0 .224-.275c-.122-1.2-1.042-7.423-.729-8.966a.252.252 0 0 0-.2-.3.251.251 0 0 0-.3.2z" class="cls-24" transform="translate(782.257 -334.164)"/>
                                <path id="패스_2561" d="M-685.958 455.1c-.029 2.786.846 6.579 1.241 9.327a.252.252 0 0 0 .285.213.252.252 0 0 0 .213-.285c-.393-2.725-1.264-6.487-1.236-9.25a.251.251 0 0 0-.249-.254.252.252 0 0 0-.254.248z" class="cls-24" transform="translate(784.261 -334.083)"/>
                                <path id="패스_2562" d="M-691.171 453.16c-.318 3.269.43 7.575.812 10.812a.251.251 0 0 0 .279.22.251.251 0 0 0 .22-.279c-.378-3.205-1.125-7.469-.811-10.7a.251.251 0 0 0-.226-.274.251.251 0 0 0-.275.226z" class="cls-24" transform="translate(785.911 -333.484)"/>
                                <path id="패스_2563" d="M-741.121 410.957a104.189 104.189 0 0 0-8.688 27.992.251.251 0 0 0 .21.287.251.251 0 0 0 .287-.21 103.709 103.709 0 0 1 8.646-27.855.251.251 0 0 0-.121-.334.252.252 0 0 0-.334.12z" class="cls-24" transform="translate(804.185 -320.341)"/>
                                <path id="패스_2564" d="M-735.246 416.82c-2.012 3.253-2.8 7.89-3.945 11.491a.251.251 0 0 0 .163.316.251.251 0 0 0 .316-.163c1.134-3.565 1.9-8.16 3.894-11.379a.251.251 0 0 0-.082-.346.252.252 0 0 0-.346.081z" class="cls-24" transform="translate(800.874 -322.178)"/>
                                <path id="패스_2565" d="M-730.215 419a81.1 81.1 0 0 0-2.524 14.074.251.251 0 0 0 .22.279.251.251 0 0 0 .279-.22 80.533 80.533 0 0 1 2.506-13.986.252.252 0 0 0-.168-.313.25.25 0 0 0-.313.167z" class="cls-24" transform="translate(798.858 -322.841)"/>
                                <path id="패스_2566" d="M-724.719 420.894c-.844 6.823-1.674 13.622-2.024 20.5a.251.251 0 0 0 .238.264.251.251 0 0 0 .263-.239c.349-6.865 1.178-13.651 2.021-20.463a.252.252 0 0 0-.219-.28.251.251 0 0 0-.28.219z" class="cls-24" transform="translate(796.987 -323.418)"/>
                                <path id="패스_2567" d="M-726.415 427.641c.535.013.7 14.421-.362 23.35-.515 4.33-2.12 4.78-2.578 6.633-2.014 8.136 12.919 26.844 15.073 27.108 2.777.341 13.336-22.545 10.774-25.968-.795-1.061-2.534-3.118-2.666-5.881-.469-9.846 1.779-25.527.328-26.937-2.02-1.963-17.993 2-20.57 1.7z" class="cls-25" transform="translate(797.859 -324.891)"/>
                            </g>
                        </g>
                        <g id="그룹_2847" transform="translate(68.319 100.505)">
                            <g id="그룹_2846" clip-path="url(#clip-path-3)">
                                <path id="패스_2568" d="M-734.286 423.687c1.214 10.062 14.648 21.256 21.5 26.177.827.593 7.957 5.742 8.391 5.46 1.5-.974 1.409-5.924 1.479-7.61.574-13.786-2.951-13.309-13.791-19.133-4.936-2.652-12.271-3.557-17.576-4.893z" class="cls-27" transform="translate(731.021 -424.863)"/>
                            </g>
                        </g>
                        <g id="그룹_2849">
                            <g id="그룹_2848" class="cls-21">
                                <path id="패스_2569" d="M-705.3 520.359c-.037-.7-19.079-7.632-18.628-8.274a155.4 155.4 0 0 1 10.463-13.266c.438-.5 3.872-4.625 4.277-4.5a17.538 17.538 0 0 1 4.413 2.468c2.235 2.148 9.658 6.957 9.687 7.828.021.606-9.835 15.374-10.212 15.74z" class="cls-22" transform="translate(796.109 -346.397)"/>
                                <path id="패스_2570" d="M-726.96 400.993c-.632-3.272-3.936-25-1.562-31.232 2.543-6.674 6.359-17.32 15.358-21.357 17.6-7.895 29.667-.6 33.946 5.919 4.863 7.407 2.733 15.587 3.009 23.918.212 6.4-.291 14.182-.4 20.532a20.908 20.908 0 0 1-1.994 8.249c-2.03 4.462-8.464 14.611-13.748 16.809s-15-2.083-17.96-3.622c-8.5-4.424-14.617-8.715-16.646-19.216z" class="cls-25" transform="translate(797.806 -299.795)"/>
                                <path id="패스_2571" d="M-660.864 389.9a13.112 13.112 0 0 0-8.633 1.108 6.242 6.242 0 0 0-3.238 3.542 14.128 14.128 0 0 0 .341 7.633 43.406 43.406 0 0 1 1.676 7.125c.191 2.32-1.206 4.558-3.7 4.6a.642.642 0 0 0-.63.652.641.641 0 0 0 .651.63c3.281-.054 5.206-2.932 4.955-5.987a44.7 44.7 0 0 0-1.714-7.344 12.864 12.864 0 0 1-.35-6.948 4.974 4.974 0 0 1 2.611-2.771 11.788 11.788 0 0 1 7.759-.984.642.642 0 0 0 .762-.492.641.641 0 0 0-.492-.762z" class="cls-28" transform="translate(780.855 -313.728)"/>
                                <path id="패스_2572" d="M-704.368 393.65c5.173-2.109 10.326-1.354 13.594.782a.641.641 0 0 0 .887-.186.642.642 0 0 0-.186-.888c-3.554-2.323-9.155-3.19-14.78-.9a.642.642 0 0 0-.351.836.642.642 0 0 0 .836.352z" class="cls-28" transform="translate(790.28 -314.196)"/>
                                <path id="패스_2573" d="M-693.566 400.105a2.464 2.464 0 0 1 2.463 2.463 2.465 2.465 0 0 1-2.463 2.463 2.464 2.464 0 0 1-2.463-2.463 2.464 2.464 0 0 1 2.463-2.463z" class="cls-28" transform="translate(787.403 -317)"/>
                                <path id="패스_2574" d="M-665.667 399.393a2.464 2.464 0 0 1 2.463 2.463 2.465 2.465 0 0 1-2.463 2.463 2.465 2.465 0 0 1-2.463-2.463 2.465 2.465 0 0 1 2.463-2.463z" class="cls-28" transform="translate(778.697 -316.778)"/>
                                <path id="패스_2575" d="M-679 434.064c-1.121-3.475-2.895-2.343-8.882-3.287-4.49-.708-9.731-5.18-12.573-1.952-4.771 5.419 4.362 11.6 10.356 12.477 6.818.995 12.156-3.965 11.1-7.237z" class="cls-29" transform="translate(789.2 -325.6)"/>
                                <path id="패스_2576" d="M-725.667 389.425c3.6-2.1 4.389-8.1 5.781-11.744 2.639-6.908 8.343-15.79 15.681-18.534a33.062 33.062 0 0 1 18.9-1.668c4.259.968 9.531 6.247 9.631 5.542.116-.812-1.732-5.029-5.712-8.062-2.991-2.279-7.9-3.59-10.107-3.943-6.767-1.085-23.76 4.443-29.482 12.13a30.148 30.148 0 0 0-4.695 26.279z" class="cls-23" transform="translate(797.019 -301.641)"/>
                                <path id="패스_2577" d="M-731.864 400.444c-3.443-2.56-8.681-2.1-11.318-.644-4.024 2.223-5.818 7.3-7.211 11.38a185.59 185.59 0 0 0-7.043 29.239.251.251 0 0 0 .206.289.25.25 0 0 0 .289-.206 185.148 185.148 0 0 1 7.023-29.16c1.356-3.971 3.062-8.94 6.978-11.1 2.51-1.387 7.5-1.83 10.776.607a.251.251 0 0 0 .351-.052.251.251 0 0 0-.052-.352z" class="cls-24" transform="translate(806.565 -316.535)"/>
                                <path id="패스_2578" d="M-732.958 394.768a14.911 14.911 0 0 0-6.06-1.566c-4.041-.207-7.475 1.88-10.1 4.813a49.165 49.165 0 0 0-8.8 15.029 130.827 130.827 0 0 0-6.235 23.784.25.25 0 0 0 .206.289.251.251 0 0 0 .289-.206 130.39 130.39 0 0 1 6.207-23.685 48.682 48.682 0 0 1 8.707-14.876c2.524-2.819 5.817-4.845 9.7-4.646a14.362 14.362 0 0 1 5.845 1.505.251.251 0 0 0 .341-.1.252.252 0 0 0-.1-.341z" class="cls-24" transform="translate(808.661 -314.841)"/>
                                <path id="패스_2579" d="M-733.647 389.985a16.062 16.062 0 0 0-6.982-1.732c-7-.12-12.58 4.494-16.27 10.058a94.711 94.711 0 0 0-13.682 34.78.251.251 0 0 0 .205.29.252.252 0 0 0 .29-.206 94.183 94.183 0 0 1 13.6-34.587c3.6-5.424 9.015-9.951 15.842-9.833a15.617 15.617 0 0 1 6.786 1.688.251.251 0 0 0 .332-.127.251.251 0 0 0-.126-.331z" class="cls-24" transform="translate(810.666 -313.301)"/>
                                <path id="패스_2580" d="M-734.512 385.1a31.562 31.562 0 0 0-4.84-1.685 21.419 21.419 0 0 0-10.511.5c-6.726 2.192-12.067 7.423-16.271 13.907-6.274 9.676-10.022 22.138-12.118 31.343a.251.251 0 0 0 .189.3.25.25 0 0 0 .3-.189c2.086-9.156 5.809-21.556 12.05-31.18 4.139-6.382 9.385-11.546 16.006-13.7a20.918 20.918 0 0 1 10.265-.489 30.932 30.932 0 0 1 4.732 1.654.253.253 0 0 0 .331-.132.253.253 0 0 0-.132-.33z" class="cls-24" transform="translate(813.061 -311.661)"/>
                                <path id="패스_2581" d="M-730.939 380.852c-1.02-.413-3.059-1.238-3.535-1.366a30.077 30.077 0 0 0-8.819-.983c-12.718.49-21.545 10.882-27.358 21.142a.252.252 0 0 0 .1.343.251.251 0 0 0 .343-.095c5.732-10.115 14.4-20.4 26.94-20.886a29.516 29.516 0 0 1 8.668.965c.469.126 2.475.94 3.479 1.346a.251.251 0 0 0 .327-.138.251.251 0 0 0-.138-.328z" class="cls-24" transform="translate(810.697 -310.253)"/>
                                <path id="패스_2582" d="M-727.189 376.259a22.92 22.92 0 0 0-2.821-1.625 29.075 29.075 0 0 0-6.559-2.335c-10.011-2.206-19.692 2.2-26.275 9.742a.251.251 0 0 0 .024.355.251.251 0 0 0 .354-.024c6.462-7.4 15.961-11.748 25.788-9.582a28.532 28.532 0 0 1 6.446 2.3 22.392 22.392 0 0 1 2.761 1.59.252.252 0 0 0 .349-.067.251.251 0 0 0-.067-.349z" class="cls-24" transform="translate(808.27 -308.146)"/>
                                <path id="패스_2583" d="M-723.289 371.515a34.753 34.753 0 0 0-6.653-3.532c-13.78-4.605-19.833-3.055-26.37 2.356a.251.251 0 0 0-.033.354.251.251 0 0 0 .354.034c6.416-5.312 12.363-6.787 25.89-2.267a34.16 34.16 0 0 1 6.542 3.479.251.251 0 0 0 .347-.077.251.251 0 0 0-.076-.347z" class="cls-24" transform="translate(806.241 -306.129)"/>
                                <path id="패스_2584" d="M-719.492 367.073a39.81 39.81 0 0 0-7.083-5.085c-6.4-3.046-16.045-5.326-23.578-1.292a.252.252 0 0 0-.1.341.252.252 0 0 0 .34.1c7.388-3.957 16.846-1.685 23.124 1.3a39.173 39.173 0 0 1 6.974 5.016.252.252 0 0 0 .354-.03.252.252 0 0 0-.029-.354z" class="cls-24" transform="translate(804.332 -304.027)"/>
                                <path id="패스_2585" d="M-714.626 363.21a83.729 83.729 0 0 0-6.433-5.89c-5.176-3.888-12.366-5.577-19.457-5.49a.251.251 0 0 0-.248.254.252.252 0 0 0 .255.248c6.977-.085 14.056 1.564 19.149 5.39a82.96 82.96 0 0 1 6.378 5.842.251.251 0 0 0 .355 0 .252.252 0 0 0 0-.356z" class="cls-24" transform="translate(801.361 -301.936)"/>
                                <path id="패스_2586" d="M-708.969 358.723a59.373 59.373 0 0 0-4.927-5.743c-4.389-4.181-10.937-7.731-15.755-9.676a.251.251 0 0 0-.327.139.251.251 0 0 0 .14.327c4.769 1.925 11.252 5.435 15.6 9.574a58.736 58.736 0 0 1 4.878 5.688.251.251 0 0 0 .353.043.251.251 0 0 0 .043-.352z" class="cls-24" transform="translate(798.002 -299.271)"/>
                                <path id="패스_2587" d="M-702.6 355.6c-3.708-7.565-11.63-14.341-16.234-16.555a.251.251 0 0 0-.336.118.251.251 0 0 0 .118.335c4.539 2.183 12.346 8.866 16 16.324a.251.251 0 0 0 .336.115.251.251 0 0 0 .115-.336z" class="cls-24" transform="translate(794.633 -297.941)"/>
                                <path id="패스_2588" d="M-695.592 353.607a35.58 35.58 0 0 0-2.75-5.458c-2.43-4.352-6.5-8.2-10.242-11.5a.252.252 0 0 0-.355.022.252.252 0 0 0 .023.355c3.7 3.26 7.733 7.061 10.136 11.367a34.893 34.893 0 0 1 2.715 5.378.251.251 0 0 0 .32.154.25.25 0 0 0 .154-.32z" class="cls-24" transform="translate(791.451 -297.181)"/>
                                <path id="패스_2589" d="M-688.411 352.134c-.41-1.16-1.231-3.479-1.652-4.6-1.505-4-3.885-9-7.079-11.97a.252.252 0 0 0-.356.012.251.251 0 0 0 .013.355c3.141 2.925 5.471 7.841 6.952 11.78.421 1.119 1.24 3.434 1.649 4.592a.252.252 0 0 0 .321.153.251.251 0 0 0 .153-.321z" class="cls-24" transform="translate(787.882 -296.84)"/>
                                <path id="패스_2590" d="M-681.722 352.591c-.091-1.2-.274-3.6-.359-4.283a55.051 55.051 0 0 0-2.563-10.324.252.252 0 0 0-.32-.155.251.251 0 0 0-.155.319 54.519 54.519 0 0 1 2.539 10.222c.085.68.266 3.066.357 4.259a.25.25 0 0 0 .269.231.251.251 0 0 0 .232-.27z" class="cls-24" transform="translate(784.003 -297.564)"/>
                                <path id="패스_2591" d="M-676.787 353.438a.252.252 0 0 1 .012.156.251.251 0 0 1-.3.183.248.248 0 0 1-.162-.123.468.468 0 0 1-.047-.186c-.042-.485.065-2.839.066-2.956.011-2.8-.276-6.783-.524-9.567a.251.251 0 0 1 .228-.272.251.251 0 0 1 .273.228c.25 2.8.537 6.8.526 9.614 0 .114-.108 2.433-.067 2.912v.012zm-.095-.115zm-.028-.016l.011.006h.007l-.029-.014h.01zm-.021-.009h.009zm-.013 0h.007-.007z" class="cls-24" transform="translate(781.699 -298.455)"/>
                                <path id="패스_2592" d="M-671.831 354.946c.263-2.642.788-7.925.907-9.729a.251.251 0 0 0-.234-.267.251.251 0 0 0-.267.234c-.119 1.8-.644 7.075-.906 9.713a.252.252 0 0 0 .225.275.252.252 0 0 0 .275-.226z" class="cls-24" transform="translate(780.009 -299.79)"/>
                                <path id="패스_2593" d="M-666.508 357.694c.261-1.672.475-3.958.683-5.638a.252.252 0 0 0-.218-.28.251.251 0 0 0-.281.219c-.207 1.675-.421 3.954-.681 5.622a.25.25 0 0 0 .209.287.252.252 0 0 0 .287-.21z" class="cls-24" transform="translate(778.347 -301.919)"/>
                                <path id="패스_2594" d="M-661.72 360.454a33.743 33.743 0 0 0 .775-4.668.251.251 0 0 0-.206-.29.251.251 0 0 0-.289.206 33.119 33.119 0 0 1-.752 4.579.251.251 0 0 0 .151.323.252.252 0 0 0 .322-.151z" class="cls-24" transform="translate(776.85 -303.08)"/>
                                <path id="패스_2595" d="M-736.868 385.708c-.5-.663 2.478-14.315 4.154-18.371 6.253-15.135 21.075-24.412 38.161-21.993 9.748 1.38 15.057 10.433 16.391 17.137.308 1.547-3.051-10.261-16.369-10.735-9.022-.321-17.6 2.744-22.576 7.645a39.532 39.532 0 0 0-10.523 19.638c-.6 2.6-.712 10.523-1.113 10.83-.8.611-7.439-3.836-8.124-4.151z" class="cls-30" transform="translate(800.163 -299.794)"/>
                                <path id="패스_2596" d="M-729.555 405.841a40.9 40.9 0 0 0-5.154-3.146c-4.03-1.915-8.96 2.349-6.726 8.162 1.638 4.262 11.764 7.936 12.7 7.242 1.33-.989-.7-10.91-.816-12.258z" class="cls-25" transform="translate(801.745 -317.663)"/>
                                <path id="패스_2597" d="M-734.8 408a7.249 7.249 0 0 0-1.365-.243 3.977 3.977 0 0 0-3.038.751.257.257 0 0 1-.363-.024.257.257 0 0 1 .024-.364 4.528 4.528 0 0 1 3.419-.876c2.865.231 5.3 2.079 7.12 4.184a.257.257 0 0 1-.027.363.258.258 0 0 1-.363-.026 12.116 12.116 0 0 0-4.8-3.567l-.023.016a.252.252 0 0 1-.093.033l-.1.085a3.53 3.53 0 0 0-.957 2.195c-.193 1.906.937 3.58 2.114 4.967a.258.258 0 0 1-.03.363.258.258 0 0 1-.363-.03c-1.264-1.49-2.44-3.3-2.234-5.352A4.121 4.121 0 0 1-734.8 408zm.275.175a.234.234 0 0 1-.021-.023.3.3 0 0 1-.018-.027.257.257 0 0 0 .04.05z" class="cls-27" transform="translate(801.007 -319.217)"/>
                                <path id="패스_2598" d="M-736.4 474.958c-5.446-3.613-17.6-14.306-18.447-19.269-.83-4.837 5.151-19.654 8.448-23.678.567-.692 8.458-3.068 8.71-2.893 2.045 1.415 1.731 7.688 2.171 10.02 1.384 7.323 5.969 18.133 8.092 26.132.695.8 1.317 1.656 1.75 2.125 2.113 2.289 4.1 4.5 6.405 6.592.192.174-2.588 2.933-5.118 5.912-2.892 3.4-5.509 6.866-5.6 6.655-.686-1.488-1.347-2.651-2.122-4.094-1.364-2.541-2.718-5.078-4.285-7.5z" class="cls-25" transform="translate(805.78 -326.05)"/>
                                <path id="패스_2599" d="M-747.813 439.159c.375-.728 22.131-13.281 23.8-14.6.03-.024 1.672 3.377 1.119 3.643-2.436 1.173-22.751 13.885-23.169 13.911-.356.021-1.707-2.5-1.752-2.952z" class="cls-28" transform="translate(803.561 -324.63)"/>
                                <path id="패스_2600" d="M-712.944 421.183s3.386-5.458 5-6.146c1.57-.669 3.886.792 4.683 2.02s1.349 4.1.1 5.347c-1.273 1.267-7.734 2.257-7.734 2.257l-2.045-3.478z" class="cls-29" transform="translate(792.681 -321.607)"/>
                                <path id="패스_2601" d="M-717.024 425.821l3.136-2.524 2.271 4.049-3.661 1.582-1.745-3.107z" class="cls-30" transform="translate(793.954 -324.237)"/>
                                <path id="패스_2602" d="M-711.644 421.085l5.394-5.506a.258.258 0 0 0 0-.365.258.258 0 0 0-.364 0l-5.394 5.507a.257.257 0 0 0 0 .365.258.258 0 0 0 .365 0z" class="cls-30" transform="translate(792.413 -321.691)"/>
                                <path id="패스_2603" d="M-711.059 422.156l6.651-5.436a.258.258 0 0 0 .036-.362.258.258 0 0 0-.363-.037l-6.651 5.437a.257.257 0 0 0-.036.362.258.258 0 0 0 .363.036z" class="cls-30" transform="translate(792.224 -322.042)"/>
                                <path id="패스_2604" d="M-710.445 423.621l7.536-5.063a.259.259 0 0 0 .07-.358.258.258 0 0 0-.358-.07l-7.535 5.063a.258.258 0 0 0-.07.358.258.258 0 0 0 .358.07z" class="cls-30" transform="translate(792.026 -322.611)"/>
                                <path id="패스_2605" d="M-709.86 425.1l7.708-4.3a.258.258 0 0 0 .1-.351.258.258 0 0 0-.351-.1l-7.707 4.3a.259.259 0 0 0-.1.351.259.259 0 0 0 .351.1z" class="cls-30" transform="translate(791.838 -323.306)"/>
                                <path id="패스_2606" d="M-709.161 426.862l7.328-2.947a.258.258 0 0 0 .143-.335.258.258 0 0 0-.336-.143l-7.328 2.946a.259.259 0 0 0-.143.336.259.259 0 0 0 .336.143z" class="cls-30" transform="translate(791.611 -324.274)"/>
                                <path id="패스_2607" d="M-724.825 452.648c.555 1.8 3.06 7.5 3.618 9.3 1.16 3.734 2.541 9.119 3.593 10.812 1.856 2.986 5.025 5.677 7.592 8.03a.258.258 0 0 0 .364-.016.258.258 0 0 0-.016-.365c-2.535-2.324-5.67-4.974-7.5-7.922-1.041-1.674-2.393-7-3.539-10.693-.559-1.8-3.063-7.494-3.618-9.3a.258.258 0 0 0-.322-.17.258.258 0 0 0-.171.322z" class="cls-27" transform="translate(796.392 -333.291)"/>
                                <path id="패스_2608" d="M-734.027 455c.125-.82-.711-6.908-.625-7.734.063-.594.118-1.19.179-1.784.208-2.02 1.165-7.95 4.575-5.875" class="cls-25" transform="translate(799.456 -329.19)"/>
                                <path id="패스_2609" d="M-733.889 454.921a21.247 21.247 0 0 0-.19-2.9c-.2-1.988-.485-4.352-.433-4.842.062-.594.117-1.19.179-1.785a12.38 12.38 0 0 1 1.505-5.162 2.055 2.055 0 0 1 1.114-.87 2.018 2.018 0 0 1 1.566.351.257.257 0 0 0 .354-.086.258.258 0 0 0-.086-.354 2.506 2.506 0 0 0-1.964-.409 2.564 2.564 0 0 0-1.4 1.07 13.013 13.013 0 0 0-1.6 5.407c-.061.594-.117 1.19-.18 1.784-.052.5.226 2.916.434 4.948a21 21 0 0 1 .193 2.774.258.258 0 0 0 .216.294.258.258 0 0 0 .294-.216z" class="cls-27" transform="translate(799.573 -329.073)"/>
                                <path id="패스_2610" d="M-739.836 436.608a6.251 6.251 0 0 0-.687 1.805c-.393 1.052-.8 2.092-1.251 3.12a4.233 4.233 0 0 0-.61 1.821 12.271 12.271 0 0 0 .967 2.631 1.115 1.115 0 0 1-.24 1.337 4.418 4.418 0 0 1-1.676.638 6.286 6.286 0 0 1-2.833.309 2.384 2.384 0 0 1-1.322-1.212 6.5 6.5 0 0 1-1-3.71c.274-2.824 6.512-5.314 8.648-6.738z" class="cls-25" transform="translate(803.776 -328.39)"/>
                                <path id="패스_2611" d="M-747.427 440.472a18.752 18.752 0 0 0-1.14 3.615c-.254 1.439.426 3.754 2.142 7a.259.259 0 0 0 .349.107.257.257 0 0 0 .107-.348c-1.639-3.1-2.333-5.3-2.09-6.673a18.129 18.129 0 0 1 1.1-3.5.258.258 0 0 0-.131-.34.257.257 0 0 0-.34.131z" class="cls-27" transform="translate(803.812 -329.548)"/>
                                <path id="패스_2612" d="M-751.877 451.958c-.068 1.051-.2 3.154-.187 3.537a3.076 3.076 0 0 0 .749 1.762c.391.5.89.983 1.348 1.5a.258.258 0 0 0 .364.023.258.258 0 0 0 .023-.364c-.451-.514-.944-.986-1.329-1.48a2.577 2.577 0 0 1-.641-1.467c-.016-.376.12-2.446.187-3.482a.258.258 0 0 0-.241-.274.257.257 0 0 0-.274.241z" class="cls-27" transform="translate(804.888 -333.104)"/>
                                <path id="패스_2613" d="M-754.229 459.789c-.047.67-.139 2.01-.123 2.393a7.58 7.58 0 0 0 1.824 3.773.258.258 0 0 0 .362.044.258.258 0 0 0 .044-.362 7.025 7.025 0 0 1-1.714-3.476c-.016-.375.076-1.682.122-2.336a.258.258 0 0 0-.239-.275.258.258 0 0 0-.275.239z" class="cls-27" transform="translate(805.602 -335.548)"/>
                                <path id="패스_2614" d="M-730.994 432.614c-.042.058-.316.434-.352.473a10.349 10.349 0 0 1-1.489 1.361 9.214 9.214 0 0 1-5.075 1.8.258.258 0 0 1-.268-.247.258.258 0 0 1 .247-.268 8.684 8.684 0 0 0 4.788-1.7 9.824 9.824 0 0 0 1.416-1.294c.041-.045.3-.427.383-.506a.287.287 0 0 1 .172-.084.258.258 0 0 1 .282.23.257.257 0 0 1-.1.233z" class="cls-27" transform="translate(800.554 -326.999)"/>
                                <path id="패스_2615" d="M-737.747 437.776a13.407 13.407 0 0 0-1.1 2.444c-.228.572-.637 1.3-.935 2.016a4.49 4.49 0 0 0-.389 1.467 1 1 0 0 0 .157.512 10.487 10.487 0 0 0 .65.872c.7 1.008 1.762 2.906 2.447 3.922a.258.258 0 0 0 .358.069.258.258 0 0 0 .07-.358c-.687-1.017-1.754-2.917-2.451-3.927-.109-.158-.367-.438-.551-.713a.725.725 0 0 1-.166-.355 3.99 3.99 0 0 1 .35-1.292c.3-.72.708-1.448.938-2.022a12.8 12.8 0 0 1 1.053-2.351.258.258 0 0 0-.073-.357.258.258 0 0 0-.357.072z" class="cls-27" transform="translate(801.177 -328.718)"/>
                                <path id="패스_2616" d="M-767.444 475.25a.258.258 0 0 1-.047-.069.319.319 0 0 1-.036-.167.248.248 0 0 1 .076-.158.249.249 0 0 1 .174-.074.25.25 0 0 1 .225.117c.091.131 1.131 2.053 1.284 2.344.936 1.791 1.829 3.608 2.688 5.436a93.249 93.249 0 0 1 5.853 16.254.259.259 0 0 1-.184.315.258.258 0 0 1-.314-.184 92.719 92.719 0 0 0-5.82-16.166c-.856-1.822-1.746-3.632-2.679-5.416-.134-.256-1.04-1.905-1.219-2.232z" class="cls-31" transform="translate(809.712 -340.301)"/>
                                <path id="패스_2617" d="M-758.784 482.3a.258.258 0 0 1-.14-.229.443.443 0 0 1 .056-.245.255.255 0 0 1 .182-.116.263.263 0 0 1 .269.122 1.814 1.814 0 0 1 .15.393c.11.371.253.953.336 1.227.451 1.474.874 2.953 1.253 4.448.94 3.707 1.786 7.447 2.463 11.212 2 11.107 3.407 32.273 4.59 43.485a.258.258 0 0 1-.229.283.258.258 0 0 1-.283-.229c-1.182-11.2-2.588-32.351-4.585-43.449-.675-3.752-1.519-7.48-2.456-11.175-.377-1.487-.8-2.958-1.245-4.425-.084-.274-.228-.86-.337-1.232l-.022-.07z" class="cls-31" transform="translate(807.028 -342.462)"/>
                                <path id="패스_2618" d="M-767.625 574.308c2.69-.619 7.264-1.673 10.524-2.041a9.772 9.772 0 0 1 3.129-.017 8.688 8.688 0 0 1 3.958 2.739c8.877 9.5 15.685 21.243 23.615 31.535a.259.259 0 0 0 .362.047.258.258 0 0 0 .047-.362c-7.942-10.305-14.759-22.06-23.648-31.572a9.184 9.184 0 0 0-4.2-2.884 10.253 10.253 0 0 0-3.323 0c-3.278.371-7.877 1.429-10.582 2.052a.258.258 0 0 0-.194.309.258.258 0 0 0 .31.193z" class="cls-31" transform="translate(809.841 -370.518)"/>
                                <path id="패스_2619" d="M-712.751 494.333a3.909 3.909 0 0 0-.361.286c-.3.276-.726.706-1.238 1.258-3.831 4.125-12.67 14.987-15.335 19.567-1.306 2.245-2.509 4.537-3.691 6.849-.5.974-1.01 1.945-1.451 2.946a.257.257 0 0 1-.34.131.258.258 0 0 1-.132-.34c.445-1.01.961-1.99 1.463-2.972 1.187-2.32 2.395-4.62 3.706-6.874 2.677-4.6 11.553-15.515 15.4-19.659a13.171 13.171 0 0 1 1.659-1.606.526.526 0 0 1 .317-.107 3.852 3.852 0 0 1 1.265.5 48.127 48.127 0 0 1 5.259 3.634c7.242 5.533 17.926 15.006 19.422 17.605a.259.259 0 0 1-.095.352.258.258 0 0 1-.352-.1c-1.485-2.579-12.1-11.962-19.289-17.453a47.672 47.672 0 0 0-5.193-3.592 3.729 3.729 0 0 0-1.019-.433z" class="cls-31" transform="translate(799.663 -346.239)"/>
                                <path id="패스_2620" d="M-681.152 498.491l.382-.484c2.264-2.856 13.86-17.4 18.448-21.54a.258.258 0 0 1 .364.019.257.257 0 0 1-.019.364c-4.573 4.128-16.132 18.631-18.389 21.478l-.382.483c-.116.146-.226.062-.3-.056-.117-.045-.2-.123-.111-.252l.009-.011z" class="cls-31" transform="translate(782.776 -340.806)"/>
                                <path id="패스_2621" d="M-672.435 489.166a.258.258 0 0 1-.1.328.258.258 0 0 1-.356-.079.481.481 0 0 1-.065-.3 2.114 2.114 0 0 1 .258-.723c.815-1.585 3.737-5.373 8.118-10.655a.258.258 0 0 1 .363-.034.257.257 0 0 1 .034.363 119.989 119.989 0 0 0-7.666 9.887A5.735 5.735 0 0 0-672.4 489a1 1 0 0 0-.036.162z" class="cls-31" transform="translate(780.202 -341.195)"/>
                                <path id="패스_2622" d="M-734.064 541.649c2.893 1.63 12.61 6.017 15.228 8.061 3.258 2.544 8.36 8.2 13.23 12.626 3.288 2.992 6.479 5.422 8.934 6.012a3.013 3.013 0 0 0 2.013-.507 22.352 22.352 0 0 0 4.075-3.23c5.921-5.612 13.833-15.855 15.466-18.25a.259.259 0 0 0-.068-.358.259.259 0 0 0-.358.068c-1.626 2.385-9.5 12.58-15.395 18.167a21.812 21.812 0 0 1-3.97 3.153 2.529 2.529 0 0 1-1.643.458c-2.4-.577-5.5-2.972-8.708-5.893-4.88-4.439-9.994-10.1-13.259-12.652-2.629-2.052-12.386-6.466-15.292-8.1a.258.258 0 0 0-.352.1.258.258 0 0 0 .1.351z" class="cls-31" transform="translate(799.312 -361.015)"/>
                                <path id="패스_2623" d="M-968.866 616.463h358.691l33.745 73.572v9.776h-426.18v-9.776l33.745-73.572z" class="cls-29" transform="translate(883.065 -384.509)"/>
                                <path id="패스_2624" d="M-1000.858 723.7l422.536.667a.373.373 0 0 0 .411-.314.371.371 0 0 0-.408-.315l-422.537-.667a.373.373 0 0 0-.41.314.371.371 0 0 0 .409.315z" class="cls-28" transform="translate(882.645 -417.774)"/>
                                <path id="패스_2625" d="M-520.833 453.216c-34.034 0-78.3 36.3-98.8 81.01s-9.5 81.01 24.532 81.01 78.3-36.3 98.8-81.01 9.5-81.01-24.531-81.01z" class="cls-32" transform="translate(766.783 -333.572)"/>
                                <path id="패스_2626" d="M-522.635 448.244c-14.257 0-30.28 5.969-45.688 16.264-22.534 15.058-43.843 39.349-56.4 66.742-10.643 23.219-12.94 44.28-8.328 59.51 4.937 16.3 17.489 26.345 36.408 26.345 14.257 0 30.281-5.968 45.688-16.264 22.534-15.057 43.844-39.348 56.4-66.741 10.643-23.219 12.94-44.28 8.328-59.511-4.937-16.3-17.49-26.345-36.408-26.345zm.258 6.841c15.116 0 25.075 8.107 29.02 21.132 4.269 14.1 1.815 33.541-8.036 55.033-12.037 26.26-32.438 49.566-54.04 64-14.017 9.367-28.5 15.014-41.466 15.014-15.115 0-25.075-8.107-29.02-21.132-4.269-14.1-1.815-33.541 8.036-55.033 12.036-26.26 32.438-49.566 54.04-64 14.017-9.367 28.5-15.014 41.465-15.014z" class="cls-24" transform="translate(768.456 -332.021)"/>
                                <path id="패스_2627" fill="#89bfc1" fill-rule="evenodd" d="M-844.715 611.354c.3.307-3.206 5.582-3.391 5.889-8.992 14.928-22.045 50.631-27.658 67.221-2.061 6.092-1.984 40.161-.294 52.994.844 6.408 25.514 2.616 31.326 2.684 11.673.136 22.587 4.918 34.15 5.367 7.3.284 13.743-2.257 20.754-3.728 3.771-.79 8.512-.258 12.066-1.71 2.849-1.164 4.611-48.873 5.048-52.086 3.04-22.345 8.154-49.1 13.739-74.539.487-2.218-62.564-1.363-85.739-2.092z" transform="translate(843.97 -382.915)"/>
                                <path id="패스_2628" d="M-830.084 622.522s-.841-5.03 11.1-5.509c11.788-.473 12.842 4.653 12.842 4.653s-1.222 18.656-2.857 21.055c-2.491 3.654-13.814 3.315-16.74.658-2.357-2.14-4.34-20.857-4.34-20.857z" class="cls-29" transform="translate(829.236 -384.671)"/>
                                <path id="패스_2629" d="M-828.255 622.042a1.694 1.694 0 0 1 .5-1.124 5.071 5.071 0 0 1 1.487-1.066 20.568 20.568 0 0 1 8.754-1.647 20.566 20.566 0 0 1 8.753 1.647 5.064 5.064 0 0 1 1.487 1.066 1.7 1.7 0 0 1 .5 1.124.252.252 0 0 0 .251.252.251.251 0 0 0 .251-.252c0-.975-.817-1.907-2.259-2.638a21.078 21.078 0 0 0-8.981-1.7 21.077 21.077 0 0 0-8.981 1.7c-1.441.731-2.259 1.663-2.259 2.638a.252.252 0 0 0 .252.252.252.252 0 0 0 .251-.252z" class="cls-34" transform="translate(828.818 -384.896)"/>
                                <path id="패스_2630" d="M-819.8 631.152c-.6-.557-6.828-24.892-7.648-26.856-.014-.035 3.7-.7 3.809-.1.474 2.661 7.242 25.651 7.154 26.059-.076.349-2.865.972-3.315.892z" class="cls-28" transform="translate(828.409 -380.604)"/>
                                <path id="패스_2631" d="M-829.946 599.234s-4.344-4.731-4.572-6.47c-.221-1.693 1.81-3.529 3.206-3.965s4.313-.194 5.177 1.347c.877 1.567.09 8.057.09 8.057l-3.9 1.032z" class="cls-29" transform="translate(830.62 -375.817)"/>
                                <path id="패스_2632" d="M-826.873 606.6l-1.585-3.7 4.51-1.1.537 3.953-3.463.844z" class="cls-30" transform="translate(828.724 -379.934)"/>
                                <path id="패스_2633" d="M-829.681 599.451l-3.851-6.678a.258.258 0 0 0-.351-.1.258.258 0 0 0-.095.352l3.85 6.678a.258.258 0 0 0 .352.094.258.258 0 0 0 .1-.352z" class="cls-30" transform="translate(830.457 -377.077)"/>
                                <path id="패스_2634" d="M-828.338 598.627l-3.443-7.87a.258.258 0 0 0-.339-.133.258.258 0 0 0-.134.339l3.444 7.87a.258.258 0 0 0 .34.133.258.258 0 0 0 .133-.339z" class="cls-30" transform="translate(829.916 -376.44)"/>
                                <path id="패스_2635" d="M-826.655 598.045l-2.845-8.62a.258.258 0 0 0-.326-.164.258.258 0 0 0-.164.326l2.845 8.62a.258.258 0 0 0 .325.164.258.258 0 0 0 .164-.325z" class="cls-30" transform="translate(829.206 -376.017)"/>
                                <path id="패스_2636" d="M-825.055 597.8l-2.061-8.58a.258.258 0 0 0-.311-.19.258.258 0 0 0-.191.311l2.061 8.58a.258.258 0 0 0 .311.191.257.257 0 0 0 .19-.311z" class="cls-30" transform="translate(828.464 -375.948)"/>
                                <path id="패스_2637" d="M-823.213 597.772l-.863-7.851a.258.258 0 0 0-.284-.228.257.257 0 0 0-.229.284l.864 7.85a.258.258 0 0 0 .284.229.258.258 0 0 0 .228-.285z" class="cls-30" transform="translate(827.517 -376.156)"/>
                                <path id="패스_2638" d="M-828.084 605.5c1.518.953 1.668 2.689 1.9 4.008a8.294 8.294 0 0 1-.209 4.141 5.1 5.1 0 0 1-.8 1.382 5.764 5.764 0 0 0-.622 1 3.509 3.509 0 0 0-.094 2.384c1.726 5.489 3.136 9.959 4.922 15.263a.632.632 0 0 0 .8.4.632.632 0 0 0 .4-.8c-1.784-5.3-3.192-9.758-4.915-15.239a2.146 2.146 0 0 1 .03-1.461 19.978 19.978 0 0 0 1.459-2.476 9.587 9.587 0 0 0 .273-4.8c-.282-1.624-.6-3.69-2.471-4.863a.633.633 0 0 0-.871.2.632.632 0 0 0 .2.871z" class="cls-24" transform="translate(828.7 -380.725)"/>
                                <path id="패스_2639" d="M-829.851 605.605c-1.009-.4-3.484-.2-4.338.608s-.924 3.055-.787 4.225c.231 1.969.679 3.3 2.214 4.482.921.712 3.917.074 4.649-.891.571-.753.533-2.353.2-4.516-.235-1.54-.81-3.462-1.942-3.908z" class="cls-35" transform="translate(830.775 -381.06)"/>
                                <path id="패스_2640" d="M-802.228 630.77c-.421-.7.378-25.808.138-27.923 0-.038 3.75.357 3.686.968-.287 2.689-.192 26.654-.391 27.022-.169.313-3.022.134-3.432-.068z" class="cls-24" transform="translate(820.579 -380.26)"/>
                                <path id="패스_2641" d="M-804.337 598.249s-4.814-5.19-4.565-6.693 3.874-2.206 6.059-2.325c3.893-.211 6.95 1.473 7.228 2.312.48 1.447-4.688 6.8-4.688 6.8l-4.034-.1z" class="cls-36" transform="translate(822.625 -376.007)"/>
                                <path id="패스_2642" d="M-799.132 597.4l.088-7.6a.264.264 0 0 0-.261-.268.265.265 0 0 0-.267.262l-.089 7.6a.265.265 0 0 0 .261.268.265.265 0 0 0 .268-.261z" class="cls-37" transform="translate(819.739 -376.106)"/>
                                <path id="패스_2643" d="M-800.762 597.445l-.79-7.562a.265.265 0 0 0-.29-.236.265.265 0 0 0-.235.291l.79 7.562a.264.264 0 0 0 .29.235.264.264 0 0 0 .235-.29z" class="cls-37" transform="translate(820.493 -376.142)"/>
                                <path id="패스_2644" d="M-797.578 597.444l.79-7.562a.264.264 0 0 0-.235-.29.266.266 0 0 0-.291.235l-.79 7.563a.264.264 0 0 0 .235.29.265.265 0 0 0 .29-.235z" class="cls-37" transform="translate(819.253 -376.124)"/>
                                <path id="패스_2645" d="M-802.685 597.632l-1.78-7.121a.265.265 0 0 0-.321-.192.265.265 0 0 0-.193.321l1.781 7.121a.265.265 0 0 0 .321.192.265.265 0 0 0 .192-.321z" class="cls-37" transform="translate(821.4 -376.35)"/>
                                <path id="패스_2646" d="M-796.118 597.7l1.781-7.12a.265.265 0 0 0-.192-.321.264.264 0 0 0-.321.192l-1.781 7.12a.265.265 0 0 0 .192.321.265.265 0 0 0 .321-.193z" class="cls-37" transform="translate(818.796 -376.332)"/>
                                <path id="패스_2647" d="M-804.685 596.811l-2.437-5.338a.263.263 0 0 0-.349-.131.264.264 0 0 0-.131.35l2.436 5.338a.263.263 0 0 0 .35.13.263.263 0 0 0 .131-.35z" class="cls-37" transform="translate(822.224 -376.664)"/>
                                <path id="패스_2648" d="M-794.447 596.973l2.437-5.338a.264.264 0 0 0-.131-.35.264.264 0 0 0-.35.131l-2.437 5.339a.265.265 0 0 0 .131.35.265.265 0 0 0 .35-.131z" class="cls-37" transform="translate(818.269 -376.646)"/>
                                <path id="패스_2649" d="M-802.245 605.587l-.69-3.892 4.955.125-.705 3.922-3.56-.155z" class="cls-30" transform="translate(820.76 -379.901)"/>
                                <path id="패스_2650" d="M-807.124 630.769c-.384-.588-.511-22.134-.785-23.94-.005-.032 3.226.186 3.19.711-.159 2.314.7 22.853.539 23.174-.135.275-2.586.213-2.944.054z" class="cls-28" transform="translate(822.312 -381.503)"/>
                                <path id="패스_2651" d="M-808.564 604.087l-.857-5.124 4.549 1.237-.231 3.839-3.461.049z" class="cls-29" transform="translate(822.784 -379.049)"/>
                                <path id="패스_2652" d="M-807.98 609.145l-.551-3.409 3.982.025-.374 3.4-3.057-.017z" class="cls-30" transform="translate(822.507 -381.162)"/>
                                <path id="패스_2653" d="M-812.414 620.426c-.2-.283-2.212-31.687-2.391-32.577 0-.016 1.607.018 1.6.279-.026 1.152 2.322 32.04 2.25 32.2a3.3 3.3 0 0 1-1.46.095z" class="cls-28" transform="translate(824.465 -375.58)"/>
                                <path id="패스_2654" d="M-815.567 585.615s-1.419-2.342-1.368-3.088c.049-.726 1.053-1.323 1.673-1.388s1.818.281 2.05 1-.639 3.374-.639 3.374l-1.716.1z" class="cls-28" transform="translate(825.129 -373.485)"/>
                                <path id="패스_2655" d="M-814.578 581.465l.253 3.6a.265.265 0 0 0 .282.245.265.265 0 0 0 .246-.282l-.254-3.6a.265.265 0 0 0-.282-.245.264.264 0 0 0-.245.282z" class="cls-36" transform="translate(824.394 -373.501)"/>
                                <path id="패스_2656" d="M-816.29 582.44l.779 2.994a.264.264 0 0 0 .322.189.265.265 0 0 0 .189-.323l-.778-2.994a.265.265 0 0 0-.323-.189.264.264 0 0 0-.189.322z" class="cls-36" transform="translate(824.93 -373.79)"/>
                                <path id="패스_2657" d="M-813.007 582.01l-.222 3.143a.264.264 0 0 0 .245.282.264.264 0 0 0 .283-.245l.222-3.142a.265.265 0 0 0-.245-.282.264.264 0 0 0-.282.245z" class="cls-36" transform="translate(823.972 -373.683)"/>
                                <path id="패스_2658" d="M-814.786 588.964l-.352-1.679 1.977-.079-.107 1.7-1.517.062z" class="cls-30" transform="translate(824.568 -375.38)"/>
                                <path id="패스_2659" d="M-815.143 621.363c-.225-.266-4.673-31.419-4.92-32.292 0-.015 1.6-.107 1.617.154.065 1.15 4.81 31.762 4.752 31.93a3.316 3.316 0 0 1-1.449.208z" class="cls-32" transform="translate(826.105 -375.954)"/>
                                <path id="패스_2660" d="M-820.479 587.713l-.535-2.5 2.2.376.126 1.925-1.787.2z" class="cls-28" transform="translate(826.402 -374.76)"/>
                                <path id="패스_2661" d="M-819.923 590.121l-.409-1.665 1.869-.221.047 1.707-1.508.18z" class="cls-30" transform="translate(826.189 -375.701)"/>
                                <path id="패스_2662" d="M-800.983 633.3c.226-.266 4.674-31.419 4.92-32.292 0-.015-1.6-.107-1.616.154-.064 1.15-4.81 31.762-4.752 31.93a3.315 3.315 0 0 0 1.448.208z" class="cls-29" transform="translate(820.603 -379.679)"/>
                                <path id="패스_2663" d="M-793.811 599.653l.534-2.5-2.2.376-.127 1.924 1.788.2z" class="cls-28" transform="translate(818.471 -378.486)"/>
                                <path id="패스_2664" d="M-794.184 602.061l.409-1.666-1.87-.221-.048 1.707 1.508.18z" class="cls-30" transform="translate(818.501 -379.427)"/>
                                <path id="패스_2665" d="M-830.078 624.646A25.058 25.058 0 0 0-818 628.2c8.683.223 11.861-4.41 11.861-4.41s-1.222 18.656-2.857 21.055c-2.491 3.654-13.814 3.315-16.74.658-2.357-2.14-4.34-20.857-4.34-20.857z" class="cls-29" transform="translate(829.23 -386.796)"/>
                                <path id="패스_2666" d="M-806.78 623.9a1.7 1.7 0 0 1-.5 1.124 5.062 5.062 0 0 1-1.487 1.066 20.563 20.563 0 0 1-8.753 1.647 20.565 20.565 0 0 1-8.754-1.647 5.069 5.069 0 0 1-1.487-1.066 1.693 1.693 0 0 1-.5-1.124.252.252 0 0 0-.251-.251.252.252 0 0 0-.252.251c0 .976.818 1.907 2.259 2.638a21.081 21.081 0 0 0 8.981 1.7 21.083 21.083 0 0 0 8.981-1.7c1.441-.731 2.259-1.663 2.259-2.638a.251.251 0 0 0-.251-.251.251.251 0 0 0-.251.251z" class="cls-34" transform="translate(828.818 -386.751)"/>
                                <path id="패스_2667" d="M-820.226 667.552c-.924-.9-.692-6.109-.025-7.255 2.7-4.641 16.655-4.228 20.919-1.276 2.224 1.54 1.472 6.909.684 7.892-1.048 1.307-5.6 2.479-10.649 2.682-4.816.195-9.956-1.093-10.928-2.045z" class="cls-35" transform="translate(826.346 -397.097)"/>
                                <path id="패스_2668" d="M-815.937 664.55a.659.659 0 0 0 .41-.572.642.642 0 0 0-.422-.568 3.549 3.549 0 0 0-1.924-.233c-.2.047-.279.153-.294.259a.433.433 0 0 0 .138.337 3.18 3.18 0 0 0 1.2.692 1.625 1.625 0 0 0 .873.1l.026-.01zm-.118-.266a.372.372 0 0 0 .238-.306c0-.119-.091-.228-.255-.3a3.2 3.2 0 0 0-1.735-.215.35.35 0 0 0-.071.028.273.273 0 0 0 .018.035.57.57 0 0 0 .071.085 1.335 1.335 0 0 0 .142.121 3.4 3.4 0 0 0 1.026.5 1.187 1.187 0 0 0 .566.057z" class="cls-34" transform="translate(825.514 -399.07)"/>
                                <path id="패스_2669" d="M-797.129 669.845a.658.658 0 0 0-.145.689.639.639 0 0 0 .615.349 3.537 3.537 0 0 0 1.854-.561.331.331 0 0 0 .166-.356.435.435 0 0 0-.262-.253 3.191 3.191 0 0 0-1.372-.151 1.64 1.64 0 0 0-.837.264l-.019.019zm2.2.193a.26.26 0 0 0-.03-.026.486.486 0 0 0-.1-.048 1.335 1.335 0 0 0-.178-.054 3.388 3.388 0 0 0-1.14-.044 1.2 1.2 0 0 0-.542.176.373.373 0 0 0-.094.376.365.365 0 0 0 .355.176 3.218 3.218 0 0 0 1.676-.5.375.375 0 0 0 .053-.054z" class="cls-34" transform="translate(819.008 -401.073)"/>
                                <path id="패스_2670" d="M-807.514 671.511a.66.66 0 0 0-.146.689.643.643 0 0 0 .616.349 3.542 3.542 0 0 0 1.855-.561.331.331 0 0 0 .166-.356.434.434 0 0 0-.262-.253 3.186 3.186 0 0 0-1.372-.152 1.634 1.634 0 0 0-.837.263l-.019.019zm2.2.193a.219.219 0 0 0-.03-.025.53.53 0 0 0-.1-.049 1.219 1.219 0 0 0-.179-.054 3.4 3.4 0 0 0-1.14-.045 1.2 1.2 0 0 0-.541.176.373.373 0 0 0-.094.375.366.366 0 0 0 .356.176 3.2 3.2 0 0 0 1.675-.5.321.321 0 0 0 .054-.054z" class="cls-34" transform="translate(822.249 -401.593)"/>
                                <path id="패스_2671" d="M-803.822 658.96a.661.661 0 0 0-.146.689.643.643 0 0 0 .616.349 3.546 3.546 0 0 0 1.855-.561.331.331 0 0 0 .166-.356.433.433 0 0 0-.262-.252 3.178 3.178 0 0 0-1.372-.152 1.629 1.629 0 0 0-.837.264l-.02.019zm2.2.193a.236.236 0 0 0-.03-.025.52.52 0 0 0-.1-.048 1.31 1.31 0 0 0-.178-.054 3.39 3.39 0 0 0-1.141-.044 1.2 1.2 0 0 0-.541.175.373.373 0 0 0-.094.376.367.367 0 0 0 .356.176 3.2 3.2 0 0 0 1.675-.5.315.315 0 0 0 .054-.054z" class="cls-34" transform="translate(821.097 -397.677)"/>
                                <path id="패스_2672" d="M-811.845 667.334a.15.15 0 0 0-.018.034.779.779 0 0 0 .031.581.743.743 0 0 0 .413.41 1.228 1.228 0 0 0 .689.023.764.764 0 0 0 .388-.224.3.3 0 0 0 .047-.325.874.874 0 0 0-.338-.35 1.766 1.766 0 0 0-.882-.293.41.41 0 0 0-.33.145zm.244.163a.5.5 0 0 0 .035.336.452.452 0 0 0 .244.253.93.93 0 0 0 .519.015.471.471 0 0 0 .242-.133c.013-.015 0-.032-.014-.052a.723.723 0 0 0-.214-.192 1.6 1.6 0 0 0-.634-.242.432.432 0 0 0-.145 0 .109.109 0 0 0-.033.011z" class="cls-34" transform="translate(823.56 -400.337)"/>
                                <path id="패스_2673" d="M-805.394 668.4a.121.121 0 0 0-.018.034.779.779 0 0 0 .031.581.743.743 0 0 0 .414.41 1.231 1.231 0 0 0 .689.023.766.766 0 0 0 .388-.224.3.3 0 0 0 .047-.326.878.878 0 0 0-.338-.35 1.77 1.77 0 0 0-.883-.292.407.407 0 0 0-.329.145zm.244.163a.5.5 0 0 0 .034.336.447.447 0 0 0 .244.252.92.92 0 0 0 .519.016.483.483 0 0 0 .242-.133c.013-.016 0-.033-.015-.052a.723.723 0 0 0-.214-.192 1.611 1.611 0 0 0-.634-.243.427.427 0 0 0-.144 0 .106.106 0 0 0-.033.011z" class="cls-34" transform="translate(821.547 -400.671)"/>
                                <path id="패스_2674" d="M-819.168 670.7a.13.13 0 0 0-.019.035.784.784 0 0 0 .032.58.741.741 0 0 0 .413.41 1.234 1.234 0 0 0 .689.023.762.762 0 0 0 .388-.224.3.3 0 0 0 .048-.326.884.884 0 0 0-.338-.35 1.767 1.767 0 0 0-.883-.293.408.408 0 0 0-.329.145zm.244.163a.5.5 0 0 0 .034.335.447.447 0 0 0 .244.253.921.921 0 0 0 .519.016.467.467 0 0 0 .243-.133c.013-.016 0-.032-.015-.052a.72.72 0 0 0-.214-.192 1.6 1.6 0 0 0-.633-.242.438.438 0 0 0-.144 0 .1.1 0 0 0-.033.011z" class="cls-34" transform="translate(825.845 -401.387)"/>
                                <path id="패스_2675" d="M-812.793 658.04a.125.125 0 0 0-.019.035.781.781 0 0 0 .031.581.747.747 0 0 0 .413.41 1.231 1.231 0 0 0 .689.022.768.768 0 0 0 .388-.224.3.3 0 0 0 .048-.326.881.881 0 0 0-.338-.35 1.776 1.776 0 0 0-.883-.293.409.409 0 0 0-.329.145zm.244.164a.5.5 0 0 0 .034.335.45.45 0 0 0 .244.253.924.924 0 0 0 .518.016.476.476 0 0 0 .242-.133c.014-.016 0-.033-.014-.052a.716.716 0 0 0-.215-.192 1.6 1.6 0 0 0-.634-.243.433.433 0 0 0-.144 0 .1.1 0 0 0-.033.012z" class="cls-34" transform="translate(823.855 -397.437)"/>
                                <path id="패스_2676" d="M-790.872 660.387a.19.19 0 0 0-.019.035.784.784 0 0 0 .031.581.744.744 0 0 0 .413.41 1.237 1.237 0 0 0 .69.023.771.771 0 0 0 .388-.224.3.3 0 0 0 .047-.326.873.873 0 0 0-.338-.35 1.78 1.78 0 0 0-.883-.293.413.413 0 0 0-.33.145zm.243.164a.5.5 0 0 0 .035.335.445.445 0 0 0 .244.253.923.923 0 0 0 .519.016.475.475 0 0 0 .242-.133c.014-.016 0-.032-.014-.052a.724.724 0 0 0-.214-.192 1.6 1.6 0 0 0-.634-.243.447.447 0 0 0-.144 0 .142.142 0 0 0-.034.012z" class="cls-34" transform="translate(817.015 -398.17)"/>
                                <path id="패스_2677" d="M-800.982 660.455a.12.12 0 0 0-.019.035.779.779 0 0 0 .031.58.742.742 0 0 0 .413.41 1.226 1.226 0 0 0 .689.022.762.762 0 0 0 .388-.224.3.3 0 0 0 .048-.326.885.885 0 0 0-.338-.349 1.768 1.768 0 0 0-.883-.293.409.409 0 0 0-.329.145zm.243.163a.5.5 0 0 0 .035.336.447.447 0 0 0 .244.252.919.919 0 0 0 .519.016.468.468 0 0 0 .242-.133c.014-.016 0-.032-.014-.052a.713.713 0 0 0-.214-.192 1.6 1.6 0 0 0-.634-.242.433.433 0 0 0-.144 0 .115.115 0 0 0-.033.011z" class="cls-34" transform="translate(820.17 -398.191)"/>
                                <path id="패스_2678" d="M-791.538 669.6a.135.135 0 0 0-.019.034.782.782 0 0 0 .032.581.743.743 0 0 0 .414.409 1.223 1.223 0 0 0 .689.023.764.764 0 0 0 .388-.224.3.3 0 0 0 .047-.326.875.875 0 0 0-.338-.349 1.764 1.764 0 0 0-.883-.293.407.407 0 0 0-.329.145zm.243.163a.508.508 0 0 0 .034.335.449.449 0 0 0 .244.253.92.92 0 0 0 .519.016.463.463 0 0 0 .242-.133c.014-.016 0-.032-.014-.051a.716.716 0 0 0-.214-.192 1.6 1.6 0 0 0-.634-.242.42.42 0 0 0-.144 0 .117.117 0 0 0-.034.011z" class="cls-34" transform="translate(817.224 -401.043)"/>
                                <path id="패스_2679" d="M-808.257 666.855a.146.146 0 0 0-.117-.168.145.145 0 0 0-.168.118.145.145 0 0 0 .118.168.145.145 0 0 0 .169-.117z" class="cls-34" transform="translate(822.511 -400.179)"/>
                                <path id="패스_2680" d="M-813.318 664.1a.145.145 0 0 1-.137-.151.146.146 0 0 1 .152-.138h.012a.145.145 0 0 1 .131.158.144.144 0 0 1-.157.131zm0 0z" class="cls-34" transform="translate(824.043 -399.284)"/>
                                <path id="패스_2681" d="M-815.572 669.234a.146.146 0 0 0 .086-.187.145.145 0 0 0-.187-.084.144.144 0 0 0-.085.186.145.145 0 0 0 .186.085z" class="cls-34" transform="translate(824.765 -400.888)"/>
                                <path id="패스_2682" d="M-818.516 661.34a.145.145 0 0 1-.182.068.145.145 0 0 1-.08-.188.145.145 0 0 1 .039-.057.145.145 0 0 1 .2.011.144.144 0 0 1 .019.166z" class="cls-34" transform="translate(825.707 -398.445)"/>
                                <path id="패스_2683" d="M-804.589 658.188a.147.147 0 0 1-.072.116.146.146 0 0 1-.2-.054.135.135 0 0 1-.02-.072.143.143 0 0 1 .013-.063.146.146 0 0 1 .192-.073.146.146 0 0 1 .085.145zm0 .01a.2.2 0 0 1-.008.03.151.151 0 0 0 .008-.03zm-.013-.084a.135.135 0 0 1 .012.041.114.114 0 0 0-.012-.041z" class="cls-34" transform="translate(821.367 -397.48)"/>
                                <path id="패스_2684" d="M-793.781 660.364a.145.145 0 0 0-.084.187.144.144 0 0 0 .186.084l.018-.008a.145.145 0 0 0 .075-.19.145.145 0 0 0-.191-.075z" class="cls-34" transform="translate(817.935 -398.204)"/>
                                <path id="패스_2685" d="M-790.1 666.291v.005a.146.146 0 0 0 .008.205.145.145 0 0 0 .2-.008l.008-.009a.144.144 0 0 0-.011-.2.145.145 0 0 0-.2.011z" class="cls-34" transform="translate(816.77 -400.042)"/>
                                <path id="패스_2686" d="M-798.673 667.752a.145.145 0 0 0 .065-.195.146.146 0 0 0-.195-.065.144.144 0 0 0-.065.195.145.145 0 0 0 .194.065z" class="cls-34" transform="translate(819.496 -400.427)"/>
                                <path id="패스_2687" d="M-799.708 673.177a.145.145 0 0 1 .1.016.135.135 0 0 1 .026.018.145.145 0 0 1 .017.2.132.132 0 0 1-.131.05.357.357 0 0 1-.1-.06l.01.012a.144.144 0 0 1 .01-.2.151.151 0 0 1 .041-.026l.024-.008zm.033 0a.136.136 0 0 0-.033 0 .155.155 0 0 0-.024.008.152.152 0 0 0-.052.042.144.144 0 0 1 .113-.052z" class="cls-34" transform="translate(819.79 -402.205)"/>
                                <path id="패스_2688" d="M-808.193 674.274a.145.145 0 0 0 .2.06.144.144 0 0 0 .06-.2.144.144 0 0 0-.2-.06.145.145 0 0 0-.06.2z" class="cls-34" transform="translate(822.406 -402.481)"/>
                                <path id="패스_2689" d="M-806.254 659.23a.145.145 0 0 0 .013.2.146.146 0 0 0 .2-.013.145.145 0 0 0-.013-.2.144.144 0 0 0-.2.013z" class="cls-34" transform="translate(821.808 -397.838)"/>
                                <path id="패스_2690" d="M-792.05 672.554a.143.143 0 0 1-.08.053.146.146 0 0 1-.176-.107c-.009-.038.053-.151.053-.151a.378.378 0 0 0-.026.028.145.145 0 0 1 .2-.031.145.145 0 0 1 .032.2l-.006.006z" class="cls-34" transform="translate(817.444 -401.937)"/>
                                <path id="패스_2691" d="M-796.512 663.657a.145.145 0 0 1-.16-.052.145.145 0 0 1 .031-.2.135.135 0 0 1 .083-.031.146.146 0 0 1 .156.134.145.145 0 0 1-.09.145l-.02.007zm.02-.007l.023-.014a.139.139 0 0 1-.034.018.121.121 0 0 1-.034.007h.041z" class="cls-34" transform="translate(818.815 -399.146)"/>
                                <path id="패스_2692" d="M-804.472 666.034a.146.146 0 0 1-.147.035.145.145 0 0 1-.093-.182.119.119 0 0 1 .063-.082.144.144 0 0 1 .2.045.144.144 0 0 1 .008.142.089.089 0 0 1-.031.043zm.031-.043l.005-.016a.125.125 0 0 1-.014.03.13.13 0 0 1-.044.044l.021-.015a.117.117 0 0 0 .023-.029v-.012z" class="cls-34" transform="translate(821.317 -399.898)"/>
                                <path id="패스_2693" d="M-814.416 660.486v.006a.145.145 0 0 0 .145.144.145.145 0 0 0 .145-.144v-.006a.146.146 0 0 0-.145-.145.145.145 0 0 0-.145.145z" class="cls-34" transform="translate(824.343 -398.201)"/>
                                <path id="패스_2694" d="M-818.986 669.4a.143.143 0 0 1 .14-.062.144.144 0 0 1 .124.163.111.111 0 0 1-.036.079.145.145 0 0 1-.2.014.145.145 0 0 1-.043-.15.075.075 0 0 1 .021-.043zm-.01.017a.184.184 0 0 1 .019-.029l-.009.012-.01.017a.178.178 0 0 0-.01.026v.017a.162.162 0 0 1 .013-.043z" class="cls-34" transform="translate(825.777 -401.006)"/>
                                <path id="패스_2695" d="M-812.781 673.476a.151.151 0 0 1-.008-.047.145.145 0 0 1 .145-.145.118.118 0 0 1 .1.045.427.427 0 0 1 .04.111.136.136 0 0 0 0-.017.144.144 0 0 1-.126.151.162.162 0 0 1-.041 0 .111.111 0 0 1-.076-.038.126.126 0 0 1-.034-.05v-.01zm.035.056a.145.145 0 0 0 .076.038h.015a.142.142 0 0 1-.094-.042z" class="cls-34" transform="translate(823.835 -402.239)"/>
                                <path id="패스_2696" d="M-808.231 663.636a.146.146 0 0 1-.145.062.146.146 0 0 1-.118-.167.1.1 0 0 1 .025-.061.145.145 0 0 1 .2-.043.145.145 0 0 1 .06.163.09.09 0 0 1-.02.042zm.02-.042v-.015a.159.159 0 0 1-.01.034.15.15 0 0 1-.01.018v.006a.1.1 0 0 0 .013-.023.183.183 0 0 0 .007-.019z" class="cls-34" transform="translate(822.496 -399.158)"/>
                                <path id="패스_2697" d="M-796.674 658.812a.146.146 0 0 0-.2.023.145.145 0 0 0 .024.2.145.145 0 0 0 .2-.024.145.145 0 0 0-.024-.2z" class="cls-34" transform="translate(818.88 -397.714)"/>
                                <path id="패스_2698" d="M-819.182 666.42a.608.608 0 0 1-.425-.226 1.173 1.173 0 0 1-.275-.708.544.544 0 0 1 .18-.45.492.492 0 0 1 .355-.093 1 1 0 0 1 .487.2 4.4 4.4 0 0 0 .363.252 2.855 2.855 0 0 0 .5.161.881.881 0 0 1 .528.355.383.383 0 0 1 .054.356.393.393 0 0 1-.248.21 3.733 3.733 0 0 1-1.515-.054zm.063-.283a.124.124 0 0 0-.043-.005.285.285 0 0 1-.188-.089.828.828 0 0 1-.222-.412.587.587 0 0 1-.012-.244.189.189 0 0 1 .068-.126.223.223 0 0 1 .147-.028.713.713 0 0 1 .346.147c.13.089.255.194.388.268a3.088 3.088 0 0 0 .55.184.6.6 0 0 1 .365.229.274.274 0 0 1 .032.07v.026a.1.1 0 0 1-.055.037.688.688 0 0 1-.182.043 4 4 0 0 1-1.2-.1z" class="cls-34" transform="translate(826.048 -399.636)"/>
                                <path id="패스_2699" d="M-814.115 668.592a.606.606 0 0 1-.184-.445 1.174 1.174 0 0 1 .237-.721.546.546 0 0 1 .425-.232.492.492 0 0 1 .333.154.994.994 0 0 1 .251.461 4.358 4.358 0 0 0 .12.425 2.773 2.773 0 0 0 .28.44.873.873 0 0 1 .181.61.381.381 0 0 1-.183.309.4.4 0 0 1-.326 0 3.721 3.721 0 0 1-1.135-1zm.228-.179a.155.155 0 0 0-.03-.032.277.277 0 0 1-.089-.188.833.833 0 0 1 .089-.46.61.61 0 0 1 .146-.2.187.187 0 0 1 .134-.054.213.213 0 0 1 .131.071.711.711 0 0 1 .173.333c.044.153.074.312.13.453a3.071 3.071 0 0 0 .307.492.6.6 0 0 1 .136.409.272.272 0 0 1-.019.074c0 .009-.008.017-.016.021a.1.1 0 0 1-.065-.006.7.7 0 0 1-.169-.082 3.985 3.985 0 0 1-.86-.836z" class="cls-34" transform="translate(824.307 -400.339)"/>
                                <path id="패스_2700" d="M-804.638 662.541a.61.61 0 0 1-.427-.224 1.174 1.174 0 0 1-.279-.706.543.543 0 0 1 .178-.45.49.49 0 0 1 .354-.1 1 1 0 0 1 .488.194 4.231 4.231 0 0 0 .365.25 2.739 2.739 0 0 0 .5.159.878.878 0 0 1 .529.353.38.38 0 0 1 .056.355.389.389 0 0 1-.247.21 3.723 3.723 0 0 1-1.515-.045zm.061-.284a.132.132 0 0 0-.044-.005.283.283 0 0 1-.188-.087.833.833 0 0 1-.225-.411.61.61 0 0 1-.013-.244.189.189 0 0 1 .068-.126.219.219 0 0 1 .147-.029.713.713 0 0 1 .347.145 4.706 4.706 0 0 0 .389.265 3.136 3.136 0 0 0 .551.182.6.6 0 0 1 .367.227.3.3 0 0 1 .032.069c0 .01.005.019 0 .026a.1.1 0 0 1-.054.037.689.689 0 0 1-.182.045 3.988 3.988 0 0 1-1.2-.092z" class="cls-34" transform="translate(821.512 -398.426)"/>
                                <path id="패스_2701" d="M-792.292 663.343a.61.61 0 0 1-.427-.224 1.172 1.172 0 0 1-.279-.706.546.546 0 0 1 .178-.45.489.489 0 0 1 .354-.1 1.007 1.007 0 0 1 .488.194 4.221 4.221 0 0 0 .365.25 2.855 2.855 0 0 0 .5.159.877.877 0 0 1 .529.352.384.384 0 0 1 .056.355.394.394 0 0 1-.247.211 3.727 3.727 0 0 1-1.515-.045zm.061-.284a.151.151 0 0 0-.043-.006.281.281 0 0 1-.189-.087.832.832 0 0 1-.225-.411.594.594 0 0 1-.013-.244.186.186 0 0 1 .067-.126.218.218 0 0 1 .146-.03.712.712 0 0 1 .347.145c.131.089.255.193.389.266a3.1 3.1 0 0 0 .551.181.6.6 0 0 1 .367.228.278.278 0 0 1 .032.069v.025a.1.1 0 0 1-.054.037.68.68 0 0 1-.181.045 3.975 3.975 0 0 1-1.2-.092z" class="cls-34" transform="translate(817.66 -398.676)"/>
                                <path id="패스_2702" d="M-798.1 672.7a.609.609 0 0 1-.426-.223 1.176 1.176 0 0 1-.28-.707.544.544 0 0 1 .178-.45.489.489 0 0 1 .354-.1 1 1 0 0 1 .488.195c.123.083.239.182.365.25a2.754 2.754 0 0 0 .5.159.879.879 0 0 1 .53.352.385.385 0 0 1 .057.356.4.4 0 0 1-.248.211 3.729 3.729 0 0 1-1.515-.046zm.062-.283a.152.152 0 0 0-.043-.006.279.279 0 0 1-.189-.087.841.841 0 0 1-.225-.411.6.6 0 0 1-.013-.244.194.194 0 0 1 .067-.127.218.218 0 0 1 .147-.029.712.712 0 0 1 .346.144 4.628 4.628 0 0 0 .39.266 3.106 3.106 0 0 0 .551.182.6.6 0 0 1 .366.227.25.25 0 0 1 .033.069.044.044 0 0 1 0 .026.1.1 0 0 1-.054.037.706.706 0 0 1-.182.045 4.009 4.009 0 0 1-1.2-.092z" class="cls-34" transform="translate(819.473 -401.595)"/>
                                <path id="패스_2703" d="M-808.691 657.968a.557.557 0 0 1 .21.441 1.642 1.642 0 0 1-.2.834c-.185.334-.471.493-.749.292a.738.738 0 0 1-.246-.347c-.065-.168-.1-.365-.169-.523a2.132 2.132 0 0 0-.292-.388.831.831 0 0 1-.209-.611.508.508 0 0 1 .164-.366.515.515 0 0 1 .512-.034 3.129 3.129 0 0 1 .977.7zm-.209.2a.135.135 0 0 0 .043.036c.064.035.08.123.086.222a1.328 1.328 0 0 1-.162.674.6.6 0 0 1-.15.189.135.135 0 0 1-.176.008.556.556 0 0 1-.174-.3 4.276 4.276 0 0 0-.147-.458 1.662 1.662 0 0 0-.264-.37.638.638 0 0 1-.212-.485.232.232 0 0 1 .059-.167.107.107 0 0 1 .071-.019.468.468 0 0 1 .157.034 2.717 2.717 0 0 1 .868.631z" class="cls-34" transform="translate(823.073 -397.226)"/>
                                <path id="패스_2704" d="M-819.97 662.491c1.2.975 4.114 1.707 7.5 1.97 5.036.391 11.1-.243 14.007-2.477a.271.271 0 0 0 .049-.381.272.272 0 0 0-.38-.049c-2.823 2.173-8.734 2.746-13.634 2.366-3.242-.252-6.045-.914-7.195-1.85a.271.271 0 0 0-.382.039.271.271 0 0 0 .039.382z" class="cls-29" transform="translate(826.107 -398.562)"/>
                                <path id="패스_2705" d="M-838.828 670.574c-1.249-.336-3.6-4.987-3.576-6.312.08-5.369 12.448-11.845 17.612-11.36 2.693.252 4.668 5.3 4.462 6.545-.27 1.653-3.67 4.907-7.97 7.553-4.1 2.528-9.215 3.924-10.529 3.571z" class="cls-35" transform="translate(833.076 -395.872)"/>
                                <path id="패스_2706" d="M-818.443 664.7a.659.659 0 0 0 .211.672.642.642 0 0 0 .707 0 3.549 3.549 0 0 0 1.343-1.4.331.331 0 0 0-.03-.391.436.436 0 0 0-.352-.092 3.176 3.176 0 0 0-1.27.54 1.628 1.628 0 0 0-.6.64l-.007.026zm2.016-.912a.277.277 0 0 0-.039-.007.556.556 0 0 0-.11.005 1.53 1.53 0 0 0-.182.041 3.408 3.408 0 0 0-1.015.52 1.2 1.2 0 0 0-.386.418.374.374 0 0 0 .1.374.367.367 0 0 0 .4-.021 3.2 3.2 0 0 0 1.214-1.258.439.439 0 0 0 .021-.073z" class="cls-34" transform="translate(825.605 -399.183)"/>
                                <path id="패스_2707" d="M-826.682 671.239a.659.659 0 0 0 .211.672.641.641 0 0 0 .708 0 3.548 3.548 0 0 0 1.343-1.4.331.331 0 0 0-.03-.392.437.437 0 0 0-.352-.092 3.19 3.19 0 0 0-1.271.54 1.626 1.626 0 0 0-.6.64l-.008.026zm2.016-.911a.21.21 0 0 0-.04-.007.513.513 0 0 0-.11.006 1.31 1.31 0 0 0-.181.04 3.4 3.4 0 0 0-1.017.52 1.2 1.2 0 0 0-.386.418.374.374 0 0 0 .1.374.366.366 0 0 0 .4-.021 3.2 3.2 0 0 0 1.214-1.258.358.358 0 0 0 .021-.073z" class="cls-34" transform="translate(828.175 -401.224)"/>
                                <path id="패스_2708" d="M-829.611 658.489a.657.657 0 0 0 .211.671.641.641 0 0 0 .707 0 3.546 3.546 0 0 0 1.343-1.4.333.333 0 0 0-.03-.391.434.434 0 0 0-.353-.092 3.179 3.179 0 0 0-1.27.539 1.634 1.634 0 0 0-.6.64l-.007.027zm2.016-.911a.156.156 0 0 0-.039-.008.558.558 0 0 0-.11.006 1.309 1.309 0 0 0-.182.04 3.416 3.416 0 0 0-1.016.52 1.2 1.2 0 0 0-.386.419.372.372 0 0 0 .1.374.366.366 0 0 0 .4-.021 3.2 3.2 0 0 0 1.214-1.258.5.5 0 0 0 .02-.072z" class="cls-34" transform="translate(829.089 -397.245)"/>
                                <path id="패스_2709" d="M-826.433 667.795a.135.135 0 0 0 0 .04.787.787 0 0 0 .312.491.746.746 0 0 0 .561.155 1.224 1.224 0 0 0 .612-.318.762.762 0 0 0 .229-.385.3.3 0 0 0-.118-.308.876.876 0 0 0-.467-.139 1.771 1.771 0 0 0-.913.177.409.409 0 0 0-.215.288zm.292.023a.5.5 0 0 0 .194.276.451.451 0 0 0 .336.1.928.928 0 0 0 .46-.241.475.475 0 0 0 .146-.235c0-.02-.018-.027-.038-.038a.707.707 0 0 0-.281-.062 1.6 1.6 0 0 0-.671.1.436.436 0 0 0-.124.073.121.121 0 0 0-.024.026z" class="cls-34" transform="translate(828.093 -400.38)"/>
                                <path id="패스_2710" d="M-817.7 653.693a.123.123 0 0 0 0 .039.781.781 0 0 0 .312.492.739.739 0 0 0 .561.155 1.227 1.227 0 0 0 .612-.318.763.763 0 0 0 .228-.385.294.294 0 0 0-.118-.307.879.879 0 0 0-.466-.14 1.771 1.771 0 0 0-.914.177.4.4 0 0 0-.215.288zm.292.023a.5.5 0 0 0 .195.275.45.45 0 0 0 .336.1.93.93 0 0 0 .46-.24.475.475 0 0 0 .146-.234c0-.021-.018-.028-.038-.038a.706.706 0 0 0-.28-.063 1.6 1.6 0 0 0-.671.1.438.438 0 0 0-.124.073.121.121 0 0 0-.023.026z" class="cls-34" transform="translate(825.368 -395.98)"/>
                                <path id="패스_2711" d="M-826.481 658.7a.151.151 0 0 0 0 .039.783.783 0 0 0 .312.491.744.744 0 0 0 .561.155 1.228 1.228 0 0 0 .612-.318.769.769 0 0 0 .229-.386.3.3 0 0 0-.119-.307.876.876 0 0 0-.466-.14 1.773 1.773 0 0 0-.913.177.412.412 0 0 0-.216.288zm.292.023a.5.5 0 0 0 .194.276.452.452 0 0 0 .337.1.922.922 0 0 0 .459-.241.477.477 0 0 0 .147-.234c0-.02-.018-.027-.038-.038a.723.723 0 0 0-.281-.063 1.6 1.6 0 0 0-.671.1.439.439 0 0 0-.124.073.145.145 0 0 0-.024.026z" class="cls-34" transform="translate(828.108 -397.544)"/>
                                <path id="패스_2712" d="M-813.77 662.047a.168.168 0 0 0 0 .04.781.781 0 0 0 .312.491.747.747 0 0 0 .561.155 1.231 1.231 0 0 0 .612-.318.77.77 0 0 0 .228-.386.294.294 0 0 0-.118-.307.873.873 0 0 0-.466-.14 1.774 1.774 0 0 0-.913.177.41.41 0 0 0-.216.288zm.292.023a.509.509 0 0 0 .194.276.454.454 0 0 0 .337.1.928.928 0 0 0 .459-.241.476.476 0 0 0 .147-.235c0-.02-.018-.027-.038-.038a.722.722 0 0 0-.281-.062 1.613 1.613 0 0 0-.671.1.45.45 0 0 0-.124.074.13.13 0 0 0-.023.026z" class="cls-34" transform="translate(824.141 -398.587)"/>
                                <path id="패스_2713" d="M-820.278 655.224a.145.145 0 0 0 .017.2.145.145 0 0 0 .2-.017l.012-.015a.144.144 0 0 0-.028-.2.145.145 0 0 0-.2.028z" class="cls-34" transform="translate(826.183 -396.586)"/>
                                <path id="패스_2714" d="M-814.168 658.589v.006a.146.146 0 0 0 .106.176.145.145 0 0 0 .175-.107v-.011a.145.145 0 0 0-.11-.174.145.145 0 0 0-.173.11z" class="cls-34" transform="translate(824.267 -397.619)"/>
                                <path id="패스_2715" d="M-820.924 664.062a.145.145 0 0 0-.039-.2.145.145 0 0 0-.2.039.145.145 0 0 0 .038.2.146.146 0 0 0 .2-.039z" class="cls-34" transform="translate(826.456 -399.29)"/>
                                <path id="패스_2716" d="M-819.17 669.3a.15.15 0 0 1 .094-.035.142.142 0 0 1 .032 0 .145.145 0 0 1 .115.17.134.134 0 0 1-.09.108.386.386 0 0 1-.116 0l.015.006a.145.145 0 0 1-.092-.183.142.142 0 0 1 .023-.044l.017-.018zm.028-.017a.168.168 0 0 0-.028.017l-.017.018a.15.15 0 0 0-.025.062.141.141 0 0 1 .073-.1z" class="cls-34" transform="translate(825.842 -400.985)"/>
                                <path id="패스_2717" d="M-826.029 674.413a.145.145 0 0 0 .2-.044.145.145 0 0 0-.044-.2.145.145 0 0 0-.2.044.146.146 0 0 0 .044.2z" class="cls-34" transform="translate(827.987 -402.508)"/>
                                <path id="패스_2718" d="M-812.8 665a.147.147 0 0 1-.044.086.145.145 0 0 1-.2-.008c-.027-.028-.028-.157-.028-.157a.311.311 0 0 0-.01.037.145.145 0 0 1 .161-.127.146.146 0 0 1 .127.161V665z" class="cls-34" transform="translate(823.927 -399.603)"/>
                                <path id="패스_2719" d="M-821.046 659.432a.145.145 0 0 1-.166.033.145.145 0 0 1-.072-.192.135.135 0 0 1 .058-.068.145.145 0 0 1 .2.041.145.145 0 0 1-.007.171.069.069 0 0 1-.014.016zm.014-.016a.123.123 0 0 0 .012-.024.128.128 0 0 1-.02.032.117.117 0 0 1-.026.022.114.114 0 0 0 .02-.015l.008-.008z" class="cls-34" transform="translate(826.49 -397.839)"/>
                                <path id="패스_2720" d="M-826.822 665.405a.144.144 0 0 1-.11.1.145.145 0 0 1-.172-.113.122.122 0 0 1 .015-.1.145.145 0 0 1 .2-.059.144.144 0 0 1 .076.12.084.084 0 0 1-.005.053zm.005-.053v-.016a.118.118 0 0 1 0 .032.138.138 0 0 1-.016.06c0-.009.008-.016.011-.023a.127.127 0 0 0 .005-.037v-.016z" class="cls-34" transform="translate(828.303 -399.721)"/>
                                <path id="패스_2721" d="M-823.561 655.289a.144.144 0 0 0-.166.12.144.144 0 0 0 .12.166.146.146 0 0 0 .167-.12.145.145 0 0 0-.121-.166z" class="cls-34" transform="translate(827.249 -396.624)"/>
                                <path id="패스_2722" d="M-828.623 662.287a.61.61 0 0 1-.482.014 1.17 1.17 0 0 1-.59-.48.544.544 0 0 1-.065-.479.488.488 0 0 1 .262-.257.993.993 0 0 1 .521-.07 4.411 4.411 0 0 0 .44.039 2.686 2.686 0 0 0 .511-.1.874.874 0 0 1 .634.048.383.383 0 0 1 .224.282.4.4 0 0 1-.112.3 3.731 3.731 0 0 1-1.343.7zm-.086-.277a.157.157 0 0 0-.04.016.279.279 0 0 1-.208.017.834.834 0 0 1-.4-.248.6.6 0 0 1-.131-.206.189.189 0 0 1 0-.144.223.223 0 0 1 .113-.1.717.717 0 0 1 .375-.045 4.6 4.6 0 0 0 .47.04 3.068 3.068 0 0 0 .569-.111.593.593 0 0 1 .43.019.236.236 0 0 1 .063.045.039.039 0 0 1 .014.02c0 .021-.014.039-.03.06a.7.7 0 0 1-.136.128 4 4 0 0 1-1.088.506z" class="cls-34" transform="translate(829.14 -398.379)"/>
                                <path id="패스_2723" d="M-817.467 656.938a.61.61 0 0 1-.482.013 1.173 1.173 0 0 1-.589-.479.545.545 0 0 1-.065-.479.489.489 0 0 1 .261-.257.992.992 0 0 1 .521-.07c.149.013.3.041.44.039a2.74 2.74 0 0 0 .511-.105.881.881 0 0 1 .634.048.38.38 0 0 1 .223.282.394.394 0 0 1-.112.3 3.735 3.735 0 0 1-1.343.7zm-.086-.278a.161.161 0 0 0-.04.016.281.281 0 0 1-.207.017.836.836 0 0 1-.4-.249.6.6 0 0 1-.131-.206.191.191 0 0 1 0-.143.218.218 0 0 1 .113-.1.714.714 0 0 1 .373-.044c.158.013.318.043.47.04a3.065 3.065 0 0 0 .568-.112.6.6 0 0 1 .432.018.272.272 0 0 1 .062.045c.007.007.014.013.014.021a.1.1 0 0 1-.029.059.7.7 0 0 1-.136.127 3.975 3.975 0 0 1-1.089.506z" class="cls-34" transform="translate(825.659 -396.71)"/>
                                <path id="패스_2724" d="M-817.949 667.941a.608.608 0 0 1-.482.014 1.176 1.176 0 0 1-.59-.479.544.544 0 0 1-.065-.48.493.493 0 0 1 .262-.257 1.006 1.006 0 0 1 .521-.069 4.269 4.269 0 0 0 .44.039 2.731 2.731 0 0 0 .511-.1.874.874 0 0 1 .634.048.383.383 0 0 1 .224.282.393.393 0 0 1-.113.3 3.715 3.715 0 0 1-1.342.7zm-.086-.277a.173.173 0 0 0-.04.016.278.278 0 0 1-.207.016.832.832 0 0 1-.4-.248.61.61 0 0 1-.131-.206.2.2 0 0 1 0-.144.224.224 0 0 1 .113-.1.726.726 0 0 1 .373-.043 4.652 4.652 0 0 0 .47.041 3.1 3.1 0 0 0 .569-.111.593.593 0 0 1 .431.019.274.274 0 0 1 .062.044c.007.008.014.014.014.021a.105.105 0 0 1-.029.059.688.688 0 0 1-.137.128 3.992 3.992 0 0 1-1.087.505z" class="cls-34" transform="translate(825.809 -400.143)"/>
                                <path id="패스_2725" d="M-841.931 665.168c1.524.263 4.421-.526 7.5-1.953 4.581-2.126 9.559-5.65 10.995-9.019a.266.266 0 0 0-.14-.349.267.267 0 0 0-.349.141c-1.4 3.279-6.27 6.675-10.729 8.745-2.951 1.369-5.72 2.164-7.182 1.912a.265.265 0 0 0-.307.217.266.266 0 0 0 .217.307z" class="cls-29" transform="translate(832.997 -396.168)"/>
                                <path id="패스_2726" d="M-773.047 644.008l-9.411 13.913.127 2.754 18.379 1.44 7.483-14.726-.123-2.26-16.455-1.12z" class="cls-28" transform="translate(814.371 -393.104)"/>
                                <path id="패스_2727" d="M-765.033 659.87l7.746-13.706a.252.252 0 0 1 .343-.095.252.252 0 0 1 .095.343l-7.824 13.844a.251.251 0 0 1-.238.127l-16.858-1.271a.252.252 0 0 1-.232-.27.252.252 0 0 1 .27-.232l16.7 1.259z" class="cls-37" transform="translate(814.229 -393.737)"/>
                                <path id="패스_2728" d="M-776.149 659.828c1.165.069 2.068.6 2.015 1.181s-1.041 1-2.206.93-2.069-.6-2.016-1.181 1.041-1 2.206-.93z" class="cls-23" transform="translate(813.092 -398.038)"/>
                                <path id="패스_2729" fill="#8f4f4f" fill-rule="evenodd" d="M-769.122 660.245c1.165.07 2.068.6 2.016 1.181s-1.041 1-2.206.931-2.068-.6-2.016-1.181 1.041-1 2.206-.931z" transform="translate(810.899 -398.168)"/>
                                <path id="패스_2730" d="M-762.211 660.654c1.166.069 2.069.6 2.016 1.182s-1.041 1-2.206.93-2.069-.6-2.016-1.181 1.041-1 2.206-.931z" class="cls-36" transform="translate(808.742 -398.296)"/>
                                <path id="패스_2731" fill="#d5dfad" fill-rule="evenodd" d="M-773.051 654.98c1.165.069 2.069.6 2.016 1.181s-1.041 1-2.206.93-2.068-.6-2.015-1.181 1.041-1 2.206-.93z" transform="translate(812.125 -396.525)"/>
                                <path id="패스_2732" fill="#9faf68" fill-rule="evenodd" d="M-766.023 655.4c1.165.07 2.069.6 2.016 1.181s-1.042 1-2.206.931-2.068-.6-2.016-1.181 1.041-1 2.206-.931z" transform="translate(809.932 -396.655)"/>
                                <path id="패스_2733" fill="#75894e" fill-rule="evenodd" d="M-759.112 655.808c1.165.069 2.068.6 2.016 1.182s-1.041 1-2.207.93-2.068-.6-2.015-1.182 1.041-1 2.206-.93z" transform="translate(807.775 -396.784)"/>
                                <path id="패스_2734" d="M-769.793 650.571c1.165.069 2.069.6 2.016 1.181s-1.042 1-2.206.93-2.068-.6-2.016-1.181 1.041-1 2.206-.93z" class="cls-25" transform="translate(811.108 -395.15)"/>
                                <path id="패스_2735" d="M-762.767 650.989c1.166.069 2.069.6 2.016 1.181s-1.042 1-2.206.931-2.068-.6-2.016-1.181 1.041-1 2.206-.931z" class="cls-27" transform="translate(808.916 -395.28)"/>
                                <path id="패스_2736" d="M-755.855 651.4c1.166.069 2.069.6 2.016 1.181s-1.041 1-2.205.931-2.068-.6-2.016-1.181 1.041-1 2.205-.931z" class="cls-22" transform="translate(806.759 -395.408)"/>
                                <path id="패스_2737" d="M-766.94 646.065c1.165.069 2.068.6 2.015 1.181s-1.041 1-2.206.931-2.068-.6-2.016-1.181 1.041-1 2.206-.931z" class="cls-34" transform="translate(810.218 -393.744)"/>
                                <path id="패스_2738" d="M-759.913 646.482c1.165.069 2.068.6 2.016 1.181s-1.041 1-2.206.93-2.068-.6-2.016-1.181 1.041-1 2.206-.93z" class="cls-35" transform="translate(808.026 -393.874)"/>
                                <path id="패스_2739" fill="#d6702e" fill-rule="evenodd" d="M-753 646.893c1.165.07 2.068.6 2.015 1.182s-1.041 1-2.205.931-2.068-.6-2.016-1.181 1.041-1 2.206-.931z" transform="translate(805.869 -394.002)"/>
                                <path id="패스_2740" d="M-770.641 621.816c-.97-1.848-3.827-3.216-7.978-3.255a19.779 19.779 0 0 0-6.134 1.313c-3.33 1.343-4.949 3.094-5.054 5.652-.077 1.857-.069 3.527 1.6 4.679 3.131 2.158 9.748 2.519 14.2.21 3.052-1.583 4.245-3.138 3.7-6.593a7.051 7.051 0 0 0-.335-2.006z" class="cls-28" transform="translate(816.671 -385.164)"/>
                                <path id="패스_2741" d="M-771.739 622.276c-3.012-2.506-10.2-2.108-14.288.805-1.331.949-1.966 2.959.781 3.9a14.544 14.544 0 0 0 10.812-.282c2.523-1.146 3.918-3.4 2.695-4.422z" class="cls-27" transform="translate(815.84 -385.807)"/>
                                <path id="패스_2742" d="M-788.737 628.993c3.18 2.352 8.1 2.914 12.172 1.72a9.978 9.978 0 0 0 6.289-4.742.251.251 0 0 0-.109-.338.252.252 0 0 0-.339.109 9.475 9.475 0 0 1-5.983 4.488c-3.926 1.15-8.668.624-11.733-1.641a.25.25 0 0 0-.351.053.25.25 0 0 0 .052.351z" class="cls-37" transform="translate(816.362 -387.362)"/>
                                <path id="패스_2743" d="M-771.267 614.054c-.97-1.848-3.827-3.215-7.978-3.254a19.78 19.78 0 0 0-6.135 1.312c-3.33 1.343-4.948 3.094-5.054 5.651-.076 1.858-.069 3.528 1.6 4.679 3.132 2.158 9.748 2.519 14.2.211 3.052-1.584 4.245-3.138 3.7-6.594a7.029 7.029 0 0 0-.334-2.006z" class="cls-28" transform="translate(816.867 -382.742)"/>
                                <path id="패스_2744" fill="#b25150" fill-rule="evenodd" d="M-772.365 614.513c-3.013-2.507-10.2-2.109-14.289.806-1.331.948-1.966 2.958.781 3.9a14.546 14.546 0 0 0 10.813-.282c2.523-1.145 3.917-3.4 2.695-4.422z" transform="translate(816.036 -383.385)"/>
                                <path id="패스_2745" d="M-789.363 621.23c3.18 2.351 8.1 2.913 12.172 1.72a9.983 9.983 0 0 0 6.289-4.741.251.251 0 0 0-.109-.339.251.251 0 0 0-.338.109 9.48 9.48 0 0 1-5.984 4.489c-3.925 1.15-8.667.624-11.732-1.642a.252.252 0 0 0-.352.053.252.252 0 0 0 .053.352z" class="cls-37" transform="translate(816.557 -384.94)"/>
                                <path id="패스_2746" d="M-741.091 620.575c-.97-1.848-3.827-3.215-7.978-3.255a19.815 19.815 0 0 0-6.135 1.314c-3.33 1.343-4.949 3.094-5.054 5.651-.076 1.858-.069 3.528 1.6 4.679 3.132 2.158 9.748 2.519 14.2.211 3.052-1.583 4.245-3.137 3.7-6.592a7.044 7.044 0 0 0-.334-2.007z" class="cls-28" transform="translate(807.451 -384.777)"/>
                                <path id="패스_2747" d="M-742.189 621.034c-3.013-2.507-10.2-2.108-14.288.806-1.331.948-1.966 2.959.781 3.9a14.549 14.549 0 0 0 10.812-.282c2.523-1.146 3.917-3.4 2.695-4.422z" class="cls-25" transform="translate(806.62 -385.419)"/>
                                <path id="패스_2748" d="M-759.187 627.752c3.18 2.351 8.1 2.913 12.172 1.72a9.982 9.982 0 0 0 6.289-4.742.252.252 0 0 0-.109-.339.252.252 0 0 0-.338.109 9.482 9.482 0 0 1-5.984 4.489c-3.925 1.149-8.668.624-11.732-1.642a.252.252 0 0 0-.351.053.252.252 0 0 0 .053.352z" class="cls-37" transform="translate(807.142 -386.975)"/>
                            </g>
                        </g>
                        <path id="패스_2749" d="M-704.274 703.929a7.367 7.367 0 0 0-2.159-5.211 7.369 7.369 0 0 0-5.211-2.158H-793.9a7.366 7.366 0 0 0-5.211 2.158 7.37 7.37 0 0 0-2.159 5.211v.983a7.372 7.372 0 0 0 2.159 5.212 7.367 7.367 0 0 0 5.211 2.158h82.257a7.37 7.37 0 0 0 5.211-2.158 7.37 7.37 0 0 0 2.159-5.212v-.983zm-.534 0v.983a6.836 6.836 0 0 1-2 4.833 6.833 6.833 0 0 1-4.833 2H-793.9a6.834 6.834 0 0 1-4.834-2 6.835 6.835 0 0 1-2-4.833v-.983a6.834 6.834 0 0 1 2-4.833 6.836 6.836 0 0 1 4.834-2h82.257a6.835 6.835 0 0 1 4.833 2 6.835 6.835 0 0 1 2 4.833z" class="cls-29" transform="translate(820.241 -409.502)"/>
                        <path id="패스_2750" fill="#7b95ba" fill-rule="evenodd" d="M-638.61 700.874l-16.658 10.056 3.683-7.913-3.683-5.219 16.658 3.077z" transform="translate(774.684 -409.888)"/>
                        <path id="패스_2751" fill="#ebe9ea" fill-rule="evenodd" d="M-649.406 704.511c2.822-.413 8.466-1.24 11.4-1.75a.268.268 0 0 0 .218-.31.268.268 0 0 0-.31-.218c-2.931.51-8.569 1.335-11.387 1.748a.267.267 0 0 0-.225.3.267.267 0 0 0 .3.226z" transform="translate(772.951 -411.271)"/>
                        <path id="패스_2752" fill="#e73828" fill-rule="evenodd" d="M-710.3 302.045c0-2.6-1.7-4.707-3.794-4.707h-21.053c-2.095 0-3.793 2.108-3.793 4.707v3.862c0 2.6 1.7 4.706 3.793 4.706h21.053c2.1 0 3.794-2.107 3.794-4.706v-3.862z" transform="translate(800.792 -284.772)"/>
                        <path id="패스_2753" d="M-730.683 301.069v4.7h2.675a.711.711 0 0 1 .491.154.5.5 0 0 1 .171.388.487.487 0 0 1-.169.385.73.73 0 0 1-.493.148h-3.186a.85.85 0 0 1-.62-.19.842.842 0 0 1-.189-.612v-4.973a.861.861 0 0 1 .18-.595.61.61 0 0 1 .474-.2.633.633 0 0 1 .482.2.846.846 0 0 1 .184.6z" class="cls-1" transform="translate(798.628 -284.358)"/>
                        <path id="패스_2754" d="M-723.9 306.157v-5.088a.852.852 0 0 1 .182-.595.609.609 0 0 1 .47-.2.632.632 0 0 1 .482.2.843.843 0 0 1 .184.6v5.088a.853.853 0 0 1-.184.6.629.629 0 0 1-.482.2.609.609 0 0 1-.469-.2.855.855 0 0 1-.184-.6z" class="cls-1" transform="translate(796.098 -284.358)"/>
                        <path id="패스_2755" d="M-719.069 301.134l1.476 4.331 1.479-4.361c.078-.229.135-.389.173-.478a.641.641 0 0 1 .191-.242.561.561 0 0 1 .365-.108.608.608 0 0 1 .313.084.619.619 0 0 1 .227.222.546.546 0 0 1 .082.279.9.9 0 0 1-.027.21 1.694 1.694 0 0 1-.067.22l-.08.222-1.578 4.221q-.084.242-.168.46a1.984 1.984 0 0 1-.2.383.871.871 0 0 1-.3.271.888.888 0 0 1-.451.106.9.9 0 0 1-.451-.1.849.849 0 0 1-.3-.273 2.046 2.046 0 0 1-.2-.385c-.056-.144-.112-.3-.169-.458l-1.551-4.185c-.027-.076-.054-.151-.083-.225a1.824 1.824 0 0 1-.071-.238 1.021 1.021 0 0 1-.029-.216.571.571 0 0 1 .182-.409.615.615 0 0 1 .457-.185.537.537 0 0 1 .478.2 2.732 2.732 0 0 1 .286.653z" class="cls-1" transform="translate(795.03 -284.358)"/>
                        <path id="패스_2756" d="M-706.44 301.445h-2.973v1.587h2.737a.654.654 0 0 1 .451.134.453.453 0 0 1 .149.354.472.472 0 0 1-.147.359.639.639 0 0 1-.453.139h-2.737v1.838h3.075a.675.675 0 0 1 .468.143.488.488 0 0 1 .158.381.479.479 0 0 1-.158.372.678.678 0 0 1-.468.143h-3.586a.85.85 0 0 1-.62-.19.841.841 0 0 1-.189-.612v-4.855a1.079 1.079 0 0 1 .084-.46.519.519 0 0 1 .265-.259 1.114 1.114 0 0 1 .46-.082h3.484a.68.68 0 0 1 .469.139.467.467 0 0 1 .153.363.474.474 0 0 1-.153.368.684.684 0 0 1-.469.138z" class="cls-1" transform="translate(791.991 -284.518)"/>
                        <path id="패스_2757" d="M-642.7 655.211a5.416 5.416 0 0 1 8.133-1.757c2.033 1.757 2.033 5.272 0 8.786-1.423 2.635-5.083 5.271-8.133 7.029-3.05-1.758-6.71-4.393-8.133-7.029-2.033-3.514-2.033-7.029 0-8.786a5.416 5.416 0 0 1 8.133 1.757z" class="cls-29" transform="translate(773.776 -395.691)"/>
                        <path id="패스_2758" d="M-637.812 625.113a5.416 5.416 0 0 1 8.133-1.757c2.033 1.757 2.033 5.271 0 8.785-1.423 2.636-5.083 5.272-8.133 7.029-3.05-1.757-6.71-4.393-8.133-7.029-2.033-3.514-2.033-7.028 0-8.785a5.416 5.416 0 0 1 8.133 1.757z" class="cls-29" transform="translate(772.251 -386.3)"/>
                        <path id="패스_2759" d="M-651.575 594.51a5.416 5.416 0 0 1 8.133-1.757c2.033 1.757 2.033 5.272 0 8.786-1.423 2.636-5.083 5.271-8.133 7.028-3.05-1.757-6.71-4.393-8.133-7.028-2.033-3.514-2.033-7.029 0-8.786a5.416 5.416 0 0 1 8.133 1.757z" class="cls-29" transform="translate(776.545 -376.751)"/>
                        <path id="패스_2760" d="M-635.219 565.995a5.415 5.415 0 0 1 8.132-1.757c2.034 1.757 2.034 5.272 0 8.786-1.422 2.636-5.082 5.272-8.132 7.028-3.05-1.756-6.71-4.392-8.133-7.028-2.033-3.514-2.033-7.029 0-8.786a5.416 5.416 0 0 1 8.133 1.757z" class="cls-29" transform="translate(771.442 -367.853)"/>
                        <path id="패스_2761" d="M-656.6 553.771a2.921 2.921 0 0 1 4.447-.984c1.112.984 1.112 2.954 0 4.923-.778 1.477-2.779 2.954-4.447 3.939-1.668-.984-3.669-2.462-4.447-3.939-1.113-1.969-1.113-3.938 0-4.923a2.921 2.921 0 0 1 4.447.984z" class="cls-29" transform="translate(776.749 -364.439)"/>
                        <path id="패스_2762" d="M-624.921 595.4a2.922 2.922 0 0 1 4.447-.985c1.112.985 1.112 2.954 0 4.923-.778 1.477-2.779 2.954-4.447 3.938-1.667-.984-3.669-2.461-4.447-3.938-1.112-1.969-1.112-3.939 0-4.923a2.922 2.922 0 0 1 4.447.985z" class="cls-29" transform="translate(766.863 -377.429)"/>
                        <path id="패스_2763" d="M-663.5 624.373a2.922 2.922 0 0 1 4.447-.985c1.112.985 1.112 2.954 0 4.923-.779 1.477-2.779 2.954-4.447 3.939-1.668-.984-3.668-2.462-4.447-3.939-1.112-1.969-1.112-3.938 0-4.923a2.922 2.922 0 0 1 4.447.985z" class="cls-29" transform="translate(778.901 -386.469)"/>
                        <path id="패스_2764" d="M-631.923 546.192a2.922 2.922 0 0 1 4.447-.985c1.112.985 1.112 2.954 0 4.923-.778 1.477-2.78 2.954-4.447 3.939-1.668-.985-3.668-2.462-4.446-3.939-1.113-1.969-1.113-3.939 0-4.923a2.921 2.921 0 0 1 4.446.985z" class="cls-29" transform="translate(769.048 -362.074)"/>
                        <path id="패스_2765" d="M-655.117 530.28a2.922 2.922 0 0 1 4.447-.984c1.112.984 1.112 2.954 0 4.923-.778 1.477-2.779 2.954-4.447 3.938-1.667-.985-3.668-2.461-4.447-3.938-1.111-1.969-1.111-3.939 0-4.923a2.922 2.922 0 0 1 4.447.984z" class="cls-29" transform="translate(776.285 -357.109)"/>
                        <path id="패스_2766" d="M-669.74 510.54a2.922 2.922 0 0 1 4.447-.984c1.112.984 1.112 2.954 0 4.923-.778 1.477-2.78 2.954-4.447 3.939-1.668-.985-3.669-2.462-4.447-3.939-1.112-1.969-1.112-3.939 0-4.923a2.922 2.922 0 0 1 4.447.984z" class="cls-29" transform="translate(780.848 -350.95)"/>
                        <path id="패스_2767" d="M-634.822 524.132a2.922 2.922 0 0 1 4.447-.985c1.112.985 1.112 2.954 0 4.924-.778 1.477-2.779 2.954-4.447 3.938-1.667-.985-3.669-2.462-4.447-3.938-1.112-1.969-1.112-3.939 0-4.924a2.922 2.922 0 0 1 4.447.985z" class="cls-29" transform="translate(769.953 -355.191)"/>
                    </g>
                </g>
            </g>
        </g>
    </g>
</svg>
