<svg xmlns="http://www.w3.org/2000/svg" width="176.75" height="70.002" viewBox="0 0 176.75 70.002">
    <defs>
        <clipPath id="clip-path">
            <path id="사각형_104" d="M0 0H176.75V70.002H0z" class="cls-1"/>
        </clipPath>
        <style>
            .cls-1{fill:none}.cls-3{fill:#e73828}.cls-5{fill:#fff}.cls-6{fill:#e54141}
        </style>
    </defs>
    <g id="그룹_1016" transform="translate(-812.609 -140.924)">
        <path id="패스_212" fill="#f27070" d="M167.729 63.723L13.783 52.582 8.593 8.626h161.876z" transform="translate(811.366 139.676)"/>
        <path id="패스_213" d="M69.115 27.441H62.85l1.745-9.893h2.474L65.708 25.3H69.5z" class="cls-3" transform="translate(803.518 138.386)"/>
        <g id="그룹_434" transform="translate(812.609 140.924)">
            <g id="그룹_433" clip-path="url(#clip-path)">
                <path id="패스_214" d="M73.935 25.573a1.135 1.135 0 0 0 .564-.138l-.069 1.553a2.241 2.241 0 0 1-1.47.535q-1.25 0-1.621-.577a1.487 1.487 0 0 1-.247-.819 4.666 4.666 0 0 1 .055-.762l.825-4.645h2.336l-.77 4.328a.913.913 0 0 0-.014.151c0 .248.138.371.412.371m-1.69-7.09a1.8 1.8 0 0 1 .392-1.285 1.622 1.622 0 0 1 1.215-.405q1.155 0 1.155 1.016a1.749 1.749 0 0 1-.392 1.264 1.661 1.661 0 0 1-1.23.4q-1.141 0-1.14-.99" class="cls-3" transform="translate(-10.283 -2.429)"/>
                <path id="패스_215" d="M82.562 21.387a4.975 4.975 0 0 1 .192 1.532 7.121 7.121 0 0 1-.233 1.835 6.468 6.468 0 0 1-.707 1.67 3.619 3.619 0 0 1-1.319 1.276 3.823 3.823 0 0 1-1.945.488 3.2 3.2 0 0 1-2.377-.7 2.025 2.025 0 0 1-.44-1.429 5.551 5.551 0 0 1 .11-1.031l.645-3.641h2.336l-.646 3.655a1.925 1.925 0 0 0-.041.371.705.705 0 0 0 .811.784q1.429 0 1.429-3a12.2 12.2 0 0 0-.11-1.553l-.041-.261z" class="cls-3" transform="translate(-10.955 -3.094)"/>
                <path id="패스_216" d="M87.121 28.154q-2.857 0-2.858-1.978a3.454 3.454 0 0 1 .055-.591l.288-1.7a3.037 3.037 0 0 1 1.216-2.026 4.358 4.358 0 0 1 2.6-.708q2.762 0 2.762 2.089a4.333 4.333 0 0 1-.055.659l-.165.976h-4.187l-.055.316a1.806 1.806 0 0 0-.027.3q0 .756.894.755a.821.821 0 0 0 .563-.206.783.783 0 0 0 .275-.481l2.281.027q-.453 2.57-3.586 2.569m1.649-4.122a1.94 1.94 0 0 0 .055-.433.629.629 0 0 0-.179-.405.715.715 0 0 0-.571-.206 1.108 1.108 0 0 0-.713.261 1.38 1.38 0 0 0-.447.784z" class="cls-3" transform="translate(-12.189 -3.059)"/>
                <path id="패스_217" d="M51.869 38.351h-9.076l-1.569 9.007h-6.177l4.333-24.565h17.129l-.955 5.322H44.567l-.854 4.912h9.077z" class="cls-5" transform="translate(-5.07 -3.297)"/>
                <path id="패스_218" d="M73.033 43.407a.792.792 0 0 0 .9.887 3.087 3.087 0 0 0 1.518-.341l-.17 3.856a5.691 5.691 0 0 1-3.685 1.33q-3.754 0-4.162-2.729a5.548 5.548 0 0 1-5.016 2.729q-5.6 0-5.6-4.811A10.625 10.625 0 0 1 57 42.52l.716-3.992a8.486 8.486 0 0 1 2.508-4.9 7.214 7.214 0 0 1 5.118-1.824q3.155 0 4.282 1.466l.171-1.023h5.186L73.068 43a2.453 2.453 0 0 0-.034.41m-10.1-1.638a4.087 4.087 0 0 0-.068.853 1.558 1.558 0 0 0 .512 1.075 2.33 2.33 0 0 0 1.723.529 2.772 2.772 0 0 0 2.1-.955l1.024-5.732q-.376-.852-1.774-.853a2.784 2.784 0 0 0-3.071 2.525z" class="cls-5" transform="translate(-8.22 -4.601)"/>
                <path id="패스_219" d="M86.74 49.128q-7.1 0-7.1-4.913a8.538 8.538 0 0 1 .137-1.467l.716-4.231a7.356 7.356 0 0 1 2.989-5.017 10.586 10.586 0 0 1 6.193-1.774q7.267 0 7.267 5.05a6.965 6.965 0 0 1-.256 1.962 3.3 3.3 0 0 1-.529 1.176l-.274.342h-5.8a2.292 2.292 0 0 0 .853-1.774 1.629 1.629 0 0 0-1.842-1.843 2.85 2.85 0 0 0-1.876.648 3.187 3.187 0 0 0-1.024 1.979l-.444 2.491a3.316 3.316 0 0 0-.068.648q0 1.809 2.251 1.808a2.1 2.1 0 0 0 1.348-.478 1.765 1.765 0 0 0 .7-1.057l5.663.068q-1.125 6.38-8.905 6.38" class="cls-5" transform="translate(-11.52 -4.589)"/>
                <path id="패스_220" d="M107.978 48.251q-3.958 0-5.7-1.774a4.7 4.7 0 0 1-1.3-3.481 9.311 9.311 0 0 1 .137-1.535l2.32-13.2 6.244-2.593-.99 5.7h9.417l-.853 4.81h-9.417l-.683 3.856a5.71 5.71 0 0 0-.136 1.16q0 2.149 2.047 2.149a2.249 2.249 0 0 0 1.825-.921 5.4 5.4 0 0 0 1.011-2.462h5.663q-1.432 8.291-9.587 8.291" class="cls-5" transform="translate(-14.607 -3.712)"/>
                <path id="패스_221" d="M131.5 31.767a8.361 8.361 0 0 1 5.562 1.6 4.389 4.389 0 0 1 1.468 3.514 8.715 8.715 0 0 1-.171 1.638l-.716 3.992a7.187 7.187 0 0 1-3.019 5.118 11.727 11.727 0 0 1-6.33 1.5q-3.957 0-5.8-1.5a4.127 4.127 0 0 1-1.365-3.379 10.039 10.039 0 0 1 .169-1.74l.718-3.992q1.194-6.755 9.484-6.756m.922 7.438a4.659 4.659 0 0 0 .068-.871 2.146 2.146 0 0 0-.442-1.177 1.752 1.752 0 0 0-1.553-.647 2.561 2.561 0 0 0-1.86.733 3.448 3.448 0 0 0-.955 1.962l-.443 2.558a4.524 4.524 0 0 0-.068.871 2 2 0 0 0 .443 1.143 1.788 1.788 0 0 0 1.552.613 2.5 2.5 0 0 0 1.86-.767 3.528 3.528 0 0 0 .955-1.86z" class="cls-5" transform="translate(-17.521 -4.595)"/>
                <path id="패스_222" d="M159.095 35.725a7.429 7.429 0 0 1-1.16 3.856l-.375.477h-5.152a2.538 2.538 0 0 0 .853-1.945 1.364 1.364 0 0 0-.393-1.007 1.456 1.456 0 0 0-1.074-.392 2.466 2.466 0 0 0-2.014 1.161l-1.911 10.781h-5.8l2.9-16.411h5.391l-.41 2.285a5.658 5.658 0 0 1 4.708-2.764 4.658 4.658 0 0 1 3.327 1.057 3.821 3.821 0 0 1 1.109 2.9" class="cls-5" transform="translate(-20.55 -4.595)"/>
                <path id="패스_223" d="M168.353 41.4a7.431 7.431 0 0 0-.1 1.227q0 1.638 1.842 1.638a3.268 3.268 0 0 0 2.491-1.057l1.91-10.884h5.8l-3 16.957a11.9 11.9 0 0 1-3.428 6.858 8.679 8.679 0 0 1-6.124 2.524q-3.448 0-4.964-1.262a4.1 4.1 0 0 1-1.519-3.31q0-2.9 3.583-5.152A3.139 3.139 0 0 1 162.382 47a5.239 5.239 0 0 1-.307-1.844 12.959 12.959 0 0 1 .171-2.081l1.91-10.747h5.8zm.17 12.385q2.218 0 2.9-4.026l.341-1.979q-4.743 2.218-4.743 4.47a1.571 1.571 0 0 0 .393 1.109 1.43 1.43 0 0 0 1.109.426" class="cls-5" transform="translate(-23.325 -4.676)"/>
                <path id="패스_224" d="M110.267 18.419a5.572 5.572 0 0 0-4.309 2.04l.989.982a4.183 4.183 0 0 1 6.641 0l.989-.982a5.57 5.57 0 0 0-4.309-2.04" class="cls-5" transform="translate(-15.327 -2.664)"/>
                <path id="패스_225" d="M110 15.822a7.783 7.783 0 0 0-5.891 2.69l.949.944a6.456 6.456 0 0 1 9.883 0l.949-.944a7.783 7.783 0 0 0-5.89-2.69" class="cls-5" transform="translate(-15.059 -2.289)"/>
                <path id="패스_226" d="M110.542 21.075a3.3 3.3 0 0 0-2.684 1.382l1 .994a1.924 1.924 0 0 1 3.368 0l1-.994a3.3 3.3 0 0 0-2.684-1.382" class="cls-5" transform="translate(-15.602 -3.048)"/>
                <path id="패스_227" d="M109.04 56.293h.407v3.673h1.564v.393h-1.971z" class="cls-6" transform="translate(-15.772 -8.143)"/>
                <path id="패스_228" d="M111.927 56.083a.319.319 0 0 1 0 .639.3.3 0 0 1-.223-.094.319.319 0 0 1 0-.451.3.3 0 0 1 .223-.094m-.192 1.239h.387v3.007h-.387z" class="cls-6" transform="translate(-16.144 -8.112)"/>
                <path id="패스_229" d="M112.617 57.531h.411l1.01 2.192 1-2.192h.415l-1.377 3.007H114z" class="cls-6" transform="translate(-16.29 -8.322)"/>
                <path id="패스_230" d="M118.925 59.527l.326.171a1.774 1.774 0 0 1-.37.508 1.462 1.462 0 0 1-.473.3 1.664 1.664 0 0 1-.6.1 1.438 1.438 0 0 1-1.15-.482 1.625 1.625 0 0 1-.415-1.091 1.609 1.609 0 0 1 .351-1.02 1.439 1.439 0 0 1 1.193-.57 1.48 1.48 0 0 1 1.227.583 1.63 1.63 0 0 1 .333 1.028h-2.706a1.229 1.229 0 0 0 .335.86 1.07 1.07 0 0 0 .8.334 1.269 1.269 0 0 0 .447-.08 1.137 1.137 0 0 0 .37-.212 1.785 1.785 0 0 0 .329-.426m0-.81a1.282 1.282 0 0 0-.226-.494 1.059 1.059 0 0 0-.392-.3 1.2 1.2 0 0 0-.511-.113 1.1 1.1 0 0 0-.761.285 1.291 1.291 0 0 0-.351.622z" class="cls-6" transform="translate(-16.815 -8.309)"/>
                <path id="패스_231" d="M125.984 57.03l-.321.246a1.744 1.744 0 0 0-.636-.523 1.855 1.855 0 0 0-.817-.179 1.807 1.807 0 0 0-.9.234 1.685 1.685 0 0 0-.642.628 1.73 1.73 0 0 0-.228.885 1.665 1.665 0 0 0 .511 1.241 1.768 1.768 0 0 0 1.286.5 1.809 1.809 0 0 0 1.428-.669l.321.243a2.027 2.027 0 0 1-.759.6 2.375 2.375 0 0 1-1.015.211 2.112 2.112 0 0 1-1.683-.71 2.142 2.142 0 0 1-.517-1.448 2.013 2.013 0 0 1 .626-1.5 2.157 2.157 0 0 1 1.568-.61 2.3 2.3 0 0 1 1.028.226 2.005 2.005 0 0 1 .752.631" class="cls-6" transform="translate(-17.649 -8.125)"/>
                <path id="패스_232" d="M128.734 57.44a1.486 1.486 0 0 1 1.152.5 1.615 1.615 0 0 1-.024 2.187 1.589 1.589 0 0 1-2.259 0 1.612 1.612 0 0 1-.024-2.185 1.492 1.492 0 0 1 1.155-.506m0 .379a1.113 1.113 0 0 0-.83.357 1.186 1.186 0 0 0-.346.862 1.226 1.226 0 0 0 .158.608 1.127 1.127 0 0 0 .426.435 1.216 1.216 0 0 0 1.181 0 1.137 1.137 0 0 0 .428-.435 1.226 1.226 0 0 0 .157-.608 1.191 1.191 0 0 0-.347-.862 1.118 1.118 0 0 0-.827-.357" class="cls-6" transform="translate(-18.394 -8.309)"/>
                <path id="패스_233" d="M131.467 57.518h.387v.519a1.512 1.512 0 0 1 .415-.42 1.185 1.185 0 0 1 .618-.177 1.031 1.031 0 0 1 .416.086.9.9 0 0 1 .321.228 1.247 1.247 0 0 1 .215.408 1.442 1.442 0 0 1 .483-.538 1.145 1.145 0 0 1 .623-.184.972.972 0 0 1 .55.158.941.941 0 0 1 .355.439 2.357 2.357 0 0 1 .115.847v1.641h-.4v-1.641a2.145 2.145 0 0 0-.068-.665.6.6 0 0 0-.236-.291.7.7 0 0 0-.4-.111.869.869 0 0 0-.514.166.947.947 0 0 0-.34.442 2.792 2.792 0 0 0-.108.923v1.178h-.387v-1.54a2.626 2.626 0 0 0-.068-.739.611.611 0 0 0-.236-.313.687.687 0 0 0-.4-.117.864.864 0 0 0-.5.162.957.957 0 0 0-.346.435 2.351 2.351 0 0 0-.112.837v1.274h-.387z" class="cls-6" transform="translate(-19.017 -8.309)"/>
                <path id="패스_234" d="M137.476 57.518h.387v.519a1.512 1.512 0 0 1 .415-.42 1.185 1.185 0 0 1 .618-.177 1.032 1.032 0 0 1 .416.086.9.9 0 0 1 .321.228 1.247 1.247 0 0 1 .215.408 1.443 1.443 0 0 1 .483-.538 1.145 1.145 0 0 1 .623-.184.972.972 0 0 1 .55.158.941.941 0 0 1 .355.439 2.357 2.357 0 0 1 .115.847v1.641h-.4v-1.641a2.145 2.145 0 0 0-.068-.665.6.6 0 0 0-.236-.291.7.7 0 0 0-.4-.111.869.869 0 0 0-.514.166.947.947 0 0 0-.34.442 2.792 2.792 0 0 0-.108.923v1.178h-.387v-1.54a2.627 2.627 0 0 0-.068-.739.612.612 0 0 0-.236-.313.687.687 0 0 0-.4-.117.864.864 0 0 0-.5.162.957.957 0 0 0-.346.435 2.351 2.351 0 0 0-.112.837v1.274h-.387z" class="cls-6" transform="translate(-19.886 -8.309)"/>
                <path id="패스_235" d="M145.994 59.527l.326.171a1.774 1.774 0 0 1-.37.508 1.461 1.461 0 0 1-.473.3 1.664 1.664 0 0 1-.6.1 1.438 1.438 0 0 1-1.15-.482 1.625 1.625 0 0 1-.415-1.091 1.609 1.609 0 0 1 .351-1.02 1.439 1.439 0 0 1 1.193-.57 1.48 1.48 0 0 1 1.227.583 1.63 1.63 0 0 1 .333 1.028h-2.706a1.229 1.229 0 0 0 .335.86 1.07 1.07 0 0 0 .8.334 1.269 1.269 0 0 0 .447-.08 1.137 1.137 0 0 0 .37-.212 1.786 1.786 0 0 0 .329-.426m0-.81a1.282 1.282 0 0 0-.226-.494 1.059 1.059 0 0 0-.392-.3 1.2 1.2 0 0 0-.512-.113 1.1 1.1 0 0 0-.761.285 1.291 1.291 0 0 0-.351.622z" class="cls-6" transform="translate(-20.731 -8.309)"/>
                <path id="패스_236" d="M147.418 57.518h.4v.44a1.392 1.392 0 0 1 .373-.388.737.737 0 0 1 .409-.129.7.7 0 0 1 .343.1l-.2.326a.538.538 0 0 0-.2-.052.558.558 0 0 0-.373.159 1 1 0 0 0-.274.493 4.74 4.74 0 0 0-.072 1.039v1.018h-.4z" class="cls-6" transform="translate(-21.324 -8.309)"/>
                <path id="패스_237" d="M152.276 58.142l-.306.191a1.288 1.288 0 0 0-1.085-.529 1.253 1.253 0 0 0-.912.354 1.149 1.149 0 0 0-.364.858 1.218 1.218 0 0 0 .167.618 1.165 1.165 0 0 0 .458.45 1.385 1.385 0 0 0 1.735-.367l.306.2a1.441 1.441 0 0 1-.579.5 1.841 1.841 0 0 1-.828.18 1.635 1.635 0 0 1-1.182-.453 1.475 1.475 0 0 1-.47-1.1 1.578 1.578 0 0 1 .22-.812 1.555 1.555 0 0 1 .6-.584 1.762 1.762 0 0 1 .86-.21 1.826 1.826 0 0 1 .576.092 1.57 1.57 0 0 1 .471.237 1.28 1.28 0 0 1 .329.374" class="cls-6" transform="translate(-21.584 -8.309)"/>
                <path id="패스_238" d="M155.971 59.527l.326.171a1.774 1.774 0 0 1-.37.508 1.462 1.462 0 0 1-.473.3 1.664 1.664 0 0 1-.6.1 1.438 1.438 0 0 1-1.15-.482 1.625 1.625 0 0 1-.415-1.091 1.609 1.609 0 0 1 .351-1.02 1.439 1.439 0 0 1 1.193-.57 1.48 1.48 0 0 1 1.227.583 1.63 1.63 0 0 1 .333 1.028h-2.706a1.229 1.229 0 0 0 .335.86 1.07 1.07 0 0 0 .8.334 1.269 1.269 0 0 0 .447-.08 1.138 1.138 0 0 0 .37-.212 1.786 1.786 0 0 0 .329-.426m0-.81a1.281 1.281 0 0 0-.226-.494 1.059 1.059 0 0 0-.392-.3 1.2 1.2 0 0 0-.511-.113 1.1 1.1 0 0 0-.761.285 1.291 1.291 0 0 0-.351.622z" class="cls-6" transform="translate(-22.174 -8.309)"/>
                <path id="패스_239" d="M24.848 19.35h-6.634a2.57 2.57 0 1 1 0-5.141h6.634a2.57 2.57 0 0 1 0 5.141" class="cls-3" transform="translate(-2.263 -2.055)"/>
                <path id="패스_240" fill="none" stroke="#fff" stroke-miterlimit="10" stroke-width="0.256px" d="M24.848 19.35h-6.634a2.57 2.57 0 1 1 0-5.141h6.634a2.57 2.57 0 0 1 0 5.141z" transform="translate(-2.263 -2.055)"/>
                <path id="패스_241" d="M18.54 18.245v-2.571h.365v2.3h1.156v.273z" class="cls-5" transform="translate(-2.682 -2.267)"/>
                <path id="사각형_103" d="M0 0H0.365V2.571H0z" class="cls-5" transform="translate(17.754 13.407)"/>
                <path id="패스_242" d="M22.613 18.245l-.972-2.571h.364l.8 2.105.769-2.105h.319l-.933 2.571z" class="cls-5" transform="translate(-3.13 -2.267)"/>
                <path id="패스_243" d="M24.676 18.245v-2.571h1.437v.272h-1.072v.825h.9v.27h-.9v.931h1.147v.273z" class="cls-5" transform="translate(-3.569 -2.267)"/>
                <path id="패스_244" fill="#e05555" d="M14.642 60.027L48.77 77.272V62.485z" transform="translate(-2.118 -8.683)"/>
            </g>
        </g>
        <path id="사각형_105" d="M0 0H176.75V70.002H0z" class="cls-1" transform="translate(812.609 140.924)"/>
    </g>
</svg>
