<svg xmlns="http://www.w3.org/2000/svg" xmlns:xlink="http://www.w3.org/1999/xlink" width="208.449" height="55.712" viewBox="0 0 208.449 55.712">
    <defs>
        <clipPath id="clip-path">
            <rect id="사각형_146" data-name="사각형 146" width="208.449" height="55.712" fill="none"/>
        </clipPath>
    </defs>
    <g id="그룹_1018" data-name="그룹 1018" transform="translate(0 0)">
        <g id="그룹_1017" data-name="그룹 1017" transform="translate(0 0)" clip-path="url(#clip-path)">
            <path id="패스_245" data-name="패스 245" d="M108.388,34.218a4.976,4.976,0,0,1-2.18-1,2.066,2.066,0,0,1-.844-1.613V28.738h.453a5.953,5.953,0,0,0,1.663,3.729,5.139,5.139,0,0,0,3.4,1.033,4.4,4.4,0,0,0,2.331-.592,1.97,1.97,0,0,0,.97-1.8,2.773,2.773,0,0,0-.656-1.84,8.177,8.177,0,0,0-2.116-1.638l-3.1-1.839a7.083,7.083,0,0,1-2.28-1.941,4.16,4.16,0,0,1-.667-2.393,4.185,4.185,0,0,1,1.348-3.2,4.975,4.975,0,0,1,3.54-1.26,7.468,7.468,0,0,1,2.545.453,6.7,6.7,0,0,1,2.078,1.146,2.056,2.056,0,0,1,.819,1.6v2.52h-.453a6.48,6.48,0,0,0-1.625-3.528A4.577,4.577,0,0,0,110.253,18a2.958,2.958,0,0,0-2.041.794,2.5,2.5,0,0,0-.881,1.928,2.394,2.394,0,0,0,.643,1.713,10.511,10.511,0,0,0,2.154,1.587l3.1,1.84a9.282,9.282,0,0,1,2.419,1.914,3.481,3.481,0,0,1,.705,2.243,4.075,4.075,0,0,1-1.411,3.3,5.768,5.768,0,0,1-3.83,1.184,12.79,12.79,0,0,1-2.721-.29" transform="translate(-35.644 -5.75)" fill="#7e3486"/>
            <path id="패스_246" data-name="패스 246" d="M127.71,36.33a5.081,5.081,0,0,1-1.789-2.217,8.4,8.4,0,0,1,0-6.261,5.171,5.171,0,0,1,1.752-2.23,4.5,4.5,0,0,1,2.683-.819,4.776,4.776,0,0,1,3.792,1.423,6.066,6.066,0,0,1,1.247,4.119l-.05,1.008H127.71a6.026,6.026,0,0,0,.907,3.452,2.857,2.857,0,0,0,2.494,1.335,3.755,3.755,0,0,0,2-.5,5.321,5.321,0,0,0,1.524-1.511l.5.378a5.486,5.486,0,0,1-1.941,2.016,5.168,5.168,0,0,1-2.6.629,4.967,4.967,0,0,1-2.9-.819m4.636-9.361a2.143,2.143,0,0,0-1.99-1.159A1.9,1.9,0,0,0,129,26.4a3.965,3.965,0,0,0-.945,1.625,7.389,7.389,0,0,0-.34,2.319H133a6.99,6.99,0,0,0-.655-3.377" transform="translate(-42.393 -8.39)" fill="#7e3486"/>
            <path id="패스_247" data-name="패스 247" d="M143.566,19.07a1.485,1.485,0,0,0-1.411-.617h-.5v-.5h2.268a3.173,3.173,0,0,1,1.4.239,1.394,1.394,0,0,1,.668.869,6.741,6.741,0,0,1,.2,1.915V34.579h-2.268V20.972a3.967,3.967,0,0,0-.353-1.9" transform="translate(-47.919 -6.072)" fill="#7e3486"/>
            <path id="패스_248" data-name="패스 248" d="M152.2,23.615V22.607h1.763v-.756q0-4.284,4.41-4.283a4.158,4.158,0,0,1,2.142.378,3.736,3.736,0,0,1,.881,1.134l-.756.63a2.671,2.671,0,0,0-2.393-1.134q-2.017,0-2.016,3.276v.756h3.528v1.008h-3.528V34.449h-2.268V23.615Z" transform="translate(-51.486 -5.943)" fill="#7e3486"/>
            <path id="패스_249" data-name="패스 249" d="M175.058,25.962a2.005,2.005,0,0,0-1.5-.58v-.529c.085,0,.21-.009.378-.025s.336-.025.5-.025a4.258,4.258,0,0,1,2.407.693,5.125,5.125,0,0,1,1.751,2.456l2.141,5.291,2.142-5.417a6.828,6.828,0,0,0-1.147-1.89,1.84,1.84,0,0,0-1.373-.555v-.529q.126,0,.378-.025t.5-.025a4.254,4.254,0,0,1,2.406.693,5.121,5.121,0,0,1,1.752,2.456l2.141,5.291,3.275-8.188h1.26l-4.913,12.093h-.5l-3.149-7.811-3.15,7.811h-.5l-3.653-9.2a6.449,6.449,0,0,0-1.147-1.99" transform="translate(-58.713 -8.39)" fill="#7e3486"/>
            <path id="패스_250" data-name="패스 250" d="M206.11,36.33a5.075,5.075,0,0,1-1.789-2.217,8.4,8.4,0,0,1,0-6.261,5.165,5.165,0,0,1,1.751-2.23,4.5,4.5,0,0,1,2.683-.819,4.776,4.776,0,0,1,3.792,1.423,6.067,6.067,0,0,1,1.248,4.119l-.051,1.008H206.11a6.026,6.026,0,0,0,.907,3.452,2.856,2.856,0,0,0,2.494,1.335,3.755,3.755,0,0,0,2-.5,5.321,5.321,0,0,0,1.524-1.511l.5.378a5.486,5.486,0,0,1-1.941,2.016,5.168,5.168,0,0,1-2.6.629,4.969,4.969,0,0,1-2.9-.819m4.636-9.361a2.143,2.143,0,0,0-1.99-1.159,1.9,1.9,0,0,0-1.36.592,3.973,3.973,0,0,0-.945,1.625,7.39,7.39,0,0,0-.34,2.319H211.4a6.99,6.99,0,0,0-.655-3.377" transform="translate(-68.914 -8.39)" fill="#7e3486"/>
            <path id="패스_251" data-name="패스 251" d="M222.537,19.07a1.485,1.485,0,0,0-1.411-.617h-.5v-.5h6.6q4.887,0,7.4,2.166a7.568,7.568,0,0,1,2.507,6.047,8.9,8.9,0,0,1-1.058,4.4,7.237,7.237,0,0,1-3.137,2.961,11.04,11.04,0,0,1-5.052,1.058H222.89V20.972a3.965,3.965,0,0,0-.353-1.9m8.629,13.707a6.374,6.374,0,0,0,2.356-2.6,8.5,8.5,0,0,0,.856-3.918,8.569,8.569,0,0,0-.844-3.88,6.317,6.317,0,0,0-2.356-2.62,6.4,6.4,0,0,0-3.426-.932,8.579,8.579,0,0,0-2.52.4V33.368a11.415,11.415,0,0,0,2.57.328,6.3,6.3,0,0,0,3.363-.92" transform="translate(-74.633 -6.072)" fill="#7e3486"/>
            <path id="패스_252" data-name="패스 252" d="M250.2,33.092a7.778,7.778,0,0,1-1.171-4.435,7.529,7.529,0,0,1,1.222-4.434,4.083,4.083,0,0,1,3.565-1.739,6.378,6.378,0,0,1,1.688.2,8.617,8.617,0,0,1,1.461.555V20.972a3.965,3.965,0,0,0-.353-1.9,1.484,1.484,0,0,0-1.411-.617h-.5v-.5h2.268a3.179,3.179,0,0,1,1.4.239,1.4,1.4,0,0,1,.668.869,6.768,6.768,0,0,1,.2,1.915V34.578h-1.26l-.882-1.134h-.126a4.338,4.338,0,0,1-1.3,1.008,4.742,4.742,0,0,1-2.1.378,3.814,3.814,0,0,1-3.364-1.738m5.682.353a5.058,5.058,0,0,0,1.083-1.134V24.248q-.755-.352-1.31-.555a3.161,3.161,0,0,0-1.083-.2A2.535,2.535,0,0,0,252.19,24.9a7.848,7.848,0,0,0-.769,3.754,8.216,8.216,0,0,0,.731,3.742,2.326,2.326,0,0,0,2.167,1.423,2.679,2.679,0,0,0,1.562-.378" transform="translate(-84.243 -6.072)" fill="#7e3486"/>
            <path id="패스_253" data-name="패스 253" d="M268.991,24.128a1.484,1.484,0,0,0-1.411-.617h-.5v-.5h2.268a3.172,3.172,0,0,1,1.4.24,1.4,1.4,0,0,1,.668.869,6.739,6.739,0,0,1,.2,1.914v8.819h-2.268V26.029a3.964,3.964,0,0,0-.353-1.9m.315-3.112a1.671,1.671,0,0,1-.416-1.134,1.1,1.1,0,0,1,.314-.832,1.168,1.168,0,0,1,.844-.3,1.278,1.278,0,0,1,1,.478,1.674,1.674,0,0,1,.416,1.134,1.1,1.1,0,0,1-.314.832,1.168,1.168,0,0,1-.844.3,1.274,1.274,0,0,1-1-.479" transform="translate(-90.348 -6.342)" fill="#7e3486"/>
            <path id="패스_254" data-name="패스 254" d="M278.357,26.176a1.484,1.484,0,0,0-1.411-.617h-.5v-.5h2.268a3.208,3.208,0,0,1,1.423.251,1.534,1.534,0,0,1,.719.756h.126a4.353,4.353,0,0,1,1.373-.895,4.745,4.745,0,0,1,1.9-.365,4.63,4.63,0,0,1,3.087,1.008,4.412,4.412,0,0,1,1.2,3.527V36.9h-2.268V29.338a3.6,3.6,0,0,0-.793-2.582,2.643,2.643,0,0,0-1.978-.819,3.386,3.386,0,0,0-2.52,1.335V36.9H278.71V28.078a3.964,3.964,0,0,0-.353-1.9" transform="translate(-93.517 -8.39)" fill="#7e3486"/>
            <path id="패스_255" data-name="패스 255" d="M299.759,41a3.241,3.241,0,0,1-1.5-2.974,2.891,2.891,0,0,1,.781-2.016,4.6,4.6,0,0,1,1.99-1.259,1.681,1.681,0,0,1-1.008-1.512,1.206,1.206,0,0,1,.226-.781,3.976,3.976,0,0,1,.656-.6,3.378,3.378,0,0,1-1.349-1.259,3.691,3.691,0,0,1-.541-2.016q0-3.779,4.787-3.779h4.661v.63l-1.638.251v.126a3.421,3.421,0,0,1,1.272,1.122,2.851,2.851,0,0,1,.491,1.65q0,3.78-4.787,3.78-2.646,0-2.646.882t2.646.882a7.424,7.424,0,0,1,3.993.97,3.229,3.229,0,0,1,1.549,2.935,3.242,3.242,0,0,1-1.5,2.974,9.243,9.243,0,0,1-8.088,0m6.438-.794a2.647,2.647,0,0,0,.881-2.18q0-2.519-3.023-2.9l-1.386-.125a3.544,3.544,0,0,0-1.587,1.134,3.038,3.038,0,0,0-.555,1.889,2.645,2.645,0,0,0,.882,2.18,4.349,4.349,0,0,0,4.788,0m-.567-9.423a3.018,3.018,0,0,0,.693-2.2,3.039,3.039,0,0,0-.693-2.166,2.4,2.4,0,0,0-1.826-.731,2.472,2.472,0,0,0-1.827.693,3.016,3.016,0,0,0-.693,2.2,3.015,3.015,0,0,0,.693,2.2,2.754,2.754,0,0,0,3.653,0" transform="translate(-100.897 -8.39)" fill="#7e3486"/>
            <path id="패스_256" data-name="패스 256" d="M178.46,62.2l.643-.736a3.365,3.365,0,0,0,2.373,1.063c1.122,0,1.8-.56,1.8-1.4,0-.876-.619-1.157-1.426-1.519l-1.239-.538a2.29,2.29,0,0,1,.958-4.476,3.515,3.515,0,0,1,2.524,1.063l-.572.69a2.776,2.776,0,0,0-1.952-.807c-.97,0-1.6.491-1.6,1.263,0,.83.748,1.145,1.413,1.426l1.227.526a2.386,2.386,0,0,1,1.765,2.29c0,1.356-1.122,2.431-2.91,2.431a4.091,4.091,0,0,1-3-1.274" transform="translate(-60.371 -18.469)" fill="#7e3486"/>
            <path id="패스_257" data-name="패스 257" d="M189.942,54.843h2.15c2.63,0,4.044,1.531,4.044,4.254s-1.415,4.312-4,4.312h-2.2ZM192,62.522c2.022,0,3.015-1.263,3.015-3.424S194.021,55.72,192,55.72h-.97v6.8Z" transform="translate(-64.255 -18.553)" fill="#7e3486"/>
            <path id="패스_258" data-name="패스 258" d="M201.6,59.259a.772.772,0,1,1,.772.807.785.785,0,0,1-.772-.807m0,4.71a.774.774,0,1,1,1.543,0,.772.772,0,1,1-1.543,0" transform="translate(-68.199 -19.766)" fill="#7e3486"/>
            <path id="패스_259" data-name="패스 259" d="M214.761,58.449a3.673,3.673,0,0,1-2-2.08,4.141,4.141,0,0,1-2.1,2.384l-.526-.713a3.74,3.74,0,0,0,2.162-3.273V53.692h.935v1.122a3.186,3.186,0,0,0,2.045,2.91Zm4.6,4.418v.76h-7.293V61.055h5.949v-.971h-5.973v-.76h6.919v2.443h-5.949v1.1ZM216,56.018h-1.6v-.783H216V53.47h.9v5.283H216Zm2.968,2.84h-.924V53.271h.924Z" transform="translate(-71.085 -18.021)" fill="#7e3486"/>
            <path id="패스_260" data-name="패스 260" d="M233.374,58.3a25.016,25.016,0,0,1-5.189.374h-.865V54.083h4.932v.771h-3.974v3.039a23.379,23.379,0,0,0,5-.374Zm1.952,3.424c0,1.274-1.356,2.01-3.518,2.01s-3.518-.736-3.518-2.01,1.356-2.01,3.518-2.01,3.518.736,3.518,2.01m-.959,0c0-.783-.97-1.251-2.56-1.251s-2.571.467-2.571,1.251.981,1.251,2.571,1.251,2.56-.468,2.56-1.251m.924-2.022h-.958V53.253h.958Z" transform="translate(-76.899 -18.015)" fill="#7e3486"/>
            <path id="패스_261" data-name="패스 261" d="M21.449,5.934a14.133,14.133,0,0,1,12.929,3.35c.888.768.875.782,1.791-.031a14.753,14.753,0,0,1,24.132,7.7c.015.06.027.119.041.179a12.643,12.643,0,0,0-.041-5.706,14.753,14.753,0,0,0-24.132-7.7c-.915.814-.9.8-1.791.032A14.135,14.135,0,0,0,21.449.407C15.1,1.868,11.4,6.077,10,12.366a11.074,11.074,0,0,0,.159,4.864c1.513-5.922,5.171-9.887,11.293-11.3" transform="translate(-3.312 0)" fill="#7e3486"/>
            <path id="패스_262" data-name="패스 262" d="M79.313,66.757c.355-.175.709-.352,1.2-.6-.555-.539-1.012-1.067-1.541-1.486a6.969,6.969,0,0,0-9.9.971c-1.22,1.375-2.463,2.726-3.706,4.074a7.538,7.538,0,0,1-6.254,2.64c-1.693-.1-4.275-1.973-5.85-3.273L51.1,70.977l-.571.5h0s-.431.392-1.175.979c3.532,2.63,11.188,7.27,16.229,2.565,1.184-1.327,2.378-2.64,3.617-3.9a7.426,7.426,0,0,1,10.709,0c.047.047.1.086.253.22C79.708,70.108,79.3,69,78.889,67.9c-.292-.786-.292-.786.425-1.142" transform="translate(-16.697 -21.328)" fill="#7e3486"/>
            <path id="패스_263" data-name="패스 263" d="M33.063,54.431l.57-.5q2.829-2.477,5.661-4.954c.339-.3.677-.593,1.016-.888q2.3-2.015,4.606-4.029,3.778-3.3,7.557-6.6a13.918,13.918,0,0,0,4.431-6.489,25.663,25.663,0,0,0,.852-7.913c-.57,1.19-1.064,2.364-1.687,3.483A17.428,17.428,0,0,1,52.04,30.9q-4.87,4.25-9.734,8.5c-.026-.069-.052-.136-.077-.205a16.6,16.6,0,0,1-1.015-4.611,5.757,5.757,0,0,0-1.9-3.8,3.446,3.446,0,0,1-.093-.5,8.085,8.085,0,0,1,.12-2.1c.021-.146.042-.291.061-.438.015-.112.03-.226.047-.339l.023-.173a16.947,16.947,0,0,0,.2-1.946,5.638,5.638,0,0,0-.652-2.82,1.107,1.107,0,0,0-.074-.111c-.086-.112-.117-.161-.032-.253a.135.135,0,0,0-.012-.17c-.056-.068-.111-.146-.163-.222a1.3,1.3,0,0,0-.461-.467.636.636,0,0,1-.265-.287.708.708,0,0,0-.332-.333l-.065-.508a3.9,3.9,0,0,1,.459-2.113c.082-.168.166-.342.245-.549a1.283,1.283,0,0,0-.473-1.449,1.036,1.036,0,0,0-.422-1.032l-.066-.05a.054.054,0,0,0-.062,0,.059.059,0,0,0-.022.03,2.61,2.61,0,0,0-1.68-.637h-.175a.064.064,0,0,0-.036.013,3.262,3.262,0,0,0-2.294.679l-.105.089a.062.062,0,0,0-.017.027,1.544,1.544,0,0,0-.933,1.228,1,1,0,0,0,.29.67c-.013.162-.024.329-.035.491a.308.308,0,0,0,.071.175.463.463,0,0,1,.038.067c.015.036.034.072.054.11a.432.432,0,0,1,.073.217,5.1,5.1,0,0,1-.19.715l-.035.111a.315.315,0,0,0,.05.313.388.388,0,0,0,.321.12l.064-.005c.2.569.229.645.442.766a.667.667,0,0,0,.124.631.9.9,0,0,0,.791.092c.177-.036.355-.075.528-.114.062-.016.126-.029.191-.043a.23.23,0,0,1,.173.008.191.191,0,0,1,.077.132c0,.017.009.034.013.05l0,.012a.294.294,0,0,1,.017.151.866.866,0,0,0,.044.767,1.111,1.111,0,0,0-.564.972.3.3,0,0,1-.035.142c-.132.2-.289.431-.492.717a.21.21,0,0,1-.09.079.677.677,0,0,0-.541.526.859.859,0,0,0,.113.708.366.366,0,0,1,.032.42,2.466,2.466,0,0,0-.162,1.319c.018.178.038.353.06.539l.013.1c0,.016,0,.031,0,.047a2.18,2.18,0,0,1-.974-.693l-.009-.01c-.481-.516-1.023-1.114-1.1-1.245-.1-.173-.192-.357-.279-.535l-.008-.016c-.091-.189-.2-.4-.318-.607a1.758,1.758,0,0,1,.085-1.784.68.68,0,0,1,.348-.247,2.8,2.8,0,0,1,.414-.118c.076-.016.154-.035.232-.055a.479.479,0,0,0,.321-.217.418.418,0,0,0-.007-.366.647.647,0,0,0-.04-.085.268.268,0,0,1-.043-.114.7.7,0,0,0-.12-.658.252.252,0,0,1,.039-.146l.016-.024c.084-.135.132-.21.107-.3s-.112-.122-.281-.2l-.014-.007a1.43,1.43,0,0,1-.441-.286.829.829,0,0,0,.287-.128l.144-.109a.057.057,0,0,0,.016-.069.055.055,0,0,0-.067-.026l-.174.058a.618.618,0,0,1-.383.017.673.673,0,0,1-.032-.093,1,1,0,0,1-.022-.143.643.643,0,0,0-.066-.259c-.064-.108-.136-.224-.224-.353a1.046,1.046,0,0,0-.034-.309,1.09,1.09,0,0,0-.875-.708,1.939,1.939,0,0,0-1.732.076,1.174,1.174,0,0,1-.3.1c-.069.018-.138.039-.205.064l-.083.03a1.254,1.254,0,0,0-.382.191c-.171.139-.33.291-.489.442-.108.1-.224.21-.344.318-.035.031-.094.081-.129.079-.007,0-.031-.008-.067-.064a.343.343,0,0,0-.252-.118,1.6,1.6,0,0,0-1.34.527.425.425,0,0,0-.058.506.448.448,0,0,1,.031.308.754.754,0,0,0,.426,1.028.542.542,0,0,1,.154.132c.022.024.043.047.066.07a1.053,1.053,0,0,1,.082.091.607.607,0,0,0,.224.186.953.953,0,0,0,.339.046h.016c-.03.048-.061.1-.093.146-.112.179-.242.388-.378.584a23.075,23.075,0,0,1-5.2,5.545,9.35,9.35,0,0,1-3.275,1.674,9.015,9.015,0,0,1-.92.171l-.017,0c-.144.021-.294.044-.438.069l-.039.005a.056.056,0,0,0-.04.081l.017.032a.981.981,0,0,1,.1.623c-.015.092-.031.2-.047.3l-.021.136c-.022.157-.046.315-.069.47l-.017.114c-.036.241-.073.49-.1.736a.307.307,0,0,0,.276.382.339.339,0,0,0,.4-.289,3.2,3.2,0,0,0,.067-.423v-.013c0-.038.007-.075.011-.115.022-.2.078-.279.212-.307.168-.035.272.057.373.206a1.323,1.323,0,0,1,.209.85c-.009.173-.03.348-.05.527-.015.13-.029.264-.04.4a.332.332,0,0,0,.124.3.4.4,0,0,0,.342.062.6.6,0,0,0,.429-.334.438.438,0,0,1,.082.117,1.29,1.29,0,0,0,.874.633,1.354,1.354,0,0,0,1.1-.12c.487-.343,1-.715,1.466-1.111a14.025,14.025,0,0,0,4.027-5.779,18.267,18.267,0,0,0,.932-3.436c.064-.384.116-.766.169-1.168l.015-.1c.014-.113.03-.226.045-.341a1.512,1.512,0,0,0,1.018.165c.758-.08,1.072.028,1.2.133a.259.259,0,0,1,.1.193c0,.04,0,.081,0,.122v.067a1.625,1.625,0,0,1-.091.7,11.1,11.1,0,0,1-.929,1.562,2.307,2.307,0,0,0-.421,1.732c.056.355.351,3.482.355,4.458-4.365-.306-8.092,3.89-9.243,5.34q-3.966-3.474-7.917-6.962a15.52,15.52,0,0,1-2.6-2.976,32.608,32.608,0,0,1-1.842-3.586c.028,1.65.1,3.315.272,4.972a13.656,13.656,0,0,0,4.905,9.232q1.566,1.351,3.125,2.708c4.136,3.6,8.244,7.221,12.371,10.828.191.167.4.319.572.455l2.76-2.383a15.657,15.657,0,0,1-.247-2.321,22.808,22.808,0,0,1,.67-5.982c.092-.4.161-.8.228-1.193.047-.277.095-.562.152-.837.046-.224.091-.448.135-.676a19.409,19.409,0,0,0,.43-3.284,16.7,16.7,0,0,0-.083-2.2l.046-.017a9.838,9.838,0,0,0,2.645-1.25c.048-.032.1-.063.144-.091l.008-.005.013.026a.325.325,0,0,0,.154.184.158.158,0,0,1,.12.186l-.017.416c-.018.439-.035.894-.043,1.34,0,.1,0,.21-.007.314-.011.455-.022.926.011,1.389s.108.94.177,1.4l.013.083c.021.134.042.268.061.4l.011.07c.058.4.116.81.175,1.212.034.249.07.5.107.744l.059.406q.181,1.251.36,2.5c.042.3.087.594.132.892l.023.161c.111.731.222,1.486.308,2.226L30.312,49.9c-1.005.879-3,2.652-3,2.652-1.566,1.3-4.2,3.227-5.913,3.326a7.542,7.542,0,0,1-6.253-2.639c-1.245-1.348-2.487-2.7-3.708-4.074a6.967,6.967,0,0,0-9.9-.972c-.529.42-.987.948-1.541,1.488.487.244.841.421,1.2.6.717.355.719.355.425,1.143-.409,1.1-.82,2.207-1.278,3.437.155-.134.207-.173.253-.22a7.427,7.427,0,0,1,10.71,0c1.239,1.262,2.434,2.577,3.617,3.9h0C21.659,64.824,33.063,54.431,33.063,54.431Zm-.9-25.326-.312.131-.294.124,0-.021a1.653,1.653,0,0,1,.034-.215c.04-.17.073-.274.114-.3a.086.086,0,0,1,.042-.009,1.123,1.123,0,0,1,.29.075l.265.085.082.026a.02.02,0,0,1,.01,0Z" transform="translate(0 -4.847)" fill="#7e3486"/>
        </g>
    </g>
</svg>
