<svg xmlns="http://www.w3.org/2000/svg" width="270" height="97" viewBox="0 0 270 97">
    <defs>
        <clipPath id="clip-path">
            <rect id="사각형_1248" width="217" height="97" fill="#ffd252" rx="10" transform="translate(260 870.813)"/>
        </clipPath>
        <style>
            .cls-5{fill:#f9be8b}.cls-6{fill:#110101}.cls-7{fill:#231f20}.cls-8{fill:#ffa87c}.cls-10{fill:#ffd1a8}.cls-12{fill:#230614}.cls-15{fill:#fff}.cls-16{fill:#f27070}.cls-17{fill:#6b4141}.cls-18{fill:#d8d7bf}.cls-19{fill:#f9efd2}.cls-20{fill:#ad4234}.cls-22{fill:#003458}.cls-24{fill:#002a42}.cls-25{fill:#431f1f}
        </style>
    </defs>
    <g id="그룹_1328" transform="translate(-280 -457)">
        <rect id="사각형_1246" width="270" height="79" fill="#ff5a5a" rx="10" transform="translate(280 475)"/>
        <g id="마스크_그룹_11" clip-path="url(#clip-path)" transform="translate(49 -413.813)">
            <g id="그룹_1292" transform="translate(274.74 871.016)">
                <g id="그룹_1291">
                    <g id="그룹_1276">
                        <path id="패스_1835" fill="#f7996f" d="M1045.087 357.693l-9.814 20.92 6.122 1.649 7.857-22.137a2.086 2.086 0 0 0-1.613-2.471c-1.066-.224-2.239 1.017-2.552 2.039z" transform="translate(-991.092 -346.336)"/>
                        <g id="그룹_1071" transform="translate(50.376 4.337)">
                            <g id="그룹_1065" transform="translate(3.101 .123)">
                                <path id="패스_1836" d="M1123.938 312.92s-.435 2.542.153 3.3a4.171 4.171 0 0 0 2.363 1.658c2.813.475 2.506-3.045 2.506-3.045l-2.069-3.861-1.73-1.347z" class="cls-5" transform="translate(-1123.783 -309.623)"/>
                            </g>
                            <g id="그룹_1066" transform="translate(7.576 3.45)">
                                <path id="패스_1837" d="M1168.184 341.3s.175.61-1.095 2.034l-.694-1.064z" class="cls-5" transform="translate(-1166.395 -341.299)"/>
                            </g>
                            <g id="그룹_1067" transform="translate(5.825 1.082)">
                                <path id="패스_1838" d="M1151.309 318.757a1.777 1.777 0 0 1-1.07 1.276l-.518-.535z" class="cls-5" transform="translate(-1149.72 -318.757)"/>
                            </g>
                            <g id="그룹_1068" transform="translate(4.822)">
                                <path id="패스_1839" d="M1141.571 308.452a1.777 1.777 0 0 1-1.327 1.006l-.072-.785z" class="cls-5" transform="translate(-1140.172 -308.452)"/>
                            </g>
                            <g id="그룹_1069" transform="translate(6.602 2.366)">
                                <path id="패스_1840" d="M1158.882 330.98a2.453 2.453 0 0 1-1.168 1.523l-.59-.727z" class="cls-5" transform="translate(-1157.124 -330.98)"/>
                            </g>
                            <g id="그룹_1070" transform="translate(0 3.241)">
                                <path id="패스_1841" d="M1097.876 343.089s-1.462-2.27-3.213-2.754a.468.468 0 0 1-.382-.608c.17-.49 1.286-.527 1.909-.221a4.483 4.483 0 0 1 1.556 1.245 2.413 2.413 0 0 1 .283 1.708z" class="cls-5" transform="translate(-1094.256 -339.309)"/>
                            </g>
                        </g>
                        <g id="그룹_1172">
                            <g id="그룹_1073" transform="translate(9.447 18.734)">
                                <g id="그룹_1072">
                                    <path id="패스_1842" d="M704.541 445.533l9.691 1.495.356 10.176-5.937 1.483z" class="cls-6" transform="translate(-704.541 -445.533)"/>
                                </g>
                            </g>
                            <g id="그룹_1075" transform="translate(22.76 9.574)">
                                <g id="그룹_1074">
                                    <path id="패스_1843" d="M837.586 358.318s1.118 6.1 3.612 9.261c2.053 2.6 4.692 3.727 5.282 9.564.521 5.155-2.664 7.065-2.562 9.635s-11.912-7.423-11.912-7.423l-.7-8.7z" class="cls-7" transform="translate(-831.302 -358.318)"/>
                                </g>
                            </g>
                            <g id="그룹_1077" transform="translate(5.355 68.449)">
                                <g id="그룹_1076">
                                    <path id="패스_1844" d="M673.878 918.917a7.845 7.845 0 0 1 7.351 8.307s-.918 22.514-1.709 36.178l-.062 1.055c-.133 2.251-.263 4.218-.382 5.749-.26 3.336-1.6 12.5-1.764 15.321s-.149 9.265-.149 9.265-.689 21.987-.6 22.511c.008.046.016.092.026.138l1.558 6.946a.648.648 0 0 1-.633.79h-9.477a.648.648 0 0 1-.594-.908l2.63-6.006a2.885 2.885 0 0 0 .176-1.776c-.3-1.388-2.933-19.108-3.076-23.145-.124-3.51 1.234-13.076.859-16.492-.387-3.527-1.879-7.925-2.142-11.463-.021-.292-.042-.6-.062-.924-.1-1.63-.175-3.635-.232-5.864-.311-12.358 3.958-39.944 8.282-39.682z" class="cls-8" transform="translate(-665.58 -918.915)"/>
                                </g>
                            </g>
                            <g id="그룹_1080" transform="translate(8.974 25.053)">
                                <g id="그룹_1079">
                                    <g id="그룹_1078">
                                        <path id="패스_1845" fill="#8e3836" d="M704.82 518.689c.556 7.743-.153 16.088-2.95 23.507-.725 1.924.074 4.529-.631 6.434-3.882 10.485 1.8 24.313 14.657 16.824 6.41-3.732 6.5-13.069 7.348-19.857 1.1-8.878 2.392-19.644-.441-28.178-1.048-3.157.927-7.332-2.736-7.039a3.552 3.552 0 0 1-3.926-2.625 3.5 3.5 0 0 0-6.674 1.1c-.372 2.445-3.957 1.329-5.059 3.211-.685 1.174-1.392 3.612.412 6.623z" transform="translate(-700.036 -505.706)"/>
                                    </g>
                                </g>
                            </g>
                            <g id="그룹_1083" transform="translate(21.503 68.377)">
                                <g id="그룹_1082">
                                    <g id="그룹_1081">
                                        <path id="패스_1846" d="M819.342 926.318c.008.264.031.535.065.79 0 0 1.892 21.392 3.227 32.047.148 1.188.291 2.243.422 3.119.079.528.182 1.137.3 1.8.9 5 3.112 13.041 3.284 14.34.581 4.415.051 11.2.3 14.368.56 7.218 5.06 28.488 5.06 28.488a2.876 2.876 0 0 0 3.207 2.648 3.052 3.052 0 0 0 2.648-3.1l-.646-23.751s-.474-7-.554-11.456c-.053-3.02-.044-16.051-.069-20.852-.018-3.136-.029-5.474-.029-5.474l-.01-.232-1.521-33.232a7.844 7.844 0 1 0-15.68.494z" class="cls-8" transform="translate(-819.338 -918.226)"/>
                                    </g>
                                </g>
                            </g>
                            <g id="그룹_1086" transform="translate(6.775)">
                                <g id="그룹_1085">
                                    <g id="그룹_1084">
                                        <path id="패스_1847" d="M679.539 280.282c3.969 11.5 13.9 10.9 19.473 6.54 2.712-2.122 2.894-6.2 2.8-7.645a13.958 13.958 0 0 0-1-4.047c-8.096-16.03-24.612-4.536-21.273 5.152z" class="cls-7" transform="translate(-679.098 -267.152)"/>
                                    </g>
                                </g>
                            </g>
                            <g id="그룹_1090" transform="translate(17.057 18.021)">
                                <g id="그룹_1089">
                                    <g id="그룹_1088">
                                        <g id="그룹_1087">
                                            <path id="패스_1848" d="M784.691 458.177a3.377 3.377 0 1 1-6.435-2.049c1.146-3.6-.467-10.812-1.122-13.057a3.012 3.012 0 0 1-.075-.318 3.376 3.376 0 0 1 6.559-1.575 49.881 49.881 0 0 1 1.2 5.352c.603 3.555.982 8.161-.127 11.647z" class="cls-10" transform="translate(-776.999 -438.747)"/>
                                        </g>
                                    </g>
                                </g>
                            </g>
                            <g id="그룹_1093" transform="translate(17.057 18.021)">
                                <g id="그룹_1092">
                                    <g id="그룹_1091">
                                        <path id="패스_1849" fill="#ecb388" d="M784.821 446.531a11.111 11.111 0 0 1-7.762-3.777 3.376 3.376 0 0 1 6.559-1.575 49.881 49.881 0 0 1 1.203 5.352z" transform="translate(-776.999 -438.747)"/>
                                    </g>
                                </g>
                            </g>
                            <g id="그룹_1096" transform="translate(12.055 4.508)">
                                <g id="그룹_1095">
                                    <g id="그룹_1094">
                                        <path id="패스_1850" d="M743.438 329.332c-3.994 2.166-11.318-1.175-12.246-5.622l-1.647-3.722a8.226 8.226 0 0 1 6.371-9.735 8.227 8.227 0 0 1 9.735 6.371l.766 3.669c.639 3.95-1.017 7.973-2.979 9.039z" class="cls-10" transform="translate(-729.369 -310.078)"/>
                                    </g>
                                </g>
                            </g>
                            <g id="그룹_1105" transform="translate(11.154 2.822)">
                                <g id="그룹_1104">
                                    <g id="그룹_1103">
                                        <path id="패스_1853" d="M731.524 295.869s-5.15 8.895-8.6 10.4-1.676-7.612-1.676-7.612l9.464-4.63z" class="cls-7" transform="translate(-720.792 -294.026)"/>
                                    </g>
                                </g>
                            </g>
                            <g id="그룹_1108" transform="translate(21.861 4.089)">
                                <g id="그룹_1107">
                                    <g id="그룹_1106">
                                        <path id="패스_1854" d="M822.747 306.671a11.163 11.163 0 0 1 6.519 6.6c.8 2.362 1.069 1.081.683-.356a35.993 35.993 0 0 0-1.528-4.149l-5.032-2.674z" class="cls-6" transform="translate(-822.747 -306.091)"/>
                                    </g>
                                </g>
                            </g>
                            <g id="그룹_1123" transform="translate(23.853 11.809)">
                                <g id="그룹_1122">
                                    <g id="그룹_1121">
                                        <path id="패스_1859" d="M841.928 385.787h.006a2.95 2.95 0 0 0 1.928-1.155.575.575 0 0 0-.1-.787 4.612 4.612 0 0 1-1.9-4.172.068.068 0 1 0-.133-.026 4.754 4.754 0 0 0 1.942 4.3.439.439 0 0 1 .073.6 2.817 2.817 0 0 1-1.841 1.1.068.068 0 0 0 .014.134z" class="cls-12" transform="translate(-841.707 -379.592)"/>
                                    </g>
                                </g>
                            </g>
                            <g id="그룹_1126" transform="translate(20.447 19.787)">
                                <g id="그룹_1125">
                                    <g id="그룹_1124">
                                        <path id="패스_1860" d="M812.353 456.436a4.118 4.118 0 0 0 1.891-.58.068.068 0 1 0-.07-.116 4.976 4.976 0 0 1-4.8-.169.068.068 0 0 0-.071.115 5.776 5.776 0 0 0 3.05.75z" class="cls-12" transform="translate(-809.276 -455.561)"/>
                                    </g>
                                </g>
                            </g>
                            <g id="그룹_1129" transform="translate(33.329 167.035)">
                                <g id="그룹_1128">
                                    <g id="그룹_1127">
                                        <path id="패스_1861" d="M933.116 1865.121l19.147-.065a.628.628 0 0 0 .264-1.2l-14.168-6.231-6.416.066z" class="cls-8" transform="translate(-931.944 -1857.628)"/>
                                    </g>
                                </g>
                            </g>
                            <g id="그룹_1146" transform="translate(40.725 37.866)">
                                <g id="그룹_1145">
                                    <path id="패스_1867" fill="#e66e56" d="M1002.379 627.705l-.016.016z" transform="translate(-1002.363 -627.705)"/>
                                </g>
                            </g>
                            <path id="패스_1868" fill="#1771b6" d="M684.549 552.916c-.154-.214-.313-.423-.485-.621-.086-.1-.178-.194-.27-.289l-.027-.033a9.4 9.4 0 0 0-7.572-2.707c-.072 3.659-11.51.811-12.175.36-4.453.625-7.664 1.861-9.075 3.965a17.011 17.011 0 0 0-3.025 8.116s3.468 3.186 7.465 2.588c.194-.029.2-.611.377-.847.743 4.833-.118 12.746-1.65 19.25l25 .437c-.229-.9-.45-1.8-.649-2.672a19.3 19.3 0 0 1 .011-8.712 12.988 12.988 0 0 0 .471-3.135c.081-.007-.815-11.188 1.604-15.7z" transform="translate(-647.998 -519.577)"/>
                            <path id="패스_1869" d="M631.307 350.827c-2.275-4.792 2.013-8.549 1-13.37-1.12-5.34-5.868-11.659-5.868-11.659L625 320.6l-1.437-10.518a22.031 22.031 0 0 0-3.84 17.4c1.928 10.622-3.45 6.563-4.871 12.667-1.076 4.625 1.4 7.78 2.91 10.115a5.276 5.276 0 0 0 3.684 2.355 14.612 14.612 0 0 0 9.861-1.792z" class="cls-7" transform="translate(-614.588 -305.57)"/>
                            <g id="그룹_1149" transform="translate(10.859 15.033)">
                                <g id="그룹_1148">
                                    <g id="그룹_1147">
                                        <path id="패스_1870" d="M721.3 411.467c.764 1.059.771 2.359.014 2.9s-1.988.13-2.753-.928-.77-2.359-.014-2.9 1.99-.13 2.753.928z" class="cls-10" transform="translate(-717.985 -410.299)"/>
                                    </g>
                                </g>
                            </g>
                            <g id="그룹_1151" transform="translate(33.483 42.762)">
                                <g id="그룹_1150">
                                    <path id="패스_1871" d="M934.87 680.692a.088.088 0 0 1-.087-.085c0-.031-.114-3.136-1.3-4.7a.081.081 0 0 1-.015-.031c-.012-.048-.294-1.185.5-1.54a.088.088 0 1 1 .072.16c-.609.274-.431 1.187-.4 1.32 1.209 1.617 1.319 4.661 1.324 4.79a.088.088 0 0 1-.085.09z" class="cls-15" transform="translate(-933.41 -674.324)"/>
                                </g>
                            </g>
                            <g id="그룹_1153" transform="translate(35.07 95.364)">
                                <g id="그룹_1152">
                                    <path id="패스_1872" d="M952.126 1185.08a.089.089 0 0 1-.07-.035c-2.5-3.348-3.538-9.438-3.538-9.768a.087.087 0 1 1 .175 0c0 .326 1.025 6.348 3.5 9.663a.087.087 0 0 1-.018.123.086.086 0 0 1-.049.017z" class="cls-15" transform="translate(-948.517 -1175.19)"/>
                                </g>
                            </g>
                            <g id="그룹_1155" transform="translate(35.01 128.365)">
                                <g id="그룹_1154">
                                    <path id="패스_1873" d="M949.511 1492.277a.089.089 0 0 1-.045-.012 3.242 3.242 0 0 1-1.514-2.759.083.083 0 0 1 .092-.083.087.087 0 0 1 .083.091 3.063 3.063 0 0 0 1.43 2.6.088.088 0 0 1 .03.12.089.089 0 0 1-.076.043z" class="cls-15" transform="translate(-947.951 -1489.423)"/>
                                </g>
                            </g>
                            <g id="그룹_1157" transform="translate(10.286 129.704)">
                                <g id="그룹_1156">
                                    <path id="패스_1874" d="M713.205 1505.1a.088.088 0 0 1-.074-.041 3.721 3.721 0 0 1-.51-2.823.087.087 0 0 1 .168.048 3.614 3.614 0 0 0 .491 2.682.087.087 0 0 1-.028.12.089.089 0 0 1-.047.014z" class="cls-15" transform="translate(-712.533 -1502.175)"/>
                                </g>
                            </g>
                            <g id="그룹_1159" transform="translate(12.844 130.544)">
                                <g id="그룹_1158">
                                    <path id="패스_1875" d="M736.973 1513.609a.087.087 0 0 1-.058-.153c1.044-.931.827-3.171.824-3.194a.088.088 0 0 1 .078-.1.085.085 0 0 1 .1.078c.01.1.228 2.352-.883 3.342a.085.085 0 0 1-.061.027z" class="cls-15" transform="translate(-736.886 -1510.167)"/>
                                </g>
                            </g>
                            <path id="패스_1876" d="M781.523 511.905c.98-.639-.9-1.682-1.125-2.617s1.415-3.924-.785-3.037a6.006 6.006 0 0 1-4.1-.083 7.307 7.307 0 0 0-1.487-.359c-2.48-.325-3.011.174-3.414.787-.452.687.7 1.84.61 2.858a3.561 3.561 0 0 0 .389 2.448 2.114 2.114 0 0 1 .135.985 26.07 26.07 0 0 1 9.653-.865.448.448 0 0 1 .124-.117z" class="cls-16" transform="translate(-754.133 -480.653)"/>
                            <path id="패스_1877" d="M667.014 859.6s-5.09 16.11-5.712 28.789 1.051 33.815.812 38.783-.12 21.46 1.195 27.794c0 0 5.828 1.673 11.1 0a258.343 258.343 0 0 1 .851-26.725c1.195-11.636 2.514-43.135 2.514-43.135l.652-25.506z" class="cls-17" transform="translate(-656.271 -797.378)"/>
                            <path id="패스_1878" d="M827.939 859.9s2.094 7.782 2.957 13.456 2.859 35.6 2.742 41.875-.092 27.507.523 38.442c0 0-6.018 2.037-10.813.224 0 0-1.568-13.3-1.389-19.843s-4.3-22.049-5.2-30.743-2.033-22.139-2.033-22.139V859.6z" class="cls-17" transform="translate(-793.709 -797.378)"/>
                            <path id="패스_1879" d="M696.289 573.246c-.655-1.591-.72-6.115-.72-6.115-.234-1.731.84-5.9 1.12-11.22.3-5.731 1.45-10.575 1.078-11.008-2.959-3.439-6.074-3.608-10.112-3.913-2.994-1.219-5.834.526-9.166.474-.43 1.288-11.4 2.419-11.835 7.226-.681 7.485 4.873 18.978 4.593 22.253s-3.135 6.877-.385 7.545 6.589.409 10.253.115a137.615 137.615 0 0 1 14.326-.21c2.579.257 1.503-3.557.848-5.147z" class="cls-16" transform="translate(-661.134 -511.842)"/>
                            <path id="패스_1880" d="M892.035 559.258c-3.071 10.586-7.459-4.133-7.459-4.133-.624-6.352-.124-6.944 2.629-6.389 6.2 1.25 16.328.7 22.3 2.132l-.131 6.608c-5.332.551-16.674-.506-17.339 1.782z" class="cls-16" transform="translate(-856.007 -519.02)"/>
                            <g id="그룹_1164" transform="translate(32.363 172.628)">
                                <g id="그룹_1163">
                                    <g id="그룹_1162">
                                        <g id="그룹_1161">
                                            <g id="그룹_1160">
                                                <path id="패스_1881" d="M922.746 1910.888l.015 1.966 22.638-.057-.14-1.308z" class="cls-18" transform="translate(-922.746 -1910.888)"/>
                                            </g>
                                        </g>
                                    </g>
                                </g>
                            </g>
                            <g id="그룹_1169" transform="translate(32.331 166.902)">
                                <g id="그룹_1168">
                                    <g id="그룹_1167">
                                        <g id="그룹_1166">
                                            <g id="그룹_1165">
                                                <path id="패스_1882" d="M922.44 1862.363l22.545.327s.173-3.053-2.344-4.069-12.288-2.039-12.288-2.039a29.867 29.867 0 0 1-7.1-.219z" class="cls-18" transform="translate(-922.44 -1856.364)"/>
                                            </g>
                                        </g>
                                    </g>
                                </g>
                            </g>
                            <path id="패스_1883" d="M681.3 1852.511s4.536.492 6.239-.224a20.975 20.975 0 0 1 2.061 7.182v1.054H678a3.241 3.241 0 0 1 0-1.917 61.1 61.1 0 0 1 3.3-6.095z" class="cls-18" transform="translate(-671.213 -1685.813)"/>
                            <path id="패스_1884" d="M1076.121 413.431l2 .764c3.112.824 4.588-1.281 4.8-2.136 1.514-6.131 3.845-22.228 3.845-22.228-4.719-1.986-7.868-.9-7.868-.9-1.859 5.267-2.994 18.332-3.794 20.176-.017.049 1.037 4.28 1.017 4.324z" class="cls-16" transform="translate(-1026.742 -375.879)"/>
                            <g id="그룹_1170" transform="translate(16.957 29.813)">
                                <path id="패스_1885" d="M780.245 552.7a5.384 5.384 0 0 1-4.174-1.513.1.1 0 0 1 .154-.127 5.353 5.353 0 0 0 4.19 1.438.107.107 0 0 1 .1.1.1.1 0 0 1-.1.1z" class="cls-19" transform="translate(-776.049 -551.023)"/>
                            </g>
                            <g id="그룹_1171" transform="translate(22.952 29.047)">
                                <path id="패스_1886" d="M833.471 544.7h-.239a.1.1 0 0 1-.1-.1.1.1 0 0 1 .1-.1c2.653.049 3.385-.725 3.392-.733a.1.1 0 0 1 .141-.007.1.1 0 0 1 .008.14c-.026.033-.735.8-3.302.8z" class="cls-19" transform="translate(-833.134 -543.733)"/>
                            </g>
                        </g>
                        <g id="그룹_1192" transform="translate(30.234 4.974)">
                            <g id="그룹_1183" transform="translate(16.483)">
                                <g id="그룹_1177" transform="translate(5.783)">
                                    <g id="그룹_1176">
                                        <g id="그룹_1175">
                                            <g id="그룹_1174">
                                                <g id="그룹_1173">
                                                    <path id="패스_1887" d="M1117.514 322.1a.5.5 0 0 0 .5-.488c.022-1.138 1.437-1.85 1.451-1.857a.5.5 0 0 0 .129-.091 3.007 3.007 0 1 0-5.109-2.029.5.5 0 0 0 .994-.039 2.012 2.012 0 0 1 2.009-2.091h.021a2.011 2.011 0 0 1 1.437 3.4 3.469 3.469 0 0 0-1.927 2.69.5.5 0 0 0 .488.507z" class="cls-20" transform="translate(-1114.48 -314.515)"/>
                                                </g>
                                            </g>
                                        </g>
                                    </g>
                                </g>
                                <g id="그룹_1182" transform="translate(0 7.161)">
                                    <g id="그룹_1181">
                                        <g id="그룹_1180">
                                            <g id="그룹_1179">
                                                <g id="그룹_1178">
                                                    <path id="패스_1888" d="M1076.134 384.666a.5.5 0 0 0 .143-.974 34.3 34.3 0 0 0-16.484-.008.5.5 0 0 0 .23.968 33.876 33.876 0 0 1 15.966-.008.5.5 0 0 0 .145.022z" class="cls-20" transform="translate(-1059.412 -382.705)"/>
                                                </g>
                                            </g>
                                        </g>
                                    </g>
                                </g>
                            </g>
                            <g id="그룹_1185" transform="translate(0 7.337)">
                                <g id="그룹_1184">
                                    <path id="패스_1889" fill="#f995b7" d="M907.575 389.947c2.374-5.887 15.473-5.571 15.473-5.571a6.257 6.257 0 0 0 9.838 0s13.1-.316 15.473 5.571 5.109 17.071 5.109 17.071-1.445 4.41-8.976 2.7l-.654 29.871s-8.109 3.458-15.87 3.458-16.112-3.024-16.112-3.024l.316-30.409c-7.531 1.715-9.7-2.591-9.7-2.591s2.728-11.189 5.103-17.076z" transform="translate(-902.466 -384.373)"/>
                                </g>
                            </g>
                            <g id="그룹_1186" transform="translate(19.14 7.232)">
                                <path id="패스_1890" d="M1091 387.346c4.316 0 6.881-3.726 6.908-3.765a.12.12 0 0 0-.2-.135c-.027.04-2.725 3.956-7.222 3.641s-5.534-3.594-5.544-3.627a.12.12 0 0 0-.23.07c.011.035 1.11 3.471 5.757 3.8.183.01.361.016.531.016z" class="cls-22" transform="translate(-1084.71 -383.375)"/>
                            </g>
                            <g id="그룹_1187" transform="translate(9.584 22.775)">
                                <path id="패스_1891" d="M993.842 541.293a.12.12 0 0 0 .119-.106c.039-.319.958-7.846-.012-9.747a.12.12 0 1 0-.215.109c.937 1.837 0 9.531-.012 9.609a.121.121 0 0 0 .1.134z" class="cls-22" transform="translate(-993.721 -531.374)"/>
                            </g>
                            <g id="그룹_1188" transform="translate(8.445 25.188)">
                                <path id="패스_1892" d="M984.5 557.726h.014a.121.121 0 0 0 .106-.134 6.939 6.939 0 0 0-1.53-3.2.12.12 0 0 0-.182.158 6.821 6.821 0 0 1 1.473 3.068.12.12 0 0 0 .119.108z" class="cls-22" transform="translate(-982.878 -554.352)"/>
                            </g>
                            <g id="그룹_1189" transform="translate(41.484 22.775)">
                                <path id="패스_1893" d="M1298.019 541.293h.015a.121.121 0 0 0 .1-.134c-.01-.077-.949-7.772-.012-9.609a.12.12 0 1 0-.214-.109c-.97 1.9-.052 9.428-.012 9.747a.12.12 0 0 0 .123.105z" class="cls-22" transform="translate(-1297.468 -531.374)"/>
                            </g>
                            <g id="그룹_1190" transform="translate(41.551 25.188)">
                                <path id="패스_1894" d="M1298.232 557.724a.12.12 0 0 0 .119-.106 6.815 6.815 0 0 1 1.473-3.069.121.121 0 1 0-.182-.158 6.939 6.939 0 0 0-1.53 3.2.12.12 0 0 0 .106.134z" class="cls-22" transform="translate(-1298.111 -554.35)"/>
                            </g>
                            <g id="그룹_1191" transform="translate(9.282 61.206)">
                                <path id="패스_1895" fill="#161b43" d="M1006.141 900.827a44.37 44.37 0 0 0 16.87-3.287.12.12 0 1 0-.1-.218c-.154.072-15.674 7.116-31.9.286a.121.121 0 0 0-.094.222 39.055 39.055 0 0 0 15.224 2.997z" transform="translate(-990.845 -897.311)"/>
                            </g>
                            <path id="패스_1896" d="M1036.838 517.508c.014.456.094 3.178 0 4.4a.065.065 0 0 0 .064.072c1.111.031 15.276.411 22.559 0a.066.066 0 0 0 .064-.065c.014-.437.094-3.1 0-4.416a.065.065 0 0 0-.065-.062c-1.031-.026-15-.361-22.562 0a.066.066 0 0 0-.06.071z" class="cls-15" transform="translate(-1022.726 -495.981)"/>
                        </g>
                        <path id="패스_1897" d="M929.994 773.433s20.058 1.387 32.507.355c0 0 2.883 34.95 5.279 64.665a165.38 165.38 0 0 0 5.489 31.5s-11.123 3.37-21.906 1.2c0 0 1.837-19.3.966-33.7-.827-13.69-5.083-37.207-6.063-40.932 0 0-3.921 27.147-3.725 39.746s1.568 34.695 1.568 34.695-11.9 2.96-21.3-.678c0 0 4.045-25.834 4.633-34.016s-1.172-42.394 2.552-62.835z" class="cls-22" transform="translate(-890.442 -720.263)"/>
                        <g id="그룹_1198" transform="translate(53.086 43.415)">
                            <g id="그룹_1197">
                                <g id="그룹_1196">
                                    <g id="그룹_1195">
                                        <g id="그룹_1194">
                                            <g id="그룹_1193">
                                                <path id="패스_1898" d="M1123.332 688.994c.271 0 .258-1.081.263-1.352.021-1.138 1.436-1.85 1.451-1.857a.5.5 0 0 0 .129-.091 3.006 3.006 0 1 0-5.109-2.029.5.5 0 1 0 .994-.039 2.012 2.012 0 0 1 2.01-2.091h.021a2.011 2.011 0 0 1 1.437 3.4 3.469 3.469 0 0 0-1.927 2.69c-.005.275-.007 1.19.268 1.195.002-.002.46.174.463.174z" class="cls-24" transform="translate(-1120.063 -680.542)"/>
                                            </g>
                                        </g>
                                    </g>
                                </g>
                            </g>
                        </g>
                        <g id="그룹_1199" transform="translate(40.907 51.158)">
                            <path id="패스_1899" d="M1033.7 755.335h-29.074a.533.533 0 0 1 0-1.067h29.074a.533.533 0 1 1 0 1.067z" class="cls-24" transform="translate(-1004.093 -754.268)"/>
                        </g>
                        <path id="패스_1900" d="M1239.333 760.905l-.328 2.5a.216.216 0 0 0 .214.245h3a.216.216 0 0 0 .215-.243l-.3-2.5a.217.217 0 0 0-.215-.19h-2.37a.217.217 0 0 0-.216.188z" class="cls-24" transform="translate(-1173.425 -708.882)"/>
                        <rect id="사각형_1247" width="1.575" height=".828" class="cls-24" rx=".353" transform="translate(66.506 50.499)"/>
                        <g id="그룹_1200" transform="translate(57.068 7.129)">
                            <path id="패스_1901" d="M1160.3 336.371l-1.363.753a.648.648 0 0 1-.672-1.106l1.3-.864a.712.712 0 1 1 .79 1.186z" class="cls-10" transform="translate(-1157.979 -335.034)"/>
                        </g>
                        <g id="그룹_1201" transform="translate(53.902 3.336)">
                            <path id="패스_1902" d="M1130.195 300.282l-1.455.622a.648.648 0 0 1-.557-1.168l1.4-.739a.713.713 0 1 1 .665 1.26z" class="cls-10" transform="translate(-1127.837 -298.914)"/>
                        </g>
                        <g id="그룹_1202" transform="translate(54.776 4.586)">
                            <path id="패스_1903" d="M1138.75 312.192l-1.7.714a.648.648 0 0 1-.543-1.175l1.645-.832a.712.712 0 0 1 .643 1.271z" class="cls-10" transform="translate(-1136.152 -310.822)"/>
                        </g>
                        <g id="그룹_1203" transform="translate(55.737 5.848)">
                            <path id="패스_1904" d="M1147.961 324.187l-1.72.839a.648.648 0 0 1-.607-1.143l1.659-.953a.712.712 0 1 1 .71 1.235z" class="cls-10" transform="translate(-1145.31 -322.835)"/>
                        </g>
                        <path id="패스_1905" d="M682.859 591.88c-6.227-9.1-10.559-6.417-10.559-6.417-5.239 3.646.326 9.695 2.336 11.656 1.73 1.688 9.379 10.395 15.391 13.87l2.032-8.585c-1.728-.875-3.125-1.65-9.2-10.524z" class="cls-16" transform="translate(-664.283 -551.704)"/>
                        <g id="그룹_1274" transform="translate(50.476 42.443)">
                            <g id="그룹_1217" transform="translate(4.565)">
                                <g id="그룹_1216">
                                    <g id="그룹_1215">
                                        <g id="그룹_1214">
                                            <g id="그룹_1213">
                                                <g id="그룹_1212">
                                                    <g id="그룹_1211">
                                                        <g id="그룹_1210">
                                                            <g id="그룹_1209">
                                                                <g id="그룹_1208">
                                                                    <g id="그룹_1207">
                                                                        <g id="그룹_1206">
                                                                            <g id="그룹_1205">
                                                                                <g id="그룹_1204">
                                                                                    <path id="패스_1906" d="M1139.275 672.123l2.925-.814a.613.613 0 0 1 .406 1.153l-2.7 1.231a.933.933 0 0 1-1.16-.461.817.817 0 0 1 .428-1.073.9.9 0 0 1 .101-.036z" class="cls-10" transform="translate(-1138.677 -671.286)"/>
                                                                                </g>
                                                                            </g>
                                                                        </g>
                                                                    </g>
                                                                </g>
                                                            </g>
                                                        </g>
                                                    </g>
                                                </g>
                                            </g>
                                        </g>
                                    </g>
                                </g>
                            </g>
                            <g id="그룹_1231" transform="translate(5.27 1.411)">
                                <g id="그룹_1230">
                                    <g id="그룹_1229">
                                        <g id="그룹_1228">
                                            <g id="그룹_1227">
                                                <g id="그룹_1226">
                                                    <g id="그룹_1225">
                                                        <g id="그룹_1224">
                                                            <g id="그룹_1223">
                                                                <g id="그룹_1222">
                                                                    <g id="그룹_1221">
                                                                        <g id="그룹_1220">
                                                                            <g id="그룹_1219">
                                                                                <g id="그룹_1218">
                                                                                    <path id="패스_1907" d="M1148.462 684.763a.613.613 0 0 1 .529 1.1l-2.375 1.365a.817.817 0 0 1-1.115-.3 1.035 1.035 0 0 1 .294-1.291c.033-.018 2.667-.874 2.667-.874z" class="cls-10" transform="translate(-1145.389 -684.72)"/>
                                                                                </g>
                                                                            </g>
                                                                        </g>
                                                                    </g>
                                                                </g>
                                                            </g>
                                                        </g>
                                                    </g>
                                                </g>
                                            </g>
                                        </g>
                                    </g>
                                </g>
                            </g>
                            <g id="그룹_1245" transform="translate(6.236 2.977)">
                                <g id="그룹_1244">
                                    <g id="그룹_1243">
                                        <g id="그룹_1242">
                                            <g id="그룹_1241">
                                                <g id="그룹_1240">
                                                    <g id="그룹_1239">
                                                        <g id="그룹_1238">
                                                            <g id="그룹_1237">
                                                                <g id="그룹_1236">
                                                                    <g id="그룹_1235">
                                                                        <g id="그룹_1234">
                                                                            <g id="그룹_1233">
                                                                                <g id="그룹_1232">
                                                                                    <path id="패스_1908" d="M1155.123 700.279l1.665-.61a.615.615 0 0 1 .55 1.092l-1.482.974a.82.82 0 1 1-.9-1.371.844.844 0 0 1 .167-.085z" class="cls-10" transform="translate(-1154.585 -699.631)"/>
                                                                                </g>
                                                                            </g>
                                                                        </g>
                                                                    </g>
                                                                </g>
                                                            </g>
                                                        </g>
                                                    </g>
                                                </g>
                                            </g>
                                        </g>
                                    </g>
                                </g>
                            </g>
                            <g id="그룹_1259" transform="translate(6.627 4.663)">
                                <g id="그룹_1258">
                                    <g id="그룹_1257">
                                        <g id="그룹_1256">
                                            <g id="그룹_1255">
                                                <g id="그룹_1254">
                                                    <g id="그룹_1253">
                                                        <g id="그룹_1252">
                                                            <g id="그룹_1251">
                                                                <g id="그룹_1250">
                                                                    <g id="그룹_1249">
                                                                        <g id="그룹_1248">
                                                                            <g id="그룹_1247">
                                                                                <g id="그룹_1246">
                                                                                    <path id="패스_1909" d="M1158.683 716.264l1.272-.535a.537.537 0 0 1 .469.964l-1.53.884c-.3.164-.344-.156-.509-.452a.612.612 0 0 1 .238-.832.557.557 0 0 1 .06-.029z" class="cls-10" transform="translate(-1158.307 -715.688)"/>
                                                                                </g>
                                                                            </g>
                                                                        </g>
                                                                    </g>
                                                                </g>
                                                            </g>
                                                        </g>
                                                    </g>
                                                </g>
                                            </g>
                                        </g>
                                    </g>
                                </g>
                            </g>
                            <g id="그룹_1273" transform="translate(0 .517)">
                                <g id="그룹_1272">
                                    <g id="그룹_1271">
                                        <g id="그룹_1270">
                                            <g id="그룹_1269">
                                                <g id="그룹_1268">
                                                    <g id="그룹_1267">
                                                        <g id="그룹_1266">
                                                            <g id="그룹_1265">
                                                                <g id="그룹_1264">
                                                                    <g id="그룹_1263">
                                                                        <g id="그룹_1262">
                                                                            <g id="그룹_1261">
                                                                                <g id="그룹_1260">
                                                                                    <path id="패스_1910" d="M1102.422 682.246s-2.757 1.407-5.019.912c-1.651-.361-2.915-1.826-1.726-3.591a10.175 10.175 0 0 1 3.3-2.9 8.708 8.708 0 0 1 2.632-.455s.552 1.27.292 1.544c-.138.146-.034.206.049.241.982.414.472 4.249.472 4.249z" class="cls-10" transform="translate(-1095.21 -676.21)"/>
                                                                                </g>
                                                                            </g>
                                                                        </g>
                                                                    </g>
                                                                </g>
                                                            </g>
                                                        </g>
                                                    </g>
                                                </g>
                                            </g>
                                        </g>
                                    </g>
                                </g>
                            </g>
                        </g>
                        <g id="그룹_1275" transform="translate(28.554 45.771)">
                            <path id="패스_1911" d="M909.182 703.042l-22.711 5.914 1.819 6.074 22.14-8.01a2.086 2.086 0 0 0-1.248-3.978z" class="cls-10" transform="translate(-886.471 -702.973)"/>
                        </g>
                        <path id="패스_1912" d="M850.057 706.23s2.32 6.958 5.4 6.571c6.266-.786 21.437-5.739 21.437-5.739-.061-5.12-2.309-6.7-2.309-6.7-5.571.4-14.9 2.623-16.908 2.625-.046 0-7.035 2.721-7.62 3.243z" class="cls-16" transform="translate(-825.328 -654.865)"/>
                    </g>
                    <g id="그룹_1277" transform="translate(18.703 40.44)">
                        <path id="패스_1913" d="M804.346 660.083a9.719 9.719 0 0 1-2.081-.193c-2.647-.6-10.05-5.089-9.566-7.592a.107.107 0 0 1 .209.041c-.453 2.347 6.879 6.775 9.4 7.343 2.559.576 6.843-.346 6.886-.356a.107.107 0 0 1 .046.209 26.883 26.883 0 0 1-4.894.548z" class="cls-19" transform="translate(-792.677 -652.212)"/>
                    </g>
                    <g id="그룹_1278" transform="translate(10.043 46.231)">
                        <path id="패스_1914" d="M730.16 718.886a9.037 9.037 0 0 1-3.41-.562c-2.74-1.149-11.078-4.643-16.509-10.788a.107.107 0 1 1 .16-.141c5.4 6.107 13.7 9.588 16.432 10.732 2.884 1.209 7.77.007 7.819-.005a.107.107 0 0 1 .052.207 20.912 20.912 0 0 1-4.544.557z" class="cls-19" transform="translate(-710.215 -707.359)"/>
                    </g>
                    <g id="그룹_1279" transform="translate(28.061 55.686)">
                        <path id="패스_1915" d="M884.12 798.11a.1.1 0 0 1-.073-.014 2.847 2.847 0 0 0-2.138-.458.1.1 0 0 1-.056-.192 2.98 2.98 0 0 1 2.3.481.1.1 0 0 1-.034.182z" class="cls-19" transform="translate(-881.781 -797.386)"/>
                    </g>
                    <g id="그룹_1280" transform="translate(21.397 77.171)">
                        <path id="패스_1916" d="M818.436 1014.285a.107.107 0 0 1-.068-.189c.04-.034 4.028-3.455 3.916-12.03a.107.107 0 0 1 .213 0c.114 8.684-3.952 12.162-3.993 12.2a.106.106 0 0 1-.068.019z" class="cls-25" transform="translate(-818.329 -1001.959)"/>
                    </g>
                    <g id="그룹_1281" transform="translate(9.839 124.909)">
                        <path id="패스_1917" d="M708.721 1460.078a.107.107 0 0 1-.1-.062 4.473 4.473 0 0 1 0-3.437.107.107 0 1 1 .194.088 4.335 4.335 0 0 0 0 3.261.107.107 0 0 1-.053.141.1.1 0 0 1-.041.009z" class="cls-22" transform="translate(-708.274 -1456.516)"/>
                    </g>
                    <g id="그룹_1282" transform="translate(13.081 126.584)">
                        <path id="패스_1918" d="M739.245 1475.686a.106.106 0 0 1-.075-.182 3.509 3.509 0 0 0 .679-2.915.107.107 0 1 1 .208-.046 3.664 3.664 0 0 1-.737 3.112.107.107 0 0 1-.075.031z" class="cls-22" transform="translate(-739.139 -1472.459)"/>
                    </g>
                    <g id="그룹_1283" transform="translate(8.715 68.634)">
                        <path id="패스_1919" d="M703.874 921.766a33.133 33.133 0 0 1-6.225-.568.107.107 0 0 1 .045-.209 33.2 33.2 0 0 0 10.205.3c5.33-.739 16.605-.6 16.718-.6a.107.107 0 0 1 0 .213c-.113 0-11.372-.141-16.687.6a29.693 29.693 0 0 1-4.056.264z" class="cls-25" transform="translate(-697.565 -920.678)"/>
                    </g>
                    <g id="그룹_1284" transform="translate(15.786 66.912)">
                        <path id="패스_1920" d="M765.005 907.091H765a.107.107 0 0 1-.1-.114l.181-2.6a.108.108 0 0 1 .114-.1.107.107 0 0 1 .1.114l-.181 2.6a.107.107 0 0 1-.109.1z" class="cls-25" transform="translate(-764.899 -904.278)"/>
                    </g>
                    <g id="그룹_1285" transform="translate(33.016 66.37)">
                        <path id="패스_1921" d="M929.4 901.592a.107.107 0 0 1-.105-.091l-.332-2.264a.107.107 0 1 1 .211-.031l.332 2.264a.106.106 0 0 1-.09.121z" class="cls-25" transform="translate(-928.961 -899.114)"/>
                    </g>
                    <g id="그룹_1286" transform="translate(17.282 66.912)">
                        <path id="패스_1922" d="M779.246 906.869a.107.107 0 0 1-.106-.107v-2.378a.107.107 0 0 1 .213 0v2.378a.107.107 0 0 1-.107.107z" class="cls-25" transform="translate(-779.14 -904.277)"/>
                    </g>
                    <g id="그룹_1287" transform="translate(55.526 70.431)">
                        <path id="패스_1923" d="M1143.6 943.71a.107.107 0 0 1-.107-.1l-.191-5.715a.107.107 0 1 1 .213-.007l.191 5.715a.107.107 0 0 1-.1.11z" class="cls-19" transform="translate(-1143.3 -937.782)"/>
                    </g>
                    <g id="그룹_1288" transform="translate(71.72 112.406)">
                        <path id="패스_1924" d="M1297.6 1341.625a.106.106 0 0 1-.09-.163 7.6 7.6 0 0 0 .642-3.882.107.107 0 1 1 .212-.02 7.656 7.656 0 0 1-.674 4.015.108.108 0 0 1-.09.05z" class="cls-19" transform="translate(-1297.494 -1337.463)"/>
                    </g>
                    <g id="그룹_1289" transform="translate(42.348 112.406)">
                        <path id="패스_1925" d="M1018.611 1341.628a.107.107 0 0 1-.091-.05 7.661 7.661 0 0 1-.674-4.015.11.11 0 0 1 .116-.1.107.107 0 0 1 .1.116 7.61 7.61 0 0 0 .642 3.882.106.106 0 0 1-.034.147.108.108 0 0 1-.059.02z" class="cls-19" transform="translate(-1017.815 -1337.467)"/>
                    </g>
                    <g id="그룹_1290" transform="translate(64.204 53.771)">
                        <path id="패스_1926" d="M1235.1 791.965a.106.106 0 0 1-.059-.018 22.442 22.442 0 0 1-9.115-12.665.107.107 0 0 1 .082-.126.108.108 0 0 1 .127.082 22.22 22.22 0 0 0 9.024 12.532.107.107 0 0 1-.059.2z" class="cls-19" transform="translate(-1225.927 -779.153)"/>
                    </g>
                </g>
                <path id="패스_2019" d="M.937 0c.554-.056 1.033.544 1.07 1.34s-.381 1.49-.935 1.546S.039 2.343 0 1.547.384.06.937 0" class="cls-7" transform="rotate(-14.98 59.22 -67.407)"/>
                <path id="패스_2021" d="M.8 0c.47-.05.877.485.908 1.195S1.38 2.524.91 2.574.033 2.089 0 1.379.326.053.8 0" class="cls-7" transform="rotate(-14.98 56.692 -89.419)"/>
                <path id="패스_2022" d="M4.974.934A6.464 6.464 0 0 0 .513 1.4a.75.75 0 0 1-.435.194c-.11-.008-.1-.117.025-.241C.107 1.418 1.368-.5 4.761.126c.232.054.259.82.212.809" class="cls-7" transform="rotate(-21 40.83 -36.254)"/>
                <path id="패스_2023" d="M.02.628a4.446 4.446 0 0 1 3.114.284.547.547 0 0 0 .325.123c.08-.011.069-.09-.033-.176A3.381 3.381 0 0 0 .125.123c-.151.041-.135.513-.1.5" class="cls-7" transform="rotate(-12.04 58.156 -111.065)"/>
            </g>
        </g>
    </g>
</svg>
