<svg xmlns="http://www.w3.org/2000/svg" width="310" height="80" viewBox="0 0 310 80">
    <defs>
        <clipPath id="clip-path">
            <rect id="사각형_2573" width="310" height="80" fill="#d25e5e" rx="10" transform="translate(260 645)"/>
        </clipPath>
        <style>
            .cls-4,.cls-7{fill:none}.cls-4{stroke:#e67b7b;opacity:.3;stroke-width:5px}.cls-6{stroke:none}
        </style>
    </defs>
    <g id="그룹_3370" transform="translate(-260 -645)">
        <path id="패스_3138" fill="#e25252" d="M10 0h290a10 10 0 0 1 10 10v60a10 10 0 0 1-10 10H10A10 10 0 0 1 0 70V10A10 10 0 0 1 10 0z" transform="translate(260 645)"/>
        <g id="마스크_그룹_31" clip-path="url(#clip-path)">
            <g id="타원_161" class="cls-4" transform="translate(503 632)">
                <circle cx="20" cy="20" r="20" class="cls-6"/>
                <circle cx="20" cy="20" r="17.5" class="cls-7"/>
            </g>
            <g id="타원_162" class="cls-4" transform="translate(337 710)">
                <circle cx="14.5" cy="14.5" r="14.5" class="cls-6"/>
                <circle cx="14.5" cy="14.5" r="12" class="cls-7"/>
            </g>
            <g id="타원_163" fill="none" stroke="#e67b7b" stroke-width="15px" opacity="0.3" transform="translate(239 625)">
                <circle cx="36" cy="36" r="36" class="cls-6"/>
                <circle cx="36" cy="36" r="28.5" class="cls-7"/>
            </g>
        </g>
    </g>
</svg>
