<svg xmlns="http://www.w3.org/2000/svg" width="480" height="103" viewBox="0 0 480 103">
    <defs>
        <clipPath id="clip-path">
            <path id="사각형_1004" d="M0 0H480V103H0z" class="cls-1" transform="translate(-1864 5746.49)"/>
        </clipPath>
        <style>
            .cls-1{fill:#fff1f1}.cls-6{fill:#5c3243}.cls-7{fill:#fff}.cls-8{fill:#f27070}.cls-9{fill:#231f20}.cls-10{fill:#f4bf6e}.cls-11{fill:#f5dfd5}.cls-12{fill:#eb8773}.cls-13{fill:#5e65b5}.cls-14{fill:#1f2144}.cls-15{fill:#cc6c59}.cls-16{fill:#c6cfa5}.cls-17{fill:#de5252}.cls-18{fill:#bd6864}.cls-19{fill:#b45252}.cls-21{fill:#fbbe7d}.cls-22{fill:#e68052}.cls-23{fill:#bd7764}.cls-24{fill:#4f4c4d}
        </style>
    </defs>
    <g id="그룹_3518" transform="translate(0 -368)">
        <path id="사각형_977" fill="#ffd9d9" d="M0 0H480V83H0z" transform="translate(0 388)"/>
        <text id="가장_파급효과있는_LIVE_판매자가_있는_곳_Pumkin_Live" fill="#e73828" font-family="NotoSansCJKkr-Regular, Noto Sans CJK KR" font-size="14px" letter-spacing="-0.03em" transform="translate(43 422)">
            <tspan x="0" y="0">가장 파급효과있는 LIVE </tspan><tspan x="0" y="27">판매자가 있는 곳, </tspan><tspan y="27" font-family="NotoSansCJKkr-Bold, Noto Sans CJK KR" font-weight="700">Pumkin Live</tspan>
        </text>
        <g id="마스크_그룹_6" clip-path="url(#clip-path)" transform="translate(1864 -5378.49)">
            <g id="그룹_830" transform="translate(-1595.096 5746.584)">
                <path id="패스_1682" d="M137.605 1280.055q-5.575 14.526-11.054 29.084-.643 1.71-1.284 3.421.638-.011 1.276-.028 4.892-13.03 9.861-26.035 1.163-3.042 2.33-6.083l-1.13-.359" class="cls-6" transform="translate(-109.767 -1157.989)"/>
                <path id="패스_1683" d="M237.567 1313.256l-1.295-3.451q-5.478-14.559-11.054-29.084l-1.13.36q1.167 3.041 2.33 6.083 5 13.079 9.918 26.185c.411-.021.821-.052 1.231-.092" class="cls-6" transform="translate(-196.361 -1158.578)"/>
                <path id="패스_1684" d="M223.12 1287.084q-.1 15.43-.3 30.859-.025 1.9-.054 3.8c-.4-.01-.8 0-1.194.019q.2-14.122.31-28.245.026-3.23.046-6.46l1.194.024" class="cls-6" transform="translate(-194.155 -1164.185)"/>
                <path id="패스_1685" d="M63.516 869.312a1.215 1.215 0 0 0-.061-.23c-.036-.094-.083-.15-.14-.158C62.8 868.852.542 870.438 0 870.433v36.354c2.066-.97 62.715-34.02 63.237-34.344a7.146 7.146 0 0 0 .278-3.132" class="cls-7" transform="translate(0 -794.335)"/>
                <path id="패스_1686" d="M214.654 648.179h-.254l.048-.343c.01-.073-.111-.1-.121-.03-.016.125-.035.248-.052.373h-.831l.055-.381c.01-.073-.111-.1-.121-.031-.018.138-.04.275-.058.412h-.52c-.08 0-.073.116.007.116h.492c-.036.253-.111.707-.214 1.3-.208 1.2-.528 2.953-.861 4.744-.322 1.729-.653 3.488-.907 4.8-.172.887-.308 1.569-.38 1.9-.125.017-.249.039-.372.067-.077.017-.036.128.04.111.1-.023.2-.04.307-.057-.018.084-.035.169-.054.252s.105.1.121.031c.024-.1.043-.2.066-.3a4.284 4.284 0 0 1 .834-.017l-.069.327c-.016.072.105.1.121.03.026-.114.048-.23.074-.345.139.015.278.035.418.063a.058.058 0 1 0 .026-.112c-.141-.028-.281-.049-.421-.063.069-.318.2-.962.36-1.8.252-1.308.589-3.091.914-4.847.334-1.8.656-3.565.865-4.768.1-.595.179-1.051.215-1.3h.281c.079 0 .072-.116-.007-.116" class="cls-8" transform="translate(-184.473 -598.683)"/>
                <path id="패스_1687" d="M137.88 842.078l.766.568c.945-.966 6.619-7.263 7.508-8.279q-.448-.279-.892-.562c-.872 1-6.527 7.272-7.452 8.22l.071.053" class="cls-9" transform="translate(-120.757 -763.275)"/>
                <path id="패스_1688" d="M222.7 843.063l.758-.578c-.81-1.067-6.194-7.582-7.068-8.609q-.388.349-.778.694c.856 1.007 6.223 7.5 7.018 8.546l.07-.054" class="cls-9" transform="translate(-188.932 -763.336)"/>
                <path id="패스_1689" d="M179.192 571.549c-.079.259-.181.721-.261.98-.158-.006-.448-.022-.777-.034-.191-.007-.392-.011-.591-.013h-.13a2.755 2.755 0 0 0-1.047.119 1.379 1.379 0 0 0-.47.756c-.165.47-.323.942-.484 1.415l-.948 2.774-.223.653a1.329 1.329 0 0 0-.14.535c.025.209.218.322.417.374a4.917 4.917 0 0 0 .765.085l.126.007c.26.014.542.023.8.029s.512.008.687.006q-.113.464-.214.931c-.031.146.207.208.239.061q.109-.506.233-1.009c.012-.052.026-.1.038-.156.16-.013.318-.025.478-.04.078-.007.079-.122 0-.116-.149.014-.3.024-.447.036.619-2.467 1.449-4.9 2.185-7.331.045-.143-.194-.2-.238-.061m-2.251 7.588c-.082-.025-.124-.049.014-.058 0 .02-.01.038-.014.058" class="cls-8" transform="translate(-152.575 -531.232)"/>
                <path id="패스_1690" d="M255.285 573.9a5.4 5.4 0 0 0-1.847-.1c-.277.01-.515.022-.653.028.074-.254.249-.706.325-.959.042-.14-.234-.08-.276.06-.305 1.008-.593 2.015-.888 3.024-.4 1.373-.817 2.75-1.31 4.139l-.165-.013c-.068 0-.137-.01-.2-.017h-.057c-.075-.007-.144.106-.069.113l.105.009.217.018.131.012-.055.152-.106.29c-.086.232-.174.463-.265.7-.043.112.119.1.217.017a.188.188 0 0 0 .06-.077q.178-.456.342-.91c.192 0 .474 0 .781-.007h.082a11.89 11.89 0 0 0 1.594-.114 1.077 1.077 0 0 0 .641-.366 1.364 1.364 0 0 0 .179-.522c.056-.213.113-.425.168-.638q.354-1.356.711-2.711c.121-.461.245-.922.362-1.381.069-.271.142-.567-.018-.739m-4.465 6.386l.021-.057c.132.009.077.032-.021.057" class="cls-8" transform="translate(-219.162 -532.407)"/>
                <path id="패스_1691" d="M200.869 746.447c-.26-.025-.668-.064-1.109-.1-.356-.03-.735-.059-1.07-.081-.315-.02-.6-.032-.787-.032-.075 0-.059.05-.083.151-.383 1.857-1.459 8.7-1.669 10.189-.019.133-.031.224-.035.264-.025.259.122.188.414.2.139.008.338.02.567.031.454.024 1.029.052 1.508.068.265.008.5.014.668.013.055 0 .063-.1.064-.113l.094-.535c.875-4.947 1.518-9.249 1.55-9.683.025-.34.083-.357-.114-.377" class="cls-9" transform="translate(-171.848 -685.815)"/>
                <path id="패스_1692" d="M217.448 608.457c-.017 0-.039-.007-.065-.009-.666-.065-3.429-.214-4.08-.214-.075 0-.059.05-.083.151-.418 2.022-.739 4.018-1.11 6.048l-.041.222q-.252 1.386-.506 2.77c-.09.493-.261 1.229-.308 1.728-.025.259.122.188.413.2.2.011.657.029 1.194.047.342.012.716.023 1.078.032.686.02 1.319.034 1.586.032.054 0 .063-.1.064-.113.234-1.316.472-2.616.694-3.828q.057-.317.115-.626l.038-.21.584-3.16c.007-.039.015-.078.021-.118.136-.735.247-1.345.325-1.792.076-.429.12-.706.128-.8.021-.295.068-.346-.048-.367" class="cls-9" transform="translate(-185.114 -563.753)"/>
                <path id="패스_1693" d="M257.792 582.838c-1.175-.006-2.508.1-3.22 1.1a4.983 4.983 0 0 0-.668 1.826c-.178.774-.329 1.552-.529 2.321-.37 1.417-.909 3.077-2.325 3.881a5.176 5.176 0 0 1-2.388.61 9.169 9.169 0 0 1-1.254-.046c-.7-.072-.429-.705-.29-1.158.11-.358-.487-.511-.6-.154-.147.48-.453 1.33.082 1.7a1.707 1.707 0 0 0 .8.191 9.222 9.222 0 0 0 1.481.035 4.892 4.892 0 0 0 3.868-1.975 12.9 12.9 0 0 0 1.609-4.644 4.719 4.719 0 0 1 .935-2.514 3.567 3.567 0 0 1 2.491-.6.289.289 0 1 0 0-.578" class="cls-9" transform="translate(-215.825 -541.289)"/>
                <path id="패스_1694" d="M324.892 567.2a.414.414 0 0 0-.395-.315 2.741 2.741 0 0 0-.288-.01c-1.24 0-5.783.2-6.995.249a.95.95 0 0 0-.9.684c-.106.4-.241.923-.359 1.381l-.152.6c-.038.151-.078.3-.113.456a4.639 4.639 0 0 0-.121.711c-.016.212-.068.586.157.729a2.141 2.141 0 0 0 1 .121c.249 0 5.23-.158 5.641-.186.244-.017.488-.035.731-.056h.049a1.245 1.245 0 0 0 .515-.11 1 1 0 0 0 .381-.553 5.865 5.865 0 0 0 .271-.872c.121-.534.236-1.068.349-1.6l.137-.662a1.6 1.6 0 0 0 .084-.567" class="cls-9" transform="translate(-276.511 -527.167)"/>
                <path id="패스_1695" d="M219.213 619.876l-2.083-.013c-.08 0-.073.115.006.115l2.083.013c.08 0 .073-.115-.006-.115" class="cls-7" transform="translate(-190.215 -574.039)"/>
                <path id="패스_1696" d="M209.582 536.049l-6.447-.049a.623.623 0 0 0-.611.434l-2.924 10.341-.448 1.581a.6.6 0 0 0 .6.738l6.446.046a.623.623 0 0 0 .613-.434l.534-1.889 2.84-10.03a.6.6 0 0 0-.6-.738" class="cls-10" transform="translate(-174.489 -499.863)"/>
                <path id="패스_1697" d="M378.584 567.765l-.137.662c-.113.535-.228 1.069-.349 1.6a5.863 5.863 0 0 1-.271.872 1 1 0 0 1-.381.553 1.245 1.245 0 0 1-.515.11 9.143 9.143 0 0 1 .678-3.98c0-.022.006-.043.01-.065a.189.189 0 0 1 .082-.132c.087-.177.181-.349.285-.516a2.732 2.732 0 0 1 .288.01.414.414 0 0 1 .395.315 1.6 1.6 0 0 1-.084.567" class="cls-8" transform="translate(-330.287 -527.168)"/>
                <path id="패스_1698" d="M204.181 531.3l-7.361-.053h-.127a.715.715 0 0 0-.667.5l-3.792 13.261a.672.672 0 0 0 .385.784.759.759 0 0 0 .311.068l7.449.054a.72.72 0 0 0 .707-.5l3.792-13.261a.689.689 0 0 0-.7-.852" class="cls-9" transform="translate(-168.426 -495.654)"/>
                <path id="패스_1699" d="M214.588 536.014l-5.828-.046a.623.623 0 0 0-.611.434l-1.63 5.757-1.3 4.581-.448 1.581a.6.6 0 0 0 .6.738h1.803l1.891.018h.523l.916.007h.7a.623.623 0 0 0 .613-.434l.535-1.889 1.309-4.623 1.531-5.407a.6.6 0 0 0-.6-.738" class="cls-10" transform="translate(-179.419 -499.832)"/>
                <path id="패스_1700" d="M227.727 536.751l-1.528 5.456h-7.139l1.626-5.805a.623.623 0 0 1 .611-.434l2.143.015.944.007 2.741.024a.6.6 0 0 1 .6.738" class="cls-11" transform="translate(-191.955 -499.831)"/>
                <path id="패스_1701" d="M244.758 536.3c-.035.016-.069.033-.105.053a.053.053 0 0 0-.025.024.052.052 0 0 0 0 .024.593.593 0 0 0-.271.1c-.176.11-.356.2-.536.3a1.745 1.745 0 0 0-.475.416c-.09.109-.173.226-.252.343a4.489 4.489 0 0 0-.624 1.086.316.316 0 0 0 .157.378.837.837 0 0 0 .249.1.985.985 0 0 0 .489-.016l.025-.006a2.909 2.909 0 0 1 .671-.149 1.382 1.382 0 0 1 .3.027 1.22 1.22 0 0 1 .157.038 1.593 1.593 0 0 1 .306.127c.111.06.189.119.322.066.245-.1.259-.394.244-.6a1.077 1.077 0 0 1 .162-.735 1.476 1.476 0 0 0 .2-.489c.115-.6-.281-1.394-.987-1.089" class="cls-6" transform="translate(-212.451 -500.068)"/>
                <path id="패스_1702" d="M249.5 537.313a.687.687 0 0 0-.087-.014 1.082 1.082 0 0 0-1.2.857 4.655 4.655 0 0 0-.156.515 2.341 2.341 0 0 0 0 .952c.006.03.014.061.022.091a.983.983 0 0 0 .151.335.213.213 0 0 0 .02.027.392.392 0 0 0 .223.136 1.038 1.038 0 0 0 .709-.115 1.071 1.071 0 0 0 .2-.137 1.231 1.231 0 0 0 .2-.224c.053-.077.109-.162.162-.249.042-.069.083-.141.121-.211l.035-.066.018-.034.025-.05c.021-.043.04-.084.056-.125a.19.19 0 0 0 .01-.022c.017-.04.031-.08.043-.115.182-.559.267-1.4-.555-1.544" class="cls-12" transform="translate(-217.321 -501.002)"/>
                <path id="패스_1703" d="M250.292 554.161a3.067 3.067 0 0 1-.512.115c-.047.008-.1.014-.144.018-.074.007-.148.01-.224.013 0-.027.006-.054.009-.081a.059.059 0 0 0 0-.031.056.056 0 0 0-.1.028c-.006.072-.014.142-.021.213-.017.177-.038.352-.062.528v.032c-.01.075-.021.15-.033.224-.021.141-.044.282-.071.422a.057.057 0 0 0 .048.075l.813.039a.06.06 0 0 0 .057-.055c.017-.128.037-.255.058-.381.019-.1.038-.2.059-.3.012-.059.026-.117.04-.175.046-.2.1-.405.161-.606.012-.041-.022-.087-.062-.074" class="cls-12" transform="translate(-218.293 -515.922)"/>
                <path id="패스_1704" d="M239 564.738a5.819 5.819 0 0 1-.6 1.635h-3.282v-.063-.348-.206c0-.051 0-.1.006-.151 0-.1.01-.194.017-.289s.014-.172.023-.255c.015-.139.034-.274.057-.4v-.011a.959.959 0 0 1 .271-.514 2.657 2.657 0 0 1 1.288-.558c0-.092-.068-.182.052-.253a.254.254 0 0 1 .081-.029 1.655 1.655 0 0 1 .419.035 1.456 1.456 0 0 1 .486.065.164.164 0 0 1 .085.182 1.507 1.507 0 0 1 .927.617.037.037 0 0 1 .01.016.886.886 0 0 1 .057.112 1.2 1.2 0 0 1 .092.416" class="cls-13" transform="translate(-206.03 -523.997)"/>
                <path id="패스_1705" d="M261.42 551.892a.056.056 0 0 0-.016.046.354.354 0 0 0-.19.373.063.063 0 0 0 .074.043.515.515 0 0 0 .4-.319.155.155 0 0 0-.27-.143" class="cls-12" transform="translate(-228.886 -513.864)"/>
                <path id="패스_1706" d="M259 550.69c-.013.076-.054.133-.091.128s-.057-.072-.044-.148.054-.133.091-.128.057.072.044.148" class="cls-14" transform="translate(-226.828 -512.723)"/>
                <path id="패스_1707" d="M251.561 549.993c-.013.076-.054.133-.091.128s-.057-.072-.044-.148.054-.133.091-.128.057.072.044.148" class="cls-14" transform="translate(-220.313 -512.106)"/>
                <path id="패스_1708" d="M258.286 547.861a.521.521 0 0 0-.4-.037.134.134 0 0 0-.1.09.067.067 0 0 0 .059.075 2.021 2.021 0 0 0 .205 0 .987.987 0 0 0 .209.037c.108-.013.069-.141.019-.167" class="cls-6" transform="translate(-225.895 -510.298)"/>
                <path id="패스_1709" d="M249.732 547.1l-.048-.022a.51.51 0 0 0-.349-.015.131.131 0 0 0-.094.089.066.066 0 0 0 .058.076c.067.014.139-.006.207 0a.456.456 0 0 1 .077.017.359.359 0 0 0 .131.02c.108-.011.069-.14.018-.166" class="cls-6" transform="translate(-218.4 -509.625)"/>
                <path id="패스_1710" d="M253.267 551.921c-.05 0-.106.01-.106-.075 0-.025.025-.055.038-.076.03-.048.114-.187.146-.234.02-.029-.028-.058-.048-.029-.053.079-.2.272-.2.372s.093.093.166.094a.027.027 0 1 0 0-.053" class="cls-15" transform="translate(-221.782 -513.567)"/>
                <path id="패스_1711" d="M262.83 553.114c-.026-.021-.065.013-.039.034s0 .036-.01.048a.068.068 0 0 1-.05.019.025.025 0 1 0 0 .05.125.125 0 0 0 .1-.049.074.074 0 0 0 0-.1" class="cls-15" transform="translate(-230.199 -514.992)"/>
                <path id="패스_1712" d="M242.444 536.789a.808.808 0 0 0-.674-.55.316.316 0 0 0-.027-.058.324.324 0 0 0-.064-.076l-.944-.007a1.394 1.394 0 0 0-.528.546 1.239 1.239 0 0 1-.422.482 1.8 1.8 0 0 0-.328.263.86.86 0 0 0-.252.651.615.615 0 0 1 .007.268c-.028.112-.1.162-.151.258a.271.271 0 0 0-.038.237c.1.248.338.223.585.105a1.919 1.919 0 0 0 .221-.127 1.182 1.182 0 0 0 .2-.048.945.945 0 0 0 .165-.073.8.8 0 0 0 .237-.2.643.643 0 0 0 .124-.24c0-.013.006-.027.009-.04a.9.9 0 0 0 .006-.23 1.471 1.471 0 0 1 0-.2.462.462 0 0 1 .035-.148c0-.012.01-.023.016-.035a.812.812 0 0 1 .1-.169 1.391 1.391 0 0 1 .465-.361 1.272 1.272 0 0 0 .488-.379.846.846 0 0 0 .093.311 1.174 1.174 0 0 0 .182.189c.165.186.109.293.1.5a.5.5 0 0 0 .053.254.121.121 0 0 0 .017.024.077.077 0 0 0 .09.023.221.221 0 0 0 .063-.042c.11-.1.12-.354.141-.49a1.789 1.789 0 0 0 .033-.643" class="cls-6" transform="translate(-209.435 -499.947)"/>
                <path id="패스_1713" d="M252.264 556.778h-.051c-.072 0-.166-.011-.255-.021s-.151-.026-.192-.037l-.031-.007c0-.007-.017-.006-.016 0a.278.278 0 0 0 .239.232.3.3 0 0 0 .311-.158v-.012" class="cls-15" transform="translate(-220.573 -518.177)"/>
                <path id="패스_1714" d="M252.291 556.845a1.93 1.93 0 0 1-.192-.037.177.177 0 0 0 .1.1.344.344 0 0 0 .113.029.371.371 0 0 0 .134-.006.153.153 0 0 0 .1-.07c-.072 0-.166-.01-.255-.021" class="cls-7" transform="translate(-220.906 -518.266)"/>
                <path id="패스_1715" d="M229.336 570.438c-.043.183-.109.37-.158.539-.026.09-.057.179-.09.267-.016.044-.033.087-.052.131l-.072.171-.087.2c-.007.016-.015.032-.021.049-.043.1-.087.2-.127.3-.026.062-.05.125-.073.187-.013.037-.027.074-.039.112l-.022.064h-.995a2.958 2.958 0 0 0 .277-.528 6.319 6.319 0 0 1 .239-.62l.063-.132a.176.176 0 0 1 .014-.025c.019-.039.04-.077.061-.116l.008-.015.043-.074.061-.1.056-.086.03-.043c.025-.035.051-.069.077-.1a2.473 2.473 0 0 1 .387-.4c.021-.019.043-.036.066-.053a.635.635 0 0 0 .057.07.9.9 0 0 0 .3.21" class="cls-13" transform="translate(-199.438 -530.073)"/>
                <path id="패스_1716" d="M230.8 580.921l-.074-.025-.106-.038-.023-.008a.061.061 0 0 0-.052 0 .058.058 0 0 0-.05.023c-.043.06-.089.119-.136.177l-.085.1-.041.046c-.207.239-.439.469-.66.7h.829c.107-.212.209-.425.311-.643l.124-.266a.049.049 0 0 0 0-.02.061.061 0 0 0-.039-.055" class="cls-12" transform="translate(-201.171 -539.527)"/>
                <path id="패스_1717" d="M259.18 570.439v-.1c-.01-.2-.02-.413-.037-.621a6.585 6.585 0 0 0-.1-.77 1.6 1.6 0 0 0-.134-.408.986.986 0 0 0-.054-.1.018.018 0 0 0 0-.014.036.036 0 0 0-.01-.016.205.205 0 0 0-.07-.047.093.093 0 0 0-.026-.008l-.012-.017a.761.761 0 0 0-.278-.274c-.069-.037-.136.06-.067.1a.935.935 0 0 1 .306.262v.006l-.007.007a.712.712 0 0 0-.092.1 2.57 2.57 0 0 0-.327.833l-.041.141c-.036.126-.072.252-.105.378l-.016.06c-.054.2-.106.4-.156.6l-.011.044h1.245c0-.051 0-.1-.005-.151" class="cls-13" transform="translate(-226.024 -528.214)"/>
                <path id="패스_1718" d="M257.113 570.866a.405.405 0 0 0 0-.052.05.05 0 0 0-.021-.035h-.006a.109.109 0 0 0-.011.01.137.137 0 0 0-.04.085v.045a1.129 1.129 0 0 1-.041.222 1.157 1.157 0 0 1-.14.307l-.021.032.015-.034a1.345 1.345 0 0 0 .043-.136 1.462 1.462 0 0 0 .057-.326v-.047a.413.413 0 0 0-.007-.078c0-.02-.005-.059-.026-.071-.038-.021-.063.056-.067.077-.011.062-.009.127-.017.191a1.328 1.328 0 0 1-.187.494h-.012a1.359 1.359 0 0 0 .041-.138 2.564 2.564 0 0 0 .049-.467c0-.022.012-.1-.036-.089s-.045.088-.05.118c-.011.07-.017.141-.032.211a1.122 1.122 0 0 1-.066.205 2.09 2.09 0 0 1-.146.274.221.221 0 0 0-.02.027c-.061.091-.113.188-.168.282-.045.075-.116.163-.093.253v.006c.012.245.028.491.051.736v.02h.522l-.007-.023c0-.013-.009-.025-.014-.038q-.089-.275-.2-.543c0-.007-.006-.014-.009-.021l.006-.007.018-.032c.025-.042.048-.085.07-.128l.043-.083.249-.46c.048-.063.1-.127.14-.194a1 1 0 0 0 .11-.224.9.9 0 0 0 .041-.249 1.173 1.173 0 0 0 0-.132" class="cls-12" transform="translate(-224.404 -530.622)"/>
                <path id="패스_1719" d="M230.051 571.77c-.046-.041-.09-.083-.131-.127a1.182 1.182 0 0 1-.133-.175c-.038-.062-.068-.128-.1-.191-.014-.026-.043-.1-.087-.1s-.011.074 0 .095a2.606 2.606 0 0 0 .205.427c.02.031.043.061.065.091h-.023c-.028-.024-.057-.049-.083-.075a1.348 1.348 0 0 1-.127-.146 1.323 1.323 0 0 1-.107-.168c-.03-.057-.049-.12-.082-.175-.011-.019-.06-.085-.089-.053s0 .055 0 .074a.535.535 0 0 0 .02.077 1.448 1.448 0 0 0 .183.336 1.157 1.157 0 0 0 .087.116l.025.028-.031-.024a1.249 1.249 0 0 1-.238-.25 1.193 1.193 0 0 1-.114-.2.182.182 0 0 0-.1-.116.006.006 0 0 0-.006 0c-.019.026 0 .063 0 .09a1.232 1.232 0 0 0 .041.126.91.91 0 0 0 .124.225c.052.067.676.828.856 1.1a.06.06 0 0 0 .1-.009h.012c.3-.361.194-.505-.262-.981" class="cls-12" transform="translate(-200.808 -530.966)"/>
                <path id="패스_1720" d="M235.525 608.552a.064.064 0 0 0-.06-.042c-.086 0-.141.1-.182.156a1.385 1.385 0 0 0-.179.357.049.049 0 0 0 .021.059.311.311 0 0 1-.095.12 3.832 3.832 0 0 1-.767-.267 3.239 3.239 0 0 0-.5-.213c-.006-.134-.015-.268-.03-.4-.007-.06-.106-.084-.122-.015-.011.05-.02.1-.027.15h-.012c0-.023 0-.045-.008-.069-.012-.073-.131-.042-.119.031.024.147-.027.3.011.442a1.013 1.013 0 0 0 .2.308c.033.045.116.032.115-.029 0-.093 0-.185-.007-.277a.9.9 0 0 1 .243.09c.137.058.265.131.4.191a2.989 2.989 0 0 0 .5.153l.006.007a.045.045 0 0 0 .012.013.067.067 0 0 0 .02.008c.211.045.242-.19.344-.3.062-.07.146-.115.189-.2a.4.4 0 0 0 .037-.265" class="cls-14" transform="translate(-204.559 -563.778)"/>
                <path id="패스_1721" d="M236.215 594.772c-.687-.078-.985.4-1.177 1.041-.021.072-.041.144-.059.219l-.029.114-.025.178a2.58 2.58 0 0 0-.03.306 1.683 1.683 0 0 0 .038.4 1.475 1.475 0 0 0 .066.221 1.063 1.063 0 0 0 .125.239.435.435 0 0 0 .25.191.858.858 0 0 0 .683-.144 1.041 1.041 0 0 0 .172-.154 1.255 1.255 0 0 0 .139-.176c.079-.121.161-.263.234-.4.042-.08.079-.158.113-.232a2.5 2.5 0 0 0 .093-.244 2.854 2.854 0 0 0 .085-.358c.089-.529.01-1.119-.678-1.2" class="cls-12" transform="translate(-205.831 -551.837)"/>
                <path id="패스_1722" d="M237.007 611.653a3.055 3.055 0 0 1-.629.13.544.544 0 0 1-.06.006c-.064.006-.129.009-.194.01l.007-.08a.053.053 0 1 0-.106 0c0 .021 0 .041-.006.061 0 .042-.007.084-.012.126-.017.176-.037.351-.062.525s-.055.376-.088.564a.015.015 0 0 1 0 .008l-.023.135a.059.059 0 0 0 .048.075l.814.038a.056.056 0 0 0 .056-.056c.011-.085.025-.17.038-.254a.01.01 0 0 1 0-.006c.025-.154.054-.307.088-.458.014-.068.028-.136.044-.2l.03-.115c.036-.143.074-.285.118-.427.012-.041-.024-.086-.063-.074" class="cls-12" transform="translate(-206.652 -566.775)"/>
                <path id="패스_1723" d="M245.649 608.934c-.013.076-.054.133-.091.128s-.057-.072-.044-.148.054-.133.091-.128.057.072.044.148" class="cls-14" transform="translate(-215.133 -564.24)"/>
                <path id="패스_1724" d="M238.212 608.237c-.013.076-.054.133-.091.128s-.057-.072-.044-.148.054-.133.091-.128.057.072.044.148" class="cls-14" transform="translate(-208.616 -563.624)"/>
                <path id="패스_1725" d="M244.944 606.111a.521.521 0 0 0-.4-.037.129.129 0 0 0-.094.089.065.065 0 0 0 .059.075 1.741 1.741 0 0 0 .205 0 .915.915 0 0 0 .208.037c.108-.012.071-.14.019-.166" class="cls-14" transform="translate(-214.205 -561.821)"/>
                <path id="패스_1726" d="M237.2 605.531a.526.526 0 0 0-.4-.037.135.135 0 0 0-.094.09c-.008.039.02.066.059.075a2 2 0 0 0 .205 0 .99.99 0 0 0 .208.036c.108-.012.07-.14.02-.166" class="cls-14" transform="translate(-207.414 -561.307)"/>
                <path id="패스_1727" d="M239.918 610.165c-.05 0-.106.01-.106-.074 0-.025.025-.055.038-.076.03-.048.114-.187.146-.234.019-.029-.029-.057-.048-.028-.053.079-.2.272-.2.371s.093.093.166.094a.027.027 0 1 0 0-.053" class="cls-15" transform="translate(-210.085 -565.085)"/>
                <path id="패스_1728" d="M218.379 622.9a1.1 1.1 0 0 0-.361-.118 3.173 3.173 0 0 0-.521-.036h-.1c-.278.007-.576.033-.835.066-.176.023-.334.049-.456.073l-.062.013a2.464 2.464 0 0 0-.3.077 2.389 2.389 0 0 0-.559.352 3.506 3.506 0 0 0-.924 1.313c-.087.2-.375 1-.448 1.2h4.437a11.8 11.8 0 0 0 .539-1.482 1.191 1.191 0 0 0-.411-1.463" class="cls-11" transform="translate(-187.358 -576.59)"/>
                <path id="패스_1729" d="M239.262 615.274a.306.306 0 0 1-.339-.023c-.025-.025-.065.013-.04.037a.368.368 0 0 0 .407.031c.033-.013 0-.059-.028-.045" class="cls-15" transform="translate(-209.319 -569.952)"/>
                <path id="패스_1730" d="M236.349 594.864c-.037-.064-.094-.112-.1-.183 0-.048.035-.109.031-.164-.028-.361-.417-.343-.7-.314-.229.024-.451-.105-.673-.036a.552.552 0 0 0-.2.113 1.8 1.8 0 0 0-.311.029.384.384 0 0 0-.215.239c-.041.135 0 .2-.078.346a1.788 1.788 0 0 0-.115.186.527.527 0 0 0 .008.395.061.061 0 0 0 .062.04.089.089 0 0 0 .018 0c.059 0 .1-.058.133-.1a1.506 1.506 0 0 0 .128-.253.624.624 0 0 1 .113-.156 1.117 1.117 0 0 0 .2-.11.31.31 0 0 0 .066-.072c.08.089.084.258.177.36.112.122.4.2.521.1a.373.373 0 0 0 .61.108c.144.094.345.122.416-.062a.629.629 0 0 0-.093-.472" class="cls-14" transform="translate(-205.009 -551.292)"/>
                <path id="패스_1731" d="M231.992 602.907a.131.131 0 0 0-.007-.033c-.022-.064-.072-.07-.121-.072a.04.04 0 0 0-.022-.012.263.263 0 0 0-.094 0c-.184.025-.251.27-.291.473s-.105.57.158.606a.308.308 0 0 0 .054 0 .2.2 0 0 0 .181-.144 1.4 1.4 0 0 0 .062-.3l.011-.072c.012-.07.045-.179.062-.282a.51.51 0 0 0 .007-.161" class="cls-13" transform="translate(-202.785 -558.932)"/>
                <path id="패스_1732" d="M249.219 605.233a.25.25 0 0 0-.132-.041.071.071 0 0 0-.027.006.193.193 0 0 0-.077-.006.129.129 0 0 0-.072.041 1.08 1.08 0 0 0-.135.439c-.014.054-.032.113-.049.17a.716.716 0 0 0-.034.186.155.155 0 0 0 .092.159.254.254 0 0 0 .083.022c.276.031.359-.306.406-.5.042-.174.074-.386-.052-.472" class="cls-13" transform="translate(-217.92 -561.061)"/>
                <path id="패스_1733" d="M233.293 622.755h-.1a5.389 5.389 0 0 0-.834.058c-.17.024-.327.053-.458.081l-.062.013c.1.334.528.441.867.39a1.47 1.47 0 0 0 .859-.507 2.012 2.012 0 0 0-.275-.03" class="cls-12" transform="translate(-203.156 -576.592)"/>
                <path id="패스_1734" d="M216.5 604.165a.347.347 0 1 0 0 .693.347.347 0 1 0 0-.693" class="cls-7" transform="translate(-189.402 -560.153)"/>
                <path id="패스_1735" d="M219.839 591.332a.347.347 0 1 0 0 .693.347.347 0 1 0 0-.693" class="cls-16" transform="translate(-192.323 -548.802)"/>
                <path id="패스_1736" d="M264.607 606.914c-.083-.165-.261-.135-.373-.033a.224.224 0 0 0-.37-.055c-.2.222.1.533.234.705l.011.009a.064.064 0 0 0 .034.014h.032a.071.071 0 0 0 .017-.009c.178-.134.546-.368.415-.628" class="cls-17" transform="translate(-231.157 -562.439)"/>
                <path id="패스_1737" d="M267.021 587.837c0-.182-.174-.226-.322-.179a.215.215 0 0 0-.309-.2c-.279.121-.157.521-.113.73a.068.068 0 0 0 .005.013.06.06 0 0 0 .024.026h.051c.222-.05.662-.114.664-.4" class="cls-17" transform="translate(-233.273 -545.357)"/>
                <path id="패스_1738" d="M256.015 620.645a.217.217 0 0 0-.319.184c-.145-.053-.322-.017-.33.165-.013.288.423.37.643.43h.016a.066.066 0 0 0 .036-.008l.008-.006.009-.008.005-.008a.065.065 0 0 0 .008-.017c.054-.207.2-.6-.077-.734" class="cls-17" transform="translate(-223.769 -574.706)"/>
                <path id="패스_1739" d="M234.018 538.749a.231.231 0 1 0 0 .462.231.231 0 1 0 0-.462" class="cls-17" transform="translate(-204.853 -502.292)"/>
                <path id="패스_1740" d="M277.6 540.112h-1.31l.124-.467h1.31z" class="cls-7" transform="translate(-242.107 -503.084)"/>
                <path id="패스_1741" d="M267.009 540.112H265.7l.124-.467h1.31z" class="cls-17" transform="translate(-232.824 -503.084)"/>
                <path id="패스_1742" d="M214.312 638.568h-4.624a.369.369 0 1 1 0-.736h4.624a.369.369 0 1 1 0 .736" class="cls-18" transform="translate(-183.397 -589.932)"/>
                <path id="패스_1743" d="M213.5 617a.347.347 0 1 0 0 .693.347.347 0 1 0 0-.693" class="cls-18" transform="translate(-186.773 -571.505)"/>
                <path id="패스_1744" d="M198.943 531.245c-.214.823-.445 1.645-.685 2.462-.883 3.007-1.892 5.982-2.726 9-.282 1.023-.543 2.051-.791 3.082a.664.664 0 0 1-.11-.06c.668-2.735 1.464-5.436 2.305-8.131.658-2.109 1.32-4.221 1.88-6.355h.127z" class="cls-8" transform="translate(-170.549 -495.654)"/>
                <path id="패스_1745" d="M231.315 593.692l-2.082-.046c-.08 0-.075.114 0 .115l2.082.046c.08 0 .075-.114 0-.116" class="cls-7" transform="translate(-200.819 -550.849)"/>
                <path id="패스_1746" d="M228.375 607.885l-2.083-.013c-.08 0-.073.115.006.115l2.083.013c.08 0 .073-.115-.006-.115" class="cls-7" transform="translate(-198.243 -563.432)"/>
                <path id="패스_1747" d="M225.416 620.182l-2.083-.018c-.08 0-.073.115.006.115l2.083.018c.08 0 .073-.115-.006-.115" class="cls-7" transform="translate(-195.65 -574.304)"/>
                <path id="패스_1748" d="M63.516 870.542q-6.709 3.179-13.377 6.43-18.623 9.079-36.924 18.718-6.63 3.492-13.215 7.054v-.267q16.75-9.063 33.786-17.657 14.733-7.433 29.669-14.508a1.214 1.214 0 0 1 .061.23" class="cls-1" transform="translate(0 -795.564)"/>
                <path id="패스_1749" d="M65.741 936.18c-3.819-4.091-12.217-5.419-13.149-5.593q-3.3-.615-6.6-1.177-1.982-.335-3.969-.646-4.486 2.381-9.112 4.519c-1.388.641-2.78 1.288-4.194 1.883l.081.021a.091.091 0 0 0 .054.152c.6.114 1.208.229 1.81.353 1.342.369 2.741.763 4.063 1.139.527.2 1.049.416 1.568.643a22.617 22.617 0 0 0 3.311 1.252 21.794 21.794 0 0 0 3.549.539 33.1 33.1 0 0 1 7.57 1.4c.648.216 1.286.459 1.914.722a1.413 1.413 0 0 0 1.111.123c.556-.177 1.1-.47 1.629-.7l1.934-.836 8.411-3.638a.1.1 0 0 0 .022-.157" class="cls-1" transform="translate(-25.162 -847.267)"/>
                <path id="패스_1750" d="M73.866 932.734c-3.237 1.99-6.5 3.933-9.9 5.671-.14.072-.015.271.125.2 3.4-1.739 6.662-3.682 9.9-5.671a.118.118 0 0 0-.125-.2" class="cls-14" transform="translate(-55.999 -850.761)"/>
                <path id="패스_1751" d="M90.686 971.992l-2.969 2c-.128.086 0 .287.125.2l2.969-1.995c.128-.086 0-.287-.125-.2" class="cls-14" transform="translate(-76.817 -885.483)"/>
                <path id="패스_1752" d="M141.224 983.385q-1.639.895-3.176 1.934c-.129.087.024.268.153.181q1.512-1.022 3.122-1.9c.136-.074.039-.287-.1-.212" class="cls-14" transform="translate(-120.924 -895.566)"/>
                <path id="패스_1753" d="M185.732 974.12a71.81 71.81 0 0 0-6.729 3.7.118.118 0 0 0 .125.2 71.711 71.711 0 0 1 6.729-3.7c.141-.068.016-.268-.125-.2" class="cls-14" transform="translate(-156.806 -887.373)"/>
                <path id="패스_1754" d="M126.354 962.169a71.781 71.781 0 0 0-6.729 3.7.118.118 0 0 0 .125.2 71.72 71.72 0 0 1 6.729-3.7c.141-.068.016-.268-.125-.2" class="cls-14" transform="translate(-104.775 -876.802)"/>
                <path id="패스_1755" d="M214.441 977.065c-1.364.681-2.729 1.362-4.077 2.072q-.984.519-1.954 1.061a6.955 6.955 0 0 0-1.676 1.084c-.106.111.069.275.175.163a7.644 7.644 0 0 1 1.83-1.162q.971-.541 1.958-1.056c1.28-.671 2.575-1.317 3.869-1.963.14-.07.016-.27-.125-.2" class="cls-14" transform="translate(-181.125 -889.977)"/>
                <path id="패스_1756" d="M228.094 1000.549a37.1 37.1 0 0 0-4.39 2.407.118.118 0 0 0 .125.2 37.14 37.14 0 0 1 4.39-2.407c.143-.066.017-.266-.125-.2" class="cls-14" transform="translate(-195.976 -910.75)"/>
                <path id="패스_1757" d="M1102 1404.463c-.1-.343-6.6-18.057-11.85-32.05a.1.1 0 0 1-.007-.019c-1.319-3.512-2.56-6.788-3.6-9.5l-.022-.059-.035-.09-.422-1.095c-1.2-3.112-2.073-5.276-2.381-5.862.2-.01-.744-.059-.541-.069.079 0 .078-.062 0-.058-.213.009-.425.02-.637.031-.071-.135-.14-.269-.212-.4-.019-.036-.137-.02-.119.018l.207.393c-.656.034-3.044.081-3.7.124-.09-.17-.177-.341-.267-.511-.02-.037-.139-.02-.119.016l.264.5q-1.448.1-2.886.225c-.078.007-.042.063.035.057q1.437-.129 2.881-.225c.108.206.217.41.323.615.342.655 1.354 2.944 2.759 6.192l.136.317c.031.069.06.14.091.211l.007.017c1.122 2.6 2.471 5.753 3.917 9.15a.072.072 0 0 1 .009.019c5.605 13.156 12.671 29.926 13.687 32.076.014.029.065.035.106.026.069-.015 2.191-.007 2.3-.008.035.006.076 0 .079-.018a.019.019 0 0 0 0-.026" class="cls-14" transform="translate(-942.543 -1224.521)"/>
                <path id="패스_1758" d="M1132.072 1309.1c-.15-.327-9.374-16.954-16.778-30.072a.09.09 0 0 1-.01-.018l-.876-1.551-.126-.223c-1.77-3.126-3.4-5.985-4.728-8.287-1.036-1.795-1.889-3.251-2.485-4.23l-.109-.178c-.317-.515-.55-.878-.687-1.062.2-.038-.744.044-.546.006.078-.015.068-.073-.011-.058l-.625.119c-.092-.124-.181-.247-.274-.371-.023-.032-.138 0-.115.033l.267.36c-.644.124-3 .5-3.638.63-.116-.156-.229-.313-.345-.469-.025-.034-.14 0-.115.032l.34.461q-1.416.295-2.819.619c-.075.018-.031.069.043.052q1.4-.324 2.814-.619c.138.188.279.375.417.564.194.266.569.828 1.091 1.635.042.066.085.133.131.2.643 1 1.49 2.332 2.483 3.908 1.445 2.295 3.2 5.105 5.1 8.16l.1.164.432.694a.082.082 0 0 1 .011.017c7.621 12.241 17.256 27.858 18.6 29.844.019.027.071.027.11.012.066-.024 2.167-.308 2.272-.325.036 0 .076-.01.076-.029s0-.017-.008-.024" class="cls-14" transform="translate(-962.453 -1143.044)"/>
                <path id="패스_1759" d="M646.228 835.478v20.008c0 .012-.011.023-.016.035a67.072 67.072 0 0 1-3.7 6.779 76.406 76.406 0 0 1-9.339 12.612 32.682 32.682 0 0 1-9.886 7.121q-1.18.554-2.419 1.018-.688.258-1.384.491-.858.289-1.726.539-2.166.626-4.393 1.044-1.024.194-2.058.35-.934.142-1.876.253c-1.531.182-3.073.307-4.621.387q-1.21.062-2.423.088h-.031c-2.077.046-4.157.018-6.227-.056-2.251-.082-4.488-.219-6.693-.382q-6.073-.447-12.1-1.337-1.134-.166-2.263-.35-1.854-.3-3.7-.641c-1.649-.306-3.3-.636-4.941-1.018q-1.474-.341-2.927-.744-.776-.215-1.543-.452l-.077-.024q-.83-.256-1.648-.54c-.156-.053-.312-.107-.467-.164q-.358-.128-.714-.263l-.071-.027a38.811 38.811 0 0 1-3.846-1.694l-.287-.148q-1.479-.771-2.867-1.675c-.07-.046-.14-.091-.209-.139a34.463 34.463 0 0 1-7.6-6.838c-.062-.074-.121-.148-.182-.223a32.7 32.7 0 0 1-4.817-8.065c-.032.027-.09.027-.1-.023-.028-.143-.054-.285-.08-.428-.367-.93-.693-1.874-.966-2.834-.02-.072.1-.1.12-.03.215.755.461 1.5.734 2.243a34.66 34.66 0 0 1-.487-5.35q-.02-1.793.137-3.574l.447.055.184-.023q1.258-.156 2.517-.315a7.843 7.843 0 0 0 3.456-1.7 7.38 7.38 0 0 0 2.617-2.661 25.756 25.756 0 0 0 2.952-5.151 31.491 31.491 0 0 1 2.789-4.75c.513-.73 1.044-1.451 1.568-2.173.574-.79 1.142-1.582 1.679-2.394a30.575 30.575 0 0 0 2.686-5.011l.127-.095q1.284-.885 2.621-1.706a49.868 49.868 0 0 1 6.153-3.233c.175-.077.35-.152.526-.226l.449-.186.064-.026q1.347-.506 2.72-.952a93.969 93.969 0 0 1 16.667-3.635c2.977-.352 5.986-.65 9-.795a69.886 69.886 0 0 1 7.636.023q.935.057 1.868.147 2.144.326 4.25.807.722.165 1.44.346l.251.065q2.125.547 4.2 1.234 1.312.431 2.6.915 2.045.849 4.035 1.8a.053.053 0 0 0 .016.007l.138.067q1.388.665 2.753 1.375 2.072 1.074 4.09 2.239 1.155.662 2.29 1.35l.1.058.119.073q2.162 1.309 4.27 2.7 1.357.885 2.692 1.8 1.876 1.275 3.724 2.589c.083.058.165.117.247.177l.568.4 1.18.86" class="cls-16" transform="translate(-471.453 -747.843)"/>
                <path id="패스_1760" d="M637.586 729.727a46.436 46.436 0 0 0-7.853-3.307l-.638-.2c-.261-.08-.523-.158-.787-.233s-.506-.145-.761-.214a62.886 62.886 0 0 0-10.283-1.87c-.081-.009-.163-.017-.244-.024a84.561 84.561 0 0 0-10.737-.334c-.16 0-.319.008-.478.014q-.429.014-.857.034h-.1l-.8.039q-.323.016-.646.035l-.507.031q-.729.047-1.459.1-1 .08-2.007.181a89.388 89.388 0 0 0-9.816 1.528l-.234.051a80.069 80.069 0 0 0-8.134 2.209c-.242.08-.485.162-.726.244q-2.509.856-4.946 1.887a64.7 64.7 0 0 0-7.756 3.911c-.131.077-.262.156-.392.237q-2.318 1.394-4.485 2.992l-.427.318a50.642 50.642 0 0 0-10.088 9.981 44.4 44.4 0 0 0-8.161 17.73q-.306 1.512-.491 3.043c-.048.4-.09.8-.124 1.208q-.154 1.758-.134 3.53a34.667 34.667 0 0 0 .488 5.35c-.272-.739-.518-1.487-.734-2.243-.021-.072-.14-.042-.12.03.274.96.6 1.9.966 2.834.026.143.052.285.08.428.01.05.068.05.1.023a32.611 32.611 0 0 0 4.408 7.553l.183.232a34.461 34.461 0 0 0 7.536 7.025c.068.047.137.095.208.141.231.157.466.311.7.462q1.279.82 2.638 1.527l.287.148c1.094.557 2.213 1.054 3.355 1.5.187.073.374.145.562.216q.356.135.714.263c.155.057.311.111.467.164.386.134.775.264 1.166.388q.638.206 1.284.4c1.049.308 2.108.587 3.175.842 1.826.44 3.67.812 5.511 1.154q1.845.341 3.7.641.794.128 1.591.248 6.348.965 12.768 1.439c2.2.163 4.442.3 6.693.382 1.858.067 3.726.1 5.593.068h.031q1.216-.017 2.43-.07c1.552-.066 3.1-.178 4.636-.345 1.459-.159 2.908-.367 4.342-.635l.207-.038q2.223-.423 4.393-1.044.6-.173 1.193-.364.967-.31 1.918-.666.973-.366 1.911-.784a32.734 32.734 0 0 0 10.395-7.355 76.4 76.4 0 0 0 9.339-12.612c1.1-1.775 2.142-3.615 3.086-5.5v-33.4a37.211 37.211 0 0 0-13.137-11.522" class="cls-19" transform="translate(-475.947 -665.711)"/>
                <path id="패스_1761" d="M618.422 1352.3q-1.436-.128-2.885-.225l.264-.5c.02-.036-.1-.053-.119-.016l-.266.51c-.654-.043-3.041-.089-3.7-.124l.206-.393c.02-.037-.1-.053-.119-.017-.071.135-.14.27-.21.4-.213-.01-.426-.022-.639-.031-.079 0-.08.054 0 .059.2.009-.744.058-.541.068-.125.237-.341.733-.636 1.448l-.127.312-.24.594-.075.188-.014.034c-.791 1.978-1.915 4.9-3.217 8.326l-.93 2.46c-.511 1.351-1.039 2.758-1.579 4.2l-.246.657-.007.018c-5.135 13.7-11.152 30.1-11.244 30.434a.019.019 0 0 0 0 .025c0 .019.045.024.079.019.108 0 2.23-.007 2.3.009.042.009.093 0 .106-.028.885-1.872 6.364-14.844 11.466-26.853l1.533-3.606.007-.018.136-.32c.6-1.4 1.178-2.766 1.738-4.078l.365-.854c.929-2.172 1.789-4.176 2.539-5.913v-.009q.362-.838.689-1.589c.271-.623.522-1.2.75-1.717l.048-.109.016-.038c.647-1.467 1.106-2.477 1.315-2.877l.323-.615q1.446.1 2.88.225c.078.007.113-.049.035-.057" class="cls-14" transform="translate(-518.828 -1221.193)"/>
                <path id="패스_1762" d="M746.7 1021.486a18.974 18.974 0 0 0-11.171 3.236 25.423 25.423 0 0 0-4.254 3.472q-.627.625-1.214 1.283-.306.341-.6.687-.531.622-1.036 1.262c-.313.395-.617.795-.917 1.2-.122.165-.245.33-.365.5q-.631.868-1.235 1.754c-.772 1.126-1.518 2.267-2.262 3.409a38.7 38.7 0 0 1-3.661 5.1 12.51 12.51 0 0 1-.935.922 12.9 12.9 0 0 1-1.92 1.406 18.91 18.91 0 0 1-7.878 2.4c-3.025.31-24.4-.46-38.34-.922-4.262-.143-7.828-.255-9.96-.3h-.236c-.7-.014-1.222-.02-1.543-.015-3.912.055-1.9.435 1.31.949l.228.037c4.82.771 12.008 1.827 6.277 2.553q-3.677.466-7.34 1.036h-.025c-.094.015-.191.029-.288.042a11.11 11.11 0 0 0-2.812.565 2.032 2.032 0 0 0-1.2 1.569 9.834 9.834 0 0 0-.141 2.953c.012.129.027.257.045.387a12.4 12.4 0 0 0 .238 1.283q1.279.819 2.638 1.527l.287.148c1.094.557 2.213 1.054 3.354 1.5.187.073.374.146.562.216q.356.135.714.263c.155.057.311.111.467.164a3.055 3.055 0 0 1 1.014.552c.022.018.043.038.063.058 1.579 1.479-.646 4.049 3.041 4.477q.165.019.345.032c.579.043 1.3.084 2.129.122 2.542.118 6.172.215 10.313.272 5.65.08 12.252.088 18.347-.014l.635-.011c2.822-.052 5.522-.128 7.955-.232 1.709-.074 3.285-.161 4.678-.265.683-.051 1.323-.105 1.91-.163.975-.1 1.813-.2 2.486-.323l.207-.038q2.223-.423 4.392-1.044.6-.173 1.193-.364.967-.31 1.918-.666.973-.366 1.911-.784a32.732 32.732 0 0 0 10.395-7.355 76.378 76.378 0 0 0 9.339-12.612c1.1-1.775 2.142-3.615 3.086-5.5v-16.38a11.911 11.911 0 0 0-2.143-.334" class="cls-19" transform="translate(-574.068 -929.258)"/>
                <path id="패스_1763" d="M859.851 964.764v.241q-.881.218-1.748.476a27.215 27.215 0 0 0-13.26 8.1q-.143.168-.282.34c-.495.6-.957 1.223-1.392 1.859a33.69 33.69 0 0 0-2.1 3.547q-.461.89-.881 1.8c-1.237 2.661-2.257 5.424-3.328 8.121a42.07 42.07 0 0 1-3.919 8.185 12.841 12.841 0 0 1-6.834 5.124c-.2.064-.395.122-.594.179a31.342 31.342 0 0 1-8.576.891c-3.78-.013-7.56-.134-11.339-.208l-22.733-.442-.928-.018c-.158 0-.173-.233-.014-.23l.854.016 25.765.5c3.585.07 7.19.248 10.773.114a26.512 26.512 0 0 0 6.067-.826 14.448 14.448 0 0 0 3.04-1.207 10.786 10.786 0 0 0 1.161-.728 16.282 16.282 0 0 0 4.941-6.506c1.279-2.692 2.316-5.477 3.41-8.238.523-1.322 1.065-2.651 1.653-3.966q.421-.946.88-1.878a35.854 35.854 0 0 1 2.49-4.333 25.982 25.982 0 0 1 2.051-2.653 22.43 22.43 0 0 1 2.033-2.022 28.828 28.828 0 0 1 10.814-5.7q.99-.3 2-.54" class="cls-14" transform="translate(-685.076 -879.109)"/>
                <path id="패스_1764" d="M1074.237 819.568c-.062-.058-.127-.113-.2-.167l-.043-.032-.035-.024a2.268 2.268 0 0 0-.237-.151 7.958 7.958 0 0 0-2.558-.629l-.084-.015a11.264 11.264 0 0 1-3.4-1.388l-.521-.291q-.527-.293-1.055-.576a55.713 55.713 0 0 0-5.14-2.473q-.346-.144-.7-.285l-.119-.049-.022-.009a30 30 0 0 0-5.525-1.757q-.381-.074-.763-.129a10.324 10.324 0 0 0-1.436-.11 8.48 8.48 0 0 0-2.708.409c-.224.074-.447.158-.664.253-.082.036-.162.072-.242.111a7.375 7.375 0 0 0-1.151.684c-.079.058-.159.117-.235.177a9.462 9.462 0 0 0-.859.756 10.9 10.9 0 0 0-1.265 1.528l-.068.1a16.343 16.343 0 0 0-1.307 2.35c-.758 1.649-1.437 3.341-2.055 5.056q-.421 1.166-.8 2.343-.412 1.263-.788 2.534c-.07.236-.14.472-.208.708q-.3 1.039-.585 2.079c-.1.363-.2.725-.293 1.087q-.133.5-.262 1.008c-.02.075-.038.151-.057.226q-.321 1.268-.61 2.543c-.109.474-.214.95-.316 1.425-.051.238-.1.475-.148.712q-.331 1.608-.609 3.223c-.078.455-.155.909-.225 1.364-.026.156-.051.313-.074.469-.008.04-.014.082-.02.122q-.186 1.192-.34 2.388c-.035.268-.068.536-.1.8q-.182 1.478-.319 2.959l-.441-.3c-.129-.088-.252.113-.125.2l.541.367-.042.462c-.013.154.234.148.248 0l.027-.3.359.245a17.908 17.908 0 0 0 1.6 2.806 8.174 8.174 0 0 0 .765.905 6.532 6.532 0 0 0 .974.821 6.17 6.17 0 0 0 1.007.549c.746.329 1.54.565 2.282.916a12.405 12.405 0 0 1 2.479 1.664l.327.268c.375.308.749.62 1.135.919a13.3 13.3 0 0 0 1.13.795c.065.042.132.082.2.121l.016.009a3.662 3.662 0 0 0 1.841.628 1.777 1.777 0 0 0 .593-.112 2.474 2.474 0 0 0 1.328-1.294 4.148 4.148 0 0 0 .261-.67c.188-.627.307-1.249.488-1.858a5.993 5.993 0 0 1 .525-1.281 8.47 8.47 0 0 1 .692-1.036 13.269 13.269 0 0 1 1.352-1.478c.728-.7 1.517-1.341 2.278-1.984q.223-.189.442-.381c.28-.244.553-.49.822-.74q.336-.31.659-.629.733-.722 1.412-1.492.2-.223.389-.451c.072-.085.143-.171.213-.258.1-.122.2-.246.3-.371s.2-.261.3-.393q.368-.483.715-.977c.485-.688.943-1.392 1.379-2.108q.318-.52.62-1.046t.594-1.058q.547-1 1.063-2.019.227-.445.448-.893c.087-.172.172-.345.257-.517.032-.067.066-.133.1-.2q.414-.842.82-1.685c.1-.2.2-.4.292-.605q.367-.76.737-1.519l.4-.816c.329-.661.662-1.319 1.006-1.974q.18-.345.365-.688l.109-.2c.467-.861.952-1.714 1.467-2.55.047-.077.1-.154.145-.23.089-.141.181-.282.272-.423.152-.234.307-.468.459-.7s.306-.479.449-.724c.155-.264.3-.532.431-.808.625-1.321.825-3.138-.353-4.238" class="cls-1" transform="translate(-907.348 -743.528)"/>
                <path id="패스_1765" d="M1179.17 836.175l.015.008-.862.685a42.11 42.11 0 0 1-6.7 4.811.063.063 0 0 1-.093-.051q.284-4.409.581-8.815c1.245.526 2.493 1.049 3.7 1.643 1.068.527 2.137 1.058 3.181 1.625q.184-3.617.379-7.233.412.166.817.334a55.7 55.7 0 0 1 5.14 2.472 39.242 39.242 0 0 1-6.159 4.52" class="cls-10" transform="translate(-1026.574 -758.89)"/>
                <path id="패스_1766" fill="#ffd252" d="M1044.717 865.255l-.241-.1-.078-.034.061-.047-.026-.014c.273-.219.533-.42.783-.605.3-.224.59-.427.869-.618.475-.325.924-.614 1.376-.915.344-.228.691-.461 1.05-.722s.7-.521 1.089-.835c.052-.042 1.13-.595 1.222-.664a.341.341 0 0 0-.03-.029.8.8 0 0 0-.067-.062c-.692-.61-1.945-.636-2.8-.781l-.084-.015a11.264 11.264 0 0 1-3.4-1.388l-.521-.291q-.115 2.146-.226 4.294l-.119 2.295a23.986 23.986 0 0 1-3.261-.894c-1.21-.6-2.457-1.117-3.7-1.643q-.29 4.3-.568 8.606a5.322 5.322 0 0 1-.943-.324c-.62-.3-1.25-.573-1.885-.841-.577-.245-1.157-.48-1.737-.718l.007-.006c-1.112-.594-2.254-1.142-3.394-1.687-.172-.082-.344-.163-.517-.241-.495-.228-1-.443-1.5-.655-.568-.238-1.138-.47-1.707-.7q-.065 1.187-.127 2.374l-.2 3.795q-.067 1.278-.131 2.558-.683-.371-1.378-.724l-1.8-.9c-.88-.433-1.779-.827-2.684-1.213l-.236-.1-.782-.33-.21 3.155c-.006.077-.011.155-.015.233q-.117 1.739-.229 3.481-.031.456-.059.911l-.064.983c-.087-.047-.173-.095-.261-.141l-.212-.113q-.715-.379-1.438-.74-.651-.327-1.305-.649c-1.21-.6-2.457-1.117-3.7-1.643q-.3 4.407-.582 8.814a.062.062 0 0 0 .093.051 30.041 30.041 0 0 0 4.887-3.349c.475-.381.948-.766 1.419-1.146l.394-.315.059-.047.464-.368q-.558 4.239-1.1 8.48c-.006.044.048.074.089.055a26.7 26.7 0 0 0 4.2-2.447c.944-.65 1.867-1.328 2.8-1.984.2-.144.777-.491 1.219-.765q-.273 4.064-.536 8.129c-1.125-.5-2.844-.6-3.9-1.123q-.371-.183-.749-.357c-.973-.453-1.964-.867-2.954-1.286l-.317 4.757a8.191 8.191 0 0 0 .765.906 6.533 6.533 0 0 0 .974.821 6.166 6.166 0 0 0 1.007.549c1.3-.946 2.535-1.983 3.783-2.977.235-.188.991-.7 1.413-1q-.223 3.281-.434 6.562l.327.268c.375.308.749.62 1.135.919.5-.32 1-.659 1.478-1.01l.273-.2c1.179-.878 2.309-1.822 3.449-2.731.287-.229 1.345-.94 1.632-1.168-.033-.019 1.043-.7 1.591-1.065.728-.7 1.517-1.341 2.278-1.984q.223-.189.442-.381.419-.366.822-.74c.224-.207.443-.417.659-.63q.733-.722 1.412-1.492c-.152-.046-.31-.089-.471-.128a15.627 15.627 0 0 1-2.8-.772c-.812-.4-1.641-.766-2.476-1.122l-.228-.1q-.429-.184-.86-.365c.6-.335 1.183-.7 1.748-1.089.16-.109.317-.218.473-.33 1.382-.986 2.681-2.082 4-3.131.219-.176.89-.632 1.322-.939.136-.024.153 0 .183-.015-.146 2.167-.3 4.466-.442 6.664l-.057.873c.072-.086.143-.171.213-.258q.152-.184.3-.371l.3-.393q.368-.483.715-.977c.485-.688.943-1.391 1.38-2.108q.318-.52.62-1.046t.594-1.058l-.329-.159-.212-.1c-.862-.405-1.742-.781-2.623-1.152a47.438 47.438 0 0 0 6.14-4.505q.367-.761.737-1.519c-.635-.189-1.359-.318-2.023-.48a27.1 27.1 0 0 0 3.431-2.31q.18-.345.365-.688l.109-.2c.466-.862.951-1.714 1.467-2.55.047-.077.1-.154.145-.23.089-.141.18-.282.272-.423a9.291 9.291 0 0 1-2.025-.591c-1.07-.527-2.17-1-3.271-1.461m-14.082 4.341l.27-.219.47-.383-.03.566q-.1 1.764-.189 3.525l-.2 3.868a27.048 27.048 0 0 1-3.342-.919c-1.155-.569-2.343-1.069-3.533-1.572l.021-.017-.015-.008c.6-.323 1.173-.678 1.732-1.055 1.7-1.147 3.245-2.5 4.816-3.783m-.512 8.847c.176-.14.636-.459 1.034-.737q-.265 3.956-.522 7.915a30.692 30.692 0 0 1-3.433-.948c-1.065-.524-2.159-.991-3.254-1.454-.071-.044-.146-.087-.224-.126a44.916 44.916 0 0 0 6.4-4.647m-6.774 4.474c-.867-.353-1.982-.562-2.859-.9a4.417 4.417 0 0 1-.594-.273c-1.1-.625-2.248-1.185-3.39-1.746l.1-.081-.016-.008a32.649 32.649 0 0 0 5.313-3.7c.447-.361.891-.723 1.336-1.079l.658-.522q-.28 4.156-.549 8.311m7.517 5.548q-.2 2.976-.391 5.953a23.642 23.642 0 0 0-2.774-.723c-.086-.023-.171-.046-.254-.072a4.77 4.77 0 0 1-.771-.289c-1.134-.559-2.3-1.051-3.469-1.545a43.726 43.726 0 0 0 6.5-4.7c.218-.173.877-.623 1.309-.931l-.12 1.8-.035.513m12.86-14.89a4.777 4.777 0 0 1-.728-.276c-1.2-.59-2.431-1.106-3.664-1.627l-.037-.016c0 .026 0 .052-.005.079q-.278 4.105-.543 8.214a25.033 25.033 0 0 0-2.949-.778q-.119-.033-.234-.069a4.454 4.454 0 0 1-.673-.259c-1.066-.524-2.16-.992-3.258-1.456a47.819 47.819 0 0 0 6.012-4.537c.2-.166.8-.585 1.226-.894.168-.122.311-.226.39-.292-.045-.024-.09-.047-.139-.069a14.139 14.139 0 0 0-2.69-.708 44.831 44.831 0 0 0 6.392-4.645c.243-.194 1.038-.733 1.451-1.032 0 .051-.006.1-.01.151l-.025.366q-.263 3.925-.518 7.85" transform="translate(-884.111 -784.793)"/>
                <path id="패스_1767" d="M776.241 864.565l-.249.1c-.533.211-1.066.423-1.6.632l1.848-.728" class="cls-6" transform="translate(-678.575 -790.481)"/>
                <path id="패스_1768" d="M331.979 1382.273c-1.082-.209-2.159-.417-3.237-.617q-3.119 5.579-6.1 11.223-3.918 7.425-7.591 14.96-2.081 4.269-4.083 8.571a.079.079 0 0 0 .031.111l3.878 1.565a.094.094 0 0 0 .105-.012c4.4-5.008-.2-.11 4.485-7.9 3.6-5.982 14.495-19.974 18.836-25.5l.91-1.156c-2.436-.341-4.853-.78-7.232-1.24" class="cls-12" transform="translate(-272.48 -1247.857)"/>
                <path id="패스_1769" d="M675.684 1352.348c-.632.846-1.262 1.687-1.883 2.533 2.843 3.25 5.936 5.082 8.859 8.269 3.845 4.192 12.987 14.538 15.817 18.049.026.032 2.621 2.681 2.658 2.648l3.07-2.71a.08.08 0 0 0 .029-.1c-3.2-5.749-10.835-17.731-14.975-22.9-4.4-5.493-4.991-4.373-8.723-10.276l-.78-1.236c-1.3 1.955-2.682 3.855-4.072 5.714" class="cls-12" transform="translate(-590.43 -1216.879)"/>
                <path id="패스_1770" d="M437.112 928.42q-4.833-.049-9.663-.136a41.348 41.348 0 0 1-4.394.1.913.913 0 0 1-.293-.063c-1.709.051-2.678-.005-4.361-.093-1.108-.057-2.217-.1-3.326-.139q-.506 1.021-1.07 2.016-.529.921-1.111 1.818a5.031 5.031 0 0 1-5.6 2.928c-5.083-.024-10.919-.281-15.983-.675-2.444-.19-4.876-.459-7.315-.692-1.964-.187-4.143-.247-5.819.885a8.651 8.651 0 0 0-1.986 2.041c-.653.86-1.291 1.73-1.929 2.6q-2.019 2.754-3.974 5.55-.666.953-1.325 1.911-6.993 10.165-13.113 20.823-3.346 5.826-6.419 11.782-1.551 3.007-3.033 6.047c-.947 1.941-1.936 3.883-2.779 5.867l-.016.04a.114.114 0 0 0-.009.019 1.206 1.206 0 0 0-.059 1.057 1.462 1.462 0 0 0 .886.562c1.158.372 2.342.686 3.519 1q.932.253 1.866.495 2.654.682 5.336 1.265 1.036.225 2.074.434 6.1 1.231 12.306 1.939 1.774.2 3.554.36a.061.061 0 0 0 .063-.058 14.523 14.523 0 0 1 .557-6.212c.09-.285.189-.568.3-.846a.077.077 0 0 1 .006-.019 14.918 14.918 0 0 1 1.011-2.1c.507-.873 1.088-1.707 1.615-2.569a11.685 11.685 0 0 0 1.247-2.589 10.108 10.108 0 0 0 .375-1.984q1.214 2.2 2.439 4.388l.325.584q1.106 1.978 2.221 3.952c.061.108.12.214.182.32a.093.093 0 0 0 .01.019q1.706 3.021 3.429 6.034 1.67 2.921 3.358 5.833a.066.066 0 0 0 .072.027 39.359 39.359 0 0 0 8.3-3.975c1.581-.976 3.108-2.031 4.6-3.125q.75-.553 1.49-1.115t1.486-1.143q.735-.572 1.465-1.148a10.643 10.643 0 0 0 1.329-1.116 2.271 2.271 0 0 0 .214-.271.092.092 0 0 0 .012-.019 1.533 1.533 0 0 0 .28-.9 2.53 2.53 0 0 0-.491-1.28c-.3-.463-.666-.891-.928-1.378a6.9 6.9 0 0 1-.606-1.731 20.661 20.661 0 0 0-.846-3.14 14.97 14.97 0 0 0-1.2-2.31c-.048-.079-.1-.156-.147-.233-1.1-1.7-2.425-3.246-3.66-4.853a18.575 18.575 0 0 1-3.023-5.144 13.033 13.033 0 0 1-.591-3.356 15.965 15.965 0 0 0-.473-3.531c-.593-1.97-2.178-3.367-3.736-4.716-.288-.249-.6-.511-.906-.785a7.374 7.374 0 0 1 .694-1.427l3.188.425 18.644 2.486a60.905 60.905 0 0 0 7.944.773 13.732 13.732 0 0 0 6.97-1.578c4.079-2.387 5.253-7.141 6.246-11.225q1.858-7.635 3.714-15.271c.05-.2.1-.4.147-.6l.3-1.232.385-1.583c-1.322.013-2.643.005-3.965-.008" class="cls-7" transform="translate(-300.935 -846.67)"/>
                <path id="패스_1771" d="M821.888 544.633c-.15-2.861-.53-7.451-1.819-10.1a15.632 15.632 0 0 0-4.537-6.159c-1.258-1.006-4.289-4.465-15.335-7.374a5.993 5.993 0 0 0-1.874 0 .12.12 0 0 0-.181-.1l-.215.127h-.036a.126.126 0 0 0-.11.083l-.874.514c-2.556 1.5-9.009 3.591-14.123 9.365-1.967 2.221-8.116 14.3-9.1 17.067a17.136 17.136 0 0 1-2.032 4.058c-.843 1.221-1.832 2.343-2.727 3.53a16.78 16.78 0 0 0-2.119 3.727 13.826 13.826 0 0 1-.872 1.858 8.472 8.472 0 0 1-1.656 1.819 4.476 4.476 0 0 0-1.008 1.318c.8.364 1.58.789 2.373 1.15 1.622.523 3.383.6 5.015 1.1a4.618 4.618 0 0 1 1.2.566 111.517 111.517 0 0 0 10.229-8.4 15.681 15.681 0 0 1-.427 5.155 16.432 16.432 0 0 0-.089 5.6c.043.262.435.316.621.162 5.471.246 24.856 1.391 25.279 1.261 1.031.751-.207-6.833 1.608-5.37 1.914 1.543 9.041 10.359 10.517 2.945.634-3.184 1.125-1.337 1.48-4.558a119.717 119.717 0 0 0 .813-19.348" class="cls-8" transform="translate(-668.83 -486.485)"/>
                <path id="패스_1772" d="M894.875 250.706a6.731 6.731 0 0 0-1.069-3.01 12.2 12.2 0 0 0-1.019-1.253 2.753 2.753 0 0 1-.542-.838 2.225 2.225 0 0 1-.046-1.086 31.8 31.8 0 0 1 1.058-3.923 13.792 13.792 0 0 0 .5-3.9 23.968 23.968 0 0 0-.389-3.883 10.737 10.737 0 0 0-1.094-3.348c-1.015-1.832-3.213-3.374-5.481-2.932a7.4 7.4 0 0 0-4.521-3.179 10.212 10.212 0 0 0-3.63-.225 18.846 18.846 0 0 0-3.6.9 18.819 18.819 0 0 1-3.922.607 12.592 12.592 0 0 0-3.429.759 8.239 8.239 0 0 0-4.618 4.16 7.447 7.447 0 0 0-.543 3.349c.022.761-.1 2.273-.113 2.322a11.967 11.967 0 0 1-.995 2.522 9.022 9.022 0 0 1-1.612 2.072 32.713 32.713 0 0 0-3.607 3.566 10.4 10.4 0 0 0-1.9 4.436 3.94 3.94 0 0 0 1.231 4.062 5.235 5.235 0 0 0 3.414.938 3.283 3.283 0 0 0 2.133 1.819 3.644 3.644 0 0 0 1.856-.176 2.153 2.153 0 0 1 2.16.137c.255.229.447.512.715.729a2.624 2.624 0 0 0 .693.4 3.6 3.6 0 0 0 1.644.213l.12-.013a4.882 4.882 0 0 0 2.157-.859 9.045 9.045 0 0 0 .869-.677 3.761 3.761 0 0 0 .886.274 4.807 4.807 0 0 0 2.288-.2l.124-.039c.285-.09.564-.2.84-.313a37.353 37.353 0 0 0 6.371-3.232l.058-.039q.531-.357 1.029-.753c.032.29.072.578.121.865.017.105.036.21.057.314l.057.27a7.808 7.808 0 0 0 1.284 2.954l.012.017a6.051 6.051 0 0 0 .673.771c.051.05.1.1.156.144a4.819 4.819 0 0 0 4.454 1.215 3.528 3.528 0 0 0 2.337-1.758 1.4 1.4 0 0 0 .256.09 1.946 1.946 0 0 0 2.055-1.162 5.66 5.66 0 0 0 .524-3.108" class="cls-9" transform="translate(-748.505 -223.058)"/>
                <path id="패스_1773" d="M1025.571 407.372c0-.083-.005-.163-.005-.24v-.126q.008-.5-.015-.99c0-.084-.007-.169-.013-.253-.048-.9-.153-1.792-.267-2.686-.043-.339-.088-.678-.13-1.016l-.026-.2-.016-.12c-.02-.158-.04-.315-.058-.473l-.056-.5c-.188-1.776-.256-3.558-.317-5.341-.026-.762-.052-1.523-.088-2.284 0-.136-.012-.273-.018-.409 0-.07-.008-.141-.011-.211-.025-.45-.053-.9-.089-1.351q-.027-.378-.064-.753-.052-.566-.122-1.132v-.035q-.013-.116-.03-.232c0-.016 0-.032-.006-.048s0-.047-.009-.072a.063.063 0 0 0-.105-.04l-.14.126-.182.165-.482.438-.037.034-.061.055-1.414 1.28-2.824 2.556-2.57 2.327a16.706 16.706 0 0 1-2.175 1.8l-.035-.319c-.007-.074-.131-.075-.124 0l.042.388c-.081.049-.161.1-.244.143s-.006.137.063.1.13-.076.194-.114q.111 1.057.226 2.112l.124 1.116.026.231.052.47.118 1.028.129 1.117.2 1.685.011.1q.174 1.464.358 2.926a.061.061 0 0 0 .062.058q3.111.029 6.223-.076 1.555-.054 3.108-.142c.274-.015.588-.007.707-.283a1.983 1.983 0 0 0 .1-.8" class="cls-21" transform="translate(-888.398 -369.692)"/>
                <path id="패스_1774" d="M962.988 284.6a8.973 8.973 0 0 0-2.171-2.827 11.745 11.745 0 0 0-2.9-2.022 11.865 11.865 0 0 0-4.845-1.059h-.137c-.358-.007-.716 0-1.071.01-.256.009-.514.023-.768.042s-.49.038-.733.063a8.019 8.019 0 0 0-1.877.331 5.129 5.129 0 0 0-1.522 1.058 5.13 5.13 0 0 1-2.691.957l-.377 1.711q-.215.989-.434 1.98-.2.889-.387 1.78c-.041.183-.078.369-.117.554l-.007.035q-.154.736-.3 1.475l-.089.461q-.133.7-.251 1.392a14.586 14.586 0 0 0-.2 3.84 21.967 21.967 0 0 0 .791 3.84 17.778 17.778 0 0 0 1.215 3.417 5.74 5.74 0 0 0 1.413 1.836 3.482 3.482 0 0 0 1.209.649 4.921 4.921 0 0 0 .674.15 9.531 9.531 0 0 0 3.26-.186c.313-.063.624-.139.932-.222l.213-.058a22.909 22.909 0 0 0 2.61-.929 15.394 15.394 0 0 0 3.09-1.658 8.473 8.473 0 0 0 1.273-1.132 9.385 9.385 0 0 0 1.072-1.419l.057-.094.009-.014c.051-.084.1-.169.15-.254a24.114 24.114 0 0 0 1.4-2.819c0-.007.006-.015.01-.022.054-.126.106-.252.158-.379s.093-.232.139-.349c.309-.793.585-1.6.832-2.4.049-.158.1-.316.142-.476.019-.061.037-.124.054-.186a18.064 18.064 0 0 0 .7-3.436c.009-.094.015-.187.02-.281a7.171 7.171 0 0 0-.542-3.358" class="cls-21" transform="translate(-825.49 -272.26)"/>
                <path id="패스_1775" d="M1017.181 384.747c-.076.732-.42 1.3-.767 1.269s-.567-.651-.491-1.383.42-1.3.767-1.268.567.651.491 1.383" class="cls-9" transform="translate(-890.207 -364.851)"/>
                <path id="패스_1776" d="M957.392 369.2c-.09.731-.444 1.293-.791 1.256s-.555-.66-.465-1.391.444-1.293.791-1.256.555.66.465 1.391" class="cls-9" transform="translate(-837.812 -351.088)"/>
                <path id="패스_1777" d="M967.8 442.4c-.16 0-.339-.008-.536-.018-.772-.046-1.788-.172-2.738-.329a20.52 20.52 0 0 1-2.048-.465c-.2-.058-.326-.1-.328-.1-.055-.068-.184-.066-.169.027a2.976 2.976 0 0 0 2.464 2.6 3.272 3.272 0 0 0 3.406-1.585c.033-.051.028-.128-.051-.128" class="cls-22" transform="translate(-842.954 -416.224)"/>
                <path id="패스_1778" d="M948.075 333.254c-.206-.558-1.389-.944-1.412-.924a9.115 9.115 0 0 0-1.814-.472 23.989 23.989 0 0 1-1.087 2.288h.091a11.286 11.286 0 0 1 2.315.454 1.826 1.826 0 0 0 1.6-.17 1.065 1.065 0 0 0 .308-1.178" class="cls-9" transform="translate(-826.988 -319.293)"/>
                <path id="패스_1779" d="M945.785 275.263a7.328 7.328 0 0 0-2.555-4.676 9.161 9.161 0 0 0 .064-1.356 5.983 5.983 0 0 0-.641-2.613 4.817 4.817 0 0 0-.26-.439 4.514 4.514 0 0 0-1.083-1.15l-.035-.025v-.1a20.05 20.05 0 0 0-.764-5 16.607 16.607 0 0 0-2.142-4.824 9.687 9.687 0 0 0-4.14-3.228 13.129 13.129 0 0 0-2.4-.812c-.152-.036-.306-.068-.459-.1h-.015a8.436 8.436 0 0 0-1.455-.164l.024-.067c.021-.072-.1-.1-.12-.03-.01.032-.022.063-.032.1-.094 0-.188 0-.281.007.006-.11.012-.218.02-.327.005-.075-.119-.074-.124 0-.008.11-.014.222-.02.334a3.548 3.548 0 0 1-1.33.015 19.429 19.429 0 0 0-2.59.214 10.746 10.746 0 0 0-4.336 1.723 12.2 12.2 0 0 0-3.245 3.076 9.242 9.242 0 0 0-1.025 2.118c-.294.8-.591 1.609-.862 2.421a18.774 18.774 0 0 0-.985 5.69.062.062 0 0 0 .093.05 14 14 0 0 0 2.21-1.256c.349-.237.7-.477 1.044-.725.2-.146.4-.293.593-.446.1-.081.206-.162.306-.245a4.659 4.659 0 0 0 .945-1.069 8.688 8.688 0 0 0 .939-2.187l.067-.218a10.942 10.942 0 0 1 .74-1.974 5.648 5.648 0 0 1 1.4-1.675 35.2 35.2 0 0 1 3.724-2.358c.11-.071.219-.142.327-.217.208-.141.412-.289.609-.445a6.679 6.679 0 0 0 1.324-1.35c-.015.443-.042.893-.069 1.342-.007.134-.016.268-.024.4-.117 2.145-.1 4.253 1.7 5.711.573.464 1.254.793 1.831 1.252a3.137 3.137 0 0 1 1.12 1.968 3.837 3.837 0 0 0 .775 1.953 2.884 2.884 0 0 0 .981.672 3.55 3.55 0 0 1 .35.372c.032.039.063.081.093.122a3.767 3.767 0 0 1 .587 1.416.266.266 0 0 1 .006.032v.013c.02.1.036.194.049.291 0 .015.005.029.008.044v.026c.047.337.069.68.087 1.025-.011.442-.048.887-.1 1.328-.053.5-.12.987-.181 1.467-.01.076-.02.151-.028.226q-.1.849-.143 1.7c-.009.2-.015.4-.018.6v.411c0 .4.014.8.04 1.2 0 .076.011.154.017.23a4.452 4.452 0 0 0 1.016 2.676c.086.1.176.189.269.278a4.778 4.778 0 0 0 .8.612 7.011 7.011 0 0 0 5.1.72 2.771 2.771 0 0 0 1.986-2.022 6.592 6.592 0 0 0 .218-2.733M929.3 250.945c-.036-.012-.073-.021-.11-.031.056-.006.112-.013.166-.017v.066l-.052-.017" class="cls-9" transform="translate(-801.777 -247.234)"/>
                <path id="패스_1780" d="M1075.852 381.352a2.666 2.666 0 0 0-.1-.579 2.507 2.507 0 0 0-.264-.613 1.642 1.642 0 0 0-1.406-.834 7.6 7.6 0 0 0-1.4.2 1.651 1.651 0 0 1-1.478-.291.119.119 0 0 0-.157.179 1.557 1.557 0 0 0 1.187.375.112.112 0 0 0-.021.046 11.789 11.789 0 0 0-.321 2.6v.291c.005.222.02.442.042.661a6.755 6.755 0 0 0 .166.945 5.175 5.175 0 0 0 .244.75.475.475 0 0 0 .307.3.732.732 0 0 0 .431-.031c.05-.017.1-.037.152-.06a5.07 5.07 0 0 0 1.242-.915l.169-.167c.15-.153.268-.284.337-.368a3.737 3.737 0 0 0 .863-2.49" class="cls-21" transform="translate(-938.488 -361.175)"/>
                <path id="패스_1781" d="M968.373 379.438c.095-.12-.115-.244-.208-.125-.542.689-1.1 1.369-1.624 2.073a3.9 3.9 0 0 0-.859 1.778c-.162 1.333 1.03 1.693 2.221 1.672.159 0 .17-.234.01-.231a2.328 2.328 0 0 1-1.692-.39 1.611 1.611 0 0 1 0-1.893 20.48 20.48 0 0 1 2.15-2.885" class="cls-22" transform="translate(-846.182 -361.226)"/>
                <path id="패스_1782" d="M1077.873 430.9a1.529 1.529 0 0 1-1.109-.174c-.133-.079-.292.1-.158.178a1.823 1.823 0 0 0 1.355.211c.154-.034.065-.25-.088-.216" class="cls-22" transform="translate(-943.35 -406.726)"/>
                <path id="패스_1783" d="M968.06 443.18a20.558 20.558 0 0 1-2.048-.465 1.948 1.948 0 0 0 1 1.171 3.91 3.91 0 0 0 1.192.351 4.267 4.267 0 0 0 1.444-.006 1.645 1.645 0 0 0 1.154-.722c-.772-.046-1.788-.172-2.738-.329" class="cls-7" transform="translate(-846.485 -417.348)"/>
                <path id="패스_1784" d="M1008.237 349.409a6.334 6.334 0 0 0-4.722-1.14 1.664 1.664 0 0 0-1.316.916.782.782 0 0 0 .564 1.01 23.531 23.531 0 0 0 2.475.386 11.349 11.349 0 0 0 2.436.8c1.323.045 1.126-1.566.563-1.977" class="cls-9" transform="translate(-878.152 -333.727)"/>
                <path id="패스_1785" d="M1013.089 777.557q1.213-1.155 2.452-2.283c1.5-1.366 3.072-2.68 4.6-4.035a176.315 176.315 0 0 1-15.281-12.592q-2.221-2.053-4.366-4.179a.086.086 0 0 0-.129.006l-2.561 3.034a.064.064 0 0 0 .01.1.072.072 0 0 0 .008.068q6.014 8.8 12.865 17.047 1.188 1.428 2.4 2.835" class="cls-21" transform="translate(-874.324 -693.076)"/>
                <path id="패스_1786" d="M679.388 772.1a28.035 28.035 0 0 0 2.32-2.136 204.826 204.826 0 0 1-15.782-13.91q-2.151-2.171-4.224-4.407a.086.086 0 0 0-.128 0l-2.631 2.828a.063.063 0 0 0 .007.1.071.071 0 0 0 .006.068c2.3 3.638 7.449 11.3 10.874 16 2.4 3.294 6.053 3.731 9.558 1.463" class="cls-21" transform="translate(-577.394 -690.58)"/>
                <path id="패스_1787" d="M587.31 744.811c-.025-.094-.053-.184-.085-.272a3.266 3.266 0 0 0-.291-.605 4.421 4.421 0 0 0-3.519-1.939h-.046a10.9 10.9 0 0 0-3.181.513q-.423.1-.851.176a13.655 13.655 0 0 1-2.681.185c-.141 0-.281-.008-.421-.015-1.159-.052-2.31-.2-3.457-.362l-.2-.028a.067.067 0 0 0-.083.059l-.022.188a3.022 3.022 0 0 0 .307 2.109h.022l.1.019h.01c1 .19 7.441 1.344 10.556 1.77.886.12 1.606.214 2.044.262.206.023.51.114.7.008.136-.075.189-.244.252-.37q.4-.814.808-1.628a.056.056 0 0 0 .037-.068" class="cls-21" transform="translate(-501.589 -682.054)"/>
                <path id="패스_1788" d="M538.835 703.782c-.053-.113-.229-.172-.333-.229l-.194-.106-.208-.113-.111-.061-1.183-.648a10.233 10.233 0 0 1-.987-.559 1.911 1.911 0 0 1-.676-.965 11.727 11.727 0 0 1-.368-1.143 5.6 5.6 0 0 0-.335-1.051 4.37 4.37 0 0 0-.542-.795.883.883 0 0 0-.588-.389c-.676-.054-.453.708-.341 1.052a12.763 12.763 0 0 1 .5 2.276c.046.365.06.731.09 1.1a1.04 1.04 0 0 0 .312.739 5.322 5.322 0 0 0 .946.573c.365.207.732.409 1.094.621a11.319 11.319 0 0 1 1.956 1.392c.051.046.1.093.151.143l.039.038a.06.06 0 0 0 .065.014.051.051 0 0 0 .022-.012.065.065 0 0 0 .01-.009c.011.008.024.015.034.023a.055.055 0 0 1 .013.01.067.067 0 0 0 .05.008.06.06 0 0 0 .046-.035c.121-.389.245-.778.367-1.167.059-.189.26-.51.168-.7" class="cls-21" transform="translate(-466.912 -642.905)"/>
                <path id="패스_1789" d="M605 739.607a3.152 3.152 0 0 0-.291-.5 2.622 2.622 0 0 0-.225-.281l-.02-.021a3.273 3.273 0 0 0-1.034-.762 4.08 4.08 0 0 0-1.369-.342h-.02a8.591 8.591 0 0 0-.959-.022c-.88.023-1.751.094-2.632.036a25.632 25.632 0 0 1-2.862-.389c-.464-.084-1.774-.508-1.887.259-.079.543.647.806 1.179.973.126.041.241.075.333.106a12.081 12.081 0 0 1 2.239 1.408q.286.175.59.324a7.471 7.471 0 0 0 1.62.577 7.733 7.733 0 0 0 1.284.189 3.792 3.792 0 0 0 1.236-.047.75.75 0 0 0 .2-.092 1.111 1.111 0 0 0 .153-.125c.036-.036.073-.073.109-.112a5.682 5.682 0 0 1 .647-.6 13.663 13.663 0 0 1 1.354-.908.04.04 0 0 0 .021-.029.032.032 0 0 0 .015 0 2.985 2.985 0 0 1 .223.395c.027.059.124.017.1-.041" class="cls-21" transform="translate(-520.234 -677.769)"/>
                <path id="패스_1790" d="M996.048 622.83a13.66 13.66 0 0 0-.4-1.37c-.1-.285-.173-.715-.506-.849a.068.068 0 0 0-.075.009 1.825 1.825 0 0 0-.2 1.6 12.111 12.111 0 0 1-.46 5.978c-.042.128-.088.256-.135.384l-.02.015c.023-.132.043-.263.059-.4a11.664 11.664 0 0 0 .084-1.527 14.957 14.957 0 0 0-.391-4.048 6.006 6.006 0 0 0-.294-.812c-.089-.2-.212-.6-.467-.677-.456-.131-.5.734-.489.966.046.684.255 1.358.327 2.042a13.561 13.561 0 0 1 .053 2.113 13.3 13.3 0 0 1-.266 2.015 13.73 13.73 0 0 1-.4 1.5l-.152.089a12.766 12.766 0 0 0 .05-1.556 27.133 27.133 0 0 0-.745-5c-.051-.23-.13-1.044-.607-.849-.447.181-.241 1.029-.211 1.344.077.766.205 1.527.24 2.3a11.892 11.892 0 0 1-.136 2.314c0 .018-.006.037-.009.055a22.346 22.346 0 0 1-.793 3.219 2.674 2.674 0 0 0-.132.313c-.113.321-.217.646-.314.971-.241.793-.452 1.6-.685 2.39-.262.889-.781 1.979-.3 2.876a5.641 5.641 0 0 0 1.126 1.265l.011.01q.31.3.63.584.252.225.508.447c-.033.047.033.107.087.075.093.08.184.162.277.241.059.049.147-.032.088-.082l-.276-.233c.6-.5 1.358-1 1.59-1.747.189-.61.338-1.234.485-1.858 0-.011.006-.024.009-.036.077-.325.152-.65.234-.972l.833-3.309.528-2.1c.339-.777.673-1.565.941-2.37a10.5 10.5 0 0 0 .548-2.608 9.392 9.392 0 0 0-.244-2.715" class="cls-21" transform="translate(-866.168 -574.695)"/>
                <path id="패스_1791" d="M217.773 1604.28c-.876-.2-1.738-.471-2.6-.724a40.968 40.968 0 0 1-7.893 10.237c-1.879 1.626-9.41 6.513-9.874 6.863a1.82 1.82 0 0 0-.794 1.056.893.893 0 0 0 .563.9 12.022 12.022 0 0 0 1.63.592 8.667 8.667 0 0 0 8.559-1.365 17.185 17.185 0 0 1 2.987-1.938c1.087-.57 2.207-1.086 3.269-1.7 1.732-1 3.1-1.8 3.744-3.661.4-1.16.2-3.011.414-4.2.206-1.163 2.114-4.353 2.313-4.915.069-.2.147-.393.207-.593q-1.262-.271-2.522-.555" class="cls-23" transform="translate(-172.274 -1444.131)"/>
                <path id="패스_1792" d="M828.941 1590.525a5.731 5.731 0 0 0-2.058-1.455 16.325 16.325 0 0 1-2.628-1.71c-.077-.061-1.122-1.874-1.646-2.677q-.36-.552-.75-1.087c-.135-.186-.272-.369-.413-.551a1.608 1.608 0 0 0-.319-.395l-.037-.021a.2.2 0 0 0-.141-.009 2.6 2.6 0 0 0-.6.329l-1.371.771-3.059 1.721a.319.319 0 0 0-.072.062c-.027.031-.046.069-.027.1 1.148 1.6 4.573 5.295 4.9 5.712a3.034 3.034 0 0 1 .7 1.487 4.492 4.492 0 0 1-.178 1.64 16.757 16.757 0 0 1-1.147 3.052 6.09 6.09 0 0 1-1.751 2.283 34.181 34.181 0 0 1-4.542 2.358 8.7 8.7 0 0 0-.992.633c-.273.2-.682.467-.782.8a.666.666 0 0 0 .382.736 1.57 1.57 0 0 0 1.206.015 15.069 15.069 0 0 1 3.049-.491 10.839 10.839 0 0 0 2.858-.472c1.814-.65 2.828-2.287 3.906-3.689a28.031 28.031 0 0 1 2.144-2.527c.706-.724 1.511-1.356 2.231-2.066 1.171-1.157 2.249-3.029 1.127-4.543" class="cls-23" transform="translate(-711.542 -1425.606)"/>
                <path id="패스_1793" d="M994.927 516.408a6.713 6.713 0 0 1-.521-.759 1.494 1.494 0 0 1-.083-.2.842.842 0 0 1 0-.605c.072-.166.244-.308.293-.482.057-.208-.068-.352-.264-.483a2.247 2.247 0 0 1-.885-.853 1.322 1.322 0 0 1-.129-.5 1.519 1.519 0 0 0-.015-.359.4.4 0 0 0-.323-.267.96.96 0 0 0-.182-.022 5.438 5.438 0 0 0-.682.03c-.236.023-.473.053-.7.07l-1.634.127-6.245.486-1.784.139-.1.008-.791.061a3.529 3.529 0 0 0-.49.031.368.368 0 0 0-.061.018c-.268.114-.37.567-.473.771a1.717 1.717 0 0 0-.314 1.045 7.768 7.768 0 0 1 .217.769.716.716 0 0 1-.066.353 2.61 2.61 0 0 1-.986.95l-.037.024c-.817.537-2.566 1.577-2.639 1.628.721-.358 1.424-.739 2.1-1.147a9.378 9.378 0 0 0 1.117-.733.093.093 0 0 0 .083.008.59.59 0 0 0 .17-.113.671.671 0 0 0 .293.368 2.529 2.529 0 0 1 .341.27.977.977 0 0 1 .191.609 4.428 4.428 0 0 0 .969 1.668c.376.571.474 1.233 1.016 1.738a3.774 3.774 0 0 0 1.854.847 8.634 8.634 0 0 0 2.665 0c.9-.113 1.809-.266 2.691-.458a11.746 11.746 0 0 0 4.462-1.789c1.151-.856 1.745-2.108.943-3.254" class="cls-8" transform="translate(-855.265 -478.525)"/>
                <path id="패스_1794" d="M796.008 846.276a35.319 35.319 0 0 0-7.2.153c-.586.054-1.172.11-1.758.159a4.858 4.858 0 0 1-1.855.005c-.456-.152-.895-.318-1.361-.448a4.287 4.287 0 0 1-1.095-.43l-.067.018c-.24.069.218-.476-.031-.442a3.183 3.183 0 0 1-1.759.93.06.06 0 0 0-.06.073c.743 3.439.262 6.951.181 10.423a.062.062 0 0 0 .093.05c1.247-.672 2.77.092 4.038-.514a2.843 2.843 0 0 0 .686-.532 1.818 1.818 0 0 1 1.025-.45 4.478 4.478 0 0 0 1.755-.347 3.153 3.153 0 0 0 .94-1.319 4.121 4.121 0 0 1 1.492-1.289 3.449 3.449 0 0 0 1.19-1.225c.148-.262.278-.533.447-.784a2.775 2.775 0 0 1 .912-.819 5.215 5.215 0 0 0 2.488-3.14c.01-.04-.019-.069-.06-.073" class="cls-8" transform="translate(-684.208 -773.433)"/>
                <path id="패스_1795" d="M1117.594 742.221l-.022-.134-.783-4.776-.158-.963c-.007-.052-.088-.053-.113-.014-.166.253-.329.508-.49.763a62.406 62.406 0 0 0-3.4 6.092q-.492 1.012-.944 2.038-.312.7-.608 1.414c-.226.543-.453 1.088-.7 1.626a17.522 17.522 0 0 1-.9 1.755c-.346.584-.77 1.1-1.173 1.654a2.449 2.449 0 0 0-.483.962l-.458.4q-3.248 2.857-6.628 5.578l-.11.089a.057.057 0 0 0-.005.076l.005.006c.871.7 1.075 1.781 1.54 2.721a4.041 4.041 0 0 0 .345.583 6.512 6.512 0 0 0 1.01 1 5.364 5.364 0 0 1 .531.526c.11.128.211.264.307.4a7.913 7.913 0 0 0 .8 1.07 1.774 1.774 0 0 0 .98.525 2.436 2.436 0 0 0 .658.021 4.978 4.978 0 0 1 1.257-.036c.41.065.8.2 1.207.276a2.577 2.577 0 0 0 1.911-.381c.1-.059.2-.119.3-.175a4.017 4.017 0 0 1 .744-.343c.4-.13.817-.2 1.207-.36a3.632 3.632 0 0 0 2-1.915 3.779 3.779 0 0 0 .283-.961c.122-.776.1-1.566.273-2.336s.5-1.537.672-2.326a10.718 10.718 0 0 0 .129-2.547c0-.118-.006-.237-.007-.355 0-.166-.006-.334 0-.5a7.311 7.311 0 0 1 .157-1.579c0-.009 0-.017.006-.026l.041-.177c.068-.282.141-.563.2-.845a5.106 5.106 0 0 0 .142-1.259c-.011-.333-.053-.664-.094-1-.022-.172-.043-.344-.059-.516a5.108 5.108 0 0 1-.021-.881 2.81 2.81 0 0 1 .067-.419 4.855 4.855 0 0 1 .181-.579 5.926 5.926 0 0 0 .463-1.535 10.616 10.616 0 0 0-.256-2.649" class="cls-8" transform="translate(-964.43 -677.034)"/>
                <path id="패스_1796" d="M921.829 635.1a42.5 42.5 0 0 1-2.789 5.187 15.689 15.689 0 0 0-2.407 4.455c-.427 1.779.034 3.59.193 5.371a38.116 38.116 0 0 1-.12 6.18c-.011.148.237.148.247 0a40.494 40.494 0 0 0 .147-5.838c-.133-1.866-.683-3.79-.229-5.652.412-1.689 1.579-3.114 2.5-4.585a42.53 42.53 0 0 0 2.672-5c.061-.135-.152-.253-.214-.117" class="cls-14" transform="translate(-803.061 -587.462)"/>
                <path id="패스_1797" d="M1140.848 680.4c-1.085 3.386-.845 6.945-.688 10.43l.508 11.283c.007.148.254.149.247 0q-.248-5.526-.5-11.053c-.159-3.538-.433-7.159.669-10.6.046-.143-.193-.2-.239-.061" class="cls-14" transform="translate(-998.965 -627.513)"/>
                <path id="패스_1798" d="M1081.338 544.377a12.761 12.761 0 0 1-4.715.977.116.116 0 1 0 0 .231 13.09 13.09 0 0 0 4.84-1.008c.146-.061.02-.26-.125-.2" class="cls-14" transform="translate(-943.305 -507.26)"/>
                <path id="패스_1799" d="M920.679 368.008a3.342 3.342 0 0 1-2.21 1.1c-.157.015-.159.246 0 .231a3.6 3.6 0 0 0 2.385-1.165c.1-.113-.072-.277-.175-.163" class="cls-24" transform="translate(-804.721 -351.235)"/>
                <path id="패스_1800" d="M1110.4 356.278c-.139-.073-.264.126-.125.2a3.462 3.462 0 0 1 1.407 5.031c-.083.128.131.244.214.117a3.688 3.688 0 0 0-1.5-5.347" class="cls-24" transform="translate(-972.847 -340.879)"/>
                <path id="패스_1801" d="M1132.7 385.832c-.022-.147-.261-.084-.239.061a2.082 2.082 0 0 1-.531 1.726c-.1.113.073.277.175.163a2.325 2.325 0 0 0 .595-1.95" class="cls-24" transform="translate(-991.847 -366.96)"/>
                <path id="패스_1802" d="M1040.034 252.631c-1.746-1.1-3.826-.435-5.489.461-.138.074-.013.274.125.2 1.587-.855 3.566-1.515 5.24-.461a.118.118 0 0 0 .125-.2" class="cls-24" transform="translate(-906.485 -248.709)"/>
                <path id="패스_1803" d="M651.339 1185.534a12.5 12.5 0 0 0-3.651 4.266c-.979 1.9-1.08 3.987-1.824 5.95a9.8 9.8 0 0 1-1.746 2.921c-.689.8-1.536 1.465-2.216 2.27a15.2 15.2 0 0 0-2.551 5.354c-.046.143.193.2.239.062a14.143 14.143 0 0 1 2.828-5.633c.661-.7 1.411-1.324 2.025-2.066a10.111 10.111 0 0 0 1.513-2.48c.831-1.949.889-4.087 1.822-6.013a12.3 12.3 0 0 1 3.736-4.467c.124-.093-.052-.255-.175-.163" class="cls-11" transform="translate(-560.237 -1074.36)"/>
                <path id="패스_1804" d="M554.1 951.071c-.167 1.715-.334 3.457-.623 5.176-3.064-.444-6.215-2.224-6.444-5.391-.011-.148-.258-.149-.247 0 .238 3.277 3.46 5.163 6.653 5.618a21.792 21.792 0 0 1-1.935 6.187 12.716 12.716 0 0 1-7.857 6.782c-4.117 1.106-8.49.072-12.539-.8l-6.6-1.421c-2.183-.47-4.365-1-6.586-1.288a17.211 17.211 0 0 0-10.284 1.626 22.86 22.86 0 0 0-7.388 6.272c-4.824 6.107-6.658 13.722-10.361 20.385-3.451 6.21-8.211 11.993-9.928 18.919a22.3 22.3 0 0 0-.461 2.465c-.019.147.228.146.247 0 .952-7.258 5.682-13.335 9.378-19.569a86.266 86.266 0 0 0 4.98-10.257 57.863 57.863 0 0 1 5.289-10.381 23.969 23.969 0 0 1 7.42-7.114 16.92 16.92 0 0 1 10.941-2.137c2.256.286 4.471.823 6.687 1.3l6.717 1.447c3.8.817 7.822 1.74 11.719.967a12.432 12.432 0 0 0 7.939-5.534c2.036-3.091 2.782-6.711 3.214-10.268.121-.994.218-1.99.315-2.985.014-.148-.233-.147-.248 0" class="cls-1" transform="translate(-420.168 -866.708)"/>
                <path id="패스_1805" d="M713.572 1118.453l-2.709-3.013c-.1-.114-.277.05-.175.163l2.709 3.013c.1.114.277-.05.175-.163" class="cls-11" transform="translate(-622.726 -1012.35)"/>
                <path id="패스_1806" d="M706.788 1140.486a13.04 13.04 0 0 0-2.581-2.5c-.124-.091-.3.071-.175.163a12.829 12.829 0 0 1 2.542 2.454c.093.119.308 0 .214-.117" class="cls-11" transform="translate(-616.883 -1032.302)"/>
                <path id="패스_1807" d="M1168.872 884.114a4.6 4.6 0 0 0-1.742-2.17c-.138-.075-.262.125-.125.2a4.434 4.434 0 0 1 1.653 2.087 8.658 8.658 0 0 1 .781 2.655c.019.146.266.147.247 0a8.985 8.985 0 0 0-.815-2.771" class="cls-14" transform="translate(-1022.556 -805.838)"/>
                <path id="패스_1808" d="M1182.338 889.956a8.139 8.139 0 0 0-1.65-2.433c-.108-.11-.282.054-.175.163a7.811 7.811 0 0 1 1.587 2.331c.06.136.3.076.239-.061" class="cls-14" transform="translate(-1034.416 -810.756)"/>
                <path id="패스_1809" d="M1165.467 880.226a24.874 24.874 0 0 0-8.369 6.645 31.332 31.332 0 0 0-5.843 8.9c-.634 1.653-1.119 3.353-1.833 4.979a36.244 36.244 0 0 1-2.366 4.4c-2.826 4.59-6.62 9.486-7.277 14.849q-.1-.059-.2-.121a20.591 20.591 0 0 1 2.087-6.382c1.61-3.229 3.815-6.155 5.66-9.264a30.74 30.74 0 0 0 2.445-5.013c.617-1.673 1.111-3.39 1.878-5.012a27.143 27.143 0 0 1 2.946-4.593c.976-1.3 2-2.574 3.1-3.782a24.041 24.041 0 0 1 7.57-5.773c.069.054.135.11.2.167" class="cls-6" transform="translate(-998.578 -804.186)"/>
                <path id="패스_1810" d="M853.828 1607.69c-.171-.228-.34-.459-.513-.686-.057-.074-.116-.185-.227-.185-.226 0-.2.18-.108.379a22.923 22.923 0 0 0 1.5 2.135 7.5 7.5 0 0 0 1.534 1.578c.086.024.2-.063.135-.164-.683-1.083-1.548-2.027-2.32-3.058" class="cls-14" transform="translate(-747.379 -1447.018)"/>
                <path id="패스_1811" d="M864.854 1600.69c-.171-.229-.34-.459-.513-.686-.057-.074-.116-.185-.227-.185-.226 0-.2.18-.108.379a22.936 22.936 0 0 0 1.5 2.135 7.5 7.5 0 0 0 1.534 1.578c.086.024.2-.062.135-.164-.683-1.084-1.548-2.027-2.32-3.058" class="cls-14" transform="translate(-757.041 -1440.826)"/>
                <path id="패스_1812" d="M879.323 1593.707c-.683-1.084-1.548-2.028-2.319-3.058-.171-.229-.34-.459-.514-.686-.057-.074-.116-.185-.227-.185-.226 0-.2.18-.108.379a23.043 23.043 0 0 0 1.5 2.135 7.509 7.509 0 0 0 1.534 1.578c.086.024.2-.063.135-.164" class="cls-14" transform="translate(-767.687 -1431.944)"/>
                <path id="패스_1813" d="M335.486 1609.588c.036-.085.1-.191.044-.278-.122-.178-.271-.06-.4.12a22.414 22.414 0 0 0-1.115 2.332 6.886 6.886 0 0 0-.594 2.057.122.122 0 0 0 .22.017c.608-1.122.991-2.311 1.5-3.474.114-.258.23-.515.341-.774" class="cls-14" transform="translate(-292.161 -1449.142)"/>
                <path id="패스_1814" d="M347.378 1614.8c-.122-.178-.271-.06-.4.12a22.393 22.393 0 0 0-1.115 2.331 6.888 6.888 0 0 0-.594 2.057.122.122 0 0 0 .22.017c.607-1.122.991-2.311 1.5-3.474.114-.258.23-.515.341-.774.036-.085.1-.191.044-.278" class="cls-14" transform="translate(-302.543 -1454.002)"/>
                <path id="패스_1815" d="M362.394 1619.6c-.121-.178-.271-.06-.4.12a22.345 22.345 0 0 0-1.115 2.331 6.886 6.886 0 0 0-.594 2.057.122.122 0 0 0 .22.017c.608-1.122.991-2.311 1.5-3.474.114-.258.23-.515.341-.774.036-.085.1-.191.044-.278" class="cls-14" transform="translate(-315.701 -1458.244)"/>
                <path id="패스_1816" d="M907.883 983.978a18.293 18.293 0 0 0-4.878-2.023.116.116 0 1 0-.066.223 18.057 18.057 0 0 1 4.819 2 .118.118 0 0 0 .125-.2" class="cls-1" transform="translate(-791.14 -894.311)"/>
                <path id="패스_1817" d="M1075.942 397.6a1.585 1.585 0 0 0-.089-.386c-.11-.307-.317-.631-.613-.682a.443.443 0 0 0-.332.089.98.98 0 0 0-.123.1c-.255.24-.471.636-.651.787a1.229 1.229 0 0 0-.3.443 1.64 1.64 0 0 1-.448.7l-.078.054c-.217.149-.6.4-.667.593-.109.291-.126.39.191.471a.943.943 0 0 0 .642-.119 3.405 3.405 0 0 0 .627-.43 1.612 1.612 0 0 0 .689-.076 1.891 1.891 0 0 0 .476-.237 1.554 1.554 0 0 0 .654-.941 1.263 1.263 0 0 0 .025-.367" class="cls-7" transform="translate(-939.855 -376.493)"/>
                <path id="패스_1818" d="M1080.367 390.45c-.3-.28-.748.072-.971.282-.541.509-.678 1.645-1.622 1.63a.116.116 0 1 0 .009.231 1.264 1.264 0 0 0 1.056-.575c.146-.2.935-1.8 1.36-1.4.113.105.281-.064.169-.169" class="cls-22" transform="translate(-944.317 -371.027)"/>
                <path id="패스_1819" d="M185.649 580.783a4.216 4.216 0 0 0-1.59-.128c-.081.2-.17.4-.258.591-.329.725-.692 1.437-.981 2.176a35.991 35.991 0 0 0-1.228 3.907 11.687 11.687 0 0 0 1.58-.1 1.147 1.147 0 0 0 .666-.365 1.478 1.478 0 0 0 .215-.529l.212-.647q.447-1.377.9-2.753c.153-.468.308-.936.457-1.4.088-.276.181-.576.032-.753" class="cls-8" transform="translate(-159.122 -539.355)"/>
                <path id="패스_1820" d="M185.95 580.255q-1.179 3.328-2.133 6.717l-.126-.007q.952-3.385 2.129-6.711h.13" class="cls-14" transform="translate(-160.962 -539.004)"/>
            </g>
        </g>
    </g>
</svg>
