<svg xmlns="http://www.w3.org/2000/svg" width="199.528" height="63.564" viewBox="0 0 199.528 63.564">
    <defs>
        <style>
            .cls-1{fill:#ffc2c2}.cls-3{letter-spacing:-.029em}
        </style>
    </defs>
    <g id="그룹_338" transform="translate(-87.995 -11.248)">
        <path id="패스_1" d="M57.178 19.011h-9.844l2.742-15.544h3.885l-2.137 12.176h5.959z" class="cls-1" transform="translate(78.026 10.1)"/>
        <path id="패스_2" d="M60.044 16.507a1.774 1.774 0 0 0 .884-.216l-.108 2.441a3.52 3.52 0 0 1-2.31.841q-1.965 0-2.548-.906a2.346 2.346 0 0 1-.388-1.285 7.329 7.329 0 0 1 .087-1.2l1.294-7.3h3.67l-1.208 6.8a1.432 1.432 0 0 0-.021.238c0 .39.215.583.648.583M57.388 5.368A2.817 2.817 0 0 1 58 3.349a2.548 2.548 0 0 1 1.91-.637q1.814 0 1.814 1.6a2.745 2.745 0 0 1-.616 1.986 2.609 2.609 0 0 1-1.933.628q-1.792 0-1.791-1.555" class="cls-1" transform="translate(80.86 9.841)"/>
        <path id="패스_3" d="M70.947 7.306a7.828 7.828 0 0 1 .3 2.407 11.2 11.2 0 0 1-.367 2.884 10.134 10.134 0 0 1-1.111 2.622 5.668 5.668 0 0 1-2.069 2.008 6 6 0 0 1-3.055.767q-2.7 0-3.735-1.1a3.168 3.168 0 0 1-.691-2.243 8.746 8.746 0 0 1 .173-1.621L61.4 7.306h3.67l-1.011 5.744a3 3 0 0 0-.065.583q0 1.23 1.274 1.23 2.246 0 2.244-4.705a19.145 19.145 0 0 0-.172-2.442l-.064-.41z" class="cls-1" transform="translate(82.457 11.421)"/>
        <path id="패스_4" d="M73.237 18.076q-4.489 0-4.49-3.109a5.425 5.425 0 0 1 .086-.929l.454-2.677A4.769 4.769 0 0 1 71.2 8.178a6.851 6.851 0 0 1 4.092-1.113q4.338 0 4.34 3.282a6.818 6.818 0 0 1-.087 1.036l-.259 1.533H72.7l-.087.5a2.975 2.975 0 0 0-.042.476q0 1.187 1.4 1.187a1.29 1.29 0 0 0 .884-.324 1.238 1.238 0 0 0 .434-.755l3.583.043q-.712 4.038-5.635 4.037m2.591-6.48a2.971 2.971 0 0 0 .086-.68.981.981 0 0 0-.281-.637 1.122 1.122 0 0 0-.9-.324 1.744 1.744 0 0 0-1.122.41 2.159 2.159 0 0 0-.7 1.231z" class="cls-1" transform="translate(85.39 11.338)"/>
        <path id="패스_5" d="M45.961 33.156H31.7l-2.464 14.152h-9.7l6.808-38.6h26.908l-1.5 8.362H34.489l-1.341 7.718h14.26z" class="cls-1" transform="translate(68.464 11.904)"/>
        <path id="패스_6" d="M66.774 35.952a1.244 1.244 0 0 0 1.421 1.394 4.851 4.851 0 0 0 2.385-.536l-.267 6.058a8.941 8.941 0 0 1-5.79 2.09q-5.9 0-6.54-4.288a8.717 8.717 0 0 1-7.883 4.288q-8.793 0-8.792-7.56a16.694 16.694 0 0 1 .269-2.84l1.123-6.271a13.333 13.333 0 0 1 3.94-7.694 11.334 11.334 0 0 1 8.041-2.867q4.957 0 6.728 2.3l.269-1.607h8.152l-3 16.886a3.854 3.854 0 0 0-.054.644m-15.869-2.57a6.421 6.421 0 0 0-.108 1.34 2.448 2.448 0 0 0 .805 1.689 3.66 3.66 0 0 0 2.707.831 4.355 4.355 0 0 0 3.3-1.5l1.609-9.006q-.591-1.339-2.787-1.34-4.129 0-4.825 3.967z" class="cls-1" transform="translate(75.954 15.005)"/>
        <path id="패스_7" d="M75.278 44.987q-11.15 0-11.151-7.72a13.415 13.415 0 0 1 .215-2.3l1.125-6.647a11.557 11.557 0 0 1 4.692-7.882 16.633 16.633 0 0 1 9.73-2.787q11.418 0 11.418 7.935a10.944 10.944 0 0 1-.4 3.083 5.19 5.19 0 0 1-.831 1.848l-.43.538h-9.115a3.6 3.6 0 0 0 1.34-2.787 2.559 2.559 0 0 0-2.895-2.9 4.479 4.479 0 0 0-2.947 1.019 5.007 5.007 0 0 0-1.609 3.11l-.7 3.914a5.21 5.21 0 0 0-.106 1.019q0 2.842 3.537 2.841a3.3 3.3 0 0 0 2.118-.751 2.773 2.773 0 0 0 1.1-1.661l8.9.108q-1.769 10.02-13.991 10.02" class="cls-1" transform="translate(83.801 14.977)"/>
        <path id="패스_8" d="M96.458 47.072q-6.219 0-8.953-2.787a7.39 7.39 0 0 1-2.037-5.47 14.626 14.626 0 0 1 .215-2.411l3.645-20.746 9.811-4.075-1.555 8.953h14.8l-1.34 7.558h-14.8l-1.074 6.059a8.97 8.97 0 0 0-.214 1.822q0 3.377 3.216 3.377a3.534 3.534 0 0 0 2.868-1.447 8.484 8.484 0 0 0 1.582-3.86h8.9q-2.25 13.027-15.063 13.027" class="cls-1" transform="translate(91.141 12.892)"/>
        <path id="패스_9" d="M121.908 17.686q5.79 0 8.738 2.52a6.9 6.9 0 0 1 2.3 5.521 13.688 13.688 0 0 1-.267 2.574l-1.126 6.272q-1.018 5.681-4.744 8.042t-9.945 2.357q-6.219 0-9.112-2.357a6.485 6.485 0 0 1-2.145-5.309 15.654 15.654 0 0 1 .267-2.734L107 28.3q1.877-10.614 14.9-10.614m1.447 11.687a7.2 7.2 0 0 0 .116-1.373 3.375 3.375 0 0 0-.7-1.849 2.751 2.751 0 0 0-2.439-1.017 4.021 4.021 0 0 0-2.924 1.156 5.41 5.41 0 0 0-1.5 3.083l-.7 4.02a7.1 7.1 0 0 0-.108 1.368 3.139 3.139 0 0 0 .7 1.8 2.814 2.814 0 0 0 2.439.964 3.922 3.922 0 0 0 2.923-1.205 5.543 5.543 0 0 0 1.5-2.922z" class="cls-1" transform="translate(98.069 14.991)"/>
        <path id="패스_10" d="M153.3 23.9a10.414 10.414 0 0 1-.616 3.539 10.492 10.492 0 0 1-1.207 2.52l-.59.75H142.8a3.988 3.988 0 0 0 1.34-3.056 2.143 2.143 0 0 0-.617-1.582 2.287 2.287 0 0 0-1.688-.616 3.874 3.874 0 0 0-3.164 1.824l-3 16.939h-9.112l4.556-25.785h8.471l-.644 3.591q3.056-4.342 7.4-4.342a7.319 7.319 0 0 1 5.228 1.661 6 6 0 0 1 1.73 4.557" class="cls-1" transform="translate(105.272 14.991)"/>
        <path id="패스_11" d="M156.891 32.5a11.672 11.672 0 0 0-.161 1.929q0 2.574 2.895 2.574a5.135 5.135 0 0 0 3.914-1.661l3-17.1h9.115l-4.719 26.643a18.7 18.7 0 0 1-5.386 10.776 13.636 13.636 0 0 1-9.622 3.966q-5.417 0-7.8-1.982a6.437 6.437 0 0 1-2.387-5.2q0-4.556 5.63-8.094a4.931 4.931 0 0 1-3.86-3.055 8.218 8.218 0 0 1-.482-2.9 20.358 20.358 0 0 1 .269-3.27l3-16.886h9.113zm.267 19.459q3.485 0 4.557-6.326l.536-3.11q-7.453 3.485-7.452 7.023a2.468 2.468 0 0 0 .617 1.743 2.246 2.246 0 0 0 1.742.669" class="cls-1" transform="translate(111.87 15.183)"/>
        <path id="패스_12" d="M97.212 4.339a8.753 8.753 0 0 0-6.771 3.2L92 9.087a6.569 6.569 0 0 1 10.433 0l1.554-1.544a8.751 8.751 0 0 0-6.771-3.2" class="cls-1" transform="translate(92.851 10.4)"/>
        <path id="패스_13" d="M97.848 1.741a12.225 12.225 0 0 0-9.256 4.228l1.493 1.482a10.143 10.143 0 0 1 15.526 0l1.489-1.482a12.228 12.228 0 0 0-9.257-4.228" class="cls-1" transform="translate(92.215 9.507)"/>
        <path id="패스_14" d="M96.558 6.994a5.191 5.191 0 0 0-4.217 2.172l1.572 1.562a3.022 3.022 0 0 1 5.291 0l1.572-1.562a5.2 5.2 0 0 0-4.219-2.172" class="cls-1" transform="translate(93.505 11.314)"/>
        <text id="Live_Commerce" fill="#ffc2c2" font-family="CenturyGothic, Century Gothic" font-size="6px" transform="translate(186.658 69.962)">
            <tspan x="0" y="0" class="cls-3">L</tspan><tspan y="0" letter-spacing="-0.03em">iv</tspan><tspan y="0" class="cls-3">e Commerc</tspan><tspan y="0">e</tspan>
        </text>
    </g>
</svg>
