<svg xmlns="http://www.w3.org/2000/svg" width="150.446" height="22.184" viewBox="0 0 150.446 22.184">
    <defs>
        <style>
            .cls-1{fill:#ffc2c2}
        </style>
    </defs>
    <g id="그룹_3522" transform="translate(-9.483 -9.251)">
        <path id="패스_3150" d="M17.242 29.923l2.9-5.14h5.338a12.5 12.5 0 0 1 1.309.06q-.325-.538-.753-1.36t-.822-1.539l-2.779-5.29-7.278 13.269H9.483l9.936-18.08a6.345 6.345 0 0 1 1.227-1.554 2.9 2.9 0 0 1 3.694-.045 5.635 5.635 0 0 1 1.239 1.6l9.681 18.08z" class="cls-1" transform="translate(0 -0.281)"/>
        <path id="패스_3151" d="M140.488 17.094a9.3 9.3 0 0 0-1.935-3.108 8.648 8.648 0 0 0-2.953-2.018 9.634 9.634 0 0 0-3.753-.717h-7.318l-3.056 5.2h10.374a4.367 4.367 0 0 1 1.807.375 4.714 4.714 0 0 1 1.46 1.016 4.511 4.511 0 0 1 .972 1.538 5.66 5.66 0 0 1 0 3.9 4.545 4.545 0 0 1-.95 1.508 4.143 4.143 0 0 1-1.446.972 4.847 4.847 0 0 1-1.843.343h-5.557v-7.321h-4.817v1.371l5.939 11.091h4.435a8.922 8.922 0 0 0 6.682-2.913 9.98 9.98 0 0 0 1.946-3.228 11.377 11.377 0 0 0 .705-4.05 10.966 10.966 0 0 0-.692-3.959z" class="cls-1" transform="translate(-89.678 -1.602)"/>
        <path id="패스_3152" d="M237.355 15.7a6.528 6.528 0 0 0-1.482-2.361 6.759 6.759 0 0 0-2.385-1.538 8.79 8.79 0 0 0-3.22-.554h-9.726l-2.367 3.877-.807 1.323h13.34a2.338 2.338 0 0 1 1.726.614 2.241 2.241 0 0 1 .614 1.658 2.145 2.145 0 0 1-2.339 2.3h-11.145v.03a13.385 13.385 0 0 1-.833 4.754 12.487 12.487 0 0 1-1.363 2.632v2.805h4.772v-5.11h8.1a9 9 0 0 0 3.22-.538 6.912 6.912 0 0 0 2.4-1.494 6.191 6.191 0 0 0 1.494-2.315 8.565 8.565 0 0 0 .51-3.034 8.686 8.686 0 0 0-.509-3.049z" class="cls-1" transform="translate(-166.468 -1.602)"/>
        <path id="패스_3153" d="M332.921 11.251v11.266a5.864 5.864 0 0 1-.243 1.793 2.662 2.662 0 0 1-.8 1.225 3.373 3.373 0 0 1-1.482.687 10.758 10.758 0 0 1-2.317.209 18.883 18.883 0 0 1-3.01-.193 4.235 4.235 0 0 1-1.8-.657 2.314 2.314 0 0 1-.869-1.211 6.377 6.377 0 0 1-.231-1.853V11.251H317.4v1.136a8.627 8.627 0 0 1 1.526 2.626 10.738 10.738 0 0 1 .634 3.74 10.592 10.592 0 0 1-.636 3.732 8.3 8.3 0 0 1-1.339 2.355 9.667 9.667 0 0 0 .428 1.64 6.706 6.706 0 0 0 1.923 2.823 8.515 8.515 0 0 0 3.323 1.7 17.932 17.932 0 0 0 4.817.568q9.659 0 9.659-9.055V11.251z" class="cls-1" transform="translate(-246.573 -1.602)"/>
        <path id="패스_3154" d="M431.663 12.35a3.971 3.971 0 0 0-1.054-2.076 2.355 2.355 0 0 0-1.634-.673 2.26 2.26 0 0 0-1.586.584 4.457 4.457 0 0 0-1.054 1.538l-2.478 5.677-.892 2.032q-.381.867-.672 1.568-.29.7-.508 1.255t-.407 1.09l-.428-1.106c-.147-.379-.317-.8-.51-1.255s-.417-.98-.672-1.568l-.891-2.048-2.477-5.645a4.283 4.283 0 0 0-1.054-1.554 2.267 2.267 0 0 0-1.564-.568 2.392 2.392 0 0 0-1.644.673 3.921 3.921 0 0 0-1.066 2.076l-.165.725V21.2c0 3.915-1.249 6.863-3.624 8.726h4.484l1.459-6.963q.347-1.7.6-3t.441-2.5l.383 1.046c.132.359.285.753.464 1.181s.372.91.59 1.448.462 1.146.741 1.823l2.084 5.05a5.785 5.785 0 0 0 .614 1.181 3.017 3.017 0 0 0 .638.671 1.74 1.74 0 0 0 .7.315 4.485 4.485 0 0 0 1.62 0 1.74 1.74 0 0 0 .7-.315 3.018 3.018 0 0 0 .638-.671 5.778 5.778 0 0 0 .613-1.181l2.084-5.021q.789-1.942 1.275-3.212t.879-2.317q.185 1.225.44 2.51t.626 2.988l1.458 6.963h4.771z" class="cls-1" transform="translate(-318.546 -0.281)"/>
        <path id="패스_3155" d="M559.256 24.639q-1.506-1.584-2.457-2.48c-.631-.6-1.173-1.1-1.62-1.494q.371-.3.751-.628t.847-.747q.463-.418 1.054-.986t1.355-1.315l5.929-5.738h-6.949l-4.466 4.871q-1.066 1.136-1.725 1.929t-1.124 1.329q.045-.777.07-1.674t.022-1.823v-4.632h-4.817v9.78l2.274 10.213h2.544v-5.738q0-.717-.022-1.448t-.048-1.421q.395.508 1.032 1.255t1.841 2.092l4.678 5.26h7.25z" class="cls-1" transform="translate(-429.725 -1.602)"/>
        <path id="패스_3156" d="M644.746 20.251l-4.252 4.114v11.02l4.72 4.859h.073V20.251z" class="cls-1" transform="translate(-505.295 -8.809)"/>
        <path id="패스_3157" d="M644.746 9.251l-4.252 4.114V9.251z" class="cls-1" transform="translate(-505.295)"/>
        <path id="패스_3158" d="M687.973 30.252a2.3 2.3 0 0 1-.915-.194 2.931 2.931 0 0 1-1.008-.882l-9.5-11v11.747h-4.35V13.338a5.828 5.828 0 0 1 .22-1.7 3.469 3.469 0 0 1 .58-1.169 2.206 2.206 0 0 1 .834-.657 2.42 2.42 0 0 1 .984-.209 2.248 2.248 0 0 1 .892.194 3.124 3.124 0 0 1 1.03.881l9.5 11V9.931h4.377v16.556a5.859 5.859 0 0 1-.22 1.7 3.681 3.681 0 0 1-.579 1.18 2.132 2.132 0 0 1-.845.672 2.505 2.505 0 0 1-1 .213z" class="cls-1" transform="translate(-530.685 -0.281)"/>
    </g>
</svg>
