<svg xmlns="http://www.w3.org/2000/svg" width="480" height="111" viewBox="0 0 480 111">
    <defs>
        <clipPath id="clip-path">
            <path id="사각형_991" fill="#fff1f1" d="M0 0H480V111H0z" transform="translate(-3983.601 2685.554)"/>
        </clipPath>
        <clipPath id="clip-path-2">
            <path id="사각형_984" d="M0 0H190.965V172.447H0z" class="cls-2"/>
        </clipPath>
        <clipPath id="clip-path-3">
            <path id="패스_1644" d="M282.673 115.5a36.5 36.5 0 0 1-7.287-.634c-2.211 1.1-12.342 6.747-12.342 6.747s11.471 32.159 11.471 36.009c0 4.945-2.461 13.071-4.094 19.028 3.48.645 15.869.835 20.748.7a121.809 121.809 0 0 0 13.495-1.055c-1.053-11.851-2.27-21.7-3.714-26.088 0 0 3.828-6.728 3.733-11.864s-2.454-9.413-2.305-12.939c.227-5.387.075-5.574.075-5.574-1.074-.556-8.224-4.232-11.225-5.776-2.388 1.643-5.8 1.359-8.554 1.442" class="cls-2" transform="translate(-263.044 -114.06)"/>
        </clipPath>
        <clipPath id="clip-path-5">
            <path id="사각형_985" d="M0 0H27.154V11.054H0z" class="cls-2"/>
        </clipPath>
        <style>
            .cls-2{fill:none}.cls-5{clip-path:url(#clip-path-2)}.cls-6{fill:#fff}.cls-7{fill:#231f20}.cls-8{fill:#606060}.cls-10{fill:#f27070}.cls-11{fill:#d1d3d4}.cls-13{fill:#6592bf}.cls-16{fill:#e73828}.cls-18{fill:#e68052}.cls-19{fill:#fab57a}.cls-20{fill:#f1f2f2}.cls-25{fill:#e78052}.cls-28{fill:#ffa4a4}
        </style>
    </defs>
    <g id="그룹_3519" transform="translate(0 -360)">
        <path id="사각형_977" fill="#ffd9d9" d="M0 0H480V83H0z" transform="translate(0 388)"/>
        <g id="마스크_그룹_5" clip-path="url(#clip-path)" transform="translate(3983.602 -2325.554)">
            <g id="그룹_801" transform="translate(-3717.012 2699.858)">
                <g id="그룹_795" class="cls-5" transform="translate(0 0)">
                    <path id="패스_1580" d="M212.977 192.812a3.8 3.8 0 0 1-3.661-3.914V35.75a3.8 3.8 0 0 1 3.661-3.914h68.455a3.8 3.8 0 0 1 3.661 3.914V188.9a3.8 3.8 0 0 1-3.661 3.914z" class="cls-6" transform="translate(-141.92 -21.585)"/>
                    <path id="패스_1581" d="M278.862 30.487a2.577 2.577 0 0 1 2.441 2.694v153.147a2.576 2.576 0 0 1-2.441 2.694h-68.455a2.576 2.576 0 0 1-2.441-2.694V33.181a2.577 2.577 0 0 1 2.441-2.694zm0-2.441h-68.455a5.019 5.019 0 0 0-4.881 5.135v153.147a5.018 5.018 0 0 0 4.881 5.134h68.455a5.018 5.018 0 0 0 4.881-5.134V33.181a5.019 5.019 0 0 0-4.881-5.135" class="cls-7" transform="translate(-139.35 -19.016)"/>
                    <path id="패스_1582" d="M212.977 192.812a3.8 3.8 0 0 1-3.661-3.914V35.75a3.8 3.8 0 0 1 3.661-3.914h68.455a3.8 3.8 0 0 1 3.661 3.914V188.9a3.8 3.8 0 0 1-3.661 3.914z" class="cls-6" transform="translate(-141.92 -21.585)"/>
                    <path id="패스_1583" d="M278.862 30.487a2.577 2.577 0 0 1 2.441 2.694v153.147a2.576 2.576 0 0 1-2.441 2.694h-68.455a2.576 2.576 0 0 1-2.441-2.694V33.181a2.577 2.577 0 0 1 2.441-2.694zm0-2.441h-68.455a5.019 5.019 0 0 0-4.881 5.135v153.147a5.018 5.018 0 0 0 4.881 5.134h68.455a5.018 5.018 0 0 0 4.881-5.134V33.181a5.019 5.019 0 0 0-4.881-5.135" class="cls-8" transform="translate(-139.35 -19.016)"/>
                    <path id="패스_1584" fill="#ccc" d="M323.6 101.86h-41.178v-4.3H323.6zm-40.477-.7H322.9v-2.9h-39.778z" transform="translate(-191.487 -66.144)"/>
                    <path id="패스_1585" d="M228.823 103.207h-4a2.057 2.057 0 0 1-2.057-2.057v-4a2.057 2.057 0 0 1 2.057-2.057h4a2.057 2.057 0 0 1 2.057 2.057v4a2.057 2.057 0 0 1-2.057 2.057" class="cls-10" transform="translate(-151.038 -64.474)"/>
                    <path id="패스_1586" d="M389.661 283.824h-12.809a2.683 2.683 0 1 1 0-5.367h12.808a2.683 2.683 0 0 1 0 5.367" class="cls-10" transform="translate(-253.693 -188.798)"/>
                    <path id="패스_1587" d="M245.539 279.808h-21.5a.676.676 0 0 1 0-1.351h21.5a.676.676 0 1 1 0 1.351" class="cls-11" transform="translate(-151.443 -188.798)"/>
                    <path id="패스_1588" d="M245.539 289.3h-21.5a.676.676 0 0 1 0-1.351h21.5a.676.676 0 1 1 0 1.351" class="cls-11" transform="translate(-151.443 -195.231)"/>
                    <path id="사각형_978" fill="#2bb673" d="M0 0H14.266V11.004H0z" transform="translate(107.166 102.357)"/>
                    <path id="패스_1589" d="M396.6 321.833h-13.78c-.239 0-.433-.26-.433-.581s.194-.58.433-.58h13.78c.239 0 .433.259.433.58s-.194.581-.433.581" class="cls-11" transform="translate(-259.265 -217.421)"/>
                    <path id="패스_1590" d="M396.6 329.981h-13.78c-.239 0-.433-.26-.433-.581s.194-.58.433-.58h13.78c.239 0 .433.26.433.58s-.194.581-.433.581" class="cls-11" transform="translate(-259.265 -222.945)"/>
                    <path id="패스_1591" d="M396.6 338.13h-13.78c-.239 0-.433-.26-.433-.581s.194-.58.433-.58h13.78c.239 0 .433.26.433.58s-.194.581-.433.581" class="cls-11" transform="translate(-259.265 -228.47)"/>
                    <path id="패스_1592" d="M396.6 346.278h-13.78c-.239 0-.433-.26-.433-.581s.194-.58.433-.58h13.78c.239 0 .433.26.433.58s-.194.581-.433.581" class="cls-11" transform="translate(-259.265 -233.995)"/>
                    <path id="사각형_979" d="M0 0H14.266V11.003H0z" class="cls-13" transform="translate(107.166 116.058)"/>
                    <path id="패스_1593" d="M396.6 364.387h-13.78c-.239 0-.433-.26-.433-.581s.194-.58.433-.58h13.78c.239 0 .433.26.433.58s-.194.581-.433.581" class="cls-11" transform="translate(-259.265 -246.273)"/>
                    <path id="패스_1594" d="M396.6 372.535h-13.78c-.239 0-.433-.26-.433-.581s.194-.58.433-.58h13.78c.239 0 .433.259.433.58s-.194.581-.433.581" class="cls-11" transform="translate(-259.265 -251.798)"/>
                    <path id="패스_1595" d="M396.6 380.684h-13.78c-.239 0-.433-.26-.433-.58s.194-.58.433-.58h13.78c.239 0 .433.26.433.58s-.194.58-.433.58" class="cls-11" transform="translate(-259.265 -257.323)"/>
                    <path id="패스_1596" d="M396.6 388.832h-13.78c-.239 0-.433-.26-.433-.581s.194-.58.433-.58h13.78c.239 0 .433.259.433.58s-.194.581-.433.581" class="cls-11" transform="translate(-259.265 -262.847)"/>
                    <path id="사각형_980" fill="#fbb040" d="M0 0H14.266V11.003H0z" transform="translate(107.166 129.76)"/>
                    <path id="패스_1597" d="M396.6 406.939h-13.78c-.239 0-.433-.26-.433-.581s.194-.58.433-.58h13.78c.239 0 .433.26.433.58s-.194.581-.433.581" class="cls-11" transform="translate(-259.265 -275.125)"/>
                    <path id="패스_1598" d="M396.6 415.088h-13.78c-.239 0-.433-.26-.433-.58s.194-.58.433-.58h13.78c.239 0 .433.26.433.58s-.194.58-.433.58" class="cls-11" transform="translate(-259.265 -280.65)"/>
                    <path id="패스_1599" d="M396.6 423.237h-13.78c-.239 0-.433-.26-.433-.58s.194-.58.433-.58h13.78c.239 0 .433.26.433.58s-.194.58-.433.58" class="cls-11" transform="translate(-259.265 -286.174)"/>
                    <path id="패스_1600" d="M396.6 431.386h-13.78c-.239 0-.433-.26-.433-.581s.194-.58.433-.58h13.78c.239 0 .433.259.433.58s-.194.581-.433.581" class="cls-11" transform="translate(-259.265 -291.7)"/>
                    <path id="사각형_981" fill="#fd7665" d="M0 0H14.266V11.004H0z" transform="translate(107.166 143.461)"/>
                    <path id="패스_1601" d="M396.6 449.493h-13.78c-.239 0-.433-.26-.433-.581s.194-.58.433-.58h13.78c.239 0 .433.26.433.58s-.194.581-.433.581" class="cls-11" transform="translate(-259.265 -303.976)"/>
                    <path id="패스_1602" d="M396.6 457.642h-13.78c-.239 0-.433-.26-.433-.581s.194-.58.433-.58h13.78c.239 0 .433.26.433.58s-.194.581-.433.581" class="cls-11" transform="translate(-259.265 -309.502)"/>
                    <path id="패스_1603" d="M396.6 465.79h-13.78c-.239 0-.433-.26-.433-.581s.194-.58.433-.58h13.78c.239 0 .433.26.433.58s-.194.581-.433.581" class="cls-11" transform="translate(-259.265 -315.026)"/>
                    <path id="패스_1604" d="M396.6 473.938h-13.78c-.239 0-.433-.26-.433-.581s.194-.58.433-.58h13.78c.239 0 .433.26.433.58s-.194.581-.433.581" class="cls-11" transform="translate(-259.265 -320.55)"/>
                    <path id="패스_1605" d="M271.832 321.12h-19.143a.6.6 0 1 1 0-1.2h19.143a.6.6 0 1 1 0 1.2" class="cls-11" transform="translate(-170.919 -216.909)"/>
                    <path id="패스_1606" d="M271.832 329.567h-19.143a.6.6 0 1 1 0-1.2h19.143a.6.6 0 1 1 0 1.2" class="cls-11" transform="translate(-170.919 -222.636)"/>
                    <path id="패스_1607" d="M271.832 338.014h-19.143a.6.6 0 1 1 0-1.2h19.143a.6.6 0 1 1 0 1.2" class="cls-11" transform="translate(-170.919 -228.363)"/>
                    <path id="패스_1608" d="M271.832 346.461h-19.143a.6.6 0 1 1 0-1.2h19.143a.6.6 0 1 1 0 1.2" class="cls-11" transform="translate(-170.919 -234.091)"/>
                    <path id="패스_1609" d="M230.627 324.9H227.6a1.5 1.5 0 0 1-1.5-1.5v-3.02a1.5 1.5 0 0 1 1.5-1.5h3.025a1.5 1.5 0 0 1 1.5 1.5v3.025a1.5 1.5 0 0 1-1.5 1.5" class="cls-11" transform="translate(-153.304 -216.209)"/>
                    <path id="패스_1610" d="M264.439 370.779h-12.8a.6.6 0 1 1 0-1.2h12.8a.6.6 0 1 1 0 1.2" class="cls-11" transform="translate(-170.209 -250.579)"/>
                    <path id="패스_1611" d="M270.786 362.441h-19.144a.6.6 0 0 1 0-1.2h19.143a.6.6 0 1 1 0 1.2" class="cls-11" transform="translate(-170.21 -244.925)"/>
                    <path id="패스_1612" d="M232.97 362.606a2.191 2.191 0 1 1-2.191-2.191 2.191 2.191 0 0 1 2.191 2.191" class="cls-11" transform="translate(-154.986 -244.367)"/>
                    <path id="패스_1613" d="M268.1 396.172h-16.458a.6.6 0 0 1 0-1.2H268.1a.6.6 0 1 1 0 1.2" class="cls-11" transform="translate(-170.21 -267.795)"/>
                    <path id="패스_1614" d="M270.786 387.834h-19.144a.6.6 0 0 1 0-1.2h19.143a.6.6 0 1 1 0 1.2" class="cls-11" transform="translate(-170.21 -262.142)"/>
                    <path id="패스_1615" d="M232.97 388a2.191 2.191 0 1 1-2.191-2.191A2.191 2.191 0 0 1 232.97 388" class="cls-11" transform="translate(-154.986 -261.584)"/>
                    <path id="패스_1616" d="M264.439 421.564h-12.8a.6.6 0 1 1 0-1.2h12.8a.6.6 0 1 1 0 1.2" class="cls-11" transform="translate(-170.209 -285.012)"/>
                    <path id="패스_1617" d="M270.786 413.226h-19.144a.6.6 0 0 1 0-1.2h19.143a.6.6 0 1 1 0 1.2" class="cls-11" transform="translate(-170.21 -279.358)"/>
                    <path id="패스_1618" d="M232.97 413.392a2.191 2.191 0 1 1-2.191-2.191 2.191 2.191 0 0 1 2.191 2.191" class="cls-11" transform="translate(-154.986 -278.801)"/>
                    <path id="패스_1619" d="M270.786 446.957h-19.144a.6.6 0 0 1 0-1.2h19.143a.6.6 0 0 1 0 1.2" class="cls-11" transform="translate(-170.21 -302.228)"/>
                    <path id="패스_1620" d="M270.786 438.619h-19.144a.6.6 0 0 1 0-1.2h19.143a.6.6 0 1 1 0 1.2" class="cls-11" transform="translate(-170.21 -296.575)"/>
                    <path id="패스_1621" d="M232.97 438.784a2.191 2.191 0 1 1-2.191-2.191 2.191 2.191 0 0 1 2.191 2.191" class="cls-11" transform="translate(-154.986 -296.017)"/>
                    <path id="패스_1622" d="M266.881 472.348h-15.239a.6.6 0 0 1 0-1.2h15.238a.6.6 0 1 1 0 1.2" class="cls-11" transform="translate(-170.21 -319.444)"/>
                    <path id="패스_1623" d="M270.786 464.011h-19.144a.6.6 0 0 1 0-1.2h19.143a.6.6 0 1 1 0 1.2" class="cls-11" transform="translate(-170.21 -313.791)"/>
                    <path id="패스_1624" d="M232.97 464.177a2.191 2.191 0 1 1-2.191-2.191 2.191 2.191 0 0 1 2.191 2.191" class="cls-11" transform="translate(-154.986 -313.234)"/>
                    <path id="패스_1625" d="M301.456 39.71h-33.788c-1.1 0-3.254-5.979-3.254-5.979h40.3s-2.152 5.979-3.254 5.979" class="cls-8" transform="translate(-179.277 -22.87)"/>
                    <path id="패스_1626" d="M323.87 494.735a3.644 3.644 0 1 1-3.644-3.643 3.643 3.643 0 0 1 3.644 3.643" class="cls-11" transform="translate(-214.648 -332.968)"/>
                    <path id="사각형_982" d="M0 0H7.538V7.538H0z" class="cls-11" transform="translate(81.164 158.124)"/>
                    <path id="패스_1627" d="M382.134 494.766l6.365-3.675v7.35z" class="cls-11" transform="translate(-259.093 -332.968)"/>
                    <path id="사각형_983" d="M0 0H67.117V46.26H0z" class="cls-13" transform="translate(71.727 41.098)"/>
                    <path id="패스_1628" d="M537.285 85.562a11.1 11.1 0 0 1-1.04-.431 11.61 11.61 0 0 1-7.307-.149c-2.087-.875-3.3-2.855-4.988-4.255a10.593 10.593 0 0 0-6.706-2.511 64.947 64.947 0 0 0 2.379 13.979l1.69-.265s-1.688-5.185.672-6.758 7.672 5.449 7.672 5.449L541.2 88.81s2.444-1.037-3.918-3.248" class="cls-16" transform="translate(-350.699 -53.032)"/>
                    <path id="패스_1629" fill="#b2151b" d="M538.866 101.015c-2.292-.209-3.961-1.521-5.671-2.946-1.626-1.355-3.673-3.18-5.978-2.721-1.861.371-2.52 2.735-2.68 4.349a7.412 7.412 0 0 0 .551 3.978l1.134-.178s-1.688-5.185.672-6.758 7.672 5.449 7.672 5.449l11.546-1.811s.662-.282.4-.865c-2.515.727-4.994 1.746-7.644 1.5" transform="translate(-355.609 -64.598)"/>
                    <path id="패스_1630" d="M278.54 19.568c.006 2.255-1.645-4.258-3.308-2.735s-3.347 11.2-5.188 12.506a2.639 2.639 0 0 0-.915.924 2.4 2.4 0 0 0-.005 1.671c.4 1.441 1.152 2.759 1.585 4.19a4.854 4.854 0 0 1-.407 4.3c-.831 1.1-2.257 1.529-3.459 2.208s-2.33 2.015-1.865 3.315c.345.964 1.414 1.453 2.013 2.283a3.733 3.733 0 0 1 .219 3.505 13.644 13.644 0 0 1-1.977 3.07c-.51.677-.989 1.673-.413 2.3.469.507 1.291.355 1.953.161q9.035-2.651 17.862-5.954a13.648 13.648 0 0 0 4.961-2.72 9.415 9.415 0 0 0 2.49-6.549 27.959 27.959 0 0 0-1.079-7.082 42.477 42.477 0 0 0-3.146-9.605 14.288 14.288 0 0 0-7.071-6.952z" class="cls-7" transform="translate(-179.373 -11.255)"/>
                    <path id="패스_1631" d="M326.393 38.43c-.005 1.991 2.442-2.957 3.911-1.613s1.965 9.09 3.59 10.24a2.326 2.326 0 0 1 .808.816 2.119 2.119 0 0 1 0 1.475c-.35 1.272-1.018 2.436-1.4 3.7a4.287 4.287 0 0 0 .359 3.794c.734.973 1.993 1.35 3.054 1.95s2.057 1.779 1.647 2.927c-.3.851-1.248 1.283-1.777 2.016a3.294 3.294 0 0 0-.193 3.095 12.029 12.029 0 0 0 1.745 2.711c.45.6.873 1.477.365 2.027-.414.447-1.139.313-1.724.141q-7.978-2.34-15.771-5.257a12.046 12.046 0 0 1-4.38-2.4 8.312 8.312 0 0 1-2.2-5.782 24.676 24.676 0 0 1 .952-6.253 37.53 37.53 0 0 1 2.778-8.481 12.62 12.62 0 0 1 6.244-6.138z" class="cls-7" transform="translate(-213.189 -24.803)"/>
                    <path id="패스_1632" d="M543.1 113.554l-9.287 3.9-6.729.025 2.653-1.771 5.23-.311s6.372-4.006 8.133-1.842" class="cls-18" transform="translate(-357.375 -76.556)"/>
                    <path id="패스_1633" d="M414.536 117.223s2.221-4.813 4.224-6.1 3.673-.986 4.641-1.5 2.829-2.656 4.479-2.179-.784 2.171-.784 2.171l-2.19 1.688 3.3.05s4.333-3.277 5.519-2.715-5.419 5.062-5.419 5.062-7.348.822-8.143 2.5-20.932 20.3-22.878 21.982-25.806-14.582-25.806-14.582l3.355-8.809 21.226 12.919z" class="cls-19" transform="translate(-251.869 -72.801)"/>
                    <path id="패스_1634" d="M374.834 130.4l21.226 12.919 18.056-10.819s.428.318.44.281c.991.406 3.265 3.014 3.517 3.083-3.139 7.168-19.23 16.6-20.781 17.939-1.945 1.683-25.812-14.586-25.812-14.586z" class="cls-10" transform="translate(-251.869 -88.416)"/>
                    <path id="패스_1635" d="M77.147 115.945l9.287 3.9 6.729.025-2.653-1.77-5.23-.311s-6.372-4.006-8.133-1.842" class="cls-18" transform="translate(-52.307 -78.177)"/>
                    <path id="패스_1636" d="M108.054 119.613s-2.221-4.813-4.224-6.1-3.673-.986-4.641-1.5-2.829-2.656-4.479-2.179.784 2.171.784 2.171l2.19 1.688-3.3.05s-4.332-3.277-5.519-2.715 5.419 5.062 5.419 5.062 7.348.823 8.143 2.5 20.932 20.3 22.878 21.982 25.812-14.586 25.812-14.586l-3.355-8.809L126.53 130.1z" class="cls-19" transform="translate(-60.151 -74.421)"/>
                    <path id="패스_1637" d="M181.028 132.795L159.8 145.714l-18.056-10.828s-.428.318-.44.281c-.991.406-3.265 3.014-3.517 3.083 3.139 7.168 19.23 16.6 20.781 17.939 1.945 1.683 25.812-14.586 25.812-14.586z" class="cls-10" transform="translate(-93.424 -90.037)"/>
                    <path id="패스_1638" d="M300.949 150.213a62.291 62.291 0 0 1 1.929 9.707q-3.933-.014-7.866-.038c-6.877-.042-13.758-.077-20.636.013a21.123 21.123 0 0 0 .139-2.27c0-3.85-11.471-36.009-11.471-36.009s11.441-6.3 13.652-7.4c2.407.412 3.518 1.365 5.977 1.29 2.757-.083 6.166.2 8.553-1.442 3 1.543 10.152 5.219 11.226 5.776 0 0 .151.187-.075 5.574-.149 3.526 2.211 7.8 2.305 12.938s-3.733 11.865-3.733 11.865" class="cls-20" transform="translate(-178.348 -77.335)"/>
                </g>
                <g id="그룹_796" clip-path="url(#clip-path-3)" transform="translate(84.696 36.725)">
                    <path id="패스_1639" d="M242.065 130.429a261.4 261.4 0 0 0 38.33-2.826l-.307-2.1a259.312 259.312 0 0 1-76.032 0l-.316 2.1a261.335 261.335 0 0 0 38.325 2.826" class="cls-16" transform="translate(-222.835 -121.817)"/>
                    <path id="패스_1640" d="M239.514 155.569a269.846 269.846 0 0 0 39.543-2.915l-.307-2.1a267.859 267.859 0 0 1-78.471 0l-.307 2.1a269.893 269.893 0 0 0 39.543 2.915" class="cls-16" transform="translate(-220.279 -138.801)"/>
                    <path id="패스_1641" d="M236.9 180.708a278.041 278.041 0 0 0 40.786-3.011l-.316-2.1a275.572 275.572 0 0 1-80.931 0l-.316 2.1a277.88 277.88 0 0 0 40.777 3.011" class="cls-16" transform="translate(-217.672 -155.782)"/>
                    <path id="패스_1642" fill="#be1e2d" d="M234.268 205.833a286.425 286.425 0 0 0 42.037-3.1l-.316-2.1a284.144 284.144 0 0 1-83.433 0l-.316 2.1a286.181 286.181 0 0 0 42.028 3.1" transform="translate(-215.038 -172.754)"/>
                    <path id="패스_1643" d="M231.582 230.961a294.779 294.779 0 0 0 43.308-3.2l-.316-2.1a292.4 292.4 0 0 1-85.98 0l-.316 2.1a294.778 294.778 0 0 0 43.3 3.2" class="cls-16" transform="translate(-212.351 -189.724)"/>
                </g>
                <g id="그룹_800" class="cls-5" transform="translate(0 0)">
                    <g id="그룹_799" opacity="0.3" transform="translate(98.221 65.245)">
                        <g id="그룹_798">
                            <g id="그룹_797" clip-path="url(#clip-path-5)">
                                <path id="패스_1645" d="M326.215 210.317a15.438 15.438 0 0 0-8.991-1.779 27.692 27.692 0 0 1-6.085-.2 14.807 14.807 0 0 1-4.076-.92c-.7-.331-2.037-1.277-2.011-2.16.034-1.189 2.108-.994 2.832-.934 1.327.11 2.587.548 3.9.728a6.782 6.782 0 0 0 3.8-.6c1.356-.615 2.632-1.661 4.157-1.795 2.806-.246 5.488 1.669 8.214 2.108a5.761 5.761 0 0 0 4.247-.9 37.862 37.862 0 0 1-2.775 6.406 32.806 32.806 0 0 1 .874 3.42 17.077 17.077 0 0 0-4.09-3.372" class="cls-7" transform="translate(-305.051 -202.634)"/>
                            </g>
                        </g>
                    </g>
                    <path id="패스_1646" d="M313.149 100.881a31.369 31.369 0 0 1-3.608-3.25 48.987 48.987 0 0 1-5.253-7.528c2.915-2.563-.132-11.692-.132-11.692l10.6.376 3.024 10.422 1.531.787c-.522 4.479-1.5 9.811-3.606 13.65-.046-.049-1.862-2.136-2.553-2.765" class="cls-19" transform="translate(-206.223 -53.163)"/>
                    <path id="패스_1647" d="M304.288 90.1a28.412 28.412 0 0 0 1.576 2.623c4.918 2.8 9.193 3.2 12.938.844.206-1.221.371-2.425.5-3.573l-1.531-.787-3.024-10.422-10.6-.376s3.047 9.129.132 11.692" class="cls-18" transform="translate(-206.223 -53.163)"/>
                    <path id="패스_1648" d="M354.823 53.142c-.564 1.9-.052 3.726 1.144 4.081s2.623-.9 3.187-2.794.052-3.726-1.144-4.081-2.623.9-3.187 2.794" class="cls-25" transform="translate(-240.42 -34.096)"/>
                    <path id="패스_1649" d="M289.164 53.491c.431 1.933 1.767 3.28 2.985 3.009s1.857-2.059 1.426-3.992-1.767-3.281-2.984-3.009-1.857 2.058-1.427 3.992" class="cls-25" transform="translate(-195.967 -33.538)"/>
                    <path id="패스_1650" fill="#fbbe7d" d="M307.534 14.084c9.773.1 10.264 9.281 10.287 10.387 0 .067 0 .132-.005.2-.07 1.021-1.442 10.454-2.4 12.247-.8 1.487-5.917 6.288-8.253 6.288s-7.232-4.974-8-6.478c-.921-1.813-2.09-11.259-2.139-12.281v-.2c.047-1.106.735-10.269 10.509-10.163" transform="translate(-201.387 -9.549)"/>
                    <path id="패스_1651" d="M317.723 25.928a9.347 9.347 0 0 0-3.775-.494c-3.328.04-5.787.841-8.271-2.469-.756-1.007-1.063-2.126-1.937-3.035a.977.977 0 0 0-.985-.152c-1.227.429-1.705 1.737-2.47 2.713a22.354 22.354 0 0 1-3.185 3.349c-.04-.695-.065-1.2-.073-1.393v-.2c.048-1.106.736-10.269 10.509-10.163s10.264 9.281 10.288 10.387c0 .067 0 .132-.006.2-.012.182-.044.637-.093 1.258" class="cls-18" transform="translate(-201.387 -9.549)"/>
                    <path id="패스_1652" d="M313.214 55.381c.685-.069 1.278.669 1.323 1.649s-.471 1.83-1.156 1.9-1.278-.668-1.323-1.648.472-1.83 1.156-1.9" class="cls-7" transform="translate(-211.579 -37.546)"/>
                    <path id="패스_1653" d="M341.008 55.68c.685-.069 1.278.669 1.323 1.649s-.472 1.829-1.157 1.9-1.278-.668-1.324-1.648.472-1.83 1.157-1.9" class="cls-7" transform="translate(-230.423 -37.749)"/>
                    <path id="패스_1654" d="M329.048 69.729c.165.274.156.226.043.433a2.358 2.358 0 0 1-.374.393c-.242.256.811.2 1 0 .156-.164.53-.432.608-.652.092-.262-.1-.363-.281-.522a3.25 3.25 0 0 1-1.049-1.7c-.068-.267-.507 1.111.055 2.045" class="cls-25" transform="translate(-222.851 -45.868)"/>
                    <path id="패스_1655" d="M325.164 81.77a20.621 20.621 0 0 0-6.39 0s1.632 2.752 3.172 2.752 3.218-2.752 3.218-2.752" class="cls-18" transform="translate(-216.134 -55.272)"/>
                    <path id="패스_1656" d="M318.976 82.084c-.127-.191-.2-.315-.2-.315a20.641 20.641 0 0 1 6.39 0s-.106.174-.288.433c-1.77 1.039-3.966.46-5.9-.118" class="cls-6" transform="translate(-216.134 -55.272)"/>
                    <path id="패스_1657" d="M304.454 0c-14.722.086-11.7 16.328-10.259 16.714 0 0 3.21-8.231 6.715-8.131 3.214 9.493 11.847 3.974 14.146 7.844 1.751-.916 3.7-16.511-10.6-16.427" class="cls-7" transform="translate(-198.609 0)"/>
                    <path id="패스_1658" fill="#4f4c4d" d="M325.621 9.152a8.991 8.991 0 0 0-4.568-6.114 16.24 16.24 0 0 0-9.083-1.9 26.913 26.913 0 0 0-4.551.607A12.751 12.751 0 0 1 314.281 0c9.648-.056 11.9 7.017 11.8 11.911-.12-.934-.268-1.858-.463-2.76" transform="translate(-208.436 -0.001)"/>
                    <path id="패스_1659" d="M309.767 43.354a8.67 8.67 0 0 0-5.984.619 1.006 1.006 0 0 1-.583.26c-.148-.011-.14-.156.034-.324 0 .094 1.7-2.478 6.248-1.639.312.072.348 1.1.285 1.085" class="cls-7" transform="translate(-205.503 -28.545)"/>
                    <path id="패스_1660" d="M335.438 45.983a8.156 8.156 0 0 1 5.71.52 1 1 0 0 0 .6.225c.147-.02.127-.165-.06-.322.019.062-1.945-2.3-6.055-1.348-.278.076-.248.941-.192.925" class="cls-7" transform="translate(-227.407 -30.396)"/>
                    <path id="패스_1661" d="M360.294 150.213a62.294 62.294 0 0 1 1.929 9.707q-2.982-.011-5.964-.028c-.1-1.316-.163-2.1-.163-2.1 1.319-3.341 1.42-37.315-5.525-43.736 3 1.543 10.152 5.219 11.226 5.776 0 0 .151.187-.075 5.574-.149 3.526 2.211 7.8 2.305 12.938s-3.733 11.865-3.733 11.865" class="cls-10" transform="translate(-237.693 -77.335)"/>
                    <path id="패스_1662" d="M271.708 161.639c-.006-.693-.012-1.351-.012-1.965 0-3.85-8.651-36.356-8.651-36.356s10.131-5.644 12.342-6.747c2.353.4 9.5 42.927 9.5 42.927l-.131 2.043c-4.348 0-8.7.019-13.044.1" class="cls-10" transform="translate(-178.348 -79.037)"/>
                    <path id="패스_1663" d="M292.873 114.723c3.075 13.185 5.856 27.909 8.469 43.522l-13.363-32.7 2.374-1.978-3.033-.659V117.5z" class="cls-28" transform="translate(-194.808 -77.784)"/>
                    <path id="패스_1664" d="M350.571 114.06l4.03 1.977 4.044 6.154-2.637.879 2.9 1.407s2.725 18.286-2.813 33.319c0 0 3.516-26.726-5.525-43.736" class="cls-28" transform="translate(-237.693 -77.335)"/>
                    <path id="패스_1665" d="M62.5 175.6l8.2-21.027a101.988 101.988 0 0 0-14.931-8.175 47.275 47.275 0 0 0-10.254-1.934 101.983 101.983 0 0 0-16.914 2.2l.287 21.291c11.24 2.383 22.432 4.989 33.613 7.645" class="cls-11" transform="translate(-19.391 -97.944)"/>
                    <path id="패스_1666" fill="#414042" d="M82.455 124.115l.478-2.546a2.2 2.2 0 1 0-2.045-2.607l.564.106a1.629 1.629 0 1 1 1.3 1.9l-.282-.053-.581 3.092-6.244 2.193-1.306 6.952 11.835 2.223 1.306-6.952zm3.26 10.593L75.01 132.7l1.139-6.061 5.933-2.085 4.772 4.1z" transform="translate(-50.403 -79.44)"/>
                    <path id="패스_1667" d="M39.5 148.321a8.61 8.61 0 0 1-16.851-3.166 103.784 103.784 0 0 0-13.442 1.979s.692 25.3-.443 31.342S0 205.391 0 205.391c5.549 4.137 32.076 9.119 38.748 7.279 0 0 .973-24.828 1.74-28.913s10.82-28.715 10.82-28.715a103.734 103.734 0 0 0-11.808-6.721" class="cls-20" transform="translate(0 -98.417)"/>
                    <path id="패스_1668" d="M85.544 147.078a6.891 6.891 0 0 1-13.529-2.542c.015-.11-1.723-.115-1.748.151a8.61 8.61 0 0 0 16.851 3.166c.073-.257-1.548-.883-1.574-.775" class="cls-16" transform="translate(-47.617 -97.95)"/>
                    <path id="패스_1669" d="M59.24 221.758l-14.59-2.741a3.87 3.87 0 0 1-3.09-4.517l2.74-14.592a3.871 3.871 0 0 1 4.519-3.089l14.591 2.741a3.87 3.87 0 0 1 3.089 4.519l-2.74 14.591a3.871 3.871 0 0 1-4.519 3.089" class="cls-16" transform="translate(-28.133 -133.4)"/>
                    <path id="패스_1670" d="M93.166 115.4c-1.374-.927-3.524-2.226-4.307-1.856-.715.338 1.4 2.106 3.192 3.459a11.191 11.191 0 0 0 1.115-1.6" class="cls-19" transform="translate(-60.151 -76.942)"/>
                    <path id="패스_1671" d="M69.068 214.167l1.155 4.41 4.287 1.548-3.837 2.461-.148 4.556L67 224.253l-4.378 1.267 1.658-4.246-2.56-3.774 4.551.265z" class="cls-20" transform="translate(-41.847 -145.208)"/>
                    <path id="사각형_986" fill="#333" d="M0 0H67.117V5.434H0z" transform="translate(71.727 81.87)"/>
                    <path id="사각형_987" fill="#a7a9ac" d="M0 0H67.117V1.581H0z" transform="translate(71.727 81.87)"/>
                    <path id="사각형_988" fill="#ed1c24" d="M0 0H21.198V1.581H0z" transform="translate(71.727 81.87)"/>
                </g>
                <path id="사각형_990" d="M0 0H190.965V172.447H0z" class="cls-2" transform="translate(0 0)"/>
            </g>
        </g>
        <text id="바빠서_어제_못봤던_LIVE를_보고싶을_때_Pumkin_Live" fill="#e73828" font-family="NotoSansCJKkr-Regular, Noto Sans CJK KR" font-size="14px" letter-spacing="-0.03em" transform="translate(43 422)">
            <tspan x="0" y="0">바빠서 어제 못봤던 LIVE를 </tspan><tspan x="0" y="27">보고싶을 때, </tspan><tspan y="27" font-family="NotoSansCJKkr-Bold, Noto Sans CJK KR" font-weight="700">Pumkin Live</tspan>
        </text>
    </g>
</svg>
